  0
SECTION
  2
HEADER
  9
$LTSCALE
 40
41.00
  9
$LIMMIN
 10
-41.00
 20
-61.50
  9
$LIMMAX
 10
2841.00
 20
2193.50
  9
$EXTMIN
 10
-41.00
 20
-61.50
  9
$EXTMAX
 10
2841.00
 20
2193.50
  9
$TEXTSTYLE
  7
txt
  9
$CLAYER
  8
1
  9
$CECOLOR
 62
7
  9
$CELTYPE
  6
CONTINUOUS
  9
$OSMODE
 70
0
  0
ENDSEC
  0
SECTION
  2
TABLES
  0
TABLE
  2
STYLE
 70
1
  0
STYLE
  2
STANDARD
 70
0
 40
1.00
 41
1.00
 50
0.00
 71
0
 42
0.20
  3
txt
  4

  0
ENDTAB
  0
TABLE
  2
LTYPE
 70
1
  0
LTYPE
  2
HIDDEN
 70
64
  3
_ _ _ _ _ _ _ _ _ _ _ _ _ _ _ _ _ _ _ _ _ _
 72
65
 73
2
 40
0.50
 49
0.25
 49
-0.25
  0
ENDTAB
  0
ENDSEC
  0
SECTION
  2
ENTITIES
  0
LINE
  6
CONTINUOUS
  8
FRAME_Z18
 10
0.00
 20
0.00
 30
0.00
 11
2800.00
 21
0.00
 31
0.00
  0
LINE
  6
CONTINUOUS
  8
FRAME_Z18
 10
0.00
 20
2050.00
 30
0.00
 11
2800.00
 21
2050.00
 31
0.00
  0
LINE
  6
CONTINUOUS
  8
FRAME_Z18
 10
0.00
 20
0.00
 30
0.00
 11
0.00
 21
2050.00
 31
0.00
  0
LINE
  6
CONTINUOUS
  8
FRAME_Z18
 10
2800.00
 20
0.00
 30
0.00
 11
2800.00
 21
2050.00
 31
0.00
  0
TEXT
  8
TEXT
 10
2095.16
 20
-448.78
 30
18.00
 40
41.00
  1

  0
TEXT
  8
TEXT
 10
2083.16
 20
-432.78
 30
18.00
 40
41.00
  1
A
  0
TEXT
  8
TEXT
 10
2267.16
 20
-593.78
 30
18.00
 40
41.00
  1
B
  0
TEXT
  8
TEXT
 10
2313.16
 20
-379.78
 30
18.00
 40
41.00
  1
C
  0
POLYLINE
  8
BORDER_D0_T132_RK1_A0_W0_EM1_RI1_ID0006
 70
1
 66
1
  0
VERTEX
  8
BORDER_D0_T132_RK1_A0_W0_EM1_RI1_ID0006
 10
205.48
 20
420.71
 30
16.50
  0
VERTEX
  8
BORDER_D0_T132_RK1_A0_W0_EM1_RI1_ID0006
 10
175.28
 20
398.76
 30
16.50
  0
VERTEX
  8
BORDER_D0_T132_RK1_A0_W0_EM1_RI1_ID0006
 10
186.81
 20
363.26
 30
16.50
  0
VERTEX
  8
BORDER_D0_T132_RK1_A0_W0_EM1_RI1_ID0006
 10
149.48
 20
363.26
 30
16.50
  0
VERTEX
  8
BORDER_D0_T132_RK1_A0_W0_EM1_RI1_ID0006
 10
137.94
 20
327.75
 30
16.50
  0
VERTEX
  8
BORDER_D0_T132_RK1_A0_W0_EM1_RI1_ID0006
 10
107.74
 20
349.69
 30
16.50
  0
VERTEX
  8
BORDER_D0_T132_RK1_A0_W0_EM1_RI1_ID0006
 10
77.54
 20
327.75
 30
16.50
  0
VERTEX
  8
BORDER_D0_T132_RK1_A0_W0_EM1_RI1_ID0006
 10
66.00
 20
363.26
 30
16.50
  0
VERTEX
  8
BORDER_D0_T132_RK1_A0_W0_EM1_RI1_ID0006
 10
28.67
 20
363.26
 30
16.50
  0
VERTEX
  8
BORDER_D0_T132_RK1_A0_W0_EM1_RI1_ID0006
 10
40.20
 20
398.76
 30
16.50
  0
VERTEX
  8
BORDER_D0_T132_RK1_A0_W0_EM1_RI1_ID0006
 10
10.00
 20
420.71
 30
16.50
  0
VERTEX
  8
BORDER_D0_T132_RK1_A0_W0_EM1_RI1_ID0006
 10
40.20
 20
442.65
 30
16.50
  0
VERTEX
  8
BORDER_D0_T132_RK1_A0_W0_EM1_RI1_ID0006
 10
28.67
 20
478.16
 30
16.50
  0
VERTEX
  8
BORDER_D0_T132_RK1_A0_W0_EM1_RI1_ID0006
 10
66.00
 20
478.16
 30
16.50
  0
VERTEX
  8
BORDER_D0_T132_RK1_A0_W0_EM1_RI1_ID0006
 10
77.54
 20
513.66
 30
16.50
  0
VERTEX
  8
BORDER_D0_T132_RK1_A0_W0_EM1_RI1_ID0006
 10
107.74
 20
491.72
 30
16.50
  0
VERTEX
  8
BORDER_D0_T132_RK1_A0_W0_EM1_RI1_ID0006
 10
137.94
 20
513.66
 30
16.50
  0
VERTEX
  8
BORDER_D0_T132_RK1_A0_W0_EM1_RI1_ID0006
 10
149.48
 20
478.16
 30
16.50
  0
VERTEX
  8
BORDER_D0_T132_RK1_A0_W0_EM1_RI1_ID0006
 10
186.81
 20
478.16
 30
16.50
  0
VERTEX
  8
BORDER_D0_T132_RK1_A0_W0_EM1_RI1_ID0006
 10
175.28
 20
442.65
 30
16.50
  0
VERTEX
  8
BORDER_D0_T132_RK1_A0_W0_EM1_RI1_ID0006
 10
205.48
 20
420.71
 30
16.50
  0
SEQEND
  8
BORDER_D0_T132_RK1_A0_W0_EM1_RI1_ID0006
  0
POLYLINE
  8
BORDER_D0_T132_RK1_A0_W0_EM1_RI1_ID0016
 70
1
 66
1
  0
VERTEX
  8
BORDER_D0_T132_RK1_A0_W0_EM1_RI1_ID0016
 10
10.00
 20
867.01
 30
16.50
  0
VERTEX
  8
BORDER_D0_T132_RK1_A0_W0_EM1_RI1_ID0016
 10
10.00
 20
1156.41
 30
16.50
  0
VERTEX
  8
BORDER_D0_T132_RK1_A0_W0_EM1_RI1_ID0016
 10
396.47
 20
1301.11
 30
16.50
  0
VERTEX
  8
BORDER_D0_T132_RK1_A0_W0_EM1_RI1_ID0016
 10
1555.90
 20
1084.06
 30
16.50
  0
VERTEX
  8
BORDER_D0_T132_RK1_A0_W0_EM1_RI1_ID0016
 10
1362.66
 20
997.24
 30
16.50
  0
VERTEX
  8
BORDER_D0_T132_RK1_A0_W0_EM1_RI1_ID0016
 10
1362.66
 20
736.78
 30
16.50
  0
VERTEX
  8
BORDER_D0_T132_RK1_A0_W0_EM1_RI1_ID0016
 10
1555.90
 20
649.96
 30
16.50
  0
VERTEX
  8
BORDER_D0_T132_RK1_A0_W0_EM1_RI1_ID0016
 10
396.47
 20
432.91
 30
16.50
  0
VERTEX
  8
BORDER_D0_T132_RK1_A0_W0_EM1_RI1_ID0016
 10
10.00
 20
577.61
 30
16.50
  0
VERTEX
  8
BORDER_D0_T132_RK1_A0_W0_EM1_RI1_ID0016
 10
10.00
 20
867.01
 30
16.50
  0
SEQEND
  8
BORDER_D0_T132_RK1_A0_W0_EM1_RI1_ID0016
  0
POLYLINE
  8
BORDER_D0_T132_RK1_A0_W0_EM1_RI1_ID0023
 70
1
 66
1
  0
VERTEX
  8
BORDER_D0_T132_RK1_A0_W0_EM1_RI1_ID0023
 10
94.64
 20
1572.45
 30
16.50
  0
VERTEX
  8
BORDER_D0_T132_RK1_A0_W0_EM1_RI1_ID0023
 10
10.00
 20
1621.32
 30
16.50
  0
VERTEX
  8
BORDER_D0_T132_RK1_A0_W0_EM1_RI1_ID0023
 10
10.00
 20
1719.06
 30
16.50
  0
VERTEX
  8
BORDER_D0_T132_RK1_A0_W0_EM1_RI1_ID0023
 10
94.64
 20
1767.93
 30
16.50
  0
VERTEX
  8
BORDER_D0_T132_RK1_A0_W0_EM1_RI1_ID0023
 10
179.28
 20
1719.06
 30
16.50
  0
VERTEX
  8
BORDER_D0_T132_RK1_A0_W0_EM1_RI1_ID0023
 10
179.28
 20
1621.32
 30
16.50
  0
VERTEX
  8
BORDER_D0_T132_RK1_A0_W0_EM1_RI1_ID0023
 10
94.64
 20
1572.45
 30
16.50
  0
SEQEND
  8
BORDER_D0_T132_RK1_A0_W0_EM1_RI1_ID0023
  0
POLYLINE
  8
BORDER_D0_T132_RK1_A0_W0_EM1_RI1_ID0023
 70
1
 66
1
  0
VERTEX
  8
BORDER_D0_T132_RK1_A0_W0_EM1_RI1_ID0023
 10
205.48
 20
1955.35
 30
16.50
  0
VERTEX
  8
BORDER_D0_T132_RK1_A0_W0_EM1_RI1_ID0023
 10
156.61
 20
1870.71
 30
16.50
  0
VERTEX
  8
BORDER_D0_T132_RK1_A0_W0_EM1_RI1_ID0023
 10
58.87
 20
1870.71
 30
16.50
  0
VERTEX
  8
BORDER_D0_T132_RK1_A0_W0_EM1_RI1_ID0023
 10
10.00
 20
1955.35
 30
16.50
  0
VERTEX
  8
BORDER_D0_T132_RK1_A0_W0_EM1_RI1_ID0023
 10
58.87
 20
2040.00
 30
16.50
  0
VERTEX
  8
BORDER_D0_T132_RK1_A0_W0_EM1_RI1_ID0023
 10
156.61
 20
2040.00
 30
16.50
  0
VERTEX
  8
BORDER_D0_T132_RK1_A0_W0_EM1_RI1_ID0023
 10
205.48
 20
1955.35
 30
16.50
  0
SEQEND
  8
BORDER_D0_T132_RK1_A0_W0_EM1_RI1_ID0023
  0
POLYLINE
  8
BORDER_D0_T132_RK1_A0_W0_EM1_RI1_ID0020
 70
1
 66
1
  0
VERTEX
  8
BORDER_D0_T132_RK1_A0_W0_EM1_RI1_ID0020
 10
425.95
 20
2040.00
 30
16.50
  0
VERTEX
  8
BORDER_D0_T132_RK1_A0_W0_EM1_RI1_ID0020
 10
671.89
 20
2040.00
 30
16.50
 42
-0.106573
  0
VERTEX
  8
BORDER_D0_T132_RK1_A0_W0_EM1_RI1_ID0020
 10
668.15
 20
2023.03
 30
16.50
 42
-0.081329
  0
VERTEX
  8
BORDER_D0_T132_RK1_A0_W0_EM1_RI1_ID0020
 10
657.06
 20
2006.57
 30
16.50
 42
-0.056349
  0
VERTEX
  8
BORDER_D0_T132_RK1_A0_W0_EM1_RI1_ID0020
 10
638.94
 20
1991.13
 30
16.50
 42
-0.039882
  0
VERTEX
  8
BORDER_D0_T132_RK1_A0_W0_EM1_RI1_ID0020
 10
614.35
 20
1977.17
 30
16.50
 42
-0.029934
  0
VERTEX
  8
BORDER_D0_T132_RK1_A0_W0_EM1_RI1_ID0020
 10
584.04
 20
1965.13
 30
16.50
 42
-0.023970
  0
VERTEX
  8
BORDER_D0_T132_RK1_A0_W0_EM1_RI1_ID0020
 10
548.92
 20
1955.36
 30
16.50
 42
-0.020392
  0
VERTEX
  8
BORDER_D0_T132_RK1_A0_W0_EM1_RI1_ID0020
 10
510.07
 20
1948.15
 30
16.50
 42
-0.018360
  0
VERTEX
  8
BORDER_D0_T132_RK1_A0_W0_EM1_RI1_ID0020
 10
468.66
 20
1943.75
 30
16.50
 42
-0.017437
  0
VERTEX
  8
BORDER_D0_T132_RK1_A0_W0_EM1_RI1_ID0020
 10
425.95
 20
1942.26
 30
16.50
 42
-0.017437
  0
VERTEX
  8
BORDER_D0_T132_RK1_A0_W0_EM1_RI1_ID0020
 10
383.24
 20
1943.75
 30
16.50
 42
-0.018360
  0
VERTEX
  8
BORDER_D0_T132_RK1_A0_W0_EM1_RI1_ID0020
 10
341.83
 20
1948.15
 30
16.50
 42
-0.020392
  0
VERTEX
  8
BORDER_D0_T132_RK1_A0_W0_EM1_RI1_ID0020
 10
302.98
 20
1955.36
 30
16.50
 42
-0.023970
  0
VERTEX
  8
BORDER_D0_T132_RK1_A0_W0_EM1_RI1_ID0020
 10
267.86
 20
1965.13
 30
16.50
 42
-0.029934
  0
VERTEX
  8
BORDER_D0_T132_RK1_A0_W0_EM1_RI1_ID0020
 10
237.55
 20
1977.17
 30
16.50
 42
-0.039882
  0
VERTEX
  8
BORDER_D0_T132_RK1_A0_W0_EM1_RI1_ID0020
 10
212.96
 20
1991.13
 30
16.50
 42
-0.056349
  0
VERTEX
  8
BORDER_D0_T132_RK1_A0_W0_EM1_RI1_ID0020
 10
194.84
 20
2006.57
 30
16.50
 42
-0.081329
  0
VERTEX
  8
BORDER_D0_T132_RK1_A0_W0_EM1_RI1_ID0020
 10
183.75
 20
2023.03
 30
16.50
 42
-0.106573
  0
VERTEX
  8
BORDER_D0_T132_RK1_A0_W0_EM1_RI1_ID0020
 10
180.01
 20
2040.00
 30
16.50
  0
VERTEX
  8
BORDER_D0_T132_RK1_A0_W0_EM1_RI1_ID0020
 10
425.95
 20
2040.00
 30
16.50
  0
SEQEND
  8
BORDER_D0_T132_RK1_A0_W0_EM1_RI1_ID0020
  0
POLYLINE
  8
BORDER_D0_T132_RK1_A0_W0_EM1_RI1_ID0016
 70
1
 66
1
  0
VERTEX
  8
BORDER_D0_T132_RK1_A0_W0_EM1_RI1_ID0016
 10
1555.90
 20
1605.90
 30
16.50
  0
VERTEX
  8
BORDER_D0_T132_RK1_A0_W0_EM1_RI1_ID0016
 10
1555.90
 20
1316.50
 30
16.50
  0
VERTEX
  8
BORDER_D0_T132_RK1_A0_W0_EM1_RI1_ID0016
 10
1169.43
 20
1171.80
 30
16.50
  0
VERTEX
  8
BORDER_D0_T132_RK1_A0_W0_EM1_RI1_ID0016
 10
10.00
 20
1388.85
 30
16.50
  0
VERTEX
  8
BORDER_D0_T132_RK1_A0_W0_EM1_RI1_ID0016
 10
203.24
 20
1475.67
 30
16.50
  0
VERTEX
  8
BORDER_D0_T132_RK1_A0_W0_EM1_RI1_ID0016
 10
203.24
 20
1736.13
 30
16.50
  0
VERTEX
  8
BORDER_D0_T132_RK1_A0_W0_EM1_RI1_ID0016
 10
10.00
 20
1822.95
 30
16.50
  0
VERTEX
  8
BORDER_D0_T132_RK1_A0_W0_EM1_RI1_ID0016
 10
1169.43
 20
2040.00
 30
16.50
  0
VERTEX
  8
BORDER_D0_T132_RK1_A0_W0_EM1_RI1_ID0016
 10
1555.90
 20
1895.30
 30
16.50
  0
VERTEX
  8
BORDER_D0_T132_RK1_A0_W0_EM1_RI1_ID0016
 10
1555.90
 20
1605.90
 30
16.50
  0
SEQEND
  8
BORDER_D0_T132_RK1_A0_W0_EM1_RI1_ID0016
  0
POLYLINE
  8
BORDER_D0_T132_RK1_A0_W0_EM1_RI1_ID0018
 70
1
 66
1
  0
VERTEX
  8
BORDER_D0_T132_RK1_A0_W0_EM1_RI1_ID0018
 10
2492.55
 20
2040.00
 30
16.50
 42
-0.106572
  0
VERTEX
  8
BORDER_D0_T132_RK1_A0_W0_EM1_RI1_ID0018
 10
2509.52
 20
2036.26
 30
16.50
 42
-0.081329
  0
VERTEX
  8
BORDER_D0_T132_RK1_A0_W0_EM1_RI1_ID0018
 10
2525.98
 20
2025.17
 30
16.50
 42
-0.056349
  0
VERTEX
  8
BORDER_D0_T132_RK1_A0_W0_EM1_RI1_ID0018
 10
2541.42
 20
2007.05
 30
16.50
 42
-0.039882
  0
VERTEX
  8
BORDER_D0_T132_RK1_A0_W0_EM1_RI1_ID0018
 10
2555.38
 20
1982.46
 30
16.50
 42
-0.029934
  0
VERTEX
  8
BORDER_D0_T132_RK1_A0_W0_EM1_RI1_ID0018
 10
2567.42
 20
1952.15
 30
16.50
 42
-0.023970
  0
VERTEX
  8
BORDER_D0_T132_RK1_A0_W0_EM1_RI1_ID0018
 10
2577.19
 20
1917.03
 30
16.50
 42
-0.020392
  0
VERTEX
  8
BORDER_D0_T132_RK1_A0_W0_EM1_RI1_ID0018
 10
2584.40
 20
1878.18
 30
16.50
 42
-0.018360
  0
VERTEX
  8
BORDER_D0_T132_RK1_A0_W0_EM1_RI1_ID0018
 10
2588.80
 20
1836.77
 30
16.50
 42
-0.017437
  0
VERTEX
  8
BORDER_D0_T132_RK1_A0_W0_EM1_RI1_ID0018
 10
2590.29
 20
1794.06
 30
16.50
 42
-0.017437
  0
VERTEX
  8
BORDER_D0_T132_RK1_A0_W0_EM1_RI1_ID0018
 10
2588.80
 20
1751.35
 30
16.50
 42
-0.018360
  0
VERTEX
  8
BORDER_D0_T132_RK1_A0_W0_EM1_RI1_ID0018
 10
2584.40
 20
1709.94
 30
16.50
 42
-0.020392
  0
VERTEX
  8
BORDER_D0_T132_RK1_A0_W0_EM1_RI1_ID0018
 10
2577.19
 20
1671.09
 30
16.50
 42
-0.023970
  0
VERTEX
  8
BORDER_D0_T132_RK1_A0_W0_EM1_RI1_ID0018
 10
2567.42
 20
1635.97
 30
16.50
 42
-0.029934
  0
VERTEX
  8
BORDER_D0_T132_RK1_A0_W0_EM1_RI1_ID0018
 10
2555.38
 20
1605.66
 30
16.50
 42
-0.039882
  0
VERTEX
  8
BORDER_D0_T132_RK1_A0_W0_EM1_RI1_ID0018
 10
2541.42
 20
1581.07
 30
16.50
 42
-0.056349
  0
VERTEX
  8
BORDER_D0_T132_RK1_A0_W0_EM1_RI1_ID0018
 10
2525.98
 20
1562.95
 30
16.50
 42
-0.081329
  0
VERTEX
  8
BORDER_D0_T132_RK1_A0_W0_EM1_RI1_ID0018
 10
2509.52
 20
1551.86
 30
16.50
 42
-0.106572
  0
VERTEX
  8
BORDER_D0_T132_RK1_A0_W0_EM1_RI1_ID0018
 10
2492.55
 20
1548.12
 30
16.50
 42
-0.106572
  0
VERTEX
  8
BORDER_D0_T132_RK1_A0_W0_EM1_RI1_ID0018
 10
2475.58
 20
1551.86
 30
16.50
 42
-0.081329
  0
VERTEX
  8
BORDER_D0_T132_RK1_A0_W0_EM1_RI1_ID0018
 10
2459.12
 20
1562.95
 30
16.50
 42
-0.056348
  0
VERTEX
  8
BORDER_D0_T132_RK1_A0_W0_EM1_RI1_ID0018
 10
2443.68
 20
1581.07
 30
16.50
 42
-0.039883
  0
VERTEX
  8
BORDER_D0_T132_RK1_A0_W0_EM1_RI1_ID0018
 10
2429.72
 20
1605.66
 30
16.50
 42
-0.029934
  0
VERTEX
  8
BORDER_D0_T132_RK1_A0_W0_EM1_RI1_ID0018
 10
2417.68
 20
1635.97
 30
16.50
 42
-0.023970
  0
VERTEX
  8
BORDER_D0_T132_RK1_A0_W0_EM1_RI1_ID0018
 10
2407.91
 20
1671.09
 30
16.50
 42
-0.020392
  0
VERTEX
  8
BORDER_D0_T132_RK1_A0_W0_EM1_RI1_ID0018
 10
2400.70
 20
1709.94
 30
16.50
 42
-0.018360
  0
VERTEX
  8
BORDER_D0_T132_RK1_A0_W0_EM1_RI1_ID0018
 10
2396.30
 20
1751.35
 30
16.50
 42
-0.017437
  0
VERTEX
  8
BORDER_D0_T132_RK1_A0_W0_EM1_RI1_ID0018
 10
2394.81
 20
1794.06
 30
16.50
 42
-0.017436
  0
VERTEX
  8
BORDER_D0_T132_RK1_A0_W0_EM1_RI1_ID0018
 10
2396.30
 20
1836.77
 30
16.50
 42
-0.018360
  0
VERTEX
  8
BORDER_D0_T132_RK1_A0_W0_EM1_RI1_ID0018
 10
2400.70
 20
1878.18
 30
16.50
 42
-0.020392
  0
VERTEX
  8
BORDER_D0_T132_RK1_A0_W0_EM1_RI1_ID0018
 10
2407.91
 20
1917.03
 30
16.50
 42
-0.023970
  0
VERTEX
  8
BORDER_D0_T132_RK1_A0_W0_EM1_RI1_ID0018
 10
2417.68
 20
1952.15
 30
16.50
 42
-0.029934
  0
VERTEX
  8
BORDER_D0_T132_RK1_A0_W0_EM1_RI1_ID0018
 10
2429.72
 20
1982.46
 30
16.50
 42
-0.039883
  0
VERTEX
  8
BORDER_D0_T132_RK1_A0_W0_EM1_RI1_ID0018
 10
2443.68
 20
2007.05
 30
16.50
 42
-0.056348
  0
VERTEX
  8
BORDER_D0_T132_RK1_A0_W0_EM1_RI1_ID0018
 10
2459.12
 20
2025.17
 30
16.50
 42
-0.081329
  0
VERTEX
  8
BORDER_D0_T132_RK1_A0_W0_EM1_RI1_ID0018
 10
2475.58
 20
2036.26
 30
16.50
 42
-0.106572
  0
VERTEX
  8
BORDER_D0_T132_RK1_A0_W0_EM1_RI1_ID0018
 10
2492.55
 20
2040.00
 30
16.50
  0
SEQEND
  8
BORDER_D0_T132_RK1_A0_W0_EM1_RI1_ID0018
  0
POLYLINE
  8
BORDER_D0_T132_RK1_A0_W0_EM1_RI1_ID0006
 70
1
 66
1
  0
VERTEX
  8
BORDER_D0_T132_RK1_A0_W0_EM1_RI1_ID0006
 10
2781.56
 20
1947.05
 30
16.50
  0
VERTEX
  8
BORDER_D0_T132_RK1_A0_W0_EM1_RI1_ID0006
 10
2751.36
 20
1925.10
 30
16.50
  0
VERTEX
  8
BORDER_D0_T132_RK1_A0_W0_EM1_RI1_ID0006
 10
2762.89
 20
1889.60
 30
16.50
  0
VERTEX
  8
BORDER_D0_T132_RK1_A0_W0_EM1_RI1_ID0006
 10
2725.56
 20
1889.60
 30
16.50
  0
VERTEX
  8
BORDER_D0_T132_RK1_A0_W0_EM1_RI1_ID0006
 10
2714.02
 20
1854.09
 30
16.50
  0
VERTEX
  8
BORDER_D0_T132_RK1_A0_W0_EM1_RI1_ID0006
 10
2683.82
 20
1876.03
 30
16.50
  0
VERTEX
  8
BORDER_D0_T132_RK1_A0_W0_EM1_RI1_ID0006
 10
2653.62
 20
1854.09
 30
16.50
  0
VERTEX
  8
BORDER_D0_T132_RK1_A0_W0_EM1_RI1_ID0006
 10
2642.08
 20
1889.60
 30
16.50
  0
VERTEX
  8
BORDER_D0_T132_RK1_A0_W0_EM1_RI1_ID0006
 10
2604.75
 20
1889.60
 30
16.50
  0
VERTEX
  8
BORDER_D0_T132_RK1_A0_W0_EM1_RI1_ID0006
 10
2616.28
 20
1925.10
 30
16.50
  0
VERTEX
  8
BORDER_D0_T132_RK1_A0_W0_EM1_RI1_ID0006
 10
2586.08
 20
1947.05
 30
16.50
  0
VERTEX
  8
BORDER_D0_T132_RK1_A0_W0_EM1_RI1_ID0006
 10
2616.28
 20
1968.99
 30
16.50
  0
VERTEX
  8
BORDER_D0_T132_RK1_A0_W0_EM1_RI1_ID0006
 10
2604.75
 20
2004.50
 30
16.50
  0
VERTEX
  8
BORDER_D0_T132_RK1_A0_W0_EM1_RI1_ID0006
 10
2642.08
 20
2004.50
 30
16.50
  0
VERTEX
  8
BORDER_D0_T132_RK1_A0_W0_EM1_RI1_ID0006
 10
2653.62
 20
2040.00
 30
16.50
  0
VERTEX
  8
BORDER_D0_T132_RK1_A0_W0_EM1_RI1_ID0006
 10
2683.82
 20
2018.06
 30
16.50
  0
VERTEX
  8
BORDER_D0_T132_RK1_A0_W0_EM1_RI1_ID0006
 10
2714.02
 20
2040.00
 30
16.50
  0
VERTEX
  8
BORDER_D0_T132_RK1_A0_W0_EM1_RI1_ID0006
 10
2725.56
 20
2004.50
 30
16.50
  0
VERTEX
  8
BORDER_D0_T132_RK1_A0_W0_EM1_RI1_ID0006
 10
2762.89
 20
2004.50
 30
16.50
  0
VERTEX
  8
BORDER_D0_T132_RK1_A0_W0_EM1_RI1_ID0006
 10
2751.36
 20
1968.99
 30
16.50
  0
VERTEX
  8
BORDER_D0_T132_RK1_A0_W0_EM1_RI1_ID0006
 10
2781.56
 20
1947.05
 30
16.50
  0
SEQEND
  8
BORDER_D0_T132_RK1_A0_W0_EM1_RI1_ID0006
  0
POLYLINE
  8
BORDER_D0_T132_RK1_A0_W0_EM1_RI1_ID0020
 70
1
 66
1
  0
VERTEX
  8
BORDER_D0_T132_RK1_A0_W0_EM1_RI1_ID0020
 10
2773.17
 20
1154.02
 30
16.50
  0
VERTEX
  8
BORDER_D0_T132_RK1_A0_W0_EM1_RI1_ID0020
 10
2773.17
 20
908.08
 30
16.50
 42
-0.106572
  0
VERTEX
  8
BORDER_D0_T132_RK1_A0_W0_EM1_RI1_ID0020
 10
2756.20
 20
911.82
 30
16.50
 42
-0.081329
  0
VERTEX
  8
BORDER_D0_T132_RK1_A0_W0_EM1_RI1_ID0020
 10
2739.74
 20
922.91
 30
16.50
 42
-0.056348
  0
VERTEX
  8
BORDER_D0_T132_RK1_A0_W0_EM1_RI1_ID0020
 10
2724.30
 20
941.03
 30
16.50
 42
-0.039883
  0
VERTEX
  8
BORDER_D0_T132_RK1_A0_W0_EM1_RI1_ID0020
 10
2710.34
 20
965.62
 30
16.50
 42
-0.029934
  0
VERTEX
  8
BORDER_D0_T132_RK1_A0_W0_EM1_RI1_ID0020
 10
2698.30
 20
995.93
 30
16.50
 42
-0.023970
  0
VERTEX
  8
BORDER_D0_T132_RK1_A0_W0_EM1_RI1_ID0020
 10
2688.53
 20
1031.05
 30
16.50
 42
-0.020392
  0
VERTEX
  8
BORDER_D0_T132_RK1_A0_W0_EM1_RI1_ID0020
 10
2681.32
 20
1069.90
 30
16.50
 42
-0.018360
  0
VERTEX
  8
BORDER_D0_T132_RK1_A0_W0_EM1_RI1_ID0020
 10
2676.92
 20
1111.31
 30
16.50
 42
-0.017436
  0
VERTEX
  8
BORDER_D0_T132_RK1_A0_W0_EM1_RI1_ID0020
 10
2675.43
 20
1154.02
 30
16.50
 42
-0.017436
  0
VERTEX
  8
BORDER_D0_T132_RK1_A0_W0_EM1_RI1_ID0020
 10
2676.92
 20
1196.73
 30
16.50
 42
-0.018360
  0
VERTEX
  8
BORDER_D0_T132_RK1_A0_W0_EM1_RI1_ID0020
 10
2681.32
 20
1238.14
 30
16.50
 42
-0.020392
  0
VERTEX
  8
BORDER_D0_T132_RK1_A0_W0_EM1_RI1_ID0020
 10
2688.53
 20
1276.99
 30
16.50
 42
-0.023970
  0
VERTEX
  8
BORDER_D0_T132_RK1_A0_W0_EM1_RI1_ID0020
 10
2698.30
 20
1312.11
 30
16.50
 42
-0.029934
  0
VERTEX
  8
BORDER_D0_T132_RK1_A0_W0_EM1_RI1_ID0020
 10
2710.34
 20
1342.42
 30
16.50
 42
-0.039883
  0
VERTEX
  8
BORDER_D0_T132_RK1_A0_W0_EM1_RI1_ID0020
 10
2724.30
 20
1367.01
 30
16.50
 42
-0.056348
  0
VERTEX
  8
BORDER_D0_T132_RK1_A0_W0_EM1_RI1_ID0020
 10
2739.74
 20
1385.13
 30
16.50
 42
-0.081329
  0
VERTEX
  8
BORDER_D0_T132_RK1_A0_W0_EM1_RI1_ID0020
 10
2756.20
 20
1396.22
 30
16.50
 42
-0.106572
  0
VERTEX
  8
BORDER_D0_T132_RK1_A0_W0_EM1_RI1_ID0020
 10
2773.17
 20
1399.96
 30
16.50
  0
VERTEX
  8
BORDER_D0_T132_RK1_A0_W0_EM1_RI1_ID0020
 10
2773.17
 20
1154.02
 30
16.50
  0
SEQEND
  8
BORDER_D0_T132_RK1_A0_W0_EM1_RI1_ID0020
  0
POLYLINE
  8
BORDER_D0_T132_RK1_A0_W0_EM1_RI1_ID0020
 70
1
 66
1
  0
VERTEX
  8
BORDER_D0_T132_RK1_A0_W0_EM1_RI1_ID0020
 10
2675.75
 20
1605.09
 30
16.50
  0
VERTEX
  8
BORDER_D0_T132_RK1_A0_W0_EM1_RI1_ID0020
 10
2675.75
 20
1851.03
 30
16.50
 42
-0.106572
  0
VERTEX
  8
BORDER_D0_T132_RK1_A0_W0_EM1_RI1_ID0020
 10
2692.72
 20
1847.29
 30
16.50
 42
-0.081329
  0
VERTEX
  8
BORDER_D0_T132_RK1_A0_W0_EM1_RI1_ID0020
 10
2709.18
 20
1836.20
 30
16.50
 42
-0.056348
  0
VERTEX
  8
BORDER_D0_T132_RK1_A0_W0_EM1_RI1_ID0020
 10
2724.62
 20
1818.08
 30
16.50
 42
-0.039882
  0
VERTEX
  8
BORDER_D0_T132_RK1_A0_W0_EM1_RI1_ID0020
 10
2738.58
 20
1793.49
 30
16.50
 42
-0.029934
  0
VERTEX
  8
BORDER_D0_T132_RK1_A0_W0_EM1_RI1_ID0020
 10
2750.62
 20
1763.18
 30
16.50
 42
-0.023970
  0
VERTEX
  8
BORDER_D0_T132_RK1_A0_W0_EM1_RI1_ID0020
 10
2760.39
 20
1728.06
 30
16.50
 42
-0.020392
  0
VERTEX
  8
BORDER_D0_T132_RK1_A0_W0_EM1_RI1_ID0020
 10
2767.60
 20
1689.21
 30
16.50
 42
-0.018360
  0
VERTEX
  8
BORDER_D0_T132_RK1_A0_W0_EM1_RI1_ID0020
 10
2772.00
 20
1647.80
 30
16.50
 42
-0.017437
  0
VERTEX
  8
BORDER_D0_T132_RK1_A0_W0_EM1_RI1_ID0020
 10
2773.49
 20
1605.09
 30
16.50
 42
-0.017437
  0
VERTEX
  8
BORDER_D0_T132_RK1_A0_W0_EM1_RI1_ID0020
 10
2772.00
 20
1562.38
 30
16.50
 42
-0.018360
  0
VERTEX
  8
BORDER_D0_T132_RK1_A0_W0_EM1_RI1_ID0020
 10
2767.60
 20
1520.97
 30
16.50
 42
-0.020392
  0
VERTEX
  8
BORDER_D0_T132_RK1_A0_W0_EM1_RI1_ID0020
 10
2760.39
 20
1482.12
 30
16.50
 42
-0.023970
  0
VERTEX
  8
BORDER_D0_T132_RK1_A0_W0_EM1_RI1_ID0020
 10
2750.62
 20
1447.00
 30
16.50
 42
-0.029934
  0
VERTEX
  8
BORDER_D0_T132_RK1_A0_W0_EM1_RI1_ID0020
 10
2738.58
 20
1416.69
 30
16.50
 42
-0.039882
  0
VERTEX
  8
BORDER_D0_T132_RK1_A0_W0_EM1_RI1_ID0020
 10
2724.62
 20
1392.10
 30
16.50
 42
-0.056349
  0
VERTEX
  8
BORDER_D0_T132_RK1_A0_W0_EM1_RI1_ID0020
 10
2709.18
 20
1373.98
 30
16.50
 42
-0.081329
  0
VERTEX
  8
BORDER_D0_T132_RK1_A0_W0_EM1_RI1_ID0020
 10
2692.72
 20
1362.89
 30
16.50
 42
-0.106572
  0
VERTEX
  8
BORDER_D0_T132_RK1_A0_W0_EM1_RI1_ID0020
 10
2675.75
 20
1359.15
 30
16.50
  0
VERTEX
  8
BORDER_D0_T132_RK1_A0_W0_EM1_RI1_ID0020
 10
2675.75
 20
1605.09
 30
16.50
  0
SEQEND
  8
BORDER_D0_T132_RK1_A0_W0_EM1_RI1_ID0020
  0
POLYLINE
  8
BORDER_D0_T132_RK1_A0_W0_EM1_RI1_ID0020
 70
1
 66
1
  0
VERTEX
  8
BORDER_D0_T132_RK1_A0_W0_EM1_RI1_ID0020
 10
2533.87
 20
907.11
 30
16.50
  0
VERTEX
  8
BORDER_D0_T132_RK1_A0_W0_EM1_RI1_ID0020
 10
2533.87
 20
661.17
 30
16.50
 42
-0.106572
  0
VERTEX
  8
BORDER_D0_T132_RK1_A0_W0_EM1_RI1_ID0020
 10
2516.90
 20
664.91
 30
16.50
 42
-0.081329
  0
VERTEX
  8
BORDER_D0_T132_RK1_A0_W0_EM1_RI1_ID0020
 10
2500.44
 20
676.00
 30
16.50
 42
-0.056348
  0
VERTEX
  8
BORDER_D0_T132_RK1_A0_W0_EM1_RI1_ID0020
 10
2485.00
 20
694.12
 30
16.50
 42
-0.039882
  0
VERTEX
  8
BORDER_D0_T132_RK1_A0_W0_EM1_RI1_ID0020
 10
2471.04
 20
718.71
 30
16.50
 42
-0.029934
  0
VERTEX
  8
BORDER_D0_T132_RK1_A0_W0_EM1_RI1_ID0020
 10
2459.00
 20
749.02
 30
16.50
 42
-0.023970
  0
VERTEX
  8
BORDER_D0_T132_RK1_A0_W0_EM1_RI1_ID0020
 10
2449.23
 20
784.14
 30
16.50
 42
-0.020392
  0
VERTEX
  8
BORDER_D0_T132_RK1_A0_W0_EM1_RI1_ID0020
 10
2442.02
 20
822.99
 30
16.50
 42
-0.018360
  0
VERTEX
  8
BORDER_D0_T132_RK1_A0_W0_EM1_RI1_ID0020
 10
2437.62
 20
864.40
 30
16.50
 42
-0.017436
  0
VERTEX
  8
BORDER_D0_T132_RK1_A0_W0_EM1_RI1_ID0020
 10
2436.13
 20
907.11
 30
16.50
 42
-0.017437
  0
VERTEX
  8
BORDER_D0_T132_RK1_A0_W0_EM1_RI1_ID0020
 10
2437.62
 20
949.82
 30
16.50
 42
-0.018360
  0
VERTEX
  8
BORDER_D0_T132_RK1_A0_W0_EM1_RI1_ID0020
 10
2442.02
 20
991.23
 30
16.50
 42
-0.020392
  0
VERTEX
  8
BORDER_D0_T132_RK1_A0_W0_EM1_RI1_ID0020
 10
2449.23
 20
1030.08
 30
16.50
 42
-0.023970
  0
VERTEX
  8
BORDER_D0_T132_RK1_A0_W0_EM1_RI1_ID0020
 10
2459.00
 20
1065.20
 30
16.50
 42
-0.029934
  0
VERTEX
  8
BORDER_D0_T132_RK1_A0_W0_EM1_RI1_ID0020
 10
2471.04
 20
1095.51
 30
16.50
 42
-0.039882
  0
VERTEX
  8
BORDER_D0_T132_RK1_A0_W0_EM1_RI1_ID0020
 10
2485.00
 20
1120.10
 30
16.50
 42
-0.056348
  0
VERTEX
  8
BORDER_D0_T132_RK1_A0_W0_EM1_RI1_ID0020
 10
2500.44
 20
1138.22
 30
16.50
 42
-0.081329
  0
VERTEX
  8
BORDER_D0_T132_RK1_A0_W0_EM1_RI1_ID0020
 10
2516.90
 20
1149.31
 30
16.50
 42
-0.106572
  0
VERTEX
  8
BORDER_D0_T132_RK1_A0_W0_EM1_RI1_ID0020
 10
2533.87
 20
1153.05
 30
16.50
  0
VERTEX
  8
BORDER_D0_T132_RK1_A0_W0_EM1_RI1_ID0020
 10
2533.87
 20
907.11
 30
16.50
  0
SEQEND
  8
BORDER_D0_T132_RK1_A0_W0_EM1_RI1_ID0020
  0
POLYLINE
  8
BORDER_D0_T132_RK1_A0_W0_EM1_RI1_ID0020
 70
1
 66
1
  0
VERTEX
  8
BORDER_D0_T132_RK1_A0_W0_EM1_RI1_ID0020
 10
2556.97
 20
1330.26
 30
16.50
  0
VERTEX
  8
BORDER_D0_T132_RK1_A0_W0_EM1_RI1_ID0020
 10
2556.97
 20
1576.20
 30
16.50
 42
-0.106572
  0
VERTEX
  8
BORDER_D0_T132_RK1_A0_W0_EM1_RI1_ID0020
 10
2573.94
 20
1572.46
 30
16.50
 42
-0.081329
  0
VERTEX
  8
BORDER_D0_T132_RK1_A0_W0_EM1_RI1_ID0020
 10
2590.40
 20
1561.37
 30
16.50
 42
-0.056349
  0
VERTEX
  8
BORDER_D0_T132_RK1_A0_W0_EM1_RI1_ID0020
 10
2605.84
 20
1543.25
 30
16.50
 42
-0.039882
  0
VERTEX
  8
BORDER_D0_T132_RK1_A0_W0_EM1_RI1_ID0020
 10
2619.80
 20
1518.66
 30
16.50
 42
-0.029934
  0
VERTEX
  8
BORDER_D0_T132_RK1_A0_W0_EM1_RI1_ID0020
 10
2631.84
 20
1488.35
 30
16.50
 42
-0.023970
  0
VERTEX
  8
BORDER_D0_T132_RK1_A0_W0_EM1_RI1_ID0020
 10
2641.61
 20
1453.23
 30
16.50
 42
-0.020392
  0
VERTEX
  8
BORDER_D0_T132_RK1_A0_W0_EM1_RI1_ID0020
 10
2648.82
 20
1414.38
 30
16.50
 42
-0.018360
  0
VERTEX
  8
BORDER_D0_T132_RK1_A0_W0_EM1_RI1_ID0020
 10
2653.22
 20
1372.97
 30
16.50
 42
-0.017437
  0
VERTEX
  8
BORDER_D0_T132_RK1_A0_W0_EM1_RI1_ID0020
 10
2654.71
 20
1330.26
 30
16.50
 42
-0.017437
  0
VERTEX
  8
BORDER_D0_T132_RK1_A0_W0_EM1_RI1_ID0020
 10
2653.22
 20
1287.55
 30
16.50
 42
-0.018360
  0
VERTEX
  8
BORDER_D0_T132_RK1_A0_W0_EM1_RI1_ID0020
 10
2648.82
 20
1246.14
 30
16.50
 42
-0.020392
  0
VERTEX
  8
BORDER_D0_T132_RK1_A0_W0_EM1_RI1_ID0020
 10
2641.61
 20
1207.29
 30
16.50
 42
-0.023970
  0
VERTEX
  8
BORDER_D0_T132_RK1_A0_W0_EM1_RI1_ID0020
 10
2631.84
 20
1172.17
 30
16.50
 42
-0.029934
  0
VERTEX
  8
BORDER_D0_T132_RK1_A0_W0_EM1_RI1_ID0020
 10
2619.80
 20
1141.86
 30
16.50
 42
-0.039882
  0
VERTEX
  8
BORDER_D0_T132_RK1_A0_W0_EM1_RI1_ID0020
 10
2605.84
 20
1117.27
 30
16.50
 42
-0.056349
  0
VERTEX
  8
BORDER_D0_T132_RK1_A0_W0_EM1_RI1_ID0020
 10
2590.40
 20
1099.15
 30
16.50
 42
-0.081329
  0
VERTEX
  8
BORDER_D0_T132_RK1_A0_W0_EM1_RI1_ID0020
 10
2573.94
 20
1088.06
 30
16.50
 42
-0.106572
  0
VERTEX
  8
BORDER_D0_T132_RK1_A0_W0_EM1_RI1_ID0020
 10
2556.97
 20
1084.32
 30
16.50
  0
VERTEX
  8
BORDER_D0_T132_RK1_A0_W0_EM1_RI1_ID0020
 10
2556.97
 20
1330.26
 30
16.50
  0
SEQEND
  8
BORDER_D0_T132_RK1_A0_W0_EM1_RI1_ID0020
  0
POLYLINE
  8
BORDER_D0_T132_RK1_A0_W0_EM1_RI1_ID0018
 70
1
 66
1
  0
VERTEX
  8
BORDER_D0_T132_RK1_A0_W0_EM1_RI1_ID0018
 10
2372.57
 20
717.43
 30
16.50
 42
-0.106572
  0
VERTEX
  8
BORDER_D0_T132_RK1_A0_W0_EM1_RI1_ID0018
 10
2389.54
 20
713.69
 30
16.50
 42
-0.081329
  0
VERTEX
  8
BORDER_D0_T132_RK1_A0_W0_EM1_RI1_ID0018
 10
2406.00
 20
702.60
 30
16.50
 42
-0.056349
  0
VERTEX
  8
BORDER_D0_T132_RK1_A0_W0_EM1_RI1_ID0018
 10
2421.44
 20
684.48
 30
16.50
 42
-0.039882
  0
VERTEX
  8
BORDER_D0_T132_RK1_A0_W0_EM1_RI1_ID0018
 10
2435.40
 20
659.89
 30
16.50
 42
-0.029934
  0
VERTEX
  8
BORDER_D0_T132_RK1_A0_W0_EM1_RI1_ID0018
 10
2447.44
 20
629.58
 30
16.50
 42
-0.023970
  0
VERTEX
  8
BORDER_D0_T132_RK1_A0_W0_EM1_RI1_ID0018
 10
2457.21
 20
594.46
 30
16.50
 42
-0.020392
  0
VERTEX
  8
BORDER_D0_T132_RK1_A0_W0_EM1_RI1_ID0018
 10
2464.42
 20
555.61
 30
16.50
 42
-0.018360
  0
VERTEX
  8
BORDER_D0_T132_RK1_A0_W0_EM1_RI1_ID0018
 10
2468.82
 20
514.20
 30
16.50
 42
-0.017437
  0
VERTEX
  8
BORDER_D0_T132_RK1_A0_W0_EM1_RI1_ID0018
 10
2470.31
 20
471.49
 30
16.50
 42
-0.017437
  0
VERTEX
  8
BORDER_D0_T132_RK1_A0_W0_EM1_RI1_ID0018
 10
2468.82
 20
428.78
 30
16.50
 42
-0.018360
  0
VERTEX
  8
BORDER_D0_T132_RK1_A0_W0_EM1_RI1_ID0018
 10
2464.42
 20
387.37
 30
16.50
 42
-0.020392
  0
VERTEX
  8
BORDER_D0_T132_RK1_A0_W0_EM1_RI1_ID0018
 10
2457.21
 20
348.52
 30
16.50
 42
-0.023970
  0
VERTEX
  8
BORDER_D0_T132_RK1_A0_W0_EM1_RI1_ID0018
 10
2447.44
 20
313.40
 30
16.50
 42
-0.029934
  0
VERTEX
  8
BORDER_D0_T132_RK1_A0_W0_EM1_RI1_ID0018
 10
2435.40
 20
283.09
 30
16.50
 42
-0.039882
  0
VERTEX
  8
BORDER_D0_T132_RK1_A0_W0_EM1_RI1_ID0018
 10
2421.44
 20
258.50
 30
16.50
 42
-0.056349
  0
VERTEX
  8
BORDER_D0_T132_RK1_A0_W0_EM1_RI1_ID0018
 10
2406.00
 20
240.38
 30
16.50
 42
-0.081329
  0
VERTEX
  8
BORDER_D0_T132_RK1_A0_W0_EM1_RI1_ID0018
 10
2389.54
 20
229.29
 30
16.50
 42
-0.106572
  0
VERTEX
  8
BORDER_D0_T132_RK1_A0_W0_EM1_RI1_ID0018
 10
2372.57
 20
225.55
 30
16.50
 42
-0.106572
  0
VERTEX
  8
BORDER_D0_T132_RK1_A0_W0_EM1_RI1_ID0018
 10
2355.60
 20
229.29
 30
16.50
 42
-0.081329
  0
VERTEX
  8
BORDER_D0_T132_RK1_A0_W0_EM1_RI1_ID0018
 10
2339.14
 20
240.38
 30
16.50
 42
-0.056348
  0
VERTEX
  8
BORDER_D0_T132_RK1_A0_W0_EM1_RI1_ID0018
 10
2323.70
 20
258.50
 30
16.50
 42
-0.039883
  0
VERTEX
  8
BORDER_D0_T132_RK1_A0_W0_EM1_RI1_ID0018
 10
2309.74
 20
283.09
 30
16.50
 42
-0.029934
  0
VERTEX
  8
BORDER_D0_T132_RK1_A0_W0_EM1_RI1_ID0018
 10
2297.70
 20
313.40
 30
16.50
 42
-0.023970
  0
VERTEX
  8
BORDER_D0_T132_RK1_A0_W0_EM1_RI1_ID0018
 10
2287.93
 20
348.52
 30
16.50
 42
-0.020392
  0
VERTEX
  8
BORDER_D0_T132_RK1_A0_W0_EM1_RI1_ID0018
 10
2280.72
 20
387.37
 30
16.50
 42
-0.018360
  0
VERTEX
  8
BORDER_D0_T132_RK1_A0_W0_EM1_RI1_ID0018
 10
2276.32
 20
428.78
 30
16.50
 42
-0.017436
  0
VERTEX
  8
BORDER_D0_T132_RK1_A0_W0_EM1_RI1_ID0018
 10
2274.83
 20
471.49
 30
16.50
 42
-0.017437
  0
VERTEX
  8
BORDER_D0_T132_RK1_A0_W0_EM1_RI1_ID0018
 10
2276.32
 20
514.20
 30
16.50
 42
-0.018360
  0
VERTEX
  8
BORDER_D0_T132_RK1_A0_W0_EM1_RI1_ID0018
 10
2280.72
 20
555.61
 30
16.50
 42
-0.020392
  0
VERTEX
  8
BORDER_D0_T132_RK1_A0_W0_EM1_RI1_ID0018
 10
2287.93
 20
594.46
 30
16.50
 42
-0.023970
  0
VERTEX
  8
BORDER_D0_T132_RK1_A0_W0_EM1_RI1_ID0018
 10
2297.70
 20
629.58
 30
16.50
 42
-0.029934
  0
VERTEX
  8
BORDER_D0_T132_RK1_A0_W0_EM1_RI1_ID0018
 10
2309.74
 20
659.89
 30
16.50
 42
-0.039882
  0
VERTEX
  8
BORDER_D0_T132_RK1_A0_W0_EM1_RI1_ID0018
 10
2323.70
 20
684.48
 30
16.50
 42
-0.056348
  0
VERTEX
  8
BORDER_D0_T132_RK1_A0_W0_EM1_RI1_ID0018
 10
2339.14
 20
702.60
 30
16.50
 42
-0.081329
  0
VERTEX
  8
BORDER_D0_T132_RK1_A0_W0_EM1_RI1_ID0018
 10
2355.60
 20
713.69
 30
16.50
 42
-0.106572
  0
VERTEX
  8
BORDER_D0_T132_RK1_A0_W0_EM1_RI1_ID0018
 10
2372.57
 20
717.43
 30
16.50
  0
SEQEND
  8
BORDER_D0_T132_RK1_A0_W0_EM1_RI1_ID0018
  0
POLYLINE
  8
BORDER_D0_T132_RK1_A0_W0_EM1_RI1_ID0020
 70
1
 66
1
  0
VERTEX
  8
BORDER_D0_T132_RK1_A0_W0_EM1_RI1_ID0020
 10
2598.34
 20
840.21
 30
16.50
  0
VERTEX
  8
BORDER_D0_T132_RK1_A0_W0_EM1_RI1_ID0020
 10
2598.34
 20
1086.15
 30
16.50
 42
-0.106572
  0
VERTEX
  8
BORDER_D0_T132_RK1_A0_W0_EM1_RI1_ID0020
 10
2615.31
 20
1082.41
 30
16.50
 42
-0.081329
  0
VERTEX
  8
BORDER_D0_T132_RK1_A0_W0_EM1_RI1_ID0020
 10
2631.77
 20
1071.32
 30
16.50
 42
-0.056349
  0
VERTEX
  8
BORDER_D0_T132_RK1_A0_W0_EM1_RI1_ID0020
 10
2647.21
 20
1053.20
 30
16.50
 42
-0.039882
  0
VERTEX
  8
BORDER_D0_T132_RK1_A0_W0_EM1_RI1_ID0020
 10
2661.17
 20
1028.61
 30
16.50
 42
-0.029934
  0
VERTEX
  8
BORDER_D0_T132_RK1_A0_W0_EM1_RI1_ID0020
 10
2673.21
 20
998.30
 30
16.50
 42
-0.023970
  0
VERTEX
  8
BORDER_D0_T132_RK1_A0_W0_EM1_RI1_ID0020
 10
2682.98
 20
963.18
 30
16.50
 42
-0.020392
  0
VERTEX
  8
BORDER_D0_T132_RK1_A0_W0_EM1_RI1_ID0020
 10
2690.19
 20
924.33
 30
16.50
 42
-0.018360
  0
VERTEX
  8
BORDER_D0_T132_RK1_A0_W0_EM1_RI1_ID0020
 10
2694.59
 20
882.92
 30
16.50
 42
-0.017437
  0
VERTEX
  8
BORDER_D0_T132_RK1_A0_W0_EM1_RI1_ID0020
 10
2696.08
 20
840.21
 30
16.50
 42
-0.017437
  0
VERTEX
  8
BORDER_D0_T132_RK1_A0_W0_EM1_RI1_ID0020
 10
2694.59
 20
797.50
 30
16.50
 42
-0.018360
  0
VERTEX
  8
BORDER_D0_T132_RK1_A0_W0_EM1_RI1_ID0020
 10
2690.19
 20
756.09
 30
16.50
 42
-0.020392
  0
VERTEX
  8
BORDER_D0_T132_RK1_A0_W0_EM1_RI1_ID0020
 10
2682.98
 20
717.24
 30
16.50
 42
-0.023970
  0
VERTEX
  8
BORDER_D0_T132_RK1_A0_W0_EM1_RI1_ID0020
 10
2673.21
 20
682.12
 30
16.50
 42
-0.029934
  0
VERTEX
  8
BORDER_D0_T132_RK1_A0_W0_EM1_RI1_ID0020
 10
2661.17
 20
651.81
 30
16.50
 42
-0.039882
  0
VERTEX
  8
BORDER_D0_T132_RK1_A0_W0_EM1_RI1_ID0020
 10
2647.21
 20
627.22
 30
16.50
 42
-0.056349
  0
VERTEX
  8
BORDER_D0_T132_RK1_A0_W0_EM1_RI1_ID0020
 10
2631.77
 20
609.10
 30
16.50
 42
-0.081329
  0
VERTEX
  8
BORDER_D0_T132_RK1_A0_W0_EM1_RI1_ID0020
 10
2615.31
 20
598.01
 30
16.50
 42
-0.106572
  0
VERTEX
  8
BORDER_D0_T132_RK1_A0_W0_EM1_RI1_ID0020
 10
2598.34
 20
594.27
 30
16.50
  0
VERTEX
  8
BORDER_D0_T132_RK1_A0_W0_EM1_RI1_ID0020
 10
2598.34
 20
840.21
 30
16.50
  0
SEQEND
  8
BORDER_D0_T132_RK1_A0_W0_EM1_RI1_ID0020
  0
POLYLINE
  8
BORDER_D0_T132_RK1_A0_W0_EM1_RI1_ID0018
 70
1
 66
1
  0
VERTEX
  8
BORDER_D0_T132_RK1_A0_W0_EM1_RI1_ID0018
 10
2564.01
 20
505.51
 30
16.50
 42
-0.106572
  0
VERTEX
  8
BORDER_D0_T132_RK1_A0_W0_EM1_RI1_ID0018
 10
2580.98
 20
501.77
 30
16.50
 42
-0.081329
  0
VERTEX
  8
BORDER_D0_T132_RK1_A0_W0_EM1_RI1_ID0018
 10
2597.44
 20
490.68
 30
16.50
 42
-0.056349
  0
VERTEX
  8
BORDER_D0_T132_RK1_A0_W0_EM1_RI1_ID0018
 10
2612.88
 20
472.56
 30
16.50
 42
-0.039882
  0
VERTEX
  8
BORDER_D0_T132_RK1_A0_W0_EM1_RI1_ID0018
 10
2626.84
 20
447.97
 30
16.50
 42
-0.029934
  0
VERTEX
  8
BORDER_D0_T132_RK1_A0_W0_EM1_RI1_ID0018
 10
2638.88
 20
417.66
 30
16.50
 42
-0.023970
  0
VERTEX
  8
BORDER_D0_T132_RK1_A0_W0_EM1_RI1_ID0018
 10
2648.65
 20
382.54
 30
16.50
 42
-0.020392
  0
VERTEX
  8
BORDER_D0_T132_RK1_A0_W0_EM1_RI1_ID0018
 10
2655.86
 20
343.69
 30
16.50
 42
-0.018360
  0
VERTEX
  8
BORDER_D0_T132_RK1_A0_W0_EM1_RI1_ID0018
 10
2660.26
 20
302.28
 30
16.50
 42
-0.017437
  0
VERTEX
  8
BORDER_D0_T132_RK1_A0_W0_EM1_RI1_ID0018
 10
2661.75
 20
259.57
 30
16.50
 42
-0.017437
  0
VERTEX
  8
BORDER_D0_T132_RK1_A0_W0_EM1_RI1_ID0018
 10
2660.26
 20
216.86
 30
16.50
 42
-0.018360
  0
VERTEX
  8
BORDER_D0_T132_RK1_A0_W0_EM1_RI1_ID0018
 10
2655.86
 20
175.45
 30
16.50
 42
-0.020392
  0
VERTEX
  8
BORDER_D0_T132_RK1_A0_W0_EM1_RI1_ID0018
 10
2648.65
 20
136.60
 30
16.50
 42
-0.023970
  0
VERTEX
  8
BORDER_D0_T132_RK1_A0_W0_EM1_RI1_ID0018
 10
2638.88
 20
101.48
 30
16.50
 42
-0.029934
  0
VERTEX
  8
BORDER_D0_T132_RK1_A0_W0_EM1_RI1_ID0018
 10
2626.84
 20
71.17
 30
16.50
 42
-0.039882
  0
VERTEX
  8
BORDER_D0_T132_RK1_A0_W0_EM1_RI1_ID0018
 10
2612.88
 20
46.58
 30
16.50
 42
-0.056349
  0
VERTEX
  8
BORDER_D0_T132_RK1_A0_W0_EM1_RI1_ID0018
 10
2597.44
 20
28.46
 30
16.50
 42
-0.081329
  0
VERTEX
  8
BORDER_D0_T132_RK1_A0_W0_EM1_RI1_ID0018
 10
2580.98
 20
17.37
 30
16.50
 42
-0.106572
  0
VERTEX
  8
BORDER_D0_T132_RK1_A0_W0_EM1_RI1_ID0018
 10
2564.01
 20
13.63
 30
16.50
 42
-0.106572
  0
VERTEX
  8
BORDER_D0_T132_RK1_A0_W0_EM1_RI1_ID0018
 10
2547.04
 20
17.37
 30
16.50
 42
-0.081329
  0
VERTEX
  8
BORDER_D0_T132_RK1_A0_W0_EM1_RI1_ID0018
 10
2530.58
 20
28.46
 30
16.50
 42
-0.056348
  0
VERTEX
  8
BORDER_D0_T132_RK1_A0_W0_EM1_RI1_ID0018
 10
2515.14
 20
46.58
 30
16.50
 42
-0.039883
  0
VERTEX
  8
BORDER_D0_T132_RK1_A0_W0_EM1_RI1_ID0018
 10
2501.18
 20
71.17
 30
16.50
 42
-0.029934
  0
VERTEX
  8
BORDER_D0_T132_RK1_A0_W0_EM1_RI1_ID0018
 10
2489.14
 20
101.48
 30
16.50
 42
-0.023970
  0
VERTEX
  8
BORDER_D0_T132_RK1_A0_W0_EM1_RI1_ID0018
 10
2479.37
 20
136.60
 30
16.50
 42
-0.020392
  0
VERTEX
  8
BORDER_D0_T132_RK1_A0_W0_EM1_RI1_ID0018
 10
2472.16
 20
175.45
 30
16.50
 42
-0.018360
  0
VERTEX
  8
BORDER_D0_T132_RK1_A0_W0_EM1_RI1_ID0018
 10
2467.76
 20
216.86
 30
16.50
 42
-0.017436
  0
VERTEX
  8
BORDER_D0_T132_RK1_A0_W0_EM1_RI1_ID0018
 10
2466.27
 20
259.57
 30
16.50
 42
-0.017437
  0
VERTEX
  8
BORDER_D0_T132_RK1_A0_W0_EM1_RI1_ID0018
 10
2467.76
 20
302.28
 30
16.50
 42
-0.018360
  0
VERTEX
  8
BORDER_D0_T132_RK1_A0_W0_EM1_RI1_ID0018
 10
2472.16
 20
343.69
 30
16.50
 42
-0.020392
  0
VERTEX
  8
BORDER_D0_T132_RK1_A0_W0_EM1_RI1_ID0018
 10
2479.37
 20
382.54
 30
16.50
 42
-0.023970
  0
VERTEX
  8
BORDER_D0_T132_RK1_A0_W0_EM1_RI1_ID0018
 10
2489.14
 20
417.66
 30
16.50
 42
-0.029934
  0
VERTEX
  8
BORDER_D0_T132_RK1_A0_W0_EM1_RI1_ID0018
 10
2501.18
 20
447.97
 30
16.50
 42
-0.039883
  0
VERTEX
  8
BORDER_D0_T132_RK1_A0_W0_EM1_RI1_ID0018
 10
2515.14
 20
472.56
 30
16.50
 42
-0.056348
  0
VERTEX
  8
BORDER_D0_T132_RK1_A0_W0_EM1_RI1_ID0018
 10
2530.58
 20
490.68
 30
16.50
 42
-0.081329
  0
VERTEX
  8
BORDER_D0_T132_RK1_A0_W0_EM1_RI1_ID0018
 10
2547.04
 20
501.77
 30
16.50
 42
-0.106572
  0
VERTEX
  8
BORDER_D0_T132_RK1_A0_W0_EM1_RI1_ID0018
 10
2564.01
 20
505.51
 30
16.50
  0
SEQEND
  8
BORDER_D0_T132_RK1_A0_W0_EM1_RI1_ID0018
  0
POLYLINE
  8
BORDER_D0_T132_RK1_A0_W0_EM1_RI1_ID0020
 70
1
 66
1
  0
VERTEX
  8
BORDER_D0_T132_RK1_A0_W0_EM1_RI1_ID0020
 10
2676.48
 20
401.03
 30
16.50
  0
VERTEX
  8
BORDER_D0_T132_RK1_A0_W0_EM1_RI1_ID0020
 10
2676.48
 20
646.97
 30
16.50
 42
-0.106572
  0
VERTEX
  8
BORDER_D0_T132_RK1_A0_W0_EM1_RI1_ID0020
 10
2693.45
 20
643.23
 30
16.50
 42
-0.081329
  0
VERTEX
  8
BORDER_D0_T132_RK1_A0_W0_EM1_RI1_ID0020
 10
2709.91
 20
632.14
 30
16.50
 42
-0.056349
  0
VERTEX
  8
BORDER_D0_T132_RK1_A0_W0_EM1_RI1_ID0020
 10
2725.35
 20
614.02
 30
16.50
 42
-0.039882
  0
VERTEX
  8
BORDER_D0_T132_RK1_A0_W0_EM1_RI1_ID0020
 10
2739.31
 20
589.43
 30
16.50
 42
-0.029934
  0
VERTEX
  8
BORDER_D0_T132_RK1_A0_W0_EM1_RI1_ID0020
 10
2751.35
 20
559.12
 30
16.50
 42
-0.023970
  0
VERTEX
  8
BORDER_D0_T132_RK1_A0_W0_EM1_RI1_ID0020
 10
2761.12
 20
524.00
 30
16.50
 42
-0.020392
  0
VERTEX
  8
BORDER_D0_T132_RK1_A0_W0_EM1_RI1_ID0020
 10
2768.33
 20
485.15
 30
16.50
 42
-0.018360
  0
VERTEX
  8
BORDER_D0_T132_RK1_A0_W0_EM1_RI1_ID0020
 10
2772.73
 20
443.74
 30
16.50
 42
-0.017437
  0
VERTEX
  8
BORDER_D0_T132_RK1_A0_W0_EM1_RI1_ID0020
 10
2774.22
 20
401.03
 30
16.50
 42
-0.017437
  0
VERTEX
  8
BORDER_D0_T132_RK1_A0_W0_EM1_RI1_ID0020
 10
2772.73
 20
358.32
 30
16.50
 42
-0.018360
  0
VERTEX
  8
BORDER_D0_T132_RK1_A0_W0_EM1_RI1_ID0020
 10
2768.33
 20
316.91
 30
16.50
 42
-0.020392
  0
VERTEX
  8
BORDER_D0_T132_RK1_A0_W0_EM1_RI1_ID0020
 10
2761.12
 20
278.06
 30
16.50
 42
-0.023970
  0
VERTEX
  8
BORDER_D0_T132_RK1_A0_W0_EM1_RI1_ID0020
 10
2751.35
 20
242.94
 30
16.50
 42
-0.029934
  0
VERTEX
  8
BORDER_D0_T132_RK1_A0_W0_EM1_RI1_ID0020
 10
2739.31
 20
212.63
 30
16.50
 42
-0.039882
  0
VERTEX
  8
BORDER_D0_T132_RK1_A0_W0_EM1_RI1_ID0020
 10
2725.35
 20
188.04
 30
16.50
 42
-0.056349
  0
VERTEX
  8
BORDER_D0_T132_RK1_A0_W0_EM1_RI1_ID0020
 10
2709.91
 20
169.92
 30
16.50
 42
-0.081329
  0
VERTEX
  8
BORDER_D0_T132_RK1_A0_W0_EM1_RI1_ID0020
 10
2693.45
 20
158.83
 30
16.50
 42
-0.106572
  0
VERTEX
  8
BORDER_D0_T132_RK1_A0_W0_EM1_RI1_ID0020
 10
2676.48
 20
155.09
 30
16.50
  0
VERTEX
  8
BORDER_D0_T132_RK1_A0_W0_EM1_RI1_ID0020
 10
2676.48
 20
401.03
 30
16.50
  0
SEQEND
  8
BORDER_D0_T132_RK1_A0_W0_EM1_RI1_ID0020
  0
POLYLINE
  8
BORDER_D0_T132_RK1_A0_W0_EM1_RI1_ID0007
 70
1
 66
1
  0
VERTEX
  8
BORDER_D0_T132_RK1_A0_W0_EM1_RI1_ID0007
 10
2347.10
 20
36.74
 30
16.50
  0
VERTEX
  8
BORDER_D0_T132_RK1_A0_W0_EM1_RI1_ID0007
 10
2325.15
 20
104.27
 30
16.50
  0
VERTEX
  8
BORDER_D0_T132_RK1_A0_W0_EM1_RI1_ID0007
 10
2254.14
 20
104.27
 30
16.50
  0
VERTEX
  8
BORDER_D0_T132_RK1_A0_W0_EM1_RI1_ID0007
 10
2311.59
 20
146.01
 30
16.50
  0
VERTEX
  8
BORDER_D0_T132_RK1_A0_W0_EM1_RI1_ID0007
 10
2289.65
 20
213.55
 30
16.50
  0
VERTEX
  8
BORDER_D0_T132_RK1_A0_W0_EM1_RI1_ID0007
 10
2347.10
 20
171.81
 30
16.50
  0
VERTEX
  8
BORDER_D0_T132_RK1_A0_W0_EM1_RI1_ID0007
 10
2404.55
 20
213.55
 30
16.50
  0
VERTEX
  8
BORDER_D0_T132_RK1_A0_W0_EM1_RI1_ID0007
 10
2382.60
 20
146.01
 30
16.50
  0
VERTEX
  8
BORDER_D0_T132_RK1_A0_W0_EM1_RI1_ID0007
 10
2440.05
 20
104.27
 30
16.50
  0
VERTEX
  8
BORDER_D0_T132_RK1_A0_W0_EM1_RI1_ID0007
 10
2369.04
 20
104.27
 30
16.50
  0
VERTEX
  8
BORDER_D0_T132_RK1_A0_W0_EM1_RI1_ID0007
 10
2347.10
 20
36.74
 30
16.50
  0
SEQEND
  8
BORDER_D0_T132_RK1_A0_W0_EM1_RI1_ID0007
  0
POLYLINE
  8
BORDER_D0_T132_RK1_A0_W0_EM1_RI1_ID0018
 70
1
 66
1
  0
VERTEX
  8
BORDER_D0_T132_RK1_A0_W0_EM1_RI1_ID0018
 10
2022.35
 20
186.85
 30
16.50
 42
-0.106572
  0
VERTEX
  8
BORDER_D0_T132_RK1_A0_W0_EM1_RI1_ID0018
 10
2018.61
 20
169.88
 30
16.50
 42
-0.081330
  0
VERTEX
  8
BORDER_D0_T132_RK1_A0_W0_EM1_RI1_ID0018
 10
2007.52
 20
153.42
 30
16.50
 42
-0.056348
  0
VERTEX
  8
BORDER_D0_T132_RK1_A0_W0_EM1_RI1_ID0018
 10
1989.40
 20
137.98
 30
16.50
 42
-0.039882
  0
VERTEX
  8
BORDER_D0_T132_RK1_A0_W0_EM1_RI1_ID0018
 10
1964.81
 20
124.02
 30
16.50
 42
-0.029934
  0
VERTEX
  8
BORDER_D0_T132_RK1_A0_W0_EM1_RI1_ID0018
 10
1934.50
 20
111.98
 30
16.50
 42
-0.023970
  0
VERTEX
  8
BORDER_D0_T132_RK1_A0_W0_EM1_RI1_ID0018
 10
1899.38
 20
102.21
 30
16.50
 42
-0.020392
  0
VERTEX
  8
BORDER_D0_T132_RK1_A0_W0_EM1_RI1_ID0018
 10
1860.53
 20
95.00
 30
16.50
 42
-0.018360
  0
VERTEX
  8
BORDER_D0_T132_RK1_A0_W0_EM1_RI1_ID0018
 10
1819.12
 20
90.60
 30
16.50
 42
-0.017436
  0
VERTEX
  8
BORDER_D0_T132_RK1_A0_W0_EM1_RI1_ID0018
 10
1776.41
 20
89.11
 30
16.50
 42
-0.017436
  0
VERTEX
  8
BORDER_D0_T132_RK1_A0_W0_EM1_RI1_ID0018
 10
1733.70
 20
90.60
 30
16.50
 42
-0.018360
  0
VERTEX
  8
BORDER_D0_T132_RK1_A0_W0_EM1_RI1_ID0018
 10
1692.29
 20
95.00
 30
16.50
 42
-0.020392
  0
VERTEX
  8
BORDER_D0_T132_RK1_A0_W0_EM1_RI1_ID0018
 10
1653.44
 20
102.21
 30
16.50
 42
-0.023970
  0
VERTEX
  8
BORDER_D0_T132_RK1_A0_W0_EM1_RI1_ID0018
 10
1618.32
 20
111.98
 30
16.50
 42
-0.029934
  0
VERTEX
  8
BORDER_D0_T132_RK1_A0_W0_EM1_RI1_ID0018
 10
1588.01
 20
124.02
 30
16.50
 42
-0.039882
  0
VERTEX
  8
BORDER_D0_T132_RK1_A0_W0_EM1_RI1_ID0018
 10
1563.42
 20
137.98
 30
16.50
 42
-0.056348
  0
VERTEX
  8
BORDER_D0_T132_RK1_A0_W0_EM1_RI1_ID0018
 10
1545.30
 20
153.42
 30
16.50
 42
-0.081329
  0
VERTEX
  8
BORDER_D0_T132_RK1_A0_W0_EM1_RI1_ID0018
 10
1534.21
 20
169.88
 30
16.50
 42
-0.106572
  0
VERTEX
  8
BORDER_D0_T132_RK1_A0_W0_EM1_RI1_ID0018
 10
1530.47
 20
186.85
 30
16.50
 42
-0.106572
  0
VERTEX
  8
BORDER_D0_T132_RK1_A0_W0_EM1_RI1_ID0018
 10
1534.21
 20
203.82
 30
16.50
 42
-0.081329
  0
VERTEX
  8
BORDER_D0_T132_RK1_A0_W0_EM1_RI1_ID0018
 10
1545.30
 20
220.28
 30
16.50
 42
-0.056348
  0
VERTEX
  8
BORDER_D0_T132_RK1_A0_W0_EM1_RI1_ID0018
 10
1563.42
 20
235.72
 30
16.50
 42
-0.039882
  0
VERTEX
  8
BORDER_D0_T132_RK1_A0_W0_EM1_RI1_ID0018
 10
1588.01
 20
249.68
 30
16.50
 42
-0.029934
  0
VERTEX
  8
BORDER_D0_T132_RK1_A0_W0_EM1_RI1_ID0018
 10
1618.32
 20
261.72
 30
16.50
 42
-0.023970
  0
VERTEX
  8
BORDER_D0_T132_RK1_A0_W0_EM1_RI1_ID0018
 10
1653.44
 20
271.49
 30
16.50
 42
-0.020392
  0
VERTEX
  8
BORDER_D0_T132_RK1_A0_W0_EM1_RI1_ID0018
 10
1692.29
 20
278.70
 30
16.50
 42
-0.018360
  0
VERTEX
  8
BORDER_D0_T132_RK1_A0_W0_EM1_RI1_ID0018
 10
1733.70
 20
283.10
 30
16.50
 42
-0.017437
  0
VERTEX
  8
BORDER_D0_T132_RK1_A0_W0_EM1_RI1_ID0018
 10
1776.41
 20
284.59
 30
16.50
 42
-0.017437
  0
VERTEX
  8
BORDER_D0_T132_RK1_A0_W0_EM1_RI1_ID0018
 10
1819.12
 20
283.10
 30
16.50
 42
-0.018360
  0
VERTEX
  8
BORDER_D0_T132_RK1_A0_W0_EM1_RI1_ID0018
 10
1860.53
 20
278.70
 30
16.50
 42
-0.020392
  0
VERTEX
  8
BORDER_D0_T132_RK1_A0_W0_EM1_RI1_ID0018
 10
1899.38
 20
271.49
 30
16.50
 42
-0.023970
  0
VERTEX
  8
BORDER_D0_T132_RK1_A0_W0_EM1_RI1_ID0018
 10
1934.50
 20
261.72
 30
16.50
 42
-0.029934
  0
VERTEX
  8
BORDER_D0_T132_RK1_A0_W0_EM1_RI1_ID0018
 10
1964.81
 20
249.68
 30
16.50
 42
-0.039882
  0
VERTEX
  8
BORDER_D0_T132_RK1_A0_W0_EM1_RI1_ID0018
 10
1989.40
 20
235.72
 30
16.50
 42
-0.056349
  0
VERTEX
  8
BORDER_D0_T132_RK1_A0_W0_EM1_RI1_ID0018
 10
2007.52
 20
220.28
 30
16.50
 42
-0.081329
  0
VERTEX
  8
BORDER_D0_T132_RK1_A0_W0_EM1_RI1_ID0018
 10
2018.61
 20
203.82
 30
16.50
 42
-0.106572
  0
VERTEX
  8
BORDER_D0_T132_RK1_A0_W0_EM1_RI1_ID0018
 10
2022.35
 20
186.85
 30
16.50
  0
SEQEND
  8
BORDER_D0_T132_RK1_A0_W0_EM1_RI1_ID0018
  0
POLYLINE
  8
BORDER_D0_T132_RK1_A0_W0_EM1_RI1_ID0018
 70
1
 66
1
  0
VERTEX
  8
BORDER_D0_T132_RK1_A0_W0_EM1_RI1_ID0018
 10
1829.46
 20
381.65
 30
16.50
 42
-0.106572
  0
VERTEX
  8
BORDER_D0_T132_RK1_A0_W0_EM1_RI1_ID0018
 10
1825.72
 20
364.68
 30
16.50
 42
-0.081329
  0
VERTEX
  8
BORDER_D0_T132_RK1_A0_W0_EM1_RI1_ID0018
 10
1814.63
 20
348.22
 30
16.50
 42
-0.056348
  0
VERTEX
  8
BORDER_D0_T132_RK1_A0_W0_EM1_RI1_ID0018
 10
1796.51
 20
332.78
 30
16.50
 42
-0.039882
  0
VERTEX
  8
BORDER_D0_T132_RK1_A0_W0_EM1_RI1_ID0018
 10
1771.92
 20
318.82
 30
16.50
 42
-0.029934
  0
VERTEX
  8
BORDER_D0_T132_RK1_A0_W0_EM1_RI1_ID0018
 10
1741.61
 20
306.78
 30
16.50
 42
-0.023970
  0
VERTEX
  8
BORDER_D0_T132_RK1_A0_W0_EM1_RI1_ID0018
 10
1706.49
 20
297.01
 30
16.50
 42
-0.020392
  0
VERTEX
  8
BORDER_D0_T132_RK1_A0_W0_EM1_RI1_ID0018
 10
1667.64
 20
289.80
 30
16.50
 42
-0.018360
  0
VERTEX
  8
BORDER_D0_T132_RK1_A0_W0_EM1_RI1_ID0018
 10
1626.23
 20
285.40
 30
16.50
 42
-0.017437
  0
VERTEX
  8
BORDER_D0_T132_RK1_A0_W0_EM1_RI1_ID0018
 10
1583.52
 20
283.91
 30
16.50
 42
-0.017437
  0
VERTEX
  8
BORDER_D0_T132_RK1_A0_W0_EM1_RI1_ID0018
 10
1540.81
 20
285.40
 30
16.50
 42
-0.018360
  0
VERTEX
  8
BORDER_D0_T132_RK1_A0_W0_EM1_RI1_ID0018
 10
1499.40
 20
289.80
 30
16.50
 42
-0.020392
  0
VERTEX
  8
BORDER_D0_T132_RK1_A0_W0_EM1_RI1_ID0018
 10
1460.55
 20
297.01
 30
16.50
 42
-0.023970
  0
VERTEX
  8
BORDER_D0_T132_RK1_A0_W0_EM1_RI1_ID0018
 10
1425.43
 20
306.78
 30
16.50
 42
-0.029934
  0
VERTEX
  8
BORDER_D0_T132_RK1_A0_W0_EM1_RI1_ID0018
 10
1395.12
 20
318.82
 30
16.50
 42
-0.039882
  0
VERTEX
  8
BORDER_D0_T132_RK1_A0_W0_EM1_RI1_ID0018
 10
1370.53
 20
332.78
 30
16.50
 42
-0.056348
  0
VERTEX
  8
BORDER_D0_T132_RK1_A0_W0_EM1_RI1_ID0018
 10
1352.41
 20
348.22
 30
16.50
 42
-0.081329
  0
VERTEX
  8
BORDER_D0_T132_RK1_A0_W0_EM1_RI1_ID0018
 10
1341.32
 20
364.68
 30
16.50
 42
-0.106572
  0
VERTEX
  8
BORDER_D0_T132_RK1_A0_W0_EM1_RI1_ID0018
 10
1337.58
 20
381.65
 30
16.50
 42
-0.106572
  0
VERTEX
  8
BORDER_D0_T132_RK1_A0_W0_EM1_RI1_ID0018
 10
1341.32
 20
398.62
 30
16.50
 42
-0.081329
  0
VERTEX
  8
BORDER_D0_T132_RK1_A0_W0_EM1_RI1_ID0018
 10
1352.41
 20
415.08
 30
16.50
 42
-0.056349
  0
VERTEX
  8
BORDER_D0_T132_RK1_A0_W0_EM1_RI1_ID0018
 10
1370.53
 20
430.52
 30
16.50
 42
-0.039882
  0
VERTEX
  8
BORDER_D0_T132_RK1_A0_W0_EM1_RI1_ID0018
 10
1395.12
 20
444.48
 30
16.50
 42
-0.029934
  0
VERTEX
  8
BORDER_D0_T132_RK1_A0_W0_EM1_RI1_ID0018
 10
1425.43
 20
456.52
 30
16.50
 42
-0.023970
  0
VERTEX
  8
BORDER_D0_T132_RK1_A0_W0_EM1_RI1_ID0018
 10
1460.55
 20
466.29
 30
16.50
 42
-0.020392
  0
VERTEX
  8
BORDER_D0_T132_RK1_A0_W0_EM1_RI1_ID0018
 10
1499.40
 20
473.50
 30
16.50
 42
-0.018360
  0
VERTEX
  8
BORDER_D0_T132_RK1_A0_W0_EM1_RI1_ID0018
 10
1540.81
 20
477.90
 30
16.50
 42
-0.017437
  0
VERTEX
  8
BORDER_D0_T132_RK1_A0_W0_EM1_RI1_ID0018
 10
1583.52
 20
479.39
 30
16.50
 42
-0.017437
  0
VERTEX
  8
BORDER_D0_T132_RK1_A0_W0_EM1_RI1_ID0018
 10
1626.23
 20
477.90
 30
16.50
 42
-0.018360
  0
VERTEX
  8
BORDER_D0_T132_RK1_A0_W0_EM1_RI1_ID0018
 10
1667.64
 20
473.50
 30
16.50
 42
-0.020392
  0
VERTEX
  8
BORDER_D0_T132_RK1_A0_W0_EM1_RI1_ID0018
 10
1706.49
 20
466.29
 30
16.50
 42
-0.023970
  0
VERTEX
  8
BORDER_D0_T132_RK1_A0_W0_EM1_RI1_ID0018
 10
1741.61
 20
456.52
 30
16.50
 42
-0.029934
  0
VERTEX
  8
BORDER_D0_T132_RK1_A0_W0_EM1_RI1_ID0018
 10
1771.92
 20
444.48
 30
16.50
 42
-0.039882
  0
VERTEX
  8
BORDER_D0_T132_RK1_A0_W0_EM1_RI1_ID0018
 10
1796.51
 20
430.52
 30
16.50
 42
-0.056349
  0
VERTEX
  8
BORDER_D0_T132_RK1_A0_W0_EM1_RI1_ID0018
 10
1814.63
 20
415.08
 30
16.50
 42
-0.081329
  0
VERTEX
  8
BORDER_D0_T132_RK1_A0_W0_EM1_RI1_ID0018
 10
1825.72
 20
398.62
 30
16.50
 42
-0.106572
  0
VERTEX
  8
BORDER_D0_T132_RK1_A0_W0_EM1_RI1_ID0018
 10
1829.46
 20
381.65
 30
16.50
  0
SEQEND
  8
BORDER_D0_T132_RK1_A0_W0_EM1_RI1_ID0018
  0
POLYLINE
  8
BORDER_D0_T132_RK1_A0_W0_EM1_RI1_ID0019
 70
1
 66
1
  0
VERTEX
  8
BORDER_D0_T132_RK1_A0_W0_EM1_RI1_ID0019
 10
2020.73
 20
1267.05
 30
16.50
  0
VERTEX
  8
BORDER_D0_T132_RK1_A0_W0_EM1_RI1_ID0019
 10
2020.73
 20
2040.00
 30
16.50
 42
-0.076784
  0
VERTEX
  8
BORDER_D0_T132_RK1_A0_W0_EM1_RI1_ID0019
 10
2096.11
 20
2028.26
 30
16.50
 42
-0.068061
  0
VERTEX
  8
BORDER_D0_T132_RK1_A0_W0_EM1_RI1_ID0019
 10
2169.20
 20
1993.38
 30
16.50
 42
-0.056093
  0
VERTEX
  8
BORDER_D0_T132_RK1_A0_W0_EM1_RI1_ID0019
 10
2237.78
 20
1936.44
 30
16.50
 42
-0.045361
  0
VERTEX
  8
BORDER_D0_T132_RK1_A0_W0_EM1_RI1_ID0019
 10
2299.76
 20
1859.16
 30
16.50
 42
-0.037263
  0
VERTEX
  8
BORDER_D0_T132_RK1_A0_W0_EM1_RI1_ID0019
 10
2353.27
 20
1763.89
 30
16.50
 42
-0.031620
  0
VERTEX
  8
BORDER_D0_T132_RK1_A0_W0_EM1_RI1_ID0019
 10
2396.67
 20
1653.52
 30
16.50
 42
-0.027905
  0
VERTEX
  8
BORDER_D0_T132_RK1_A0_W0_EM1_RI1_ID0019
 10
2428.65
 20
1531.41
 30
16.50
 42
-0.025667
  0
VERTEX
  8
BORDER_D0_T132_RK1_A0_W0_EM1_RI1_ID0019
 10
2448.24
 20
1401.27
 30
16.50
 42
-0.024616
  0
VERTEX
  8
BORDER_D0_T132_RK1_A0_W0_EM1_RI1_ID0019
 10
2454.83
 20
1267.05
 30
16.50
 42
-0.024617
  0
VERTEX
  8
BORDER_D0_T132_RK1_A0_W0_EM1_RI1_ID0019
 10
2448.24
 20
1132.83
 30
16.50
 42
-0.025667
  0
VERTEX
  8
BORDER_D0_T132_RK1_A0_W0_EM1_RI1_ID0019
 10
2428.65
 20
1002.69
 30
16.50
 42
-0.027907
  0
VERTEX
  8
BORDER_D0_T132_RK1_A0_W0_EM1_RI1_ID0019
 10
2396.67
 20
880.57
 30
16.50
 42
-0.031618
  0
VERTEX
  8
BORDER_D0_T132_RK1_A0_W0_EM1_RI1_ID0019
 10
2353.27
 20
770.21
 30
16.50
 42
-0.037263
  0
VERTEX
  8
BORDER_D0_T132_RK1_A0_W0_EM1_RI1_ID0019
 10
2299.76
 20
674.94
 30
16.50
 42
-0.045361
  0
VERTEX
  8
BORDER_D0_T132_RK1_A0_W0_EM1_RI1_ID0019
 10
2237.78
 20
597.66
 30
16.50
 42
-0.056097
  0
VERTEX
  8
BORDER_D0_T132_RK1_A0_W0_EM1_RI1_ID0019
 10
2169.20
 20
540.71
 30
16.50
 42
-0.068057
  0
VERTEX
  8
BORDER_D0_T132_RK1_A0_W0_EM1_RI1_ID0019
 10
2096.11
 20
505.84
 30
16.50
 42
-0.076784
  0
VERTEX
  8
BORDER_D0_T132_RK1_A0_W0_EM1_RI1_ID0019
 10
2020.73
 20
494.10
 30
16.50
  0
VERTEX
  8
BORDER_D0_T132_RK1_A0_W0_EM1_RI1_ID0019
 10
2020.73
 20
1267.05
 30
16.50
  0
SEQEND
  8
BORDER_D0_T132_RK1_A0_W0_EM1_RI1_ID0019
  0
POLYLINE
  8
BORDER_D0_T132_RK1_A0_W0_EM1_RI1_ID0018
 70
1
 66
1
  0
VERTEX
  8
BORDER_D0_T132_RK1_A0_W0_EM1_RI1_ID0018
 10
2161.72
 20
513.15
 30
16.50
 42
-0.106572
  0
VERTEX
  8
BORDER_D0_T132_RK1_A0_W0_EM1_RI1_ID0018
 10
2178.69
 20
509.41
 30
16.50
 42
-0.081329
  0
VERTEX
  8
BORDER_D0_T132_RK1_A0_W0_EM1_RI1_ID0018
 10
2195.15
 20
498.32
 30
16.50
 42
-0.056349
  0
VERTEX
  8
BORDER_D0_T132_RK1_A0_W0_EM1_RI1_ID0018
 10
2210.59
 20
480.20
 30
16.50
 42
-0.039882
  0
VERTEX
  8
BORDER_D0_T132_RK1_A0_W0_EM1_RI1_ID0018
 10
2224.55
 20
455.61
 30
16.50
 42
-0.029934
  0
VERTEX
  8
BORDER_D0_T132_RK1_A0_W0_EM1_RI1_ID0018
 10
2236.59
 20
425.30
 30
16.50
 42
-0.023970
  0
VERTEX
  8
BORDER_D0_T132_RK1_A0_W0_EM1_RI1_ID0018
 10
2246.36
 20
390.18
 30
16.50
 42
-0.020392
  0
VERTEX
  8
BORDER_D0_T132_RK1_A0_W0_EM1_RI1_ID0018
 10
2253.57
 20
351.33
 30
16.50
 42
-0.018360
  0
VERTEX
  8
BORDER_D0_T132_RK1_A0_W0_EM1_RI1_ID0018
 10
2257.97
 20
309.92
 30
16.50
 42
-0.017437
  0
VERTEX
  8
BORDER_D0_T132_RK1_A0_W0_EM1_RI1_ID0018
 10
2259.46
 20
267.21
 30
16.50
 42
-0.017437
  0
VERTEX
  8
BORDER_D0_T132_RK1_A0_W0_EM1_RI1_ID0018
 10
2257.97
 20
224.50
 30
16.50
 42
-0.018360
  0
VERTEX
  8
BORDER_D0_T132_RK1_A0_W0_EM1_RI1_ID0018
 10
2253.57
 20
183.09
 30
16.50
 42
-0.020392
  0
VERTEX
  8
BORDER_D0_T132_RK1_A0_W0_EM1_RI1_ID0018
 10
2246.36
 20
144.24
 30
16.50
 42
-0.023970
  0
VERTEX
  8
BORDER_D0_T132_RK1_A0_W0_EM1_RI1_ID0018
 10
2236.59
 20
109.12
 30
16.50
 42
-0.029934
  0
VERTEX
  8
BORDER_D0_T132_RK1_A0_W0_EM1_RI1_ID0018
 10
2224.55
 20
78.81
 30
16.50
 42
-0.039882
  0
VERTEX
  8
BORDER_D0_T132_RK1_A0_W0_EM1_RI1_ID0018
 10
2210.59
 20
54.22
 30
16.50
 42
-0.056349
  0
VERTEX
  8
BORDER_D0_T132_RK1_A0_W0_EM1_RI1_ID0018
 10
2195.15
 20
36.10
 30
16.50
 42
-0.081329
  0
VERTEX
  8
BORDER_D0_T132_RK1_A0_W0_EM1_RI1_ID0018
 10
2178.69
 20
25.01
 30
16.50
 42
-0.106572
  0
VERTEX
  8
BORDER_D0_T132_RK1_A0_W0_EM1_RI1_ID0018
 10
2161.72
 20
21.27
 30
16.50
 42
-0.106572
  0
VERTEX
  8
BORDER_D0_T132_RK1_A0_W0_EM1_RI1_ID0018
 10
2144.75
 20
25.01
 30
16.50
 42
-0.081329
  0
VERTEX
  8
BORDER_D0_T132_RK1_A0_W0_EM1_RI1_ID0018
 10
2128.29
 20
36.10
 30
16.50
 42
-0.056348
  0
VERTEX
  8
BORDER_D0_T132_RK1_A0_W0_EM1_RI1_ID0018
 10
2112.85
 20
54.22
 30
16.50
 42
-0.039883
  0
VERTEX
  8
BORDER_D0_T132_RK1_A0_W0_EM1_RI1_ID0018
 10
2098.89
 20
78.81
 30
16.50
 42
-0.029934
  0
VERTEX
  8
BORDER_D0_T132_RK1_A0_W0_EM1_RI1_ID0018
 10
2086.85
 20
109.12
 30
16.50
 42
-0.023970
  0
VERTEX
  8
BORDER_D0_T132_RK1_A0_W0_EM1_RI1_ID0018
 10
2077.08
 20
144.24
 30
16.50
 42
-0.020392
  0
VERTEX
  8
BORDER_D0_T132_RK1_A0_W0_EM1_RI1_ID0018
 10
2069.87
 20
183.09
 30
16.50
 42
-0.018360
  0
VERTEX
  8
BORDER_D0_T132_RK1_A0_W0_EM1_RI1_ID0018
 10
2065.47
 20
224.50
 30
16.50
 42
-0.017436
  0
VERTEX
  8
BORDER_D0_T132_RK1_A0_W0_EM1_RI1_ID0018
 10
2063.98
 20
267.21
 30
16.50
 42
-0.017437
  0
VERTEX
  8
BORDER_D0_T132_RK1_A0_W0_EM1_RI1_ID0018
 10
2065.47
 20
309.92
 30
16.50
 42
-0.018360
  0
VERTEX
  8
BORDER_D0_T132_RK1_A0_W0_EM1_RI1_ID0018
 10
2069.87
 20
351.33
 30
16.50
 42
-0.020392
  0
VERTEX
  8
BORDER_D0_T132_RK1_A0_W0_EM1_RI1_ID0018
 10
2077.08
 20
390.18
 30
16.50
 42
-0.023970
  0
VERTEX
  8
BORDER_D0_T132_RK1_A0_W0_EM1_RI1_ID0018
 10
2086.85
 20
425.30
 30
16.50
 42
-0.029934
  0
VERTEX
  8
BORDER_D0_T132_RK1_A0_W0_EM1_RI1_ID0018
 10
2098.89
 20
455.61
 30
16.50
 42
-0.039883
  0
VERTEX
  8
BORDER_D0_T132_RK1_A0_W0_EM1_RI1_ID0018
 10
2112.85
 20
480.20
 30
16.50
 42
-0.056348
  0
VERTEX
  8
BORDER_D0_T132_RK1_A0_W0_EM1_RI1_ID0018
 10
2128.29
 20
498.32
 30
16.50
 42
-0.081329
  0
VERTEX
  8
BORDER_D0_T132_RK1_A0_W0_EM1_RI1_ID0018
 10
2144.75
 20
509.41
 30
16.50
 42
-0.106572
  0
VERTEX
  8
BORDER_D0_T132_RK1_A0_W0_EM1_RI1_ID0018
 10
2161.72
 20
513.15
 30
16.50
  0
SEQEND
  8
BORDER_D0_T132_RK1_A0_W0_EM1_RI1_ID0018
  0
POLYLINE
  8
BORDER_D0_T132_RK1_A0_W0_EM1_RI1_ID0006
 70
1
 66
1
  0
VERTEX
  8
BORDER_D0_T132_RK1_A0_W0_EM1_RI1_ID0006
 10
1899.09
 20
652.75
 30
16.50
  0
VERTEX
  8
BORDER_D0_T132_RK1_A0_W0_EM1_RI1_ID0006
 10
1921.03
 20
622.54
 30
16.50
  0
VERTEX
  8
BORDER_D0_T132_RK1_A0_W0_EM1_RI1_ID0006
 10
1956.53
 20
634.07
 30
16.50
  0
VERTEX
  8
BORDER_D0_T132_RK1_A0_W0_EM1_RI1_ID0006
 10
1956.53
 20
596.75
 30
16.50
  0
VERTEX
  8
BORDER_D0_T132_RK1_A0_W0_EM1_RI1_ID0006
 10
1992.05
 20
585.21
 30
16.50
  0
VERTEX
  8
BORDER_D0_T132_RK1_A0_W0_EM1_RI1_ID0006
 10
1970.11
 20
555.01
 30
16.50
  0
VERTEX
  8
BORDER_D0_T132_RK1_A0_W0_EM1_RI1_ID0006
 10
1992.05
 20
524.81
 30
16.50
  0
VERTEX
  8
BORDER_D0_T132_RK1_A0_W0_EM1_RI1_ID0006
 10
1956.53
 20
513.27
 30
16.50
  0
VERTEX
  8
BORDER_D0_T132_RK1_A0_W0_EM1_RI1_ID0006
 10
1956.53
 20
475.94
 30
16.50
  0
VERTEX
  8
BORDER_D0_T132_RK1_A0_W0_EM1_RI1_ID0006
 10
1921.03
 20
487.47
 30
16.50
  0
VERTEX
  8
BORDER_D0_T132_RK1_A0_W0_EM1_RI1_ID0006
 10
1899.09
 20
457.27
 30
16.50
  0
VERTEX
  8
BORDER_D0_T132_RK1_A0_W0_EM1_RI1_ID0006
 10
1877.14
 20
487.47
 30
16.50
  0
VERTEX
  8
BORDER_D0_T132_RK1_A0_W0_EM1_RI1_ID0006
 10
1841.63
 20
475.94
 30
16.50
  0
VERTEX
  8
BORDER_D0_T132_RK1_A0_W0_EM1_RI1_ID0006
 10
1841.63
 20
513.27
 30
16.50
  0
VERTEX
  8
BORDER_D0_T132_RK1_A0_W0_EM1_RI1_ID0006
 10
1806.13
 20
524.81
 30
16.50
  0
VERTEX
  8
BORDER_D0_T132_RK1_A0_W0_EM1_RI1_ID0006
 10
1828.07
 20
555.01
 30
16.50
  0
VERTEX
  8
BORDER_D0_T132_RK1_A0_W0_EM1_RI1_ID0006
 10
1806.13
 20
585.21
 30
16.50
  0
VERTEX
  8
BORDER_D0_T132_RK1_A0_W0_EM1_RI1_ID0006
 10
1841.63
 20
596.75
 30
16.50
  0
VERTEX
  8
BORDER_D0_T132_RK1_A0_W0_EM1_RI1_ID0006
 10
1841.63
 20
634.07
 30
16.50
  0
VERTEX
  8
BORDER_D0_T132_RK1_A0_W0_EM1_RI1_ID0006
 10
1877.14
 20
622.54
 30
16.50
  0
VERTEX
  8
BORDER_D0_T132_RK1_A0_W0_EM1_RI1_ID0006
 10
1899.09
 20
652.75
 30
16.50
  0
SEQEND
  8
BORDER_D0_T132_RK1_A0_W0_EM1_RI1_ID0006
  0
POLYLINE
  8
BORDER_D0_T132_RK1_A0_W0_EM1_RI1_ID0019
 70
1
 66
1
  0
VERTEX
  8
BORDER_D0_T132_RK1_A0_W0_EM1_RI1_ID0019
 10
1571.93
 20
1267.05
 30
16.50
  0
VERTEX
  8
BORDER_D0_T132_RK1_A0_W0_EM1_RI1_ID0019
 10
1571.93
 20
2040.00
 30
16.50
 42
-0.076784
  0
VERTEX
  8
BORDER_D0_T132_RK1_A0_W0_EM1_RI1_ID0019
 10
1647.31
 20
2028.26
 30
16.50
 42
-0.068061
  0
VERTEX
  8
BORDER_D0_T132_RK1_A0_W0_EM1_RI1_ID0019
 10
1720.40
 20
1993.38
 30
16.50
 42
-0.056093
  0
VERTEX
  8
BORDER_D0_T132_RK1_A0_W0_EM1_RI1_ID0019
 10
1788.98
 20
1936.44
 30
16.50
 42
-0.045361
  0
VERTEX
  8
BORDER_D0_T132_RK1_A0_W0_EM1_RI1_ID0019
 10
1850.96
 20
1859.16
 30
16.50
 42
-0.037263
  0
VERTEX
  8
BORDER_D0_T132_RK1_A0_W0_EM1_RI1_ID0019
 10
1904.47
 20
1763.89
 30
16.50
 42
-0.031620
  0
VERTEX
  8
BORDER_D0_T132_RK1_A0_W0_EM1_RI1_ID0019
 10
1947.87
 20
1653.52
 30
16.50
 42
-0.027905
  0
VERTEX
  8
BORDER_D0_T132_RK1_A0_W0_EM1_RI1_ID0019
 10
1979.85
 20
1531.41
 30
16.50
 42
-0.025667
  0
VERTEX
  8
BORDER_D0_T132_RK1_A0_W0_EM1_RI1_ID0019
 10
1999.44
 20
1401.27
 30
16.50
 42
-0.024616
  0
VERTEX
  8
BORDER_D0_T132_RK1_A0_W0_EM1_RI1_ID0019
 10
2006.03
 20
1267.05
 30
16.50
 42
-0.024617
  0
VERTEX
  8
BORDER_D0_T132_RK1_A0_W0_EM1_RI1_ID0019
 10
1999.44
 20
1132.83
 30
16.50
 42
-0.025667
  0
VERTEX
  8
BORDER_D0_T132_RK1_A0_W0_EM1_RI1_ID0019
 10
1979.85
 20
1002.69
 30
16.50
 42
-0.027907
  0
VERTEX
  8
BORDER_D0_T132_RK1_A0_W0_EM1_RI1_ID0019
 10
1947.87
 20
880.57
 30
16.50
 42
-0.031618
  0
VERTEX
  8
BORDER_D0_T132_RK1_A0_W0_EM1_RI1_ID0019
 10
1904.47
 20
770.21
 30
16.50
 42
-0.037263
  0
VERTEX
  8
BORDER_D0_T132_RK1_A0_W0_EM1_RI1_ID0019
 10
1850.96
 20
674.94
 30
16.50
 42
-0.045361
  0
VERTEX
  8
BORDER_D0_T132_RK1_A0_W0_EM1_RI1_ID0019
 10
1788.98
 20
597.66
 30
16.50
 42
-0.056097
  0
VERTEX
  8
BORDER_D0_T132_RK1_A0_W0_EM1_RI1_ID0019
 10
1720.40
 20
540.71
 30
16.50
 42
-0.068057
  0
VERTEX
  8
BORDER_D0_T132_RK1_A0_W0_EM1_RI1_ID0019
 10
1647.31
 20
505.84
 30
16.50
 42
-0.076784
  0
VERTEX
  8
BORDER_D0_T132_RK1_A0_W0_EM1_RI1_ID0019
 10
1571.93
 20
494.10
 30
16.50
  0
VERTEX
  8
BORDER_D0_T132_RK1_A0_W0_EM1_RI1_ID0019
 10
1571.93
 20
1267.05
 30
16.50
  0
SEQEND
  8
BORDER_D0_T132_RK1_A0_W0_EM1_RI1_ID0019
  0
POLYLINE
  8
BORDER_D0_T132_RK1_A0_W0_EM1_RI1_ID0019
 70
1
 66
1
  0
VERTEX
  8
BORDER_D0_T132_RK1_A0_W0_EM1_RI1_ID0019
 10
783.56
 20
32.76
 30
16.50
  0
VERTEX
  8
BORDER_D0_T132_RK1_A0_W0_EM1_RI1_ID0019
 10
10.61
 20
32.76
 30
16.50
 42
-0.076784
  0
VERTEX
  8
BORDER_D0_T132_RK1_A0_W0_EM1_RI1_ID0019
 10
22.35
 20
108.14
 30
16.50
 42
-0.068061
  0
VERTEX
  8
BORDER_D0_T132_RK1_A0_W0_EM1_RI1_ID0019
 10
57.23
 20
181.23
 30
16.50
 42
-0.056093
  0
VERTEX
  8
BORDER_D0_T132_RK1_A0_W0_EM1_RI1_ID0019
 10
114.17
 20
249.81
 30
16.50
 42
-0.045361
  0
VERTEX
  8
BORDER_D0_T132_RK1_A0_W0_EM1_RI1_ID0019
 10
191.45
 20
311.79
 30
16.50
 42
-0.037263
  0
VERTEX
  8
BORDER_D0_T132_RK1_A0_W0_EM1_RI1_ID0019
 10
286.72
 20
365.30
 30
16.50
 42
-0.031620
  0
VERTEX
  8
BORDER_D0_T132_RK1_A0_W0_EM1_RI1_ID0019
 10
397.09
 20
408.70
 30
16.50
 42
-0.027905
  0
VERTEX
  8
BORDER_D0_T132_RK1_A0_W0_EM1_RI1_ID0019
 10
519.20
 20
440.68
 30
16.50
 42
-0.025667
  0
VERTEX
  8
BORDER_D0_T132_RK1_A0_W0_EM1_RI1_ID0019
 10
649.34
 20
460.27
 30
16.50
 42
-0.024617
  0
VERTEX
  8
BORDER_D0_T132_RK1_A0_W0_EM1_RI1_ID0019
 10
783.56
 20
466.86
 30
16.50
 42
-0.024617
  0
VERTEX
  8
BORDER_D0_T132_RK1_A0_W0_EM1_RI1_ID0019
 10
917.78
 20
460.27
 30
16.50
 42
-0.025667
  0
VERTEX
  8
BORDER_D0_T132_RK1_A0_W0_EM1_RI1_ID0019
 10
1047.92
 20
440.68
 30
16.50
 42
-0.027907
  0
VERTEX
  8
BORDER_D0_T132_RK1_A0_W0_EM1_RI1_ID0019
 10
1170.04
 20
408.70
 30
16.50
 42
-0.031618
  0
VERTEX
  8
BORDER_D0_T132_RK1_A0_W0_EM1_RI1_ID0019
 10
1280.40
 20
365.30
 30
16.50
 42
-0.037263
  0
VERTEX
  8
BORDER_D0_T132_RK1_A0_W0_EM1_RI1_ID0019
 10
1375.67
 20
311.79
 30
16.50
 42
-0.045361
  0
VERTEX
  8
BORDER_D0_T132_RK1_A0_W0_EM1_RI1_ID0019
 10
1452.95
 20
249.81
 30
16.50
 42
-0.056097
  0
VERTEX
  8
BORDER_D0_T132_RK1_A0_W0_EM1_RI1_ID0019
 10
1509.90
 20
181.23
 30
16.50
 42
-0.068057
  0
VERTEX
  8
BORDER_D0_T132_RK1_A0_W0_EM1_RI1_ID0019
 10
1544.77
 20
108.14
 30
16.50
 42
-0.076784
  0
VERTEX
  8
BORDER_D0_T132_RK1_A0_W0_EM1_RI1_ID0019
 10
1556.51
 20
32.76
 30
16.50
  0
VERTEX
  8
BORDER_D0_T132_RK1_A0_W0_EM1_RI1_ID0019
 10
783.56
 20
32.76
 30
16.50
  0
SEQEND
  8
BORDER_D0_T132_RK1_A0_W0_EM1_RI1_ID0019
  0
POLYLINE
  8
BORDER_D0_T132.1_RK1_A0_W0_EM1
 70
1
 66
1
  0
VERTEX
  8
BORDER_D0_T132.1_RK1_A0_W0_EM1
 10
205.48
 20
420.70
 30
18.20
  0
VERTEX
  8
BORDER_D0_T132.1_RK1_A0_W0_EM1
 10
175.28
 20
398.76
 30
18.20
  0
VERTEX
  8
BORDER_D0_T132.1_RK1_A0_W0_EM1
 10
186.81
 20
363.25
 30
18.20
  0
VERTEX
  8
BORDER_D0_T132.1_RK1_A0_W0_EM1
 10
149.48
 20
363.25
 30
18.20
  0
VERTEX
  8
BORDER_D0_T132.1_RK1_A0_W0_EM1
 10
137.94
 20
327.75
 30
18.20
  0
VERTEX
  8
BORDER_D0_T132.1_RK1_A0_W0_EM1
 10
107.74
 20
349.69
 30
18.20
  0
VERTEX
  8
BORDER_D0_T132.1_RK1_A0_W0_EM1
 10
77.54
 20
327.75
 30
18.20
  0
VERTEX
  8
BORDER_D0_T132.1_RK1_A0_W0_EM1
 10
66.00
 20
363.25
 30
18.20
  0
VERTEX
  8
BORDER_D0_T132.1_RK1_A0_W0_EM1
 10
28.67
 20
363.25
 30
18.20
  0
VERTEX
  8
BORDER_D0_T132.1_RK1_A0_W0_EM1
 10
40.20
 20
398.76
 30
18.20
  0
VERTEX
  8
BORDER_D0_T132.1_RK1_A0_W0_EM1
 10
10.00
 20
420.70
 30
18.20
  0
VERTEX
  8
BORDER_D0_T132.1_RK1_A0_W0_EM1
 10
40.20
 20
442.65
 30
18.20
  0
VERTEX
  8
BORDER_D0_T132.1_RK1_A0_W0_EM1
 10
28.67
 20
478.15
 30
18.20
  0
VERTEX
  8
BORDER_D0_T132.1_RK1_A0_W0_EM1
 10
66.00
 20
478.15
 30
18.20
  0
VERTEX
  8
BORDER_D0_T132.1_RK1_A0_W0_EM1
 10
77.54
 20
513.66
 30
18.20
  0
VERTEX
  8
BORDER_D0_T132.1_RK1_A0_W0_EM1
 10
107.74
 20
491.72
 30
18.20
  0
VERTEX
  8
BORDER_D0_T132.1_RK1_A0_W0_EM1
 10
137.94
 20
513.66
 30
18.20
  0
VERTEX
  8
BORDER_D0_T132.1_RK1_A0_W0_EM1
 10
149.48
 20
478.15
 30
18.20
  0
VERTEX
  8
BORDER_D0_T132.1_RK1_A0_W0_EM1
 10
186.81
 20
478.15
 30
18.20
  0
VERTEX
  8
BORDER_D0_T132.1_RK1_A0_W0_EM1
 10
175.28
 20
442.65
 30
18.20
  0
VERTEX
  8
BORDER_D0_T132.1_RK1_A0_W0_EM1
 10
205.48
 20
420.70
 30
18.20
  0
SEQEND
  8
BORDER_D0_T132.1_RK1_A0_W0_EM1
  0
POLYLINE
  8
BORDER_D0_T132.1_RK1_A0_W0_EM1
 70
1
 66
1
  0
VERTEX
  8
BORDER_D0_T132.1_RK1_A0_W0_EM1
 10
10.00
 20
577.61
 30
18.20
  0
VERTEX
  8
BORDER_D0_T132.1_RK1_A0_W0_EM1
 10
10.00
 20
1156.41
 30
18.20
  0
VERTEX
  8
BORDER_D0_T132.1_RK1_A0_W0_EM1
 10
396.48
 20
1301.11
 30
18.20
  0
VERTEX
  8
BORDER_D0_T132.1_RK1_A0_W0_EM1
 10
1555.90
 20
1084.06
 30
18.20
  0
VERTEX
  8
BORDER_D0_T132.1_RK1_A0_W0_EM1
 10
1362.66
 20
997.24
 30
18.20
  0
VERTEX
  8
BORDER_D0_T132.1_RK1_A0_W0_EM1
 10
1362.66
 20
736.78
 30
18.20
  0
VERTEX
  8
BORDER_D0_T132.1_RK1_A0_W0_EM1
 10
1555.90
 20
649.96
 30
18.20
  0
VERTEX
  8
BORDER_D0_T132.1_RK1_A0_W0_EM1
 10
396.48
 20
432.91
 30
18.20
  0
VERTEX
  8
BORDER_D0_T132.1_RK1_A0_W0_EM1
 10
10.00
 20
577.61
 30
18.20
  0
SEQEND
  8
BORDER_D0_T132.1_RK1_A0_W0_EM1
  0
POLYLINE
  8
BORDER_D0_T132.1_RK1_A0_W0_EM1
 70
1
 66
1
  0
VERTEX
  8
BORDER_D0_T132.1_RK1_A0_W0_EM1
 10
94.64
 20
1572.46
 30
18.20
  0
VERTEX
  8
BORDER_D0_T132.1_RK1_A0_W0_EM1
 10
10.00
 20
1621.33
 30
18.20
  0
VERTEX
  8
BORDER_D0_T132.1_RK1_A0_W0_EM1
 10
10.00
 20
1719.07
 30
18.20
  0
VERTEX
  8
BORDER_D0_T132.1_RK1_A0_W0_EM1
 10
94.64
 20
1767.94
 30
18.20
  0
VERTEX
  8
BORDER_D0_T132.1_RK1_A0_W0_EM1
 10
179.29
 20
1719.07
 30
18.20
  0
VERTEX
  8
BORDER_D0_T132.1_RK1_A0_W0_EM1
 10
179.29
 20
1621.33
 30
18.20
  0
VERTEX
  8
BORDER_D0_T132.1_RK1_A0_W0_EM1
 10
94.64
 20
1572.46
 30
18.20
  0
SEQEND
  8
BORDER_D0_T132.1_RK1_A0_W0_EM1
  0
POLYLINE
  8
BORDER_D0_T132.1_RK1_A0_W0_EM1
 70
1
 66
1
  0
VERTEX
  8
BORDER_D0_T132.1_RK1_A0_W0_EM1
 10
205.48
 20
1955.35
 30
18.20
  0
VERTEX
  8
BORDER_D0_T132.1_RK1_A0_W0_EM1
 10
156.61
 20
1870.71
 30
18.20
  0
VERTEX
  8
BORDER_D0_T132.1_RK1_A0_W0_EM1
 10
58.87
 20
1870.71
 30
18.20
  0
VERTEX
  8
BORDER_D0_T132.1_RK1_A0_W0_EM1
 10
10.00
 20
1955.35
 30
18.20
  0
VERTEX
  8
BORDER_D0_T132.1_RK1_A0_W0_EM1
 10
58.87
 20
2040.00
 30
18.20
  0
VERTEX
  8
BORDER_D0_T132.1_RK1_A0_W0_EM1
 10
156.61
 20
2040.00
 30
18.20
  0
VERTEX
  8
BORDER_D0_T132.1_RK1_A0_W0_EM1
 10
205.48
 20
1955.35
 30
18.20
  0
SEQEND
  8
BORDER_D0_T132.1_RK1_A0_W0_EM1
  0
POLYLINE
  8
BORDER_D0_T132.1_RK1_A0_W0_EM1
 70
1
 66
1
  0
VERTEX
  8
BORDER_D0_T132.1_RK1_A0_W0_EM1
 10
180.01
 20
2040.00
 30
18.20
  0
VERTEX
  8
BORDER_D0_T132.1_RK1_A0_W0_EM1
 10
671.90
 20
2040.00
 30
18.20
 42
-0.106579
  0
VERTEX
  8
BORDER_D0_T132.1_RK1_A0_W0_EM1
 10
668.16
 20
2023.03
 30
18.20
 42
-0.081332
  0
VERTEX
  8
BORDER_D0_T132.1_RK1_A0_W0_EM1
 10
657.06
 20
2006.57
 30
18.20
 42
-0.056346
  0
VERTEX
  8
BORDER_D0_T132.1_RK1_A0_W0_EM1
 10
638.95
 20
1991.13
 30
18.20
 42
-0.039878
  0
VERTEX
  8
BORDER_D0_T132.1_RK1_A0_W0_EM1
 10
614.36
 20
1977.17
 30
18.20
 42
-0.029940
  0
VERTEX
  8
BORDER_D0_T132.1_RK1_A0_W0_EM1
 10
584.04
 20
1965.13
 30
18.20
 42
-0.023968
  0
VERTEX
  8
BORDER_D0_T132.1_RK1_A0_W0_EM1
 10
548.92
 20
1955.35
 30
18.20
 42
-0.020393
  0
VERTEX
  8
BORDER_D0_T132.1_RK1_A0_W0_EM1
 10
510.07
 20
1948.15
 30
18.20
 42
-0.018360
  0
VERTEX
  8
BORDER_D0_T132.1_RK1_A0_W0_EM1
 10
468.66
 20
1943.74
 30
18.20
 42
-0.017435
  0
VERTEX
  8
BORDER_D0_T132.1_RK1_A0_W0_EM1
 10
425.95
 20
1942.26
 30
18.20
 42
-0.017435
  0
VERTEX
  8
BORDER_D0_T132.1_RK1_A0_W0_EM1
 10
383.25
 20
1943.74
 30
18.20
 42
-0.018360
  0
VERTEX
  8
BORDER_D0_T132.1_RK1_A0_W0_EM1
 10
341.84
 20
1948.15
 30
18.20
 42
-0.020393
  0
VERTEX
  8
BORDER_D0_T132.1_RK1_A0_W0_EM1
 10
302.98
 20
1955.35
 30
18.20
 42
-0.023968
  0
VERTEX
  8
BORDER_D0_T132.1_RK1_A0_W0_EM1
 10
267.87
 20
1965.13
 30
18.20
 42
-0.029940
  0
VERTEX
  8
BORDER_D0_T132.1_RK1_A0_W0_EM1
 10
237.55
 20
1977.17
 30
18.20
 42
-0.039878
  0
VERTEX
  8
BORDER_D0_T132.1_RK1_A0_W0_EM1
 10
212.96
 20
1991.13
 30
18.20
 42
-0.056346
  0
VERTEX
  8
BORDER_D0_T132.1_RK1_A0_W0_EM1
 10
194.85
 20
2006.57
 30
18.20
 42
-0.081332
  0
VERTEX
  8
BORDER_D0_T132.1_RK1_A0_W0_EM1
 10
183.75
 20
2023.03
 30
18.20
 42
-0.106579
  0
VERTEX
  8
BORDER_D0_T132.1_RK1_A0_W0_EM1
 10
180.01
 20
2040.00
 30
18.20
  0
SEQEND
  8
BORDER_D0_T132.1_RK1_A0_W0_EM1
  0
POLYLINE
  8
BORDER_D0_T132.1_RK1_A0_W0_EM1
 70
1
 66
1
  0
VERTEX
  8
BORDER_D0_T132.1_RK1_A0_W0_EM1
 10
1555.90
 20
1895.30
 30
18.20
  0
VERTEX
  8
BORDER_D0_T132.1_RK1_A0_W0_EM1
 10
1555.90
 20
1316.50
 30
18.20
  0
VERTEX
  8
BORDER_D0_T132.1_RK1_A0_W0_EM1
 10
1169.43
 20
1171.80
 30
18.20
  0
VERTEX
  8
BORDER_D0_T132.1_RK1_A0_W0_EM1
 10
10.00
 20
1388.85
 30
18.20
  0
VERTEX
  8
BORDER_D0_T132.1_RK1_A0_W0_EM1
 10
203.24
 20
1475.67
 30
18.20
  0
VERTEX
  8
BORDER_D0_T132.1_RK1_A0_W0_EM1
 10
203.24
 20
1736.13
 30
18.20
  0
VERTEX
  8
BORDER_D0_T132.1_RK1_A0_W0_EM1
 10
10.00
 20
1822.95
 30
18.20
  0
VERTEX
  8
BORDER_D0_T132.1_RK1_A0_W0_EM1
 10
1169.43
 20
2040.00
 30
18.20
  0
VERTEX
  8
BORDER_D0_T132.1_RK1_A0_W0_EM1
 10
1555.90
 20
1895.30
 30
18.20
  0
SEQEND
  8
BORDER_D0_T132.1_RK1_A0_W0_EM1
  0
POLYLINE
  8
BORDER_D0_T132.1_RK1_A0_W0_EM1
 70
1
 66
1
  0
VERTEX
  8
BORDER_D0_T132.1_RK1_A0_W0_EM1
 10
2492.55
 20
2040.00
 30
18.20
 42
-0.106579
  0
VERTEX
  8
BORDER_D0_T132.1_RK1_A0_W0_EM1
 10
2509.52
 20
2036.26
 30
18.20
 42
-0.081333
  0
VERTEX
  8
BORDER_D0_T132.1_RK1_A0_W0_EM1
 10
2525.98
 20
2025.17
 30
18.20
 42
-0.056346
  0
VERTEX
  8
BORDER_D0_T132.1_RK1_A0_W0_EM1
 10
2541.42
 20
2007.05
 30
18.20
 42
-0.039878
  0
VERTEX
  8
BORDER_D0_T132.1_RK1_A0_W0_EM1
 10
2555.37
 20
1982.46
 30
18.20
 42
-0.029940
  0
VERTEX
  8
BORDER_D0_T132.1_RK1_A0_W0_EM1
 10
2567.42
 20
1952.15
 30
18.20
 42
-0.023968
  0
VERTEX
  8
BORDER_D0_T132.1_RK1_A0_W0_EM1
 10
2577.19
 20
1917.03
 30
18.20
 42
-0.020393
  0
VERTEX
  8
BORDER_D0_T132.1_RK1_A0_W0_EM1
 10
2584.39
 20
1878.18
 30
18.20
 42
-0.018360
  0
VERTEX
  8
BORDER_D0_T132.1_RK1_A0_W0_EM1
 10
2588.80
 20
1836.77
 30
18.20
 42
-0.017435
  0
VERTEX
  8
BORDER_D0_T132.1_RK1_A0_W0_EM1
 10
2590.29
 20
1794.06
 30
18.20
 42
-0.017435
  0
VERTEX
  8
BORDER_D0_T132.1_RK1_A0_W0_EM1
 10
2588.80
 20
1751.35
 30
18.20
 42
-0.018360
  0
VERTEX
  8
BORDER_D0_T132.1_RK1_A0_W0_EM1
 10
2584.39
 20
1709.94
 30
18.20
 42
-0.020393
  0
VERTEX
  8
BORDER_D0_T132.1_RK1_A0_W0_EM1
 10
2577.19
 20
1671.09
 30
18.20
 42
-0.023968
  0
VERTEX
  8
BORDER_D0_T132.1_RK1_A0_W0_EM1
 10
2567.42
 20
1635.97
 30
18.20
 42
-0.029939
  0
VERTEX
  8
BORDER_D0_T132.1_RK1_A0_W0_EM1
 10
2555.37
 20
1605.66
 30
18.20
 42
-0.039879
  0
VERTEX
  8
BORDER_D0_T132.1_RK1_A0_W0_EM1
 10
2541.42
 20
1581.07
 30
18.20
 42
-0.056346
  0
VERTEX
  8
BORDER_D0_T132.1_RK1_A0_W0_EM1
 10
2525.98
 20
1562.95
 30
18.20
 42
-0.081333
  0
VERTEX
  8
BORDER_D0_T132.1_RK1_A0_W0_EM1
 10
2509.52
 20
1551.86
 30
18.20
 42
-0.106578
  0
VERTEX
  8
BORDER_D0_T132.1_RK1_A0_W0_EM1
 10
2492.55
 20
1548.12
 30
18.20
 42
-0.106580
  0
VERTEX
  8
BORDER_D0_T132.1_RK1_A0_W0_EM1
 10
2475.58
 20
1551.86
 30
18.20
 42
-0.081333
  0
VERTEX
  8
BORDER_D0_T132.1_RK1_A0_W0_EM1
 10
2459.12
 20
1562.95
 30
18.20
 42
-0.056346
  0
VERTEX
  8
BORDER_D0_T132.1_RK1_A0_W0_EM1
 10
2443.68
 20
1581.07
 30
18.20
 42
-0.039879
  0
VERTEX
  8
BORDER_D0_T132.1_RK1_A0_W0_EM1
 10
2429.72
 20
1605.66
 30
18.20
 42
-0.029940
  0
VERTEX
  8
BORDER_D0_T132.1_RK1_A0_W0_EM1
 10
2417.68
 20
1635.97
 30
18.20
 42
-0.023968
  0
VERTEX
  8
BORDER_D0_T132.1_RK1_A0_W0_EM1
 10
2407.90
 20
1671.09
 30
18.20
 42
-0.020393
  0
VERTEX
  8
BORDER_D0_T132.1_RK1_A0_W0_EM1
 10
2400.70
 20
1709.94
 30
18.20
 42
-0.018360
  0
VERTEX
  8
BORDER_D0_T132.1_RK1_A0_W0_EM1
 10
2396.29
 20
1751.35
 30
18.20
 42
-0.017435
  0
VERTEX
  8
BORDER_D0_T132.1_RK1_A0_W0_EM1
 10
2394.81
 20
1794.06
 30
18.20
 42
-0.017435
  0
VERTEX
  8
BORDER_D0_T132.1_RK1_A0_W0_EM1
 10
2396.29
 20
1836.77
 30
18.20
 42
-0.018360
  0
VERTEX
  8
BORDER_D0_T132.1_RK1_A0_W0_EM1
 10
2400.70
 20
1878.18
 30
18.20
 42
-0.020393
  0
VERTEX
  8
BORDER_D0_T132.1_RK1_A0_W0_EM1
 10
2407.90
 20
1917.03
 30
18.20
 42
-0.023968
  0
VERTEX
  8
BORDER_D0_T132.1_RK1_A0_W0_EM1
 10
2417.68
 20
1952.15
 30
18.20
 42
-0.029940
  0
VERTEX
  8
BORDER_D0_T132.1_RK1_A0_W0_EM1
 10
2429.72
 20
1982.46
 30
18.20
 42
-0.039878
  0
VERTEX
  8
BORDER_D0_T132.1_RK1_A0_W0_EM1
 10
2443.68
 20
2007.05
 30
18.20
 42
-0.056346
  0
VERTEX
  8
BORDER_D0_T132.1_RK1_A0_W0_EM1
 10
2459.12
 20
2025.17
 30
18.20
 42
-0.081333
  0
VERTEX
  8
BORDER_D0_T132.1_RK1_A0_W0_EM1
 10
2475.58
 20
2036.26
 30
18.20
 42
-0.106580
  0
VERTEX
  8
BORDER_D0_T132.1_RK1_A0_W0_EM1
 10
2492.55
 20
2040.00
 30
18.20
  0
SEQEND
  8
BORDER_D0_T132.1_RK1_A0_W0_EM1
  0
POLYLINE
  8
BORDER_D0_T132.1_RK1_A0_W0_EM1
 70
1
 66
1
  0
VERTEX
  8
BORDER_D0_T132.1_RK1_A0_W0_EM1
 10
2781.56
 20
1947.04
 30
18.20
  0
VERTEX
  8
BORDER_D0_T132.1_RK1_A0_W0_EM1
 10
2751.36
 20
1925.10
 30
18.20
  0
VERTEX
  8
BORDER_D0_T132.1_RK1_A0_W0_EM1
 10
2762.90
 20
1889.59
 30
18.20
  0
VERTEX
  8
BORDER_D0_T132.1_RK1_A0_W0_EM1
 10
2725.56
 20
1889.59
 30
18.20
  0
VERTEX
  8
BORDER_D0_T132.1_RK1_A0_W0_EM1
 10
2714.03
 20
1854.09
 30
18.20
  0
VERTEX
  8
BORDER_D0_T132.1_RK1_A0_W0_EM1
 10
2683.82
 20
1876.03
 30
18.20
  0
VERTEX
  8
BORDER_D0_T132.1_RK1_A0_W0_EM1
 10
2653.62
 20
1854.09
 30
18.20
  0
VERTEX
  8
BORDER_D0_T132.1_RK1_A0_W0_EM1
 10
2642.08
 20
1889.59
 30
18.20
  0
VERTEX
  8
BORDER_D0_T132.1_RK1_A0_W0_EM1
 10
2604.75
 20
1889.59
 30
18.20
  0
VERTEX
  8
BORDER_D0_T132.1_RK1_A0_W0_EM1
 10
2616.29
 20
1925.10
 30
18.20
  0
VERTEX
  8
BORDER_D0_T132.1_RK1_A0_W0_EM1
 10
2586.08
 20
1947.04
 30
18.20
  0
VERTEX
  8
BORDER_D0_T132.1_RK1_A0_W0_EM1
 10
2616.29
 20
1968.99
 30
18.20
  0
VERTEX
  8
BORDER_D0_T132.1_RK1_A0_W0_EM1
 10
2604.75
 20
2004.49
 30
18.20
  0
VERTEX
  8
BORDER_D0_T132.1_RK1_A0_W0_EM1
 10
2642.08
 20
2004.49
 30
18.20
  0
VERTEX
  8
BORDER_D0_T132.1_RK1_A0_W0_EM1
 10
2653.62
 20
2040.00
 30
18.20
  0
VERTEX
  8
BORDER_D0_T132.1_RK1_A0_W0_EM1
 10
2683.82
 20
2018.06
 30
18.20
  0
VERTEX
  8
BORDER_D0_T132.1_RK1_A0_W0_EM1
 10
2714.03
 20
2040.00
 30
18.20
  0
VERTEX
  8
BORDER_D0_T132.1_RK1_A0_W0_EM1
 10
2725.56
 20
2004.49
 30
18.20
  0
VERTEX
  8
BORDER_D0_T132.1_RK1_A0_W0_EM1
 10
2762.90
 20
2004.49
 30
18.20
  0
VERTEX
  8
BORDER_D0_T132.1_RK1_A0_W0_EM1
 10
2751.36
 20
1968.99
 30
18.20
  0
VERTEX
  8
BORDER_D0_T132.1_RK1_A0_W0_EM1
 10
2781.56
 20
1947.04
 30
18.20
  0
SEQEND
  8
BORDER_D0_T132.1_RK1_A0_W0_EM1
  0
POLYLINE
  8
BORDER_D0_T132.1_RK1_A0_W0_EM1
 70
1
 66
1
  0
VERTEX
  8
BORDER_D0_T132.1_RK1_A0_W0_EM1
 10
2773.18
 20
1399.96
 30
18.20
  0
VERTEX
  8
BORDER_D0_T132.1_RK1_A0_W0_EM1
 10
2773.18
 20
908.08
 30
18.20
 42
-0.106580
  0
VERTEX
  8
BORDER_D0_T132.1_RK1_A0_W0_EM1
 10
2756.20
 20
911.81
 30
18.20
 42
-0.081332
  0
VERTEX
  8
BORDER_D0_T132.1_RK1_A0_W0_EM1
 10
2739.75
 20
922.91
 30
18.20
 42
-0.056347
  0
VERTEX
  8
BORDER_D0_T132.1_RK1_A0_W0_EM1
 10
2724.30
 20
941.03
 30
18.20
 42
-0.039878
  0
VERTEX
  8
BORDER_D0_T132.1_RK1_A0_W0_EM1
 10
2710.35
 20
965.61
 30
18.20
 42
-0.029940
  0
VERTEX
  8
BORDER_D0_T132.1_RK1_A0_W0_EM1
 10
2698.30
 20
995.93
 30
18.20
 42
-0.023968
  0
VERTEX
  8
BORDER_D0_T132.1_RK1_A0_W0_EM1
 10
2688.53
 20
1031.05
 30
18.20
 42
-0.020393
  0
VERTEX
  8
BORDER_D0_T132.1_RK1_A0_W0_EM1
 10
2681.33
 20
1069.90
 30
18.20
 42
-0.018360
  0
VERTEX
  8
BORDER_D0_T132.1_RK1_A0_W0_EM1
 10
2676.92
 20
1111.31
 30
18.20
 42
-0.017435
  0
VERTEX
  8
BORDER_D0_T132.1_RK1_A0_W0_EM1
 10
2675.44
 20
1154.02
 30
18.20
 42
-0.017435
  0
VERTEX
  8
BORDER_D0_T132.1_RK1_A0_W0_EM1
 10
2676.92
 20
1196.72
 30
18.20
 42
-0.018360
  0
VERTEX
  8
BORDER_D0_T132.1_RK1_A0_W0_EM1
 10
2681.33
 20
1238.13
 30
18.20
 42
-0.020393
  0
VERTEX
  8
BORDER_D0_T132.1_RK1_A0_W0_EM1
 10
2688.53
 20
1276.99
 30
18.20
 42
-0.023968
  0
VERTEX
  8
BORDER_D0_T132.1_RK1_A0_W0_EM1
 10
2698.30
 20
1312.10
 30
18.20
 42
-0.029940
  0
VERTEX
  8
BORDER_D0_T132.1_RK1_A0_W0_EM1
 10
2710.35
 20
1342.42
 30
18.20
 42
-0.039878
  0
VERTEX
  8
BORDER_D0_T132.1_RK1_A0_W0_EM1
 10
2724.30
 20
1367.01
 30
18.20
 42
-0.056347
  0
VERTEX
  8
BORDER_D0_T132.1_RK1_A0_W0_EM1
 10
2739.75
 20
1385.12
 30
18.20
 42
-0.081332
  0
VERTEX
  8
BORDER_D0_T132.1_RK1_A0_W0_EM1
 10
2756.20
 20
1396.22
 30
18.20
 42
-0.106580
  0
VERTEX
  8
BORDER_D0_T132.1_RK1_A0_W0_EM1
 10
2773.18
 20
1399.96
 30
18.20
  0
SEQEND
  8
BORDER_D0_T132.1_RK1_A0_W0_EM1
  0
POLYLINE
  8
BORDER_D0_T132.1_RK1_A0_W0_EM1
 70
1
 66
1
  0
VERTEX
  8
BORDER_D0_T132.1_RK1_A0_W0_EM1
 10
2675.75
 20
1359.15
 30
18.20
  0
VERTEX
  8
BORDER_D0_T132.1_RK1_A0_W0_EM1
 10
2675.75
 20
1851.03
 30
18.20
 42
-0.106579
  0
VERTEX
  8
BORDER_D0_T132.1_RK1_A0_W0_EM1
 10
2692.72
 20
1847.30
 30
18.20
 42
-0.081333
  0
VERTEX
  8
BORDER_D0_T132.1_RK1_A0_W0_EM1
 10
2709.18
 20
1836.20
 30
18.20
 42
-0.056347
  0
VERTEX
  8
BORDER_D0_T132.1_RK1_A0_W0_EM1
 10
2724.62
 20
1818.08
 30
18.20
 42
-0.039878
  0
VERTEX
  8
BORDER_D0_T132.1_RK1_A0_W0_EM1
 10
2738.58
 20
1793.49
 30
18.20
 42
-0.029940
  0
VERTEX
  8
BORDER_D0_T132.1_RK1_A0_W0_EM1
 10
2750.62
 20
1763.18
 30
18.20
 42
-0.023968
  0
VERTEX
  8
BORDER_D0_T132.1_RK1_A0_W0_EM1
 10
2760.40
 20
1728.06
 30
18.20
 42
-0.020393
  0
VERTEX
  8
BORDER_D0_T132.1_RK1_A0_W0_EM1
 10
2767.60
 20
1689.21
 30
18.20
 42
-0.018360
  0
VERTEX
  8
BORDER_D0_T132.1_RK1_A0_W0_EM1
 10
2772.00
 20
1647.80
 30
18.20
 42
-0.017435
  0
VERTEX
  8
BORDER_D0_T132.1_RK1_A0_W0_EM1
 10
2773.49
 20
1605.09
 30
18.20
 42
-0.017435
  0
VERTEX
  8
BORDER_D0_T132.1_RK1_A0_W0_EM1
 10
2772.00
 20
1562.38
 30
18.20
 42
-0.018360
  0
VERTEX
  8
BORDER_D0_T132.1_RK1_A0_W0_EM1
 10
2767.60
 20
1520.97
 30
18.20
 42
-0.020393
  0
VERTEX
  8
BORDER_D0_T132.1_RK1_A0_W0_EM1
 10
2760.40
 20
1482.12
 30
18.20
 42
-0.023968
  0
VERTEX
  8
BORDER_D0_T132.1_RK1_A0_W0_EM1
 10
2750.62
 20
1447.00
 30
18.20
 42
-0.029940
  0
VERTEX
  8
BORDER_D0_T132.1_RK1_A0_W0_EM1
 10
2738.58
 20
1416.69
 30
18.20
 42
-0.039878
  0
VERTEX
  8
BORDER_D0_T132.1_RK1_A0_W0_EM1
 10
2724.62
 20
1392.10
 30
18.20
 42
-0.056346
  0
VERTEX
  8
BORDER_D0_T132.1_RK1_A0_W0_EM1
 10
2709.18
 20
1373.98
 30
18.20
 42
-0.081333
  0
VERTEX
  8
BORDER_D0_T132.1_RK1_A0_W0_EM1
 10
2692.72
 20
1362.89
 30
18.20
 42
-0.106578
  0
VERTEX
  8
BORDER_D0_T132.1_RK1_A0_W0_EM1
 10
2675.75
 20
1359.15
 30
18.20
  0
SEQEND
  8
BORDER_D0_T132.1_RK1_A0_W0_EM1
  0
POLYLINE
  8
BORDER_D0_T132.1_RK1_A0_W0_EM1
 70
1
 66
1
  0
VERTEX
  8
BORDER_D0_T132.1_RK1_A0_W0_EM1
 10
2533.87
 20
1153.05
 30
18.20
  0
VERTEX
  8
BORDER_D0_T132.1_RK1_A0_W0_EM1
 10
2533.87
 20
661.17
 30
18.20
 42
-0.106580
  0
VERTEX
  8
BORDER_D0_T132.1_RK1_A0_W0_EM1
 10
2516.90
 20
664.91
 30
18.20
 42
-0.081333
  0
VERTEX
  8
BORDER_D0_T132.1_RK1_A0_W0_EM1
 10
2500.44
 20
676.00
 30
18.20
 42
-0.056346
  0
VERTEX
  8
BORDER_D0_T132.1_RK1_A0_W0_EM1
 10
2485.00
 20
694.12
 30
18.20
 42
-0.039878
  0
VERTEX
  8
BORDER_D0_T132.1_RK1_A0_W0_EM1
 10
2471.04
 20
718.71
 30
18.20
 42
-0.029940
  0
VERTEX
  8
BORDER_D0_T132.1_RK1_A0_W0_EM1
 10
2459.00
 20
749.02
 30
18.20
 42
-0.023968
  0
VERTEX
  8
BORDER_D0_T132.1_RK1_A0_W0_EM1
 10
2449.23
 20
784.14
 30
18.20
 42
-0.020393
  0
VERTEX
  8
BORDER_D0_T132.1_RK1_A0_W0_EM1
 10
2442.02
 20
822.99
 30
18.20
 42
-0.018360
  0
VERTEX
  8
BORDER_D0_T132.1_RK1_A0_W0_EM1
 10
2437.61
 20
864.40
 30
18.20
 42
-0.017435
  0
VERTEX
  8
BORDER_D0_T132.1_RK1_A0_W0_EM1
 10
2436.13
 20
907.11
 30
18.20
 42
-0.017435
  0
VERTEX
  8
BORDER_D0_T132.1_RK1_A0_W0_EM1
 10
2437.61
 20
949.82
 30
18.20
 42
-0.018360
  0
VERTEX
  8
BORDER_D0_T132.1_RK1_A0_W0_EM1
 10
2442.02
 20
991.22
 30
18.20
 42
-0.020393
  0
VERTEX
  8
BORDER_D0_T132.1_RK1_A0_W0_EM1
 10
2449.23
 20
1030.08
 30
18.20
 42
-0.023968
  0
VERTEX
  8
BORDER_D0_T132.1_RK1_A0_W0_EM1
 10
2459.00
 20
1065.20
 30
18.20
 42
-0.029940
  0
VERTEX
  8
BORDER_D0_T132.1_RK1_A0_W0_EM1
 10
2471.04
 20
1095.51
 30
18.20
 42
-0.039878
  0
VERTEX
  8
BORDER_D0_T132.1_RK1_A0_W0_EM1
 10
2485.00
 20
1120.10
 30
18.20
 42
-0.056346
  0
VERTEX
  8
BORDER_D0_T132.1_RK1_A0_W0_EM1
 10
2500.44
 20
1138.22
 30
18.20
 42
-0.081333
  0
VERTEX
  8
BORDER_D0_T132.1_RK1_A0_W0_EM1
 10
2516.90
 20
1149.31
 30
18.20
 42
-0.106580
  0
VERTEX
  8
BORDER_D0_T132.1_RK1_A0_W0_EM1
 10
2533.87
 20
1153.05
 30
18.20
  0
SEQEND
  8
BORDER_D0_T132.1_RK1_A0_W0_EM1
  0
POLYLINE
  8
BORDER_D0_T132.1_RK1_A0_W0_EM1
 70
1
 66
1
  0
VERTEX
  8
BORDER_D0_T132.1_RK1_A0_W0_EM1
 10
2556.97
 20
1084.32
 30
18.20
  0
VERTEX
  8
BORDER_D0_T132.1_RK1_A0_W0_EM1
 10
2556.97
 20
1576.20
 30
18.20
 42
-0.106580
  0
VERTEX
  8
BORDER_D0_T132.1_RK1_A0_W0_EM1
 10
2573.94
 20
1572.47
 30
18.20
 42
-0.081332
  0
VERTEX
  8
BORDER_D0_T132.1_RK1_A0_W0_EM1
 10
2590.40
 20
1561.37
 30
18.20
 42
-0.056347
  0
VERTEX
  8
BORDER_D0_T132.1_RK1_A0_W0_EM1
 10
2605.84
 20
1543.25
 30
18.20
 42
-0.039878
  0
VERTEX
  8
BORDER_D0_T132.1_RK1_A0_W0_EM1
 10
2619.80
 20
1518.67
 30
18.20
 42
-0.029940
  0
VERTEX
  8
BORDER_D0_T132.1_RK1_A0_W0_EM1
 10
2631.84
 20
1488.35
 30
18.20
 42
-0.023968
  0
VERTEX
  8
BORDER_D0_T132.1_RK1_A0_W0_EM1
 10
2641.62
 20
1453.23
 30
18.20
 42
-0.020393
  0
VERTEX
  8
BORDER_D0_T132.1_RK1_A0_W0_EM1
 10
2648.82
 20
1414.38
 30
18.20
 42
-0.018360
  0
VERTEX
  8
BORDER_D0_T132.1_RK1_A0_W0_EM1
 10
2653.23
 20
1372.97
 30
18.20
 42
-0.017435
  0
VERTEX
  8
BORDER_D0_T132.1_RK1_A0_W0_EM1
 10
2654.71
 20
1330.26
 30
18.20
 42
-0.017435
  0
VERTEX
  8
BORDER_D0_T132.1_RK1_A0_W0_EM1
 10
2653.23
 20
1287.56
 30
18.20
 42
-0.018360
  0
VERTEX
  8
BORDER_D0_T132.1_RK1_A0_W0_EM1
 10
2648.82
 20
1246.15
 30
18.20
 42
-0.020393
  0
VERTEX
  8
BORDER_D0_T132.1_RK1_A0_W0_EM1
 10
2641.62
 20
1207.29
 30
18.20
 42
-0.023968
  0
VERTEX
  8
BORDER_D0_T132.1_RK1_A0_W0_EM1
 10
2631.84
 20
1172.18
 30
18.20
 42
-0.029940
  0
VERTEX
  8
BORDER_D0_T132.1_RK1_A0_W0_EM1
 10
2619.80
 20
1141.86
 30
18.20
 42
-0.039878
  0
VERTEX
  8
BORDER_D0_T132.1_RK1_A0_W0_EM1
 10
2605.84
 20
1117.27
 30
18.20
 42
-0.056347
  0
VERTEX
  8
BORDER_D0_T132.1_RK1_A0_W0_EM1
 10
2590.40
 20
1099.16
 30
18.20
 42
-0.081332
  0
VERTEX
  8
BORDER_D0_T132.1_RK1_A0_W0_EM1
 10
2573.94
 20
1088.06
 30
18.20
 42
-0.106580
  0
VERTEX
  8
BORDER_D0_T132.1_RK1_A0_W0_EM1
 10
2556.97
 20
1084.32
 30
18.20
  0
SEQEND
  8
BORDER_D0_T132.1_RK1_A0_W0_EM1
  0
POLYLINE
  8
BORDER_D0_T132.1_RK1_A0_W0_EM1
 70
1
 66
1
  0
VERTEX
  8
BORDER_D0_T132.1_RK1_A0_W0_EM1
 10
2372.57
 20
717.43
 30
18.20
 42
-0.106579
  0
VERTEX
  8
BORDER_D0_T132.1_RK1_A0_W0_EM1
 10
2389.54
 20
713.69
 30
18.20
 42
-0.081333
  0
VERTEX
  8
BORDER_D0_T132.1_RK1_A0_W0_EM1
 10
2406.00
 20
702.60
 30
18.20
 42
-0.056346
  0
VERTEX
  8
BORDER_D0_T132.1_RK1_A0_W0_EM1
 10
2421.44
 20
684.48
 30
18.20
 42
-0.039878
  0
VERTEX
  8
BORDER_D0_T132.1_RK1_A0_W0_EM1
 10
2435.40
 20
659.89
 30
18.20
 42
-0.029940
  0
VERTEX
  8
BORDER_D0_T132.1_RK1_A0_W0_EM1
 10
2447.44
 20
629.58
 30
18.20
 42
-0.023968
  0
VERTEX
  8
BORDER_D0_T132.1_RK1_A0_W0_EM1
 10
2457.22
 20
594.46
 30
18.20
 42
-0.020393
  0
VERTEX
  8
BORDER_D0_T132.1_RK1_A0_W0_EM1
 10
2464.42
 20
555.60
 30
18.20
 42
-0.018360
  0
VERTEX
  8
BORDER_D0_T132.1_RK1_A0_W0_EM1
 10
2468.82
 20
514.20
 30
18.20
 42
-0.017435
  0
VERTEX
  8
BORDER_D0_T132.1_RK1_A0_W0_EM1
 10
2470.31
 20
471.49
 30
18.20
 42
-0.017435
  0
VERTEX
  8
BORDER_D0_T132.1_RK1_A0_W0_EM1
 10
2468.82
 20
428.78
 30
18.20
 42
-0.018360
  0
VERTEX
  8
BORDER_D0_T132.1_RK1_A0_W0_EM1
 10
2464.42
 20
387.37
 30
18.20
 42
-0.020393
  0
VERTEX
  8
BORDER_D0_T132.1_RK1_A0_W0_EM1
 10
2457.22
 20
348.52
 30
18.20
 42
-0.023968
  0
VERTEX
  8
BORDER_D0_T132.1_RK1_A0_W0_EM1
 10
2447.44
 20
313.40
 30
18.20
 42
-0.029940
  0
VERTEX
  8
BORDER_D0_T132.1_RK1_A0_W0_EM1
 10
2435.40
 20
283.09
 30
18.20
 42
-0.039878
  0
VERTEX
  8
BORDER_D0_T132.1_RK1_A0_W0_EM1
 10
2421.44
 20
258.50
 30
18.20
 42
-0.056346
  0
VERTEX
  8
BORDER_D0_T132.1_RK1_A0_W0_EM1
 10
2406.00
 20
240.38
 30
18.20
 42
-0.081333
  0
VERTEX
  8
BORDER_D0_T132.1_RK1_A0_W0_EM1
 10
2389.54
 20
229.28
 30
18.20
 42
-0.106579
  0
VERTEX
  8
BORDER_D0_T132.1_RK1_A0_W0_EM1
 10
2372.57
 20
225.55
 30
18.20
 42
-0.106580
  0
VERTEX
  8
BORDER_D0_T132.1_RK1_A0_W0_EM1
 10
2355.60
 20
229.28
 30
18.20
 42
-0.081332
  0
VERTEX
  8
BORDER_D0_T132.1_RK1_A0_W0_EM1
 10
2339.14
 20
240.38
 30
18.20
 42
-0.056347
  0
VERTEX
  8
BORDER_D0_T132.1_RK1_A0_W0_EM1
 10
2323.70
 20
258.50
 30
18.20
 42
-0.039878
  0
VERTEX
  8
BORDER_D0_T132.1_RK1_A0_W0_EM1
 10
2309.74
 20
283.09
 30
18.20
 42
-0.029940
  0
VERTEX
  8
BORDER_D0_T132.1_RK1_A0_W0_EM1
 10
2297.70
 20
313.40
 30
18.20
 42
-0.023968
  0
VERTEX
  8
BORDER_D0_T132.1_RK1_A0_W0_EM1
 10
2287.93
 20
348.52
 30
18.20
 42
-0.020393
  0
VERTEX
  8
BORDER_D0_T132.1_RK1_A0_W0_EM1
 10
2280.72
 20
387.37
 30
18.20
 42
-0.018360
  0
VERTEX
  8
BORDER_D0_T132.1_RK1_A0_W0_EM1
 10
2276.31
 20
428.78
 30
18.20
 42
-0.017435
  0
VERTEX
  8
BORDER_D0_T132.1_RK1_A0_W0_EM1
 10
2274.83
 20
471.49
 30
18.20
 42
-0.017435
  0
VERTEX
  8
BORDER_D0_T132.1_RK1_A0_W0_EM1
 10
2276.31
 20
514.20
 30
18.20
 42
-0.018360
  0
VERTEX
  8
BORDER_D0_T132.1_RK1_A0_W0_EM1
 10
2280.72
 20
555.60
 30
18.20
 42
-0.020393
  0
VERTEX
  8
BORDER_D0_T132.1_RK1_A0_W0_EM1
 10
2287.93
 20
594.46
 30
18.20
 42
-0.023968
  0
VERTEX
  8
BORDER_D0_T132.1_RK1_A0_W0_EM1
 10
2297.70
 20
629.58
 30
18.20
 42
-0.029940
  0
VERTEX
  8
BORDER_D0_T132.1_RK1_A0_W0_EM1
 10
2309.74
 20
659.89
 30
18.20
 42
-0.039878
  0
VERTEX
  8
BORDER_D0_T132.1_RK1_A0_W0_EM1
 10
2323.70
 20
684.48
 30
18.20
 42
-0.056347
  0
VERTEX
  8
BORDER_D0_T132.1_RK1_A0_W0_EM1
 10
2339.14
 20
702.60
 30
18.20
 42
-0.081332
  0
VERTEX
  8
BORDER_D0_T132.1_RK1_A0_W0_EM1
 10
2355.60
 20
713.69
 30
18.20
 42
-0.106580
  0
VERTEX
  8
BORDER_D0_T132.1_RK1_A0_W0_EM1
 10
2372.57
 20
717.43
 30
18.20
  0
SEQEND
  8
BORDER_D0_T132.1_RK1_A0_W0_EM1
  0
POLYLINE
  8
BORDER_D0_T132.1_RK1_A0_W0_EM1
 70
1
 66
1
  0
VERTEX
  8
BORDER_D0_T132.1_RK1_A0_W0_EM1
 10
2598.34
 20
594.27
 30
18.20
  0
VERTEX
  8
BORDER_D0_T132.1_RK1_A0_W0_EM1
 10
2598.34
 20
1086.15
 30
18.20
 42
-0.106580
  0
VERTEX
  8
BORDER_D0_T132.1_RK1_A0_W0_EM1
 10
2615.31
 20
1082.41
 30
18.20
 42
-0.081332
  0
VERTEX
  8
BORDER_D0_T132.1_RK1_A0_W0_EM1
 10
2631.76
 20
1071.31
 30
18.20
 42
-0.056347
  0
VERTEX
  8
BORDER_D0_T132.1_RK1_A0_W0_EM1
 10
2647.21
 20
1053.20
 30
18.20
 42
-0.039878
  0
VERTEX
  8
BORDER_D0_T132.1_RK1_A0_W0_EM1
 10
2661.16
 20
1028.61
 30
18.20
 42
-0.029940
  0
VERTEX
  8
BORDER_D0_T132.1_RK1_A0_W0_EM1
 10
2673.21
 20
998.29
 30
18.20
 42
-0.023968
  0
VERTEX
  8
BORDER_D0_T132.1_RK1_A0_W0_EM1
 10
2682.98
 20
963.18
 30
18.20
 42
-0.020393
  0
VERTEX
  8
BORDER_D0_T132.1_RK1_A0_W0_EM1
 10
2690.18
 20
924.32
 30
18.20
 42
-0.018360
  0
VERTEX
  8
BORDER_D0_T132.1_RK1_A0_W0_EM1
 10
2694.59
 20
882.91
 30
18.20
 42
-0.017435
  0
VERTEX
  8
BORDER_D0_T132.1_RK1_A0_W0_EM1
 10
2696.08
 20
840.21
 30
18.20
 42
-0.017435
  0
VERTEX
  8
BORDER_D0_T132.1_RK1_A0_W0_EM1
 10
2694.59
 20
797.50
 30
18.20
 42
-0.018360
  0
VERTEX
  8
BORDER_D0_T132.1_RK1_A0_W0_EM1
 10
2690.18
 20
756.09
 30
18.20
 42
-0.020393
  0
VERTEX
  8
BORDER_D0_T132.1_RK1_A0_W0_EM1
 10
2682.98
 20
717.24
 30
18.20
 42
-0.023968
  0
VERTEX
  8
BORDER_D0_T132.1_RK1_A0_W0_EM1
 10
2673.21
 20
682.12
 30
18.20
 42
-0.029940
  0
VERTEX
  8
BORDER_D0_T132.1_RK1_A0_W0_EM1
 10
2661.16
 20
651.81
 30
18.20
 42
-0.039879
  0
VERTEX
  8
BORDER_D0_T132.1_RK1_A0_W0_EM1
 10
2647.21
 20
627.22
 30
18.20
 42
-0.056347
  0
VERTEX
  8
BORDER_D0_T132.1_RK1_A0_W0_EM1
 10
2631.76
 20
609.10
 30
18.20
 42
-0.081332
  0
VERTEX
  8
BORDER_D0_T132.1_RK1_A0_W0_EM1
 10
2615.31
 20
598.00
 30
18.20
 42
-0.106580
  0
VERTEX
  8
BORDER_D0_T132.1_RK1_A0_W0_EM1
 10
2598.34
 20
594.27
 30
18.20
  0
SEQEND
  8
BORDER_D0_T132.1_RK1_A0_W0_EM1
  0
POLYLINE
  8
BORDER_D0_T132.1_RK1_A0_W0_EM1
 70
1
 66
1
  0
VERTEX
  8
BORDER_D0_T132.1_RK1_A0_W0_EM1
 10
2564.01
 20
505.51
 30
18.20
 42
-0.106579
  0
VERTEX
  8
BORDER_D0_T132.1_RK1_A0_W0_EM1
 10
2580.98
 20
501.77
 30
18.20
 42
-0.081333
  0
VERTEX
  8
BORDER_D0_T132.1_RK1_A0_W0_EM1
 10
2597.44
 20
490.68
 30
18.20
 42
-0.056346
  0
VERTEX
  8
BORDER_D0_T132.1_RK1_A0_W0_EM1
 10
2612.88
 20
472.56
 30
18.20
 42
-0.039878
  0
VERTEX
  8
BORDER_D0_T132.1_RK1_A0_W0_EM1
 10
2626.83
 20
447.97
 30
18.20
 42
-0.029939
  0
VERTEX
  8
BORDER_D0_T132.1_RK1_A0_W0_EM1
 10
2638.88
 20
417.65
 30
18.20
 42
-0.023968
  0
VERTEX
  8
BORDER_D0_T132.1_RK1_A0_W0_EM1
 10
2648.65
 20
382.54
 30
18.20
 42
-0.020393
  0
VERTEX
  8
BORDER_D0_T132.1_RK1_A0_W0_EM1
 10
2655.85
 20
343.68
 30
18.20
 42
-0.018360
  0
VERTEX
  8
BORDER_D0_T132.1_RK1_A0_W0_EM1
 10
2660.26
 20
302.27
 30
18.20
 42
-0.017435
  0
VERTEX
  8
BORDER_D0_T132.1_RK1_A0_W0_EM1
 10
2661.75
 20
259.57
 30
18.20
 42
-0.017435
  0
VERTEX
  8
BORDER_D0_T132.1_RK1_A0_W0_EM1
 10
2660.26
 20
216.86
 30
18.20
 42
-0.018360
  0
VERTEX
  8
BORDER_D0_T132.1_RK1_A0_W0_EM1
 10
2655.85
 20
175.45
 30
18.20
 42
-0.020393
  0
VERTEX
  8
BORDER_D0_T132.1_RK1_A0_W0_EM1
 10
2648.65
 20
136.60
 30
18.20
 42
-0.023968
  0
VERTEX
  8
BORDER_D0_T132.1_RK1_A0_W0_EM1
 10
2638.88
 20
101.48
 30
18.20
 42
-0.029940
  0
VERTEX
  8
BORDER_D0_T132.1_RK1_A0_W0_EM1
 10
2626.83
 20
71.17
 30
18.20
 42
-0.039878
  0
VERTEX
  8
BORDER_D0_T132.1_RK1_A0_W0_EM1
 10
2612.88
 20
46.58
 30
18.20
 42
-0.056346
  0
VERTEX
  8
BORDER_D0_T132.1_RK1_A0_W0_EM1
 10
2597.44
 20
28.46
 30
18.20
 42
-0.081333
  0
VERTEX
  8
BORDER_D0_T132.1_RK1_A0_W0_EM1
 10
2580.98
 20
17.36
 30
18.20
 42
-0.106579
  0
VERTEX
  8
BORDER_D0_T132.1_RK1_A0_W0_EM1
 10
2564.01
 20
13.63
 30
18.20
 42
-0.106580
  0
VERTEX
  8
BORDER_D0_T132.1_RK1_A0_W0_EM1
 10
2547.03
 20
17.36
 30
18.20
 42
-0.081333
  0
VERTEX
  8
BORDER_D0_T132.1_RK1_A0_W0_EM1
 10
2530.58
 20
28.46
 30
18.20
 42
-0.056346
  0
VERTEX
  8
BORDER_D0_T132.1_RK1_A0_W0_EM1
 10
2515.14
 20
46.58
 30
18.20
 42
-0.039878
  0
VERTEX
  8
BORDER_D0_T132.1_RK1_A0_W0_EM1
 10
2501.18
 20
71.17
 30
18.20
 42
-0.029939
  0
VERTEX
  8
BORDER_D0_T132.1_RK1_A0_W0_EM1
 10
2489.13
 20
101.48
 30
18.20
 42
-0.023968
  0
VERTEX
  8
BORDER_D0_T132.1_RK1_A0_W0_EM1
 10
2479.36
 20
136.60
 30
18.20
 42
-0.020393
  0
VERTEX
  8
BORDER_D0_T132.1_RK1_A0_W0_EM1
 10
2472.16
 20
175.45
 30
18.20
 42
-0.018360
  0
VERTEX
  8
BORDER_D0_T132.1_RK1_A0_W0_EM1
 10
2467.75
 20
216.86
 30
18.20
 42
-0.017435
  0
VERTEX
  8
BORDER_D0_T132.1_RK1_A0_W0_EM1
 10
2466.27
 20
259.57
 30
18.20
 42
-0.017435
  0
VERTEX
  8
BORDER_D0_T132.1_RK1_A0_W0_EM1
 10
2467.75
 20
302.27
 30
18.20
 42
-0.018360
  0
VERTEX
  8
BORDER_D0_T132.1_RK1_A0_W0_EM1
 10
2472.16
 20
343.68
 30
18.20
 42
-0.020393
  0
VERTEX
  8
BORDER_D0_T132.1_RK1_A0_W0_EM1
 10
2479.36
 20
382.54
 30
18.20
 42
-0.023968
  0
VERTEX
  8
BORDER_D0_T132.1_RK1_A0_W0_EM1
 10
2489.13
 20
417.65
 30
18.20
 42
-0.029939
  0
VERTEX
  8
BORDER_D0_T132.1_RK1_A0_W0_EM1
 10
2501.18
 20
447.97
 30
18.20
 42
-0.039878
  0
VERTEX
  8
BORDER_D0_T132.1_RK1_A0_W0_EM1
 10
2515.14
 20
472.56
 30
18.20
 42
-0.056346
  0
VERTEX
  8
BORDER_D0_T132.1_RK1_A0_W0_EM1
 10
2530.58
 20
490.68
 30
18.20
 42
-0.081333
  0
VERTEX
  8
BORDER_D0_T132.1_RK1_A0_W0_EM1
 10
2547.03
 20
501.77
 30
18.20
 42
-0.106580
  0
VERTEX
  8
BORDER_D0_T132.1_RK1_A0_W0_EM1
 10
2564.01
 20
505.51
 30
18.20
  0
SEQEND
  8
BORDER_D0_T132.1_RK1_A0_W0_EM1
  0
POLYLINE
  8
BORDER_D0_T132.1_RK1_A0_W0_EM1
 70
1
 66
1
  0
VERTEX
  8
BORDER_D0_T132.1_RK1_A0_W0_EM1
 10
2676.48
 20
155.09
 30
18.20
  0
VERTEX
  8
BORDER_D0_T132.1_RK1_A0_W0_EM1
 10
2676.48
 20
646.97
 30
18.20
 42
-0.106580
  0
VERTEX
  8
BORDER_D0_T132.1_RK1_A0_W0_EM1
 10
2693.45
 20
643.23
 30
18.20
 42
-0.081332
  0
VERTEX
  8
BORDER_D0_T132.1_RK1_A0_W0_EM1
 10
2709.91
 20
632.14
 30
18.20
 42
-0.056347
  0
VERTEX
  8
BORDER_D0_T132.1_RK1_A0_W0_EM1
 10
2725.35
 20
614.02
 30
18.20
 42
-0.039878
  0
VERTEX
  8
BORDER_D0_T132.1_RK1_A0_W0_EM1
 10
2739.31
 20
589.43
 30
18.20
 42
-0.029940
  0
VERTEX
  8
BORDER_D0_T132.1_RK1_A0_W0_EM1
 10
2751.35
 20
559.11
 30
18.20
 42
-0.023968
  0
VERTEX
  8
BORDER_D0_T132.1_RK1_A0_W0_EM1
 10
2761.13
 20
524.00
 30
18.20
 42
-0.020393
  0
VERTEX
  8
BORDER_D0_T132.1_RK1_A0_W0_EM1
 10
2768.33
 20
485.14
 30
18.20
 42
-0.018360
  0
VERTEX
  8
BORDER_D0_T132.1_RK1_A0_W0_EM1
 10
2772.74
 20
443.73
 30
18.20
 42
-0.017435
  0
VERTEX
  8
BORDER_D0_T132.1_RK1_A0_W0_EM1
 10
2774.22
 20
401.03
 30
18.20
 42
-0.017435
  0
VERTEX
  8
BORDER_D0_T132.1_RK1_A0_W0_EM1
 10
2772.74
 20
358.32
 30
18.20
 42
-0.018360
  0
VERTEX
  8
BORDER_D0_T132.1_RK1_A0_W0_EM1
 10
2768.33
 20
316.91
 30
18.20
 42
-0.020393
  0
VERTEX
  8
BORDER_D0_T132.1_RK1_A0_W0_EM1
 10
2761.13
 20
278.06
 30
18.20
 42
-0.023968
  0
VERTEX
  8
BORDER_D0_T132.1_RK1_A0_W0_EM1
 10
2751.35
 20
242.94
 30
18.20
 42
-0.029940
  0
VERTEX
  8
BORDER_D0_T132.1_RK1_A0_W0_EM1
 10
2739.31
 20
212.63
 30
18.20
 42
-0.039878
  0
VERTEX
  8
BORDER_D0_T132.1_RK1_A0_W0_EM1
 10
2725.35
 20
188.04
 30
18.20
 42
-0.056347
  0
VERTEX
  8
BORDER_D0_T132.1_RK1_A0_W0_EM1
 10
2709.91
 20
169.92
 30
18.20
 42
-0.081332
  0
VERTEX
  8
BORDER_D0_T132.1_RK1_A0_W0_EM1
 10
2693.45
 20
158.82
 30
18.20
 42
-0.106580
  0
VERTEX
  8
BORDER_D0_T132.1_RK1_A0_W0_EM1
 10
2676.48
 20
155.09
 30
18.20
  0
SEQEND
  8
BORDER_D0_T132.1_RK1_A0_W0_EM1
  0
POLYLINE
  8
BORDER_D0_T132.1_RK1_A0_W0_EM1
 70
1
 66
1
  0
VERTEX
  8
BORDER_D0_T132.1_RK1_A0_W0_EM1
 10
2347.10
 20
36.74
 30
18.20
  0
VERTEX
  8
BORDER_D0_T132.1_RK1_A0_W0_EM1
 10
2325.15
 20
104.28
 30
18.20
  0
VERTEX
  8
BORDER_D0_T132.1_RK1_A0_W0_EM1
 10
2254.14
 20
104.28
 30
18.20
  0
VERTEX
  8
BORDER_D0_T132.1_RK1_A0_W0_EM1
 10
2311.59
 20
146.01
 30
18.20
  0
VERTEX
  8
BORDER_D0_T132.1_RK1_A0_W0_EM1
 10
2289.65
 20
213.55
 30
18.20
  0
VERTEX
  8
BORDER_D0_T132.1_RK1_A0_W0_EM1
 10
2347.10
 20
171.81
 30
18.20
  0
VERTEX
  8
BORDER_D0_T132.1_RK1_A0_W0_EM1
 10
2404.55
 20
213.55
 30
18.20
  0
VERTEX
  8
BORDER_D0_T132.1_RK1_A0_W0_EM1
 10
2382.60
 20
146.01
 30
18.20
  0
VERTEX
  8
BORDER_D0_T132.1_RK1_A0_W0_EM1
 10
2440.05
 20
104.28
 30
18.20
  0
VERTEX
  8
BORDER_D0_T132.1_RK1_A0_W0_EM1
 10
2369.04
 20
104.28
 30
18.20
  0
VERTEX
  8
BORDER_D0_T132.1_RK1_A0_W0_EM1
 10
2347.10
 20
36.74
 30
18.20
  0
SEQEND
  8
BORDER_D0_T132.1_RK1_A0_W0_EM1
  0
POLYLINE
  8
BORDER_D0_T132.1_RK1_A0_W0_EM1
 70
1
 66
1
  0
VERTEX
  8
BORDER_D0_T132.1_RK1_A0_W0_EM1
 10
2022.34
 20
186.85
 30
18.20
 42
-0.106579
  0
VERTEX
  8
BORDER_D0_T132.1_RK1_A0_W0_EM1
 10
2018.61
 20
169.88
 30
18.20
 42
-0.081333
  0
VERTEX
  8
BORDER_D0_T132.1_RK1_A0_W0_EM1
 10
2007.51
 20
153.42
 30
18.20
 42
-0.056346
  0
VERTEX
  8
BORDER_D0_T132.1_RK1_A0_W0_EM1
 10
1989.40
 20
137.98
 30
18.20
 42
-0.039878
  0
VERTEX
  8
BORDER_D0_T132.1_RK1_A0_W0_EM1
 10
1964.81
 20
124.03
 30
18.20
 42
-0.029940
  0
VERTEX
  8
BORDER_D0_T132.1_RK1_A0_W0_EM1
 10
1934.49
 20
111.98
 30
18.20
 42
-0.023968
  0
VERTEX
  8
BORDER_D0_T132.1_RK1_A0_W0_EM1
 10
1899.38
 20
102.21
 30
18.20
 42
-0.020393
  0
VERTEX
  8
BORDER_D0_T132.1_RK1_A0_W0_EM1
 10
1860.52
 20
95.00
 30
18.20
 42
-0.018360
  0
VERTEX
  8
BORDER_D0_T132.1_RK1_A0_W0_EM1
 10
1819.11
 20
90.60
 30
18.20
 42
-0.017435
  0
VERTEX
  8
BORDER_D0_T132.1_RK1_A0_W0_EM1
 10
1776.41
 20
89.11
 30
18.20
 42
-0.017435
  0
VERTEX
  8
BORDER_D0_T132.1_RK1_A0_W0_EM1
 10
1733.70
 20
90.60
 30
18.20
 42
-0.018360
  0
VERTEX
  8
BORDER_D0_T132.1_RK1_A0_W0_EM1
 10
1692.29
 20
95.00
 30
18.20
 42
-0.020393
  0
VERTEX
  8
BORDER_D0_T132.1_RK1_A0_W0_EM1
 10
1653.44
 20
102.21
 30
18.20
 42
-0.023968
  0
VERTEX
  8
BORDER_D0_T132.1_RK1_A0_W0_EM1
 10
1618.32
 20
111.98
 30
18.20
 42
-0.029940
  0
VERTEX
  8
BORDER_D0_T132.1_RK1_A0_W0_EM1
 10
1588.00
 20
124.03
 30
18.20
 42
-0.039878
  0
VERTEX
  8
BORDER_D0_T132.1_RK1_A0_W0_EM1
 10
1563.42
 20
137.98
 30
18.20
 42
-0.056347
  0
VERTEX
  8
BORDER_D0_T132.1_RK1_A0_W0_EM1
 10
1545.30
 20
153.42
 30
18.20
 42
-0.081333
  0
VERTEX
  8
BORDER_D0_T132.1_RK1_A0_W0_EM1
 10
1534.20
 20
169.88
 30
18.20
 42
-0.106579
  0
VERTEX
  8
BORDER_D0_T132.1_RK1_A0_W0_EM1
 10
1530.46
 20
186.85
 30
18.20
 42
-0.106579
  0
VERTEX
  8
BORDER_D0_T132.1_RK1_A0_W0_EM1
 10
1534.20
 20
203.82
 30
18.20
 42
-0.081333
  0
VERTEX
  8
BORDER_D0_T132.1_RK1_A0_W0_EM1
 10
1545.30
 20
220.28
 30
18.20
 42
-0.056347
  0
VERTEX
  8
BORDER_D0_T132.1_RK1_A0_W0_EM1
 10
1563.42
 20
235.72
 30
18.20
 42
-0.039878
  0
VERTEX
  8
BORDER_D0_T132.1_RK1_A0_W0_EM1
 10
1588.00
 20
249.68
 30
18.20
 42
-0.029940
  0
VERTEX
  8
BORDER_D0_T132.1_RK1_A0_W0_EM1
 10
1618.32
 20
261.72
 30
18.20
 42
-0.023968
  0
VERTEX
  8
BORDER_D0_T132.1_RK1_A0_W0_EM1
 10
1653.44
 20
271.50
 30
18.20
 42
-0.020393
  0
VERTEX
  8
BORDER_D0_T132.1_RK1_A0_W0_EM1
 10
1692.29
 20
278.70
 30
18.20
 42
-0.018360
  0
VERTEX
  8
BORDER_D0_T132.1_RK1_A0_W0_EM1
 10
1733.70
 20
283.11
 30
18.20
 42
-0.017435
  0
VERTEX
  8
BORDER_D0_T132.1_RK1_A0_W0_EM1
 10
1776.41
 20
284.59
 30
18.20
 42
-0.017435
  0
VERTEX
  8
BORDER_D0_T132.1_RK1_A0_W0_EM1
 10
1819.11
 20
283.11
 30
18.20
 42
-0.018360
  0
VERTEX
  8
BORDER_D0_T132.1_RK1_A0_W0_EM1
 10
1860.52
 20
278.70
 30
18.20
 42
-0.020393
  0
VERTEX
  8
BORDER_D0_T132.1_RK1_A0_W0_EM1
 10
1899.38
 20
271.50
 30
18.20
 42
-0.023968
  0
VERTEX
  8
BORDER_D0_T132.1_RK1_A0_W0_EM1
 10
1934.49
 20
261.72
 30
18.20
 42
-0.029940
  0
VERTEX
  8
BORDER_D0_T132.1_RK1_A0_W0_EM1
 10
1964.81
 20
249.68
 30
18.20
 42
-0.039878
  0
VERTEX
  8
BORDER_D0_T132.1_RK1_A0_W0_EM1
 10
1989.40
 20
235.72
 30
18.20
 42
-0.056346
  0
VERTEX
  8
BORDER_D0_T132.1_RK1_A0_W0_EM1
 10
2007.51
 20
220.28
 30
18.20
 42
-0.081333
  0
VERTEX
  8
BORDER_D0_T132.1_RK1_A0_W0_EM1
 10
2018.61
 20
203.82
 30
18.20
 42
-0.106579
  0
VERTEX
  8
BORDER_D0_T132.1_RK1_A0_W0_EM1
 10
2022.34
 20
186.85
 30
18.20
  0
SEQEND
  8
BORDER_D0_T132.1_RK1_A0_W0_EM1
  0
POLYLINE
  8
BORDER_D0_T132.1_RK1_A0_W0_EM1
 70
1
 66
1
  0
VERTEX
  8
BORDER_D0_T132.1_RK1_A0_W0_EM1
 10
1829.46
 20
381.64
 30
18.20
 42
-0.106579
  0
VERTEX
  8
BORDER_D0_T132.1_RK1_A0_W0_EM1
 10
1825.73
 20
364.67
 30
18.20
 42
-0.081333
  0
VERTEX
  8
BORDER_D0_T132.1_RK1_A0_W0_EM1
 10
1814.63
 20
348.22
 30
18.20
 42
-0.056347
  0
VERTEX
  8
BORDER_D0_T132.1_RK1_A0_W0_EM1
 10
1796.51
 20
332.77
 30
18.20
 42
-0.039878
  0
VERTEX
  8
BORDER_D0_T132.1_RK1_A0_W0_EM1
 10
1771.92
 20
318.82
 30
18.20
 42
-0.029940
  0
VERTEX
  8
BORDER_D0_T132.1_RK1_A0_W0_EM1
 10
1741.61
 20
306.77
 30
18.20
 42
-0.023968
  0
VERTEX
  8
BORDER_D0_T132.1_RK1_A0_W0_EM1
 10
1706.49
 20
297.00
 30
18.20
 42
-0.020393
  0
VERTEX
  8
BORDER_D0_T132.1_RK1_A0_W0_EM1
 10
1667.64
 20
289.80
 30
18.20
 42
-0.018360
  0
VERTEX
  8
BORDER_D0_T132.1_RK1_A0_W0_EM1
 10
1626.23
 20
285.39
 30
18.20
 42
-0.017435
  0
VERTEX
  8
BORDER_D0_T132.1_RK1_A0_W0_EM1
 10
1583.52
 20
283.90
 30
18.20
 42
-0.017435
  0
VERTEX
  8
BORDER_D0_T132.1_RK1_A0_W0_EM1
 10
1540.82
 20
285.39
 30
18.20
 42
-0.018360
  0
VERTEX
  8
BORDER_D0_T132.1_RK1_A0_W0_EM1
 10
1499.41
 20
289.80
 30
18.20
 42
-0.020393
  0
VERTEX
  8
BORDER_D0_T132.1_RK1_A0_W0_EM1
 10
1460.55
 20
297.00
 30
18.20
 42
-0.023968
  0
VERTEX
  8
BORDER_D0_T132.1_RK1_A0_W0_EM1
 10
1425.44
 20
306.77
 30
18.20
 42
-0.029940
  0
VERTEX
  8
BORDER_D0_T132.1_RK1_A0_W0_EM1
 10
1395.12
 20
318.82
 30
18.20
 42
-0.039878
  0
VERTEX
  8
BORDER_D0_T132.1_RK1_A0_W0_EM1
 10
1370.53
 20
332.77
 30
18.20
 42
-0.056346
  0
VERTEX
  8
BORDER_D0_T132.1_RK1_A0_W0_EM1
 10
1352.42
 20
348.22
 30
18.20
 42
-0.081333
  0
VERTEX
  8
BORDER_D0_T132.1_RK1_A0_W0_EM1
 10
1341.32
 20
364.67
 30
18.20
 42
-0.106579
  0
VERTEX
  8
BORDER_D0_T132.1_RK1_A0_W0_EM1
 10
1337.58
 20
381.64
 30
18.20
 42
-0.106579
  0
VERTEX
  8
BORDER_D0_T132.1_RK1_A0_W0_EM1
 10
1341.32
 20
398.62
 30
18.20
 42
-0.081333
  0
VERTEX
  8
BORDER_D0_T132.1_RK1_A0_W0_EM1
 10
1352.42
 20
415.07
 30
18.20
 42
-0.056346
  0
VERTEX
  8
BORDER_D0_T132.1_RK1_A0_W0_EM1
 10
1370.53
 20
430.52
 30
18.20
 42
-0.039878
  0
VERTEX
  8
BORDER_D0_T132.1_RK1_A0_W0_EM1
 10
1395.12
 20
444.47
 30
18.20
 42
-0.029940
  0
VERTEX
  8
BORDER_D0_T132.1_RK1_A0_W0_EM1
 10
1425.44
 20
456.52
 30
18.20
 42
-0.023968
  0
VERTEX
  8
BORDER_D0_T132.1_RK1_A0_W0_EM1
 10
1460.55
 20
466.29
 30
18.20
 42
-0.020393
  0
VERTEX
  8
BORDER_D0_T132.1_RK1_A0_W0_EM1
 10
1499.41
 20
473.49
 30
18.20
 42
-0.018360
  0
VERTEX
  8
BORDER_D0_T132.1_RK1_A0_W0_EM1
 10
1540.82
 20
477.90
 30
18.20
 42
-0.017435
  0
VERTEX
  8
BORDER_D0_T132.1_RK1_A0_W0_EM1
 10
1583.52
 20
479.39
 30
18.20
 42
-0.017435
  0
VERTEX
  8
BORDER_D0_T132.1_RK1_A0_W0_EM1
 10
1626.23
 20
477.90
 30
18.20
 42
-0.018360
  0
VERTEX
  8
BORDER_D0_T132.1_RK1_A0_W0_EM1
 10
1667.64
 20
473.49
 30
18.20
 42
-0.020393
  0
VERTEX
  8
BORDER_D0_T132.1_RK1_A0_W0_EM1
 10
1706.49
 20
466.29
 30
18.20
 42
-0.023968
  0
VERTEX
  8
BORDER_D0_T132.1_RK1_A0_W0_EM1
 10
1741.61
 20
456.52
 30
18.20
 42
-0.029939
  0
VERTEX
  8
BORDER_D0_T132.1_RK1_A0_W0_EM1
 10
1771.92
 20
444.47
 30
18.20
 42
-0.039878
  0
VERTEX
  8
BORDER_D0_T132.1_RK1_A0_W0_EM1
 10
1796.51
 20
430.52
 30
18.20
 42
-0.056347
  0
VERTEX
  8
BORDER_D0_T132.1_RK1_A0_W0_EM1
 10
1814.63
 20
415.07
 30
18.20
 42
-0.081333
  0
VERTEX
  8
BORDER_D0_T132.1_RK1_A0_W0_EM1
 10
1825.73
 20
398.62
 30
18.20
 42
-0.106579
  0
VERTEX
  8
BORDER_D0_T132.1_RK1_A0_W0_EM1
 10
1829.46
 20
381.64
 30
18.20
  0
SEQEND
  8
BORDER_D0_T132.1_RK1_A0_W0_EM1
  0
POLYLINE
  8
BORDER_D0_T132.1_RK1_A0_W0_EM1
 70
1
 66
1
  0
VERTEX
  8
BORDER_D0_T132.1_RK1_A0_W0_EM1
 10
2020.57
 20
494.10
 30
18.20
  0
VERTEX
  8
BORDER_D0_T132.1_RK1_A0_W0_EM1
 10
2020.57
 20
2040.00
 30
18.20
 42
-0.076786
  0
VERTEX
  8
BORDER_D0_T132.1_RK1_A0_W0_EM1
 10
2095.96
 20
2028.26
 30
18.20
 42
-0.068058
  0
VERTEX
  8
BORDER_D0_T132.1_RK1_A0_W0_EM1
 10
2169.04
 20
1993.39
 30
18.20
 42
-0.056093
  0
VERTEX
  8
BORDER_D0_T132.1_RK1_A0_W0_EM1
 10
2237.62
 20
1936.44
 30
18.20
 42
-0.045362
  0
VERTEX
  8
BORDER_D0_T132.1_RK1_A0_W0_EM1
 10
2299.61
 20
1859.16
 30
18.20
 42
-0.037263
  0
VERTEX
  8
BORDER_D0_T132.1_RK1_A0_W0_EM1
 10
2353.11
 20
1763.89
 30
18.20
 42
-0.031620
  0
VERTEX
  8
BORDER_D0_T132.1_RK1_A0_W0_EM1
 10
2396.52
 20
1653.53
 30
18.20
 42
-0.027905
  0
VERTEX
  8
BORDER_D0_T132.1_RK1_A0_W0_EM1
 10
2428.50
 20
1531.41
 30
18.20
 42
-0.025667
  0
VERTEX
  8
BORDER_D0_T132.1_RK1_A0_W0_EM1
 10
2448.08
 20
1401.27
 30
18.20
 42
-0.024617
  0
VERTEX
  8
BORDER_D0_T132.1_RK1_A0_W0_EM1
 10
2454.67
 20
1267.05
 30
18.20
 42
-0.024617
  0
VERTEX
  8
BORDER_D0_T132.1_RK1_A0_W0_EM1
 10
2448.08
 20
1132.83
 30
18.20
 42
-0.025667
  0
VERTEX
  8
BORDER_D0_T132.1_RK1_A0_W0_EM1
 10
2428.50
 20
1002.69
 30
18.20
 42
-0.027905
  0
VERTEX
  8
BORDER_D0_T132.1_RK1_A0_W0_EM1
 10
2396.52
 20
880.58
 30
18.20
 42
-0.031620
  0
VERTEX
  8
BORDER_D0_T132.1_RK1_A0_W0_EM1
 10
2353.11
 20
770.21
 30
18.20
 42
-0.037263
  0
VERTEX
  8
BORDER_D0_T132.1_RK1_A0_W0_EM1
 10
2299.61
 20
674.94
 30
18.20
 42
-0.045362
  0
VERTEX
  8
BORDER_D0_T132.1_RK1_A0_W0_EM1
 10
2237.62
 20
597.66
 30
18.20
 42
-0.056093
  0
VERTEX
  8
BORDER_D0_T132.1_RK1_A0_W0_EM1
 10
2169.04
 20
540.72
 30
18.20
 42
-0.068058
  0
VERTEX
  8
BORDER_D0_T132.1_RK1_A0_W0_EM1
 10
2095.96
 20
505.84
 30
18.20
 42
-0.076786
  0
VERTEX
  8
BORDER_D0_T132.1_RK1_A0_W0_EM1
 10
2020.57
 20
494.10
 30
18.20
  0
SEQEND
  8
BORDER_D0_T132.1_RK1_A0_W0_EM1
  0
POLYLINE
  8
BORDER_D0_T132.1_RK1_A0_W0_EM1
 70
1
 66
1
  0
VERTEX
  8
BORDER_D0_T132.1_RK1_A0_W0_EM1
 10
2161.72
 20
513.15
 30
18.20
 42
-0.106579
  0
VERTEX
  8
BORDER_D0_T132.1_RK1_A0_W0_EM1
 10
2178.69
 20
509.41
 30
18.20
 42
-0.081333
  0
VERTEX
  8
BORDER_D0_T132.1_RK1_A0_W0_EM1
 10
2195.15
 20
498.31
 30
18.20
 42
-0.056347
  0
VERTEX
  8
BORDER_D0_T132.1_RK1_A0_W0_EM1
 10
2210.59
 20
480.20
 30
18.20
 42
-0.039878
  0
VERTEX
  8
BORDER_D0_T132.1_RK1_A0_W0_EM1
 10
2224.55
 20
455.61
 30
18.20
 42
-0.029940
  0
VERTEX
  8
BORDER_D0_T132.1_RK1_A0_W0_EM1
 10
2236.59
 20
425.29
 30
18.20
 42
-0.023968
  0
VERTEX
  8
BORDER_D0_T132.1_RK1_A0_W0_EM1
 10
2246.36
 20
390.18
 30
18.20
 42
-0.020393
  0
VERTEX
  8
BORDER_D0_T132.1_RK1_A0_W0_EM1
 10
2253.57
 20
351.32
 30
18.20
 42
-0.018360
  0
VERTEX
  8
BORDER_D0_T132.1_RK1_A0_W0_EM1
 10
2257.98
 20
309.91
 30
18.20
 42
-0.017435
  0
VERTEX
  8
BORDER_D0_T132.1_RK1_A0_W0_EM1
 10
2259.46
 20
267.21
 30
18.20
 42
-0.017435
  0
VERTEX
  8
BORDER_D0_T132.1_RK1_A0_W0_EM1
 10
2257.98
 20
224.50
 30
18.20
 42
-0.018360
  0
VERTEX
  8
BORDER_D0_T132.1_RK1_A0_W0_EM1
 10
2253.57
 20
183.09
 30
18.20
 42
-0.020393
  0
VERTEX
  8
BORDER_D0_T132.1_RK1_A0_W0_EM1
 10
2246.36
 20
144.24
 30
18.20
 42
-0.023968
  0
VERTEX
  8
BORDER_D0_T132.1_RK1_A0_W0_EM1
 10
2236.59
 20
109.12
 30
18.20
 42
-0.029940
  0
VERTEX
  8
BORDER_D0_T132.1_RK1_A0_W0_EM1
 10
2224.55
 20
78.81
 30
18.20
 42
-0.039878
  0
VERTEX
  8
BORDER_D0_T132.1_RK1_A0_W0_EM1
 10
2210.59
 20
54.22
 30
18.20
 42
-0.056347
  0
VERTEX
  8
BORDER_D0_T132.1_RK1_A0_W0_EM1
 10
2195.15
 20
36.10
 30
18.20
 42
-0.081333
  0
VERTEX
  8
BORDER_D0_T132.1_RK1_A0_W0_EM1
 10
2178.69
 20
25.00
 30
18.20
 42
-0.106579
  0
VERTEX
  8
BORDER_D0_T132.1_RK1_A0_W0_EM1
 10
2161.72
 20
21.27
 30
18.20
 42
-0.106579
  0
VERTEX
  8
BORDER_D0_T132.1_RK1_A0_W0_EM1
 10
2144.75
 20
25.00
 30
18.20
 42
-0.081333
  0
VERTEX
  8
BORDER_D0_T132.1_RK1_A0_W0_EM1
 10
2128.29
 20
36.10
 30
18.20
 42
-0.056346
  0
VERTEX
  8
BORDER_D0_T132.1_RK1_A0_W0_EM1
 10
2112.85
 20
54.22
 30
18.20
 42
-0.039878
  0
VERTEX
  8
BORDER_D0_T132.1_RK1_A0_W0_EM1
 10
2098.89
 20
78.81
 30
18.20
 42
-0.029940
  0
VERTEX
  8
BORDER_D0_T132.1_RK1_A0_W0_EM1
 10
2086.85
 20
109.12
 30
18.20
 42
-0.023968
  0
VERTEX
  8
BORDER_D0_T132.1_RK1_A0_W0_EM1
 10
2077.07
 20
144.24
 30
18.20
 42
-0.020393
  0
VERTEX
  8
BORDER_D0_T132.1_RK1_A0_W0_EM1
 10
2069.87
 20
183.09
 30
18.20
 42
-0.018360
  0
VERTEX
  8
BORDER_D0_T132.1_RK1_A0_W0_EM1
 10
2065.47
 20
224.50
 30
18.20
 42
-0.017435
  0
VERTEX
  8
BORDER_D0_T132.1_RK1_A0_W0_EM1
 10
2063.98
 20
267.21
 30
18.20
 42
-0.017435
  0
VERTEX
  8
BORDER_D0_T132.1_RK1_A0_W0_EM1
 10
2065.47
 20
309.91
 30
18.20
 42
-0.018360
  0
VERTEX
  8
BORDER_D0_T132.1_RK1_A0_W0_EM1
 10
2069.87
 20
351.32
 30
18.20
 42
-0.020393
  0
VERTEX
  8
BORDER_D0_T132.1_RK1_A0_W0_EM1
 10
2077.07
 20
390.18
 30
18.20
 42
-0.023968
  0
VERTEX
  8
BORDER_D0_T132.1_RK1_A0_W0_EM1
 10
2086.85
 20
425.29
 30
18.20
 42
-0.029940
  0
VERTEX
  8
BORDER_D0_T132.1_RK1_A0_W0_EM1
 10
2098.89
 20
455.61
 30
18.20
 42
-0.039878
  0
VERTEX
  8
BORDER_D0_T132.1_RK1_A0_W0_EM1
 10
2112.85
 20
480.20
 30
18.20
 42
-0.056346
  0
VERTEX
  8
BORDER_D0_T132.1_RK1_A0_W0_EM1
 10
2128.29
 20
498.31
 30
18.20
 42
-0.081333
  0
VERTEX
  8
BORDER_D0_T132.1_RK1_A0_W0_EM1
 10
2144.75
 20
509.41
 30
18.20
 42
-0.106579
  0
VERTEX
  8
BORDER_D0_T132.1_RK1_A0_W0_EM1
 10
2161.72
 20
513.15
 30
18.20
  0
SEQEND
  8
BORDER_D0_T132.1_RK1_A0_W0_EM1
  0
POLYLINE
  8
BORDER_D0_T132.1_RK1_A0_W0_EM1
 70
1
 66
1
  0
VERTEX
  8
BORDER_D0_T132.1_RK1_A0_W0_EM1
 10
1899.09
 20
652.74
 30
18.20
  0
VERTEX
  8
BORDER_D0_T132.1_RK1_A0_W0_EM1
 10
1921.03
 20
622.54
 30
18.20
  0
VERTEX
  8
BORDER_D0_T132.1_RK1_A0_W0_EM1
 10
1956.54
 20
634.07
 30
18.20
  0
VERTEX
  8
BORDER_D0_T132.1_RK1_A0_W0_EM1
 10
1956.54
 20
596.74
 30
18.20
  0
VERTEX
  8
BORDER_D0_T132.1_RK1_A0_W0_EM1
 10
1992.04
 20
585.20
 30
18.20
  0
VERTEX
  8
BORDER_D0_T132.1_RK1_A0_W0_EM1
 10
1970.10
 20
555.00
 30
18.20
  0
VERTEX
  8
BORDER_D0_T132.1_RK1_A0_W0_EM1
 10
1992.04
 20
524.80
 30
18.20
  0
VERTEX
  8
BORDER_D0_T132.1_RK1_A0_W0_EM1
 10
1956.54
 20
513.26
 30
18.20
  0
VERTEX
  8
BORDER_D0_T132.1_RK1_A0_W0_EM1
 10
1956.54
 20
475.93
 30
18.20
  0
VERTEX
  8
BORDER_D0_T132.1_RK1_A0_W0_EM1
 10
1921.03
 20
487.46
 30
18.20
  0
VERTEX
  8
BORDER_D0_T132.1_RK1_A0_W0_EM1
 10
1899.09
 20
457.26
 30
18.20
  0
VERTEX
  8
BORDER_D0_T132.1_RK1_A0_W0_EM1
 10
1877.14
 20
487.46
 30
18.20
  0
VERTEX
  8
BORDER_D0_T132.1_RK1_A0_W0_EM1
 10
1841.64
 20
475.93
 30
18.20
  0
VERTEX
  8
BORDER_D0_T132.1_RK1_A0_W0_EM1
 10
1841.64
 20
513.26
 30
18.20
  0
VERTEX
  8
BORDER_D0_T132.1_RK1_A0_W0_EM1
 10
1806.13
 20
524.80
 30
18.20
  0
VERTEX
  8
BORDER_D0_T132.1_RK1_A0_W0_EM1
 10
1828.07
 20
555.00
 30
18.20
  0
VERTEX
  8
BORDER_D0_T132.1_RK1_A0_W0_EM1
 10
1806.13
 20
585.20
 30
18.20
  0
VERTEX
  8
BORDER_D0_T132.1_RK1_A0_W0_EM1
 10
1841.64
 20
596.74
 30
18.20
  0
VERTEX
  8
BORDER_D0_T132.1_RK1_A0_W0_EM1
 10
1841.64
 20
634.07
 30
18.20
  0
VERTEX
  8
BORDER_D0_T132.1_RK1_A0_W0_EM1
 10
1877.14
 20
622.54
 30
18.20
  0
VERTEX
  8
BORDER_D0_T132.1_RK1_A0_W0_EM1
 10
1899.09
 20
652.74
 30
18.20
  0
SEQEND
  8
BORDER_D0_T132.1_RK1_A0_W0_EM1
  0
POLYLINE
  8
BORDER_D0_T132.1_RK1_A0_W0_EM1
 70
1
 66
1
  0
VERTEX
  8
BORDER_D0_T132.1_RK1_A0_W0_EM1
 10
1571.77
 20
494.10
 30
18.20
  0
VERTEX
  8
BORDER_D0_T132.1_RK1_A0_W0_EM1
 10
1571.77
 20
2040.00
 30
18.20
 42
-0.076786
  0
VERTEX
  8
BORDER_D0_T132.1_RK1_A0_W0_EM1
 10
1647.16
 20
2028.26
 30
18.20
 42
-0.068058
  0
VERTEX
  8
BORDER_D0_T132.1_RK1_A0_W0_EM1
 10
1720.24
 20
1993.39
 30
18.20
 42
-0.056093
  0
VERTEX
  8
BORDER_D0_T132.1_RK1_A0_W0_EM1
 10
1788.82
 20
1936.44
 30
18.20
 42
-0.045362
  0
VERTEX
  8
BORDER_D0_T132.1_RK1_A0_W0_EM1
 10
1850.81
 20
1859.16
 30
18.20
 42
-0.037263
  0
VERTEX
  8
BORDER_D0_T132.1_RK1_A0_W0_EM1
 10
1904.31
 20
1763.89
 30
18.20
 42
-0.031620
  0
VERTEX
  8
BORDER_D0_T132.1_RK1_A0_W0_EM1
 10
1947.72
 20
1653.53
 30
18.20
 42
-0.027905
  0
VERTEX
  8
BORDER_D0_T132.1_RK1_A0_W0_EM1
 10
1979.69
 20
1531.41
 30
18.20
 42
-0.025667
  0
VERTEX
  8
BORDER_D0_T132.1_RK1_A0_W0_EM1
 10
1999.28
 20
1401.27
 30
18.20
 42
-0.024617
  0
VERTEX
  8
BORDER_D0_T132.1_RK1_A0_W0_EM1
 10
2005.87
 20
1267.05
 30
18.20
 42
-0.024617
  0
VERTEX
  8
BORDER_D0_T132.1_RK1_A0_W0_EM1
 10
1999.28
 20
1132.83
 30
18.20
 42
-0.025667
  0
VERTEX
  8
BORDER_D0_T132.1_RK1_A0_W0_EM1
 10
1979.69
 20
1002.69
 30
18.20
 42
-0.027905
  0
VERTEX
  8
BORDER_D0_T132.1_RK1_A0_W0_EM1
 10
1947.72
 20
880.58
 30
18.20
 42
-0.031620
  0
VERTEX
  8
BORDER_D0_T132.1_RK1_A0_W0_EM1
 10
1904.31
 20
770.21
 30
18.20
 42
-0.037263
  0
VERTEX
  8
BORDER_D0_T132.1_RK1_A0_W0_EM1
 10
1850.81
 20
674.94
 30
18.20
 42
-0.045362
  0
VERTEX
  8
BORDER_D0_T132.1_RK1_A0_W0_EM1
 10
1788.82
 20
597.66
 30
18.20
 42
-0.056093
  0
VERTEX
  8
BORDER_D0_T132.1_RK1_A0_W0_EM1
 10
1720.24
 20
540.72
 30
18.20
 42
-0.068058
  0
VERTEX
  8
BORDER_D0_T132.1_RK1_A0_W0_EM1
 10
1647.16
 20
505.84
 30
18.20
 42
-0.076786
  0
VERTEX
  8
BORDER_D0_T132.1_RK1_A0_W0_EM1
 10
1571.77
 20
494.10
 30
18.20
  0
SEQEND
  8
BORDER_D0_T132.1_RK1_A0_W0_EM1
  0
POLYLINE
  8
BORDER_D0_T132.1_RK1_A0_W0_EM1
 70
1
 66
1
  0
VERTEX
  8
BORDER_D0_T132.1_RK1_A0_W0_EM1
 10
1556.51
 20
32.60
 30
18.20
  0
VERTEX
  8
BORDER_D0_T132.1_RK1_A0_W0_EM1
 10
10.61
 20
32.60
 30
18.20
 42
-0.076786
  0
VERTEX
  8
BORDER_D0_T132.1_RK1_A0_W0_EM1
 10
22.35
 20
107.98
 30
18.20
 42
-0.068058
  0
VERTEX
  8
BORDER_D0_T132.1_RK1_A0_W0_EM1
 10
57.22
 20
181.07
 30
18.20
 42
-0.056093
  0
VERTEX
  8
BORDER_D0_T132.1_RK1_A0_W0_EM1
 10
114.17
 20
249.65
 30
18.20
 42
-0.045362
  0
VERTEX
  8
BORDER_D0_T132.1_RK1_A0_W0_EM1
 10
191.45
 20
311.63
 30
18.20
 42
-0.037263
  0
VERTEX
  8
BORDER_D0_T132.1_RK1_A0_W0_EM1
 10
286.72
 20
365.14
 30
18.20
 42
-0.031620
  0
VERTEX
  8
BORDER_D0_T132.1_RK1_A0_W0_EM1
 10
397.08
 20
408.54
 30
18.20
 42
-0.027905
  0
VERTEX
  8
BORDER_D0_T132.1_RK1_A0_W0_EM1
 10
519.20
 20
440.52
 30
18.20
 42
-0.025667
  0
VERTEX
  8
BORDER_D0_T132.1_RK1_A0_W0_EM1
 10
649.34
 20
460.10
 30
18.20
 42
-0.024617
  0
VERTEX
  8
BORDER_D0_T132.1_RK1_A0_W0_EM1
 10
783.56
 20
466.70
 30
18.20
 42
-0.024617
  0
VERTEX
  8
BORDER_D0_T132.1_RK1_A0_W0_EM1
 10
917.78
 20
460.10
 30
18.20
 42
-0.025667
  0
VERTEX
  8
BORDER_D0_T132.1_RK1_A0_W0_EM1
 10
1047.92
 20
440.52
 30
18.20
 42
-0.027905
  0
VERTEX
  8
BORDER_D0_T132.1_RK1_A0_W0_EM1
 10
1170.04
 20
408.54
 30
18.20
 42
-0.031620
  0
VERTEX
  8
BORDER_D0_T132.1_RK1_A0_W0_EM1
 10
1280.40
 20
365.14
 30
18.20
 42
-0.037263
  0
VERTEX
  8
BORDER_D0_T132.1_RK1_A0_W0_EM1
 10
1375.67
 20
311.63
 30
18.20
 42
-0.045362
  0
VERTEX
  8
BORDER_D0_T132.1_RK1_A0_W0_EM1
 10
1452.95
 20
249.65
 30
18.20
 42
-0.056093
  0
VERTEX
  8
BORDER_D0_T132.1_RK1_A0_W0_EM1
 10
1509.90
 20
181.07
 30
18.20
 42
-0.068058
  0
VERTEX
  8
BORDER_D0_T132.1_RK1_A0_W0_EM1
 10
1544.77
 20
107.98
 30
18.20
 42
-0.076786
  0
VERTEX
  8
BORDER_D0_T132.1_RK1_A0_W0_EM1
 10
1556.51
 20
32.60
 30
18.20
  0
SEQEND
  8
BORDER_D0_T132.1_RK1_A0_W0_EM1
  0
ENDSEC
  0
EOF
