  0
SECTION
  2
HEADER
  9
$LTSCALE
 40
41.00
  9
$LIMMIN
 10
-41.00
 20
-61.50
  9
$LIMMAX
 10
2841.00
 20
2193.50
  9
$EXTMIN
 10
-41.00
 20
-61.50
  9
$EXTMAX
 10
2841.00
 20
2193.50
  9
$TEXTSTYLE
  7
txt
  9
$CLAYER
  8
1
  9
$CECOLOR
 62
7
  9
$CELTYPE
  6
CONTINUOUS
  9
$OSMODE
 70
0
  0
ENDSEC
  0
SECTION
  2
TABLES
  0
TABLE
  2
STYLE
 70
1
  0
STYLE
  2
STANDARD
 70
0
 40
1.00
 41
1.00
 50
0.00
 71
0
 42
0.20
  3
txt
  4

  0
ENDTAB
  0
TABLE
  2
LTYPE
 70
1
  0
LTYPE
  2
HIDDEN
 70
64
  3
_ _ _ _ _ _ _ _ _ _ _ _ _ _ _ _ _ _ _ _ _ _
 72
65
 73
2
 40
0.50
 49
0.25
 49
-0.25
  0
ENDTAB
  0
ENDSEC
  0
SECTION
  2
ENTITIES
  0
LINE
  6
CONTINUOUS
  8
FRAME_Z18
 10
0.00
 20
0.00
 30
0.00
 11
2800.00
 21
0.00
 31
0.00
  0
LINE
  6
CONTINUOUS
  8
FRAME_Z18
 10
0.00
 20
2050.00
 30
0.00
 11
2800.00
 21
2050.00
 31
0.00
  0
LINE
  6
CONTINUOUS
  8
FRAME_Z18
 10
0.00
 20
0.00
 30
0.00
 11
0.00
 21
2050.00
 31
0.00
  0
LINE
  6
CONTINUOUS
  8
FRAME_Z18
 10
2800.00
 20
0.00
 30
0.00
 11
2800.00
 21
2050.00
 31
0.00
  0
TEXT
  8
TEXT
 10
672.33
 20
363.44
 30
18.00
 40
41.00
  1

  0
TEXT
  8
TEXT
 10
656.33
 20
351.44
 30
18.00
 40
41.00
  1
A
  0
TEXT
  8
TEXT
 10
817.33
 20
535.44
 30
18.00
 40
41.00
  1
B
  0
TEXT
  8
TEXT
 10
603.33
 20
581.44
 30
18.00
 40
41.00
  1
C
  0
TEXT
  8
TEXT
 10
242.83
 20
901.94
 30
18.00
 40
41.00
  1

  0
TEXT
  8
TEXT
 10
258.83
 20
913.94
 30
18.00
 40
41.00
  1
A
  0
TEXT
  8
TEXT
 10
97.83
 20
729.94
 30
18.00
 40
41.00
  1
B
  0
TEXT
  8
TEXT
 10
311.83
 20
683.94
 30
18.00
 40
41.00
  1
C
  0
TEXT
  8
TEXT
 10
1142.38
 20
926.94
 30
18.00
 40
41.00
  1

  0
TEXT
  8
TEXT
 10
1158.38
 20
938.94
 30
18.00
 40
41.00
  1
A
  0
TEXT
  8
TEXT
 10
997.38
 20
754.94
 30
18.00
 40
41.00
  1
B
  0
TEXT
  8
TEXT
 10
1211.38
 20
708.94
 30
18.00
 40
41.00
  1
C
  0
TEXT
  8
TEXT
 10
2501.65
 20
184.20
 30
18.00
 40
41.00
  1

  0
TEXT
  8
TEXT
 10
2485.65
 20
172.20
 30
18.00
 40
41.00
  1
A
  0
TEXT
  8
TEXT
 10
2646.65
 20
356.20
 30
18.00
 40
41.00
  1
B
  0
TEXT
  8
TEXT
 10
2432.65
 20
402.20
 30
18.00
 40
41.00
  1
C
  0
TEXT
  8
TEXT
 10
2352.44
 20
862.92
 30
18.00
 40
41.00
  1

  0
TEXT
  8
TEXT
 10
2364.44
 20
846.92
 30
18.00
 40
41.00
  1
A
  0
TEXT
  8
TEXT
 10
2180.44
 20
1007.92
 30
18.00
 40
41.00
  1
B
  0
TEXT
  8
TEXT
 10
2134.44
 20
793.92
 30
18.00
 40
41.00
  1
C
  0
TEXT
  8
TEXT
 10
3148.22
 20
1695.11
 30
18.00
 40
41.00
  1

  0
TEXT
  8
TEXT
 10
3132.22
 20
1683.11
 30
18.00
 40
41.00
  1
A
  0
TEXT
  8
TEXT
 10
3293.22
 20
1867.11
 30
18.00
 40
41.00
  1
B
  0
TEXT
  8
TEXT
 10
3079.22
 20
1913.11
 30
18.00
 40
41.00
  1
C
  0
TEXT
  8
TEXT
 10
1615.88
 20
1377.67
 30
18.00
 40
41.00
  1

  0
TEXT
  8
TEXT
 10
1603.88
 20
1393.67
 30
18.00
 40
41.00
  1
A
  0
TEXT
  8
TEXT
 10
1787.88
 20
1232.67
 30
18.00
 40
41.00
  1
B
  0
TEXT
  8
TEXT
 10
1833.88
 20
1446.67
 30
18.00
 40
41.00
  1
C
  0
TEXT
  8
TEXT
 10
1999.80
 20
2401.51
 30
18.00
 40
41.00
  1

  0
TEXT
  8
TEXT
 10
2011.80
 20
2385.51
 30
18.00
 40
41.00
  1
A
  0
TEXT
  8
TEXT
 10
1827.80
 20
2546.51
 30
18.00
 40
41.00
  1
B
  0
TEXT
  8
TEXT
 10
1781.80
 20
2332.51
 30
18.00
 40
41.00
  1
C
  0
TEXT
  8
TEXT
 10
1414.49
 20
1377.67
 30
18.00
 40
41.00
  1

  0
TEXT
  8
TEXT
 10
1402.49
 20
1393.67
 30
18.00
 40
41.00
  1
A
  0
TEXT
  8
TEXT
 10
1586.49
 20
1232.67
 30
18.00
 40
41.00
  1
B
  0
TEXT
  8
TEXT
 10
1632.49
 20
1446.67
 30
18.00
 40
41.00
  1
C
  0
TEXT
  8
TEXT
 10
322.75
 20
2106.36
 30
18.00
 40
41.00
  1

  0
TEXT
  8
TEXT
 10
338.75
 20
2118.36
 30
18.00
 40
41.00
  1
A
  0
TEXT
  8
TEXT
 10
177.75
 20
1934.36
 30
18.00
 40
41.00
  1
B
  0
TEXT
  8
TEXT
 10
391.75
 20
1888.36
 30
18.00
 40
41.00
  1
C
  0
TEXT
  8
TEXT
 10
195.22
 20
2198.98
 30
18.00
 40
41.00
  1

  0
TEXT
  8
TEXT
 10
211.22
 20
2210.98
 30
18.00
 40
41.00
  1
A
  0
TEXT
  8
TEXT
 10
50.22
 20
2026.98
 30
18.00
 40
41.00
  1
B
  0
TEXT
  8
TEXT
 10
264.22
 20
1980.98
 30
18.00
 40
41.00
  1
C
  0
TEXT
  8
TEXT
 10
672.33
 20
1695.11
 30
18.00
 40
41.00
  1

  0
TEXT
  8
TEXT
 10
656.33
 20
1683.11
 30
18.00
 40
41.00
  1
A
  0
TEXT
  8
TEXT
 10
817.33
 20
1867.11
 30
18.00
 40
41.00
  1
B
  0
TEXT
  8
TEXT
 10
603.33
 20
1913.11
 30
18.00
 40
41.00
  1
C
  0
POLYLINE
  8
BORDER_D0_T132_RK1_A0_W0_EM1_RI1_ID0013
 70
1
 66
1
  0
VERTEX
  8
BORDER_D0_T132_RK1_A0_W0_EM1_RI1_ID0013
 10
205.48
 20
447.57
 30
16.50
  0
VERTEX
  8
BORDER_D0_T132_RK1_A0_W0_EM1_RI1_ID0013
 10
205.48
 20
422.99
 30
16.50
 42
-0.333267
  0
VERTEX
  8
BORDER_D0_T132_RK1_A0_W0_EM1_RI1_ID0013
 10
10.00
 20
422.99
 30
16.50
  0
VERTEX
  8
BORDER_D0_T132_RK1_A0_W0_EM1_RI1_ID0013
 10
10.00
 20
472.15
 30
16.50
 42
0.469338
  0
VERTEX
  8
BORDER_D0_T132_RK1_A0_W0_EM1_RI1_ID0013
 10
205.48
 20
472.15
 30
16.50
  0
VERTEX
  8
BORDER_D0_T132_RK1_A0_W0_EM1_RI1_ID0013
 10
205.48
 20
447.57
 30
16.50
  0
SEQEND
  8
BORDER_D0_T132_RK1_A0_W0_EM1_RI1_ID0013
  0
POLYLINE
  8
BORDER_D0_T132_RK1_A0_W0_EM1_RI1_ID0013
 70
1
 66
1
  0
VERTEX
  8
BORDER_D0_T132_RK1_A0_W0_EM1_RI1_ID0013
 10
205.48
 20
516.40
 30
16.50
  0
VERTEX
  8
BORDER_D0_T132_RK1_A0_W0_EM1_RI1_ID0013
 10
205.48
 20
491.82
 30
16.50
 42
-0.333267
  0
VERTEX
  8
BORDER_D0_T132_RK1_A0_W0_EM1_RI1_ID0013
 10
10.00
 20
491.82
 30
16.50
  0
VERTEX
  8
BORDER_D0_T132_RK1_A0_W0_EM1_RI1_ID0013
 10
10.00
 20
540.98
 30
16.50
 42
0.469337
  0
VERTEX
  8
BORDER_D0_T132_RK1_A0_W0_EM1_RI1_ID0013
 10
205.48
 20
540.98
 30
16.50
  0
VERTEX
  8
BORDER_D0_T132_RK1_A0_W0_EM1_RI1_ID0013
 10
205.48
 20
516.40
 30
16.50
  0
SEQEND
  8
BORDER_D0_T132_RK1_A0_W0_EM1_RI1_ID0013
  0
POLYLINE
  8
BORDER_D0_T132_RK1_A0_W0_EM1_RI1_ID0007
 70
1
 66
1
  0
VERTEX
  8
BORDER_D0_T132_RK1_A0_W0_EM1_RI1_ID0007
 10
186.81
 20
615.38
 30
16.50
  0
VERTEX
  8
BORDER_D0_T132_RK1_A0_W0_EM1_RI1_ID0007
 10
119.28
 20
593.43
 30
16.50
  0
VERTEX
  8
BORDER_D0_T132_RK1_A0_W0_EM1_RI1_ID0007
 10
119.28
 20
522.42
 30
16.50
  0
VERTEX
  8
BORDER_D0_T132_RK1_A0_W0_EM1_RI1_ID0007
 10
77.54
 20
579.87
 30
16.50
  0
VERTEX
  8
BORDER_D0_T132_RK1_A0_W0_EM1_RI1_ID0007
 10
10.00
 20
557.93
 30
16.50
  0
VERTEX
  8
BORDER_D0_T132_RK1_A0_W0_EM1_RI1_ID0007
 10
51.74
 20
615.38
 30
16.50
  0
VERTEX
  8
BORDER_D0_T132_RK1_A0_W0_EM1_RI1_ID0007
 10
10.00
 20
672.83
 30
16.50
  0
VERTEX
  8
BORDER_D0_T132_RK1_A0_W0_EM1_RI1_ID0007
 10
77.54
 20
650.88
 30
16.50
  0
VERTEX
  8
BORDER_D0_T132_RK1_A0_W0_EM1_RI1_ID0007
 10
119.28
 20
708.33
 30
16.50
  0
VERTEX
  8
BORDER_D0_T132_RK1_A0_W0_EM1_RI1_ID0007
 10
119.28
 20
637.32
 30
16.50
  0
VERTEX
  8
BORDER_D0_T132_RK1_A0_W0_EM1_RI1_ID0007
 10
186.81
 20
615.38
 30
16.50
  0
SEQEND
  8
BORDER_D0_T132_RK1_A0_W0_EM1_RI1_ID0007
  0
POLYLINE
  8
BORDER_D0_T132_RK1_A0_W0_EM1_RI1_ID0007
 70
1
 66
1
  0
VERTEX
  8
BORDER_D0_T132_RK1_A0_W0_EM1_RI1_ID0007
 10
728.35
 20
650.00
 30
16.50
  0
VERTEX
  8
BORDER_D0_T132_RK1_A0_W0_EM1_RI1_ID0007
 10
795.88
 20
671.95
 30
16.50
  0
VERTEX
  8
BORDER_D0_T132_RK1_A0_W0_EM1_RI1_ID0007
 10
795.88
 20
742.96
 30
16.50
  0
VERTEX
  8
BORDER_D0_T132_RK1_A0_W0_EM1_RI1_ID0007
 10
837.62
 20
685.51
 30
16.50
  0
VERTEX
  8
BORDER_D0_T132_RK1_A0_W0_EM1_RI1_ID0007
 10
905.16
 20
707.45
 30
16.50
  0
VERTEX
  8
BORDER_D0_T132_RK1_A0_W0_EM1_RI1_ID0007
 10
863.42
 20
650.00
 30
16.50
  0
VERTEX
  8
BORDER_D0_T132_RK1_A0_W0_EM1_RI1_ID0007
 10
905.16
 20
592.55
 30
16.50
  0
VERTEX
  8
BORDER_D0_T132_RK1_A0_W0_EM1_RI1_ID0007
 10
837.62
 20
614.50
 30
16.50
  0
VERTEX
  8
BORDER_D0_T132_RK1_A0_W0_EM1_RI1_ID0007
 10
795.88
 20
557.05
 30
16.50
  0
VERTEX
  8
BORDER_D0_T132_RK1_A0_W0_EM1_RI1_ID0007
 10
795.88
 20
628.06
 30
16.50
  0
VERTEX
  8
BORDER_D0_T132_RK1_A0_W0_EM1_RI1_ID0007
 10
728.35
 20
650.00
 30
16.50
  0
SEQEND
  8
BORDER_D0_T132_RK1_A0_W0_EM1_RI1_ID0007
  0
POLYLINE
  8
BORDER_D0_T132_RK1_A0_W0_EM1_RI1_ID0013
 70
1
 66
1
  0
VERTEX
  8
BORDER_D0_T132_RK1_A0_W0_EM1_RI1_ID0013
 10
924.40
 20
752.54
 30
16.50
  0
VERTEX
  8
BORDER_D0_T132_RK1_A0_W0_EM1_RI1_ID0013
 10
948.98
 20
752.54
 30
16.50
 42
-0.333267
  0
VERTEX
  8
BORDER_D0_T132_RK1_A0_W0_EM1_RI1_ID0013
 10
948.98
 20
557.06
 30
16.50
  0
VERTEX
  8
BORDER_D0_T132_RK1_A0_W0_EM1_RI1_ID0013
 10
899.82
 20
557.06
 30
16.50
 42
0.469337
  0
VERTEX
  8
BORDER_D0_T132_RK1_A0_W0_EM1_RI1_ID0013
 10
899.82
 20
752.54
 30
16.50
  0
VERTEX
  8
BORDER_D0_T132_RK1_A0_W0_EM1_RI1_ID0013
 10
924.40
 20
752.54
 30
16.50
  0
SEQEND
  8
BORDER_D0_T132_RK1_A0_W0_EM1_RI1_ID0013
  0
POLYLINE
  8
BORDER_D0_T132_RK1_A0_W0_EM1_RI1_ID0007
 70
1
 66
1
  0
VERTEX
  8
BORDER_D0_T132_RK1_A0_W0_EM1_RI1_ID0007
 10
1627.90
 20
675.00
 30
16.50
  0
VERTEX
  8
BORDER_D0_T132_RK1_A0_W0_EM1_RI1_ID0007
 10
1695.43
 20
696.95
 30
16.50
  0
VERTEX
  8
BORDER_D0_T132_RK1_A0_W0_EM1_RI1_ID0007
 10
1695.43
 20
767.96
 30
16.50
  0
VERTEX
  8
BORDER_D0_T132_RK1_A0_W0_EM1_RI1_ID0007
 10
1737.17
 20
710.51
 30
16.50
  0
VERTEX
  8
BORDER_D0_T132_RK1_A0_W0_EM1_RI1_ID0007
 10
1804.71
 20
732.45
 30
16.50
  0
VERTEX
  8
BORDER_D0_T132_RK1_A0_W0_EM1_RI1_ID0007
 10
1762.97
 20
675.00
 30
16.50
  0
VERTEX
  8
BORDER_D0_T132_RK1_A0_W0_EM1_RI1_ID0007
 10
1804.71
 20
617.55
 30
16.50
  0
VERTEX
  8
BORDER_D0_T132_RK1_A0_W0_EM1_RI1_ID0007
 10
1737.17
 20
639.50
 30
16.50
  0
VERTEX
  8
BORDER_D0_T132_RK1_A0_W0_EM1_RI1_ID0007
 10
1695.43
 20
582.05
 30
16.50
  0
VERTEX
  8
BORDER_D0_T132_RK1_A0_W0_EM1_RI1_ID0007
 10
1695.43
 20
653.06
 30
16.50
  0
VERTEX
  8
BORDER_D0_T132_RK1_A0_W0_EM1_RI1_ID0007
 10
1627.90
 20
675.00
 30
16.50
  0
SEQEND
  8
BORDER_D0_T132_RK1_A0_W0_EM1_RI1_ID0007
  0
POLYLINE
  8
BORDER_D0_T132_RK1_A0_W0_EM1_RI1_ID0013
 70
1
 66
1
  0
VERTEX
  8
BORDER_D0_T132_RK1_A0_W0_EM1_RI1_ID0013
 10
1936.36
 20
590.96
 30
16.50
  0
VERTEX
  8
BORDER_D0_T132_RK1_A0_W0_EM1_RI1_ID0013
 10
1936.36
 20
566.38
 30
16.50
 42
-0.333267
  0
VERTEX
  8
BORDER_D0_T132_RK1_A0_W0_EM1_RI1_ID0013
 10
1740.88
 20
566.38
 30
16.50
  0
VERTEX
  8
BORDER_D0_T132_RK1_A0_W0_EM1_RI1_ID0013
 10
1740.88
 20
615.54
 30
16.50
 42
0.469337
  0
VERTEX
  8
BORDER_D0_T132_RK1_A0_W0_EM1_RI1_ID0013
 10
1936.36
 20
615.54
 30
16.50
  0
VERTEX
  8
BORDER_D0_T132_RK1_A0_W0_EM1_RI1_ID0013
 10
1936.36
 20
590.96
 30
16.50
  0
SEQEND
  8
BORDER_D0_T132_RK1_A0_W0_EM1_RI1_ID0013
  0
POLYLINE
  8
BORDER_D0_T132_RK1_A0_W0_EM1_RI1_ID0007
 70
1
 66
1
  0
VERTEX
  8
BORDER_D0_T132_RK1_A0_W0_EM1_RI1_ID0007
 10
2016.13
 20
436.14
 30
16.50
  0
VERTEX
  8
BORDER_D0_T132_RK1_A0_W0_EM1_RI1_ID0007
 10
1948.60
 20
414.19
 30
16.50
  0
VERTEX
  8
BORDER_D0_T132_RK1_A0_W0_EM1_RI1_ID0007
 10
1948.60
 20
343.18
 30
16.50
  0
VERTEX
  8
BORDER_D0_T132_RK1_A0_W0_EM1_RI1_ID0007
 10
1906.86
 20
400.63
 30
16.50
  0
VERTEX
  8
BORDER_D0_T132_RK1_A0_W0_EM1_RI1_ID0007
 10
1839.32
 20
378.69
 30
16.50
  0
VERTEX
  8
BORDER_D0_T132_RK1_A0_W0_EM1_RI1_ID0007
 10
1881.06
 20
436.14
 30
16.50
  0
VERTEX
  8
BORDER_D0_T132_RK1_A0_W0_EM1_RI1_ID0007
 10
1839.32
 20
493.59
 30
16.50
  0
VERTEX
  8
BORDER_D0_T132_RK1_A0_W0_EM1_RI1_ID0007
 10
1906.86
 20
471.64
 30
16.50
  0
VERTEX
  8
BORDER_D0_T132_RK1_A0_W0_EM1_RI1_ID0007
 10
1948.60
 20
529.09
 30
16.50
  0
VERTEX
  8
BORDER_D0_T132_RK1_A0_W0_EM1_RI1_ID0007
 10
1948.60
 20
458.08
 30
16.50
  0
VERTEX
  8
BORDER_D0_T132_RK1_A0_W0_EM1_RI1_ID0007
 10
2016.13
 20
436.14
 30
16.50
  0
SEQEND
  8
BORDER_D0_T132_RK1_A0_W0_EM1_RI1_ID0007
  0
POLYLINE
  8
BORDER_D0_T132_RK1_A0_W0_EM1_RI1_ID0007
 70
1
 66
1
  0
VERTEX
  8
BORDER_D0_T132_RK1_A0_W0_EM1_RI1_ID0007
 10
2100.50
 20
377.40
 30
16.50
  0
VERTEX
  8
BORDER_D0_T132_RK1_A0_W0_EM1_RI1_ID0007
 10
2122.45
 20
309.87
 30
16.50
  0
VERTEX
  8
BORDER_D0_T132_RK1_A0_W0_EM1_RI1_ID0007
 10
2193.46
 20
309.87
 30
16.50
  0
VERTEX
  8
BORDER_D0_T132_RK1_A0_W0_EM1_RI1_ID0007
 10
2136.01
 20
268.13
 30
16.50
  0
VERTEX
  8
BORDER_D0_T132_RK1_A0_W0_EM1_RI1_ID0007
 10
2157.95
 20
200.59
 30
16.50
  0
VERTEX
  8
BORDER_D0_T132_RK1_A0_W0_EM1_RI1_ID0007
 10
2100.50
 20
242.33
 30
16.50
  0
VERTEX
  8
BORDER_D0_T132_RK1_A0_W0_EM1_RI1_ID0007
 10
2043.05
 20
200.59
 30
16.50
  0
VERTEX
  8
BORDER_D0_T132_RK1_A0_W0_EM1_RI1_ID0007
 10
2065.00
 20
268.13
 30
16.50
  0
VERTEX
  8
BORDER_D0_T132_RK1_A0_W0_EM1_RI1_ID0007
 10
2007.55
 20
309.87
 30
16.50
  0
VERTEX
  8
BORDER_D0_T132_RK1_A0_W0_EM1_RI1_ID0007
 10
2078.56
 20
309.87
 30
16.50
  0
VERTEX
  8
BORDER_D0_T132_RK1_A0_W0_EM1_RI1_ID0007
 10
2100.50
 20
377.40
 30
16.50
  0
SEQEND
  8
BORDER_D0_T132_RK1_A0_W0_EM1_RI1_ID0007
  0
POLYLINE
  8
BORDER_D0_T132_RK1_A0_W0_EM1_RI1_ID0018
 70
1
 66
1
  0
VERTEX
  8
BORDER_D0_T132_RK1_A0_W0_EM1_RI1_ID0018
 10
2036.55
 20
234.84
 30
16.50
 42
-0.106572
  0
VERTEX
  8
BORDER_D0_T132_RK1_A0_W0_EM1_RI1_ID0018
 10
2032.81
 20
217.87
 30
16.50
 42
-0.081330
  0
VERTEX
  8
BORDER_D0_T132_RK1_A0_W0_EM1_RI1_ID0018
 10
2021.72
 20
201.41
 30
16.50
 42
-0.056348
  0
VERTEX
  8
BORDER_D0_T132_RK1_A0_W0_EM1_RI1_ID0018
 10
2003.60
 20
185.97
 30
16.50
 42
-0.039882
  0
VERTEX
  8
BORDER_D0_T132_RK1_A0_W0_EM1_RI1_ID0018
 10
1979.01
 20
172.01
 30
16.50
 42
-0.029934
  0
VERTEX
  8
BORDER_D0_T132_RK1_A0_W0_EM1_RI1_ID0018
 10
1948.70
 20
159.97
 30
16.50
 42
-0.023970
  0
VERTEX
  8
BORDER_D0_T132_RK1_A0_W0_EM1_RI1_ID0018
 10
1913.58
 20
150.20
 30
16.50
 42
-0.020392
  0
VERTEX
  8
BORDER_D0_T132_RK1_A0_W0_EM1_RI1_ID0018
 10
1874.73
 20
142.99
 30
16.50
 42
-0.018360
  0
VERTEX
  8
BORDER_D0_T132_RK1_A0_W0_EM1_RI1_ID0018
 10
1833.32
 20
138.59
 30
16.50
 42
-0.017436
  0
VERTEX
  8
BORDER_D0_T132_RK1_A0_W0_EM1_RI1_ID0018
 10
1790.61
 20
137.10
 30
16.50
 42
-0.017436
  0
VERTEX
  8
BORDER_D0_T132_RK1_A0_W0_EM1_RI1_ID0018
 10
1747.90
 20
138.59
 30
16.50
 42
-0.018360
  0
VERTEX
  8
BORDER_D0_T132_RK1_A0_W0_EM1_RI1_ID0018
 10
1706.49
 20
142.99
 30
16.50
 42
-0.020392
  0
VERTEX
  8
BORDER_D0_T132_RK1_A0_W0_EM1_RI1_ID0018
 10
1667.64
 20
150.20
 30
16.50
 42
-0.023970
  0
VERTEX
  8
BORDER_D0_T132_RK1_A0_W0_EM1_RI1_ID0018
 10
1632.52
 20
159.97
 30
16.50
 42
-0.029934
  0
VERTEX
  8
BORDER_D0_T132_RK1_A0_W0_EM1_RI1_ID0018
 10
1602.21
 20
172.01
 30
16.50
 42
-0.039882
  0
VERTEX
  8
BORDER_D0_T132_RK1_A0_W0_EM1_RI1_ID0018
 10
1577.62
 20
185.97
 30
16.50
 42
-0.056348
  0
VERTEX
  8
BORDER_D0_T132_RK1_A0_W0_EM1_RI1_ID0018
 10
1559.50
 20
201.41
 30
16.50
 42
-0.081329
  0
VERTEX
  8
BORDER_D0_T132_RK1_A0_W0_EM1_RI1_ID0018
 10
1548.41
 20
217.87
 30
16.50
 42
-0.106572
  0
VERTEX
  8
BORDER_D0_T132_RK1_A0_W0_EM1_RI1_ID0018
 10
1544.67
 20
234.84
 30
16.50
 42
-0.106572
  0
VERTEX
  8
BORDER_D0_T132_RK1_A0_W0_EM1_RI1_ID0018
 10
1548.41
 20
251.81
 30
16.50
 42
-0.081329
  0
VERTEX
  8
BORDER_D0_T132_RK1_A0_W0_EM1_RI1_ID0018
 10
1559.50
 20
268.27
 30
16.50
 42
-0.056348
  0
VERTEX
  8
BORDER_D0_T132_RK1_A0_W0_EM1_RI1_ID0018
 10
1577.62
 20
283.71
 30
16.50
 42
-0.039882
  0
VERTEX
  8
BORDER_D0_T132_RK1_A0_W0_EM1_RI1_ID0018
 10
1602.21
 20
297.67
 30
16.50
 42
-0.029934
  0
VERTEX
  8
BORDER_D0_T132_RK1_A0_W0_EM1_RI1_ID0018
 10
1632.52
 20
309.71
 30
16.50
 42
-0.023970
  0
VERTEX
  8
BORDER_D0_T132_RK1_A0_W0_EM1_RI1_ID0018
 10
1667.64
 20
319.48
 30
16.50
 42
-0.020392
  0
VERTEX
  8
BORDER_D0_T132_RK1_A0_W0_EM1_RI1_ID0018
 10
1706.49
 20
326.69
 30
16.50
 42
-0.018360
  0
VERTEX
  8
BORDER_D0_T132_RK1_A0_W0_EM1_RI1_ID0018
 10
1747.90
 20
331.09
 30
16.50
 42
-0.017437
  0
VERTEX
  8
BORDER_D0_T132_RK1_A0_W0_EM1_RI1_ID0018
 10
1790.61
 20
332.58
 30
16.50
 42
-0.017437
  0
VERTEX
  8
BORDER_D0_T132_RK1_A0_W0_EM1_RI1_ID0018
 10
1833.32
 20
331.09
 30
16.50
 42
-0.018360
  0
VERTEX
  8
BORDER_D0_T132_RK1_A0_W0_EM1_RI1_ID0018
 10
1874.73
 20
326.69
 30
16.50
 42
-0.020392
  0
VERTEX
  8
BORDER_D0_T132_RK1_A0_W0_EM1_RI1_ID0018
 10
1913.58
 20
319.48
 30
16.50
 42
-0.023970
  0
VERTEX
  8
BORDER_D0_T132_RK1_A0_W0_EM1_RI1_ID0018
 10
1948.70
 20
309.71
 30
16.50
 42
-0.029934
  0
VERTEX
  8
BORDER_D0_T132_RK1_A0_W0_EM1_RI1_ID0018
 10
1979.01
 20
297.67
 30
16.50
 42
-0.039882
  0
VERTEX
  8
BORDER_D0_T132_RK1_A0_W0_EM1_RI1_ID0018
 10
2003.60
 20
283.71
 30
16.50
 42
-0.056349
  0
VERTEX
  8
BORDER_D0_T132_RK1_A0_W0_EM1_RI1_ID0018
 10
2021.72
 20
268.27
 30
16.50
 42
-0.081329
  0
VERTEX
  8
BORDER_D0_T132_RK1_A0_W0_EM1_RI1_ID0018
 10
2032.81
 20
251.81
 30
16.50
 42
-0.106572
  0
VERTEX
  8
BORDER_D0_T132_RK1_A0_W0_EM1_RI1_ID0018
 10
2036.55
 20
234.84
 30
16.50
  0
SEQEND
  8
BORDER_D0_T132_RK1_A0_W0_EM1_RI1_ID0018
  0
POLYLINE
  8
BORDER_D0_T132_RK1_A0_W0_EM1_RI1_ID0028
 70
1
 66
1
  0
VERTEX
  8
BORDER_D0_T132_RK1_A0_W0_EM1_RI1_ID0028
 10
2195.78
 20
88.06
 30
16.50
  0
VERTEX
  8
BORDER_D0_T132_RK1_A0_W0_EM1_RI1_ID0028
 10
2523.70
 20
88.06
 30
16.50
  0
VERTEX
  8
BORDER_D0_T132_RK1_A0_W0_EM1_RI1_ID0028
 10
2523.70
 20
68.51
 30
16.50
  0
VERTEX
  8
BORDER_D0_T132_RK1_A0_W0_EM1_RI1_ID0028
 10
2195.78
 20
68.51
 30
16.50
 42
-0.220734
  0
VERTEX
  8
BORDER_D0_T132_RK1_A0_W0_EM1_RI1_ID0028
 10
2043.73
 20
131.49
 30
16.50
  0
VERTEX
  8
BORDER_D0_T132_RK1_A0_W0_EM1_RI1_ID0028
 10
2057.56
 20
145.31
 30
16.50
 42
0.198903
  0
VERTEX
  8
BORDER_D0_T132_RK1_A0_W0_EM1_RI1_ID0028
 10
2195.78
 20
88.06
 30
16.50
  0
SEQEND
  8
BORDER_D0_T132_RK1_A0_W0_EM1_RI1_ID0028
  0
POLYLINE
  8
BORDER_D0_T132_RK1_A0_W0_EM1_RI1_ID0013
 70
1
 66
1
  0
VERTEX
  8
BORDER_D0_T132_RK1_A0_W0_EM1_RI1_ID0013
 10
2540.69
 20
34.58
 30
16.50
  0
VERTEX
  8
BORDER_D0_T132_RK1_A0_W0_EM1_RI1_ID0013
 10
2540.69
 20
59.16
 30
16.50
 42
-0.333267
  0
VERTEX
  8
BORDER_D0_T132_RK1_A0_W0_EM1_RI1_ID0013
 10
2736.17
 20
59.16
 30
16.50
  0
VERTEX
  8
BORDER_D0_T132_RK1_A0_W0_EM1_RI1_ID0013
 10
2736.17
 20
10.00
 30
16.50
 42
0.469338
  0
VERTEX
  8
BORDER_D0_T132_RK1_A0_W0_EM1_RI1_ID0013
 10
2540.69
 20
10.00
 30
16.50
  0
VERTEX
  8
BORDER_D0_T132_RK1_A0_W0_EM1_RI1_ID0013
 10
2540.69
 20
34.58
 30
16.50
  0
SEQEND
  8
BORDER_D0_T132_RK1_A0_W0_EM1_RI1_ID0013
  0
POLYLINE
  8
BORDER_D0_T132_RK1_A0_W0_EM1_RI1_ID0018
 70
1
 66
1
  0
VERTEX
  8
BORDER_D0_T132_RK1_A0_W0_EM1_RI1_ID0018
 10
2787.87
 20
200.41
 30
16.50
 42
-0.106572
  0
VERTEX
  8
BORDER_D0_T132_RK1_A0_W0_EM1_RI1_ID0018
 10
2784.13
 20
183.44
 30
16.50
 42
-0.081329
  0
VERTEX
  8
BORDER_D0_T132_RK1_A0_W0_EM1_RI1_ID0018
 10
2773.04
 20
166.98
 30
16.50
 42
-0.056349
  0
VERTEX
  8
BORDER_D0_T132_RK1_A0_W0_EM1_RI1_ID0018
 10
2754.92
 20
151.54
 30
16.50
 42
-0.039882
  0
VERTEX
  8
BORDER_D0_T132_RK1_A0_W0_EM1_RI1_ID0018
 10
2730.33
 20
137.58
 30
16.50
 42
-0.029934
  0
VERTEX
  8
BORDER_D0_T132_RK1_A0_W0_EM1_RI1_ID0018
 10
2700.02
 20
125.54
 30
16.50
 42
-0.023970
  0
VERTEX
  8
BORDER_D0_T132_RK1_A0_W0_EM1_RI1_ID0018
 10
2664.90
 20
115.77
 30
16.50
 42
-0.020392
  0
VERTEX
  8
BORDER_D0_T132_RK1_A0_W0_EM1_RI1_ID0018
 10
2626.05
 20
108.56
 30
16.50
 42
-0.018360
  0
VERTEX
  8
BORDER_D0_T132_RK1_A0_W0_EM1_RI1_ID0018
 10
2584.64
 20
104.16
 30
16.50
 42
-0.017437
  0
VERTEX
  8
BORDER_D0_T132_RK1_A0_W0_EM1_RI1_ID0018
 10
2541.93
 20
102.67
 30
16.50
 42
-0.017437
  0
VERTEX
  8
BORDER_D0_T132_RK1_A0_W0_EM1_RI1_ID0018
 10
2499.22
 20
104.16
 30
16.50
 42
-0.018360
  0
VERTEX
  8
BORDER_D0_T132_RK1_A0_W0_EM1_RI1_ID0018
 10
2457.81
 20
108.56
 30
16.50
 42
-0.020392
  0
VERTEX
  8
BORDER_D0_T132_RK1_A0_W0_EM1_RI1_ID0018
 10
2418.96
 20
115.77
 30
16.50
 42
-0.023970
  0
VERTEX
  8
BORDER_D0_T132_RK1_A0_W0_EM1_RI1_ID0018
 10
2383.84
 20
125.54
 30
16.50
 42
-0.029934
  0
VERTEX
  8
BORDER_D0_T132_RK1_A0_W0_EM1_RI1_ID0018
 10
2353.53
 20
137.58
 30
16.50
 42
-0.039883
  0
VERTEX
  8
BORDER_D0_T132_RK1_A0_W0_EM1_RI1_ID0018
 10
2328.94
 20
151.54
 30
16.50
 42
-0.056349
  0
VERTEX
  8
BORDER_D0_T132_RK1_A0_W0_EM1_RI1_ID0018
 10
2310.82
 20
166.98
 30
16.50
 42
-0.081329
  0
VERTEX
  8
BORDER_D0_T132_RK1_A0_W0_EM1_RI1_ID0018
 10
2299.73
 20
183.44
 30
16.50
 42
-0.106572
  0
VERTEX
  8
BORDER_D0_T132_RK1_A0_W0_EM1_RI1_ID0018
 10
2295.99
 20
200.41
 30
16.50
 42
-0.106572
  0
VERTEX
  8
BORDER_D0_T132_RK1_A0_W0_EM1_RI1_ID0018
 10
2299.73
 20
217.38
 30
16.50
 42
-0.081329
  0
VERTEX
  8
BORDER_D0_T132_RK1_A0_W0_EM1_RI1_ID0018
 10
2310.82
 20
233.84
 30
16.50
 42
-0.056349
  0
VERTEX
  8
BORDER_D0_T132_RK1_A0_W0_EM1_RI1_ID0018
 10
2328.94
 20
249.28
 30
16.50
 42
-0.039882
  0
VERTEX
  8
BORDER_D0_T132_RK1_A0_W0_EM1_RI1_ID0018
 10
2353.53
 20
263.24
 30
16.50
 42
-0.029934
  0
VERTEX
  8
BORDER_D0_T132_RK1_A0_W0_EM1_RI1_ID0018
 10
2383.84
 20
275.28
 30
16.50
 42
-0.023970
  0
VERTEX
  8
BORDER_D0_T132_RK1_A0_W0_EM1_RI1_ID0018
 10
2418.96
 20
285.05
 30
16.50
 42
-0.020392
  0
VERTEX
  8
BORDER_D0_T132_RK1_A0_W0_EM1_RI1_ID0018
 10
2457.81
 20
292.26
 30
16.50
 42
-0.018360
  0
VERTEX
  8
BORDER_D0_T132_RK1_A0_W0_EM1_RI1_ID0018
 10
2499.22
 20
296.66
 30
16.50
 42
-0.017437
  0
VERTEX
  8
BORDER_D0_T132_RK1_A0_W0_EM1_RI1_ID0018
 10
2541.93
 20
298.15
 30
16.50
 42
-0.017437
  0
VERTEX
  8
BORDER_D0_T132_RK1_A0_W0_EM1_RI1_ID0018
 10
2584.64
 20
296.66
 30
16.50
 42
-0.018360
  0
VERTEX
  8
BORDER_D0_T132_RK1_A0_W0_EM1_RI1_ID0018
 10
2626.05
 20
292.26
 30
16.50
 42
-0.020392
  0
VERTEX
  8
BORDER_D0_T132_RK1_A0_W0_EM1_RI1_ID0018
 10
2664.90
 20
285.05
 30
16.50
 42
-0.023970
  0
VERTEX
  8
BORDER_D0_T132_RK1_A0_W0_EM1_RI1_ID0018
 10
2700.02
 20
275.28
 30
16.50
 42
-0.029934
  0
VERTEX
  8
BORDER_D0_T132_RK1_A0_W0_EM1_RI1_ID0018
 10
2730.33
 20
263.24
 30
16.50
 42
-0.039882
  0
VERTEX
  8
BORDER_D0_T132_RK1_A0_W0_EM1_RI1_ID0018
 10
2754.92
 20
249.28
 30
16.50
 42
-0.056349
  0
VERTEX
  8
BORDER_D0_T132_RK1_A0_W0_EM1_RI1_ID0018
 10
2773.04
 20
233.84
 30
16.50
 42
-0.081329
  0
VERTEX
  8
BORDER_D0_T132_RK1_A0_W0_EM1_RI1_ID0018
 10
2784.13
 20
217.38
 30
16.50
 42
-0.106572
  0
VERTEX
  8
BORDER_D0_T132_RK1_A0_W0_EM1_RI1_ID0018
 10
2787.87
 20
200.41
 30
16.50
  0
SEQEND
  8
BORDER_D0_T132_RK1_A0_W0_EM1_RI1_ID0018
  0
POLYLINE
  8
BORDER_D0_T132_RK1_A0_W0_EM1_RI1_ID0018
 70
1
 66
1
  0
VERTEX
  8
BORDER_D0_T132_RK1_A0_W0_EM1_RI1_ID0018
 10
2639.16
 20
401.57
 30
16.50
 42
-0.106572
  0
VERTEX
  8
BORDER_D0_T132_RK1_A0_W0_EM1_RI1_ID0018
 10
2635.42
 20
384.60
 30
16.50
 42
-0.081329
  0
VERTEX
  8
BORDER_D0_T132_RK1_A0_W0_EM1_RI1_ID0018
 10
2624.33
 20
368.14
 30
16.50
 42
-0.056349
  0
VERTEX
  8
BORDER_D0_T132_RK1_A0_W0_EM1_RI1_ID0018
 10
2606.21
 20
352.70
 30
16.50
 42
-0.039882
  0
VERTEX
  8
BORDER_D0_T132_RK1_A0_W0_EM1_RI1_ID0018
 10
2581.62
 20
338.74
 30
16.50
 42
-0.029934
  0
VERTEX
  8
BORDER_D0_T132_RK1_A0_W0_EM1_RI1_ID0018
 10
2551.31
 20
326.70
 30
16.50
 42
-0.023970
  0
VERTEX
  8
BORDER_D0_T132_RK1_A0_W0_EM1_RI1_ID0018
 10
2516.19
 20
316.93
 30
16.50
 42
-0.020392
  0
VERTEX
  8
BORDER_D0_T132_RK1_A0_W0_EM1_RI1_ID0018
 10
2477.34
 20
309.72
 30
16.50
 42
-0.018360
  0
VERTEX
  8
BORDER_D0_T132_RK1_A0_W0_EM1_RI1_ID0018
 10
2435.93
 20
305.32
 30
16.50
 42
-0.017437
  0
VERTEX
  8
BORDER_D0_T132_RK1_A0_W0_EM1_RI1_ID0018
 10
2393.22
 20
303.83
 30
16.50
 42
-0.017437
  0
VERTEX
  8
BORDER_D0_T132_RK1_A0_W0_EM1_RI1_ID0018
 10
2350.51
 20
305.32
 30
16.50
 42
-0.018360
  0
VERTEX
  8
BORDER_D0_T132_RK1_A0_W0_EM1_RI1_ID0018
 10
2309.10
 20
309.72
 30
16.50
 42
-0.020392
  0
VERTEX
  8
BORDER_D0_T132_RK1_A0_W0_EM1_RI1_ID0018
 10
2270.25
 20
316.93
 30
16.50
 42
-0.023970
  0
VERTEX
  8
BORDER_D0_T132_RK1_A0_W0_EM1_RI1_ID0018
 10
2235.13
 20
326.70
 30
16.50
 42
-0.029934
  0
VERTEX
  8
BORDER_D0_T132_RK1_A0_W0_EM1_RI1_ID0018
 10
2204.82
 20
338.74
 30
16.50
 42
-0.039883
  0
VERTEX
  8
BORDER_D0_T132_RK1_A0_W0_EM1_RI1_ID0018
 10
2180.23
 20
352.70
 30
16.50
 42
-0.056349
  0
VERTEX
  8
BORDER_D0_T132_RK1_A0_W0_EM1_RI1_ID0018
 10
2162.11
 20
368.14
 30
16.50
 42
-0.081329
  0
VERTEX
  8
BORDER_D0_T132_RK1_A0_W0_EM1_RI1_ID0018
 10
2151.02
 20
384.60
 30
16.50
 42
-0.106572
  0
VERTEX
  8
BORDER_D0_T132_RK1_A0_W0_EM1_RI1_ID0018
 10
2147.28
 20
401.57
 30
16.50
 42
-0.106572
  0
VERTEX
  8
BORDER_D0_T132_RK1_A0_W0_EM1_RI1_ID0018
 10
2151.02
 20
418.54
 30
16.50
 42
-0.081329
  0
VERTEX
  8
BORDER_D0_T132_RK1_A0_W0_EM1_RI1_ID0018
 10
2162.11
 20
435.00
 30
16.50
 42
-0.056349
  0
VERTEX
  8
BORDER_D0_T132_RK1_A0_W0_EM1_RI1_ID0018
 10
2180.23
 20
450.44
 30
16.50
 42
-0.039882
  0
VERTEX
  8
BORDER_D0_T132_RK1_A0_W0_EM1_RI1_ID0018
 10
2204.82
 20
464.40
 30
16.50
 42
-0.029934
  0
VERTEX
  8
BORDER_D0_T132_RK1_A0_W0_EM1_RI1_ID0018
 10
2235.13
 20
476.44
 30
16.50
 42
-0.023970
  0
VERTEX
  8
BORDER_D0_T132_RK1_A0_W0_EM1_RI1_ID0018
 10
2270.25
 20
486.21
 30
16.50
 42
-0.020392
  0
VERTEX
  8
BORDER_D0_T132_RK1_A0_W0_EM1_RI1_ID0018
 10
2309.10
 20
493.42
 30
16.50
 42
-0.018360
  0
VERTEX
  8
BORDER_D0_T132_RK1_A0_W0_EM1_RI1_ID0018
 10
2350.51
 20
497.82
 30
16.50
 42
-0.017437
  0
VERTEX
  8
BORDER_D0_T132_RK1_A0_W0_EM1_RI1_ID0018
 10
2393.22
 20
499.31
 30
16.50
 42
-0.017437
  0
VERTEX
  8
BORDER_D0_T132_RK1_A0_W0_EM1_RI1_ID0018
 10
2435.93
 20
497.82
 30
16.50
 42
-0.018360
  0
VERTEX
  8
BORDER_D0_T132_RK1_A0_W0_EM1_RI1_ID0018
 10
2477.34
 20
493.42
 30
16.50
 42
-0.020392
  0
VERTEX
  8
BORDER_D0_T132_RK1_A0_W0_EM1_RI1_ID0018
 10
2516.19
 20
486.21
 30
16.50
 42
-0.023970
  0
VERTEX
  8
BORDER_D0_T132_RK1_A0_W0_EM1_RI1_ID0018
 10
2551.31
 20
476.44
 30
16.50
 42
-0.029934
  0
VERTEX
  8
BORDER_D0_T132_RK1_A0_W0_EM1_RI1_ID0018
 10
2581.62
 20
464.40
 30
16.50
 42
-0.039882
  0
VERTEX
  8
BORDER_D0_T132_RK1_A0_W0_EM1_RI1_ID0018
 10
2606.21
 20
450.44
 30
16.50
 42
-0.056349
  0
VERTEX
  8
BORDER_D0_T132_RK1_A0_W0_EM1_RI1_ID0018
 10
2624.33
 20
435.00
 30
16.50
 42
-0.081329
  0
VERTEX
  8
BORDER_D0_T132_RK1_A0_W0_EM1_RI1_ID0018
 10
2635.42
 20
418.54
 30
16.50
 42
-0.106572
  0
VERTEX
  8
BORDER_D0_T132_RK1_A0_W0_EM1_RI1_ID0018
 10
2639.16
 20
401.57
 30
16.50
  0
SEQEND
  8
BORDER_D0_T132_RK1_A0_W0_EM1_RI1_ID0018
  0
POLYLINE
  8
BORDER_D0_T132_RK1_A0_W0_EM1_RI1_ID0020
 70
1
 66
1
  0
VERTEX
  8
BORDER_D0_T132_RK1_A0_W0_EM1_RI1_ID0020
 10
2734.65
 20
556.68
 30
16.50
  0
VERTEX
  8
BORDER_D0_T132_RK1_A0_W0_EM1_RI1_ID0020
 10
2734.65
 20
310.74
 30
16.50
 42
-0.106572
  0
VERTEX
  8
BORDER_D0_T132_RK1_A0_W0_EM1_RI1_ID0020
 10
2717.68
 20
314.48
 30
16.50
 42
-0.081329
  0
VERTEX
  8
BORDER_D0_T132_RK1_A0_W0_EM1_RI1_ID0020
 10
2701.22
 20
325.57
 30
16.50
 42
-0.056348
  0
VERTEX
  8
BORDER_D0_T132_RK1_A0_W0_EM1_RI1_ID0020
 10
2685.78
 20
343.69
 30
16.50
 42
-0.039883
  0
VERTEX
  8
BORDER_D0_T132_RK1_A0_W0_EM1_RI1_ID0020
 10
2671.82
 20
368.28
 30
16.50
 42
-0.029934
  0
VERTEX
  8
BORDER_D0_T132_RK1_A0_W0_EM1_RI1_ID0020
 10
2659.78
 20
398.59
 30
16.50
 42
-0.023970
  0
VERTEX
  8
BORDER_D0_T132_RK1_A0_W0_EM1_RI1_ID0020
 10
2650.01
 20
433.71
 30
16.50
 42
-0.020392
  0
VERTEX
  8
BORDER_D0_T132_RK1_A0_W0_EM1_RI1_ID0020
 10
2642.80
 20
472.56
 30
16.50
 42
-0.018360
  0
VERTEX
  8
BORDER_D0_T132_RK1_A0_W0_EM1_RI1_ID0020
 10
2638.40
 20
513.97
 30
16.50
 42
-0.017437
  0
VERTEX
  8
BORDER_D0_T132_RK1_A0_W0_EM1_RI1_ID0020
 10
2636.91
 20
556.68
 30
16.50
 42
-0.017437
  0
VERTEX
  8
BORDER_D0_T132_RK1_A0_W0_EM1_RI1_ID0020
 10
2638.40
 20
599.39
 30
16.50
 42
-0.018360
  0
VERTEX
  8
BORDER_D0_T132_RK1_A0_W0_EM1_RI1_ID0020
 10
2642.80
 20
640.80
 30
16.50
 42
-0.020392
  0
VERTEX
  8
BORDER_D0_T132_RK1_A0_W0_EM1_RI1_ID0020
 10
2650.01
 20
679.65
 30
16.50
 42
-0.023970
  0
VERTEX
  8
BORDER_D0_T132_RK1_A0_W0_EM1_RI1_ID0020
 10
2659.78
 20
714.77
 30
16.50
 42
-0.029934
  0
VERTEX
  8
BORDER_D0_T132_RK1_A0_W0_EM1_RI1_ID0020
 10
2671.82
 20
745.08
 30
16.50
 42
-0.039883
  0
VERTEX
  8
BORDER_D0_T132_RK1_A0_W0_EM1_RI1_ID0020
 10
2685.78
 20
769.67
 30
16.50
 42
-0.056348
  0
VERTEX
  8
BORDER_D0_T132_RK1_A0_W0_EM1_RI1_ID0020
 10
2701.22
 20
787.79
 30
16.50
 42
-0.081329
  0
VERTEX
  8
BORDER_D0_T132_RK1_A0_W0_EM1_RI1_ID0020
 10
2717.68
 20
798.88
 30
16.50
 42
-0.106572
  0
VERTEX
  8
BORDER_D0_T132_RK1_A0_W0_EM1_RI1_ID0020
 10
2734.65
 20
802.62
 30
16.50
  0
VERTEX
  8
BORDER_D0_T132_RK1_A0_W0_EM1_RI1_ID0020
 10
2734.65
 20
556.68
 30
16.50
  0
SEQEND
  8
BORDER_D0_T132_RK1_A0_W0_EM1_RI1_ID0020
  0
POLYLINE
  8
BORDER_D0_T132_RK1_A0_W0_EM1_RI1_ID0027
 70
1
 66
1
  0
VERTEX
  8
BORDER_D0_T132_RK1_A0_W0_EM1_RI1_ID0027
 10
2658.71
 20
1139.61
 30
16.50
  0
VERTEX
  8
BORDER_D0_T132_RK1_A0_W0_EM1_RI1_ID0027
 10
2658.71
 20
1810.94
 30
16.50
  0
VERTEX
  8
BORDER_D0_T132_RK1_A0_W0_EM1_RI1_ID0027
 10
2739.43
 20
1810.94
 30
16.50
  0
VERTEX
  8
BORDER_D0_T132_RK1_A0_W0_EM1_RI1_ID0027
 10
2739.43
 20
1139.61
 30
16.50
 42
-0.220733
  0
VERTEX
  8
BORDER_D0_T132_RK1_A0_W0_EM1_RI1_ID0027
 10
2479.39
 20
511.83
 30
16.50
  0
VERTEX
  8
BORDER_D0_T132_RK1_A0_W0_EM1_RI1_ID0027
 10
2422.32
 20
568.90
 30
16.50
 42
0.198913
  0
VERTEX
  8
BORDER_D0_T132_RK1_A0_W0_EM1_RI1_ID0027
 10
2658.71
 20
1139.61
 30
16.50
  0
SEQEND
  8
BORDER_D0_T132_RK1_A0_W0_EM1_RI1_ID0027
  0
POLYLINE
  8
BORDER_D0_T132_RK1_A0_W0_EM1_RI1_ID0013
 70
1
 66
1
  0
VERTEX
  8
BORDER_D0_T132_RK1_A0_W0_EM1_RI1_ID0013
 10
2734.56
 20
1844.52
 30
16.50
  0
VERTEX
  8
BORDER_D0_T132_RK1_A0_W0_EM1_RI1_ID0013
 10
2709.98
 20
1844.52
 30
16.50
 42
-0.333267
  0
VERTEX
  8
BORDER_D0_T132_RK1_A0_W0_EM1_RI1_ID0013
 10
2709.98
 20
2040.00
 30
16.50
  0
VERTEX
  8
BORDER_D0_T132_RK1_A0_W0_EM1_RI1_ID0013
 10
2759.14
 20
2040.00
 30
16.50
 42
0.469337
  0
VERTEX
  8
BORDER_D0_T132_RK1_A0_W0_EM1_RI1_ID0013
 10
2759.14
 20
1844.52
 30
16.50
  0
VERTEX
  8
BORDER_D0_T132_RK1_A0_W0_EM1_RI1_ID0013
 10
2734.56
 20
1844.52
 30
16.50
  0
SEQEND
  8
BORDER_D0_T132_RK1_A0_W0_EM1_RI1_ID0013
  0
POLYLINE
  8
BORDER_D0_T132_RK1_A0_W0_EM1_RI1_ID0007
 70
1
 66
1
  0
VERTEX
  8
BORDER_D0_T132_RK1_A0_W0_EM1_RI1_ID0007
 10
2662.70
 20
1947.05
 30
16.50
  0
VERTEX
  8
BORDER_D0_T132_RK1_A0_W0_EM1_RI1_ID0007
 10
2595.17
 20
1925.10
 30
16.50
  0
VERTEX
  8
BORDER_D0_T132_RK1_A0_W0_EM1_RI1_ID0007
 10
2595.17
 20
1854.09
 30
16.50
  0
VERTEX
  8
BORDER_D0_T132_RK1_A0_W0_EM1_RI1_ID0007
 10
2553.43
 20
1911.54
 30
16.50
  0
VERTEX
  8
BORDER_D0_T132_RK1_A0_W0_EM1_RI1_ID0007
 10
2485.89
 20
1889.60
 30
16.50
  0
VERTEX
  8
BORDER_D0_T132_RK1_A0_W0_EM1_RI1_ID0007
 10
2527.63
 20
1947.05
 30
16.50
  0
VERTEX
  8
BORDER_D0_T132_RK1_A0_W0_EM1_RI1_ID0007
 10
2485.89
 20
2004.50
 30
16.50
  0
VERTEX
  8
BORDER_D0_T132_RK1_A0_W0_EM1_RI1_ID0007
 10
2553.43
 20
1982.55
 30
16.50
  0
VERTEX
  8
BORDER_D0_T132_RK1_A0_W0_EM1_RI1_ID0007
 10
2595.17
 20
2040.00
 30
16.50
  0
VERTEX
  8
BORDER_D0_T132_RK1_A0_W0_EM1_RI1_ID0007
 10
2595.17
 20
1968.99
 30
16.50
  0
VERTEX
  8
BORDER_D0_T132_RK1_A0_W0_EM1_RI1_ID0007
 10
2662.70
 20
1947.05
 30
16.50
  0
SEQEND
  8
BORDER_D0_T132_RK1_A0_W0_EM1_RI1_ID0007
  0
POLYLINE
  8
BORDER_D0_T132_RK1_A0_W0_EM1_RI1_ID0017
 70
1
 66
1
  0
VERTEX
  8
BORDER_D0_T132_RK1_A0_W0_EM1_RI1_ID0017
 10
2209.90
 20
2040.00
 30
16.50
 42
-0.076784
  0
VERTEX
  8
BORDER_D0_T132_RK1_A0_W0_EM1_RI1_ID0017
 10
2285.28
 20
2028.26
 30
16.50
 42
-0.068057
  0
VERTEX
  8
BORDER_D0_T132_RK1_A0_W0_EM1_RI1_ID0017
 10
2358.37
 20
1993.39
 30
16.50
 42
-0.056097
  0
VERTEX
  8
BORDER_D0_T132_RK1_A0_W0_EM1_RI1_ID0017
 10
2426.95
 20
1936.44
 30
16.50
 42
-0.045361
  0
VERTEX
  8
BORDER_D0_T132_RK1_A0_W0_EM1_RI1_ID0017
 10
2488.93
 20
1859.16
 30
16.50
 42
-0.037263
  0
VERTEX
  8
BORDER_D0_T132_RK1_A0_W0_EM1_RI1_ID0017
 10
2542.44
 20
1763.89
 30
16.50
 42
-0.031618
  0
VERTEX
  8
BORDER_D0_T132_RK1_A0_W0_EM1_RI1_ID0017
 10
2585.84
 20
1653.53
 30
16.50
 42
-0.027907
  0
VERTEX
  8
BORDER_D0_T132_RK1_A0_W0_EM1_RI1_ID0017
 10
2617.82
 20
1531.41
 30
16.50
 42
-0.025666
  0
VERTEX
  8
BORDER_D0_T132_RK1_A0_W0_EM1_RI1_ID0017
 10
2637.40
 20
1401.27
 30
16.50
 42
-0.024617
  0
VERTEX
  8
BORDER_D0_T132_RK1_A0_W0_EM1_RI1_ID0017
 10
2644.00
 20
1267.05
 30
16.50
 42
-0.024617
  0
VERTEX
  8
BORDER_D0_T132_RK1_A0_W0_EM1_RI1_ID0017
 10
2637.40
 20
1132.83
 30
16.50
 42
-0.025666
  0
VERTEX
  8
BORDER_D0_T132_RK1_A0_W0_EM1_RI1_ID0017
 10
2617.82
 20
1002.69
 30
16.50
 42
-0.027905
  0
VERTEX
  8
BORDER_D0_T132_RK1_A0_W0_EM1_RI1_ID0017
 10
2585.84
 20
880.58
 30
16.50
 42
-0.031620
  0
VERTEX
  8
BORDER_D0_T132_RK1_A0_W0_EM1_RI1_ID0017
 10
2542.44
 20
770.21
 30
16.50
 42
-0.037263
  0
VERTEX
  8
BORDER_D0_T132_RK1_A0_W0_EM1_RI1_ID0017
 10
2488.93
 20
674.94
 30
16.50
 42
-0.045361
  0
VERTEX
  8
BORDER_D0_T132_RK1_A0_W0_EM1_RI1_ID0017
 10
2426.95
 20
597.66
 30
16.50
 42
-0.056093
  0
VERTEX
  8
BORDER_D0_T132_RK1_A0_W0_EM1_RI1_ID0017
 10
2358.37
 20
540.72
 30
16.50
 42
-0.068061
  0
VERTEX
  8
BORDER_D0_T132_RK1_A0_W0_EM1_RI1_ID0017
 10
2285.28
 20
505.84
 30
16.50
 42
-0.076784
  0
VERTEX
  8
BORDER_D0_T132_RK1_A0_W0_EM1_RI1_ID0017
 10
2209.90
 20
494.10
 30
16.50
 42
-0.076784
  0
VERTEX
  8
BORDER_D0_T132_RK1_A0_W0_EM1_RI1_ID0017
 10
2134.52
 20
505.84
 30
16.50
 42
-0.068061
  0
VERTEX
  8
BORDER_D0_T132_RK1_A0_W0_EM1_RI1_ID0017
 10
2061.43
 20
540.72
 30
16.50
 42
-0.056093
  0
VERTEX
  8
BORDER_D0_T132_RK1_A0_W0_EM1_RI1_ID0017
 10
1992.85
 20
597.66
 30
16.50
 42
-0.045361
  0
VERTEX
  8
BORDER_D0_T132_RK1_A0_W0_EM1_RI1_ID0017
 10
1930.87
 20
674.94
 30
16.50
 42
-0.037263
  0
VERTEX
  8
BORDER_D0_T132_RK1_A0_W0_EM1_RI1_ID0017
 10
1877.36
 20
770.21
 30
16.50
 42
-0.031620
  0
VERTEX
  8
BORDER_D0_T132_RK1_A0_W0_EM1_RI1_ID0017
 10
1833.96
 20
880.58
 30
16.50
 42
-0.027905
  0
VERTEX
  8
BORDER_D0_T132_RK1_A0_W0_EM1_RI1_ID0017
 10
1801.98
 20
1002.69
 30
16.50
 42
-0.025667
  0
VERTEX
  8
BORDER_D0_T132_RK1_A0_W0_EM1_RI1_ID0017
 10
1782.39
 20
1132.83
 30
16.50
 42
-0.024617
  0
VERTEX
  8
BORDER_D0_T132_RK1_A0_W0_EM1_RI1_ID0017
 10
1775.80
 20
1267.05
 30
16.50
 42
-0.024617
  0
VERTEX
  8
BORDER_D0_T132_RK1_A0_W0_EM1_RI1_ID0017
 10
1782.39
 20
1401.27
 30
16.50
 42
-0.025667
  0
VERTEX
  8
BORDER_D0_T132_RK1_A0_W0_EM1_RI1_ID0017
 10
1801.98
 20
1531.41
 30
16.50
 42
-0.027907
  0
VERTEX
  8
BORDER_D0_T132_RK1_A0_W0_EM1_RI1_ID0017
 10
1833.96
 20
1653.53
 30
16.50
 42
-0.031618
  0
VERTEX
  8
BORDER_D0_T132_RK1_A0_W0_EM1_RI1_ID0017
 10
1877.36
 20
1763.89
 30
16.50
 42
-0.037263
  0
VERTEX
  8
BORDER_D0_T132_RK1_A0_W0_EM1_RI1_ID0017
 10
1930.87
 20
1859.16
 30
16.50
 42
-0.045361
  0
VERTEX
  8
BORDER_D0_T132_RK1_A0_W0_EM1_RI1_ID0017
 10
1992.85
 20
1936.44
 30
16.50
 42
-0.056097
  0
VERTEX
  8
BORDER_D0_T132_RK1_A0_W0_EM1_RI1_ID0017
 10
2061.43
 20
1993.39
 30
16.50
 42
-0.068057
  0
VERTEX
  8
BORDER_D0_T132_RK1_A0_W0_EM1_RI1_ID0017
 10
2134.52
 20
2028.26
 30
16.50
 42
-0.076784
  0
VERTEX
  8
BORDER_D0_T132_RK1_A0_W0_EM1_RI1_ID0017
 10
2209.90
 20
2040.00
 30
16.50
  0
SEQEND
  8
BORDER_D0_T132_RK1_A0_W0_EM1_RI1_ID0017
  0
POLYLINE
  8
BORDER_D0_T132_RK1_A0_W0_EM1_RI1_ID0007
 70
1
 66
1
  0
VERTEX
  8
BORDER_D0_T132_RK1_A0_W0_EM1_RI1_ID0007
 10
1867.82
 20
1863.19
 30
16.50
  0
VERTEX
  8
BORDER_D0_T132_RK1_A0_W0_EM1_RI1_ID0007
 10
1845.87
 20
1930.72
 30
16.50
  0
VERTEX
  8
BORDER_D0_T132_RK1_A0_W0_EM1_RI1_ID0007
 10
1774.86
 20
1930.72
 30
16.50
  0
VERTEX
  8
BORDER_D0_T132_RK1_A0_W0_EM1_RI1_ID0007
 10
1832.31
 20
1972.46
 30
16.50
  0
VERTEX
  8
BORDER_D0_T132_RK1_A0_W0_EM1_RI1_ID0007
 10
1810.37
 20
2040.00
 30
16.50
  0
VERTEX
  8
BORDER_D0_T132_RK1_A0_W0_EM1_RI1_ID0007
 10
1867.82
 20
1998.26
 30
16.50
  0
VERTEX
  8
BORDER_D0_T132_RK1_A0_W0_EM1_RI1_ID0007
 10
1925.27
 20
2040.00
 30
16.50
  0
VERTEX
  8
BORDER_D0_T132_RK1_A0_W0_EM1_RI1_ID0007
 10
1903.32
 20
1972.46
 30
16.50
  0
VERTEX
  8
BORDER_D0_T132_RK1_A0_W0_EM1_RI1_ID0007
 10
1960.77
 20
1930.72
 30
16.50
  0
VERTEX
  8
BORDER_D0_T132_RK1_A0_W0_EM1_RI1_ID0007
 10
1889.76
 20
1930.72
 30
16.50
  0
VERTEX
  8
BORDER_D0_T132_RK1_A0_W0_EM1_RI1_ID0007
 10
1867.82
 20
1863.19
 30
16.50
  0
SEQEND
  8
BORDER_D0_T132_RK1_A0_W0_EM1_RI1_ID0007
  0
POLYLINE
  8
BORDER_D0_T132_RK1_A0_W0_EM1_RI1_ID0007
 70
1
 66
1
  0
VERTEX
  8
BORDER_D0_T132_RK1_A0_W0_EM1_RI1_ID0007
 10
1747.86
 20
1915.99
 30
16.50
  0
VERTEX
  8
BORDER_D0_T132_RK1_A0_W0_EM1_RI1_ID0007
 10
1769.81
 20
1848.46
 30
16.50
  0
VERTEX
  8
BORDER_D0_T132_RK1_A0_W0_EM1_RI1_ID0007
 10
1840.82
 20
1848.46
 30
16.50
  0
VERTEX
  8
BORDER_D0_T132_RK1_A0_W0_EM1_RI1_ID0007
 10
1783.37
 20
1806.72
 30
16.50
  0
VERTEX
  8
BORDER_D0_T132_RK1_A0_W0_EM1_RI1_ID0007
 10
1805.31
 20
1739.18
 30
16.50
  0
VERTEX
  8
BORDER_D0_T132_RK1_A0_W0_EM1_RI1_ID0007
 10
1747.86
 20
1780.92
 30
16.50
  0
VERTEX
  8
BORDER_D0_T132_RK1_A0_W0_EM1_RI1_ID0007
 10
1690.41
 20
1739.18
 30
16.50
  0
VERTEX
  8
BORDER_D0_T132_RK1_A0_W0_EM1_RI1_ID0007
 10
1712.36
 20
1806.72
 30
16.50
  0
VERTEX
  8
BORDER_D0_T132_RK1_A0_W0_EM1_RI1_ID0007
 10
1654.91
 20
1848.46
 30
16.50
  0
VERTEX
  8
BORDER_D0_T132_RK1_A0_W0_EM1_RI1_ID0007
 10
1725.92
 20
1848.46
 30
16.50
  0
VERTEX
  8
BORDER_D0_T132_RK1_A0_W0_EM1_RI1_ID0007
 10
1747.86
 20
1915.99
 30
16.50
  0
SEQEND
  8
BORDER_D0_T132_RK1_A0_W0_EM1_RI1_ID0007
  0
POLYLINE
  8
BORDER_D0_T132_RK1_A0_W0_EM1_RI1_ID0007
 70
1
 66
1
  0
VERTEX
  8
BORDER_D0_T132_RK1_A0_W0_EM1_RI1_ID0007
 10
1666.43
 20
1863.19
 30
16.50
  0
VERTEX
  8
BORDER_D0_T132_RK1_A0_W0_EM1_RI1_ID0007
 10
1644.48
 20
1930.72
 30
16.50
  0
VERTEX
  8
BORDER_D0_T132_RK1_A0_W0_EM1_RI1_ID0007
 10
1573.47
 20
1930.72
 30
16.50
  0
VERTEX
  8
BORDER_D0_T132_RK1_A0_W0_EM1_RI1_ID0007
 10
1630.92
 20
1972.46
 30
16.50
  0
VERTEX
  8
BORDER_D0_T132_RK1_A0_W0_EM1_RI1_ID0007
 10
1608.98
 20
2040.00
 30
16.50
  0
VERTEX
  8
BORDER_D0_T132_RK1_A0_W0_EM1_RI1_ID0007
 10
1666.43
 20
1998.26
 30
16.50
  0
VERTEX
  8
BORDER_D0_T132_RK1_A0_W0_EM1_RI1_ID0007
 10
1723.88
 20
2040.00
 30
16.50
  0
VERTEX
  8
BORDER_D0_T132_RK1_A0_W0_EM1_RI1_ID0007
 10
1701.93
 20
1972.46
 30
16.50
  0
VERTEX
  8
BORDER_D0_T132_RK1_A0_W0_EM1_RI1_ID0007
 10
1759.38
 20
1930.72
 30
16.50
  0
VERTEX
  8
BORDER_D0_T132_RK1_A0_W0_EM1_RI1_ID0007
 10
1688.37
 20
1930.72
 30
16.50
  0
VERTEX
  8
BORDER_D0_T132_RK1_A0_W0_EM1_RI1_ID0007
 10
1666.43
 20
1863.19
 30
16.50
  0
SEQEND
  8
BORDER_D0_T132_RK1_A0_W0_EM1_RI1_ID0007
  0
POLYLINE
  8
BORDER_D0_T132_RK1_A0_W0_EM1_RI1_ID0017
 70
1
 66
1
  0
VERTEX
  8
BORDER_D0_T132_RK1_A0_W0_EM1_RI1_ID0017
 10
1327.00
 20
2040.00
 30
16.50
 42
-0.076784
  0
VERTEX
  8
BORDER_D0_T132_RK1_A0_W0_EM1_RI1_ID0017
 10
1402.38
 20
2028.26
 30
16.50
 42
-0.068057
  0
VERTEX
  8
BORDER_D0_T132_RK1_A0_W0_EM1_RI1_ID0017
 10
1475.47
 20
1993.39
 30
16.50
 42
-0.056097
  0
VERTEX
  8
BORDER_D0_T132_RK1_A0_W0_EM1_RI1_ID0017
 10
1544.05
 20
1936.44
 30
16.50
 42
-0.045361
  0
VERTEX
  8
BORDER_D0_T132_RK1_A0_W0_EM1_RI1_ID0017
 10
1606.03
 20
1859.16
 30
16.50
 42
-0.037263
  0
VERTEX
  8
BORDER_D0_T132_RK1_A0_W0_EM1_RI1_ID0017
 10
1659.54
 20
1763.89
 30
16.50
 42
-0.031618
  0
VERTEX
  8
BORDER_D0_T132_RK1_A0_W0_EM1_RI1_ID0017
 10
1702.94
 20
1653.53
 30
16.50
 42
-0.027907
  0
VERTEX
  8
BORDER_D0_T132_RK1_A0_W0_EM1_RI1_ID0017
 10
1734.92
 20
1531.41
 30
16.50
 42
-0.025666
  0
VERTEX
  8
BORDER_D0_T132_RK1_A0_W0_EM1_RI1_ID0017
 10
1754.50
 20
1401.27
 30
16.50
 42
-0.024617
  0
VERTEX
  8
BORDER_D0_T132_RK1_A0_W0_EM1_RI1_ID0017
 10
1761.10
 20
1267.05
 30
16.50
 42
-0.024617
  0
VERTEX
  8
BORDER_D0_T132_RK1_A0_W0_EM1_RI1_ID0017
 10
1754.50
 20
1132.83
 30
16.50
 42
-0.025666
  0
VERTEX
  8
BORDER_D0_T132_RK1_A0_W0_EM1_RI1_ID0017
 10
1734.92
 20
1002.69
 30
16.50
 42
-0.027905
  0
VERTEX
  8
BORDER_D0_T132_RK1_A0_W0_EM1_RI1_ID0017
 10
1702.94
 20
880.58
 30
16.50
 42
-0.031620
  0
VERTEX
  8
BORDER_D0_T132_RK1_A0_W0_EM1_RI1_ID0017
 10
1659.54
 20
770.21
 30
16.50
 42
-0.037263
  0
VERTEX
  8
BORDER_D0_T132_RK1_A0_W0_EM1_RI1_ID0017
 10
1606.03
 20
674.94
 30
16.50
 42
-0.045361
  0
VERTEX
  8
BORDER_D0_T132_RK1_A0_W0_EM1_RI1_ID0017
 10
1544.05
 20
597.66
 30
16.50
 42
-0.056093
  0
VERTEX
  8
BORDER_D0_T132_RK1_A0_W0_EM1_RI1_ID0017
 10
1475.47
 20
540.72
 30
16.50
 42
-0.068061
  0
VERTEX
  8
BORDER_D0_T132_RK1_A0_W0_EM1_RI1_ID0017
 10
1402.38
 20
505.84
 30
16.50
 42
-0.076784
  0
VERTEX
  8
BORDER_D0_T132_RK1_A0_W0_EM1_RI1_ID0017
 10
1327.00
 20
494.10
 30
16.50
 42
-0.076784
  0
VERTEX
  8
BORDER_D0_T132_RK1_A0_W0_EM1_RI1_ID0017
 10
1251.62
 20
505.84
 30
16.50
 42
-0.068061
  0
VERTEX
  8
BORDER_D0_T132_RK1_A0_W0_EM1_RI1_ID0017
 10
1178.53
 20
540.72
 30
16.50
 42
-0.056093
  0
VERTEX
  8
BORDER_D0_T132_RK1_A0_W0_EM1_RI1_ID0017
 10
1109.95
 20
597.66
 30
16.50
 42
-0.045361
  0
VERTEX
  8
BORDER_D0_T132_RK1_A0_W0_EM1_RI1_ID0017
 10
1047.97
 20
674.94
 30
16.50
 42
-0.037263
  0
VERTEX
  8
BORDER_D0_T132_RK1_A0_W0_EM1_RI1_ID0017
 10
994.46
 20
770.21
 30
16.50
 42
-0.031620
  0
VERTEX
  8
BORDER_D0_T132_RK1_A0_W0_EM1_RI1_ID0017
 10
951.06
 20
880.58
 30
16.50
 42
-0.027905
  0
VERTEX
  8
BORDER_D0_T132_RK1_A0_W0_EM1_RI1_ID0017
 10
919.08
 20
1002.69
 30
16.50
 42
-0.025667
  0
VERTEX
  8
BORDER_D0_T132_RK1_A0_W0_EM1_RI1_ID0017
 10
899.49
 20
1132.83
 30
16.50
 42
-0.024617
  0
VERTEX
  8
BORDER_D0_T132_RK1_A0_W0_EM1_RI1_ID0017
 10
892.90
 20
1267.05
 30
16.50
 42
-0.024617
  0
VERTEX
  8
BORDER_D0_T132_RK1_A0_W0_EM1_RI1_ID0017
 10
899.49
 20
1401.27
 30
16.50
 42
-0.025667
  0
VERTEX
  8
BORDER_D0_T132_RK1_A0_W0_EM1_RI1_ID0017
 10
919.08
 20
1531.41
 30
16.50
 42
-0.027907
  0
VERTEX
  8
BORDER_D0_T132_RK1_A0_W0_EM1_RI1_ID0017
 10
951.06
 20
1653.53
 30
16.50
 42
-0.031618
  0
VERTEX
  8
BORDER_D0_T132_RK1_A0_W0_EM1_RI1_ID0017
 10
994.46
 20
1763.89
 30
16.50
 42
-0.037263
  0
VERTEX
  8
BORDER_D0_T132_RK1_A0_W0_EM1_RI1_ID0017
 10
1047.97
 20
1859.16
 30
16.50
 42
-0.045361
  0
VERTEX
  8
BORDER_D0_T132_RK1_A0_W0_EM1_RI1_ID0017
 10
1109.95
 20
1936.44
 30
16.50
 42
-0.056097
  0
VERTEX
  8
BORDER_D0_T132_RK1_A0_W0_EM1_RI1_ID0017
 10
1178.53
 20
1993.39
 30
16.50
 42
-0.068057
  0
VERTEX
  8
BORDER_D0_T132_RK1_A0_W0_EM1_RI1_ID0017
 10
1251.62
 20
2028.26
 30
16.50
 42
-0.076784
  0
VERTEX
  8
BORDER_D0_T132_RK1_A0_W0_EM1_RI1_ID0017
 10
1327.00
 20
2040.00
 30
16.50
  0
SEQEND
  8
BORDER_D0_T132_RK1_A0_W0_EM1_RI1_ID0017
  0
POLYLINE
  8
BORDER_D0_T132_RK1_A0_W0_EM1_RI1_ID0013
 70
1
 66
1
  0
VERTEX
  8
BORDER_D0_T132_RK1_A0_W0_EM1_RI1_ID0013
 10
1071.25
 20
2015.42
 30
16.50
  0
VERTEX
  8
BORDER_D0_T132_RK1_A0_W0_EM1_RI1_ID0013
 10
1071.25
 20
1990.84
 30
16.50
 42
-0.333267
  0
VERTEX
  8
BORDER_D0_T132_RK1_A0_W0_EM1_RI1_ID0013
 10
875.77
 20
1990.84
 30
16.50
  0
VERTEX
  8
BORDER_D0_T132_RK1_A0_W0_EM1_RI1_ID0013
 10
875.77
 20
2040.00
 30
16.50
 42
0.469337
  0
VERTEX
  8
BORDER_D0_T132_RK1_A0_W0_EM1_RI1_ID0013
 10
1071.25
 20
2040.00
 30
16.50
  0
VERTEX
  8
BORDER_D0_T132_RK1_A0_W0_EM1_RI1_ID0013
 10
1071.25
 20
2015.42
 30
16.50
  0
SEQEND
  8
BORDER_D0_T132_RK1_A0_W0_EM1_RI1_ID0013
  0
POLYLINE
  8
BORDER_D0_T132_RK1_A0_W0_EM1_RI1_ID0007
 70
1
 66
1
  0
VERTEX
  8
BORDER_D0_T132_RK1_A0_W0_EM1_RI1_ID0007
 10
808.27
 20
1854.42
 30
16.50
  0
VERTEX
  8
BORDER_D0_T132_RK1_A0_W0_EM1_RI1_ID0007
 10
875.80
 20
1876.37
 30
16.50
  0
VERTEX
  8
BORDER_D0_T132_RK1_A0_W0_EM1_RI1_ID0007
 10
875.80
 20
1947.38
 30
16.50
  0
VERTEX
  8
BORDER_D0_T132_RK1_A0_W0_EM1_RI1_ID0007
 10
917.54
 20
1889.93
 30
16.50
  0
VERTEX
  8
BORDER_D0_T132_RK1_A0_W0_EM1_RI1_ID0007
 10
985.08
 20
1911.87
 30
16.50
  0
VERTEX
  8
BORDER_D0_T132_RK1_A0_W0_EM1_RI1_ID0007
 10
943.34
 20
1854.42
 30
16.50
  0
VERTEX
  8
BORDER_D0_T132_RK1_A0_W0_EM1_RI1_ID0007
 10
985.08
 20
1796.97
 30
16.50
  0
VERTEX
  8
BORDER_D0_T132_RK1_A0_W0_EM1_RI1_ID0007
 10
917.54
 20
1818.92
 30
16.50
  0
VERTEX
  8
BORDER_D0_T132_RK1_A0_W0_EM1_RI1_ID0007
 10
875.80
 20
1761.47
 30
16.50
  0
VERTEX
  8
BORDER_D0_T132_RK1_A0_W0_EM1_RI1_ID0007
 10
875.80
 20
1832.48
 30
16.50
  0
VERTEX
  8
BORDER_D0_T132_RK1_A0_W0_EM1_RI1_ID0007
 10
808.27
 20
1854.42
 30
16.50
  0
SEQEND
  8
BORDER_D0_T132_RK1_A0_W0_EM1_RI1_ID0007
  0
POLYLINE
  8
BORDER_D0_T132_RK1_A0_W0_EM1_RI1_ID0007
 70
1
 66
1
  0
VERTEX
  8
BORDER_D0_T132_RK1_A0_W0_EM1_RI1_ID0007
 10
680.74
 20
1947.04
 30
16.50
  0
VERTEX
  8
BORDER_D0_T132_RK1_A0_W0_EM1_RI1_ID0007
 10
748.27
 20
1968.99
 30
16.50
  0
VERTEX
  8
BORDER_D0_T132_RK1_A0_W0_EM1_RI1_ID0007
 10
748.27
 20
2040.00
 30
16.50
  0
VERTEX
  8
BORDER_D0_T132_RK1_A0_W0_EM1_RI1_ID0007
 10
790.01
 20
1982.55
 30
16.50
  0
VERTEX
  8
BORDER_D0_T132_RK1_A0_W0_EM1_RI1_ID0007
 10
857.55
 20
2004.49
 30
16.50
  0
VERTEX
  8
BORDER_D0_T132_RK1_A0_W0_EM1_RI1_ID0007
 10
815.81
 20
1947.04
 30
16.50
  0
VERTEX
  8
BORDER_D0_T132_RK1_A0_W0_EM1_RI1_ID0007
 10
857.55
 20
1889.59
 30
16.50
  0
VERTEX
  8
BORDER_D0_T132_RK1_A0_W0_EM1_RI1_ID0007
 10
790.01
 20
1911.54
 30
16.50
  0
VERTEX
  8
BORDER_D0_T132_RK1_A0_W0_EM1_RI1_ID0007
 10
748.27
 20
1854.09
 30
16.50
  0
VERTEX
  8
BORDER_D0_T132_RK1_A0_W0_EM1_RI1_ID0007
 10
748.27
 20
1925.10
 30
16.50
  0
VERTEX
  8
BORDER_D0_T132_RK1_A0_W0_EM1_RI1_ID0007
 10
680.74
 20
1947.04
 30
16.50
  0
SEQEND
  8
BORDER_D0_T132_RK1_A0_W0_EM1_RI1_ID0007
  0
POLYLINE
  8
BORDER_D0_T132_RK1_A0_W0_EM1_RI1_ID0017
 70
1
 66
1
  0
VERTEX
  8
BORDER_D0_T132_RK1_A0_W0_EM1_RI1_ID0017
 10
444.10
 20
2040.00
 30
16.50
 42
-0.076784
  0
VERTEX
  8
BORDER_D0_T132_RK1_A0_W0_EM1_RI1_ID0017
 10
519.48
 20
2028.26
 30
16.50
 42
-0.068057
  0
VERTEX
  8
BORDER_D0_T132_RK1_A0_W0_EM1_RI1_ID0017
 10
592.57
 20
1993.39
 30
16.50
 42
-0.056097
  0
VERTEX
  8
BORDER_D0_T132_RK1_A0_W0_EM1_RI1_ID0017
 10
661.15
 20
1936.44
 30
16.50
 42
-0.045361
  0
VERTEX
  8
BORDER_D0_T132_RK1_A0_W0_EM1_RI1_ID0017
 10
723.13
 20
1859.16
 30
16.50
 42
-0.037263
  0
VERTEX
  8
BORDER_D0_T132_RK1_A0_W0_EM1_RI1_ID0017
 10
776.64
 20
1763.89
 30
16.50
 42
-0.031618
  0
VERTEX
  8
BORDER_D0_T132_RK1_A0_W0_EM1_RI1_ID0017
 10
820.04
 20
1653.53
 30
16.50
 42
-0.027907
  0
VERTEX
  8
BORDER_D0_T132_RK1_A0_W0_EM1_RI1_ID0017
 10
852.02
 20
1531.41
 30
16.50
 42
-0.025666
  0
VERTEX
  8
BORDER_D0_T132_RK1_A0_W0_EM1_RI1_ID0017
 10
871.60
 20
1401.27
 30
16.50
 42
-0.024617
  0
VERTEX
  8
BORDER_D0_T132_RK1_A0_W0_EM1_RI1_ID0017
 10
878.20
 20
1267.05
 30
16.50
 42
-0.024617
  0
VERTEX
  8
BORDER_D0_T132_RK1_A0_W0_EM1_RI1_ID0017
 10
871.60
 20
1132.83
 30
16.50
 42
-0.025666
  0
VERTEX
  8
BORDER_D0_T132_RK1_A0_W0_EM1_RI1_ID0017
 10
852.02
 20
1002.69
 30
16.50
 42
-0.027905
  0
VERTEX
  8
BORDER_D0_T132_RK1_A0_W0_EM1_RI1_ID0017
 10
820.04
 20
880.58
 30
16.50
 42
-0.031620
  0
VERTEX
  8
BORDER_D0_T132_RK1_A0_W0_EM1_RI1_ID0017
 10
776.64
 20
770.21
 30
16.50
 42
-0.037263
  0
VERTEX
  8
BORDER_D0_T132_RK1_A0_W0_EM1_RI1_ID0017
 10
723.13
 20
674.94
 30
16.50
 42
-0.045361
  0
VERTEX
  8
BORDER_D0_T132_RK1_A0_W0_EM1_RI1_ID0017
 10
661.15
 20
597.66
 30
16.50
 42
-0.056093
  0
VERTEX
  8
BORDER_D0_T132_RK1_A0_W0_EM1_RI1_ID0017
 10
592.57
 20
540.72
 30
16.50
 42
-0.068061
  0
VERTEX
  8
BORDER_D0_T132_RK1_A0_W0_EM1_RI1_ID0017
 10
519.48
 20
505.84
 30
16.50
 42
-0.076784
  0
VERTEX
  8
BORDER_D0_T132_RK1_A0_W0_EM1_RI1_ID0017
 10
444.10
 20
494.10
 30
16.50
 42
-0.076784
  0
VERTEX
  8
BORDER_D0_T132_RK1_A0_W0_EM1_RI1_ID0017
 10
368.72
 20
505.84
 30
16.50
 42
-0.068061
  0
VERTEX
  8
BORDER_D0_T132_RK1_A0_W0_EM1_RI1_ID0017
 10
295.63
 20
540.72
 30
16.50
 42
-0.056093
  0
VERTEX
  8
BORDER_D0_T132_RK1_A0_W0_EM1_RI1_ID0017
 10
227.05
 20
597.66
 30
16.50
 42
-0.045361
  0
VERTEX
  8
BORDER_D0_T132_RK1_A0_W0_EM1_RI1_ID0017
 10
165.07
 20
674.94
 30
16.50
 42
-0.037263
  0
VERTEX
  8
BORDER_D0_T132_RK1_A0_W0_EM1_RI1_ID0017
 10
111.56
 20
770.21
 30
16.50
 42
-0.031620
  0
VERTEX
  8
BORDER_D0_T132_RK1_A0_W0_EM1_RI1_ID0017
 10
68.16
 20
880.58
 30
16.50
 42
-0.027905
  0
VERTEX
  8
BORDER_D0_T132_RK1_A0_W0_EM1_RI1_ID0017
 10
36.18
 20
1002.69
 30
16.50
 42
-0.025667
  0
VERTEX
  8
BORDER_D0_T132_RK1_A0_W0_EM1_RI1_ID0017
 10
16.59
 20
1132.83
 30
16.50
 42
-0.024617
  0
VERTEX
  8
BORDER_D0_T132_RK1_A0_W0_EM1_RI1_ID0017
 10
10.00
 20
1267.05
 30
16.50
 42
-0.024617
  0
VERTEX
  8
BORDER_D0_T132_RK1_A0_W0_EM1_RI1_ID0017
 10
16.59
 20
1401.27
 30
16.50
 42
-0.025667
  0
VERTEX
  8
BORDER_D0_T132_RK1_A0_W0_EM1_RI1_ID0017
 10
36.18
 20
1531.41
 30
16.50
 42
-0.027907
  0
VERTEX
  8
BORDER_D0_T132_RK1_A0_W0_EM1_RI1_ID0017
 10
68.16
 20
1653.53
 30
16.50
 42
-0.031618
  0
VERTEX
  8
BORDER_D0_T132_RK1_A0_W0_EM1_RI1_ID0017
 10
111.56
 20
1763.89
 30
16.50
 42
-0.037263
  0
VERTEX
  8
BORDER_D0_T132_RK1_A0_W0_EM1_RI1_ID0017
 10
165.07
 20
1859.16
 30
16.50
 42
-0.045361
  0
VERTEX
  8
BORDER_D0_T132_RK1_A0_W0_EM1_RI1_ID0017
 10
227.05
 20
1936.44
 30
16.50
 42
-0.056097
  0
VERTEX
  8
BORDER_D0_T132_RK1_A0_W0_EM1_RI1_ID0017
 10
295.63
 20
1993.39
 30
16.50
 42
-0.068057
  0
VERTEX
  8
BORDER_D0_T132_RK1_A0_W0_EM1_RI1_ID0017
 10
368.72
 20
2028.26
 30
16.50
 42
-0.076784
  0
VERTEX
  8
BORDER_D0_T132_RK1_A0_W0_EM1_RI1_ID0017
 10
444.10
 20
2040.00
 30
16.50
  0
SEQEND
  8
BORDER_D0_T132_RK1_A0_W0_EM1_RI1_ID0017
  0
POLYLINE
  8
BORDER_D0_T132_RK1_A0_W0_EM1_RI1_ID0007
 70
1
 66
1
  0
VERTEX
  8
BORDER_D0_T132_RK1_A0_W0_EM1_RI1_ID0007
 10
186.81
 20
1947.05
 30
16.50
  0
VERTEX
  8
BORDER_D0_T132_RK1_A0_W0_EM1_RI1_ID0007
 10
119.28
 20
1925.10
 30
16.50
  0
VERTEX
  8
BORDER_D0_T132_RK1_A0_W0_EM1_RI1_ID0007
 10
119.28
 20
1854.09
 30
16.50
  0
VERTEX
  8
BORDER_D0_T132_RK1_A0_W0_EM1_RI1_ID0007
 10
77.54
 20
1911.54
 30
16.50
  0
VERTEX
  8
BORDER_D0_T132_RK1_A0_W0_EM1_RI1_ID0007
 10
10.00
 20
1889.60
 30
16.50
  0
VERTEX
  8
BORDER_D0_T132_RK1_A0_W0_EM1_RI1_ID0007
 10
51.74
 20
1947.05
 30
16.50
  0
VERTEX
  8
BORDER_D0_T132_RK1_A0_W0_EM1_RI1_ID0007
 10
10.00
 20
2004.50
 30
16.50
  0
VERTEX
  8
BORDER_D0_T132_RK1_A0_W0_EM1_RI1_ID0007
 10
77.54
 20
1982.55
 30
16.50
  0
VERTEX
  8
BORDER_D0_T132_RK1_A0_W0_EM1_RI1_ID0007
 10
119.28
 20
2040.00
 30
16.50
  0
VERTEX
  8
BORDER_D0_T132_RK1_A0_W0_EM1_RI1_ID0007
 10
119.28
 20
1968.99
 30
16.50
  0
VERTEX
  8
BORDER_D0_T132_RK1_A0_W0_EM1_RI1_ID0007
 10
186.81
 20
1947.05
 30
16.50
  0
SEQEND
  8
BORDER_D0_T132_RK1_A0_W0_EM1_RI1_ID0007
  0
POLYLINE
  8
BORDER_D0_T132_RK1_A0_W0_EM1_RI1_ID0018
 70
1
 66
1
  0
VERTEX
  8
BORDER_D0_T132_RK1_A0_W0_EM1_RI1_ID0018
 10
1848.63
 20
430.51
 30
16.50
 42
-0.106572
  0
VERTEX
  8
BORDER_D0_T132_RK1_A0_W0_EM1_RI1_ID0018
 10
1844.89
 20
413.54
 30
16.50
 42
-0.081329
  0
VERTEX
  8
BORDER_D0_T132_RK1_A0_W0_EM1_RI1_ID0018
 10
1833.80
 20
397.08
 30
16.50
 42
-0.056349
  0
VERTEX
  8
BORDER_D0_T132_RK1_A0_W0_EM1_RI1_ID0018
 10
1815.68
 20
381.64
 30
16.50
 42
-0.039882
  0
VERTEX
  8
BORDER_D0_T132_RK1_A0_W0_EM1_RI1_ID0018
 10
1791.09
 20
367.68
 30
16.50
 42
-0.029934
  0
VERTEX
  8
BORDER_D0_T132_RK1_A0_W0_EM1_RI1_ID0018
 10
1760.78
 20
355.64
 30
16.50
 42
-0.023970
  0
VERTEX
  8
BORDER_D0_T132_RK1_A0_W0_EM1_RI1_ID0018
 10
1725.66
 20
345.87
 30
16.50
 42
-0.020392
  0
VERTEX
  8
BORDER_D0_T132_RK1_A0_W0_EM1_RI1_ID0018
 10
1686.81
 20
338.66
 30
16.50
 42
-0.018360
  0
VERTEX
  8
BORDER_D0_T132_RK1_A0_W0_EM1_RI1_ID0018
 10
1645.40
 20
334.26
 30
16.50
 42
-0.017437
  0
VERTEX
  8
BORDER_D0_T132_RK1_A0_W0_EM1_RI1_ID0018
 10
1602.69
 20
332.77
 30
16.50
 42
-0.017437
  0
VERTEX
  8
BORDER_D0_T132_RK1_A0_W0_EM1_RI1_ID0018
 10
1559.98
 20
334.26
 30
16.50
 42
-0.018360
  0
VERTEX
  8
BORDER_D0_T132_RK1_A0_W0_EM1_RI1_ID0018
 10
1518.57
 20
338.66
 30
16.50
 42
-0.020392
  0
VERTEX
  8
BORDER_D0_T132_RK1_A0_W0_EM1_RI1_ID0018
 10
1479.72
 20
345.87
 30
16.50
 42
-0.023970
  0
VERTEX
  8
BORDER_D0_T132_RK1_A0_W0_EM1_RI1_ID0018
 10
1444.60
 20
355.64
 30
16.50
 42
-0.029934
  0
VERTEX
  8
BORDER_D0_T132_RK1_A0_W0_EM1_RI1_ID0018
 10
1414.29
 20
367.68
 30
16.50
 42
-0.039882
  0
VERTEX
  8
BORDER_D0_T132_RK1_A0_W0_EM1_RI1_ID0018
 10
1389.70
 20
381.64
 30
16.50
 42
-0.056349
  0
VERTEX
  8
BORDER_D0_T132_RK1_A0_W0_EM1_RI1_ID0018
 10
1371.58
 20
397.08
 30
16.50
 42
-0.081329
  0
VERTEX
  8
BORDER_D0_T132_RK1_A0_W0_EM1_RI1_ID0018
 10
1360.49
 20
413.54
 30
16.50
 42
-0.106572
  0
VERTEX
  8
BORDER_D0_T132_RK1_A0_W0_EM1_RI1_ID0018
 10
1356.75
 20
430.51
 30
16.50
 42
-0.106572
  0
VERTEX
  8
BORDER_D0_T132_RK1_A0_W0_EM1_RI1_ID0018
 10
1360.49
 20
447.48
 30
16.50
 42
-0.081329
  0
VERTEX
  8
BORDER_D0_T132_RK1_A0_W0_EM1_RI1_ID0018
 10
1371.58
 20
463.94
 30
16.50
 42
-0.056349
  0
VERTEX
  8
BORDER_D0_T132_RK1_A0_W0_EM1_RI1_ID0018
 10
1389.70
 20
479.38
 30
16.50
 42
-0.039882
  0
VERTEX
  8
BORDER_D0_T132_RK1_A0_W0_EM1_RI1_ID0018
 10
1414.29
 20
493.34
 30
16.50
 42
-0.029934
  0
VERTEX
  8
BORDER_D0_T132_RK1_A0_W0_EM1_RI1_ID0018
 10
1444.60
 20
505.38
 30
16.50
 42
-0.023970
  0
VERTEX
  8
BORDER_D0_T132_RK1_A0_W0_EM1_RI1_ID0018
 10
1479.72
 20
515.15
 30
16.50
 42
-0.020392
  0
VERTEX
  8
BORDER_D0_T132_RK1_A0_W0_EM1_RI1_ID0018
 10
1518.57
 20
522.36
 30
16.50
 42
-0.018360
  0
VERTEX
  8
BORDER_D0_T132_RK1_A0_W0_EM1_RI1_ID0018
 10
1559.98
 20
526.76
 30
16.50
 42
-0.017437
  0
VERTEX
  8
BORDER_D0_T132_RK1_A0_W0_EM1_RI1_ID0018
 10
1602.69
 20
528.25
 30
16.50
 42
-0.017437
  0
VERTEX
  8
BORDER_D0_T132_RK1_A0_W0_EM1_RI1_ID0018
 10
1645.40
 20
526.76
 30
16.50
 42
-0.018360
  0
VERTEX
  8
BORDER_D0_T132_RK1_A0_W0_EM1_RI1_ID0018
 10
1686.81
 20
522.36
 30
16.50
 42
-0.020392
  0
VERTEX
  8
BORDER_D0_T132_RK1_A0_W0_EM1_RI1_ID0018
 10
1725.66
 20
515.15
 30
16.50
 42
-0.023970
  0
VERTEX
  8
BORDER_D0_T132_RK1_A0_W0_EM1_RI1_ID0018
 10
1760.78
 20
505.38
 30
16.50
 42
-0.029934
  0
VERTEX
  8
BORDER_D0_T132_RK1_A0_W0_EM1_RI1_ID0018
 10
1791.09
 20
493.34
 30
16.50
 42
-0.039882
  0
VERTEX
  8
BORDER_D0_T132_RK1_A0_W0_EM1_RI1_ID0018
 10
1815.68
 20
479.38
 30
16.50
 42
-0.056349
  0
VERTEX
  8
BORDER_D0_T132_RK1_A0_W0_EM1_RI1_ID0018
 10
1833.80
 20
463.94
 30
16.50
 42
-0.081329
  0
VERTEX
  8
BORDER_D0_T132_RK1_A0_W0_EM1_RI1_ID0018
 10
1844.89
 20
447.48
 30
16.50
 42
-0.106572
  0
VERTEX
  8
BORDER_D0_T132_RK1_A0_W0_EM1_RI1_ID0018
 10
1848.63
 20
430.51
 30
16.50
  0
SEQEND
  8
BORDER_D0_T132_RK1_A0_W0_EM1_RI1_ID0018
  0
POLYLINE
  8
BORDER_D0_T132_RK1_A0_W0_EM1_RI1_ID0028
 70
1
 66
1
  0
VERTEX
  8
BORDER_D0_T132_RK1_A0_W0_EM1_RI1_ID0028
 10
1712.95
 20
112.53
 30
16.50
  0
VERTEX
  8
BORDER_D0_T132_RK1_A0_W0_EM1_RI1_ID0028
 10
2040.87
 20
112.53
 30
16.50
  0
VERTEX
  8
BORDER_D0_T132_RK1_A0_W0_EM1_RI1_ID0028
 10
2040.87
 20
92.98
 30
16.50
  0
VERTEX
  8
BORDER_D0_T132_RK1_A0_W0_EM1_RI1_ID0028
 10
1712.95
 20
92.98
 30
16.50
 42
-0.220734
  0
VERTEX
  8
BORDER_D0_T132_RK1_A0_W0_EM1_RI1_ID0028
 10
1560.90
 20
155.96
 30
16.50
  0
VERTEX
  8
BORDER_D0_T132_RK1_A0_W0_EM1_RI1_ID0028
 10
1574.73
 20
169.78
 30
16.50
 42
0.198903
  0
VERTEX
  8
BORDER_D0_T132_RK1_A0_W0_EM1_RI1_ID0028
 10
1712.95
 20
112.53
 30
16.50
  0
SEQEND
  8
BORDER_D0_T132_RK1_A0_W0_EM1_RI1_ID0028
  0
POLYLINE
  8
BORDER_D0_T132_RK1_A0_W0_EM1_RI1_ID0019
 70
1
 66
1
  0
VERTEX
  8
BORDER_D0_T132_RK1_A0_W0_EM1_RI1_ID0019
 10
782.95
 20
81.16
 30
16.50
  0
VERTEX
  8
BORDER_D0_T132_RK1_A0_W0_EM1_RI1_ID0019
 10
10.00
 20
81.16
 30
16.50
 42
-0.076784
  0
VERTEX
  8
BORDER_D0_T132_RK1_A0_W0_EM1_RI1_ID0019
 10
21.74
 20
156.54
 30
16.50
 42
-0.068061
  0
VERTEX
  8
BORDER_D0_T132_RK1_A0_W0_EM1_RI1_ID0019
 10
56.62
 20
229.63
 30
16.50
 42
-0.056093
  0
VERTEX
  8
BORDER_D0_T132_RK1_A0_W0_EM1_RI1_ID0019
 10
113.56
 20
298.21
 30
16.50
 42
-0.045361
  0
VERTEX
  8
BORDER_D0_T132_RK1_A0_W0_EM1_RI1_ID0019
 10
190.84
 20
360.19
 30
16.50
 42
-0.037263
  0
VERTEX
  8
BORDER_D0_T132_RK1_A0_W0_EM1_RI1_ID0019
 10
286.11
 20
413.70
 30
16.50
 42
-0.031620
  0
VERTEX
  8
BORDER_D0_T132_RK1_A0_W0_EM1_RI1_ID0019
 10
396.48
 20
457.10
 30
16.50
 42
-0.027905
  0
VERTEX
  8
BORDER_D0_T132_RK1_A0_W0_EM1_RI1_ID0019
 10
518.59
 20
489.08
 30
16.50
 42
-0.025667
  0
VERTEX
  8
BORDER_D0_T132_RK1_A0_W0_EM1_RI1_ID0019
 10
648.73
 20
508.67
 30
16.50
 42
-0.024617
  0
VERTEX
  8
BORDER_D0_T132_RK1_A0_W0_EM1_RI1_ID0019
 10
782.95
 20
515.26
 30
16.50
 42
-0.024617
  0
VERTEX
  8
BORDER_D0_T132_RK1_A0_W0_EM1_RI1_ID0019
 10
917.17
 20
508.67
 30
16.50
 42
-0.025667
  0
VERTEX
  8
BORDER_D0_T132_RK1_A0_W0_EM1_RI1_ID0019
 10
1047.31
 20
489.08
 30
16.50
 42
-0.027907
  0
VERTEX
  8
BORDER_D0_T132_RK1_A0_W0_EM1_RI1_ID0019
 10
1169.43
 20
457.10
 30
16.50
 42
-0.031618
  0
VERTEX
  8
BORDER_D0_T132_RK1_A0_W0_EM1_RI1_ID0019
 10
1279.79
 20
413.70
 30
16.50
 42
-0.037263
  0
VERTEX
  8
BORDER_D0_T132_RK1_A0_W0_EM1_RI1_ID0019
 10
1375.06
 20
360.19
 30
16.50
 42
-0.045361
  0
VERTEX
  8
BORDER_D0_T132_RK1_A0_W0_EM1_RI1_ID0019
 10
1452.34
 20
298.21
 30
16.50
 42
-0.056097
  0
VERTEX
  8
BORDER_D0_T132_RK1_A0_W0_EM1_RI1_ID0019
 10
1509.29
 20
229.63
 30
16.50
 42
-0.068057
  0
VERTEX
  8
BORDER_D0_T132_RK1_A0_W0_EM1_RI1_ID0019
 10
1544.16
 20
156.54
 30
16.50
 42
-0.076784
  0
VERTEX
  8
BORDER_D0_T132_RK1_A0_W0_EM1_RI1_ID0019
 10
1555.90
 20
81.16
 30
16.50
  0
VERTEX
  8
BORDER_D0_T132_RK1_A0_W0_EM1_RI1_ID0019
 10
782.95
 20
81.16
 30
16.50
  0
SEQEND
  8
BORDER_D0_T132_RK1_A0_W0_EM1_RI1_ID0019
  0
POLYLINE
  8
BORDER_D0_T132.1_RK1_A0_W0_EM1
 70
1
 66
1
  0
VERTEX
  8
BORDER_D0_T132.1_RK1_A0_W0_EM1
 10
205.48
 20
472.15
 30
18.20
  0
VERTEX
  8
BORDER_D0_T132.1_RK1_A0_W0_EM1
 10
205.48
 20
422.98
 30
18.20
 42
-0.333267
  0
VERTEX
  8
BORDER_D0_T132.1_RK1_A0_W0_EM1
 10
10.00
 20
422.98
 30
18.20
  0
VERTEX
  8
BORDER_D0_T132.1_RK1_A0_W0_EM1
 10
10.00
 20
472.15
 30
18.20
 42
0.469338
  0
VERTEX
  8
BORDER_D0_T132.1_RK1_A0_W0_EM1
 10
205.48
 20
472.15
 30
18.20
  0
SEQEND
  8
BORDER_D0_T132.1_RK1_A0_W0_EM1
  0
POLYLINE
  8
BORDER_D0_T132.1_RK1_A0_W0_EM1
 70
1
 66
1
  0
VERTEX
  8
BORDER_D0_T132.1_RK1_A0_W0_EM1
 10
205.48
 20
540.98
 30
18.20
  0
VERTEX
  8
BORDER_D0_T132.1_RK1_A0_W0_EM1
 10
205.48
 20
491.82
 30
18.20
 42
-0.333267
  0
VERTEX
  8
BORDER_D0_T132.1_RK1_A0_W0_EM1
 10
10.00
 20
491.82
 30
18.20
  0
VERTEX
  8
BORDER_D0_T132.1_RK1_A0_W0_EM1
 10
10.00
 20
540.98
 30
18.20
 42
0.469338
  0
VERTEX
  8
BORDER_D0_T132.1_RK1_A0_W0_EM1
 10
205.48
 20
540.98
 30
18.20
  0
SEQEND
  8
BORDER_D0_T132.1_RK1_A0_W0_EM1
  0
POLYLINE
  8
BORDER_D0_T132.1_RK1_A0_W0_EM1
 70
1
 66
1
  0
VERTEX
  8
BORDER_D0_T132.1_RK1_A0_W0_EM1
 10
186.81
 20
615.37
 30
18.20
  0
VERTEX
  8
BORDER_D0_T132.1_RK1_A0_W0_EM1
 10
119.28
 20
593.43
 30
18.20
  0
VERTEX
  8
BORDER_D0_T132.1_RK1_A0_W0_EM1
 10
119.28
 20
522.42
 30
18.20
  0
VERTEX
  8
BORDER_D0_T132.1_RK1_A0_W0_EM1
 10
77.54
 20
579.87
 30
18.20
  0
VERTEX
  8
BORDER_D0_T132.1_RK1_A0_W0_EM1
 10
10.00
 20
557.92
 30
18.20
  0
VERTEX
  8
BORDER_D0_T132.1_RK1_A0_W0_EM1
 10
51.74
 20
615.37
 30
18.20
  0
VERTEX
  8
BORDER_D0_T132.1_RK1_A0_W0_EM1
 10
10.00
 20
672.82
 30
18.20
  0
VERTEX
  8
BORDER_D0_T132.1_RK1_A0_W0_EM1
 10
77.54
 20
650.88
 30
18.20
  0
VERTEX
  8
BORDER_D0_T132.1_RK1_A0_W0_EM1
 10
119.28
 20
708.33
 30
18.20
  0
VERTEX
  8
BORDER_D0_T132.1_RK1_A0_W0_EM1
 10
119.28
 20
637.32
 30
18.20
  0
VERTEX
  8
BORDER_D0_T132.1_RK1_A0_W0_EM1
 10
186.81
 20
615.37
 30
18.20
  0
SEQEND
  8
BORDER_D0_T132.1_RK1_A0_W0_EM1
  0
POLYLINE
  8
BORDER_D0_T132.1_RK1_A0_W0_EM1
 70
1
 66
1
  0
VERTEX
  8
BORDER_D0_T132.1_RK1_A0_W0_EM1
 10
728.35
 20
650.00
 30
18.20
  0
VERTEX
  8
BORDER_D0_T132.1_RK1_A0_W0_EM1
 10
795.89
 20
671.94
 30
18.20
  0
VERTEX
  8
BORDER_D0_T132.1_RK1_A0_W0_EM1
 10
795.89
 20
742.96
 30
18.20
  0
VERTEX
  8
BORDER_D0_T132.1_RK1_A0_W0_EM1
 10
837.63
 20
685.51
 30
18.20
  0
VERTEX
  8
BORDER_D0_T132.1_RK1_A0_W0_EM1
 10
905.16
 20
707.45
 30
18.20
  0
VERTEX
  8
BORDER_D0_T132.1_RK1_A0_W0_EM1
 10
863.42
 20
650.00
 30
18.20
  0
VERTEX
  8
BORDER_D0_T132.1_RK1_A0_W0_EM1
 10
905.16
 20
592.55
 30
18.20
  0
VERTEX
  8
BORDER_D0_T132.1_RK1_A0_W0_EM1
 10
837.63
 20
614.49
 30
18.20
  0
VERTEX
  8
BORDER_D0_T132.1_RK1_A0_W0_EM1
 10
795.89
 20
557.04
 30
18.20
  0
VERTEX
  8
BORDER_D0_T132.1_RK1_A0_W0_EM1
 10
795.89
 20
628.06
 30
18.20
  0
VERTEX
  8
BORDER_D0_T132.1_RK1_A0_W0_EM1
 10
728.35
 20
650.00
 30
18.20
  0
SEQEND
  8
BORDER_D0_T132.1_RK1_A0_W0_EM1
  0
POLYLINE
  8
BORDER_D0_T132.1_RK1_A0_W0_EM1
 70
1
 66
1
  0
VERTEX
  8
BORDER_D0_T132.1_RK1_A0_W0_EM1
 10
899.82
 20
752.54
 30
18.20
  0
VERTEX
  8
BORDER_D0_T132.1_RK1_A0_W0_EM1
 10
948.98
 20
752.54
 30
18.20
 42
-0.333267
  0
VERTEX
  8
BORDER_D0_T132.1_RK1_A0_W0_EM1
 10
948.98
 20
557.06
 30
18.20
  0
VERTEX
  8
BORDER_D0_T132.1_RK1_A0_W0_EM1
 10
899.82
 20
557.06
 30
18.20
 42
0.469337
  0
VERTEX
  8
BORDER_D0_T132.1_RK1_A0_W0_EM1
 10
899.82
 20
752.54
 30
18.20
  0
SEQEND
  8
BORDER_D0_T132.1_RK1_A0_W0_EM1
  0
POLYLINE
  8
BORDER_D0_T132.1_RK1_A0_W0_EM1
 70
1
 66
1
  0
VERTEX
  8
BORDER_D0_T132.1_RK1_A0_W0_EM1
 10
1627.90
 20
675.00
 30
18.20
  0
VERTEX
  8
BORDER_D0_T132.1_RK1_A0_W0_EM1
 10
1695.43
 20
696.94
 30
18.20
  0
VERTEX
  8
BORDER_D0_T132.1_RK1_A0_W0_EM1
 10
1695.43
 20
767.96
 30
18.20
  0
VERTEX
  8
BORDER_D0_T132.1_RK1_A0_W0_EM1
 10
1737.17
 20
710.51
 30
18.20
  0
VERTEX
  8
BORDER_D0_T132.1_RK1_A0_W0_EM1
 10
1804.71
 20
732.45
 30
18.20
  0
VERTEX
  8
BORDER_D0_T132.1_RK1_A0_W0_EM1
 10
1762.97
 20
675.00
 30
18.20
  0
VERTEX
  8
BORDER_D0_T132.1_RK1_A0_W0_EM1
 10
1804.71
 20
617.55
 30
18.20
  0
VERTEX
  8
BORDER_D0_T132.1_RK1_A0_W0_EM1
 10
1737.17
 20
639.49
 30
18.20
  0
VERTEX
  8
BORDER_D0_T132.1_RK1_A0_W0_EM1
 10
1695.43
 20
582.04
 30
18.20
  0
VERTEX
  8
BORDER_D0_T132.1_RK1_A0_W0_EM1
 10
1695.43
 20
653.06
 30
18.20
  0
VERTEX
  8
BORDER_D0_T132.1_RK1_A0_W0_EM1
 10
1627.90
 20
675.00
 30
18.20
  0
SEQEND
  8
BORDER_D0_T132.1_RK1_A0_W0_EM1
  0
POLYLINE
  8
BORDER_D0_T132.1_RK1_A0_W0_EM1
 70
1
 66
1
  0
VERTEX
  8
BORDER_D0_T132.1_RK1_A0_W0_EM1
 10
1936.36
 20
615.54
 30
18.20
  0
VERTEX
  8
BORDER_D0_T132.1_RK1_A0_W0_EM1
 10
1936.36
 20
566.38
 30
18.20
 42
-0.333267
  0
VERTEX
  8
BORDER_D0_T132.1_RK1_A0_W0_EM1
 10
1740.88
 20
566.38
 30
18.20
  0
VERTEX
  8
BORDER_D0_T132.1_RK1_A0_W0_EM1
 10
1740.88
 20
615.54
 30
18.20
 42
0.469337
  0
VERTEX
  8
BORDER_D0_T132.1_RK1_A0_W0_EM1
 10
1936.36
 20
615.54
 30
18.20
  0
SEQEND
  8
BORDER_D0_T132.1_RK1_A0_W0_EM1
  0
POLYLINE
  8
BORDER_D0_T132.1_RK1_A0_W0_EM1
 70
1
 66
1
  0
VERTEX
  8
BORDER_D0_T132.1_RK1_A0_W0_EM1
 10
2016.13
 20
436.13
 30
18.20
  0
VERTEX
  8
BORDER_D0_T132.1_RK1_A0_W0_EM1
 10
1948.59
 20
414.19
 30
18.20
  0
VERTEX
  8
BORDER_D0_T132.1_RK1_A0_W0_EM1
 10
1948.59
 20
343.17
 30
18.20
  0
VERTEX
  8
BORDER_D0_T132.1_RK1_A0_W0_EM1
 10
1906.85
 20
400.62
 30
18.20
  0
VERTEX
  8
BORDER_D0_T132.1_RK1_A0_W0_EM1
 10
1839.31
 20
378.68
 30
18.20
  0
VERTEX
  8
BORDER_D0_T132.1_RK1_A0_W0_EM1
 10
1881.06
 20
436.13
 30
18.20
  0
VERTEX
  8
BORDER_D0_T132.1_RK1_A0_W0_EM1
 10
1839.31
 20
493.58
 30
18.20
  0
VERTEX
  8
BORDER_D0_T132.1_RK1_A0_W0_EM1
 10
1906.85
 20
471.64
 30
18.20
  0
VERTEX
  8
BORDER_D0_T132.1_RK1_A0_W0_EM1
 10
1948.59
 20
529.09
 30
18.20
  0
VERTEX
  8
BORDER_D0_T132.1_RK1_A0_W0_EM1
 10
1948.59
 20
458.07
 30
18.20
  0
VERTEX
  8
BORDER_D0_T132.1_RK1_A0_W0_EM1
 10
2016.13
 20
436.13
 30
18.20
  0
SEQEND
  8
BORDER_D0_T132.1_RK1_A0_W0_EM1
  0
POLYLINE
  8
BORDER_D0_T132.1_RK1_A0_W0_EM1
 70
1
 66
1
  0
VERTEX
  8
BORDER_D0_T132.1_RK1_A0_W0_EM1
 10
2100.50
 20
377.40
 30
18.20
  0
VERTEX
  8
BORDER_D0_T132.1_RK1_A0_W0_EM1
 10
2122.45
 20
309.86
 30
18.20
  0
VERTEX
  8
BORDER_D0_T132.1_RK1_A0_W0_EM1
 10
2193.46
 20
309.86
 30
18.20
  0
VERTEX
  8
BORDER_D0_T132.1_RK1_A0_W0_EM1
 10
2136.01
 20
268.12
 30
18.20
  0
VERTEX
  8
BORDER_D0_T132.1_RK1_A0_W0_EM1
 10
2157.95
 20
200.59
 30
18.20
  0
VERTEX
  8
BORDER_D0_T132.1_RK1_A0_W0_EM1
 10
2100.50
 20
242.33
 30
18.20
  0
VERTEX
  8
BORDER_D0_T132.1_RK1_A0_W0_EM1
 10
2043.05
 20
200.59
 30
18.20
  0
VERTEX
  8
BORDER_D0_T132.1_RK1_A0_W0_EM1
 10
2065.00
 20
268.12
 30
18.20
  0
VERTEX
  8
BORDER_D0_T132.1_RK1_A0_W0_EM1
 10
2007.55
 20
309.86
 30
18.20
  0
VERTEX
  8
BORDER_D0_T132.1_RK1_A0_W0_EM1
 10
2078.56
 20
309.86
 30
18.20
  0
VERTEX
  8
BORDER_D0_T132.1_RK1_A0_W0_EM1
 10
2100.50
 20
377.40
 30
18.20
  0
SEQEND
  8
BORDER_D0_T132.1_RK1_A0_W0_EM1
  0
POLYLINE
  8
BORDER_D0_T132.1_RK1_A0_W0_EM1
 70
1
 66
1
  0
VERTEX
  8
BORDER_D0_T132.1_RK1_A0_W0_EM1
 10
2036.55
 20
234.84
 30
18.20
 42
-0.106579
  0
VERTEX
  8
BORDER_D0_T132.1_RK1_A0_W0_EM1
 10
2032.82
 20
217.87
 30
18.20
 42
-0.081333
  0
VERTEX
  8
BORDER_D0_T132.1_RK1_A0_W0_EM1
 10
2021.72
 20
201.41
 30
18.20
 42
-0.056346
  0
VERTEX
  8
BORDER_D0_T132.1_RK1_A0_W0_EM1
 10
2003.60
 20
185.97
 30
18.20
 42
-0.039879
  0
VERTEX
  8
BORDER_D0_T132.1_RK1_A0_W0_EM1
 10
1979.01
 20
172.01
 30
18.20
 42
-0.029940
  0
VERTEX
  8
BORDER_D0_T132.1_RK1_A0_W0_EM1
 10
1948.70
 20
159.96
 30
18.20
 42
-0.023968
  0
VERTEX
  8
BORDER_D0_T132.1_RK1_A0_W0_EM1
 10
1913.58
 20
150.19
 30
18.20
 42
-0.020393
  0
VERTEX
  8
BORDER_D0_T132.1_RK1_A0_W0_EM1
 10
1874.73
 20
142.99
 30
18.20
 42
-0.018360
  0
VERTEX
  8
BORDER_D0_T132.1_RK1_A0_W0_EM1
 10
1833.32
 20
138.58
 30
18.20
 42
-0.017435
  0
VERTEX
  8
BORDER_D0_T132.1_RK1_A0_W0_EM1
 10
1790.61
 20
137.10
 30
18.20
 42
-0.017435
  0
VERTEX
  8
BORDER_D0_T132.1_RK1_A0_W0_EM1
 10
1747.91
 20
138.58
 30
18.20
 42
-0.018360
  0
VERTEX
  8
BORDER_D0_T132.1_RK1_A0_W0_EM1
 10
1706.50
 20
142.99
 30
18.20
 42
-0.020393
  0
VERTEX
  8
BORDER_D0_T132.1_RK1_A0_W0_EM1
 10
1667.64
 20
150.19
 30
18.20
 42
-0.023968
  0
VERTEX
  8
BORDER_D0_T132.1_RK1_A0_W0_EM1
 10
1632.53
 20
159.96
 30
18.20
 42
-0.029940
  0
VERTEX
  8
BORDER_D0_T132.1_RK1_A0_W0_EM1
 10
1602.21
 20
172.01
 30
18.20
 42
-0.039879
  0
VERTEX
  8
BORDER_D0_T132.1_RK1_A0_W0_EM1
 10
1577.62
 20
185.97
 30
18.20
 42
-0.056346
  0
VERTEX
  8
BORDER_D0_T132.1_RK1_A0_W0_EM1
 10
1559.50
 20
201.41
 30
18.20
 42
-0.081333
  0
VERTEX
  8
BORDER_D0_T132.1_RK1_A0_W0_EM1
 10
1548.41
 20
217.87
 30
18.20
 42
-0.106579
  0
VERTEX
  8
BORDER_D0_T132.1_RK1_A0_W0_EM1
 10
1544.67
 20
234.84
 30
18.20
 42
-0.106579
  0
VERTEX
  8
BORDER_D0_T132.1_RK1_A0_W0_EM1
 10
1548.41
 20
251.81
 30
18.20
 42
-0.081333
  0
VERTEX
  8
BORDER_D0_T132.1_RK1_A0_W0_EM1
 10
1559.50
 20
268.27
 30
18.20
 42
-0.056346
  0
VERTEX
  8
BORDER_D0_T132.1_RK1_A0_W0_EM1
 10
1577.62
 20
283.71
 30
18.20
 42
-0.039879
  0
VERTEX
  8
BORDER_D0_T132.1_RK1_A0_W0_EM1
 10
1602.21
 20
297.66
 30
18.20
 42
-0.029940
  0
VERTEX
  8
BORDER_D0_T132.1_RK1_A0_W0_EM1
 10
1632.53
 20
309.71
 30
18.20
 42
-0.023968
  0
VERTEX
  8
BORDER_D0_T132.1_RK1_A0_W0_EM1
 10
1667.64
 20
319.48
 30
18.20
 42
-0.020393
  0
VERTEX
  8
BORDER_D0_T132.1_RK1_A0_W0_EM1
 10
1706.50
 20
326.68
 30
18.20
 42
-0.018360
  0
VERTEX
  8
BORDER_D0_T132.1_RK1_A0_W0_EM1
 10
1747.91
 20
331.09
 30
18.20
 42
-0.017435
  0
VERTEX
  8
BORDER_D0_T132.1_RK1_A0_W0_EM1
 10
1790.61
 20
332.58
 30
18.20
 42
-0.017435
  0
VERTEX
  8
BORDER_D0_T132.1_RK1_A0_W0_EM1
 10
1833.32
 20
331.09
 30
18.20
 42
-0.018360
  0
VERTEX
  8
BORDER_D0_T132.1_RK1_A0_W0_EM1
 10
1874.73
 20
326.68
 30
18.20
 42
-0.020393
  0
VERTEX
  8
BORDER_D0_T132.1_RK1_A0_W0_EM1
 10
1913.58
 20
319.48
 30
18.20
 42
-0.023968
  0
VERTEX
  8
BORDER_D0_T132.1_RK1_A0_W0_EM1
 10
1948.70
 20
309.71
 30
18.20
 42
-0.029939
  0
VERTEX
  8
BORDER_D0_T132.1_RK1_A0_W0_EM1
 10
1979.01
 20
297.66
 30
18.20
 42
-0.039879
  0
VERTEX
  8
BORDER_D0_T132.1_RK1_A0_W0_EM1
 10
2003.60
 20
283.71
 30
18.20
 42
-0.056346
  0
VERTEX
  8
BORDER_D0_T132.1_RK1_A0_W0_EM1
 10
2021.72
 20
268.27
 30
18.20
 42
-0.081333
  0
VERTEX
  8
BORDER_D0_T132.1_RK1_A0_W0_EM1
 10
2032.82
 20
251.81
 30
18.20
 42
-0.106579
  0
VERTEX
  8
BORDER_D0_T132.1_RK1_A0_W0_EM1
 10
2036.55
 20
234.84
 30
18.20
  0
SEQEND
  8
BORDER_D0_T132.1_RK1_A0_W0_EM1
  0
POLYLINE
  8
BORDER_D0_T132.1_RK1_A0_W0_EM1
 70
1
 66
1
  0
VERTEX
  8
BORDER_D0_T132.1_RK1_A0_W0_EM1
 10
2195.78
 20
88.06
 30
18.20
  0
VERTEX
  8
BORDER_D0_T132.1_RK1_A0_W0_EM1
 10
2523.70
 20
88.06
 30
18.20
  0
VERTEX
  8
BORDER_D0_T132.1_RK1_A0_W0_EM1
 10
2523.70
 20
68.51
 30
18.20
  0
VERTEX
  8
BORDER_D0_T132.1_RK1_A0_W0_EM1
 10
2195.78
 20
68.51
 30
18.20
 42
-0.220731
  0
VERTEX
  8
BORDER_D0_T132.1_RK1_A0_W0_EM1
 10
2043.73
 20
131.49
 30
18.20
  0
VERTEX
  8
BORDER_D0_T132.1_RK1_A0_W0_EM1
 10
2057.55
 20
145.32
 30
18.20
 42
0.198912
  0
VERTEX
  8
BORDER_D0_T132.1_RK1_A0_W0_EM1
 10
2195.78
 20
88.06
 30
18.20
  0
SEQEND
  8
BORDER_D0_T132.1_RK1_A0_W0_EM1
  0
POLYLINE
  8
BORDER_D0_T132.1_RK1_A0_W0_EM1
 70
1
 66
1
  0
VERTEX
  8
BORDER_D0_T132.1_RK1_A0_W0_EM1
 10
2540.69
 20
10.00
 30
18.20
  0
VERTEX
  8
BORDER_D0_T132.1_RK1_A0_W0_EM1
 10
2540.69
 20
59.16
 30
18.20
 42
-0.333267
  0
VERTEX
  8
BORDER_D0_T132.1_RK1_A0_W0_EM1
 10
2736.17
 20
59.16
 30
18.20
  0
VERTEX
  8
BORDER_D0_T132.1_RK1_A0_W0_EM1
 10
2736.17
 20
10.00
 30
18.20
 42
0.469338
  0
VERTEX
  8
BORDER_D0_T132.1_RK1_A0_W0_EM1
 10
2540.69
 20
10.00
 30
18.20
  0
SEQEND
  8
BORDER_D0_T132.1_RK1_A0_W0_EM1
  0
POLYLINE
  8
BORDER_D0_T132.1_RK1_A0_W0_EM1
 70
1
 66
1
  0
VERTEX
  8
BORDER_D0_T132.1_RK1_A0_W0_EM1
 10
2787.87
 20
200.41
 30
18.20
 42
-0.106579
  0
VERTEX
  8
BORDER_D0_T132.1_RK1_A0_W0_EM1
 10
2784.14
 20
183.44
 30
18.20
 42
-0.081333
  0
VERTEX
  8
BORDER_D0_T132.1_RK1_A0_W0_EM1
 10
2773.04
 20
166.98
 30
18.20
 42
-0.056347
  0
VERTEX
  8
BORDER_D0_T132.1_RK1_A0_W0_EM1
 10
2754.92
 20
151.54
 30
18.20
 42
-0.039878
  0
VERTEX
  8
BORDER_D0_T132.1_RK1_A0_W0_EM1
 10
2730.33
 20
137.59
 30
18.20
 42
-0.029940
  0
VERTEX
  8
BORDER_D0_T132.1_RK1_A0_W0_EM1
 10
2700.02
 20
125.54
 30
18.20
 42
-0.023968
  0
VERTEX
  8
BORDER_D0_T132.1_RK1_A0_W0_EM1
 10
2664.90
 20
115.77
 30
18.20
 42
-0.020393
  0
VERTEX
  8
BORDER_D0_T132.1_RK1_A0_W0_EM1
 10
2626.05
 20
108.57
 30
18.20
 42
-0.018360
  0
VERTEX
  8
BORDER_D0_T132.1_RK1_A0_W0_EM1
 10
2584.64
 20
104.16
 30
18.20
 42
-0.017435
  0
VERTEX
  8
BORDER_D0_T132.1_RK1_A0_W0_EM1
 10
2541.93
 20
102.67
 30
18.20
 42
-0.017435
  0
VERTEX
  8
BORDER_D0_T132.1_RK1_A0_W0_EM1
 10
2499.22
 20
104.16
 30
18.20
 42
-0.018360
  0
VERTEX
  8
BORDER_D0_T132.1_RK1_A0_W0_EM1
 10
2457.81
 20
108.57
 30
18.20
 42
-0.020393
  0
VERTEX
  8
BORDER_D0_T132.1_RK1_A0_W0_EM1
 10
2418.96
 20
115.77
 30
18.20
 42
-0.023968
  0
VERTEX
  8
BORDER_D0_T132.1_RK1_A0_W0_EM1
 10
2383.84
 20
125.54
 30
18.20
 42
-0.029940
  0
VERTEX
  8
BORDER_D0_T132.1_RK1_A0_W0_EM1
 10
2353.53
 20
137.59
 30
18.20
 42
-0.039879
  0
VERTEX
  8
BORDER_D0_T132.1_RK1_A0_W0_EM1
 10
2328.94
 20
151.54
 30
18.20
 42
-0.056346
  0
VERTEX
  8
BORDER_D0_T132.1_RK1_A0_W0_EM1
 10
2310.82
 20
166.98
 30
18.20
 42
-0.081333
  0
VERTEX
  8
BORDER_D0_T132.1_RK1_A0_W0_EM1
 10
2299.73
 20
183.44
 30
18.20
 42
-0.106579
  0
VERTEX
  8
BORDER_D0_T132.1_RK1_A0_W0_EM1
 10
2295.99
 20
200.41
 30
18.20
 42
-0.106579
  0
VERTEX
  8
BORDER_D0_T132.1_RK1_A0_W0_EM1
 10
2299.73
 20
217.38
 30
18.20
 42
-0.081333
  0
VERTEX
  8
BORDER_D0_T132.1_RK1_A0_W0_EM1
 10
2310.82
 20
233.84
 30
18.20
 42
-0.056346
  0
VERTEX
  8
BORDER_D0_T132.1_RK1_A0_W0_EM1
 10
2328.94
 20
249.28
 30
18.20
 42
-0.039879
  0
VERTEX
  8
BORDER_D0_T132.1_RK1_A0_W0_EM1
 10
2353.53
 20
263.24
 30
18.20
 42
-0.029940
  0
VERTEX
  8
BORDER_D0_T132.1_RK1_A0_W0_EM1
 10
2383.84
 20
275.29
 30
18.20
 42
-0.023968
  0
VERTEX
  8
BORDER_D0_T132.1_RK1_A0_W0_EM1
 10
2418.96
 20
285.06
 30
18.20
 42
-0.020393
  0
VERTEX
  8
BORDER_D0_T132.1_RK1_A0_W0_EM1
 10
2457.81
 20
292.26
 30
18.20
 42
-0.018360
  0
VERTEX
  8
BORDER_D0_T132.1_RK1_A0_W0_EM1
 10
2499.22
 20
296.67
 30
18.20
 42
-0.017435
  0
VERTEX
  8
BORDER_D0_T132.1_RK1_A0_W0_EM1
 10
2541.93
 20
298.15
 30
18.20
 42
-0.017435
  0
VERTEX
  8
BORDER_D0_T132.1_RK1_A0_W0_EM1
 10
2584.64
 20
296.67
 30
18.20
 42
-0.018360
  0
VERTEX
  8
BORDER_D0_T132.1_RK1_A0_W0_EM1
 10
2626.05
 20
292.26
 30
18.20
 42
-0.020393
  0
VERTEX
  8
BORDER_D0_T132.1_RK1_A0_W0_EM1
 10
2664.90
 20
285.06
 30
18.20
 42
-0.023968
  0
VERTEX
  8
BORDER_D0_T132.1_RK1_A0_W0_EM1
 10
2700.02
 20
275.29
 30
18.20
 42
-0.029940
  0
VERTEX
  8
BORDER_D0_T132.1_RK1_A0_W0_EM1
 10
2730.33
 20
263.24
 30
18.20
 42
-0.039878
  0
VERTEX
  8
BORDER_D0_T132.1_RK1_A0_W0_EM1
 10
2754.92
 20
249.28
 30
18.20
 42
-0.056347
  0
VERTEX
  8
BORDER_D0_T132.1_RK1_A0_W0_EM1
 10
2773.04
 20
233.84
 30
18.20
 42
-0.081333
  0
VERTEX
  8
BORDER_D0_T132.1_RK1_A0_W0_EM1
 10
2784.14
 20
217.38
 30
18.20
 42
-0.106579
  0
VERTEX
  8
BORDER_D0_T132.1_RK1_A0_W0_EM1
 10
2787.87
 20
200.41
 30
18.20
  0
SEQEND
  8
BORDER_D0_T132.1_RK1_A0_W0_EM1
  0
POLYLINE
  8
BORDER_D0_T132.1_RK1_A0_W0_EM1
 70
1
 66
1
  0
VERTEX
  8
BORDER_D0_T132.1_RK1_A0_W0_EM1
 10
2639.16
 20
401.57
 30
18.20
 42
-0.106579
  0
VERTEX
  8
BORDER_D0_T132.1_RK1_A0_W0_EM1
 10
2635.43
 20
384.60
 30
18.20
 42
-0.081333
  0
VERTEX
  8
BORDER_D0_T132.1_RK1_A0_W0_EM1
 10
2624.33
 20
368.14
 30
18.20
 42
-0.056347
  0
VERTEX
  8
BORDER_D0_T132.1_RK1_A0_W0_EM1
 10
2606.21
 20
352.70
 30
18.20
 42
-0.039878
  0
VERTEX
  8
BORDER_D0_T132.1_RK1_A0_W0_EM1
 10
2581.62
 20
338.75
 30
18.20
 42
-0.029940
  0
VERTEX
  8
BORDER_D0_T132.1_RK1_A0_W0_EM1
 10
2551.31
 20
326.70
 30
18.20
 42
-0.023968
  0
VERTEX
  8
BORDER_D0_T132.1_RK1_A0_W0_EM1
 10
2516.19
 20
316.93
 30
18.20
 42
-0.020393
  0
VERTEX
  8
BORDER_D0_T132.1_RK1_A0_W0_EM1
 10
2477.34
 20
309.73
 30
18.20
 42
-0.018360
  0
VERTEX
  8
BORDER_D0_T132.1_RK1_A0_W0_EM1
 10
2435.93
 20
305.32
 30
18.20
 42
-0.017435
  0
VERTEX
  8
BORDER_D0_T132.1_RK1_A0_W0_EM1
 10
2393.22
 20
303.83
 30
18.20
 42
-0.017435
  0
VERTEX
  8
BORDER_D0_T132.1_RK1_A0_W0_EM1
 10
2350.51
 20
305.32
 30
18.20
 42
-0.018360
  0
VERTEX
  8
BORDER_D0_T132.1_RK1_A0_W0_EM1
 10
2309.11
 20
309.73
 30
18.20
 42
-0.020393
  0
VERTEX
  8
BORDER_D0_T132.1_RK1_A0_W0_EM1
 10
2270.25
 20
316.93
 30
18.20
 42
-0.023968
  0
VERTEX
  8
BORDER_D0_T132.1_RK1_A0_W0_EM1
 10
2235.14
 20
326.70
 30
18.20
 42
-0.029940
  0
VERTEX
  8
BORDER_D0_T132.1_RK1_A0_W0_EM1
 10
2204.82
 20
338.75
 30
18.20
 42
-0.039879
  0
VERTEX
  8
BORDER_D0_T132.1_RK1_A0_W0_EM1
 10
2180.23
 20
352.70
 30
18.20
 42
-0.056346
  0
VERTEX
  8
BORDER_D0_T132.1_RK1_A0_W0_EM1
 10
2162.11
 20
368.14
 30
18.20
 42
-0.081333
  0
VERTEX
  8
BORDER_D0_T132.1_RK1_A0_W0_EM1
 10
2151.02
 20
384.60
 30
18.20
 42
-0.106579
  0
VERTEX
  8
BORDER_D0_T132.1_RK1_A0_W0_EM1
 10
2147.28
 20
401.57
 30
18.20
 42
-0.106579
  0
VERTEX
  8
BORDER_D0_T132.1_RK1_A0_W0_EM1
 10
2151.02
 20
418.55
 30
18.20
 42
-0.081333
  0
VERTEX
  8
BORDER_D0_T132.1_RK1_A0_W0_EM1
 10
2162.11
 20
435.00
 30
18.20
 42
-0.056346
  0
VERTEX
  8
BORDER_D0_T132.1_RK1_A0_W0_EM1
 10
2180.23
 20
450.44
 30
18.20
 42
-0.039879
  0
VERTEX
  8
BORDER_D0_T132.1_RK1_A0_W0_EM1
 10
2204.82
 20
464.40
 30
18.20
 42
-0.029940
  0
VERTEX
  8
BORDER_D0_T132.1_RK1_A0_W0_EM1
 10
2235.14
 20
476.45
 30
18.20
 42
-0.023968
  0
VERTEX
  8
BORDER_D0_T132.1_RK1_A0_W0_EM1
 10
2270.25
 20
486.22
 30
18.20
 42
-0.020393
  0
VERTEX
  8
BORDER_D0_T132.1_RK1_A0_W0_EM1
 10
2309.11
 20
493.42
 30
18.20
 42
-0.018360
  0
VERTEX
  8
BORDER_D0_T132.1_RK1_A0_W0_EM1
 10
2350.51
 20
497.83
 30
18.20
 42
-0.017435
  0
VERTEX
  8
BORDER_D0_T132.1_RK1_A0_W0_EM1
 10
2393.22
 20
499.31
 30
18.20
 42
-0.017435
  0
VERTEX
  8
BORDER_D0_T132.1_RK1_A0_W0_EM1
 10
2435.93
 20
497.83
 30
18.20
 42
-0.018360
  0
VERTEX
  8
BORDER_D0_T132.1_RK1_A0_W0_EM1
 10
2477.34
 20
493.42
 30
18.20
 42
-0.020393
  0
VERTEX
  8
BORDER_D0_T132.1_RK1_A0_W0_EM1
 10
2516.19
 20
486.22
 30
18.20
 42
-0.023968
  0
VERTEX
  8
BORDER_D0_T132.1_RK1_A0_W0_EM1
 10
2551.31
 20
476.45
 30
18.20
 42
-0.029940
  0
VERTEX
  8
BORDER_D0_T132.1_RK1_A0_W0_EM1
 10
2581.62
 20
464.40
 30
18.20
 42
-0.039878
  0
VERTEX
  8
BORDER_D0_T132.1_RK1_A0_W0_EM1
 10
2606.21
 20
450.44
 30
18.20
 42
-0.056347
  0
VERTEX
  8
BORDER_D0_T132.1_RK1_A0_W0_EM1
 10
2624.33
 20
435.00
 30
18.20
 42
-0.081333
  0
VERTEX
  8
BORDER_D0_T132.1_RK1_A0_W0_EM1
 10
2635.43
 20
418.55
 30
18.20
 42
-0.106579
  0
VERTEX
  8
BORDER_D0_T132.1_RK1_A0_W0_EM1
 10
2639.16
 20
401.57
 30
18.20
  0
SEQEND
  8
BORDER_D0_T132.1_RK1_A0_W0_EM1
  0
POLYLINE
  8
BORDER_D0_T132.1_RK1_A0_W0_EM1
 70
1
 66
1
  0
VERTEX
  8
BORDER_D0_T132.1_RK1_A0_W0_EM1
 10
2734.65
 20
802.62
 30
18.20
  0
VERTEX
  8
BORDER_D0_T132.1_RK1_A0_W0_EM1
 10
2734.65
 20
310.74
 30
18.20
 42
-0.106580
  0
VERTEX
  8
BORDER_D0_T132.1_RK1_A0_W0_EM1
 10
2717.68
 20
314.48
 30
18.20
 42
-0.081332
  0
VERTEX
  8
BORDER_D0_T132.1_RK1_A0_W0_EM1
 10
2701.23
 20
325.58
 30
18.20
 42
-0.056347
  0
VERTEX
  8
BORDER_D0_T132.1_RK1_A0_W0_EM1
 10
2685.78
 20
343.69
 30
18.20
 42
-0.039878
  0
VERTEX
  8
BORDER_D0_T132.1_RK1_A0_W0_EM1
 10
2671.83
 20
368.28
 30
18.20
 42
-0.029940
  0
VERTEX
  8
BORDER_D0_T132.1_RK1_A0_W0_EM1
 10
2659.78
 20
398.60
 30
18.20
 42
-0.023968
  0
VERTEX
  8
BORDER_D0_T132.1_RK1_A0_W0_EM1
 10
2650.01
 20
433.71
 30
18.20
 42
-0.020393
  0
VERTEX
  8
BORDER_D0_T132.1_RK1_A0_W0_EM1
 10
2642.81
 20
472.57
 30
18.20
 42
-0.018360
  0
VERTEX
  8
BORDER_D0_T132.1_RK1_A0_W0_EM1
 10
2638.40
 20
513.98
 30
18.20
 42
-0.017435
  0
VERTEX
  8
BORDER_D0_T132.1_RK1_A0_W0_EM1
 10
2636.91
 20
556.68
 30
18.20
 42
-0.017435
  0
VERTEX
  8
BORDER_D0_T132.1_RK1_A0_W0_EM1
 10
2638.40
 20
599.39
 30
18.20
 42
-0.018360
  0
VERTEX
  8
BORDER_D0_T132.1_RK1_A0_W0_EM1
 10
2642.81
 20
640.80
 30
18.20
 42
-0.020393
  0
VERTEX
  8
BORDER_D0_T132.1_RK1_A0_W0_EM1
 10
2650.01
 20
679.65
 30
18.20
 42
-0.023968
  0
VERTEX
  8
BORDER_D0_T132.1_RK1_A0_W0_EM1
 10
2659.78
 20
714.77
 30
18.20
 42
-0.029940
  0
VERTEX
  8
BORDER_D0_T132.1_RK1_A0_W0_EM1
 10
2671.83
 20
745.08
 30
18.20
 42
-0.039878
  0
VERTEX
  8
BORDER_D0_T132.1_RK1_A0_W0_EM1
 10
2685.78
 20
769.67
 30
18.20
 42
-0.056347
  0
VERTEX
  8
BORDER_D0_T132.1_RK1_A0_W0_EM1
 10
2701.23
 20
787.79
 30
18.20
 42
-0.081332
  0
VERTEX
  8
BORDER_D0_T132.1_RK1_A0_W0_EM1
 10
2717.68
 20
798.89
 30
18.20
 42
-0.106580
  0
VERTEX
  8
BORDER_D0_T132.1_RK1_A0_W0_EM1
 10
2734.65
 20
802.62
 30
18.20
  0
SEQEND
  8
BORDER_D0_T132.1_RK1_A0_W0_EM1
  0
POLYLINE
  8
BORDER_D0_T132.1_RK1_A0_W0_EM1
 70
1
 66
1
  0
VERTEX
  8
BORDER_D0_T132.1_RK1_A0_W0_EM1
 10
2658.72
 20
1139.61
 30
18.20
  0
VERTEX
  8
BORDER_D0_T132.1_RK1_A0_W0_EM1
 10
2658.72
 20
1810.94
 30
18.20
  0
VERTEX
  8
BORDER_D0_T132.1_RK1_A0_W0_EM1
 10
2739.43
 20
1810.94
 30
18.20
  0
VERTEX
  8
BORDER_D0_T132.1_RK1_A0_W0_EM1
 10
2739.43
 20
1139.61
 30
18.20
 42
-0.220731
  0
VERTEX
  8
BORDER_D0_T132.1_RK1_A0_W0_EM1
 10
2479.39
 20
511.83
 30
18.20
  0
VERTEX
  8
BORDER_D0_T132.1_RK1_A0_W0_EM1
 10
2422.32
 20
568.90
 30
18.20
 42
0.198912
  0
VERTEX
  8
BORDER_D0_T132.1_RK1_A0_W0_EM1
 10
2658.72
 20
1139.61
 30
18.20
  0
SEQEND
  8
BORDER_D0_T132.1_RK1_A0_W0_EM1
  0
POLYLINE
  8
BORDER_D0_T132.1_RK1_A0_W0_EM1
 70
1
 66
1
  0
VERTEX
  8
BORDER_D0_T132.1_RK1_A0_W0_EM1
 10
2759.14
 20
1844.52
 30
18.20
  0
VERTEX
  8
BORDER_D0_T132.1_RK1_A0_W0_EM1
 10
2709.97
 20
1844.52
 30
18.20
 42
-0.333267
  0
VERTEX
  8
BORDER_D0_T132.1_RK1_A0_W0_EM1
 10
2709.97
 20
2040.00
 30
18.20
  0
VERTEX
  8
BORDER_D0_T132.1_RK1_A0_W0_EM1
 10
2759.14
 20
2040.00
 30
18.20
 42
0.469337
  0
VERTEX
  8
BORDER_D0_T132.1_RK1_A0_W0_EM1
 10
2759.14
 20
1844.52
 30
18.20
  0
SEQEND
  8
BORDER_D0_T132.1_RK1_A0_W0_EM1
  0
POLYLINE
  8
BORDER_D0_T132.1_RK1_A0_W0_EM1
 70
1
 66
1
  0
VERTEX
  8
BORDER_D0_T132.1_RK1_A0_W0_EM1
 10
2662.70
 20
1947.04
 30
18.20
  0
VERTEX
  8
BORDER_D0_T132.1_RK1_A0_W0_EM1
 10
2595.16
 20
1925.10
 30
18.20
  0
VERTEX
  8
BORDER_D0_T132.1_RK1_A0_W0_EM1
 10
2595.16
 20
1854.09
 30
18.20
  0
VERTEX
  8
BORDER_D0_T132.1_RK1_A0_W0_EM1
 10
2553.42
 20
1911.54
 30
18.20
  0
VERTEX
  8
BORDER_D0_T132.1_RK1_A0_W0_EM1
 10
2485.89
 20
1889.59
 30
18.20
  0
VERTEX
  8
BORDER_D0_T132.1_RK1_A0_W0_EM1
 10
2527.63
 20
1947.04
 30
18.20
  0
VERTEX
  8
BORDER_D0_T132.1_RK1_A0_W0_EM1
 10
2485.89
 20
2004.49
 30
18.20
  0
VERTEX
  8
BORDER_D0_T132.1_RK1_A0_W0_EM1
 10
2553.42
 20
1982.55
 30
18.20
  0
VERTEX
  8
BORDER_D0_T132.1_RK1_A0_W0_EM1
 10
2595.16
 20
2040.00
 30
18.20
  0
VERTEX
  8
BORDER_D0_T132.1_RK1_A0_W0_EM1
 10
2595.16
 20
1968.99
 30
18.20
  0
VERTEX
  8
BORDER_D0_T132.1_RK1_A0_W0_EM1
 10
2662.70
 20
1947.04
 30
18.20
  0
SEQEND
  8
BORDER_D0_T132.1_RK1_A0_W0_EM1
  0
POLYLINE
  8
BORDER_D0_T132.1_RK1_A0_W0_EM1
 70
1
 66
1
  0
VERTEX
  8
BORDER_D0_T132.1_RK1_A0_W0_EM1
 10
2209.90
 20
2040.00
 30
18.20
 42
-0.076786
  0
VERTEX
  8
BORDER_D0_T132.1_RK1_A0_W0_EM1
 10
2285.28
 20
2028.26
 30
18.20
 42
-0.068058
  0
VERTEX
  8
BORDER_D0_T132.1_RK1_A0_W0_EM1
 10
2358.37
 20
1993.39
 30
18.20
 42
-0.056093
  0
VERTEX
  8
BORDER_D0_T132.1_RK1_A0_W0_EM1
 10
2426.95
 20
1936.44
 30
18.20
 42
-0.045362
  0
VERTEX
  8
BORDER_D0_T132.1_RK1_A0_W0_EM1
 10
2488.93
 20
1859.16
 30
18.20
 42
-0.037263
  0
VERTEX
  8
BORDER_D0_T132.1_RK1_A0_W0_EM1
 10
2542.44
 20
1763.89
 30
18.20
 42
-0.031620
  0
VERTEX
  8
BORDER_D0_T132.1_RK1_A0_W0_EM1
 10
2585.84
 20
1653.53
 30
18.20
 42
-0.027905
  0
VERTEX
  8
BORDER_D0_T132.1_RK1_A0_W0_EM1
 10
2617.82
 20
1531.41
 30
18.20
 42
-0.025667
  0
VERTEX
  8
BORDER_D0_T132.1_RK1_A0_W0_EM1
 10
2637.41
 20
1401.27
 30
18.20
 42
-0.024617
  0
VERTEX
  8
BORDER_D0_T132.1_RK1_A0_W0_EM1
 10
2644.00
 20
1267.05
 30
18.20
 42
-0.024617
  0
VERTEX
  8
BORDER_D0_T132.1_RK1_A0_W0_EM1
 10
2637.41
 20
1132.83
 30
18.20
 42
-0.025667
  0
VERTEX
  8
BORDER_D0_T132.1_RK1_A0_W0_EM1
 10
2617.82
 20
1002.69
 30
18.20
 42
-0.027905
  0
VERTEX
  8
BORDER_D0_T132.1_RK1_A0_W0_EM1
 10
2585.84
 20
880.58
 30
18.20
 42
-0.031620
  0
VERTEX
  8
BORDER_D0_T132.1_RK1_A0_W0_EM1
 10
2542.44
 20
770.21
 30
18.20
 42
-0.037263
  0
VERTEX
  8
BORDER_D0_T132.1_RK1_A0_W0_EM1
 10
2488.93
 20
674.94
 30
18.20
 42
-0.045362
  0
VERTEX
  8
BORDER_D0_T132.1_RK1_A0_W0_EM1
 10
2426.95
 20
597.66
 30
18.20
 42
-0.056093
  0
VERTEX
  8
BORDER_D0_T132.1_RK1_A0_W0_EM1
 10
2358.37
 20
540.72
 30
18.20
 42
-0.068058
  0
VERTEX
  8
BORDER_D0_T132.1_RK1_A0_W0_EM1
 10
2285.28
 20
505.84
 30
18.20
 42
-0.076786
  0
VERTEX
  8
BORDER_D0_T132.1_RK1_A0_W0_EM1
 10
2209.90
 20
494.10
 30
18.20
 42
-0.076786
  0
VERTEX
  8
BORDER_D0_T132.1_RK1_A0_W0_EM1
 10
2134.52
 20
505.84
 30
18.20
 42
-0.068058
  0
VERTEX
  8
BORDER_D0_T132.1_RK1_A0_W0_EM1
 10
2061.43
 20
540.72
 30
18.20
 42
-0.056093
  0
VERTEX
  8
BORDER_D0_T132.1_RK1_A0_W0_EM1
 10
1992.85
 20
597.66
 30
18.20
 42
-0.045362
  0
VERTEX
  8
BORDER_D0_T132.1_RK1_A0_W0_EM1
 10
1930.87
 20
674.94
 30
18.20
 42
-0.037263
  0
VERTEX
  8
BORDER_D0_T132.1_RK1_A0_W0_EM1
 10
1877.36
 20
770.21
 30
18.20
 42
-0.031620
  0
VERTEX
  8
BORDER_D0_T132.1_RK1_A0_W0_EM1
 10
1833.96
 20
880.58
 30
18.20
 42
-0.027905
  0
VERTEX
  8
BORDER_D0_T132.1_RK1_A0_W0_EM1
 10
1801.98
 20
1002.69
 30
18.20
 42
-0.025667
  0
VERTEX
  8
BORDER_D0_T132.1_RK1_A0_W0_EM1
 10
1782.40
 20
1132.83
 30
18.20
 42
-0.024617
  0
VERTEX
  8
BORDER_D0_T132.1_RK1_A0_W0_EM1
 10
1775.80
 20
1267.05
 30
18.20
 42
-0.024617
  0
VERTEX
  8
BORDER_D0_T132.1_RK1_A0_W0_EM1
 10
1782.40
 20
1401.27
 30
18.20
 42
-0.025667
  0
VERTEX
  8
BORDER_D0_T132.1_RK1_A0_W0_EM1
 10
1801.98
 20
1531.41
 30
18.20
 42
-0.027905
  0
VERTEX
  8
BORDER_D0_T132.1_RK1_A0_W0_EM1
 10
1833.96
 20
1653.53
 30
18.20
 42
-0.031620
  0
VERTEX
  8
BORDER_D0_T132.1_RK1_A0_W0_EM1
 10
1877.36
 20
1763.89
 30
18.20
 42
-0.037263
  0
VERTEX
  8
BORDER_D0_T132.1_RK1_A0_W0_EM1
 10
1930.87
 20
1859.16
 30
18.20
 42
-0.045362
  0
VERTEX
  8
BORDER_D0_T132.1_RK1_A0_W0_EM1
 10
1992.85
 20
1936.44
 30
18.20
 42
-0.056093
  0
VERTEX
  8
BORDER_D0_T132.1_RK1_A0_W0_EM1
 10
2061.43
 20
1993.39
 30
18.20
 42
-0.068058
  0
VERTEX
  8
BORDER_D0_T132.1_RK1_A0_W0_EM1
 10
2134.52
 20
2028.26
 30
18.20
 42
-0.076786
  0
VERTEX
  8
BORDER_D0_T132.1_RK1_A0_W0_EM1
 10
2209.90
 20
2040.00
 30
18.20
  0
SEQEND
  8
BORDER_D0_T132.1_RK1_A0_W0_EM1
  0
POLYLINE
  8
BORDER_D0_T132.1_RK1_A0_W0_EM1
 70
1
 66
1
  0
VERTEX
  8
BORDER_D0_T132.1_RK1_A0_W0_EM1
 10
1867.81
 20
1863.19
 30
18.20
  0
VERTEX
  8
BORDER_D0_T132.1_RK1_A0_W0_EM1
 10
1845.87
 20
1930.72
 30
18.20
  0
VERTEX
  8
BORDER_D0_T132.1_RK1_A0_W0_EM1
 10
1774.86
 20
1930.72
 30
18.20
  0
VERTEX
  8
BORDER_D0_T132.1_RK1_A0_W0_EM1
 10
1832.31
 20
1972.46
 30
18.20
  0
VERTEX
  8
BORDER_D0_T132.1_RK1_A0_W0_EM1
 10
1810.36
 20
2040.00
 30
18.20
  0
VERTEX
  8
BORDER_D0_T132.1_RK1_A0_W0_EM1
 10
1867.81
 20
1998.26
 30
18.20
  0
VERTEX
  8
BORDER_D0_T132.1_RK1_A0_W0_EM1
 10
1925.26
 20
2040.00
 30
18.20
  0
VERTEX
  8
BORDER_D0_T132.1_RK1_A0_W0_EM1
 10
1903.32
 20
1972.46
 30
18.20
  0
VERTEX
  8
BORDER_D0_T132.1_RK1_A0_W0_EM1
 10
1960.77
 20
1930.72
 30
18.20
  0
VERTEX
  8
BORDER_D0_T132.1_RK1_A0_W0_EM1
 10
1889.76
 20
1930.72
 30
18.20
  0
VERTEX
  8
BORDER_D0_T132.1_RK1_A0_W0_EM1
 10
1867.81
 20
1863.19
 30
18.20
  0
SEQEND
  8
BORDER_D0_T132.1_RK1_A0_W0_EM1
  0
POLYLINE
  8
BORDER_D0_T132.1_RK1_A0_W0_EM1
 70
1
 66
1
  0
VERTEX
  8
BORDER_D0_T132.1_RK1_A0_W0_EM1
 10
1747.86
 20
1915.99
 30
18.20
  0
VERTEX
  8
BORDER_D0_T132.1_RK1_A0_W0_EM1
 10
1769.81
 20
1848.46
 30
18.20
  0
VERTEX
  8
BORDER_D0_T132.1_RK1_A0_W0_EM1
 10
1840.82
 20
1848.46
 30
18.20
  0
VERTEX
  8
BORDER_D0_T132.1_RK1_A0_W0_EM1
 10
1783.37
 20
1806.72
 30
18.20
  0
VERTEX
  8
BORDER_D0_T132.1_RK1_A0_W0_EM1
 10
1805.31
 20
1739.18
 30
18.20
  0
VERTEX
  8
BORDER_D0_T132.1_RK1_A0_W0_EM1
 10
1747.86
 20
1780.92
 30
18.20
  0
VERTEX
  8
BORDER_D0_T132.1_RK1_A0_W0_EM1
 10
1690.42
 20
1739.18
 30
18.20
  0
VERTEX
  8
BORDER_D0_T132.1_RK1_A0_W0_EM1
 10
1712.36
 20
1806.72
 30
18.20
  0
VERTEX
  8
BORDER_D0_T132.1_RK1_A0_W0_EM1
 10
1654.91
 20
1848.46
 30
18.20
  0
VERTEX
  8
BORDER_D0_T132.1_RK1_A0_W0_EM1
 10
1725.92
 20
1848.46
 30
18.20
  0
VERTEX
  8
BORDER_D0_T132.1_RK1_A0_W0_EM1
 10
1747.86
 20
1915.99
 30
18.20
  0
SEQEND
  8
BORDER_D0_T132.1_RK1_A0_W0_EM1
  0
POLYLINE
  8
BORDER_D0_T132.1_RK1_A0_W0_EM1
 70
1
 66
1
  0
VERTEX
  8
BORDER_D0_T132.1_RK1_A0_W0_EM1
 10
1666.43
 20
1863.19
 30
18.20
  0
VERTEX
  8
BORDER_D0_T132.1_RK1_A0_W0_EM1
 10
1644.48
 20
1930.72
 30
18.20
  0
VERTEX
  8
BORDER_D0_T132.1_RK1_A0_W0_EM1
 10
1573.47
 20
1930.72
 30
18.20
  0
VERTEX
  8
BORDER_D0_T132.1_RK1_A0_W0_EM1
 10
1630.92
 20
1972.46
 30
18.20
  0
VERTEX
  8
BORDER_D0_T132.1_RK1_A0_W0_EM1
 10
1608.97
 20
2040.00
 30
18.20
  0
VERTEX
  8
BORDER_D0_T132.1_RK1_A0_W0_EM1
 10
1666.43
 20
1998.26
 30
18.20
  0
VERTEX
  8
BORDER_D0_T132.1_RK1_A0_W0_EM1
 10
1723.88
 20
2040.00
 30
18.20
  0
VERTEX
  8
BORDER_D0_T132.1_RK1_A0_W0_EM1
 10
1701.93
 20
1972.46
 30
18.20
  0
VERTEX
  8
BORDER_D0_T132.1_RK1_A0_W0_EM1
 10
1759.38
 20
1930.72
 30
18.20
  0
VERTEX
  8
BORDER_D0_T132.1_RK1_A0_W0_EM1
 10
1688.37
 20
1930.72
 30
18.20
  0
VERTEX
  8
BORDER_D0_T132.1_RK1_A0_W0_EM1
 10
1666.43
 20
1863.19
 30
18.20
  0
SEQEND
  8
BORDER_D0_T132.1_RK1_A0_W0_EM1
  0
POLYLINE
  8
BORDER_D0_T132.1_RK1_A0_W0_EM1
 70
1
 66
1
  0
VERTEX
  8
BORDER_D0_T132.1_RK1_A0_W0_EM1
 10
1327.00
 20
2040.00
 30
18.20
 42
-0.076786
  0
VERTEX
  8
BORDER_D0_T132.1_RK1_A0_W0_EM1
 10
1402.38
 20
2028.26
 30
18.20
 42
-0.068058
  0
VERTEX
  8
BORDER_D0_T132.1_RK1_A0_W0_EM1
 10
1475.47
 20
1993.39
 30
18.20
 42
-0.056093
  0
VERTEX
  8
BORDER_D0_T132.1_RK1_A0_W0_EM1
 10
1544.05
 20
1936.44
 30
18.20
 42
-0.045362
  0
VERTEX
  8
BORDER_D0_T132.1_RK1_A0_W0_EM1
 10
1606.03
 20
1859.16
 30
18.20
 42
-0.037263
  0
VERTEX
  8
BORDER_D0_T132.1_RK1_A0_W0_EM1
 10
1659.54
 20
1763.89
 30
18.20
 42
-0.031620
  0
VERTEX
  8
BORDER_D0_T132.1_RK1_A0_W0_EM1
 10
1702.94
 20
1653.53
 30
18.20
 42
-0.027905
  0
VERTEX
  8
BORDER_D0_T132.1_RK1_A0_W0_EM1
 10
1734.92
 20
1531.41
 30
18.20
 42
-0.025667
  0
VERTEX
  8
BORDER_D0_T132.1_RK1_A0_W0_EM1
 10
1754.51
 20
1401.27
 30
18.20
 42
-0.024617
  0
VERTEX
  8
BORDER_D0_T132.1_RK1_A0_W0_EM1
 10
1761.10
 20
1267.05
 30
18.20
 42
-0.024617
  0
VERTEX
  8
BORDER_D0_T132.1_RK1_A0_W0_EM1
 10
1754.51
 20
1132.83
 30
18.20
 42
-0.025667
  0
VERTEX
  8
BORDER_D0_T132.1_RK1_A0_W0_EM1
 10
1734.92
 20
1002.69
 30
18.20
 42
-0.027905
  0
VERTEX
  8
BORDER_D0_T132.1_RK1_A0_W0_EM1
 10
1702.94
 20
880.58
 30
18.20
 42
-0.031620
  0
VERTEX
  8
BORDER_D0_T132.1_RK1_A0_W0_EM1
 10
1659.54
 20
770.21
 30
18.20
 42
-0.037263
  0
VERTEX
  8
BORDER_D0_T132.1_RK1_A0_W0_EM1
 10
1606.03
 20
674.94
 30
18.20
 42
-0.045362
  0
VERTEX
  8
BORDER_D0_T132.1_RK1_A0_W0_EM1
 10
1544.05
 20
597.66
 30
18.20
 42
-0.056093
  0
VERTEX
  8
BORDER_D0_T132.1_RK1_A0_W0_EM1
 10
1475.47
 20
540.72
 30
18.20
 42
-0.068058
  0
VERTEX
  8
BORDER_D0_T132.1_RK1_A0_W0_EM1
 10
1402.38
 20
505.84
 30
18.20
 42
-0.076786
  0
VERTEX
  8
BORDER_D0_T132.1_RK1_A0_W0_EM1
 10
1327.00
 20
494.10
 30
18.20
 42
-0.076786
  0
VERTEX
  8
BORDER_D0_T132.1_RK1_A0_W0_EM1
 10
1251.62
 20
505.84
 30
18.20
 42
-0.068058
  0
VERTEX
  8
BORDER_D0_T132.1_RK1_A0_W0_EM1
 10
1178.53
 20
540.72
 30
18.20
 42
-0.056093
  0
VERTEX
  8
BORDER_D0_T132.1_RK1_A0_W0_EM1
 10
1109.95
 20
597.66
 30
18.20
 42
-0.045362
  0
VERTEX
  8
BORDER_D0_T132.1_RK1_A0_W0_EM1
 10
1047.97
 20
674.94
 30
18.20
 42
-0.037263
  0
VERTEX
  8
BORDER_D0_T132.1_RK1_A0_W0_EM1
 10
994.46
 20
770.21
 30
18.20
 42
-0.031620
  0
VERTEX
  8
BORDER_D0_T132.1_RK1_A0_W0_EM1
 10
951.06
 20
880.58
 30
18.20
 42
-0.027905
  0
VERTEX
  8
BORDER_D0_T132.1_RK1_A0_W0_EM1
 10
919.08
 20
1002.69
 30
18.20
 42
-0.025667
  0
VERTEX
  8
BORDER_D0_T132.1_RK1_A0_W0_EM1
 10
899.49
 20
1132.83
 30
18.20
 42
-0.024617
  0
VERTEX
  8
BORDER_D0_T132.1_RK1_A0_W0_EM1
 10
892.90
 20
1267.05
 30
18.20
 42
-0.024617
  0
VERTEX
  8
BORDER_D0_T132.1_RK1_A0_W0_EM1
 10
899.49
 20
1401.27
 30
18.20
 42
-0.025667
  0
VERTEX
  8
BORDER_D0_T132.1_RK1_A0_W0_EM1
 10
919.08
 20
1531.41
 30
18.20
 42
-0.027905
  0
VERTEX
  8
BORDER_D0_T132.1_RK1_A0_W0_EM1
 10
951.06
 20
1653.53
 30
18.20
 42
-0.031620
  0
VERTEX
  8
BORDER_D0_T132.1_RK1_A0_W0_EM1
 10
994.46
 20
1763.89
 30
18.20
 42
-0.037263
  0
VERTEX
  8
BORDER_D0_T132.1_RK1_A0_W0_EM1
 10
1047.97
 20
1859.16
 30
18.20
 42
-0.045362
  0
VERTEX
  8
BORDER_D0_T132.1_RK1_A0_W0_EM1
 10
1109.95
 20
1936.44
 30
18.20
 42
-0.056093
  0
VERTEX
  8
BORDER_D0_T132.1_RK1_A0_W0_EM1
 10
1178.53
 20
1993.39
 30
18.20
 42
-0.068058
  0
VERTEX
  8
BORDER_D0_T132.1_RK1_A0_W0_EM1
 10
1251.62
 20
2028.26
 30
18.20
 42
-0.076786
  0
VERTEX
  8
BORDER_D0_T132.1_RK1_A0_W0_EM1
 10
1327.00
 20
2040.00
 30
18.20
  0
SEQEND
  8
BORDER_D0_T132.1_RK1_A0_W0_EM1
  0
POLYLINE
  8
BORDER_D0_T132.1_RK1_A0_W0_EM1
 70
1
 66
1
  0
VERTEX
  8
BORDER_D0_T132.1_RK1_A0_W0_EM1
 10
1071.25
 20
2040.00
 30
18.20
  0
VERTEX
  8
BORDER_D0_T132.1_RK1_A0_W0_EM1
 10
1071.25
 20
1990.84
 30
18.20
 42
-0.333267
  0
VERTEX
  8
BORDER_D0_T132.1_RK1_A0_W0_EM1
 10
875.77
 20
1990.84
 30
18.20
  0
VERTEX
  8
BORDER_D0_T132.1_RK1_A0_W0_EM1
 10
875.77
 20
2040.00
 30
18.20
 42
0.469338
  0
VERTEX
  8
BORDER_D0_T132.1_RK1_A0_W0_EM1
 10
1071.25
 20
2040.00
 30
18.20
  0
SEQEND
  8
BORDER_D0_T132.1_RK1_A0_W0_EM1
  0
POLYLINE
  8
BORDER_D0_T132.1_RK1_A0_W0_EM1
 70
1
 66
1
  0
VERTEX
  8
BORDER_D0_T132.1_RK1_A0_W0_EM1
 10
808.27
 20
1854.43
 30
18.20
  0
VERTEX
  8
BORDER_D0_T132.1_RK1_A0_W0_EM1
 10
875.81
 20
1876.37
 30
18.20
  0
VERTEX
  8
BORDER_D0_T132.1_RK1_A0_W0_EM1
 10
875.81
 20
1947.38
 30
18.20
  0
VERTEX
  8
BORDER_D0_T132.1_RK1_A0_W0_EM1
 10
917.55
 20
1889.93
 30
18.20
  0
VERTEX
  8
BORDER_D0_T132.1_RK1_A0_W0_EM1
 10
985.08
 20
1911.88
 30
18.20
  0
VERTEX
  8
BORDER_D0_T132.1_RK1_A0_W0_EM1
 10
943.34
 20
1854.43
 30
18.20
  0
VERTEX
  8
BORDER_D0_T132.1_RK1_A0_W0_EM1
 10
985.08
 20
1796.98
 30
18.20
  0
VERTEX
  8
BORDER_D0_T132.1_RK1_A0_W0_EM1
 10
917.55
 20
1818.92
 30
18.20
  0
VERTEX
  8
BORDER_D0_T132.1_RK1_A0_W0_EM1
 10
875.81
 20
1761.47
 30
18.20
  0
VERTEX
  8
BORDER_D0_T132.1_RK1_A0_W0_EM1
 10
875.81
 20
1832.48
 30
18.20
  0
VERTEX
  8
BORDER_D0_T132.1_RK1_A0_W0_EM1
 10
808.27
 20
1854.43
 30
18.20
  0
SEQEND
  8
BORDER_D0_T132.1_RK1_A0_W0_EM1
  0
POLYLINE
  8
BORDER_D0_T132.1_RK1_A0_W0_EM1
 70
1
 66
1
  0
VERTEX
  8
BORDER_D0_T132.1_RK1_A0_W0_EM1
 10
680.74
 20
1947.04
 30
18.20
  0
VERTEX
  8
BORDER_D0_T132.1_RK1_A0_W0_EM1
 10
748.28
 20
1968.99
 30
18.20
  0
VERTEX
  8
BORDER_D0_T132.1_RK1_A0_W0_EM1
 10
748.28
 20
2040.00
 30
18.20
  0
VERTEX
  8
BORDER_D0_T132.1_RK1_A0_W0_EM1
 10
790.02
 20
1982.55
 30
18.20
  0
VERTEX
  8
BORDER_D0_T132.1_RK1_A0_W0_EM1
 10
857.55
 20
2004.49
 30
18.20
  0
VERTEX
  8
BORDER_D0_T132.1_RK1_A0_W0_EM1
 10
815.81
 20
1947.04
 30
18.20
  0
VERTEX
  8
BORDER_D0_T132.1_RK1_A0_W0_EM1
 10
857.55
 20
1889.59
 30
18.20
  0
VERTEX
  8
BORDER_D0_T132.1_RK1_A0_W0_EM1
 10
790.02
 20
1911.54
 30
18.20
  0
VERTEX
  8
BORDER_D0_T132.1_RK1_A0_W0_EM1
 10
748.28
 20
1854.09
 30
18.20
  0
VERTEX
  8
BORDER_D0_T132.1_RK1_A0_W0_EM1
 10
748.28
 20
1925.10
 30
18.20
  0
VERTEX
  8
BORDER_D0_T132.1_RK1_A0_W0_EM1
 10
680.74
 20
1947.04
 30
18.20
  0
SEQEND
  8
BORDER_D0_T132.1_RK1_A0_W0_EM1
  0
POLYLINE
  8
BORDER_D0_T132.1_RK1_A0_W0_EM1
 70
1
 66
1
  0
VERTEX
  8
BORDER_D0_T132.1_RK1_A0_W0_EM1
 10
444.10
 20
2040.00
 30
18.20
 42
-0.076786
  0
VERTEX
  8
BORDER_D0_T132.1_RK1_A0_W0_EM1
 10
519.48
 20
2028.26
 30
18.20
 42
-0.068058
  0
VERTEX
  8
BORDER_D0_T132.1_RK1_A0_W0_EM1
 10
592.57
 20
1993.39
 30
18.20
 42
-0.056093
  0
VERTEX
  8
BORDER_D0_T132.1_RK1_A0_W0_EM1
 10
661.15
 20
1936.44
 30
18.20
 42
-0.045362
  0
VERTEX
  8
BORDER_D0_T132.1_RK1_A0_W0_EM1
 10
723.13
 20
1859.16
 30
18.20
 42
-0.037263
  0
VERTEX
  8
BORDER_D0_T132.1_RK1_A0_W0_EM1
 10
776.64
 20
1763.89
 30
18.20
 42
-0.031620
  0
VERTEX
  8
BORDER_D0_T132.1_RK1_A0_W0_EM1
 10
820.04
 20
1653.53
 30
18.20
 42
-0.027905
  0
VERTEX
  8
BORDER_D0_T132.1_RK1_A0_W0_EM1
 10
852.02
 20
1531.41
 30
18.20
 42
-0.025667
  0
VERTEX
  8
BORDER_D0_T132.1_RK1_A0_W0_EM1
 10
871.60
 20
1401.27
 30
18.20
 42
-0.024617
  0
VERTEX
  8
BORDER_D0_T132.1_RK1_A0_W0_EM1
 10
878.20
 20
1267.05
 30
18.20
 42
-0.024617
  0
VERTEX
  8
BORDER_D0_T132.1_RK1_A0_W0_EM1
 10
871.60
 20
1132.83
 30
18.20
 42
-0.025667
  0
VERTEX
  8
BORDER_D0_T132.1_RK1_A0_W0_EM1
 10
852.02
 20
1002.69
 30
18.20
 42
-0.027905
  0
VERTEX
  8
BORDER_D0_T132.1_RK1_A0_W0_EM1
 10
820.04
 20
880.58
 30
18.20
 42
-0.031620
  0
VERTEX
  8
BORDER_D0_T132.1_RK1_A0_W0_EM1
 10
776.64
 20
770.21
 30
18.20
 42
-0.037263
  0
VERTEX
  8
BORDER_D0_T132.1_RK1_A0_W0_EM1
 10
723.13
 20
674.94
 30
18.20
 42
-0.045362
  0
VERTEX
  8
BORDER_D0_T132.1_RK1_A0_W0_EM1
 10
661.15
 20
597.66
 30
18.20
 42
-0.056093
  0
VERTEX
  8
BORDER_D0_T132.1_RK1_A0_W0_EM1
 10
592.57
 20
540.72
 30
18.20
 42
-0.068058
  0
VERTEX
  8
BORDER_D0_T132.1_RK1_A0_W0_EM1
 10
519.48
 20
505.84
 30
18.20
 42
-0.076786
  0
VERTEX
  8
BORDER_D0_T132.1_RK1_A0_W0_EM1
 10
444.10
 20
494.10
 30
18.20
 42
-0.076786
  0
VERTEX
  8
BORDER_D0_T132.1_RK1_A0_W0_EM1
 10
368.72
 20
505.84
 30
18.20
 42
-0.068058
  0
VERTEX
  8
BORDER_D0_T132.1_RK1_A0_W0_EM1
 10
295.63
 20
540.72
 30
18.20
 42
-0.056093
  0
VERTEX
  8
BORDER_D0_T132.1_RK1_A0_W0_EM1
 10
227.05
 20
597.66
 30
18.20
 42
-0.045362
  0
VERTEX
  8
BORDER_D0_T132.1_RK1_A0_W0_EM1
 10
165.07
 20
674.94
 30
18.20
 42
-0.037263
  0
VERTEX
  8
BORDER_D0_T132.1_RK1_A0_W0_EM1
 10
111.56
 20
770.21
 30
18.20
 42
-0.031620
  0
VERTEX
  8
BORDER_D0_T132.1_RK1_A0_W0_EM1
 10
68.16
 20
880.58
 30
18.20
 42
-0.027905
  0
VERTEX
  8
BORDER_D0_T132.1_RK1_A0_W0_EM1
 10
36.18
 20
1002.69
 30
18.20
 42
-0.025667
  0
VERTEX
  8
BORDER_D0_T132.1_RK1_A0_W0_EM1
 10
16.59
 20
1132.83
 30
18.20
 42
-0.024617
  0
VERTEX
  8
BORDER_D0_T132.1_RK1_A0_W0_EM1
 10
10.00
 20
1267.05
 30
18.20
 42
-0.024617
  0
VERTEX
  8
BORDER_D0_T132.1_RK1_A0_W0_EM1
 10
16.59
 20
1401.27
 30
18.20
 42
-0.025667
  0
VERTEX
  8
BORDER_D0_T132.1_RK1_A0_W0_EM1
 10
36.18
 20
1531.41
 30
18.20
 42
-0.027905
  0
VERTEX
  8
BORDER_D0_T132.1_RK1_A0_W0_EM1
 10
68.16
 20
1653.53
 30
18.20
 42
-0.031620
  0
VERTEX
  8
BORDER_D0_T132.1_RK1_A0_W0_EM1
 10
111.56
 20
1763.89
 30
18.20
 42
-0.037263
  0
VERTEX
  8
BORDER_D0_T132.1_RK1_A0_W0_EM1
 10
165.07
 20
1859.16
 30
18.20
 42
-0.045362
  0
VERTEX
  8
BORDER_D0_T132.1_RK1_A0_W0_EM1
 10
227.05
 20
1936.44
 30
18.20
 42
-0.056093
  0
VERTEX
  8
BORDER_D0_T132.1_RK1_A0_W0_EM1
 10
295.63
 20
1993.39
 30
18.20
 42
-0.068058
  0
VERTEX
  8
BORDER_D0_T132.1_RK1_A0_W0_EM1
 10
368.72
 20
2028.26
 30
18.20
 42
-0.076786
  0
VERTEX
  8
BORDER_D0_T132.1_RK1_A0_W0_EM1
 10
444.10
 20
2040.00
 30
18.20
  0
SEQEND
  8
BORDER_D0_T132.1_RK1_A0_W0_EM1
  0
POLYLINE
  8
BORDER_D0_T132.1_RK1_A0_W0_EM1
 70
1
 66
1
  0
VERTEX
  8
BORDER_D0_T132.1_RK1_A0_W0_EM1
 10
186.81
 20
1947.04
 30
18.20
  0
VERTEX
  8
BORDER_D0_T132.1_RK1_A0_W0_EM1
 10
119.28
 20
1925.10
 30
18.20
  0
VERTEX
  8
BORDER_D0_T132.1_RK1_A0_W0_EM1
 10
119.28
 20
1854.09
 30
18.20
  0
VERTEX
  8
BORDER_D0_T132.1_RK1_A0_W0_EM1
 10
77.54
 20
1911.54
 30
18.20
  0
VERTEX
  8
BORDER_D0_T132.1_RK1_A0_W0_EM1
 10
10.00
 20
1889.59
 30
18.20
  0
VERTEX
  8
BORDER_D0_T132.1_RK1_A0_W0_EM1
 10
51.74
 20
1947.04
 30
18.20
  0
VERTEX
  8
BORDER_D0_T132.1_RK1_A0_W0_EM1
 10
10.00
 20
2004.49
 30
18.20
  0
VERTEX
  8
BORDER_D0_T132.1_RK1_A0_W0_EM1
 10
77.54
 20
1982.55
 30
18.20
  0
VERTEX
  8
BORDER_D0_T132.1_RK1_A0_W0_EM1
 10
119.28
 20
2040.00
 30
18.20
  0
VERTEX
  8
BORDER_D0_T132.1_RK1_A0_W0_EM1
 10
119.28
 20
1968.99
 30
18.20
  0
VERTEX
  8
BORDER_D0_T132.1_RK1_A0_W0_EM1
 10
186.81
 20
1947.04
 30
18.20
  0
SEQEND
  8
BORDER_D0_T132.1_RK1_A0_W0_EM1
  0
POLYLINE
  8
BORDER_D0_T132.1_RK1_A0_W0_EM1
 70
1
 66
1
  0
VERTEX
  8
BORDER_D0_T132.1_RK1_A0_W0_EM1
 10
1848.63
 20
430.51
 30
18.20
 42
-0.106579
  0
VERTEX
  8
BORDER_D0_T132.1_RK1_A0_W0_EM1
 10
1844.89
 20
413.54
 30
18.20
 42
-0.081333
  0
VERTEX
  8
BORDER_D0_T132.1_RK1_A0_W0_EM1
 10
1833.80
 20
397.08
 30
18.20
 42
-0.056347
  0
VERTEX
  8
BORDER_D0_T132.1_RK1_A0_W0_EM1
 10
1815.68
 20
381.64
 30
18.20
 42
-0.039878
  0
VERTEX
  8
BORDER_D0_T132.1_RK1_A0_W0_EM1
 10
1791.09
 20
367.69
 30
18.20
 42
-0.029940
  0
VERTEX
  8
BORDER_D0_T132.1_RK1_A0_W0_EM1
 10
1760.77
 20
355.64
 30
18.20
 42
-0.023968
  0
VERTEX
  8
BORDER_D0_T132.1_RK1_A0_W0_EM1
 10
1725.66
 20
345.87
 30
18.20
 42
-0.020393
  0
VERTEX
  8
BORDER_D0_T132.1_RK1_A0_W0_EM1
 10
1686.80
 20
338.67
 30
18.20
 42
-0.018360
  0
VERTEX
  8
BORDER_D0_T132.1_RK1_A0_W0_EM1
 10
1645.39
 20
334.26
 30
18.20
 42
-0.017435
  0
VERTEX
  8
BORDER_D0_T132.1_RK1_A0_W0_EM1
 10
1602.69
 20
332.77
 30
18.20
 42
-0.017435
  0
VERTEX
  8
BORDER_D0_T132.1_RK1_A0_W0_EM1
 10
1559.98
 20
334.26
 30
18.20
 42
-0.018360
  0
VERTEX
  8
BORDER_D0_T132.1_RK1_A0_W0_EM1
 10
1518.57
 20
338.67
 30
18.20
 42
-0.020393
  0
VERTEX
  8
BORDER_D0_T132.1_RK1_A0_W0_EM1
 10
1479.72
 20
345.87
 30
18.20
 42
-0.023968
  0
VERTEX
  8
BORDER_D0_T132.1_RK1_A0_W0_EM1
 10
1444.60
 20
355.64
 30
18.20
 42
-0.029940
  0
VERTEX
  8
BORDER_D0_T132.1_RK1_A0_W0_EM1
 10
1414.29
 20
367.69
 30
18.20
 42
-0.039878
  0
VERTEX
  8
BORDER_D0_T132.1_RK1_A0_W0_EM1
 10
1389.70
 20
381.64
 30
18.20
 42
-0.056347
  0
VERTEX
  8
BORDER_D0_T132.1_RK1_A0_W0_EM1
 10
1371.58
 20
397.08
 30
18.20
 42
-0.081333
  0
VERTEX
  8
BORDER_D0_T132.1_RK1_A0_W0_EM1
 10
1360.48
 20
413.54
 30
18.20
 42
-0.106579
  0
VERTEX
  8
BORDER_D0_T132.1_RK1_A0_W0_EM1
 10
1356.75
 20
430.51
 30
18.20
 42
-0.106579
  0
VERTEX
  8
BORDER_D0_T132.1_RK1_A0_W0_EM1
 10
1360.48
 20
447.48
 30
18.20
 42
-0.081333
  0
VERTEX
  8
BORDER_D0_T132.1_RK1_A0_W0_EM1
 10
1371.58
 20
463.94
 30
18.20
 42
-0.056347
  0
VERTEX
  8
BORDER_D0_T132.1_RK1_A0_W0_EM1
 10
1389.70
 20
479.38
 30
18.20
 42
-0.039878
  0
VERTEX
  8
BORDER_D0_T132.1_RK1_A0_W0_EM1
 10
1414.29
 20
493.34
 30
18.20
 42
-0.029940
  0
VERTEX
  8
BORDER_D0_T132.1_RK1_A0_W0_EM1
 10
1444.60
 20
505.39
 30
18.20
 42
-0.023968
  0
VERTEX
  8
BORDER_D0_T132.1_RK1_A0_W0_EM1
 10
1479.72
 20
515.16
 30
18.20
 42
-0.020393
  0
VERTEX
  8
BORDER_D0_T132.1_RK1_A0_W0_EM1
 10
1518.57
 20
522.36
 30
18.20
 42
-0.018360
  0
VERTEX
  8
BORDER_D0_T132.1_RK1_A0_W0_EM1
 10
1559.98
 20
526.77
 30
18.20
 42
-0.017435
  0
VERTEX
  8
BORDER_D0_T132.1_RK1_A0_W0_EM1
 10
1602.69
 20
528.25
 30
18.20
 42
-0.017435
  0
VERTEX
  8
BORDER_D0_T132.1_RK1_A0_W0_EM1
 10
1645.39
 20
526.77
 30
18.20
 42
-0.018360
  0
VERTEX
  8
BORDER_D0_T132.1_RK1_A0_W0_EM1
 10
1686.80
 20
522.36
 30
18.20
 42
-0.020393
  0
VERTEX
  8
BORDER_D0_T132.1_RK1_A0_W0_EM1
 10
1725.66
 20
515.16
 30
18.20
 42
-0.023968
  0
VERTEX
  8
BORDER_D0_T132.1_RK1_A0_W0_EM1
 10
1760.77
 20
505.39
 30
18.20
 42
-0.029939
  0
VERTEX
  8
BORDER_D0_T132.1_RK1_A0_W0_EM1
 10
1791.09
 20
493.34
 30
18.20
 42
-0.039878
  0
VERTEX
  8
BORDER_D0_T132.1_RK1_A0_W0_EM1
 10
1815.68
 20
479.38
 30
18.20
 42
-0.056347
  0
VERTEX
  8
BORDER_D0_T132.1_RK1_A0_W0_EM1
 10
1833.80
 20
463.94
 30
18.20
 42
-0.081333
  0
VERTEX
  8
BORDER_D0_T132.1_RK1_A0_W0_EM1
 10
1844.89
 20
447.48
 30
18.20
 42
-0.106579
  0
VERTEX
  8
BORDER_D0_T132.1_RK1_A0_W0_EM1
 10
1848.63
 20
430.51
 30
18.20
  0
SEQEND
  8
BORDER_D0_T132.1_RK1_A0_W0_EM1
  0
POLYLINE
  8
BORDER_D0_T132.1_RK1_A0_W0_EM1
 70
1
 66
1
  0
VERTEX
  8
BORDER_D0_T132.1_RK1_A0_W0_EM1
 10
1712.95
 20
112.53
 30
18.20
  0
VERTEX
  8
BORDER_D0_T132.1_RK1_A0_W0_EM1
 10
2040.87
 20
112.53
 30
18.20
  0
VERTEX
  8
BORDER_D0_T132.1_RK1_A0_W0_EM1
 10
2040.87
 20
92.98
 30
18.20
  0
VERTEX
  8
BORDER_D0_T132.1_RK1_A0_W0_EM1
 10
1712.95
 20
92.98
 30
18.20
 42
-0.220731
  0
VERTEX
  8
BORDER_D0_T132.1_RK1_A0_W0_EM1
 10
1560.90
 20
155.96
 30
18.20
  0
VERTEX
  8
BORDER_D0_T132.1_RK1_A0_W0_EM1
 10
1574.72
 20
169.79
 30
18.20
 42
0.198912
  0
VERTEX
  8
BORDER_D0_T132.1_RK1_A0_W0_EM1
 10
1712.95
 20
112.53
 30
18.20
  0
SEQEND
  8
BORDER_D0_T132.1_RK1_A0_W0_EM1
  0
POLYLINE
  8
BORDER_D0_T132.1_RK1_A0_W0_EM1
 70
1
 66
1
  0
VERTEX
  8
BORDER_D0_T132.1_RK1_A0_W0_EM1
 10
1555.90
 20
81.00
 30
18.20
  0
VERTEX
  8
BORDER_D0_T132.1_RK1_A0_W0_EM1
 10
10.00
 20
81.00
 30
18.20
 42
-0.076786
  0
VERTEX
  8
BORDER_D0_T132.1_RK1_A0_W0_EM1
 10
21.74
 20
156.38
 30
18.20
 42
-0.068058
  0
VERTEX
  8
BORDER_D0_T132.1_RK1_A0_W0_EM1
 10
56.62
 20
229.47
 30
18.20
 42
-0.056093
  0
VERTEX
  8
BORDER_D0_T132.1_RK1_A0_W0_EM1
 10
113.56
 20
298.05
 30
18.20
 42
-0.045362
  0
VERTEX
  8
BORDER_D0_T132.1_RK1_A0_W0_EM1
 10
190.84
 20
360.04
 30
18.20
 42
-0.037263
  0
VERTEX
  8
BORDER_D0_T132.1_RK1_A0_W0_EM1
 10
286.11
 20
413.54
 30
18.20
 42
-0.031620
  0
VERTEX
  8
BORDER_D0_T132.1_RK1_A0_W0_EM1
 10
396.48
 20
456.95
 30
18.20
 42
-0.027905
  0
VERTEX
  8
BORDER_D0_T132.1_RK1_A0_W0_EM1
 10
518.59
 20
488.92
 30
18.20
 42
-0.025667
  0
VERTEX
  8
BORDER_D0_T132.1_RK1_A0_W0_EM1
 10
648.73
 20
508.51
 30
18.20
 42
-0.024617
  0
VERTEX
  8
BORDER_D0_T132.1_RK1_A0_W0_EM1
 10
782.95
 20
515.10
 30
18.20
 42
-0.024617
  0
VERTEX
  8
BORDER_D0_T132.1_RK1_A0_W0_EM1
 10
917.17
 20
508.51
 30
18.20
 42
-0.025667
  0
VERTEX
  8
BORDER_D0_T132.1_RK1_A0_W0_EM1
 10
1047.31
 20
488.92
 30
18.20
 42
-0.027905
  0
VERTEX
  8
BORDER_D0_T132.1_RK1_A0_W0_EM1
 10
1169.43
 20
456.95
 30
18.20
 42
-0.031620
  0
VERTEX
  8
BORDER_D0_T132.1_RK1_A0_W0_EM1
 10
1279.79
 20
413.54
 30
18.20
 42
-0.037263
  0
VERTEX
  8
BORDER_D0_T132.1_RK1_A0_W0_EM1
 10
1375.06
 20
360.04
 30
18.20
 42
-0.045362
  0
VERTEX
  8
BORDER_D0_T132.1_RK1_A0_W0_EM1
 10
1452.34
 20
298.05
 30
18.20
 42
-0.056093
  0
VERTEX
  8
BORDER_D0_T132.1_RK1_A0_W0_EM1
 10
1509.29
 20
229.47
 30
18.20
 42
-0.068058
  0
VERTEX
  8
BORDER_D0_T132.1_RK1_A0_W0_EM1
 10
1544.16
 20
156.38
 30
18.20
 42
-0.076786
  0
VERTEX
  8
BORDER_D0_T132.1_RK1_A0_W0_EM1
 10
1555.90
 20
81.00
 30
18.20
  0
SEQEND
  8
BORDER_D0_T132.1_RK1_A0_W0_EM1
  0
ENDSEC
  0
EOF
