  0
SECTION
  2
HEADER
  9
$LTSCALE
 40
41.00
  9
$LIMMIN
 10
-41.00
 20
-61.50
  9
$LIMMAX
 10
2841.00
 20
2193.50
  9
$EXTMIN
 10
-41.00
 20
-61.50
  9
$EXTMAX
 10
2841.00
 20
2193.50
  9
$TEXTSTYLE
  7
txt
  9
$CLAYER
  8
1
  9
$CECOLOR
 62
7
  9
$CELTYPE
  6
CONTINUOUS
  9
$OSMODE
 70
0
  0
ENDSEC
  0
SECTION
  2
TABLES
  0
TABLE
  2
STYLE
 70
1
  0
STYLE
  2
STANDARD
 70
0
 40
1.00
 41
1.00
 50
0.00
 71
0
 42
0.20
  3
txt
  4

  0
ENDTAB
  0
TABLE
  2
LTYPE
 70
1
  0
LTYPE
  2
HIDDEN
 70
64
  3
_ _ _ _ _ _ _ _ _ _ _ _ _ _ _ _ _ _ _ _ _ _
 72
65
 73
2
 40
0.50
 49
0.25
 49
-0.25
  0
ENDTAB
  0
ENDSEC
  0
SECTION
  2
ENTITIES
  0
LINE
  6
CONTINUOUS
  8
FRAME_Z18
 10
0.00
 20
0.00
 30
0.00
 11
2800.00
 21
0.00
 31
0.00
  0
LINE
  6
CONTINUOUS
  8
FRAME_Z18
 10
0.00
 20
2050.00
 30
0.00
 11
2800.00
 21
2050.00
 31
0.00
  0
LINE
  6
CONTINUOUS
  8
FRAME_Z18
 10
0.00
 20
0.00
 30
0.00
 11
0.00
 21
2050.00
 31
0.00
  0
LINE
  6
CONTINUOUS
  8
FRAME_Z18
 10
2800.00
 20
0.00
 30
0.00
 11
2800.00
 21
2050.00
 31
0.00
  0
TEXT
  8
TEXT
 10
2020.02
 20
1523.06
 30
18.00
 40
41.00
  1

  0
TEXT
  8
TEXT
 10
2004.02
 20
1511.06
 30
18.00
 40
41.00
  1
A
  0
TEXT
  8
TEXT
 10
2165.02
 20
1695.06
 30
18.00
 40
41.00
  1
B
  0
TEXT
  8
TEXT
 10
1951.02
 20
1741.06
 30
18.00
 40
41.00
  1
C
  0
POLYLINE
  8
BORDER_D0_T132_RK1_A0_W0_EM1_RI1_ID0018
 70
1
 66
1
  0
VERTEX
  8
BORDER_D0_T132_RK1_A0_W0_EM1_RI1_ID0018
 10
107.74
 20
632.36
 30
16.50
 42
-0.106572
  0
VERTEX
  8
BORDER_D0_T132_RK1_A0_W0_EM1_RI1_ID0018
 10
124.71
 20
628.62
 30
16.50
 42
-0.081329
  0
VERTEX
  8
BORDER_D0_T132_RK1_A0_W0_EM1_RI1_ID0018
 10
141.17
 20
617.53
 30
16.50
 42
-0.056349
  0
VERTEX
  8
BORDER_D0_T132_RK1_A0_W0_EM1_RI1_ID0018
 10
156.61
 20
599.41
 30
16.50
 42
-0.039882
  0
VERTEX
  8
BORDER_D0_T132_RK1_A0_W0_EM1_RI1_ID0018
 10
170.57
 20
574.82
 30
16.50
 42
-0.029934
  0
VERTEX
  8
BORDER_D0_T132_RK1_A0_W0_EM1_RI1_ID0018
 10
182.61
 20
544.51
 30
16.50
 42
-0.023970
  0
VERTEX
  8
BORDER_D0_T132_RK1_A0_W0_EM1_RI1_ID0018
 10
192.38
 20
509.39
 30
16.50
 42
-0.020392
  0
VERTEX
  8
BORDER_D0_T132_RK1_A0_W0_EM1_RI1_ID0018
 10
199.59
 20
470.54
 30
16.50
 42
-0.018360
  0
VERTEX
  8
BORDER_D0_T132_RK1_A0_W0_EM1_RI1_ID0018
 10
203.99
 20
429.13
 30
16.50
 42
-0.017437
  0
VERTEX
  8
BORDER_D0_T132_RK1_A0_W0_EM1_RI1_ID0018
 10
205.48
 20
386.42
 30
16.50
 42
-0.017437
  0
VERTEX
  8
BORDER_D0_T132_RK1_A0_W0_EM1_RI1_ID0018
 10
203.99
 20
343.71
 30
16.50
 42
-0.018360
  0
VERTEX
  8
BORDER_D0_T132_RK1_A0_W0_EM1_RI1_ID0018
 10
199.59
 20
302.30
 30
16.50
 42
-0.020392
  0
VERTEX
  8
BORDER_D0_T132_RK1_A0_W0_EM1_RI1_ID0018
 10
192.38
 20
263.45
 30
16.50
 42
-0.023970
  0
VERTEX
  8
BORDER_D0_T132_RK1_A0_W0_EM1_RI1_ID0018
 10
182.61
 20
228.33
 30
16.50
 42
-0.029934
  0
VERTEX
  8
BORDER_D0_T132_RK1_A0_W0_EM1_RI1_ID0018
 10
170.57
 20
198.02
 30
16.50
 42
-0.039882
  0
VERTEX
  8
BORDER_D0_T132_RK1_A0_W0_EM1_RI1_ID0018
 10
156.61
 20
173.43
 30
16.50
 42
-0.056348
  0
VERTEX
  8
BORDER_D0_T132_RK1_A0_W0_EM1_RI1_ID0018
 10
141.17
 20
155.31
 30
16.50
 42
-0.081329
  0
VERTEX
  8
BORDER_D0_T132_RK1_A0_W0_EM1_RI1_ID0018
 10
124.71
 20
144.22
 30
16.50
 42
-0.106572
  0
VERTEX
  8
BORDER_D0_T132_RK1_A0_W0_EM1_RI1_ID0018
 10
107.74
 20
140.48
 30
16.50
 42
-0.106572
  0
VERTEX
  8
BORDER_D0_T132_RK1_A0_W0_EM1_RI1_ID0018
 10
90.77
 20
144.22
 30
16.50
 42
-0.081329
  0
VERTEX
  8
BORDER_D0_T132_RK1_A0_W0_EM1_RI1_ID0018
 10
74.31
 20
155.31
 30
16.50
 42
-0.056349
  0
VERTEX
  8
BORDER_D0_T132_RK1_A0_W0_EM1_RI1_ID0018
 10
58.87
 20
173.43
 30
16.50
 42
-0.039882
  0
VERTEX
  8
BORDER_D0_T132_RK1_A0_W0_EM1_RI1_ID0018
 10
44.91
 20
198.02
 30
16.50
 42
-0.029934
  0
VERTEX
  8
BORDER_D0_T132_RK1_A0_W0_EM1_RI1_ID0018
 10
32.87
 20
228.33
 30
16.50
 42
-0.023970
  0
VERTEX
  8
BORDER_D0_T132_RK1_A0_W0_EM1_RI1_ID0018
 10
23.10
 20
263.45
 30
16.50
 42
-0.020392
  0
VERTEX
  8
BORDER_D0_T132_RK1_A0_W0_EM1_RI1_ID0018
 10
15.89
 20
302.30
 30
16.50
 42
-0.018360
  0
VERTEX
  8
BORDER_D0_T132_RK1_A0_W0_EM1_RI1_ID0018
 10
11.49
 20
343.71
 30
16.50
 42
-0.017436
  0
VERTEX
  8
BORDER_D0_T132_RK1_A0_W0_EM1_RI1_ID0018
 10
10.00
 20
386.42
 30
16.50
 42
-0.017437
  0
VERTEX
  8
BORDER_D0_T132_RK1_A0_W0_EM1_RI1_ID0018
 10
11.49
 20
429.13
 30
16.50
 42
-0.018360
  0
VERTEX
  8
BORDER_D0_T132_RK1_A0_W0_EM1_RI1_ID0018
 10
15.89
 20
470.54
 30
16.50
 42
-0.020392
  0
VERTEX
  8
BORDER_D0_T132_RK1_A0_W0_EM1_RI1_ID0018
 10
23.10
 20
509.39
 30
16.50
 42
-0.023970
  0
VERTEX
  8
BORDER_D0_T132_RK1_A0_W0_EM1_RI1_ID0018
 10
32.87
 20
544.51
 30
16.50
 42
-0.029934
  0
VERTEX
  8
BORDER_D0_T132_RK1_A0_W0_EM1_RI1_ID0018
 10
44.91
 20
574.82
 30
16.50
 42
-0.039882
  0
VERTEX
  8
BORDER_D0_T132_RK1_A0_W0_EM1_RI1_ID0018
 10
58.87
 20
599.41
 30
16.50
 42
-0.056349
  0
VERTEX
  8
BORDER_D0_T132_RK1_A0_W0_EM1_RI1_ID0018
 10
74.31
 20
617.53
 30
16.50
 42
-0.081329
  0
VERTEX
  8
BORDER_D0_T132_RK1_A0_W0_EM1_RI1_ID0018
 10
90.77
 20
628.62
 30
16.50
 42
-0.106572
  0
VERTEX
  8
BORDER_D0_T132_RK1_A0_W0_EM1_RI1_ID0018
 10
107.74
 20
632.36
 30
16.50
  0
SEQEND
  8
BORDER_D0_T132_RK1_A0_W0_EM1_RI1_ID0018
  0
POLYLINE
  8
BORDER_D0_T132_RK1_A0_W0_EM1_RI1_ID0002
 70
1
 66
1
  0
VERTEX
  8
BORDER_D0_T132_RK1_A0_W0_EM1_RI1_ID0002
 10
422.85
 20
1171.80
 30
16.50
  0
VERTEX
  8
BORDER_D0_T132_RK1_A0_W0_EM1_RI1_ID0002
 10
359.99
 20
1412.44
 30
16.50
  0
VERTEX
  8
BORDER_D0_T132_RK1_A0_W0_EM1_RI1_ID0002
 10
167.69
 20
1254.71
 30
16.50
  0
VERTEX
  8
BORDER_D0_T132_RK1_A0_W0_EM1_RI1_ID0002
 10
258.28
 20
1486.34
 30
16.50
  0
VERTEX
  8
BORDER_D0_T132_RK1_A0_W0_EM1_RI1_ID0002
 10
9.99
 20
1471.76
 30
16.50
  0
VERTEX
  8
BORDER_D0_T132_RK1_A0_W0_EM1_RI1_ID0002
 10
219.43
 20
1605.90
 30
16.50
  0
VERTEX
  8
BORDER_D0_T132_RK1_A0_W0_EM1_RI1_ID0002
 10
9.99
 20
1740.03
 30
16.50
  0
VERTEX
  8
BORDER_D0_T132_RK1_A0_W0_EM1_RI1_ID0002
 10
258.28
 20
1725.46
 30
16.50
  0
VERTEX
  8
BORDER_D0_T132_RK1_A0_W0_EM1_RI1_ID0002
 10
167.69
 20
1957.09
 30
16.50
  0
VERTEX
  8
BORDER_D0_T132_RK1_A0_W0_EM1_RI1_ID0002
 10
359.99
 20
1799.36
 30
16.50
  0
VERTEX
  8
BORDER_D0_T132_RK1_A0_W0_EM1_RI1_ID0002
 10
422.85
 20
2040.00
 30
16.50
  0
VERTEX
  8
BORDER_D0_T132_RK1_A0_W0_EM1_RI1_ID0002
 10
485.70
 20
1799.36
 30
16.50
  0
VERTEX
  8
BORDER_D0_T132_RK1_A0_W0_EM1_RI1_ID0002
 10
678.01
 20
1957.09
 30
16.50
  0
VERTEX
  8
BORDER_D0_T132_RK1_A0_W0_EM1_RI1_ID0002
 10
587.41
 20
1725.46
 30
16.50
  0
VERTEX
  8
BORDER_D0_T132_RK1_A0_W0_EM1_RI1_ID0002
 10
835.71
 20
1740.03
 30
16.50
  0
VERTEX
  8
BORDER_D0_T132_RK1_A0_W0_EM1_RI1_ID0002
 10
626.27
 20
1605.90
 30
16.50
  0
VERTEX
  8
BORDER_D0_T132_RK1_A0_W0_EM1_RI1_ID0002
 10
835.71
 20
1471.76
 30
16.50
  0
VERTEX
  8
BORDER_D0_T132_RK1_A0_W0_EM1_RI1_ID0002
 10
587.41
 20
1486.34
 30
16.50
  0
VERTEX
  8
BORDER_D0_T132_RK1_A0_W0_EM1_RI1_ID0002
 10
678.01
 20
1254.71
 30
16.50
  0
VERTEX
  8
BORDER_D0_T132_RK1_A0_W0_EM1_RI1_ID0002
 10
485.70
 20
1412.44
 30
16.50
  0
VERTEX
  8
BORDER_D0_T132_RK1_A0_W0_EM1_RI1_ID0002
 10
422.85
 20
1171.80
 30
16.50
  0
SEQEND
  8
BORDER_D0_T132_RK1_A0_W0_EM1_RI1_ID0002
  0
POLYLINE
  8
BORDER_D0_T132_RK1_A0_W0_EM1_RI1_ID0002
 70
1
 66
1
  0
VERTEX
  8
BORDER_D0_T132_RK1_A0_W0_EM1_RI1_ID0002
 10
1097.95
 20
897.59
 30
16.50
  0
VERTEX
  8
BORDER_D0_T132_RK1_A0_W0_EM1_RI1_ID0002
 10
1035.09
 20
1138.23
 30
16.50
  0
VERTEX
  8
BORDER_D0_T132_RK1_A0_W0_EM1_RI1_ID0002
 10
842.79
 20
980.50
 30
16.50
  0
VERTEX
  8
BORDER_D0_T132_RK1_A0_W0_EM1_RI1_ID0002
 10
933.38
 20
1212.13
 30
16.50
  0
VERTEX
  8
BORDER_D0_T132_RK1_A0_W0_EM1_RI1_ID0002
 10
685.09
 20
1197.55
 30
16.50
  0
VERTEX
  8
BORDER_D0_T132_RK1_A0_W0_EM1_RI1_ID0002
 10
894.53
 20
1331.69
 30
16.50
  0
VERTEX
  8
BORDER_D0_T132_RK1_A0_W0_EM1_RI1_ID0002
 10
685.09
 20
1465.82
 30
16.50
  0
VERTEX
  8
BORDER_D0_T132_RK1_A0_W0_EM1_RI1_ID0002
 10
933.38
 20
1451.25
 30
16.50
  0
VERTEX
  8
BORDER_D0_T132_RK1_A0_W0_EM1_RI1_ID0002
 10
842.79
 20
1682.88
 30
16.50
  0
VERTEX
  8
BORDER_D0_T132_RK1_A0_W0_EM1_RI1_ID0002
 10
1035.09
 20
1525.15
 30
16.50
  0
VERTEX
  8
BORDER_D0_T132_RK1_A0_W0_EM1_RI1_ID0002
 10
1097.95
 20
1765.79
 30
16.50
  0
VERTEX
  8
BORDER_D0_T132_RK1_A0_W0_EM1_RI1_ID0002
 10
1160.80
 20
1525.15
 30
16.50
  0
VERTEX
  8
BORDER_D0_T132_RK1_A0_W0_EM1_RI1_ID0002
 10
1353.11
 20
1682.88
 30
16.50
  0
VERTEX
  8
BORDER_D0_T132_RK1_A0_W0_EM1_RI1_ID0002
 10
1262.51
 20
1451.25
 30
16.50
  0
VERTEX
  8
BORDER_D0_T132_RK1_A0_W0_EM1_RI1_ID0002
 10
1510.81
 20
1465.82
 30
16.50
  0
VERTEX
  8
BORDER_D0_T132_RK1_A0_W0_EM1_RI1_ID0002
 10
1301.37
 20
1331.69
 30
16.50
  0
VERTEX
  8
BORDER_D0_T132_RK1_A0_W0_EM1_RI1_ID0002
 10
1510.81
 20
1197.55
 30
16.50
  0
VERTEX
  8
BORDER_D0_T132_RK1_A0_W0_EM1_RI1_ID0002
 10
1262.51
 20
1212.13
 30
16.50
  0
VERTEX
  8
BORDER_D0_T132_RK1_A0_W0_EM1_RI1_ID0002
 10
1353.11
 20
980.50
 30
16.50
  0
VERTEX
  8
BORDER_D0_T132_RK1_A0_W0_EM1_RI1_ID0002
 10
1160.80
 20
1138.23
 30
16.50
  0
VERTEX
  8
BORDER_D0_T132_RK1_A0_W0_EM1_RI1_ID0002
 10
1097.95
 20
897.59
 30
16.50
  0
SEQEND
  8
BORDER_D0_T132_RK1_A0_W0_EM1_RI1_ID0002
  0
POLYLINE
  8
BORDER_D0_T132_RK1_A0_W0_EM1_RI1_ID0007
 70
1
 66
1
  0
VERTEX
  8
BORDER_D0_T132_RK1_A0_W0_EM1_RI1_ID0007
 10
1534.50
 20
1775.00
 30
16.50
  0
VERTEX
  8
BORDER_D0_T132_RK1_A0_W0_EM1_RI1_ID0007
 10
1466.97
 20
1753.05
 30
16.50
  0
VERTEX
  8
BORDER_D0_T132_RK1_A0_W0_EM1_RI1_ID0007
 10
1466.97
 20
1682.04
 30
16.50
  0
VERTEX
  8
BORDER_D0_T132_RK1_A0_W0_EM1_RI1_ID0007
 10
1425.23
 20
1739.49
 30
16.50
  0
VERTEX
  8
BORDER_D0_T132_RK1_A0_W0_EM1_RI1_ID0007
 10
1357.69
 20
1717.55
 30
16.50
  0
VERTEX
  8
BORDER_D0_T132_RK1_A0_W0_EM1_RI1_ID0007
 10
1399.43
 20
1775.00
 30
16.50
  0
VERTEX
  8
BORDER_D0_T132_RK1_A0_W0_EM1_RI1_ID0007
 10
1357.69
 20
1832.45
 30
16.50
  0
VERTEX
  8
BORDER_D0_T132_RK1_A0_W0_EM1_RI1_ID0007
 10
1425.23
 20
1810.50
 30
16.50
  0
VERTEX
  8
BORDER_D0_T132_RK1_A0_W0_EM1_RI1_ID0007
 10
1466.97
 20
1867.95
 30
16.50
  0
VERTEX
  8
BORDER_D0_T132_RK1_A0_W0_EM1_RI1_ID0007
 10
1466.97
 20
1796.94
 30
16.50
  0
VERTEX
  8
BORDER_D0_T132_RK1_A0_W0_EM1_RI1_ID0007
 10
1534.50
 20
1775.00
 30
16.50
  0
SEQEND
  8
BORDER_D0_T132_RK1_A0_W0_EM1_RI1_ID0007
  0
POLYLINE
  8
BORDER_D0_T132_RK1_A0_W0_EM1_RI1_ID0023
 70
1
 66
1
  0
VERTEX
  8
BORDER_D0_T132_RK1_A0_W0_EM1_RI1_ID0023
 10
1498.67
 20
1955.35
 30
16.50
  0
VERTEX
  8
BORDER_D0_T132_RK1_A0_W0_EM1_RI1_ID0023
 10
1449.80
 20
1870.71
 30
16.50
  0
VERTEX
  8
BORDER_D0_T132_RK1_A0_W0_EM1_RI1_ID0023
 10
1352.06
 20
1870.71
 30
16.50
  0
VERTEX
  8
BORDER_D0_T132_RK1_A0_W0_EM1_RI1_ID0023
 10
1303.19
 20
1955.35
 30
16.50
  0
VERTEX
  8
BORDER_D0_T132_RK1_A0_W0_EM1_RI1_ID0023
 10
1352.06
 20
2040.00
 30
16.50
  0
VERTEX
  8
BORDER_D0_T132_RK1_A0_W0_EM1_RI1_ID0023
 10
1449.80
 20
2040.00
 30
16.50
  0
VERTEX
  8
BORDER_D0_T132_RK1_A0_W0_EM1_RI1_ID0023
 10
1498.67
 20
1955.35
 30
16.50
  0
SEQEND
  8
BORDER_D0_T132_RK1_A0_W0_EM1_RI1_ID0023
  0
POLYLINE
  8
BORDER_D0_T132_RK1_A0_W0_EM1_RI1_ID0006
 70
1
 66
1
  0
VERTEX
  8
BORDER_D0_T132_RK1_A0_W0_EM1_RI1_ID0006
 10
1246.62
 20
1732.44
 30
16.50
  0
VERTEX
  8
BORDER_D0_T132_RK1_A0_W0_EM1_RI1_ID0006
 10
1224.67
 20
1762.64
 30
16.50
  0
VERTEX
  8
BORDER_D0_T132_RK1_A0_W0_EM1_RI1_ID0006
 10
1189.17
 20
1751.11
 30
16.50
  0
VERTEX
  8
BORDER_D0_T132_RK1_A0_W0_EM1_RI1_ID0006
 10
1189.17
 20
1788.44
 30
16.50
  0
VERTEX
  8
BORDER_D0_T132_RK1_A0_W0_EM1_RI1_ID0006
 10
1153.66
 20
1799.97
 30
16.50
  0
VERTEX
  8
BORDER_D0_T132_RK1_A0_W0_EM1_RI1_ID0006
 10
1175.60
 20
1830.18
 30
16.50
  0
VERTEX
  8
BORDER_D0_T132_RK1_A0_W0_EM1_RI1_ID0006
 10
1153.66
 20
1860.37
 30
16.50
  0
VERTEX
  8
BORDER_D0_T132_RK1_A0_W0_EM1_RI1_ID0006
 10
1189.17
 20
1871.92
 30
16.50
  0
VERTEX
  8
BORDER_D0_T132_RK1_A0_W0_EM1_RI1_ID0006
 10
1189.17
 20
1909.24
 30
16.50
  0
VERTEX
  8
BORDER_D0_T132_RK1_A0_W0_EM1_RI1_ID0006
 10
1224.67
 20
1897.71
 30
16.50
  0
VERTEX
  8
BORDER_D0_T132_RK1_A0_W0_EM1_RI1_ID0006
 10
1246.62
 20
1927.92
 30
16.50
  0
VERTEX
  8
BORDER_D0_T132_RK1_A0_W0_EM1_RI1_ID0006
 10
1268.56
 20
1897.71
 30
16.50
  0
VERTEX
  8
BORDER_D0_T132_RK1_A0_W0_EM1_RI1_ID0006
 10
1304.08
 20
1909.24
 30
16.50
  0
VERTEX
  8
BORDER_D0_T132_RK1_A0_W0_EM1_RI1_ID0006
 10
1304.08
 20
1871.92
 30
16.50
  0
VERTEX
  8
BORDER_D0_T132_RK1_A0_W0_EM1_RI1_ID0006
 10
1339.58
 20
1860.37
 30
16.50
  0
VERTEX
  8
BORDER_D0_T132_RK1_A0_W0_EM1_RI1_ID0006
 10
1317.64
 20
1830.18
 30
16.50
  0
VERTEX
  8
BORDER_D0_T132_RK1_A0_W0_EM1_RI1_ID0006
 10
1339.58
 20
1799.97
 30
16.50
  0
VERTEX
  8
BORDER_D0_T132_RK1_A0_W0_EM1_RI1_ID0006
 10
1304.08
 20
1788.44
 30
16.50
  0
VERTEX
  8
BORDER_D0_T132_RK1_A0_W0_EM1_RI1_ID0006
 10
1304.08
 20
1751.11
 30
16.50
  0
VERTEX
  8
BORDER_D0_T132_RK1_A0_W0_EM1_RI1_ID0006
 10
1268.56
 20
1762.64
 30
16.50
  0
VERTEX
  8
BORDER_D0_T132_RK1_A0_W0_EM1_RI1_ID0006
 10
1246.62
 20
1732.44
 30
16.50
  0
SEQEND
  8
BORDER_D0_T132_RK1_A0_W0_EM1_RI1_ID0006
  0
POLYLINE
  8
BORDER_D0_T132_RK1_A0_W0_EM1_RI1_ID0002
 70
1
 66
1
  0
VERTEX
  8
BORDER_D0_T132_RK1_A0_W0_EM1_RI1_ID0002
 10
2284.31
 20
1627.14
 30
16.50
  0
VERTEX
  8
BORDER_D0_T132_RK1_A0_W0_EM1_RI1_ID0002
 10
2043.67
 20
1564.29
 30
16.50
  0
VERTEX
  8
BORDER_D0_T132_RK1_A0_W0_EM1_RI1_ID0002
 10
2201.40
 20
1371.99
 30
16.50
  0
VERTEX
  8
BORDER_D0_T132_RK1_A0_W0_EM1_RI1_ID0002
 10
1969.77
 20
1462.58
 30
16.50
  0
VERTEX
  8
BORDER_D0_T132_RK1_A0_W0_EM1_RI1_ID0002
 10
1984.35
 20
1214.29
 30
16.50
  0
VERTEX
  8
BORDER_D0_T132_RK1_A0_W0_EM1_RI1_ID0002
 10
1850.21
 20
1423.73
 30
16.50
  0
VERTEX
  8
BORDER_D0_T132_RK1_A0_W0_EM1_RI1_ID0002
 10
1716.07
 20
1214.29
 30
16.50
  0
VERTEX
  8
BORDER_D0_T132_RK1_A0_W0_EM1_RI1_ID0002
 10
1730.65
 20
1462.58
 30
16.50
  0
VERTEX
  8
BORDER_D0_T132_RK1_A0_W0_EM1_RI1_ID0002
 10
1499.02
 20
1371.99
 30
16.50
  0
VERTEX
  8
BORDER_D0_T132_RK1_A0_W0_EM1_RI1_ID0002
 10
1656.75
 20
1564.29
 30
16.50
  0
VERTEX
  8
BORDER_D0_T132_RK1_A0_W0_EM1_RI1_ID0002
 10
1416.11
 20
1627.14
 30
16.50
  0
VERTEX
  8
BORDER_D0_T132_RK1_A0_W0_EM1_RI1_ID0002
 10
1656.75
 20
1690.00
 30
16.50
  0
VERTEX
  8
BORDER_D0_T132_RK1_A0_W0_EM1_RI1_ID0002
 10
1499.02
 20
1882.30
 30
16.50
  0
VERTEX
  8
BORDER_D0_T132_RK1_A0_W0_EM1_RI1_ID0002
 10
1730.65
 20
1791.71
 30
16.50
  0
VERTEX
  8
BORDER_D0_T132_RK1_A0_W0_EM1_RI1_ID0002
 10
1716.07
 20
2040.00
 30
16.50
  0
VERTEX
  8
BORDER_D0_T132_RK1_A0_W0_EM1_RI1_ID0002
 10
1850.21
 20
1830.56
 30
16.50
  0
VERTEX
  8
BORDER_D0_T132_RK1_A0_W0_EM1_RI1_ID0002
 10
1984.35
 20
2040.00
 30
16.50
  0
VERTEX
  8
BORDER_D0_T132_RK1_A0_W0_EM1_RI1_ID0002
 10
1969.77
 20
1791.71
 30
16.50
  0
VERTEX
  8
BORDER_D0_T132_RK1_A0_W0_EM1_RI1_ID0002
 10
2201.40
 20
1882.30
 30
16.50
  0
VERTEX
  8
BORDER_D0_T132_RK1_A0_W0_EM1_RI1_ID0002
 10
2043.67
 20
1690.00
 30
16.50
  0
VERTEX
  8
BORDER_D0_T132_RK1_A0_W0_EM1_RI1_ID0002
 10
2284.31
 20
1627.14
 30
16.50
  0
SEQEND
  8
BORDER_D0_T132_RK1_A0_W0_EM1_RI1_ID0002
  0
POLYLINE
  8
BORDER_D0_T132_RK1_A0_W0_EM1_RI1_ID0006
 70
1
 66
1
  0
VERTEX
  8
BORDER_D0_T132_RK1_A0_W0_EM1_RI1_ID0006
 10
2275.12
 20
1192.55
 30
16.50
  0
VERTEX
  8
BORDER_D0_T132_RK1_A0_W0_EM1_RI1_ID0006
 10
2253.17
 20
1222.75
 30
16.50
  0
VERTEX
  8
BORDER_D0_T132_RK1_A0_W0_EM1_RI1_ID0006
 10
2217.67
 20
1211.22
 30
16.50
  0
VERTEX
  8
BORDER_D0_T132_RK1_A0_W0_EM1_RI1_ID0006
 10
2217.67
 20
1248.55
 30
16.50
  0
VERTEX
  8
BORDER_D0_T132_RK1_A0_W0_EM1_RI1_ID0006
 10
2182.16
 20
1260.08
 30
16.50
  0
VERTEX
  8
BORDER_D0_T132_RK1_A0_W0_EM1_RI1_ID0006
 10
2204.10
 20
1290.29
 30
16.50
  0
VERTEX
  8
BORDER_D0_T132_RK1_A0_W0_EM1_RI1_ID0006
 10
2182.16
 20
1320.48
 30
16.50
  0
VERTEX
  8
BORDER_D0_T132_RK1_A0_W0_EM1_RI1_ID0006
 10
2217.67
 20
1332.03
 30
16.50
  0
VERTEX
  8
BORDER_D0_T132_RK1_A0_W0_EM1_RI1_ID0006
 10
2217.67
 20
1369.35
 30
16.50
  0
VERTEX
  8
BORDER_D0_T132_RK1_A0_W0_EM1_RI1_ID0006
 10
2253.17
 20
1357.82
 30
16.50
  0
VERTEX
  8
BORDER_D0_T132_RK1_A0_W0_EM1_RI1_ID0006
 10
2275.12
 20
1388.03
 30
16.50
  0
VERTEX
  8
BORDER_D0_T132_RK1_A0_W0_EM1_RI1_ID0006
 10
2297.06
 20
1357.82
 30
16.50
  0
VERTEX
  8
BORDER_D0_T132_RK1_A0_W0_EM1_RI1_ID0006
 10
2332.58
 20
1369.35
 30
16.50
  0
VERTEX
  8
BORDER_D0_T132_RK1_A0_W0_EM1_RI1_ID0006
 10
2332.58
 20
1332.03
 30
16.50
  0
VERTEX
  8
BORDER_D0_T132_RK1_A0_W0_EM1_RI1_ID0006
 10
2368.08
 20
1320.48
 30
16.50
  0
VERTEX
  8
BORDER_D0_T132_RK1_A0_W0_EM1_RI1_ID0006
 10
2346.14
 20
1290.29
 30
16.50
  0
VERTEX
  8
BORDER_D0_T132_RK1_A0_W0_EM1_RI1_ID0006
 10
2368.08
 20
1260.08
 30
16.50
  0
VERTEX
  8
BORDER_D0_T132_RK1_A0_W0_EM1_RI1_ID0006
 10
2332.58
 20
1248.55
 30
16.50
  0
VERTEX
  8
BORDER_D0_T132_RK1_A0_W0_EM1_RI1_ID0006
 10
2332.58
 20
1211.22
 30
16.50
  0
VERTEX
  8
BORDER_D0_T132_RK1_A0_W0_EM1_RI1_ID0006
 10
2297.06
 20
1222.75
 30
16.50
  0
VERTEX
  8
BORDER_D0_T132_RK1_A0_W0_EM1_RI1_ID0006
 10
2275.12
 20
1192.55
 30
16.50
  0
SEQEND
  8
BORDER_D0_T132_RK1_A0_W0_EM1_RI1_ID0006
  0
POLYLINE
  8
BORDER_D0_T132_RK1_A0_W0_EM1_RI1_ID0006
 70
1
 66
1
  0
VERTEX
  8
BORDER_D0_T132_RK1_A0_W0_EM1_RI1_ID0006
 10
2341.67
 20
1500.14
 30
16.50
  0
VERTEX
  8
BORDER_D0_T132_RK1_A0_W0_EM1_RI1_ID0006
 10
2311.47
 20
1478.19
 30
16.50
  0
VERTEX
  8
BORDER_D0_T132_RK1_A0_W0_EM1_RI1_ID0006
 10
2323.00
 20
1442.69
 30
16.50
  0
VERTEX
  8
BORDER_D0_T132_RK1_A0_W0_EM1_RI1_ID0006
 10
2285.67
 20
1442.69
 30
16.50
  0
VERTEX
  8
BORDER_D0_T132_RK1_A0_W0_EM1_RI1_ID0006
 10
2274.13
 20
1407.18
 30
16.50
  0
VERTEX
  8
BORDER_D0_T132_RK1_A0_W0_EM1_RI1_ID0006
 10
2243.93
 20
1429.12
 30
16.50
  0
VERTEX
  8
BORDER_D0_T132_RK1_A0_W0_EM1_RI1_ID0006
 10
2213.73
 20
1407.18
 30
16.50
  0
VERTEX
  8
BORDER_D0_T132_RK1_A0_W0_EM1_RI1_ID0006
 10
2202.19
 20
1442.69
 30
16.50
  0
VERTEX
  8
BORDER_D0_T132_RK1_A0_W0_EM1_RI1_ID0006
 10
2164.86
 20
1442.69
 30
16.50
  0
VERTEX
  8
BORDER_D0_T132_RK1_A0_W0_EM1_RI1_ID0006
 10
2176.39
 20
1478.19
 30
16.50
  0
VERTEX
  8
BORDER_D0_T132_RK1_A0_W0_EM1_RI1_ID0006
 10
2146.19
 20
1500.14
 30
16.50
  0
VERTEX
  8
BORDER_D0_T132_RK1_A0_W0_EM1_RI1_ID0006
 10
2176.39
 20
1522.08
 30
16.50
  0
VERTEX
  8
BORDER_D0_T132_RK1_A0_W0_EM1_RI1_ID0006
 10
2164.86
 20
1557.59
 30
16.50
  0
VERTEX
  8
BORDER_D0_T132_RK1_A0_W0_EM1_RI1_ID0006
 10
2202.19
 20
1557.59
 30
16.50
  0
VERTEX
  8
BORDER_D0_T132_RK1_A0_W0_EM1_RI1_ID0006
 10
2213.73
 20
1593.09
 30
16.50
  0
VERTEX
  8
BORDER_D0_T132_RK1_A0_W0_EM1_RI1_ID0006
 10
2243.93
 20
1571.15
 30
16.50
  0
VERTEX
  8
BORDER_D0_T132_RK1_A0_W0_EM1_RI1_ID0006
 10
2274.13
 20
1593.09
 30
16.50
  0
VERTEX
  8
BORDER_D0_T132_RK1_A0_W0_EM1_RI1_ID0006
 10
2285.67
 20
1557.59
 30
16.50
  0
VERTEX
  8
BORDER_D0_T132_RK1_A0_W0_EM1_RI1_ID0006
 10
2323.00
 20
1557.59
 30
16.50
  0
VERTEX
  8
BORDER_D0_T132_RK1_A0_W0_EM1_RI1_ID0006
 10
2311.47
 20
1522.08
 30
16.50
  0
VERTEX
  8
BORDER_D0_T132_RK1_A0_W0_EM1_RI1_ID0006
 10
2341.67
 20
1500.14
 30
16.50
  0
SEQEND
  8
BORDER_D0_T132_RK1_A0_W0_EM1_RI1_ID0006
  0
POLYLINE
  8
BORDER_D0_T132_RK1_A0_W0_EM1_RI1_ID0025
 70
1
 66
1
  0
VERTEX
  8
BORDER_D0_T132_RK1_A0_W0_EM1_RI1_ID0025
 10
2087.77
 20
1861.60
 30
16.50
  0
VERTEX
  8
BORDER_D0_T132_RK1_A0_W0_EM1_RI1_ID0025
 10
1994.81
 20
1929.13
 30
16.50
  0
VERTEX
  8
BORDER_D0_T132_RK1_A0_W0_EM1_RI1_ID0025
 10
2030.32
 20
2038.41
 30
16.50
  0
VERTEX
  8
BORDER_D0_T132_RK1_A0_W0_EM1_RI1_ID0025
 10
2145.22
 20
2038.41
 30
16.50
  0
VERTEX
  8
BORDER_D0_T132_RK1_A0_W0_EM1_RI1_ID0025
 10
2180.72
 20
1929.13
 30
16.50
  0
VERTEX
  8
BORDER_D0_T132_RK1_A0_W0_EM1_RI1_ID0025
 10
2087.77
 20
1861.60
 30
16.50
  0
SEQEND
  8
BORDER_D0_T132_RK1_A0_W0_EM1_RI1_ID0025
  0
POLYLINE
  8
BORDER_D0_T132_RK1_A0_W0_EM1_RI1_ID0025
 70
1
 66
1
  0
VERTEX
  8
BORDER_D0_T132_RK1_A0_W0_EM1_RI1_ID0025
 10
1600.68
 20
1863.19
 30
16.50
  0
VERTEX
  8
BORDER_D0_T132_RK1_A0_W0_EM1_RI1_ID0025
 10
1507.72
 20
1930.72
 30
16.50
  0
VERTEX
  8
BORDER_D0_T132_RK1_A0_W0_EM1_RI1_ID0025
 10
1543.23
 20
2040.00
 30
16.50
  0
VERTEX
  8
BORDER_D0_T132_RK1_A0_W0_EM1_RI1_ID0025
 10
1658.13
 20
2040.00
 30
16.50
  0
VERTEX
  8
BORDER_D0_T132_RK1_A0_W0_EM1_RI1_ID0025
 10
1693.63
 20
1930.72
 30
16.50
  0
VERTEX
  8
BORDER_D0_T132_RK1_A0_W0_EM1_RI1_ID0025
 10
1600.68
 20
1863.19
 30
16.50
  0
SEQEND
  8
BORDER_D0_T132_RK1_A0_W0_EM1_RI1_ID0025
  0
POLYLINE
  8
BORDER_D0_T132_RK1_A0_W0_EM1_RI1_ID0002
 70
1
 66
1
  0
VERTEX
  8
BORDER_D0_T132_RK1_A0_W0_EM1_RI1_ID0002
 10
1868.26
 20
1358.59
 30
16.50
  0
VERTEX
  8
BORDER_D0_T132_RK1_A0_W0_EM1_RI1_ID0002
 10
1931.11
 20
1117.95
 30
16.50
  0
VERTEX
  8
BORDER_D0_T132_RK1_A0_W0_EM1_RI1_ID0002
 10
2123.41
 20
1275.67
 30
16.50
  0
VERTEX
  8
BORDER_D0_T132_RK1_A0_W0_EM1_RI1_ID0002
 10
2032.82
 20
1044.04
 30
16.50
  0
VERTEX
  8
BORDER_D0_T132_RK1_A0_W0_EM1_RI1_ID0002
 10
2281.11
 20
1058.62
 30
16.50
  0
VERTEX
  8
BORDER_D0_T132_RK1_A0_W0_EM1_RI1_ID0002
 10
2071.67
 20
924.49
 30
16.50
  0
VERTEX
  8
BORDER_D0_T132_RK1_A0_W0_EM1_RI1_ID0002
 10
2281.11
 20
790.34
 30
16.50
  0
VERTEX
  8
BORDER_D0_T132_RK1_A0_W0_EM1_RI1_ID0002
 10
2032.82
 20
804.93
 30
16.50
  0
VERTEX
  8
BORDER_D0_T132_RK1_A0_W0_EM1_RI1_ID0002
 10
2123.41
 20
573.30
 30
16.50
  0
VERTEX
  8
BORDER_D0_T132_RK1_A0_W0_EM1_RI1_ID0002
 10
1931.11
 20
731.03
 30
16.50
  0
VERTEX
  8
BORDER_D0_T132_RK1_A0_W0_EM1_RI1_ID0002
 10
1868.26
 20
490.39
 30
16.50
  0
VERTEX
  8
BORDER_D0_T132_RK1_A0_W0_EM1_RI1_ID0002
 10
1805.40
 20
731.03
 30
16.50
  0
VERTEX
  8
BORDER_D0_T132_RK1_A0_W0_EM1_RI1_ID0002
 10
1613.10
 20
573.30
 30
16.50
  0
VERTEX
  8
BORDER_D0_T132_RK1_A0_W0_EM1_RI1_ID0002
 10
1703.69
 20
804.93
 30
16.50
  0
VERTEX
  8
BORDER_D0_T132_RK1_A0_W0_EM1_RI1_ID0002
 10
1455.39
 20
790.34
 30
16.50
  0
VERTEX
  8
BORDER_D0_T132_RK1_A0_W0_EM1_RI1_ID0002
 10
1664.83
 20
924.49
 30
16.50
  0
VERTEX
  8
BORDER_D0_T132_RK1_A0_W0_EM1_RI1_ID0002
 10
1455.39
 20
1058.62
 30
16.50
  0
VERTEX
  8
BORDER_D0_T132_RK1_A0_W0_EM1_RI1_ID0002
 10
1703.69
 20
1044.04
 30
16.50
  0
VERTEX
  8
BORDER_D0_T132_RK1_A0_W0_EM1_RI1_ID0002
 10
1613.10
 20
1275.67
 30
16.50
  0
VERTEX
  8
BORDER_D0_T132_RK1_A0_W0_EM1_RI1_ID0002
 10
1805.40
 20
1117.95
 30
16.50
  0
VERTEX
  8
BORDER_D0_T132_RK1_A0_W0_EM1_RI1_ID0002
 10
1868.26
 20
1358.59
 30
16.50
  0
SEQEND
  8
BORDER_D0_T132_RK1_A0_W0_EM1_RI1_ID0002
  0
POLYLINE
  8
BORDER_D0_T132_RK1_A0_W0_EM1_RI1_ID0009
 70
1
 66
1
  0
VERTEX
  8
BORDER_D0_T132_RK1_A0_W0_EM1_RI1_ID0009
 10
1716.50
 20
499.99
 30
16.50
  0
VERTEX
  8
BORDER_D0_T132_RK1_A0_W0_EM1_RI1_ID0009
 10
1653.86
 20
479.73
 30
16.50
  0
VERTEX
  8
BORDER_D0_T132_RK1_A0_W0_EM1_RI1_ID0009
 10
1667.63
 20
415.35
 30
16.50
  0
VERTEX
  8
BORDER_D0_T132_RK1_A0_W0_EM1_RI1_ID0009
 10
1618.76
 20
459.46
 30
16.50
  0
VERTEX
  8
BORDER_D0_T132_RK1_A0_W0_EM1_RI1_ID0009
 10
1569.89
 20
415.35
 30
16.50
  0
VERTEX
  8
BORDER_D0_T132_RK1_A0_W0_EM1_RI1_ID0009
 10
1583.66
 20
479.73
 30
16.50
  0
VERTEX
  8
BORDER_D0_T132_RK1_A0_W0_EM1_RI1_ID0009
 10
1521.02
 20
499.99
 30
16.50
  0
VERTEX
  8
BORDER_D0_T132_RK1_A0_W0_EM1_RI1_ID0009
 10
1583.66
 20
520.26
 30
16.50
  0
VERTEX
  8
BORDER_D0_T132_RK1_A0_W0_EM1_RI1_ID0009
 10
1569.89
 20
584.64
 30
16.50
  0
VERTEX
  8
BORDER_D0_T132_RK1_A0_W0_EM1_RI1_ID0009
 10
1618.76
 20
540.53
 30
16.50
  0
VERTEX
  8
BORDER_D0_T132_RK1_A0_W0_EM1_RI1_ID0009
 10
1667.63
 20
584.64
 30
16.50
  0
VERTEX
  8
BORDER_D0_T132_RK1_A0_W0_EM1_RI1_ID0009
 10
1653.86
 20
520.26
 30
16.50
  0
VERTEX
  8
BORDER_D0_T132_RK1_A0_W0_EM1_RI1_ID0009
 10
1716.50
 20
499.99
 30
16.50
  0
SEQEND
  8
BORDER_D0_T132_RK1_A0_W0_EM1_RI1_ID0009
  0
POLYLINE
  8
BORDER_D0_T132_RK1_A0_W0_EM1_RI1_ID0002
 70
1
 66
1
  0
VERTEX
  8
BORDER_D0_T132_RK1_A0_W0_EM1_RI1_ID0002
 10
702.15
 20
601.91
 30
16.50
  0
VERTEX
  8
BORDER_D0_T132_RK1_A0_W0_EM1_RI1_ID0002
 10
942.79
 20
664.76
 30
16.50
  0
VERTEX
  8
BORDER_D0_T132_RK1_A0_W0_EM1_RI1_ID0002
 10
785.06
 20
857.06
 30
16.50
  0
VERTEX
  8
BORDER_D0_T132_RK1_A0_W0_EM1_RI1_ID0002
 10
1016.69
 20
766.47
 30
16.50
  0
VERTEX
  8
BORDER_D0_T132_RK1_A0_W0_EM1_RI1_ID0002
 10
1002.11
 20
1014.76
 30
16.50
  0
VERTEX
  8
BORDER_D0_T132_RK1_A0_W0_EM1_RI1_ID0002
 10
1136.25
 20
805.32
 30
16.50
  0
VERTEX
  8
BORDER_D0_T132_RK1_A0_W0_EM1_RI1_ID0002
 10
1270.39
 20
1014.76
 30
16.50
  0
VERTEX
  8
BORDER_D0_T132_RK1_A0_W0_EM1_RI1_ID0002
 10
1255.81
 20
766.47
 30
16.50
  0
VERTEX
  8
BORDER_D0_T132_RK1_A0_W0_EM1_RI1_ID0002
 10
1487.44
 20
857.06
 30
16.50
  0
VERTEX
  8
BORDER_D0_T132_RK1_A0_W0_EM1_RI1_ID0002
 10
1329.71
 20
664.76
 30
16.50
  0
VERTEX
  8
BORDER_D0_T132_RK1_A0_W0_EM1_RI1_ID0002
 10
1570.35
 20
601.91
 30
16.50
  0
VERTEX
  8
BORDER_D0_T132_RK1_A0_W0_EM1_RI1_ID0002
 10
1329.71
 20
539.05
 30
16.50
  0
VERTEX
  8
BORDER_D0_T132_RK1_A0_W0_EM1_RI1_ID0002
 10
1487.44
 20
346.75
 30
16.50
  0
VERTEX
  8
BORDER_D0_T132_RK1_A0_W0_EM1_RI1_ID0002
 10
1255.81
 20
437.34
 30
16.50
  0
VERTEX
  8
BORDER_D0_T132_RK1_A0_W0_EM1_RI1_ID0002
 10
1270.39
 20
189.05
 30
16.50
  0
VERTEX
  8
BORDER_D0_T132_RK1_A0_W0_EM1_RI1_ID0002
 10
1136.25
 20
398.49
 30
16.50
  0
VERTEX
  8
BORDER_D0_T132_RK1_A0_W0_EM1_RI1_ID0002
 10
1002.11
 20
189.05
 30
16.50
  0
VERTEX
  8
BORDER_D0_T132_RK1_A0_W0_EM1_RI1_ID0002
 10
1016.69
 20
437.34
 30
16.50
  0
VERTEX
  8
BORDER_D0_T132_RK1_A0_W0_EM1_RI1_ID0002
 10
785.06
 20
346.75
 30
16.50
  0
VERTEX
  8
BORDER_D0_T132_RK1_A0_W0_EM1_RI1_ID0002
 10
942.79
 20
539.05
 30
16.50
  0
VERTEX
  8
BORDER_D0_T132_RK1_A0_W0_EM1_RI1_ID0002
 10
702.15
 20
601.91
 30
16.50
  0
SEQEND
  8
BORDER_D0_T132_RK1_A0_W0_EM1_RI1_ID0002
  0
POLYLINE
  8
BORDER_D0_T132_RK1_A0_W0_EM1_RI1_ID0023
 70
1
 66
1
  0
VERTEX
  8
BORDER_D0_T132_RK1_A0_W0_EM1_RI1_ID0023
 10
681.40
 20
182.25
 30
16.50
  0
VERTEX
  8
BORDER_D0_T132_RK1_A0_W0_EM1_RI1_ID0023
 10
596.76
 20
231.12
 30
16.50
  0
VERTEX
  8
BORDER_D0_T132_RK1_A0_W0_EM1_RI1_ID0023
 10
596.76
 20
328.86
 30
16.50
  0
VERTEX
  8
BORDER_D0_T132_RK1_A0_W0_EM1_RI1_ID0023
 10
681.40
 20
377.73
 30
16.50
  0
VERTEX
  8
BORDER_D0_T132_RK1_A0_W0_EM1_RI1_ID0023
 10
766.04
 20
328.86
 30
16.50
  0
VERTEX
  8
BORDER_D0_T132_RK1_A0_W0_EM1_RI1_ID0023
 10
766.04
 20
231.12
 30
16.50
  0
VERTEX
  8
BORDER_D0_T132_RK1_A0_W0_EM1_RI1_ID0023
 10
681.40
 20
182.25
 30
16.50
  0
SEQEND
  8
BORDER_D0_T132_RK1_A0_W0_EM1_RI1_ID0023
  0
POLYLINE
  8
BORDER_D0_T132_RK1_A0_W0_EM1_RI1_ID0006
 70
1
 66
1
  0
VERTEX
  8
BORDER_D0_T132_RK1_A0_W0_EM1_RI1_ID0006
 10
487.29
 20
308.01
 30
16.50
  0
VERTEX
  8
BORDER_D0_T132_RK1_A0_W0_EM1_RI1_ID0006
 10
509.23
 20
277.80
 30
16.50
  0
VERTEX
  8
BORDER_D0_T132_RK1_A0_W0_EM1_RI1_ID0006
 10
544.73
 20
289.33
 30
16.50
  0
VERTEX
  8
BORDER_D0_T132_RK1_A0_W0_EM1_RI1_ID0006
 10
544.73
 20
252.01
 30
16.50
  0
VERTEX
  8
BORDER_D0_T132_RK1_A0_W0_EM1_RI1_ID0006
 10
580.25
 20
240.47
 30
16.50
  0
VERTEX
  8
BORDER_D0_T132_RK1_A0_W0_EM1_RI1_ID0006
 10
558.31
 20
210.27
 30
16.50
  0
VERTEX
  8
BORDER_D0_T132_RK1_A0_W0_EM1_RI1_ID0006
 10
580.25
 20
180.07
 30
16.50
  0
VERTEX
  8
BORDER_D0_T132_RK1_A0_W0_EM1_RI1_ID0006
 10
544.73
 20
168.53
 30
16.50
  0
VERTEX
  8
BORDER_D0_T132_RK1_A0_W0_EM1_RI1_ID0006
 10
544.73
 20
131.20
 30
16.50
  0
VERTEX
  8
BORDER_D0_T132_RK1_A0_W0_EM1_RI1_ID0006
 10
509.23
 20
142.73
 30
16.50
  0
VERTEX
  8
BORDER_D0_T132_RK1_A0_W0_EM1_RI1_ID0006
 10
487.29
 20
112.53
 30
16.50
  0
VERTEX
  8
BORDER_D0_T132_RK1_A0_W0_EM1_RI1_ID0006
 10
465.34
 20
142.73
 30
16.50
  0
VERTEX
  8
BORDER_D0_T132_RK1_A0_W0_EM1_RI1_ID0006
 10
429.83
 20
131.20
 30
16.50
  0
VERTEX
  8
BORDER_D0_T132_RK1_A0_W0_EM1_RI1_ID0006
 10
429.83
 20
168.53
 30
16.50
  0
VERTEX
  8
BORDER_D0_T132_RK1_A0_W0_EM1_RI1_ID0006
 10
394.33
 20
180.07
 30
16.50
  0
VERTEX
  8
BORDER_D0_T132_RK1_A0_W0_EM1_RI1_ID0006
 10
416.27
 20
210.27
 30
16.50
  0
VERTEX
  8
BORDER_D0_T132_RK1_A0_W0_EM1_RI1_ID0006
 10
394.33
 20
240.47
 30
16.50
  0
VERTEX
  8
BORDER_D0_T132_RK1_A0_W0_EM1_RI1_ID0006
 10
429.83
 20
252.01
 30
16.50
  0
VERTEX
  8
BORDER_D0_T132_RK1_A0_W0_EM1_RI1_ID0006
 10
429.83
 20
289.33
 30
16.50
  0
VERTEX
  8
BORDER_D0_T132_RK1_A0_W0_EM1_RI1_ID0006
 10
465.34
 20
277.80
 30
16.50
  0
VERTEX
  8
BORDER_D0_T132_RK1_A0_W0_EM1_RI1_ID0006
 10
487.29
 20
308.01
 30
16.50
  0
SEQEND
  8
BORDER_D0_T132_RK1_A0_W0_EM1_RI1_ID0006
  0
POLYLINE
  8
BORDER_D0_T132_RK1_A0_W0_EM1_RI1_ID0006
 70
1
 66
1
  0
VERTEX
  8
BORDER_D0_T132_RK1_A0_W0_EM1_RI1_ID0006
 10
405.27
 20
268.59
 30
16.50
  0
VERTEX
  8
BORDER_D0_T132_RK1_A0_W0_EM1_RI1_ID0006
 10
375.07
 20
246.64
 30
16.50
  0
VERTEX
  8
BORDER_D0_T132_RK1_A0_W0_EM1_RI1_ID0006
 10
386.60
 20
211.14
 30
16.50
  0
VERTEX
  8
BORDER_D0_T132_RK1_A0_W0_EM1_RI1_ID0006
 10
349.27
 20
211.14
 30
16.50
  0
VERTEX
  8
BORDER_D0_T132_RK1_A0_W0_EM1_RI1_ID0006
 10
337.73
 20
175.63
 30
16.50
  0
VERTEX
  8
BORDER_D0_T132_RK1_A0_W0_EM1_RI1_ID0006
 10
307.53
 20
197.57
 30
16.50
  0
VERTEX
  8
BORDER_D0_T132_RK1_A0_W0_EM1_RI1_ID0006
 10
277.33
 20
175.63
 30
16.50
  0
VERTEX
  8
BORDER_D0_T132_RK1_A0_W0_EM1_RI1_ID0006
 10
265.79
 20
211.14
 30
16.50
  0
VERTEX
  8
BORDER_D0_T132_RK1_A0_W0_EM1_RI1_ID0006
 10
228.46
 20
211.14
 30
16.50
  0
VERTEX
  8
BORDER_D0_T132_RK1_A0_W0_EM1_RI1_ID0006
 10
239.99
 20
246.64
 30
16.50
  0
VERTEX
  8
BORDER_D0_T132_RK1_A0_W0_EM1_RI1_ID0006
 10
209.79
 20
268.59
 30
16.50
  0
VERTEX
  8
BORDER_D0_T132_RK1_A0_W0_EM1_RI1_ID0006
 10
239.99
 20
290.53
 30
16.50
  0
VERTEX
  8
BORDER_D0_T132_RK1_A0_W0_EM1_RI1_ID0006
 10
228.46
 20
326.04
 30
16.50
  0
VERTEX
  8
BORDER_D0_T132_RK1_A0_W0_EM1_RI1_ID0006
 10
265.79
 20
326.04
 30
16.50
  0
VERTEX
  8
BORDER_D0_T132_RK1_A0_W0_EM1_RI1_ID0006
 10
277.33
 20
361.54
 30
16.50
  0
VERTEX
  8
BORDER_D0_T132_RK1_A0_W0_EM1_RI1_ID0006
 10
307.53
 20
339.60
 30
16.50
  0
VERTEX
  8
BORDER_D0_T132_RK1_A0_W0_EM1_RI1_ID0006
 10
337.73
 20
361.54
 30
16.50
  0
VERTEX
  8
BORDER_D0_T132_RK1_A0_W0_EM1_RI1_ID0006
 10
349.27
 20
326.04
 30
16.50
  0
VERTEX
  8
BORDER_D0_T132_RK1_A0_W0_EM1_RI1_ID0006
 10
386.60
 20
326.04
 30
16.50
  0
VERTEX
  8
BORDER_D0_T132_RK1_A0_W0_EM1_RI1_ID0006
 10
375.07
 20
290.53
 30
16.50
  0
VERTEX
  8
BORDER_D0_T132_RK1_A0_W0_EM1_RI1_ID0006
 10
405.27
 20
268.59
 30
16.50
  0
SEQEND
  8
BORDER_D0_T132_RK1_A0_W0_EM1_RI1_ID0006
  0
POLYLINE
  8
BORDER_D0_T132_RK1_A0_W0_EM1_RI1_ID0006
 70
1
 66
1
  0
VERTEX
  8
BORDER_D0_T132_RK1_A0_W0_EM1_RI1_ID0006
 10
539.78
 20
485.01
 30
16.50
  0
VERTEX
  8
BORDER_D0_T132_RK1_A0_W0_EM1_RI1_ID0006
 10
509.58
 20
463.06
 30
16.50
  0
VERTEX
  8
BORDER_D0_T132_RK1_A0_W0_EM1_RI1_ID0006
 10
521.11
 20
427.56
 30
16.50
  0
VERTEX
  8
BORDER_D0_T132_RK1_A0_W0_EM1_RI1_ID0006
 10
483.78
 20
427.56
 30
16.50
  0
VERTEX
  8
BORDER_D0_T132_RK1_A0_W0_EM1_RI1_ID0006
 10
472.24
 20
392.05
 30
16.50
  0
VERTEX
  8
BORDER_D0_T132_RK1_A0_W0_EM1_RI1_ID0006
 10
442.04
 20
413.99
 30
16.50
  0
VERTEX
  8
BORDER_D0_T132_RK1_A0_W0_EM1_RI1_ID0006
 10
411.84
 20
392.05
 30
16.50
  0
VERTEX
  8
BORDER_D0_T132_RK1_A0_W0_EM1_RI1_ID0006
 10
400.30
 20
427.56
 30
16.50
  0
VERTEX
  8
BORDER_D0_T132_RK1_A0_W0_EM1_RI1_ID0006
 10
362.97
 20
427.56
 30
16.50
  0
VERTEX
  8
BORDER_D0_T132_RK1_A0_W0_EM1_RI1_ID0006
 10
374.50
 20
463.06
 30
16.50
  0
VERTEX
  8
BORDER_D0_T132_RK1_A0_W0_EM1_RI1_ID0006
 10
344.30
 20
485.01
 30
16.50
  0
VERTEX
  8
BORDER_D0_T132_RK1_A0_W0_EM1_RI1_ID0006
 10
374.50
 20
506.95
 30
16.50
  0
VERTEX
  8
BORDER_D0_T132_RK1_A0_W0_EM1_RI1_ID0006
 10
362.97
 20
542.46
 30
16.50
  0
VERTEX
  8
BORDER_D0_T132_RK1_A0_W0_EM1_RI1_ID0006
 10
400.30
 20
542.46
 30
16.50
  0
VERTEX
  8
BORDER_D0_T132_RK1_A0_W0_EM1_RI1_ID0006
 10
411.84
 20
577.96
 30
16.50
  0
VERTEX
  8
BORDER_D0_T132_RK1_A0_W0_EM1_RI1_ID0006
 10
442.04
 20
556.02
 30
16.50
  0
VERTEX
  8
BORDER_D0_T132_RK1_A0_W0_EM1_RI1_ID0006
 10
472.24
 20
577.96
 30
16.50
  0
VERTEX
  8
BORDER_D0_T132_RK1_A0_W0_EM1_RI1_ID0006
 10
483.78
 20
542.46
 30
16.50
  0
VERTEX
  8
BORDER_D0_T132_RK1_A0_W0_EM1_RI1_ID0006
 10
521.11
 20
542.46
 30
16.50
  0
VERTEX
  8
BORDER_D0_T132_RK1_A0_W0_EM1_RI1_ID0006
 10
509.58
 20
506.95
 30
16.50
  0
VERTEX
  8
BORDER_D0_T132_RK1_A0_W0_EM1_RI1_ID0006
 10
539.78
 20
485.01
 30
16.50
  0
SEQEND
  8
BORDER_D0_T132_RK1_A0_W0_EM1_RI1_ID0006
  0
POLYLINE
  8
BORDER_D0_T132_RK1_A0_W0_EM1_RI1_ID0002
 70
1
 66
1
  0
VERTEX
  8
BORDER_D0_T132_RK1_A0_W0_EM1_RI1_ID0002
 10
878.20
 20
900.59
 30
16.50
  0
VERTEX
  8
BORDER_D0_T132_RK1_A0_W0_EM1_RI1_ID0002
 10
637.56
 20
837.74
 30
16.50
  0
VERTEX
  8
BORDER_D0_T132_RK1_A0_W0_EM1_RI1_ID0002
 10
795.29
 20
645.44
 30
16.50
  0
VERTEX
  8
BORDER_D0_T132_RK1_A0_W0_EM1_RI1_ID0002
 10
563.66
 20
736.03
 30
16.50
  0
VERTEX
  8
BORDER_D0_T132_RK1_A0_W0_EM1_RI1_ID0002
 10
578.24
 20
487.74
 30
16.50
  0
VERTEX
  8
BORDER_D0_T132_RK1_A0_W0_EM1_RI1_ID0002
 10
444.10
 20
697.18
 30
16.50
  0
VERTEX
  8
BORDER_D0_T132_RK1_A0_W0_EM1_RI1_ID0002
 10
309.96
 20
487.74
 30
16.50
  0
VERTEX
  8
BORDER_D0_T132_RK1_A0_W0_EM1_RI1_ID0002
 10
324.54
 20
736.03
 30
16.50
  0
VERTEX
  8
BORDER_D0_T132_RK1_A0_W0_EM1_RI1_ID0002
 10
92.91
 20
645.44
 30
16.50
  0
VERTEX
  8
BORDER_D0_T132_RK1_A0_W0_EM1_RI1_ID0002
 10
250.64
 20
837.74
 30
16.50
  0
VERTEX
  8
BORDER_D0_T132_RK1_A0_W0_EM1_RI1_ID0002
 10
10.00
 20
900.59
 30
16.50
  0
VERTEX
  8
BORDER_D0_T132_RK1_A0_W0_EM1_RI1_ID0002
 10
250.64
 20
963.45
 30
16.50
  0
VERTEX
  8
BORDER_D0_T132_RK1_A0_W0_EM1_RI1_ID0002
 10
92.91
 20
1155.75
 30
16.50
  0
VERTEX
  8
BORDER_D0_T132_RK1_A0_W0_EM1_RI1_ID0002
 10
324.54
 20
1065.16
 30
16.50
  0
VERTEX
  8
BORDER_D0_T132_RK1_A0_W0_EM1_RI1_ID0002
 10
309.96
 20
1313.45
 30
16.50
  0
VERTEX
  8
BORDER_D0_T132_RK1_A0_W0_EM1_RI1_ID0002
 10
444.10
 20
1104.01
 30
16.50
  0
VERTEX
  8
BORDER_D0_T132_RK1_A0_W0_EM1_RI1_ID0002
 10
578.24
 20
1313.45
 30
16.50
  0
VERTEX
  8
BORDER_D0_T132_RK1_A0_W0_EM1_RI1_ID0002
 10
563.66
 20
1065.16
 30
16.50
  0
VERTEX
  8
BORDER_D0_T132_RK1_A0_W0_EM1_RI1_ID0002
 10
795.29
 20
1155.75
 30
16.50
  0
VERTEX
  8
BORDER_D0_T132_RK1_A0_W0_EM1_RI1_ID0002
 10
637.56
 20
963.45
 30
16.50
  0
VERTEX
  8
BORDER_D0_T132_RK1_A0_W0_EM1_RI1_ID0002
 10
878.20
 20
900.59
 30
16.50
  0
SEQEND
  8
BORDER_D0_T132_RK1_A0_W0_EM1_RI1_ID0002
  0
POLYLINE
  8
BORDER_D0_T132_RK1_A0_W0_EM1_RI1_ID0006
 70
1
 66
1
  0
VERTEX
  8
BORDER_D0_T132_RK1_A0_W0_EM1_RI1_ID0006
 10
785.96
 20
475.01
 30
16.50
  0
VERTEX
  8
BORDER_D0_T132_RK1_A0_W0_EM1_RI1_ID0006
 10
755.76
 20
453.06
 30
16.50
  0
VERTEX
  8
BORDER_D0_T132_RK1_A0_W0_EM1_RI1_ID0006
 10
767.29
 20
417.56
 30
16.50
  0
VERTEX
  8
BORDER_D0_T132_RK1_A0_W0_EM1_RI1_ID0006
 10
729.96
 20
417.56
 30
16.50
  0
VERTEX
  8
BORDER_D0_T132_RK1_A0_W0_EM1_RI1_ID0006
 10
718.42
 20
382.05
 30
16.50
  0
VERTEX
  8
BORDER_D0_T132_RK1_A0_W0_EM1_RI1_ID0006
 10
688.22
 20
403.99
 30
16.50
  0
VERTEX
  8
BORDER_D0_T132_RK1_A0_W0_EM1_RI1_ID0006
 10
658.02
 20
382.05
 30
16.50
  0
VERTEX
  8
BORDER_D0_T132_RK1_A0_W0_EM1_RI1_ID0006
 10
646.48
 20
417.56
 30
16.50
  0
VERTEX
  8
BORDER_D0_T132_RK1_A0_W0_EM1_RI1_ID0006
 10
609.15
 20
417.56
 30
16.50
  0
VERTEX
  8
BORDER_D0_T132_RK1_A0_W0_EM1_RI1_ID0006
 10
620.68
 20
453.06
 30
16.50
  0
VERTEX
  8
BORDER_D0_T132_RK1_A0_W0_EM1_RI1_ID0006
 10
590.48
 20
475.01
 30
16.50
  0
VERTEX
  8
BORDER_D0_T132_RK1_A0_W0_EM1_RI1_ID0006
 10
620.68
 20
496.95
 30
16.50
  0
VERTEX
  8
BORDER_D0_T132_RK1_A0_W0_EM1_RI1_ID0006
 10
609.15
 20
532.46
 30
16.50
  0
VERTEX
  8
BORDER_D0_T132_RK1_A0_W0_EM1_RI1_ID0006
 10
646.48
 20
532.46
 30
16.50
  0
VERTEX
  8
BORDER_D0_T132_RK1_A0_W0_EM1_RI1_ID0006
 10
658.02
 20
567.96
 30
16.50
  0
VERTEX
  8
BORDER_D0_T132_RK1_A0_W0_EM1_RI1_ID0006
 10
688.22
 20
546.02
 30
16.50
  0
VERTEX
  8
BORDER_D0_T132_RK1_A0_W0_EM1_RI1_ID0006
 10
718.42
 20
567.96
 30
16.50
  0
VERTEX
  8
BORDER_D0_T132_RK1_A0_W0_EM1_RI1_ID0006
 10
729.96
 20
532.46
 30
16.50
  0
VERTEX
  8
BORDER_D0_T132_RK1_A0_W0_EM1_RI1_ID0006
 10
767.29
 20
532.46
 30
16.50
  0
VERTEX
  8
BORDER_D0_T132_RK1_A0_W0_EM1_RI1_ID0006
 10
755.76
 20
496.95
 30
16.50
  0
VERTEX
  8
BORDER_D0_T132_RK1_A0_W0_EM1_RI1_ID0006
 10
785.96
 20
475.01
 30
16.50
  0
SEQEND
  8
BORDER_D0_T132_RK1_A0_W0_EM1_RI1_ID0006
  0
POLYLINE
  8
BORDER_D0_T132_RK1_A0_W0_EM1_RI1_ID0023
 70
1
 66
1
  0
VERTEX
  8
BORDER_D0_T132_RK1_A0_W0_EM1_RI1_ID0023
 10
894.95
 20
177.25
 30
16.50
  0
VERTEX
  8
BORDER_D0_T132_RK1_A0_W0_EM1_RI1_ID0023
 10
810.31
 20
226.12
 30
16.50
  0
VERTEX
  8
BORDER_D0_T132_RK1_A0_W0_EM1_RI1_ID0023
 10
810.31
 20
323.86
 30
16.50
  0
VERTEX
  8
BORDER_D0_T132_RK1_A0_W0_EM1_RI1_ID0023
 10
894.95
 20
372.73
 30
16.50
  0
VERTEX
  8
BORDER_D0_T132_RK1_A0_W0_EM1_RI1_ID0023
 10
979.59
 20
323.86
 30
16.50
  0
VERTEX
  8
BORDER_D0_T132_RK1_A0_W0_EM1_RI1_ID0023
 10
979.59
 20
226.12
 30
16.50
  0
VERTEX
  8
BORDER_D0_T132_RK1_A0_W0_EM1_RI1_ID0023
 10
894.95
 20
177.25
 30
16.50
  0
SEQEND
  8
BORDER_D0_T132_RK1_A0_W0_EM1_RI1_ID0023
  0
POLYLINE
  8
BORDER_D0_T132_RK1_A0_W0_EM1_RI1_ID0015
 70
1
 66
1
  0
VERTEX
  8
BORDER_D0_T132_RK1_A0_W0_EM1_RI1_ID0015
 10
1913.44
 20
270.63
 30
16.50
  0
VERTEX
  8
BORDER_D0_T132_RK1_A0_W0_EM1_RI1_ID0015
 10
1913.44
 20
205.47
 30
16.50
  0
VERTEX
  8
BORDER_D0_T132_RK1_A0_W0_EM1_RI1_ID0015
 10
1790.47
 20
172.89
 30
16.50
  0
VERTEX
  8
BORDER_D0_T132_RK1_A0_W0_EM1_RI1_ID0015
 10
1421.56
 20
221.76
 30
16.50
  0
VERTEX
  8
BORDER_D0_T132_RK1_A0_W0_EM1_RI1_ID0015
 10
1483.05
 20
241.31
 30
16.50
  0
VERTEX
  8
BORDER_D0_T132_RK1_A0_W0_EM1_RI1_ID0015
 10
1483.05
 20
299.95
 30
16.50
  0
VERTEX
  8
BORDER_D0_T132_RK1_A0_W0_EM1_RI1_ID0015
 10
1421.56
 20
319.50
 30
16.50
  0
VERTEX
  8
BORDER_D0_T132_RK1_A0_W0_EM1_RI1_ID0015
 10
1790.47
 20
368.37
 30
16.50
  0
VERTEX
  8
BORDER_D0_T132_RK1_A0_W0_EM1_RI1_ID0015
 10
1913.44
 20
335.79
 30
16.50
  0
VERTEX
  8
BORDER_D0_T132_RK1_A0_W0_EM1_RI1_ID0015
 10
1913.44
 20
270.63
 30
16.50
  0
SEQEND
  8
BORDER_D0_T132_RK1_A0_W0_EM1_RI1_ID0015
  0
POLYLINE
  8
BORDER_D0_T132_RK1_A0_W0_EM1_RI1_ID0023
 70
1
 66
1
  0
VERTEX
  8
BORDER_D0_T132_RK1_A0_W0_EM1_RI1_ID0023
 10
2012.84
 20
151.60
 30
16.50
  0
VERTEX
  8
BORDER_D0_T132_RK1_A0_W0_EM1_RI1_ID0023
 10
1928.20
 20
200.47
 30
16.50
  0
VERTEX
  8
BORDER_D0_T132_RK1_A0_W0_EM1_RI1_ID0023
 10
1928.20
 20
298.21
 30
16.50
  0
VERTEX
  8
BORDER_D0_T132_RK1_A0_W0_EM1_RI1_ID0023
 10
2012.84
 20
347.08
 30
16.50
  0
VERTEX
  8
BORDER_D0_T132_RK1_A0_W0_EM1_RI1_ID0023
 10
2097.48
 20
298.21
 30
16.50
  0
VERTEX
  8
BORDER_D0_T132_RK1_A0_W0_EM1_RI1_ID0023
 10
2097.48
 20
200.47
 30
16.50
  0
VERTEX
  8
BORDER_D0_T132_RK1_A0_W0_EM1_RI1_ID0023
 10
2012.84
 20
151.60
 30
16.50
  0
SEQEND
  8
BORDER_D0_T132_RK1_A0_W0_EM1_RI1_ID0023
  0
POLYLINE
  8
BORDER_D0_T132_RK1_A0_W0_EM1_RI1_ID0010
 70
1
 66
1
  0
VERTEX
  8
BORDER_D0_T132_RK1_A0_W0_EM1_RI1_ID0010
 10
2748.30
 20
407.01
 30
16.50
  0
VERTEX
  8
BORDER_D0_T132_RK1_A0_W0_EM1_RI1_ID0010
 10
2470.10
 20
317.00
 30
16.50
  0
VERTEX
  8
BORDER_D0_T132_RK1_A0_W0_EM1_RI1_ID0010
 10
2531.25
 20
31.07
 30
16.50
  0
VERTEX
  8
BORDER_D0_T132_RK1_A0_W0_EM1_RI1_ID0010
 10
2314.20
 20
227.00
 30
16.50
  0
VERTEX
  8
BORDER_D0_T132_RK1_A0_W0_EM1_RI1_ID0010
 10
2097.15
 20
31.07
 30
16.50
  0
VERTEX
  8
BORDER_D0_T132_RK1_A0_W0_EM1_RI1_ID0010
 10
2158.30
 20
317.00
 30
16.50
  0
VERTEX
  8
BORDER_D0_T132_RK1_A0_W0_EM1_RI1_ID0010
 10
1880.10
 20
407.01
 30
16.50
  0
VERTEX
  8
BORDER_D0_T132_RK1_A0_W0_EM1_RI1_ID0010
 10
2158.30
 20
497.02
 30
16.50
  0
VERTEX
  8
BORDER_D0_T132_RK1_A0_W0_EM1_RI1_ID0010
 10
2097.15
 20
782.95
 30
16.50
  0
VERTEX
  8
BORDER_D0_T132_RK1_A0_W0_EM1_RI1_ID0010
 10
2314.20
 20
587.03
 30
16.50
  0
VERTEX
  8
BORDER_D0_T132_RK1_A0_W0_EM1_RI1_ID0010
 10
2531.25
 20
782.95
 30
16.50
  0
VERTEX
  8
BORDER_D0_T132_RK1_A0_W0_EM1_RI1_ID0010
 10
2470.10
 20
497.02
 30
16.50
  0
VERTEX
  8
BORDER_D0_T132_RK1_A0_W0_EM1_RI1_ID0010
 10
2748.30
 20
407.01
 30
16.50
  0
SEQEND
  8
BORDER_D0_T132_RK1_A0_W0_EM1_RI1_ID0010
  0
POLYLINE
  8
BORDER_D0_T132_RK1_A0_W0_EM1_RI1_ID0006
 70
1
 66
1
  0
VERTEX
  8
BORDER_D0_T132_RK1_A0_W0_EM1_RI1_ID0006
 10
2726.80
 20
250.24
 30
16.50
  0
VERTEX
  8
BORDER_D0_T132_RK1_A0_W0_EM1_RI1_ID0006
 10
2696.60
 20
228.29
 30
16.50
  0
VERTEX
  8
BORDER_D0_T132_RK1_A0_W0_EM1_RI1_ID0006
 10
2708.13
 20
192.79
 30
16.50
  0
VERTEX
  8
BORDER_D0_T132_RK1_A0_W0_EM1_RI1_ID0006
 10
2670.80
 20
192.79
 30
16.50
  0
VERTEX
  8
BORDER_D0_T132_RK1_A0_W0_EM1_RI1_ID0006
 10
2659.26
 20
157.28
 30
16.50
  0
VERTEX
  8
BORDER_D0_T132_RK1_A0_W0_EM1_RI1_ID0006
 10
2629.06
 20
179.22
 30
16.50
  0
VERTEX
  8
BORDER_D0_T132_RK1_A0_W0_EM1_RI1_ID0006
 10
2598.86
 20
157.28
 30
16.50
  0
VERTEX
  8
BORDER_D0_T132_RK1_A0_W0_EM1_RI1_ID0006
 10
2587.32
 20
192.79
 30
16.50
  0
VERTEX
  8
BORDER_D0_T132_RK1_A0_W0_EM1_RI1_ID0006
 10
2549.99
 20
192.79
 30
16.50
  0
VERTEX
  8
BORDER_D0_T132_RK1_A0_W0_EM1_RI1_ID0006
 10
2561.52
 20
228.29
 30
16.50
  0
VERTEX
  8
BORDER_D0_T132_RK1_A0_W0_EM1_RI1_ID0006
 10
2531.32
 20
250.24
 30
16.50
  0
VERTEX
  8
BORDER_D0_T132_RK1_A0_W0_EM1_RI1_ID0006
 10
2561.52
 20
272.18
 30
16.50
  0
VERTEX
  8
BORDER_D0_T132_RK1_A0_W0_EM1_RI1_ID0006
 10
2549.99
 20
307.69
 30
16.50
  0
VERTEX
  8
BORDER_D0_T132_RK1_A0_W0_EM1_RI1_ID0006
 10
2587.32
 20
307.69
 30
16.50
  0
VERTEX
  8
BORDER_D0_T132_RK1_A0_W0_EM1_RI1_ID0006
 10
2598.86
 20
343.19
 30
16.50
  0
VERTEX
  8
BORDER_D0_T132_RK1_A0_W0_EM1_RI1_ID0006
 10
2629.06
 20
321.25
 30
16.50
  0
VERTEX
  8
BORDER_D0_T132_RK1_A0_W0_EM1_RI1_ID0006
 10
2659.26
 20
343.19
 30
16.50
  0
VERTEX
  8
BORDER_D0_T132_RK1_A0_W0_EM1_RI1_ID0006
 10
2670.80
 20
307.69
 30
16.50
  0
VERTEX
  8
BORDER_D0_T132_RK1_A0_W0_EM1_RI1_ID0006
 10
2708.13
 20
307.69
 30
16.50
  0
VERTEX
  8
BORDER_D0_T132_RK1_A0_W0_EM1_RI1_ID0006
 10
2696.60
 20
272.18
 30
16.50
  0
VERTEX
  8
BORDER_D0_T132_RK1_A0_W0_EM1_RI1_ID0006
 10
2726.80
 20
250.24
 30
16.50
  0
SEQEND
  8
BORDER_D0_T132_RK1_A0_W0_EM1_RI1_ID0006
  0
POLYLINE
  8
BORDER_D0_T132_RK1_A0_W0_EM1_RI1_ID0006
 70
1
 66
1
  0
VERTEX
  8
BORDER_D0_T132_RK1_A0_W0_EM1_RI1_ID0006
 10
2722.11
 20
685.01
 30
16.50
  0
VERTEX
  8
BORDER_D0_T132_RK1_A0_W0_EM1_RI1_ID0006
 10
2691.91
 20
663.06
 30
16.50
  0
VERTEX
  8
BORDER_D0_T132_RK1_A0_W0_EM1_RI1_ID0006
 10
2703.44
 20
627.56
 30
16.50
  0
VERTEX
  8
BORDER_D0_T132_RK1_A0_W0_EM1_RI1_ID0006
 10
2666.11
 20
627.56
 30
16.50
  0
VERTEX
  8
BORDER_D0_T132_RK1_A0_W0_EM1_RI1_ID0006
 10
2654.57
 20
592.05
 30
16.50
  0
VERTEX
  8
BORDER_D0_T132_RK1_A0_W0_EM1_RI1_ID0006
 10
2624.37
 20
613.99
 30
16.50
  0
VERTEX
  8
BORDER_D0_T132_RK1_A0_W0_EM1_RI1_ID0006
 10
2594.17
 20
592.05
 30
16.50
  0
VERTEX
  8
BORDER_D0_T132_RK1_A0_W0_EM1_RI1_ID0006
 10
2582.63
 20
627.56
 30
16.50
  0
VERTEX
  8
BORDER_D0_T132_RK1_A0_W0_EM1_RI1_ID0006
 10
2545.30
 20
627.56
 30
16.50
  0
VERTEX
  8
BORDER_D0_T132_RK1_A0_W0_EM1_RI1_ID0006
 10
2556.83
 20
663.06
 30
16.50
  0
VERTEX
  8
BORDER_D0_T132_RK1_A0_W0_EM1_RI1_ID0006
 10
2526.63
 20
685.01
 30
16.50
  0
VERTEX
  8
BORDER_D0_T132_RK1_A0_W0_EM1_RI1_ID0006
 10
2556.83
 20
706.95
 30
16.50
  0
VERTEX
  8
BORDER_D0_T132_RK1_A0_W0_EM1_RI1_ID0006
 10
2545.30
 20
742.46
 30
16.50
  0
VERTEX
  8
BORDER_D0_T132_RK1_A0_W0_EM1_RI1_ID0006
 10
2582.63
 20
742.46
 30
16.50
  0
VERTEX
  8
BORDER_D0_T132_RK1_A0_W0_EM1_RI1_ID0006
 10
2594.17
 20
777.96
 30
16.50
  0
VERTEX
  8
BORDER_D0_T132_RK1_A0_W0_EM1_RI1_ID0006
 10
2624.37
 20
756.02
 30
16.50
  0
VERTEX
  8
BORDER_D0_T132_RK1_A0_W0_EM1_RI1_ID0006
 10
2654.57
 20
777.96
 30
16.50
  0
VERTEX
  8
BORDER_D0_T132_RK1_A0_W0_EM1_RI1_ID0006
 10
2666.11
 20
742.46
 30
16.50
  0
VERTEX
  8
BORDER_D0_T132_RK1_A0_W0_EM1_RI1_ID0006
 10
2703.44
 20
742.46
 30
16.50
  0
VERTEX
  8
BORDER_D0_T132_RK1_A0_W0_EM1_RI1_ID0006
 10
2691.91
 20
706.95
 30
16.50
  0
VERTEX
  8
BORDER_D0_T132_RK1_A0_W0_EM1_RI1_ID0006
 10
2722.11
 20
685.01
 30
16.50
  0
SEQEND
  8
BORDER_D0_T132_RK1_A0_W0_EM1_RI1_ID0006
  0
POLYLINE
  8
BORDER_D0_T132_RK1_A0_W0_EM1_RI1_ID0023
 70
1
 66
1
  0
VERTEX
  8
BORDER_D0_T132_RK1_A0_W0_EM1_RI1_ID0023
 10
2608.15
 20
1056.06
 30
16.50
  0
VERTEX
  8
BORDER_D0_T132_RK1_A0_W0_EM1_RI1_ID0023
 10
2523.51
 20
1104.93
 30
16.50
  0
VERTEX
  8
BORDER_D0_T132_RK1_A0_W0_EM1_RI1_ID0023
 10
2523.51
 20
1202.67
 30
16.50
  0
VERTEX
  8
BORDER_D0_T132_RK1_A0_W0_EM1_RI1_ID0023
 10
2608.15
 20
1251.54
 30
16.50
  0
VERTEX
  8
BORDER_D0_T132_RK1_A0_W0_EM1_RI1_ID0023
 10
2692.79
 20
1202.67
 30
16.50
  0
VERTEX
  8
BORDER_D0_T132_RK1_A0_W0_EM1_RI1_ID0023
 10
2692.79
 20
1104.93
 30
16.50
  0
VERTEX
  8
BORDER_D0_T132_RK1_A0_W0_EM1_RI1_ID0023
 10
2608.15
 20
1056.06
 30
16.50
  0
SEQEND
  8
BORDER_D0_T132_RK1_A0_W0_EM1_RI1_ID0023
  0
POLYLINE
  8
BORDER_D0_T132_RK1_A0_W0_EM1_RI1_ID0018
 70
1
 66
1
  0
VERTEX
  8
BORDER_D0_T132_RK1_A0_W0_EM1_RI1_ID0018
 10
2374.75
 20
2040.00
 30
16.50
 42
-0.106572
  0
VERTEX
  8
BORDER_D0_T132_RK1_A0_W0_EM1_RI1_ID0018
 10
2391.72
 20
2036.26
 30
16.50
 42
-0.081329
  0
VERTEX
  8
BORDER_D0_T132_RK1_A0_W0_EM1_RI1_ID0018
 10
2408.18
 20
2025.17
 30
16.50
 42
-0.056348
  0
VERTEX
  8
BORDER_D0_T132_RK1_A0_W0_EM1_RI1_ID0018
 10
2423.62
 20
2007.05
 30
16.50
 42
-0.039882
  0
VERTEX
  8
BORDER_D0_T132_RK1_A0_W0_EM1_RI1_ID0018
 10
2437.58
 20
1982.46
 30
16.50
 42
-0.029934
  0
VERTEX
  8
BORDER_D0_T132_RK1_A0_W0_EM1_RI1_ID0018
 10
2449.62
 20
1952.15
 30
16.50
 42
-0.023970
  0
VERTEX
  8
BORDER_D0_T132_RK1_A0_W0_EM1_RI1_ID0018
 10
2459.39
 20
1917.03
 30
16.50
 42
-0.020392
  0
VERTEX
  8
BORDER_D0_T132_RK1_A0_W0_EM1_RI1_ID0018
 10
2466.60
 20
1878.18
 30
16.50
 42
-0.018360
  0
VERTEX
  8
BORDER_D0_T132_RK1_A0_W0_EM1_RI1_ID0018
 10
2471.00
 20
1836.77
 30
16.50
 42
-0.017437
  0
VERTEX
  8
BORDER_D0_T132_RK1_A0_W0_EM1_RI1_ID0018
 10
2472.49
 20
1794.06
 30
16.50
 42
-0.017437
  0
VERTEX
  8
BORDER_D0_T132_RK1_A0_W0_EM1_RI1_ID0018
 10
2471.00
 20
1751.35
 30
16.50
 42
-0.018360
  0
VERTEX
  8
BORDER_D0_T132_RK1_A0_W0_EM1_RI1_ID0018
 10
2466.60
 20
1709.94
 30
16.50
 42
-0.020392
  0
VERTEX
  8
BORDER_D0_T132_RK1_A0_W0_EM1_RI1_ID0018
 10
2459.39
 20
1671.09
 30
16.50
 42
-0.023970
  0
VERTEX
  8
BORDER_D0_T132_RK1_A0_W0_EM1_RI1_ID0018
 10
2449.62
 20
1635.97
 30
16.50
 42
-0.029934
  0
VERTEX
  8
BORDER_D0_T132_RK1_A0_W0_EM1_RI1_ID0018
 10
2437.58
 20
1605.66
 30
16.50
 42
-0.039882
  0
VERTEX
  8
BORDER_D0_T132_RK1_A0_W0_EM1_RI1_ID0018
 10
2423.62
 20
1581.07
 30
16.50
 42
-0.056349
  0
VERTEX
  8
BORDER_D0_T132_RK1_A0_W0_EM1_RI1_ID0018
 10
2408.18
 20
1562.95
 30
16.50
 42
-0.081329
  0
VERTEX
  8
BORDER_D0_T132_RK1_A0_W0_EM1_RI1_ID0018
 10
2391.72
 20
1551.86
 30
16.50
 42
-0.106572
  0
VERTEX
  8
BORDER_D0_T132_RK1_A0_W0_EM1_RI1_ID0018
 10
2374.75
 20
1548.12
 30
16.50
 42
-0.106572
  0
VERTEX
  8
BORDER_D0_T132_RK1_A0_W0_EM1_RI1_ID0018
 10
2357.78
 20
1551.86
 30
16.50
 42
-0.081329
  0
VERTEX
  8
BORDER_D0_T132_RK1_A0_W0_EM1_RI1_ID0018
 10
2341.32
 20
1562.95
 30
16.50
 42
-0.056348
  0
VERTEX
  8
BORDER_D0_T132_RK1_A0_W0_EM1_RI1_ID0018
 10
2325.88
 20
1581.07
 30
16.50
 42
-0.039883
  0
VERTEX
  8
BORDER_D0_T132_RK1_A0_W0_EM1_RI1_ID0018
 10
2311.92
 20
1605.66
 30
16.50
 42
-0.029934
  0
VERTEX
  8
BORDER_D0_T132_RK1_A0_W0_EM1_RI1_ID0018
 10
2299.88
 20
1635.97
 30
16.50
 42
-0.023970
  0
VERTEX
  8
BORDER_D0_T132_RK1_A0_W0_EM1_RI1_ID0018
 10
2290.11
 20
1671.09
 30
16.50
 42
-0.020392
  0
VERTEX
  8
BORDER_D0_T132_RK1_A0_W0_EM1_RI1_ID0018
 10
2282.90
 20
1709.94
 30
16.50
 42
-0.018360
  0
VERTEX
  8
BORDER_D0_T132_RK1_A0_W0_EM1_RI1_ID0018
 10
2278.50
 20
1751.35
 30
16.50
 42
-0.017437
  0
VERTEX
  8
BORDER_D0_T132_RK1_A0_W0_EM1_RI1_ID0018
 10
2277.01
 20
1794.06
 30
16.50
 42
-0.017436
  0
VERTEX
  8
BORDER_D0_T132_RK1_A0_W0_EM1_RI1_ID0018
 10
2278.50
 20
1836.77
 30
16.50
 42
-0.018360
  0
VERTEX
  8
BORDER_D0_T132_RK1_A0_W0_EM1_RI1_ID0018
 10
2282.90
 20
1878.18
 30
16.50
 42
-0.020392
  0
VERTEX
  8
BORDER_D0_T132_RK1_A0_W0_EM1_RI1_ID0018
 10
2290.11
 20
1917.03
 30
16.50
 42
-0.023970
  0
VERTEX
  8
BORDER_D0_T132_RK1_A0_W0_EM1_RI1_ID0018
 10
2299.88
 20
1952.15
 30
16.50
 42
-0.029934
  0
VERTEX
  8
BORDER_D0_T132_RK1_A0_W0_EM1_RI1_ID0018
 10
2311.92
 20
1982.46
 30
16.50
 42
-0.039883
  0
VERTEX
  8
BORDER_D0_T132_RK1_A0_W0_EM1_RI1_ID0018
 10
2325.88
 20
2007.05
 30
16.50
 42
-0.056348
  0
VERTEX
  8
BORDER_D0_T132_RK1_A0_W0_EM1_RI1_ID0018
 10
2341.32
 20
2025.17
 30
16.50
 42
-0.081329
  0
VERTEX
  8
BORDER_D0_T132_RK1_A0_W0_EM1_RI1_ID0018
 10
2357.78
 20
2036.26
 30
16.50
 42
-0.106572
  0
VERTEX
  8
BORDER_D0_T132_RK1_A0_W0_EM1_RI1_ID0018
 10
2374.75
 20
2040.00
 30
16.50
  0
SEQEND
  8
BORDER_D0_T132_RK1_A0_W0_EM1_RI1_ID0018
  0
POLYLINE
  8
BORDER_D0_T132_RK1_A0_W0_EM1_RI1_ID0018
 70
1
 66
1
  0
VERTEX
  8
BORDER_D0_T132_RK1_A0_W0_EM1_RI1_ID0018
 10
2603.57
 20
2040.00
 30
16.50
 42
-0.106572
  0
VERTEX
  8
BORDER_D0_T132_RK1_A0_W0_EM1_RI1_ID0018
 10
2620.54
 20
2036.26
 30
16.50
 42
-0.081329
  0
VERTEX
  8
BORDER_D0_T132_RK1_A0_W0_EM1_RI1_ID0018
 10
2637.00
 20
2025.17
 30
16.50
 42
-0.056349
  0
VERTEX
  8
BORDER_D0_T132_RK1_A0_W0_EM1_RI1_ID0018
 10
2652.44
 20
2007.05
 30
16.50
 42
-0.039882
  0
VERTEX
  8
BORDER_D0_T132_RK1_A0_W0_EM1_RI1_ID0018
 10
2666.40
 20
1982.46
 30
16.50
 42
-0.029934
  0
VERTEX
  8
BORDER_D0_T132_RK1_A0_W0_EM1_RI1_ID0018
 10
2678.44
 20
1952.15
 30
16.50
 42
-0.023970
  0
VERTEX
  8
BORDER_D0_T132_RK1_A0_W0_EM1_RI1_ID0018
 10
2688.21
 20
1917.03
 30
16.50
 42
-0.020392
  0
VERTEX
  8
BORDER_D0_T132_RK1_A0_W0_EM1_RI1_ID0018
 10
2695.42
 20
1878.18
 30
16.50
 42
-0.018360
  0
VERTEX
  8
BORDER_D0_T132_RK1_A0_W0_EM1_RI1_ID0018
 10
2699.82
 20
1836.77
 30
16.50
 42
-0.017437
  0
VERTEX
  8
BORDER_D0_T132_RK1_A0_W0_EM1_RI1_ID0018
 10
2701.31
 20
1794.06
 30
16.50
 42
-0.017437
  0
VERTEX
  8
BORDER_D0_T132_RK1_A0_W0_EM1_RI1_ID0018
 10
2699.82
 20
1751.35
 30
16.50
 42
-0.018360
  0
VERTEX
  8
BORDER_D0_T132_RK1_A0_W0_EM1_RI1_ID0018
 10
2695.42
 20
1709.94
 30
16.50
 42
-0.020392
  0
VERTEX
  8
BORDER_D0_T132_RK1_A0_W0_EM1_RI1_ID0018
 10
2688.21
 20
1671.09
 30
16.50
 42
-0.023970
  0
VERTEX
  8
BORDER_D0_T132_RK1_A0_W0_EM1_RI1_ID0018
 10
2678.44
 20
1635.97
 30
16.50
 42
-0.029934
  0
VERTEX
  8
BORDER_D0_T132_RK1_A0_W0_EM1_RI1_ID0018
 10
2666.40
 20
1605.66
 30
16.50
 42
-0.039882
  0
VERTEX
  8
BORDER_D0_T132_RK1_A0_W0_EM1_RI1_ID0018
 10
2652.44
 20
1581.07
 30
16.50
 42
-0.056349
  0
VERTEX
  8
BORDER_D0_T132_RK1_A0_W0_EM1_RI1_ID0018
 10
2637.00
 20
1562.95
 30
16.50
 42
-0.081329
  0
VERTEX
  8
BORDER_D0_T132_RK1_A0_W0_EM1_RI1_ID0018
 10
2620.54
 20
1551.86
 30
16.50
 42
-0.106572
  0
VERTEX
  8
BORDER_D0_T132_RK1_A0_W0_EM1_RI1_ID0018
 10
2603.57
 20
1548.12
 30
16.50
 42
-0.106572
  0
VERTEX
  8
BORDER_D0_T132_RK1_A0_W0_EM1_RI1_ID0018
 10
2586.60
 20
1551.86
 30
16.50
 42
-0.081329
  0
VERTEX
  8
BORDER_D0_T132_RK1_A0_W0_EM1_RI1_ID0018
 10
2570.14
 20
1562.95
 30
16.50
 42
-0.056348
  0
VERTEX
  8
BORDER_D0_T132_RK1_A0_W0_EM1_RI1_ID0018
 10
2554.70
 20
1581.07
 30
16.50
 42
-0.039883
  0
VERTEX
  8
BORDER_D0_T132_RK1_A0_W0_EM1_RI1_ID0018
 10
2540.74
 20
1605.66
 30
16.50
 42
-0.029934
  0
VERTEX
  8
BORDER_D0_T132_RK1_A0_W0_EM1_RI1_ID0018
 10
2528.70
 20
1635.97
 30
16.50
 42
-0.023970
  0
VERTEX
  8
BORDER_D0_T132_RK1_A0_W0_EM1_RI1_ID0018
 10
2518.93
 20
1671.09
 30
16.50
 42
-0.020392
  0
VERTEX
  8
BORDER_D0_T132_RK1_A0_W0_EM1_RI1_ID0018
 10
2511.72
 20
1709.94
 30
16.50
 42
-0.018360
  0
VERTEX
  8
BORDER_D0_T132_RK1_A0_W0_EM1_RI1_ID0018
 10
2507.32
 20
1751.35
 30
16.50
 42
-0.017437
  0
VERTEX
  8
BORDER_D0_T132_RK1_A0_W0_EM1_RI1_ID0018
 10
2505.83
 20
1794.06
 30
16.50
 42
-0.017436
  0
VERTEX
  8
BORDER_D0_T132_RK1_A0_W0_EM1_RI1_ID0018
 10
2507.32
 20
1836.77
 30
16.50
 42
-0.018360
  0
VERTEX
  8
BORDER_D0_T132_RK1_A0_W0_EM1_RI1_ID0018
 10
2511.72
 20
1878.18
 30
16.50
 42
-0.020392
  0
VERTEX
  8
BORDER_D0_T132_RK1_A0_W0_EM1_RI1_ID0018
 10
2518.93
 20
1917.03
 30
16.50
 42
-0.023970
  0
VERTEX
  8
BORDER_D0_T132_RK1_A0_W0_EM1_RI1_ID0018
 10
2528.70
 20
1952.15
 30
16.50
 42
-0.029934
  0
VERTEX
  8
BORDER_D0_T132_RK1_A0_W0_EM1_RI1_ID0018
 10
2540.74
 20
1982.46
 30
16.50
 42
-0.039883
  0
VERTEX
  8
BORDER_D0_T132_RK1_A0_W0_EM1_RI1_ID0018
 10
2554.70
 20
2007.05
 30
16.50
 42
-0.056348
  0
VERTEX
  8
BORDER_D0_T132_RK1_A0_W0_EM1_RI1_ID0018
 10
2570.14
 20
2025.17
 30
16.50
 42
-0.081329
  0
VERTEX
  8
BORDER_D0_T132_RK1_A0_W0_EM1_RI1_ID0018
 10
2586.60
 20
2036.26
 30
16.50
 42
-0.106572
  0
VERTEX
  8
BORDER_D0_T132_RK1_A0_W0_EM1_RI1_ID0018
 10
2603.57
 20
2040.00
 30
16.50
  0
SEQEND
  8
BORDER_D0_T132_RK1_A0_W0_EM1_RI1_ID0018
  0
POLYLINE
  8
BORDER_D0_T132_RK1_A0_W0_EM1_RI1_ID0018
 70
1
 66
1
  0
VERTEX
  8
BORDER_D0_T132_RK1_A0_W0_EM1_RI1_ID0018
 10
1174.62
 20
1920.78
 30
16.50
 42
-0.106573
  0
VERTEX
  8
BORDER_D0_T132_RK1_A0_W0_EM1_RI1_ID0018
 10
1170.88
 20
1903.81
 30
16.50
 42
-0.081329
  0
VERTEX
  8
BORDER_D0_T132_RK1_A0_W0_EM1_RI1_ID0018
 10
1159.79
 20
1887.35
 30
16.50
 42
-0.056349
  0
VERTEX
  8
BORDER_D0_T132_RK1_A0_W0_EM1_RI1_ID0018
 10
1141.67
 20
1871.91
 30
16.50
 42
-0.039882
  0
VERTEX
  8
BORDER_D0_T132_RK1_A0_W0_EM1_RI1_ID0018
 10
1117.08
 20
1857.95
 30
16.50
 42
-0.029934
  0
VERTEX
  8
BORDER_D0_T132_RK1_A0_W0_EM1_RI1_ID0018
 10
1086.77
 20
1845.91
 30
16.50
 42
-0.023970
  0
VERTEX
  8
BORDER_D0_T132_RK1_A0_W0_EM1_RI1_ID0018
 10
1051.65
 20
1836.14
 30
16.50
 42
-0.020392
  0
VERTEX
  8
BORDER_D0_T132_RK1_A0_W0_EM1_RI1_ID0018
 10
1012.80
 20
1828.93
 30
16.50
 42
-0.018360
  0
VERTEX
  8
BORDER_D0_T132_RK1_A0_W0_EM1_RI1_ID0018
 10
971.39
 20
1824.53
 30
16.50
 42
-0.017437
  0
VERTEX
  8
BORDER_D0_T132_RK1_A0_W0_EM1_RI1_ID0018
 10
928.68
 20
1823.04
 30
16.50
 42
-0.017437
  0
VERTEX
  8
BORDER_D0_T132_RK1_A0_W0_EM1_RI1_ID0018
 10
885.97
 20
1824.53
 30
16.50
 42
-0.018360
  0
VERTEX
  8
BORDER_D0_T132_RK1_A0_W0_EM1_RI1_ID0018
 10
844.56
 20
1828.93
 30
16.50
 42
-0.020392
  0
VERTEX
  8
BORDER_D0_T132_RK1_A0_W0_EM1_RI1_ID0018
 10
805.71
 20
1836.14
 30
16.50
 42
-0.023970
  0
VERTEX
  8
BORDER_D0_T132_RK1_A0_W0_EM1_RI1_ID0018
 10
770.59
 20
1845.91
 30
16.50
 42
-0.029934
  0
VERTEX
  8
BORDER_D0_T132_RK1_A0_W0_EM1_RI1_ID0018
 10
740.28
 20
1857.95
 30
16.50
 42
-0.039882
  0
VERTEX
  8
BORDER_D0_T132_RK1_A0_W0_EM1_RI1_ID0018
 10
715.69
 20
1871.91
 30
16.50
 42
-0.056349
  0
VERTEX
  8
BORDER_D0_T132_RK1_A0_W0_EM1_RI1_ID0018
 10
697.57
 20
1887.35
 30
16.50
 42
-0.081329
  0
VERTEX
  8
BORDER_D0_T132_RK1_A0_W0_EM1_RI1_ID0018
 10
686.48
 20
1903.81
 30
16.50
 42
-0.106573
  0
VERTEX
  8
BORDER_D0_T132_RK1_A0_W0_EM1_RI1_ID0018
 10
682.74
 20
1920.78
 30
16.50
 42
-0.106572
  0
VERTEX
  8
BORDER_D0_T132_RK1_A0_W0_EM1_RI1_ID0018
 10
686.48
 20
1937.75
 30
16.50
 42
-0.081329
  0
VERTEX
  8
BORDER_D0_T132_RK1_A0_W0_EM1_RI1_ID0018
 10
697.57
 20
1954.21
 30
16.50
 42
-0.056348
  0
VERTEX
  8
BORDER_D0_T132_RK1_A0_W0_EM1_RI1_ID0018
 10
715.69
 20
1969.65
 30
16.50
 42
-0.039882
  0
VERTEX
  8
BORDER_D0_T132_RK1_A0_W0_EM1_RI1_ID0018
 10
740.28
 20
1983.61
 30
16.50
 42
-0.029934
  0
VERTEX
  8
BORDER_D0_T132_RK1_A0_W0_EM1_RI1_ID0018
 10
770.59
 20
1995.65
 30
16.50
 42
-0.023970
  0
VERTEX
  8
BORDER_D0_T132_RK1_A0_W0_EM1_RI1_ID0018
 10
805.71
 20
2005.42
 30
16.50
 42
-0.020392
  0
VERTEX
  8
BORDER_D0_T132_RK1_A0_W0_EM1_RI1_ID0018
 10
844.56
 20
2012.63
 30
16.50
 42
-0.018360
  0
VERTEX
  8
BORDER_D0_T132_RK1_A0_W0_EM1_RI1_ID0018
 10
885.97
 20
2017.03
 30
16.50
 42
-0.017437
  0
VERTEX
  8
BORDER_D0_T132_RK1_A0_W0_EM1_RI1_ID0018
 10
928.68
 20
2018.52
 30
16.50
 42
-0.017437
  0
VERTEX
  8
BORDER_D0_T132_RK1_A0_W0_EM1_RI1_ID0018
 10
971.39
 20
2017.03
 30
16.50
 42
-0.018360
  0
VERTEX
  8
BORDER_D0_T132_RK1_A0_W0_EM1_RI1_ID0018
 10
1012.80
 20
2012.63
 30
16.50
 42
-0.020392
  0
VERTEX
  8
BORDER_D0_T132_RK1_A0_W0_EM1_RI1_ID0018
 10
1051.65
 20
2005.42
 30
16.50
 42
-0.023970
  0
VERTEX
  8
BORDER_D0_T132_RK1_A0_W0_EM1_RI1_ID0018
 10
1086.77
 20
1995.65
 30
16.50
 42
-0.029934
  0
VERTEX
  8
BORDER_D0_T132_RK1_A0_W0_EM1_RI1_ID0018
 10
1117.08
 20
1983.61
 30
16.50
 42
-0.039882
  0
VERTEX
  8
BORDER_D0_T132_RK1_A0_W0_EM1_RI1_ID0018
 10
1141.67
 20
1969.65
 30
16.50
 42
-0.056348
  0
VERTEX
  8
BORDER_D0_T132_RK1_A0_W0_EM1_RI1_ID0018
 10
1159.79
 20
1954.21
 30
16.50
 42
-0.081329
  0
VERTEX
  8
BORDER_D0_T132_RK1_A0_W0_EM1_RI1_ID0018
 10
1170.88
 20
1937.75
 30
16.50
 42
-0.106572
  0
VERTEX
  8
BORDER_D0_T132_RK1_A0_W0_EM1_RI1_ID0018
 10
1174.62
 20
1920.78
 30
16.50
  0
SEQEND
  8
BORDER_D0_T132_RK1_A0_W0_EM1_RI1_ID0018
  0
POLYLINE
  8
BORDER_D0_T132_RK1_A0_W0_EM1_RI1_ID0020
 70
1
 66
1
  0
VERTEX
  8
BORDER_D0_T132_RK1_A0_W0_EM1_RI1_ID0020
 10
733.78
 20
51.13
 30
16.50
  0
VERTEX
  8
BORDER_D0_T132_RK1_A0_W0_EM1_RI1_ID0020
 10
487.84
 20
51.13
 30
16.50
 42
-0.106572
  0
VERTEX
  8
BORDER_D0_T132_RK1_A0_W0_EM1_RI1_ID0020
 10
491.58
 20
68.10
 30
16.50
 42
-0.081329
  0
VERTEX
  8
BORDER_D0_T132_RK1_A0_W0_EM1_RI1_ID0020
 10
502.67
 20
84.56
 30
16.50
 42
-0.056348
  0
VERTEX
  8
BORDER_D0_T132_RK1_A0_W0_EM1_RI1_ID0020
 10
520.79
 20
100.00
 30
16.50
 42
-0.039882
  0
VERTEX
  8
BORDER_D0_T132_RK1_A0_W0_EM1_RI1_ID0020
 10
545.38
 20
113.96
 30
16.50
 42
-0.029934
  0
VERTEX
  8
BORDER_D0_T132_RK1_A0_W0_EM1_RI1_ID0020
 10
575.69
 20
126.00
 30
16.50
 42
-0.023970
  0
VERTEX
  8
BORDER_D0_T132_RK1_A0_W0_EM1_RI1_ID0020
 10
610.81
 20
135.77
 30
16.50
 42
-0.020392
  0
VERTEX
  8
BORDER_D0_T132_RK1_A0_W0_EM1_RI1_ID0020
 10
649.66
 20
142.98
 30
16.50
 42
-0.018360
  0
VERTEX
  8
BORDER_D0_T132_RK1_A0_W0_EM1_RI1_ID0020
 10
691.07
 20
147.38
 30
16.50
 42
-0.017437
  0
VERTEX
  8
BORDER_D0_T132_RK1_A0_W0_EM1_RI1_ID0020
 10
733.78
 20
148.87
 30
16.50
 42
-0.017437
  0
VERTEX
  8
BORDER_D0_T132_RK1_A0_W0_EM1_RI1_ID0020
 10
776.49
 20
147.38
 30
16.50
 42
-0.018360
  0
VERTEX
  8
BORDER_D0_T132_RK1_A0_W0_EM1_RI1_ID0020
 10
817.90
 20
142.98
 30
16.50
 42
-0.020392
  0
VERTEX
  8
BORDER_D0_T132_RK1_A0_W0_EM1_RI1_ID0020
 10
856.75
 20
135.77
 30
16.50
 42
-0.023970
  0
VERTEX
  8
BORDER_D0_T132_RK1_A0_W0_EM1_RI1_ID0020
 10
891.87
 20
126.00
 30
16.50
 42
-0.029934
  0
VERTEX
  8
BORDER_D0_T132_RK1_A0_W0_EM1_RI1_ID0020
 10
922.18
 20
113.96
 30
16.50
 42
-0.039882
  0
VERTEX
  8
BORDER_D0_T132_RK1_A0_W0_EM1_RI1_ID0020
 10
946.77
 20
100.00
 30
16.50
 42
-0.056349
  0
VERTEX
  8
BORDER_D0_T132_RK1_A0_W0_EM1_RI1_ID0020
 10
964.89
 20
84.56
 30
16.50
 42
-0.081329
  0
VERTEX
  8
BORDER_D0_T132_RK1_A0_W0_EM1_RI1_ID0020
 10
975.98
 20
68.10
 30
16.50
 42
-0.106572
  0
VERTEX
  8
BORDER_D0_T132_RK1_A0_W0_EM1_RI1_ID0020
 10
979.72
 20
51.13
 30
16.50
  0
VERTEX
  8
BORDER_D0_T132_RK1_A0_W0_EM1_RI1_ID0020
 10
733.78
 20
51.13
 30
16.50
  0
SEQEND
  8
BORDER_D0_T132_RK1_A0_W0_EM1_RI1_ID0020
  0
POLYLINE
  8
BORDER_D0_T132_RK1_A0_W0_EM1_RI1_ID0020
 70
1
 66
1
  0
VERTEX
  8
BORDER_D0_T132_RK1_A0_W0_EM1_RI1_ID0020
 10
1157.95
 20
168.87
 30
16.50
  0
VERTEX
  8
BORDER_D0_T132_RK1_A0_W0_EM1_RI1_ID0020
 10
1403.89
 20
168.87
 30
16.50
 42
-0.106572
  0
VERTEX
  8
BORDER_D0_T132_RK1_A0_W0_EM1_RI1_ID0020
 10
1400.15
 20
151.90
 30
16.50
 42
-0.081329
  0
VERTEX
  8
BORDER_D0_T132_RK1_A0_W0_EM1_RI1_ID0020
 10
1389.06
 20
135.44
 30
16.50
 42
-0.056349
  0
VERTEX
  8
BORDER_D0_T132_RK1_A0_W0_EM1_RI1_ID0020
 10
1370.94
 20
120.00
 30
16.50
 42
-0.039882
  0
VERTEX
  8
BORDER_D0_T132_RK1_A0_W0_EM1_RI1_ID0020
 10
1346.35
 20
106.04
 30
16.50
 42
-0.029934
  0
VERTEX
  8
BORDER_D0_T132_RK1_A0_W0_EM1_RI1_ID0020
 10
1316.04
 20
94.00
 30
16.50
 42
-0.023970
  0
VERTEX
  8
BORDER_D0_T132_RK1_A0_W0_EM1_RI1_ID0020
 10
1280.92
 20
84.23
 30
16.50
 42
-0.020392
  0
VERTEX
  8
BORDER_D0_T132_RK1_A0_W0_EM1_RI1_ID0020
 10
1242.07
 20
77.02
 30
16.50
 42
-0.018360
  0
VERTEX
  8
BORDER_D0_T132_RK1_A0_W0_EM1_RI1_ID0020
 10
1200.66
 20
72.62
 30
16.50
 42
-0.017437
  0
VERTEX
  8
BORDER_D0_T132_RK1_A0_W0_EM1_RI1_ID0020
 10
1157.95
 20
71.13
 30
16.50
 42
-0.017437
  0
VERTEX
  8
BORDER_D0_T132_RK1_A0_W0_EM1_RI1_ID0020
 10
1115.24
 20
72.62
 30
16.50
 42
-0.018360
  0
VERTEX
  8
BORDER_D0_T132_RK1_A0_W0_EM1_RI1_ID0020
 10
1073.83
 20
77.02
 30
16.50
 42
-0.020392
  0
VERTEX
  8
BORDER_D0_T132_RK1_A0_W0_EM1_RI1_ID0020
 10
1034.98
 20
84.23
 30
16.50
 42
-0.023970
  0
VERTEX
  8
BORDER_D0_T132_RK1_A0_W0_EM1_RI1_ID0020
 10
999.86
 20
94.00
 30
16.50
 42
-0.029934
  0
VERTEX
  8
BORDER_D0_T132_RK1_A0_W0_EM1_RI1_ID0020
 10
969.55
 20
106.04
 30
16.50
 42
-0.039882
  0
VERTEX
  8
BORDER_D0_T132_RK1_A0_W0_EM1_RI1_ID0020
 10
944.96
 20
120.00
 30
16.50
 42
-0.056349
  0
VERTEX
  8
BORDER_D0_T132_RK1_A0_W0_EM1_RI1_ID0020
 10
926.84
 20
135.44
 30
16.50
 42
-0.081329
  0
VERTEX
  8
BORDER_D0_T132_RK1_A0_W0_EM1_RI1_ID0020
 10
915.75
 20
151.90
 30
16.50
 42
-0.106572
  0
VERTEX
  8
BORDER_D0_T132_RK1_A0_W0_EM1_RI1_ID0020
 10
912.01
 20
168.87
 30
16.50
  0
VERTEX
  8
BORDER_D0_T132_RK1_A0_W0_EM1_RI1_ID0020
 10
1157.95
 20
168.87
 30
16.50
  0
SEQEND
  8
BORDER_D0_T132_RK1_A0_W0_EM1_RI1_ID0020
  0
POLYLINE
  8
BORDER_D0_T132_RK1_A0_W0_EM1_RI1_ID0018
 70
1
 66
1
  0
VERTEX
  8
BORDER_D0_T132_RK1_A0_W0_EM1_RI1_ID0018
 10
2643.04
 20
930.00
 30
16.50
 42
-0.106571
  0
VERTEX
  8
BORDER_D0_T132_RK1_A0_W0_EM1_RI1_ID0018
 10
2639.30
 20
913.03
 30
16.50
 42
-0.081329
  0
VERTEX
  8
BORDER_D0_T132_RK1_A0_W0_EM1_RI1_ID0018
 10
2628.21
 20
896.57
 30
16.50
 42
-0.056349
  0
VERTEX
  8
BORDER_D0_T132_RK1_A0_W0_EM1_RI1_ID0018
 10
2610.09
 20
881.13
 30
16.50
 42
-0.039882
  0
VERTEX
  8
BORDER_D0_T132_RK1_A0_W0_EM1_RI1_ID0018
 10
2585.50
 20
867.17
 30
16.50
 42
-0.029934
  0
VERTEX
  8
BORDER_D0_T132_RK1_A0_W0_EM1_RI1_ID0018
 10
2555.19
 20
855.13
 30
16.50
 42
-0.023970
  0
VERTEX
  8
BORDER_D0_T132_RK1_A0_W0_EM1_RI1_ID0018
 10
2520.07
 20
845.36
 30
16.50
 42
-0.020392
  0
VERTEX
  8
BORDER_D0_T132_RK1_A0_W0_EM1_RI1_ID0018
 10
2481.22
 20
838.15
 30
16.50
 42
-0.018360
  0
VERTEX
  8
BORDER_D0_T132_RK1_A0_W0_EM1_RI1_ID0018
 10
2439.81
 20
833.75
 30
16.50
 42
-0.017437
  0
VERTEX
  8
BORDER_D0_T132_RK1_A0_W0_EM1_RI1_ID0018
 10
2397.10
 20
832.26
 30
16.50
 42
-0.017437
  0
VERTEX
  8
BORDER_D0_T132_RK1_A0_W0_EM1_RI1_ID0018
 10
2354.39
 20
833.75
 30
16.50
 42
-0.018360
  0
VERTEX
  8
BORDER_D0_T132_RK1_A0_W0_EM1_RI1_ID0018
 10
2312.98
 20
838.15
 30
16.50
 42
-0.020392
  0
VERTEX
  8
BORDER_D0_T132_RK1_A0_W0_EM1_RI1_ID0018
 10
2274.13
 20
845.36
 30
16.50
 42
-0.023970
  0
VERTEX
  8
BORDER_D0_T132_RK1_A0_W0_EM1_RI1_ID0018
 10
2239.01
 20
855.13
 30
16.50
 42
-0.029934
  0
VERTEX
  8
BORDER_D0_T132_RK1_A0_W0_EM1_RI1_ID0018
 10
2208.70
 20
867.17
 30
16.50
 42
-0.039882
  0
VERTEX
  8
BORDER_D0_T132_RK1_A0_W0_EM1_RI1_ID0018
 10
2184.11
 20
881.13
 30
16.50
 42
-0.056348
  0
VERTEX
  8
BORDER_D0_T132_RK1_A0_W0_EM1_RI1_ID0018
 10
2165.99
 20
896.57
 30
16.50
 42
-0.081329
  0
VERTEX
  8
BORDER_D0_T132_RK1_A0_W0_EM1_RI1_ID0018
 10
2154.90
 20
913.03
 30
16.50
 42
-0.106571
  0
VERTEX
  8
BORDER_D0_T132_RK1_A0_W0_EM1_RI1_ID0018
 10
2151.16
 20
930.00
 30
16.50
 42
-0.106571
  0
VERTEX
  8
BORDER_D0_T132_RK1_A0_W0_EM1_RI1_ID0018
 10
2154.90
 20
946.97
 30
16.50
 42
-0.081329
  0
VERTEX
  8
BORDER_D0_T132_RK1_A0_W0_EM1_RI1_ID0018
 10
2165.99
 20
963.43
 30
16.50
 42
-0.056348
  0
VERTEX
  8
BORDER_D0_T132_RK1_A0_W0_EM1_RI1_ID0018
 10
2184.11
 20
978.87
 30
16.50
 42
-0.039882
  0
VERTEX
  8
BORDER_D0_T132_RK1_A0_W0_EM1_RI1_ID0018
 10
2208.70
 20
992.83
 30
16.50
 42
-0.029934
  0
VERTEX
  8
BORDER_D0_T132_RK1_A0_W0_EM1_RI1_ID0018
 10
2239.01
 20
1004.87
 30
16.50
 42
-0.023970
  0
VERTEX
  8
BORDER_D0_T132_RK1_A0_W0_EM1_RI1_ID0018
 10
2274.13
 20
1014.64
 30
16.50
 42
-0.020392
  0
VERTEX
  8
BORDER_D0_T132_RK1_A0_W0_EM1_RI1_ID0018
 10
2312.98
 20
1021.85
 30
16.50
 42
-0.018360
  0
VERTEX
  8
BORDER_D0_T132_RK1_A0_W0_EM1_RI1_ID0018
 10
2354.39
 20
1026.25
 30
16.50
 42
-0.017437
  0
VERTEX
  8
BORDER_D0_T132_RK1_A0_W0_EM1_RI1_ID0018
 10
2397.10
 20
1027.74
 30
16.50
 42
-0.017437
  0
VERTEX
  8
BORDER_D0_T132_RK1_A0_W0_EM1_RI1_ID0018
 10
2439.81
 20
1026.25
 30
16.50
 42
-0.018360
  0
VERTEX
  8
BORDER_D0_T132_RK1_A0_W0_EM1_RI1_ID0018
 10
2481.22
 20
1021.85
 30
16.50
 42
-0.020392
  0
VERTEX
  8
BORDER_D0_T132_RK1_A0_W0_EM1_RI1_ID0018
 10
2520.07
 20
1014.64
 30
16.50
 42
-0.023970
  0
VERTEX
  8
BORDER_D0_T132_RK1_A0_W0_EM1_RI1_ID0018
 10
2555.19
 20
1004.87
 30
16.50
 42
-0.029934
  0
VERTEX
  8
BORDER_D0_T132_RK1_A0_W0_EM1_RI1_ID0018
 10
2585.50
 20
992.83
 30
16.50
 42
-0.039882
  0
VERTEX
  8
BORDER_D0_T132_RK1_A0_W0_EM1_RI1_ID0018
 10
2610.09
 20
978.87
 30
16.50
 42
-0.056349
  0
VERTEX
  8
BORDER_D0_T132_RK1_A0_W0_EM1_RI1_ID0018
 10
2628.21
 20
963.43
 30
16.50
 42
-0.081329
  0
VERTEX
  8
BORDER_D0_T132_RK1_A0_W0_EM1_RI1_ID0018
 10
2639.30
 20
946.97
 30
16.50
 42
-0.106571
  0
VERTEX
  8
BORDER_D0_T132_RK1_A0_W0_EM1_RI1_ID0018
 10
2643.04
 20
930.00
 30
16.50
  0
SEQEND
  8
BORDER_D0_T132_RK1_A0_W0_EM1_RI1_ID0018
  0
POLYLINE
  8
BORDER_D0_T132_RK1_A0_W0_EM1_RI1_ID0020
 70
1
 66
1
  0
VERTEX
  8
BORDER_D0_T132_RK1_A0_W0_EM1_RI1_ID0020
 10
2508.81
 20
1400.68
 30
16.50
  0
VERTEX
  8
BORDER_D0_T132_RK1_A0_W0_EM1_RI1_ID0020
 10
2508.81
 20
1154.74
 30
16.50
 42
-0.106572
  0
VERTEX
  8
BORDER_D0_T132_RK1_A0_W0_EM1_RI1_ID0020
 10
2491.84
 20
1158.48
 30
16.50
 42
-0.081329
  0
VERTEX
  8
BORDER_D0_T132_RK1_A0_W0_EM1_RI1_ID0020
 10
2475.38
 20
1169.57
 30
16.50
 42
-0.056348
  0
VERTEX
  8
BORDER_D0_T132_RK1_A0_W0_EM1_RI1_ID0020
 10
2459.94
 20
1187.69
 30
16.50
 42
-0.039883
  0
VERTEX
  8
BORDER_D0_T132_RK1_A0_W0_EM1_RI1_ID0020
 10
2445.98
 20
1212.28
 30
16.50
 42
-0.029934
  0
VERTEX
  8
BORDER_D0_T132_RK1_A0_W0_EM1_RI1_ID0020
 10
2433.94
 20
1242.59
 30
16.50
 42
-0.023970
  0
VERTEX
  8
BORDER_D0_T132_RK1_A0_W0_EM1_RI1_ID0020
 10
2424.17
 20
1277.71
 30
16.50
 42
-0.020392
  0
VERTEX
  8
BORDER_D0_T132_RK1_A0_W0_EM1_RI1_ID0020
 10
2416.96
 20
1316.56
 30
16.50
 42
-0.018360
  0
VERTEX
  8
BORDER_D0_T132_RK1_A0_W0_EM1_RI1_ID0020
 10
2412.56
 20
1357.97
 30
16.50
 42
-0.017436
  0
VERTEX
  8
BORDER_D0_T132_RK1_A0_W0_EM1_RI1_ID0020
 10
2411.07
 20
1400.68
 30
16.50
 42
-0.017437
  0
VERTEX
  8
BORDER_D0_T132_RK1_A0_W0_EM1_RI1_ID0020
 10
2412.56
 20
1443.39
 30
16.50
 42
-0.018360
  0
VERTEX
  8
BORDER_D0_T132_RK1_A0_W0_EM1_RI1_ID0020
 10
2416.96
 20
1484.80
 30
16.50
 42
-0.020392
  0
VERTEX
  8
BORDER_D0_T132_RK1_A0_W0_EM1_RI1_ID0020
 10
2424.17
 20
1523.65
 30
16.50
 42
-0.023970
  0
VERTEX
  8
BORDER_D0_T132_RK1_A0_W0_EM1_RI1_ID0020
 10
2433.94
 20
1558.77
 30
16.50
 42
-0.029934
  0
VERTEX
  8
BORDER_D0_T132_RK1_A0_W0_EM1_RI1_ID0020
 10
2445.98
 20
1589.08
 30
16.50
 42
-0.039883
  0
VERTEX
  8
BORDER_D0_T132_RK1_A0_W0_EM1_RI1_ID0020
 10
2459.94
 20
1613.67
 30
16.50
 42
-0.056349
  0
VERTEX
  8
BORDER_D0_T132_RK1_A0_W0_EM1_RI1_ID0020
 10
2475.38
 20
1631.79
 30
16.50
 42
-0.081329
  0
VERTEX
  8
BORDER_D0_T132_RK1_A0_W0_EM1_RI1_ID0020
 10
2491.84
 20
1642.88
 30
16.50
 42
-0.106572
  0
VERTEX
  8
BORDER_D0_T132_RK1_A0_W0_EM1_RI1_ID0020
 10
2508.81
 20
1646.62
 30
16.50
  0
VERTEX
  8
BORDER_D0_T132_RK1_A0_W0_EM1_RI1_ID0020
 10
2508.81
 20
1400.68
 30
16.50
  0
SEQEND
  8
BORDER_D0_T132_RK1_A0_W0_EM1_RI1_ID0020
  0
POLYLINE
  8
BORDER_D0_T132_RK1_A0_W0_EM1_RI1_ID0020
 70
1
 66
1
  0
VERTEX
  8
BORDER_D0_T132_RK1_A0_W0_EM1_RI1_ID0020
 10
2751.40
 20
1430.93
 30
16.50
  0
VERTEX
  8
BORDER_D0_T132_RK1_A0_W0_EM1_RI1_ID0020
 10
2751.40
 20
1184.99
 30
16.50
 42
-0.106572
  0
VERTEX
  8
BORDER_D0_T132_RK1_A0_W0_EM1_RI1_ID0020
 10
2734.43
 20
1188.73
 30
16.50
 42
-0.081329
  0
VERTEX
  8
BORDER_D0_T132_RK1_A0_W0_EM1_RI1_ID0020
 10
2717.97
 20
1199.82
 30
16.50
 42
-0.056348
  0
VERTEX
  8
BORDER_D0_T132_RK1_A0_W0_EM1_RI1_ID0020
 10
2702.53
 20
1217.94
 30
16.50
 42
-0.039883
  0
VERTEX
  8
BORDER_D0_T132_RK1_A0_W0_EM1_RI1_ID0020
 10
2688.57
 20
1242.53
 30
16.50
 42
-0.029934
  0
VERTEX
  8
BORDER_D0_T132_RK1_A0_W0_EM1_RI1_ID0020
 10
2676.53
 20
1272.84
 30
16.50
 42
-0.023970
  0
VERTEX
  8
BORDER_D0_T132_RK1_A0_W0_EM1_RI1_ID0020
 10
2666.76
 20
1307.96
 30
16.50
 42
-0.020392
  0
VERTEX
  8
BORDER_D0_T132_RK1_A0_W0_EM1_RI1_ID0020
 10
2659.55
 20
1346.81
 30
16.50
 42
-0.018360
  0
VERTEX
  8
BORDER_D0_T132_RK1_A0_W0_EM1_RI1_ID0020
 10
2655.15
 20
1388.22
 30
16.50
 42
-0.017436
  0
VERTEX
  8
BORDER_D0_T132_RK1_A0_W0_EM1_RI1_ID0020
 10
2653.66
 20
1430.93
 30
16.50
 42
-0.017437
  0
VERTEX
  8
BORDER_D0_T132_RK1_A0_W0_EM1_RI1_ID0020
 10
2655.15
 20
1473.64
 30
16.50
 42
-0.018360
  0
VERTEX
  8
BORDER_D0_T132_RK1_A0_W0_EM1_RI1_ID0020
 10
2659.55
 20
1515.05
 30
16.50
 42
-0.020392
  0
VERTEX
  8
BORDER_D0_T132_RK1_A0_W0_EM1_RI1_ID0020
 10
2666.76
 20
1553.90
 30
16.50
 42
-0.023970
  0
VERTEX
  8
BORDER_D0_T132_RK1_A0_W0_EM1_RI1_ID0020
 10
2676.53
 20
1589.02
 30
16.50
 42
-0.029934
  0
VERTEX
  8
BORDER_D0_T132_RK1_A0_W0_EM1_RI1_ID0020
 10
2688.57
 20
1619.33
 30
16.50
 42
-0.039883
  0
VERTEX
  8
BORDER_D0_T132_RK1_A0_W0_EM1_RI1_ID0020
 10
2702.53
 20
1643.92
 30
16.50
 42
-0.056349
  0
VERTEX
  8
BORDER_D0_T132_RK1_A0_W0_EM1_RI1_ID0020
 10
2717.97
 20
1662.04
 30
16.50
 42
-0.081329
  0
VERTEX
  8
BORDER_D0_T132_RK1_A0_W0_EM1_RI1_ID0020
 10
2734.43
 20
1673.13
 30
16.50
 42
-0.106572
  0
VERTEX
  8
BORDER_D0_T132_RK1_A0_W0_EM1_RI1_ID0020
 10
2751.40
 20
1676.87
 30
16.50
  0
VERTEX
  8
BORDER_D0_T132_RK1_A0_W0_EM1_RI1_ID0020
 10
2751.40
 20
1430.93
 30
16.50
  0
SEQEND
  8
BORDER_D0_T132_RK1_A0_W0_EM1_RI1_ID0020
  0
POLYLINE
  8
BORDER_D0_T132_RK1_A0_W0_EM1_RI1_ID0020
 70
1
 66
1
  0
VERTEX
  8
BORDER_D0_T132_RK1_A0_W0_EM1_RI1_ID0020
 10
1580.22
 20
51.13
 30
16.50
  0
VERTEX
  8
BORDER_D0_T132_RK1_A0_W0_EM1_RI1_ID0020
 10
1334.28
 20
51.13
 30
16.50
 42
-0.106572
  0
VERTEX
  8
BORDER_D0_T132_RK1_A0_W0_EM1_RI1_ID0020
 10
1338.02
 20
68.10
 30
16.50
 42
-0.081329
  0
VERTEX
  8
BORDER_D0_T132_RK1_A0_W0_EM1_RI1_ID0020
 10
1349.11
 20
84.56
 30
16.50
 42
-0.056348
  0
VERTEX
  8
BORDER_D0_T132_RK1_A0_W0_EM1_RI1_ID0020
 10
1367.23
 20
100.00
 30
16.50
 42
-0.039882
  0
VERTEX
  8
BORDER_D0_T132_RK1_A0_W0_EM1_RI1_ID0020
 10
1391.82
 20
113.96
 30
16.50
 42
-0.029934
  0
VERTEX
  8
BORDER_D0_T132_RK1_A0_W0_EM1_RI1_ID0020
 10
1422.13
 20
126.00
 30
16.50
 42
-0.023970
  0
VERTEX
  8
BORDER_D0_T132_RK1_A0_W0_EM1_RI1_ID0020
 10
1457.25
 20
135.77
 30
16.50
 42
-0.020392
  0
VERTEX
  8
BORDER_D0_T132_RK1_A0_W0_EM1_RI1_ID0020
 10
1496.10
 20
142.98
 30
16.50
 42
-0.018360
  0
VERTEX
  8
BORDER_D0_T132_RK1_A0_W0_EM1_RI1_ID0020
 10
1537.51
 20
147.38
 30
16.50
 42
-0.017437
  0
VERTEX
  8
BORDER_D0_T132_RK1_A0_W0_EM1_RI1_ID0020
 10
1580.22
 20
148.87
 30
16.50
 42
-0.017437
  0
VERTEX
  8
BORDER_D0_T132_RK1_A0_W0_EM1_RI1_ID0020
 10
1622.93
 20
147.38
 30
16.50
 42
-0.018360
  0
VERTEX
  8
BORDER_D0_T132_RK1_A0_W0_EM1_RI1_ID0020
 10
1664.34
 20
142.98
 30
16.50
 42
-0.020392
  0
VERTEX
  8
BORDER_D0_T132_RK1_A0_W0_EM1_RI1_ID0020
 10
1703.19
 20
135.77
 30
16.50
 42
-0.023970
  0
VERTEX
  8
BORDER_D0_T132_RK1_A0_W0_EM1_RI1_ID0020
 10
1738.31
 20
126.00
 30
16.50
 42
-0.029934
  0
VERTEX
  8
BORDER_D0_T132_RK1_A0_W0_EM1_RI1_ID0020
 10
1768.62
 20
113.96
 30
16.50
 42
-0.039882
  0
VERTEX
  8
BORDER_D0_T132_RK1_A0_W0_EM1_RI1_ID0020
 10
1793.21
 20
100.00
 30
16.50
 42
-0.056349
  0
VERTEX
  8
BORDER_D0_T132_RK1_A0_W0_EM1_RI1_ID0020
 10
1811.33
 20
84.56
 30
16.50
 42
-0.081329
  0
VERTEX
  8
BORDER_D0_T132_RK1_A0_W0_EM1_RI1_ID0020
 10
1822.42
 20
68.10
 30
16.50
 42
-0.106572
  0
VERTEX
  8
BORDER_D0_T132_RK1_A0_W0_EM1_RI1_ID0020
 10
1826.16
 20
51.13
 30
16.50
  0
VERTEX
  8
BORDER_D0_T132_RK1_A0_W0_EM1_RI1_ID0020
 10
1580.22
 20
51.13
 30
16.50
  0
SEQEND
  8
BORDER_D0_T132_RK1_A0_W0_EM1_RI1_ID0020
  0
POLYLINE
  8
BORDER_D0_T132.1_RK1_A0_W0_EM1
 70
0
 66
1
  0
VERTEX
  8
BORDER_D0_T132.1_RK1_A0_W0_EM1
 10
-14.70
 20
386.42
 30
18.20
  0
VERTEX
  8
BORDER_D0_T132.1_RK1_A0_W0_EM1
 10
10.00
 20
386.42
 30
18.20
 42
-0.017435
  0
VERTEX
  8
BORDER_D0_T132.1_RK1_A0_W0_EM1
 10
11.48
 20
429.12
 30
18.20
 42
-0.018360
  0
VERTEX
  8
BORDER_D0_T132.1_RK1_A0_W0_EM1
 10
15.89
 20
470.53
 30
18.20
 42
-0.020393
  0
VERTEX
  8
BORDER_D0_T132.1_RK1_A0_W0_EM1
 10
23.09
 20
509.39
 30
18.20
 42
-0.023968
  0
VERTEX
  8
BORDER_D0_T132.1_RK1_A0_W0_EM1
 10
32.87
 20
544.50
 30
18.20
 42
-0.029940
  0
VERTEX
  8
BORDER_D0_T132.1_RK1_A0_W0_EM1
 10
44.91
 20
574.82
 30
18.20
 42
-0.039878
  0
VERTEX
  8
BORDER_D0_T132.1_RK1_A0_W0_EM1
 10
58.87
 20
599.41
 30
18.20
 42
-0.056347
  0
VERTEX
  8
BORDER_D0_T132.1_RK1_A0_W0_EM1
 10
74.31
 20
617.53
 30
18.20
 42
-0.081333
  0
VERTEX
  8
BORDER_D0_T132.1_RK1_A0_W0_EM1
 10
90.77
 20
628.62
 30
18.20
 42
-0.106579
  0
VERTEX
  8
BORDER_D0_T132.1_RK1_A0_W0_EM1
 10
107.74
 20
632.36
 30
18.20
 42
-0.106579
  0
VERTEX
  8
BORDER_D0_T132.1_RK1_A0_W0_EM1
 10
124.71
 20
628.62
 30
18.20
 42
-0.081333
  0
VERTEX
  8
BORDER_D0_T132.1_RK1_A0_W0_EM1
 10
141.17
 20
617.53
 30
18.20
 42
-0.056347
  0
VERTEX
  8
BORDER_D0_T132.1_RK1_A0_W0_EM1
 10
156.61
 20
599.41
 30
18.20
 42
-0.039878
  0
VERTEX
  8
BORDER_D0_T132.1_RK1_A0_W0_EM1
 10
170.57
 20
574.82
 30
18.20
 42
-0.029940
  0
VERTEX
  8
BORDER_D0_T132.1_RK1_A0_W0_EM1
 10
182.61
 20
544.50
 30
18.20
 42
-0.023968
  0
VERTEX
  8
BORDER_D0_T132.1_RK1_A0_W0_EM1
 10
192.38
 20
509.39
 30
18.20
 42
-0.020393
  0
VERTEX
  8
BORDER_D0_T132.1_RK1_A0_W0_EM1
 10
199.59
 20
470.53
 30
18.20
 42
-0.018360
  0
VERTEX
  8
BORDER_D0_T132.1_RK1_A0_W0_EM1
 10
203.99
 20
429.12
 30
18.20
 42
-0.017435
  0
VERTEX
  8
BORDER_D0_T132.1_RK1_A0_W0_EM1
 10
205.48
 20
386.42
 30
18.20
 42
-0.017435
  0
VERTEX
  8
BORDER_D0_T132.1_RK1_A0_W0_EM1
 10
203.99
 20
343.71
 30
18.20
 42
-0.018360
  0
VERTEX
  8
BORDER_D0_T132.1_RK1_A0_W0_EM1
 10
199.59
 20
302.30
 30
18.20
 42
-0.020393
  0
VERTEX
  8
BORDER_D0_T132.1_RK1_A0_W0_EM1
 10
192.38
 20
263.45
 30
18.20
 42
-0.023968
  0
VERTEX
  8
BORDER_D0_T132.1_RK1_A0_W0_EM1
 10
182.61
 20
228.33
 30
18.20
 42
-0.029940
  0
VERTEX
  8
BORDER_D0_T132.1_RK1_A0_W0_EM1
 10
170.57
 20
198.02
 30
18.20
 42
-0.039878
  0
VERTEX
  8
BORDER_D0_T132.1_RK1_A0_W0_EM1
 10
156.61
 20
173.43
 30
18.20
 42
-0.056346
  0
VERTEX
  8
BORDER_D0_T132.1_RK1_A0_W0_EM1
 10
141.17
 20
155.31
 30
18.20
 42
-0.081333
  0
VERTEX
  8
BORDER_D0_T132.1_RK1_A0_W0_EM1
 10
124.71
 20
144.21
 30
18.20
 42
-0.106579
  0
VERTEX
  8
BORDER_D0_T132.1_RK1_A0_W0_EM1
 10
107.74
 20
140.48
 30
18.20
 42
-0.106579
  0
VERTEX
  8
BORDER_D0_T132.1_RK1_A0_W0_EM1
 10
90.77
 20
144.21
 30
18.20
 42
-0.081333
  0
VERTEX
  8
BORDER_D0_T132.1_RK1_A0_W0_EM1
 10
74.31
 20
155.31
 30
18.20
 42
-0.056346
  0
VERTEX
  8
BORDER_D0_T132.1_RK1_A0_W0_EM1
 10
58.87
 20
173.43
 30
18.20
 42
-0.039878
  0
VERTEX
  8
BORDER_D0_T132.1_RK1_A0_W0_EM1
 10
44.91
 20
198.02
 30
18.20
 42
-0.029940
  0
VERTEX
  8
BORDER_D0_T132.1_RK1_A0_W0_EM1
 10
32.87
 20
228.33
 30
18.20
 42
-0.023968
  0
VERTEX
  8
BORDER_D0_T132.1_RK1_A0_W0_EM1
 10
23.09
 20
263.45
 30
18.20
 42
-0.020393
  0
VERTEX
  8
BORDER_D0_T132.1_RK1_A0_W0_EM1
 10
15.89
 20
302.30
 30
18.20
 42
-0.018360
  0
VERTEX
  8
BORDER_D0_T132.1_RK1_A0_W0_EM1
 10
11.48
 20
343.71
 30
18.20
 42
-0.017435
  0
VERTEX
  8
BORDER_D0_T132.1_RK1_A0_W0_EM1
 10
10.00
 20
386.42
 30
18.20
  0
SEQEND
  8
BORDER_D0_T132.1_RK1_A0_W0_EM1
  0
POLYLINE
  8
BORDER_D0_T132.1_RK1_A0_W0_EM1
 70
0
 66
1
  0
VERTEX
  8
BORDER_D0_T132.1_RK1_A0_W0_EM1
 10
1510.80
 20
1197.55
 30
18.20
  0
VERTEX
  8
BORDER_D0_T132.1_RK1_A0_W0_EM1
 10
1262.51
 20
1212.13
 30
18.20
  0
VERTEX
  8
BORDER_D0_T132.1_RK1_A0_W0_EM1
 10
1353.11
 20
980.50
 30
18.20
  0
VERTEX
  8
BORDER_D0_T132.1_RK1_A0_W0_EM1
 10
1160.81
 20
1138.23
 30
18.20
  0
VERTEX
  8
BORDER_D0_T132.1_RK1_A0_W0_EM1
 10
1097.95
 20
897.59
 30
18.20
  0
VERTEX
  8
BORDER_D0_T132.1_RK1_A0_W0_EM1
 10
1035.09
 20
1138.23
 30
18.20
  0
VERTEX
  8
BORDER_D0_T132.1_RK1_A0_W0_EM1
 10
842.79
 20
980.50
 30
18.20
  0
VERTEX
  8
BORDER_D0_T132.1_RK1_A0_W0_EM1
 10
933.39
 20
1212.13
 30
18.20
  0
VERTEX
  8
BORDER_D0_T132.1_RK1_A0_W0_EM1
 10
685.09
 20
1197.55
 30
18.20
  0
VERTEX
  8
BORDER_D0_T132.1_RK1_A0_W0_EM1
 10
894.54
 20
1331.69
 30
18.20
  0
VERTEX
  8
BORDER_D0_T132.1_RK1_A0_W0_EM1
 10
685.09
 20
1465.83
 30
18.20
  0
VERTEX
  8
BORDER_D0_T132.1_RK1_A0_W0_EM1
 10
933.39
 20
1451.25
 30
18.20
  0
VERTEX
  8
BORDER_D0_T132.1_RK1_A0_W0_EM1
 10
842.79
 20
1682.88
 30
18.20
  0
VERTEX
  8
BORDER_D0_T132.1_RK1_A0_W0_EM1
 10
1035.09
 20
1525.15
 30
18.20
  0
VERTEX
  8
BORDER_D0_T132.1_RK1_A0_W0_EM1
 10
1097.95
 20
1765.79
 30
18.20
  0
VERTEX
  8
BORDER_D0_T132.1_RK1_A0_W0_EM1
 10
1160.81
 20
1525.15
 30
18.20
  0
VERTEX
  8
BORDER_D0_T132.1_RK1_A0_W0_EM1
 10
1353.11
 20
1682.88
 30
18.20
  0
VERTEX
  8
BORDER_D0_T132.1_RK1_A0_W0_EM1
 10
1462.85
 20
1662.70
 30
18.20
  0
VERTEX
  8
BORDER_D0_T132.1_RK1_A0_W0_EM1
 10
1474.74
 20
1671.34
 30
18.20
  0
VERTEX
  8
BORDER_D0_T132.1_RK1_A0_W0_EM1
 10
1466.96
 20
1682.04
 30
18.20
  0
VERTEX
  8
BORDER_D0_T132.1_RK1_A0_W0_EM1
 10
1425.22
 20
1739.49
 30
18.20
  0
VERTEX
  8
BORDER_D0_T132.1_RK1_A0_W0_EM1
 10
1357.69
 20
1717.55
 30
18.20
  0
VERTEX
  8
BORDER_D0_T132.1_RK1_A0_W0_EM1
 10
1399.43
 20
1775.00
 30
18.20
  0
VERTEX
  8
BORDER_D0_T132.1_RK1_A0_W0_EM1
 10
1357.69
 20
1832.45
 30
18.20
  0
VERTEX
  8
BORDER_D0_T132.1_RK1_A0_W0_EM1
 10
1425.22
 20
1810.51
 30
18.20
  0
VERTEX
  8
BORDER_D0_T132.1_RK1_A0_W0_EM1
 10
1466.96
 20
1867.96
 30
18.20
  0
VERTEX
  8
BORDER_D0_T132.1_RK1_A0_W0_EM1
 10
1474.74
 20
1878.66
 30
18.20
  0
VERTEX
  8
BORDER_D0_T132.1_RK1_A0_W0_EM1
 10
1462.85
 20
1887.30
 30
18.20
  0
VERTEX
  8
BORDER_D0_T132.1_RK1_A0_W0_EM1
 10
1449.80
 20
1870.71
 30
18.20
  0
VERTEX
  8
BORDER_D0_T132.1_RK1_A0_W0_EM1
 10
1352.06
 20
1870.71
 30
18.20
  0
SEQEND
  8
BORDER_D0_T132.1_RK1_A0_W0_EM1
  0
POLYLINE
  8
BORDER_D0_T132.1_RK1_A0_W0_EM1
 70
0
 66
1
  0
VERTEX
  8
BORDER_D0_T132.1_RK1_A0_W0_EM1
 10
1339.57
 20
1860.38
 30
18.20
  0
VERTEX
  8
BORDER_D0_T132.1_RK1_A0_W0_EM1
 10
1317.63
 20
1830.18
 30
18.20
  0
VERTEX
  8
BORDER_D0_T132.1_RK1_A0_W0_EM1
 10
1339.57
 20
1799.97
 30
18.20
  0
SEQEND
  8
BORDER_D0_T132.1_RK1_A0_W0_EM1
  0
POLYLINE
  8
BORDER_D0_T132.1_RK1_A0_W0_EM1
 70
0
 66
1
  0
VERTEX
  8
BORDER_D0_T132.1_RK1_A0_W0_EM1
 10
2284.31
 20
1627.15
 30
18.20
  0
VERTEX
  8
BORDER_D0_T132.1_RK1_A0_W0_EM1
 10
2043.67
 20
1564.29
 30
18.20
  0
VERTEX
  8
BORDER_D0_T132.1_RK1_A0_W0_EM1
 10
2201.40
 20
1371.99
 30
18.20
  0
SEQEND
  8
BORDER_D0_T132.1_RK1_A0_W0_EM1
  0
POLYLINE
  8
BORDER_D0_T132.1_RK1_A0_W0_EM1
 70
0
 66
1
  0
VERTEX
  8
BORDER_D0_T132.1_RK1_A0_W0_EM1
 10
2368.07
 20
1320.49
 30
18.20
  0
VERTEX
  8
BORDER_D0_T132.1_RK1_A0_W0_EM1
 10
2346.13
 20
1290.29
 30
18.20
  0
VERTEX
  8
BORDER_D0_T132.1_RK1_A0_W0_EM1
 10
2368.07
 20
1260.09
 30
18.20
  0
VERTEX
  8
BORDER_D0_T132.1_RK1_A0_W0_EM1
 10
2332.57
 20
1248.55
 30
18.20
  0
VERTEX
  8
BORDER_D0_T132.1_RK1_A0_W0_EM1
 10
2332.57
 20
1211.22
 30
18.20
  0
VERTEX
  8
BORDER_D0_T132.1_RK1_A0_W0_EM1
 10
2297.06
 20
1222.75
 30
18.20
  0
VERTEX
  8
BORDER_D0_T132.1_RK1_A0_W0_EM1
 10
2275.12
 20
1192.55
 30
18.20
  0
VERTEX
  8
BORDER_D0_T132.1_RK1_A0_W0_EM1
 10
2253.18
 20
1222.75
 30
18.20
  0
VERTEX
  8
BORDER_D0_T132.1_RK1_A0_W0_EM1
 10
2217.67
 20
1211.22
 30
18.20
  0
VERTEX
  8
BORDER_D0_T132.1_RK1_A0_W0_EM1
 10
2217.67
 20
1248.55
 30
18.20
  0
VERTEX
  8
BORDER_D0_T132.1_RK1_A0_W0_EM1
 10
2182.16
 20
1260.09
 30
18.20
  0
VERTEX
  8
BORDER_D0_T132.1_RK1_A0_W0_EM1
 10
2204.11
 20
1290.29
 30
18.20
  0
VERTEX
  8
BORDER_D0_T132.1_RK1_A0_W0_EM1
 10
2182.16
 20
1320.49
 30
18.20
  0
VERTEX
  8
BORDER_D0_T132.1_RK1_A0_W0_EM1
 10
2217.67
 20
1332.03
 30
18.20
  0
VERTEX
  8
BORDER_D0_T132.1_RK1_A0_W0_EM1
 10
2217.67
 20
1369.36
 30
18.20
  0
VERTEX
  8
BORDER_D0_T132.1_RK1_A0_W0_EM1
 10
2253.18
 20
1357.83
 30
18.20
  0
VERTEX
  8
BORDER_D0_T132.1_RK1_A0_W0_EM1
 10
2275.12
 20
1388.03
 30
18.20
  0
VERTEX
  8
BORDER_D0_T132.1_RK1_A0_W0_EM1
 10
2282.90
 20
1398.73
 30
18.20
  0
VERTEX
  8
BORDER_D0_T132.1_RK1_A0_W0_EM1
 10
2274.13
 20
1407.18
 30
18.20
  0
VERTEX
  8
BORDER_D0_T132.1_RK1_A0_W0_EM1
 10
2243.93
 20
1429.12
 30
18.20
  0
VERTEX
  8
BORDER_D0_T132.1_RK1_A0_W0_EM1
 10
2213.73
 20
1407.18
 30
18.20
  0
VERTEX
  8
BORDER_D0_T132.1_RK1_A0_W0_EM1
 10
2202.19
 20
1442.68
 30
18.20
  0
VERTEX
  8
BORDER_D0_T132.1_RK1_A0_W0_EM1
 10
2164.86
 20
1442.68
 30
18.20
  0
VERTEX
  8
BORDER_D0_T132.1_RK1_A0_W0_EM1
 10
2176.39
 20
1478.19
 30
18.20
  0
VERTEX
  8
BORDER_D0_T132.1_RK1_A0_W0_EM1
 10
2146.19
 20
1500.13
 30
18.20
  0
VERTEX
  8
BORDER_D0_T132.1_RK1_A0_W0_EM1
 10
2176.39
 20
1522.08
 30
18.20
  0
VERTEX
  8
BORDER_D0_T132.1_RK1_A0_W0_EM1
 10
2164.86
 20
1557.58
 30
18.20
  0
VERTEX
  8
BORDER_D0_T132.1_RK1_A0_W0_EM1
 10
2202.19
 20
1557.58
 30
18.20
  0
VERTEX
  8
BORDER_D0_T132.1_RK1_A0_W0_EM1
 10
2213.73
 20
1593.09
 30
18.20
  0
SEQEND
  8
BORDER_D0_T132.1_RK1_A0_W0_EM1
  0
POLYLINE
  8
BORDER_D0_T132.1_RK1_A0_W0_EM1
 70
0
 66
1
  0
VERTEX
  8
BORDER_D0_T132.1_RK1_A0_W0_EM1
 10
2087.76
 20
1861.59
 30
18.20
  0
VERTEX
  8
BORDER_D0_T132.1_RK1_A0_W0_EM1
 10
1994.81
 20
1929.13
 30
18.20
  0
VERTEX
  8
BORDER_D0_T132.1_RK1_A0_W0_EM1
 10
2030.31
 20
2038.41
 30
18.20
  0
SEQEND
  8
BORDER_D0_T132.1_RK1_A0_W0_EM1
  0
POLYLINE
  8
BORDER_D0_T132.1_RK1_A0_W0_EM1
 70
0
 66
1
  0
VERTEX
  8
BORDER_D0_T132.1_RK1_A0_W0_EM1
 10
1658.13
 20
2040.00
 30
18.20
  0
VERTEX
  8
BORDER_D0_T132.1_RK1_A0_W0_EM1
 10
1693.63
 20
1930.72
 30
18.20
  0
VERTEX
  8
BORDER_D0_T132.1_RK1_A0_W0_EM1
 10
1600.68
 20
1863.19
 30
18.20
  0
SEQEND
  8
BORDER_D0_T132.1_RK1_A0_W0_EM1
  0
POLYLINE
  8
BORDER_D0_T132.1_RK1_A0_W0_EM1
 70
0
 66
1
  0
VERTEX
  8
BORDER_D0_T132.1_RK1_A0_W0_EM1
 10
2281.10
 20
790.34
 30
18.20
  0
VERTEX
  8
BORDER_D0_T132.1_RK1_A0_W0_EM1
 10
2032.81
 20
804.92
 30
18.20
  0
VERTEX
  8
BORDER_D0_T132.1_RK1_A0_W0_EM1
 10
2123.40
 20
573.29
 30
18.20
  0
VERTEX
  8
BORDER_D0_T132.1_RK1_A0_W0_EM1
 10
1931.10
 20
731.03
 30
18.20
  0
VERTEX
  8
BORDER_D0_T132.1_RK1_A0_W0_EM1
 10
1868.25
 20
490.39
 30
18.20
  0
VERTEX
  8
BORDER_D0_T132.1_RK1_A0_W0_EM1
 10
1729.09
 20
504.07
 30
18.20
  0
VERTEX
  8
BORDER_D0_T132.1_RK1_A0_W0_EM1
 10
1716.50
 20
500.00
 30
18.20
  0
VERTEX
  8
BORDER_D0_T132.1_RK1_A0_W0_EM1
 10
1653.86
 20
479.73
 30
18.20
  0
VERTEX
  8
BORDER_D0_T132.1_RK1_A0_W0_EM1
 10
1667.63
 20
415.36
 30
18.20
  0
VERTEX
  8
BORDER_D0_T132.1_RK1_A0_W0_EM1
 10
1618.76
 20
459.47
 30
18.20
  0
VERTEX
  8
BORDER_D0_T132.1_RK1_A0_W0_EM1
 10
1569.89
 20
415.36
 30
18.20
  0
VERTEX
  8
BORDER_D0_T132.1_RK1_A0_W0_EM1
 10
1487.44
 20
346.74
 30
18.20
  0
VERTEX
  8
BORDER_D0_T132.1_RK1_A0_W0_EM1
 10
1255.81
 20
437.34
 30
18.20
  0
VERTEX
  8
BORDER_D0_T132.1_RK1_A0_W0_EM1
 10
1270.39
 20
189.05
 30
18.20
  0
VERTEX
  8
BORDER_D0_T132.1_RK1_A0_W0_EM1
 10
1136.24
 20
398.49
 30
18.20
  0
VERTEX
  8
BORDER_D0_T132.1_RK1_A0_W0_EM1
 10
1002.10
 20
189.05
 30
18.20
  0
VERTEX
  8
BORDER_D0_T132.1_RK1_A0_W0_EM1
 10
1016.68
 20
437.34
 30
18.20
  0
VERTEX
  8
BORDER_D0_T132.1_RK1_A0_W0_EM1
 10
785.05
 20
346.74
 30
18.20
  0
VERTEX
  8
BORDER_D0_T132.1_RK1_A0_W0_EM1
 10
766.04
 20
342.10
 30
18.20
  0
VERTEX
  8
BORDER_D0_T132.1_RK1_A0_W0_EM1
 10
766.04
 20
231.13
 30
18.20
  0
VERTEX
  8
BORDER_D0_T132.1_RK1_A0_W0_EM1
 10
681.40
 20
182.26
 30
18.20
  0
VERTEX
  8
BORDER_D0_T132.1_RK1_A0_W0_EM1
 10
596.75
 20
231.13
 30
18.20
  0
SEQEND
  8
BORDER_D0_T132.1_RK1_A0_W0_EM1
  0
POLYLINE
  8
BORDER_D0_T132.1_RK1_A0_W0_EM1
 70
0
 66
1
  0
VERTEX
  8
BORDER_D0_T132.1_RK1_A0_W0_EM1
 10
580.24
 20
240.47
 30
18.20
  0
VERTEX
  8
BORDER_D0_T132.1_RK1_A0_W0_EM1
 10
558.30
 20
210.26
 30
18.20
  0
VERTEX
  8
BORDER_D0_T132.1_RK1_A0_W0_EM1
 10
580.24
 20
180.06
 30
18.20
  0
VERTEX
  8
BORDER_D0_T132.1_RK1_A0_W0_EM1
 10
544.74
 20
168.52
 30
18.20
  0
VERTEX
  8
BORDER_D0_T132.1_RK1_A0_W0_EM1
 10
544.74
 20
131.19
 30
18.20
  0
VERTEX
  8
BORDER_D0_T132.1_RK1_A0_W0_EM1
 10
509.23
 20
142.73
 30
18.20
  0
VERTEX
  8
BORDER_D0_T132.1_RK1_A0_W0_EM1
 10
487.29
 20
112.52
 30
18.20
  0
VERTEX
  8
BORDER_D0_T132.1_RK1_A0_W0_EM1
 10
465.34
 20
142.73
 30
18.20
  0
VERTEX
  8
BORDER_D0_T132.1_RK1_A0_W0_EM1
 10
429.84
 20
131.19
 30
18.20
  0
VERTEX
  8
BORDER_D0_T132.1_RK1_A0_W0_EM1
 10
429.84
 20
168.52
 30
18.20
  0
VERTEX
  8
BORDER_D0_T132.1_RK1_A0_W0_EM1
 10
394.33
 20
180.06
 30
18.20
  0
VERTEX
  8
BORDER_D0_T132.1_RK1_A0_W0_EM1
 10
381.75
 20
184.15
 30
18.20
  0
VERTEX
  8
BORDER_D0_T132.1_RK1_A0_W0_EM1
 10
337.73
 20
175.63
 30
18.20
  0
VERTEX
  8
BORDER_D0_T132.1_RK1_A0_W0_EM1
 10
307.53
 20
197.57
 30
18.20
  0
VERTEX
  8
BORDER_D0_T132.1_RK1_A0_W0_EM1
 10
277.33
 20
175.63
 30
18.20
  0
VERTEX
  8
BORDER_D0_T132.1_RK1_A0_W0_EM1
 10
265.79
 20
211.13
 30
18.20
  0
VERTEX
  8
BORDER_D0_T132.1_RK1_A0_W0_EM1
 10
228.46
 20
211.13
 30
18.20
  0
VERTEX
  8
BORDER_D0_T132.1_RK1_A0_W0_EM1
 10
239.99
 20
246.64
 30
18.20
  0
VERTEX
  8
BORDER_D0_T132.1_RK1_A0_W0_EM1
 10
209.79
 20
268.58
 30
18.20
  0
VERTEX
  8
BORDER_D0_T132.1_RK1_A0_W0_EM1
 10
239.99
 20
290.53
 30
18.20
  0
VERTEX
  8
BORDER_D0_T132.1_RK1_A0_W0_EM1
 10
228.46
 20
326.04
 30
18.20
  0
VERTEX
  8
BORDER_D0_T132.1_RK1_A0_W0_EM1
 10
265.79
 20
326.04
 30
18.20
  0
VERTEX
  8
BORDER_D0_T132.1_RK1_A0_W0_EM1
 10
277.33
 20
361.54
 30
18.20
  0
VERTEX
  8
BORDER_D0_T132.1_RK1_A0_W0_EM1
 10
307.53
 20
339.60
 30
18.20
  0
VERTEX
  8
BORDER_D0_T132.1_RK1_A0_W0_EM1
 10
337.73
 20
361.54
 30
18.20
  0
VERTEX
  8
BORDER_D0_T132.1_RK1_A0_W0_EM1
 10
349.27
 20
326.04
 30
18.20
  0
VERTEX
  8
BORDER_D0_T132.1_RK1_A0_W0_EM1
 10
399.83
 20
326.04
 30
18.20
  0
VERTEX
  8
BORDER_D0_T132.1_RK1_A0_W0_EM1
 10
507.92
 20
366.12
 30
18.20
  0
VERTEX
  8
BORDER_D0_T132.1_RK1_A0_W0_EM1
 10
472.24
 20
392.04
 30
18.20
  0
VERTEX
  8
BORDER_D0_T132.1_RK1_A0_W0_EM1
 10
442.04
 20
413.99
 30
18.20
  0
VERTEX
  8
BORDER_D0_T132.1_RK1_A0_W0_EM1
 10
411.83
 20
392.04
 30
18.20
  0
VERTEX
  8
BORDER_D0_T132.1_RK1_A0_W0_EM1
 10
400.30
 20
427.55
 30
18.20
  0
VERTEX
  8
BORDER_D0_T132.1_RK1_A0_W0_EM1
 10
362.96
 20
427.55
 30
18.20
  0
VERTEX
  8
BORDER_D0_T132.1_RK1_A0_W0_EM1
 10
374.50
 20
463.06
 30
18.20
  0
VERTEX
  8
BORDER_D0_T132.1_RK1_A0_W0_EM1
 10
344.30
 20
485.00
 30
18.20
  0
VERTEX
  8
BORDER_D0_T132.1_RK1_A0_W0_EM1
 10
374.50
 20
506.94
 30
18.20
  0
VERTEX
  8
BORDER_D0_T132.1_RK1_A0_W0_EM1
 10
362.96
 20
542.45
 30
18.20
  0
VERTEX
  8
BORDER_D0_T132.1_RK1_A0_W0_EM1
 10
400.30
 20
542.45
 30
18.20
  0
VERTEX
  8
BORDER_D0_T132.1_RK1_A0_W0_EM1
 10
411.83
 20
577.96
 30
18.20
  0
VERTEX
  8
BORDER_D0_T132.1_RK1_A0_W0_EM1
 10
442.04
 20
556.01
 30
18.20
  0
VERTEX
  8
BORDER_D0_T132.1_RK1_A0_W0_EM1
 10
472.24
 20
577.96
 30
18.20
  0
VERTEX
  8
BORDER_D0_T132.1_RK1_A0_W0_EM1
 10
483.78
 20
542.45
 30
18.20
  0
VERTEX
  8
BORDER_D0_T132.1_RK1_A0_W0_EM1
 10
521.11
 20
542.45
 30
18.20
  0
SEQEND
  8
BORDER_D0_T132.1_RK1_A0_W0_EM1
  0
POLYLINE
  8
BORDER_D0_T132.1_RK1_A0_W0_EM1
 70
1
 66
1
  0
VERTEX
  8
BORDER_D0_T132.1_RK1_A0_W0_EM1
 10
795.29
 20
645.43
 30
18.20
  0
VERTEX
  8
BORDER_D0_T132.1_RK1_A0_W0_EM1
 10
563.66
 20
736.03
 30
18.20
  0
VERTEX
  8
BORDER_D0_T132.1_RK1_A0_W0_EM1
 10
578.24
 20
487.74
 30
18.20
  0
VERTEX
  8
BORDER_D0_T132.1_RK1_A0_W0_EM1
 10
444.10
 20
697.18
 30
18.20
  0
VERTEX
  8
BORDER_D0_T132.1_RK1_A0_W0_EM1
 10
309.96
 20
487.74
 30
18.20
  0
VERTEX
  8
BORDER_D0_T132.1_RK1_A0_W0_EM1
 10
324.54
 20
736.03
 30
18.20
  0
VERTEX
  8
BORDER_D0_T132.1_RK1_A0_W0_EM1
 10
92.91
 20
645.43
 30
18.20
  0
VERTEX
  8
BORDER_D0_T132.1_RK1_A0_W0_EM1
 10
250.64
 20
837.73
 30
18.20
  0
VERTEX
  8
BORDER_D0_T132.1_RK1_A0_W0_EM1
 10
10.00
 20
900.59
 30
18.20
  0
VERTEX
  8
BORDER_D0_T132.1_RK1_A0_W0_EM1
 10
250.64
 20
963.45
 30
18.20
  0
VERTEX
  8
BORDER_D0_T132.1_RK1_A0_W0_EM1
 10
92.91
 20
1155.75
 30
18.20
  0
VERTEX
  8
BORDER_D0_T132.1_RK1_A0_W0_EM1
 10
324.54
 20
1065.16
 30
18.20
  0
VERTEX
  8
BORDER_D0_T132.1_RK1_A0_W0_EM1
 10
309.96
 20
1313.44
 30
18.20
  0
VERTEX
  8
BORDER_D0_T132.1_RK1_A0_W0_EM1
 10
444.10
 20
1104.00
 30
18.20
  0
VERTEX
  8
BORDER_D0_T132.1_RK1_A0_W0_EM1
 10
578.24
 20
1313.44
 30
18.20
  0
VERTEX
  8
BORDER_D0_T132.1_RK1_A0_W0_EM1
 10
563.66
 20
1065.16
 30
18.20
  0
VERTEX
  8
BORDER_D0_T132.1_RK1_A0_W0_EM1
 10
795.29
 20
1155.75
 30
18.20
  0
VERTEX
  8
BORDER_D0_T132.1_RK1_A0_W0_EM1
 10
637.56
 20
963.45
 30
18.20
  0
VERTEX
  8
BORDER_D0_T132.1_RK1_A0_W0_EM1
 10
878.20
 20
900.59
 30
18.20
  0
VERTEX
  8
BORDER_D0_T132.1_RK1_A0_W0_EM1
 10
637.56
 20
837.73
 30
18.20
  0
VERTEX
  8
BORDER_D0_T132.1_RK1_A0_W0_EM1
 10
795.29
 20
645.43
 30
18.20
  0
SEQEND
  8
BORDER_D0_T132.1_RK1_A0_W0_EM1
  0
POLYLINE
  8
BORDER_D0_T132.1_RK1_A0_W0_EM1
 70
0
 66
1
  0
VERTEX
  8
BORDER_D0_T132.1_RK1_A0_W0_EM1
 10
785.96
 20
475.00
 30
18.20
  0
VERTEX
  8
BORDER_D0_T132.1_RK1_A0_W0_EM1
 10
755.76
 20
453.06
 30
18.20
  0
VERTEX
  8
BORDER_D0_T132.1_RK1_A0_W0_EM1
 10
767.30
 20
417.55
 30
18.20
  0
VERTEX
  8
BORDER_D0_T132.1_RK1_A0_W0_EM1
 10
729.96
 20
417.55
 30
18.20
  0
VERTEX
  8
BORDER_D0_T132.1_RK1_A0_W0_EM1
 10
718.43
 20
382.04
 30
18.20
  0
VERTEX
  8
BORDER_D0_T132.1_RK1_A0_W0_EM1
 10
714.34
 20
369.46
 30
18.20
  0
VERTEX
  8
BORDER_D0_T132.1_RK1_A0_W0_EM1
 10
798.85
 20
317.26
 30
18.20
  0
VERTEX
  8
BORDER_D0_T132.1_RK1_A0_W0_EM1
 10
810.31
 20
323.87
 30
18.20
  0
VERTEX
  8
BORDER_D0_T132.1_RK1_A0_W0_EM1
 10
894.95
 20
372.74
 30
18.20
  0
VERTEX
  8
BORDER_D0_T132.1_RK1_A0_W0_EM1
 10
979.60
 20
323.87
 30
18.20
  0
VERTEX
  8
BORDER_D0_T132.1_RK1_A0_W0_EM1
 10
979.60
 20
226.13
 30
18.20
  0
SEQEND
  8
BORDER_D0_T132.1_RK1_A0_W0_EM1
  0
POLYLINE
  8
BORDER_D0_T132.1_RK1_A0_W0_EM1
 70
0
 66
1
  0
VERTEX
  8
BORDER_D0_T132.1_RK1_A0_W0_EM1
 10
1421.56
 20
221.76
 30
18.20
  0
VERTEX
  8
BORDER_D0_T132.1_RK1_A0_W0_EM1
 10
1483.04
 20
241.30
 30
18.20
  0
VERTEX
  8
BORDER_D0_T132.1_RK1_A0_W0_EM1
 10
1483.04
 20
299.95
 30
18.20
  0
VERTEX
  8
BORDER_D0_T132.1_RK1_A0_W0_EM1
 10
1421.56
 20
319.50
 30
18.20
  0
VERTEX
  8
BORDER_D0_T132.1_RK1_A0_W0_EM1
 10
1790.47
 20
368.37
 30
18.20
  0
VERTEX
  8
BORDER_D0_T132.1_RK1_A0_W0_EM1
 10
1913.44
 20
335.79
 30
18.20
  0
VERTEX
  8
BORDER_D0_T132.1_RK1_A0_W0_EM1
 10
1913.44
 20
192.24
 30
18.20
  0
VERTEX
  8
BORDER_D0_T132.1_RK1_A0_W0_EM1
 10
1928.14
 20
192.24
 30
18.20
  0
VERTEX
  8
BORDER_D0_T132.1_RK1_A0_W0_EM1
 10
1928.19
 20
298.22
 30
18.20
  0
VERTEX
  8
BORDER_D0_T132.1_RK1_A0_W0_EM1
 10
2012.84
 20
347.09
 30
18.20
  0
VERTEX
  8
BORDER_D0_T132.1_RK1_A0_W0_EM1
 10
2097.48
 20
298.22
 30
18.20
  0
VERTEX
  8
BORDER_D0_T132.1_RK1_A0_W0_EM1
 10
2097.48
 20
200.48
 30
18.20
  0
SEQEND
  8
BORDER_D0_T132.1_RK1_A0_W0_EM1
  0
POLYLINE
  8
BORDER_D0_T132.1_RK1_A0_W0_EM1
 70
0
 66
1
  0
VERTEX
  8
BORDER_D0_T132.1_RK1_A0_W0_EM1
 10
2708.14
 20
192.79
 30
18.20
  0
VERTEX
  8
BORDER_D0_T132.1_RK1_A0_W0_EM1
 10
2670.80
 20
192.79
 30
18.20
  0
VERTEX
  8
BORDER_D0_T132.1_RK1_A0_W0_EM1
 10
2659.27
 20
157.28
 30
18.20
  0
VERTEX
  8
BORDER_D0_T132.1_RK1_A0_W0_EM1
 10
2629.06
 20
179.23
 30
18.20
  0
VERTEX
  8
BORDER_D0_T132.1_RK1_A0_W0_EM1
 10
2598.86
 20
157.28
 30
18.20
  0
VERTEX
  8
BORDER_D0_T132.1_RK1_A0_W0_EM1
 10
2587.32
 20
192.79
 30
18.20
  0
VERTEX
  8
BORDER_D0_T132.1_RK1_A0_W0_EM1
 10
2549.99
 20
192.79
 30
18.20
  0
VERTEX
  8
BORDER_D0_T132.1_RK1_A0_W0_EM1
 10
2561.53
 20
228.29
 30
18.20
  0
VERTEX
  8
BORDER_D0_T132.1_RK1_A0_W0_EM1
 10
2531.32
 20
250.24
 30
18.20
  0
VERTEX
  8
BORDER_D0_T132.1_RK1_A0_W0_EM1
 10
2561.53
 20
272.18
 30
18.20
  0
VERTEX
  8
BORDER_D0_T132.1_RK1_A0_W0_EM1
 10
2549.99
 20
307.69
 30
18.20
  0
VERTEX
  8
BORDER_D0_T132.1_RK1_A0_W0_EM1
 10
2587.32
 20
307.69
 30
18.20
  0
VERTEX
  8
BORDER_D0_T132.1_RK1_A0_W0_EM1
 10
2598.86
 20
343.19
 30
18.20
  0
VERTEX
  8
BORDER_D0_T132.1_RK1_A0_W0_EM1
 10
2629.06
 20
321.25
 30
18.20
  0
VERTEX
  8
BORDER_D0_T132.1_RK1_A0_W0_EM1
 10
2659.27
 20
343.19
 30
18.20
  0
VERTEX
  8
BORDER_D0_T132.1_RK1_A0_W0_EM1
 10
2670.80
 20
307.69
 30
18.20
  0
VERTEX
  8
BORDER_D0_T132.1_RK1_A0_W0_EM1
 10
2708.14
 20
307.69
 30
18.20
  0
VERTEX
  8
BORDER_D0_T132.1_RK1_A0_W0_EM1
 10
2696.60
 20
272.18
 30
18.20
  0
VERTEX
  8
BORDER_D0_T132.1_RK1_A0_W0_EM1
 10
2726.80
 20
250.24
 30
18.20
  0
SEQEND
  8
BORDER_D0_T132.1_RK1_A0_W0_EM1
  0
POLYLINE
  8
BORDER_D0_T132.1_RK1_A0_W0_EM1
 70
0
 66
1
  0
VERTEX
  8
BORDER_D0_T132.1_RK1_A0_W0_EM1
 10
2722.11
 20
685.00
 30
18.20
  0
VERTEX
  8
BORDER_D0_T132.1_RK1_A0_W0_EM1
 10
2691.91
 20
663.06
 30
18.20
  0
VERTEX
  8
BORDER_D0_T132.1_RK1_A0_W0_EM1
 10
2703.44
 20
627.55
 30
18.20
  0
VERTEX
  8
BORDER_D0_T132.1_RK1_A0_W0_EM1
 10
2666.11
 20
627.55
 30
18.20
  0
VERTEX
  8
BORDER_D0_T132.1_RK1_A0_W0_EM1
 10
2654.57
 20
592.04
 30
18.20
  0
VERTEX
  8
BORDER_D0_T132.1_RK1_A0_W0_EM1
 10
2624.37
 20
613.99
 30
18.20
  0
VERTEX
  8
BORDER_D0_T132.1_RK1_A0_W0_EM1
 10
2594.17
 20
592.04
 30
18.20
  0
VERTEX
  8
BORDER_D0_T132.1_RK1_A0_W0_EM1
 10
2582.63
 20
627.55
 30
18.20
  0
VERTEX
  8
BORDER_D0_T132.1_RK1_A0_W0_EM1
 10
2545.29
 20
627.55
 30
18.20
  0
VERTEX
  8
BORDER_D0_T132.1_RK1_A0_W0_EM1
 10
2556.83
 20
663.06
 30
18.20
  0
VERTEX
  8
BORDER_D0_T132.1_RK1_A0_W0_EM1
 10
2526.63
 20
685.00
 30
18.20
  0
VERTEX
  8
BORDER_D0_T132.1_RK1_A0_W0_EM1
 10
2556.83
 20
706.94
 30
18.20
  0
VERTEX
  8
BORDER_D0_T132.1_RK1_A0_W0_EM1
 10
2545.29
 20
742.45
 30
18.20
  0
VERTEX
  8
BORDER_D0_T132.1_RK1_A0_W0_EM1
 10
2582.63
 20
742.45
 30
18.20
  0
VERTEX
  8
BORDER_D0_T132.1_RK1_A0_W0_EM1
 10
2594.17
 20
777.96
 30
18.20
  0
VERTEX
  8
BORDER_D0_T132.1_RK1_A0_W0_EM1
 10
2624.37
 20
756.01
 30
18.20
  0
VERTEX
  8
BORDER_D0_T132.1_RK1_A0_W0_EM1
 10
2654.57
 20
777.96
 30
18.20
  0
VERTEX
  8
BORDER_D0_T132.1_RK1_A0_W0_EM1
 10
2665.27
 20
785.73
 30
18.20
  0
VERTEX
  8
BORDER_D0_T132.1_RK1_A0_W0_EM1
 10
2711.60
 20
1098.82
 30
18.20
  0
VERTEX
  8
BORDER_D0_T132.1_RK1_A0_W0_EM1
 10
2704.26
 20
1111.55
 30
18.20
  0
VERTEX
  8
BORDER_D0_T132.1_RK1_A0_W0_EM1
 10
2692.80
 20
1104.93
 30
18.20
  0
VERTEX
  8
BORDER_D0_T132.1_RK1_A0_W0_EM1
 10
2608.15
 20
1056.06
 30
18.20
  0
VERTEX
  8
BORDER_D0_T132.1_RK1_A0_W0_EM1
 10
2523.51
 20
1104.93
 30
18.20
  0
VERTEX
  8
BORDER_D0_T132.1_RK1_A0_W0_EM1
 10
2523.51
 20
1202.67
 30
18.20
  0
VERTEX
  8
BORDER_D0_T132.1_RK1_A0_W0_EM1
 10
2608.15
 20
1251.54
 30
18.20
  0
SEQEND
  8
BORDER_D0_T132.1_RK1_A0_W0_EM1
  0
POLYLINE
  8
BORDER_D0_T132.1_RK1_A0_W0_EM1
 70
1
 66
1
  0
VERTEX
  8
BORDER_D0_T132.1_RK1_A0_W0_EM1
 10
2505.83
 20
1794.06
 30
18.20
 42
-0.017435
  0
VERTEX
  8
BORDER_D0_T132.1_RK1_A0_W0_EM1
 10
2507.32
 20
1836.77
 30
18.20
 42
-0.018360
  0
VERTEX
  8
BORDER_D0_T132.1_RK1_A0_W0_EM1
 10
2511.73
 20
1878.18
 30
18.20
 42
-0.020393
  0
VERTEX
  8
BORDER_D0_T132.1_RK1_A0_W0_EM1
 10
2518.93
 20
1917.03
 30
18.20
 42
-0.023968
  0
VERTEX
  8
BORDER_D0_T132.1_RK1_A0_W0_EM1
 10
2528.70
 20
1952.15
 30
18.20
 42
-0.029940
  0
VERTEX
  8
BORDER_D0_T132.1_RK1_A0_W0_EM1
 10
2540.75
 20
1982.46
 30
18.20
 42
-0.039878
  0
VERTEX
  8
BORDER_D0_T132.1_RK1_A0_W0_EM1
 10
2554.70
 20
2007.05
 30
18.20
 42
-0.056347
  0
VERTEX
  8
BORDER_D0_T132.1_RK1_A0_W0_EM1
 10
2570.14
 20
2025.17
 30
18.20
 42
-0.081333
  0
VERTEX
  8
BORDER_D0_T132.1_RK1_A0_W0_EM1
 10
2586.60
 20
2036.26
 30
18.20
 42
-0.106579
  0
VERTEX
  8
BORDER_D0_T132.1_RK1_A0_W0_EM1
 10
2603.57
 20
2040.00
 30
18.20
 42
-0.106579
  0
VERTEX
  8
BORDER_D0_T132.1_RK1_A0_W0_EM1
 10
2620.54
 20
2036.26
 30
18.20
 42
-0.081333
  0
VERTEX
  8
BORDER_D0_T132.1_RK1_A0_W0_EM1
 10
2637.00
 20
2025.17
 30
18.20
 42
-0.056346
  0
VERTEX
  8
BORDER_D0_T132.1_RK1_A0_W0_EM1
 10
2652.44
 20
2007.05
 30
18.20
 42
-0.039878
  0
VERTEX
  8
BORDER_D0_T132.1_RK1_A0_W0_EM1
 10
2666.40
 20
1982.46
 30
18.20
 42
-0.029940
  0
VERTEX
  8
BORDER_D0_T132.1_RK1_A0_W0_EM1
 10
2678.45
 20
1952.15
 30
18.20
 42
-0.023968
  0
VERTEX
  8
BORDER_D0_T132.1_RK1_A0_W0_EM1
 10
2688.22
 20
1917.03
 30
18.20
 42
-0.020393
  0
VERTEX
  8
BORDER_D0_T132.1_RK1_A0_W0_EM1
 10
2695.42
 20
1878.18
 30
18.20
 42
-0.018360
  0
VERTEX
  8
BORDER_D0_T132.1_RK1_A0_W0_EM1
 10
2699.83
 20
1836.77
 30
18.20
 42
-0.017435
  0
VERTEX
  8
BORDER_D0_T132.1_RK1_A0_W0_EM1
 10
2701.31
 20
1794.06
 30
18.20
 42
-0.017435
  0
VERTEX
  8
BORDER_D0_T132.1_RK1_A0_W0_EM1
 10
2699.83
 20
1751.35
 30
18.20
 42
-0.018360
  0
VERTEX
  8
BORDER_D0_T132.1_RK1_A0_W0_EM1
 10
2695.42
 20
1709.94
 30
18.20
 42
-0.020393
  0
VERTEX
  8
BORDER_D0_T132.1_RK1_A0_W0_EM1
 10
2688.22
 20
1671.09
 30
18.20
 42
-0.023968
  0
VERTEX
  8
BORDER_D0_T132.1_RK1_A0_W0_EM1
 10
2678.45
 20
1635.97
 30
18.20
 42
-0.029940
  0
VERTEX
  8
BORDER_D0_T132.1_RK1_A0_W0_EM1
 10
2666.40
 20
1605.66
 30
18.20
 42
-0.039879
  0
VERTEX
  8
BORDER_D0_T132.1_RK1_A0_W0_EM1
 10
2652.44
 20
1581.07
 30
18.20
 42
-0.056346
  0
VERTEX
  8
BORDER_D0_T132.1_RK1_A0_W0_EM1
 10
2637.00
 20
1562.95
 30
18.20
 42
-0.081333
  0
VERTEX
  8
BORDER_D0_T132.1_RK1_A0_W0_EM1
 10
2620.54
 20
1551.86
 30
18.20
 42
-0.106578
  0
VERTEX
  8
BORDER_D0_T132.1_RK1_A0_W0_EM1
 10
2603.57
 20
1548.12
 30
18.20
 42
-0.106578
  0
VERTEX
  8
BORDER_D0_T132.1_RK1_A0_W0_EM1
 10
2586.60
 20
1551.86
 30
18.20
 42
-0.081333
  0
VERTEX
  8
BORDER_D0_T132.1_RK1_A0_W0_EM1
 10
2570.14
 20
1562.95
 30
18.20
 42
-0.056347
  0
VERTEX
  8
BORDER_D0_T132.1_RK1_A0_W0_EM1
 10
2554.70
 20
1581.07
 30
18.20
 42
-0.039878
  0
VERTEX
  8
BORDER_D0_T132.1_RK1_A0_W0_EM1
 10
2540.75
 20
1605.66
 30
18.20
 42
-0.029940
  0
VERTEX
  8
BORDER_D0_T132.1_RK1_A0_W0_EM1
 10
2528.70
 20
1635.97
 30
18.20
 42
-0.023968
  0
VERTEX
  8
BORDER_D0_T132.1_RK1_A0_W0_EM1
 10
2518.93
 20
1671.09
 30
18.20
 42
-0.020393
  0
VERTEX
  8
BORDER_D0_T132.1_RK1_A0_W0_EM1
 10
2511.73
 20
1709.94
 30
18.20
 42
-0.018360
  0
VERTEX
  8
BORDER_D0_T132.1_RK1_A0_W0_EM1
 10
2507.32
 20
1751.35
 30
18.20
 42
-0.017435
  0
VERTEX
  8
BORDER_D0_T132.1_RK1_A0_W0_EM1
 10
2505.83
 20
1794.06
 30
18.20
  0
SEQEND
  8
BORDER_D0_T132.1_RK1_A0_W0_EM1
  0
POLYLINE
  8
BORDER_D0_T132.1_RK1_A0_W0_EM1
 70
1
 66
1
  0
VERTEX
  8
BORDER_D0_T132.1_RK1_A0_W0_EM1
 10
776.48
 20
147.38
 30
18.20
 42
-0.018360
  0
VERTEX
  8
BORDER_D0_T132.1_RK1_A0_W0_EM1
 10
817.89
 20
142.98
 30
18.20
 42
-0.020393
  0
VERTEX
  8
BORDER_D0_T132.1_RK1_A0_W0_EM1
 10
856.75
 20
135.77
 30
18.20
 42
-0.023968
  0
VERTEX
  8
BORDER_D0_T132.1_RK1_A0_W0_EM1
 10
891.86
 20
126.00
 30
18.20
 42
-0.029940
  0
VERTEX
  8
BORDER_D0_T132.1_RK1_A0_W0_EM1
 10
922.18
 20
113.96
 30
18.20
 42
-0.039878
  0
VERTEX
  8
BORDER_D0_T132.1_RK1_A0_W0_EM1
 10
946.77
 20
100.00
 30
18.20
 42
-0.056346
  0
VERTEX
  8
BORDER_D0_T132.1_RK1_A0_W0_EM1
 10
964.88
 20
84.56
 30
18.20
 42
-0.081333
  0
VERTEX
  8
BORDER_D0_T132.1_RK1_A0_W0_EM1
 10
975.98
 20
68.10
 30
18.20
 42
-0.106579
  0
VERTEX
  8
BORDER_D0_T132.1_RK1_A0_W0_EM1
 10
979.72
 20
51.13
 30
18.20
  0
VERTEX
  8
BORDER_D0_T132.1_RK1_A0_W0_EM1
 10
487.84
 20
51.13
 30
18.20
 42
-0.106579
  0
VERTEX
  8
BORDER_D0_T132.1_RK1_A0_W0_EM1
 10
491.57
 20
68.10
 30
18.20
 42
-0.081333
  0
VERTEX
  8
BORDER_D0_T132.1_RK1_A0_W0_EM1
 10
502.67
 20
84.56
 30
18.20
 42
-0.056346
  0
VERTEX
  8
BORDER_D0_T132.1_RK1_A0_W0_EM1
 10
520.79
 20
100.00
 30
18.20
 42
-0.039878
  0
VERTEX
  8
BORDER_D0_T132.1_RK1_A0_W0_EM1
 10
545.38
 20
113.96
 30
18.20
 42
-0.029940
  0
VERTEX
  8
BORDER_D0_T132.1_RK1_A0_W0_EM1
 10
575.69
 20
126.00
 30
18.20
 42
-0.023968
  0
VERTEX
  8
BORDER_D0_T132.1_RK1_A0_W0_EM1
 10
610.81
 20
135.77
 30
18.20
 42
-0.020393
  0
VERTEX
  8
BORDER_D0_T132.1_RK1_A0_W0_EM1
 10
649.66
 20
142.98
 30
18.20
 42
-0.018360
  0
VERTEX
  8
BORDER_D0_T132.1_RK1_A0_W0_EM1
 10
691.07
 20
147.38
 30
18.20
 42
-0.017435
  0
VERTEX
  8
BORDER_D0_T132.1_RK1_A0_W0_EM1
 10
733.78
 20
148.87
 30
18.20
 42
-0.017435
  0
VERTEX
  8
BORDER_D0_T132.1_RK1_A0_W0_EM1
 10
776.48
 20
147.38
 30
18.20
  0
SEQEND
  8
BORDER_D0_T132.1_RK1_A0_W0_EM1
  0
POLYLINE
  8
BORDER_D0_T132.1_RK1_A0_W0_EM1
 70
1
 66
1
  0
VERTEX
  8
BORDER_D0_T132.1_RK1_A0_W0_EM1
 10
2166.00
 20
896.57
 30
18.20
 42
-0.081333
  0
VERTEX
  8
BORDER_D0_T132.1_RK1_A0_W0_EM1
 10
2154.90
 20
913.03
 30
18.20
 42
-0.106579
  0
VERTEX
  8
BORDER_D0_T132.1_RK1_A0_W0_EM1
 10
2151.17
 20
930.00
 30
18.20
 42
-0.106579
  0
VERTEX
  8
BORDER_D0_T132.1_RK1_A0_W0_EM1
 10
2154.90
 20
946.97
 30
18.20
 42
-0.081333
  0
VERTEX
  8
BORDER_D0_T132.1_RK1_A0_W0_EM1
 10
2166.00
 20
963.43
 30
18.20
 42
-0.056346
  0
VERTEX
  8
BORDER_D0_T132.1_RK1_A0_W0_EM1
 10
2184.11
 20
978.87
 30
18.20
 42
-0.039879
  0
VERTEX
  8
BORDER_D0_T132.1_RK1_A0_W0_EM1
 10
2208.70
 20
992.83
 30
18.20
 42
-0.029940
  0
VERTEX
  8
BORDER_D0_T132.1_RK1_A0_W0_EM1
 10
2239.02
 20
1004.87
 30
18.20
 42
-0.023968
  0
VERTEX
  8
BORDER_D0_T132.1_RK1_A0_W0_EM1
 10
2274.14
 20
1014.65
 30
18.20
 42
-0.020393
  0
VERTEX
  8
BORDER_D0_T132.1_RK1_A0_W0_EM1
 10
2312.99
 20
1021.85
 30
18.20
 42
-0.018360
  0
VERTEX
  8
BORDER_D0_T132.1_RK1_A0_W0_EM1
 10
2354.40
 20
1026.26
 30
18.20
 42
-0.017435
  0
VERTEX
  8
BORDER_D0_T132.1_RK1_A0_W0_EM1
 10
2397.10
 20
1027.74
 30
18.20
 42
-0.017435
  0
VERTEX
  8
BORDER_D0_T132.1_RK1_A0_W0_EM1
 10
2439.81
 20
1026.26
 30
18.20
 42
-0.018360
  0
VERTEX
  8
BORDER_D0_T132.1_RK1_A0_W0_EM1
 10
2481.22
 20
1021.85
 30
18.20
 42
-0.020393
  0
VERTEX
  8
BORDER_D0_T132.1_RK1_A0_W0_EM1
 10
2520.07
 20
1014.65
 30
18.20
 42
-0.023968
  0
VERTEX
  8
BORDER_D0_T132.1_RK1_A0_W0_EM1
 10
2555.19
 20
1004.87
 30
18.20
 42
-0.029940
  0
VERTEX
  8
BORDER_D0_T132.1_RK1_A0_W0_EM1
 10
2585.51
 20
992.83
 30
18.20
 42
-0.039878
  0
VERTEX
  8
BORDER_D0_T132.1_RK1_A0_W0_EM1
 10
2610.09
 20
978.87
 30
18.20
 42
-0.056346
  0
VERTEX
  8
BORDER_D0_T132.1_RK1_A0_W0_EM1
 10
2628.21
 20
963.43
 30
18.20
 42
-0.081333
  0
VERTEX
  8
BORDER_D0_T132.1_RK1_A0_W0_EM1
 10
2639.31
 20
946.97
 30
18.20
 42
-0.106579
  0
VERTEX
  8
BORDER_D0_T132.1_RK1_A0_W0_EM1
 10
2643.04
 20
930.00
 30
18.20
 42
-0.106579
  0
VERTEX
  8
BORDER_D0_T132.1_RK1_A0_W0_EM1
 10
2639.31
 20
913.03
 30
18.20
 42
-0.081333
  0
VERTEX
  8
BORDER_D0_T132.1_RK1_A0_W0_EM1
 10
2628.21
 20
896.57
 30
18.20
 42
-0.056346
  0
VERTEX
  8
BORDER_D0_T132.1_RK1_A0_W0_EM1
 10
2610.09
 20
881.13
 30
18.20
 42
-0.039878
  0
VERTEX
  8
BORDER_D0_T132.1_RK1_A0_W0_EM1
 10
2585.51
 20
867.17
 30
18.20
 42
-0.029940
  0
VERTEX
  8
BORDER_D0_T132.1_RK1_A0_W0_EM1
 10
2555.19
 20
855.13
 30
18.20
 42
-0.023968
  0
VERTEX
  8
BORDER_D0_T132.1_RK1_A0_W0_EM1
 10
2520.07
 20
845.35
 30
18.20
 42
-0.020393
  0
VERTEX
  8
BORDER_D0_T132.1_RK1_A0_W0_EM1
 10
2481.22
 20
838.15
 30
18.20
 42
-0.018360
  0
VERTEX
  8
BORDER_D0_T132.1_RK1_A0_W0_EM1
 10
2439.81
 20
833.74
 30
18.20
 42
-0.017435
  0
VERTEX
  8
BORDER_D0_T132.1_RK1_A0_W0_EM1
 10
2397.10
 20
832.26
 30
18.20
 42
-0.017435
  0
VERTEX
  8
BORDER_D0_T132.1_RK1_A0_W0_EM1
 10
2354.40
 20
833.74
 30
18.20
 42
-0.018360
  0
VERTEX
  8
BORDER_D0_T132.1_RK1_A0_W0_EM1
 10
2312.99
 20
838.15
 30
18.20
 42
-0.020393
  0
VERTEX
  8
BORDER_D0_T132.1_RK1_A0_W0_EM1
 10
2274.14
 20
845.35
 30
18.20
 42
-0.023968
  0
VERTEX
  8
BORDER_D0_T132.1_RK1_A0_W0_EM1
 10
2239.02
 20
855.13
 30
18.20
 42
-0.029940
  0
VERTEX
  8
BORDER_D0_T132.1_RK1_A0_W0_EM1
 10
2208.70
 20
867.17
 30
18.20
 42
-0.039879
  0
VERTEX
  8
BORDER_D0_T132.1_RK1_A0_W0_EM1
 10
2184.11
 20
881.13
 30
18.20
 42
-0.056346
  0
VERTEX
  8
BORDER_D0_T132.1_RK1_A0_W0_EM1
 10
2166.00
 20
896.57
 30
18.20
  0
SEQEND
  8
BORDER_D0_T132.1_RK1_A0_W0_EM1
  0
POLYLINE
  8
BORDER_D0_T132.1_RK1_A0_W0_EM1
 70
1
 66
1
  0
VERTEX
  8
BORDER_D0_T132.1_RK1_A0_W0_EM1
 10
2676.53
 20
1589.01
 30
18.20
 42
-0.029940
  0
VERTEX
  8
BORDER_D0_T132.1_RK1_A0_W0_EM1
 10
2688.57
 20
1619.33
 30
18.20
 42
-0.039878
  0
VERTEX
  8
BORDER_D0_T132.1_RK1_A0_W0_EM1
 10
2702.53
 20
1643.92
 30
18.20
 42
-0.056346
  0
VERTEX
  8
BORDER_D0_T132.1_RK1_A0_W0_EM1
 10
2717.97
 20
1662.04
 30
18.20
 42
-0.081333
  0
VERTEX
  8
BORDER_D0_T132.1_RK1_A0_W0_EM1
 10
2734.43
 20
1673.13
 30
18.20
 42
-0.106579
  0
VERTEX
  8
BORDER_D0_T132.1_RK1_A0_W0_EM1
 10
2751.40
 20
1676.87
 30
18.20
  0
VERTEX
  8
BORDER_D0_T132.1_RK1_A0_W0_EM1
 10
2751.40
 20
1184.99
 30
18.20
 42
-0.106579
  0
VERTEX
  8
BORDER_D0_T132.1_RK1_A0_W0_EM1
 10
2734.43
 20
1188.72
 30
18.20
 42
-0.081333
  0
VERTEX
  8
BORDER_D0_T132.1_RK1_A0_W0_EM1
 10
2717.97
 20
1199.82
 30
18.20
 42
-0.056346
  0
VERTEX
  8
BORDER_D0_T132.1_RK1_A0_W0_EM1
 10
2702.53
 20
1217.94
 30
18.20
 42
-0.039878
  0
VERTEX
  8
BORDER_D0_T132.1_RK1_A0_W0_EM1
 10
2688.57
 20
1242.53
 30
18.20
 42
-0.029940
  0
VERTEX
  8
BORDER_D0_T132.1_RK1_A0_W0_EM1
 10
2676.53
 20
1272.84
 30
18.20
 42
-0.023968
  0
VERTEX
  8
BORDER_D0_T132.1_RK1_A0_W0_EM1
 10
2666.75
 20
1307.96
 30
18.20
 42
-0.020393
  0
VERTEX
  8
BORDER_D0_T132.1_RK1_A0_W0_EM1
 10
2659.55
 20
1346.81
 30
18.20
 42
-0.018360
  0
VERTEX
  8
BORDER_D0_T132.1_RK1_A0_W0_EM1
 10
2655.14
 20
1388.22
 30
18.20
 42
-0.017435
  0
VERTEX
  8
BORDER_D0_T132.1_RK1_A0_W0_EM1
 10
2653.66
 20
1430.93
 30
18.20
 42
-0.017435
  0
VERTEX
  8
BORDER_D0_T132.1_RK1_A0_W0_EM1
 10
2655.14
 20
1473.63
 30
18.20
 42
-0.018360
  0
VERTEX
  8
BORDER_D0_T132.1_RK1_A0_W0_EM1
 10
2659.55
 20
1515.04
 30
18.20
 42
-0.020393
  0
VERTEX
  8
BORDER_D0_T132.1_RK1_A0_W0_EM1
 10
2666.75
 20
1553.90
 30
18.20
 42
-0.023968
  0
VERTEX
  8
BORDER_D0_T132.1_RK1_A0_W0_EM1
 10
2676.53
 20
1589.01
 30
18.20
  0
SEQEND
  8
BORDER_D0_T132.1_RK1_A0_W0_EM1
  0
POLYLINE
  8
BORDER_D0_T132.1_RK1_A0_W0_EM1
 70
1
 66
1
  0
VERTEX
  8
BORDER_D0_T132.1_RK1_A0_W0_EM1
 10
1793.21
 20
100.00
 30
18.20
 42
-0.056346
  0
VERTEX
  8
BORDER_D0_T132.1_RK1_A0_W0_EM1
 10
1811.32
 20
84.56
 30
18.20
 42
-0.081333
  0
VERTEX
  8
BORDER_D0_T132.1_RK1_A0_W0_EM1
 10
1822.42
 20
68.10
 30
18.20
 42
-0.106579
  0
VERTEX
  8
BORDER_D0_T132.1_RK1_A0_W0_EM1
 10
1826.16
 20
51.13
 30
18.20
  0
VERTEX
  8
BORDER_D0_T132.1_RK1_A0_W0_EM1
 10
1334.28
 20
51.13
 30
18.20
 42
-0.106579
  0
VERTEX
  8
BORDER_D0_T132.1_RK1_A0_W0_EM1
 10
1338.01
 20
68.10
 30
18.20
 42
-0.081333
  0
VERTEX
  8
BORDER_D0_T132.1_RK1_A0_W0_EM1
 10
1349.11
 20
84.56
 30
18.20
 42
-0.056347
  0
VERTEX
  8
BORDER_D0_T132.1_RK1_A0_W0_EM1
 10
1367.23
 20
100.00
 30
18.20
 42
-0.039878
  0
VERTEX
  8
BORDER_D0_T132.1_RK1_A0_W0_EM1
 10
1391.82
 20
113.96
 30
18.20
 42
-0.029940
  0
VERTEX
  8
BORDER_D0_T132.1_RK1_A0_W0_EM1
 10
1422.13
 20
126.00
 30
18.20
 42
-0.023968
  0
VERTEX
  8
BORDER_D0_T132.1_RK1_A0_W0_EM1
 10
1457.25
 20
135.77
 30
18.20
 42
-0.020393
  0
VERTEX
  8
BORDER_D0_T132.1_RK1_A0_W0_EM1
 10
1496.10
 20
142.98
 30
18.20
 42
-0.018360
  0
VERTEX
  8
BORDER_D0_T132.1_RK1_A0_W0_EM1
 10
1537.51
 20
147.38
 30
18.20
 42
-0.017435
  0
VERTEX
  8
BORDER_D0_T132.1_RK1_A0_W0_EM1
 10
1580.22
 20
148.87
 30
18.20
 42
-0.017435
  0
VERTEX
  8
BORDER_D0_T132.1_RK1_A0_W0_EM1
 10
1622.92
 20
147.38
 30
18.20
 42
-0.018360
  0
VERTEX
  8
BORDER_D0_T132.1_RK1_A0_W0_EM1
 10
1664.33
 20
142.98
 30
18.20
 42
-0.020393
  0
VERTEX
  8
BORDER_D0_T132.1_RK1_A0_W0_EM1
 10
1703.19
 20
135.77
 30
18.20
 42
-0.023968
  0
VERTEX
  8
BORDER_D0_T132.1_RK1_A0_W0_EM1
 10
1738.30
 20
126.00
 30
18.20
 42
-0.029940
  0
VERTEX
  8
BORDER_D0_T132.1_RK1_A0_W0_EM1
 10
1768.62
 20
113.96
 30
18.20
 42
-0.039878
  0
VERTEX
  8
BORDER_D0_T132.1_RK1_A0_W0_EM1
 10
1793.21
 20
100.00
 30
18.20
  0
SEQEND
  8
BORDER_D0_T132.1_RK1_A0_W0_EM1
  0
POLYLINE
  8
BORDER_D0_T132.1_RK1_A0_W0_EM1
 70
1
 66
1
  0
VERTEX
  8
BORDER_D0_T132.1_RK1_A0_W0_EM1
 10
2508.81
 20
1154.74
 30
18.20
 42
-0.106580
  0
VERTEX
  8
BORDER_D0_T132.1_RK1_A0_W0_EM1
 10
2491.84
 20
1158.47
 30
18.20
 42
-0.081333
  0
VERTEX
  8
BORDER_D0_T132.1_RK1_A0_W0_EM1
 10
2475.38
 20
1169.57
 30
18.20
 42
-0.056346
  0
VERTEX
  8
BORDER_D0_T132.1_RK1_A0_W0_EM1
 10
2459.94
 20
1187.69
 30
18.20
 42
-0.039878
  0
VERTEX
  8
BORDER_D0_T132.1_RK1_A0_W0_EM1
 10
2445.98
 20
1212.28
 30
18.20
 42
-0.029940
  0
VERTEX
  8
BORDER_D0_T132.1_RK1_A0_W0_EM1
 10
2433.94
 20
1242.59
 30
18.20
 42
-0.023968
  0
VERTEX
  8
BORDER_D0_T132.1_RK1_A0_W0_EM1
 10
2424.16
 20
1277.71
 30
18.20
 42
-0.020393
  0
VERTEX
  8
BORDER_D0_T132.1_RK1_A0_W0_EM1
 10
2416.96
 20
1316.56
 30
18.20
 42
-0.018360
  0
VERTEX
  8
BORDER_D0_T132.1_RK1_A0_W0_EM1
 10
2412.55
 20
1357.97
 30
18.20
 42
-0.017435
  0
VERTEX
  8
BORDER_D0_T132.1_RK1_A0_W0_EM1
 10
2411.07
 20
1400.68
 30
18.20
 42
-0.017435
  0
VERTEX
  8
BORDER_D0_T132.1_RK1_A0_W0_EM1
 10
2412.55
 20
1443.39
 30
18.20
 42
-0.018360
  0
VERTEX
  8
BORDER_D0_T132.1_RK1_A0_W0_EM1
 10
2416.96
 20
1484.79
 30
18.20
 42
-0.020393
  0
VERTEX
  8
BORDER_D0_T132.1_RK1_A0_W0_EM1
 10
2424.16
 20
1523.65
 30
18.20
 42
-0.023968
  0
VERTEX
  8
BORDER_D0_T132.1_RK1_A0_W0_EM1
 10
2433.94
 20
1558.77
 30
18.20
 42
-0.029940
  0
VERTEX
  8
BORDER_D0_T132.1_RK1_A0_W0_EM1
 10
2445.98
 20
1589.08
 30
18.20
 42
-0.039878
  0
VERTEX
  8
BORDER_D0_T132.1_RK1_A0_W0_EM1
 10
2459.94
 20
1613.67
 30
18.20
 42
-0.056346
  0
VERTEX
  8
BORDER_D0_T132.1_RK1_A0_W0_EM1
 10
2475.38
 20
1631.79
 30
18.20
 42
-0.081333
  0
VERTEX
  8
BORDER_D0_T132.1_RK1_A0_W0_EM1
 10
2491.84
 20
1642.88
 30
18.20
 42
-0.106580
  0
VERTEX
  8
BORDER_D0_T132.1_RK1_A0_W0_EM1
 10
2508.81
 20
1646.62
 30
18.20
  0
VERTEX
  8
BORDER_D0_T132.1_RK1_A0_W0_EM1
 10
2508.81
 20
1154.74
 30
18.20
  0
SEQEND
  8
BORDER_D0_T132.1_RK1_A0_W0_EM1
  0
POLYLINE
  8
BORDER_D0_T132.1_RK1_A0_W0_EM1
 70
1
 66
1
  0
VERTEX
  8
BORDER_D0_T132.1_RK1_A0_W0_EM1
 10
999.86
 20
94.00
 30
18.20
 42
-0.029940
  0
VERTEX
  8
BORDER_D0_T132.1_RK1_A0_W0_EM1
 10
969.55
 20
106.04
 30
18.20
 42
-0.039878
  0
VERTEX
  8
BORDER_D0_T132.1_RK1_A0_W0_EM1
 10
944.96
 20
120.00
 30
18.20
 42
-0.056346
  0
VERTEX
  8
BORDER_D0_T132.1_RK1_A0_W0_EM1
 10
926.84
 20
135.44
 30
18.20
 42
-0.081333
  0
VERTEX
  8
BORDER_D0_T132.1_RK1_A0_W0_EM1
 10
915.75
 20
151.90
 30
18.20
 42
-0.106579
  0
VERTEX
  8
BORDER_D0_T132.1_RK1_A0_W0_EM1
 10
912.01
 20
168.87
 30
18.20
  0
VERTEX
  8
BORDER_D0_T132.1_RK1_A0_W0_EM1
 10
1403.89
 20
168.87
 30
18.20
 42
-0.106579
  0
VERTEX
  8
BORDER_D0_T132.1_RK1_A0_W0_EM1
 10
1400.16
 20
151.90
 30
18.20
 42
-0.081333
  0
VERTEX
  8
BORDER_D0_T132.1_RK1_A0_W0_EM1
 10
1389.06
 20
135.44
 30
18.20
 42
-0.056346
  0
VERTEX
  8
BORDER_D0_T132.1_RK1_A0_W0_EM1
 10
1370.94
 20
120.00
 30
18.20
 42
-0.039878
  0
VERTEX
  8
BORDER_D0_T132.1_RK1_A0_W0_EM1
 10
1346.35
 20
106.04
 30
18.20
 42
-0.029940
  0
VERTEX
  8
BORDER_D0_T132.1_RK1_A0_W0_EM1
 10
1316.04
 20
94.00
 30
18.20
 42
-0.023968
  0
VERTEX
  8
BORDER_D0_T132.1_RK1_A0_W0_EM1
 10
1280.92
 20
84.22
 30
18.20
 42
-0.020393
  0
VERTEX
  8
BORDER_D0_T132.1_RK1_A0_W0_EM1
 10
1242.07
 20
77.02
 30
18.20
 42
-0.018360
  0
VERTEX
  8
BORDER_D0_T132.1_RK1_A0_W0_EM1
 10
1200.66
 20
72.61
 30
18.20
 42
-0.017435
  0
VERTEX
  8
BORDER_D0_T132.1_RK1_A0_W0_EM1
 10
1157.95
 20
71.13
 30
18.20
 42
-0.017435
  0
VERTEX
  8
BORDER_D0_T132.1_RK1_A0_W0_EM1
 10
1115.24
 20
72.61
 30
18.20
 42
-0.018360
  0
VERTEX
  8
BORDER_D0_T132.1_RK1_A0_W0_EM1
 10
1073.84
 20
77.02
 30
18.20
 42
-0.020393
  0
VERTEX
  8
BORDER_D0_T132.1_RK1_A0_W0_EM1
 10
1034.98
 20
84.22
 30
18.20
 42
-0.023968
  0
VERTEX
  8
BORDER_D0_T132.1_RK1_A0_W0_EM1
 10
999.86
 20
94.00
 30
18.20
  0
SEQEND
  8
BORDER_D0_T132.1_RK1_A0_W0_EM1
  0
POLYLINE
  8
BORDER_D0_T132.1_RK1_A0_W0_EM1
 70
1
 66
1
  0
VERTEX
  8
BORDER_D0_T132.1_RK1_A0_W0_EM1
 10
1174.62
 20
1920.78
 30
18.20
 42
-0.106580
  0
VERTEX
  8
BORDER_D0_T132.1_RK1_A0_W0_EM1
 10
1170.89
 20
1903.81
 30
18.20
 42
-0.081332
  0
VERTEX
  8
BORDER_D0_T132.1_RK1_A0_W0_EM1
 10
1159.79
 20
1887.35
 30
18.20
 42
-0.056346
  0
VERTEX
  8
BORDER_D0_T132.1_RK1_A0_W0_EM1
 10
1141.67
 20
1871.91
 30
18.20
 42
-0.039878
  0
VERTEX
  8
BORDER_D0_T132.1_RK1_A0_W0_EM1
 10
1117.08
 20
1857.95
 30
18.20
 42
-0.029940
  0
VERTEX
  8
BORDER_D0_T132.1_RK1_A0_W0_EM1
 10
1086.77
 20
1845.91
 30
18.20
 42
-0.023968
  0
VERTEX
  8
BORDER_D0_T132.1_RK1_A0_W0_EM1
 10
1051.65
 20
1836.14
 30
18.20
 42
-0.020393
  0
VERTEX
  8
BORDER_D0_T132.1_RK1_A0_W0_EM1
 10
1012.80
 20
1828.94
 30
18.20
 42
-0.018360
  0
VERTEX
  8
BORDER_D0_T132.1_RK1_A0_W0_EM1
 10
971.39
 20
1824.53
 30
18.20
 42
-0.017435
  0
VERTEX
  8
BORDER_D0_T132.1_RK1_A0_W0_EM1
 10
928.68
 20
1823.04
 30
18.20
 42
-0.017435
  0
VERTEX
  8
BORDER_D0_T132.1_RK1_A0_W0_EM1
 10
885.98
 20
1824.53
 30
18.20
 42
-0.018360
  0
VERTEX
  8
BORDER_D0_T132.1_RK1_A0_W0_EM1
 10
844.57
 20
1828.94
 30
18.20
 42
-0.020393
  0
VERTEX
  8
BORDER_D0_T132.1_RK1_A0_W0_EM1
 10
805.71
 20
1836.14
 30
18.20
 42
-0.023968
  0
VERTEX
  8
BORDER_D0_T132.1_RK1_A0_W0_EM1
 10
770.60
 20
1845.91
 30
18.20
 42
-0.029940
  0
VERTEX
  8
BORDER_D0_T132.1_RK1_A0_W0_EM1
 10
740.28
 20
1857.95
 30
18.20
 42
-0.039878
  0
VERTEX
  8
BORDER_D0_T132.1_RK1_A0_W0_EM1
 10
715.69
 20
1871.91
 30
18.20
 42
-0.056346
  0
VERTEX
  8
BORDER_D0_T132.1_RK1_A0_W0_EM1
 10
697.58
 20
1887.35
 30
18.20
 42
-0.081333
  0
VERTEX
  8
BORDER_D0_T132.1_RK1_A0_W0_EM1
 10
686.48
 20
1903.81
 30
18.20
 42
-0.106580
  0
VERTEX
  8
BORDER_D0_T132.1_RK1_A0_W0_EM1
 10
682.74
 20
1920.78
 30
18.20
 42
-0.106580
  0
VERTEX
  8
BORDER_D0_T132.1_RK1_A0_W0_EM1
 10
686.48
 20
1937.75
 30
18.20
 42
-0.081333
  0
VERTEX
  8
BORDER_D0_T132.1_RK1_A0_W0_EM1
 10
697.58
 20
1954.21
 30
18.20
 42
-0.056346
  0
VERTEX
  8
BORDER_D0_T132.1_RK1_A0_W0_EM1
 10
715.69
 20
1969.65
 30
18.20
 42
-0.039878
  0
VERTEX
  8
BORDER_D0_T132.1_RK1_A0_W0_EM1
 10
740.28
 20
1983.61
 30
18.20
 42
-0.029940
  0
VERTEX
  8
BORDER_D0_T132.1_RK1_A0_W0_EM1
 10
770.60
 20
1995.65
 30
18.20
 42
-0.023968
  0
VERTEX
  8
BORDER_D0_T132.1_RK1_A0_W0_EM1
 10
805.71
 20
2005.43
 30
18.20
 42
-0.020393
  0
VERTEX
  8
BORDER_D0_T132.1_RK1_A0_W0_EM1
 10
844.57
 20
2012.63
 30
18.20
 42
-0.018360
  0
VERTEX
  8
BORDER_D0_T132.1_RK1_A0_W0_EM1
 10
885.98
 20
2017.04
 30
18.20
 42
-0.017435
  0
VERTEX
  8
BORDER_D0_T132.1_RK1_A0_W0_EM1
 10
928.68
 20
2018.52
 30
18.20
 42
-0.017435
  0
VERTEX
  8
BORDER_D0_T132.1_RK1_A0_W0_EM1
 10
971.39
 20
2017.04
 30
18.20
 42
-0.018360
  0
VERTEX
  8
BORDER_D0_T132.1_RK1_A0_W0_EM1
 10
1012.80
 20
2012.63
 30
18.20
 42
-0.020393
  0
VERTEX
  8
BORDER_D0_T132.1_RK1_A0_W0_EM1
 10
1051.65
 20
2005.43
 30
18.20
 42
-0.023968
  0
VERTEX
  8
BORDER_D0_T132.1_RK1_A0_W0_EM1
 10
1086.77
 20
1995.65
 30
18.20
 42
-0.029940
  0
VERTEX
  8
BORDER_D0_T132.1_RK1_A0_W0_EM1
 10
1117.08
 20
1983.61
 30
18.20
 42
-0.039878
  0
VERTEX
  8
BORDER_D0_T132.1_RK1_A0_W0_EM1
 10
1141.67
 20
1969.65
 30
18.20
 42
-0.056347
  0
VERTEX
  8
BORDER_D0_T132.1_RK1_A0_W0_EM1
 10
1159.79
 20
1954.21
 30
18.20
 42
-0.081332
  0
VERTEX
  8
BORDER_D0_T132.1_RK1_A0_W0_EM1
 10
1170.89
 20
1937.75
 30
18.20
 42
-0.106580
  0
VERTEX
  8
BORDER_D0_T132.1_RK1_A0_W0_EM1
 10
1174.62
 20
1920.78
 30
18.20
  0
SEQEND
  8
BORDER_D0_T132.1_RK1_A0_W0_EM1
  0
POLYLINE
  8
BORDER_D0_T132.1_RK1_A0_W0_EM1
 70
1
 66
1
  0
VERTEX
  8
BORDER_D0_T132.1_RK1_A0_W0_EM1
 10
2408.18
 20
1562.95
 30
18.20
 42
-0.081333
  0
VERTEX
  8
BORDER_D0_T132.1_RK1_A0_W0_EM1
 10
2391.73
 20
1551.86
 30
18.20
 42
-0.106580
  0
VERTEX
  8
BORDER_D0_T132.1_RK1_A0_W0_EM1
 10
2374.75
 20
1548.12
 30
18.20
 42
-0.106578
  0
VERTEX
  8
BORDER_D0_T132.1_RK1_A0_W0_EM1
 10
2357.78
 20
1551.86
 30
18.20
 42
-0.081333
  0
VERTEX
  8
BORDER_D0_T132.1_RK1_A0_W0_EM1
 10
2341.33
 20
1562.95
 30
18.20
 42
-0.056346
  0
VERTEX
  8
BORDER_D0_T132.1_RK1_A0_W0_EM1
 10
2325.89
 20
1581.07
 30
18.20
 42
-0.039879
  0
VERTEX
  8
BORDER_D0_T132.1_RK1_A0_W0_EM1
 10
2311.93
 20
1605.66
 30
18.20
 42
-0.029940
  0
VERTEX
  8
BORDER_D0_T132.1_RK1_A0_W0_EM1
 10
2299.88
 20
1635.97
 30
18.20
 42
-0.023968
  0
VERTEX
  8
BORDER_D0_T132.1_RK1_A0_W0_EM1
 10
2290.11
 20
1671.09
 30
18.20
 42
-0.020393
  0
VERTEX
  8
BORDER_D0_T132.1_RK1_A0_W0_EM1
 10
2282.91
 20
1709.94
 30
18.20
 42
-0.018360
  0
VERTEX
  8
BORDER_D0_T132.1_RK1_A0_W0_EM1
 10
2278.50
 20
1751.35
 30
18.20
 42
-0.017435
  0
VERTEX
  8
BORDER_D0_T132.1_RK1_A0_W0_EM1
 10
2277.01
 20
1794.06
 30
18.20
 42
-0.017435
  0
VERTEX
  8
BORDER_D0_T132.1_RK1_A0_W0_EM1
 10
2278.50
 20
1836.77
 30
18.20
 42
-0.018360
  0
VERTEX
  8
BORDER_D0_T132.1_RK1_A0_W0_EM1
 10
2282.91
 20
1878.18
 30
18.20
 42
-0.020393
  0
VERTEX
  8
BORDER_D0_T132.1_RK1_A0_W0_EM1
 10
2290.11
 20
1917.03
 30
18.20
 42
-0.023968
  0
VERTEX
  8
BORDER_D0_T132.1_RK1_A0_W0_EM1
 10
2299.88
 20
1952.15
 30
18.20
 42
-0.029940
  0
VERTEX
  8
BORDER_D0_T132.1_RK1_A0_W0_EM1
 10
2311.93
 20
1982.46
 30
18.20
 42
-0.039878
  0
VERTEX
  8
BORDER_D0_T132.1_RK1_A0_W0_EM1
 10
2325.89
 20
2007.05
 30
18.20
 42
-0.056346
  0
VERTEX
  8
BORDER_D0_T132.1_RK1_A0_W0_EM1
 10
2341.33
 20
2025.17
 30
18.20
 42
-0.081333
  0
VERTEX
  8
BORDER_D0_T132.1_RK1_A0_W0_EM1
 10
2357.78
 20
2036.26
 30
18.20
 42
-0.106579
  0
VERTEX
  8
BORDER_D0_T132.1_RK1_A0_W0_EM1
 10
2374.75
 20
2040.00
 30
18.20
 42
-0.106580
  0
VERTEX
  8
BORDER_D0_T132.1_RK1_A0_W0_EM1
 10
2391.73
 20
2036.26
 30
18.20
 42
-0.081333
  0
VERTEX
  8
BORDER_D0_T132.1_RK1_A0_W0_EM1
 10
2408.18
 20
2025.17
 30
18.20
 42
-0.056346
  0
VERTEX
  8
BORDER_D0_T132.1_RK1_A0_W0_EM1
 10
2423.63
 20
2007.05
 30
18.20
 42
-0.039878
  0
VERTEX
  8
BORDER_D0_T132.1_RK1_A0_W0_EM1
 10
2437.58
 20
1982.46
 30
18.20
 42
-0.029940
  0
VERTEX
  8
BORDER_D0_T132.1_RK1_A0_W0_EM1
 10
2449.63
 20
1952.15
 30
18.20
 42
-0.023968
  0
VERTEX
  8
BORDER_D0_T132.1_RK1_A0_W0_EM1
 10
2459.40
 20
1917.03
 30
18.20
 42
-0.020393
  0
VERTEX
  8
BORDER_D0_T132.1_RK1_A0_W0_EM1
 10
2466.60
 20
1878.18
 30
18.20
 42
-0.018360
  0
VERTEX
  8
BORDER_D0_T132.1_RK1_A0_W0_EM1
 10
2471.01
 20
1836.77
 30
18.20
 42
-0.017435
  0
VERTEX
  8
BORDER_D0_T132.1_RK1_A0_W0_EM1
 10
2472.50
 20
1794.06
 30
18.20
 42
-0.017435
  0
VERTEX
  8
BORDER_D0_T132.1_RK1_A0_W0_EM1
 10
2471.01
 20
1751.35
 30
18.20
 42
-0.018360
  0
VERTEX
  8
BORDER_D0_T132.1_RK1_A0_W0_EM1
 10
2466.60
 20
1709.94
 30
18.20
 42
-0.020393
  0
VERTEX
  8
BORDER_D0_T132.1_RK1_A0_W0_EM1
 10
2459.40
 20
1671.09
 30
18.20
 42
-0.023968
  0
VERTEX
  8
BORDER_D0_T132.1_RK1_A0_W0_EM1
 10
2449.63
 20
1635.97
 30
18.20
 42
-0.029939
  0
VERTEX
  8
BORDER_D0_T132.1_RK1_A0_W0_EM1
 10
2437.58
 20
1605.66
 30
18.20
 42
-0.039879
  0
VERTEX
  8
BORDER_D0_T132.1_RK1_A0_W0_EM1
 10
2423.63
 20
1581.07
 30
18.20
 42
-0.056346
  0
VERTEX
  8
BORDER_D0_T132.1_RK1_A0_W0_EM1
 10
2408.18
 20
1562.95
 30
18.20
  0
SEQEND
  8
BORDER_D0_T132.1_RK1_A0_W0_EM1
  0
POLYLINE
  8
BORDER_D0_T132.1_RK1_A0_W0_EM1
 70
0
 66
1
  0
VERTEX
  8
BORDER_D0_T132.1_RK1_A0_W0_EM1
 10
2608.15
 20
1251.54
 30
18.20
  0
VERTEX
  8
BORDER_D0_T132.1_RK1_A0_W0_EM1
 10
2692.80
 20
1202.67
 30
18.20
  0
VERTEX
  8
BORDER_D0_T132.1_RK1_A0_W0_EM1
 10
2692.80
 20
1104.93
 30
18.20
  0
VERTEX
  8
BORDER_D0_T132.1_RK1_A0_W0_EM1
 10
2650.48
 20
790.54
 30
18.20
  0
VERTEX
  8
BORDER_D0_T132.1_RK1_A0_W0_EM1
 10
2654.57
 20
777.96
 30
18.20
  0
VERTEX
  8
BORDER_D0_T132.1_RK1_A0_W0_EM1
 10
2666.11
 20
742.45
 30
18.20
  0
VERTEX
  8
BORDER_D0_T132.1_RK1_A0_W0_EM1
 10
2703.44
 20
742.45
 30
18.20
  0
VERTEX
  8
BORDER_D0_T132.1_RK1_A0_W0_EM1
 10
2691.91
 20
706.94
 30
18.20
  0
VERTEX
  8
BORDER_D0_T132.1_RK1_A0_W0_EM1
 10
2732.81
 20
677.22
 30
18.20
  0
VERTEX
  8
BORDER_D0_T132.1_RK1_A0_W0_EM1
 10
2762.48
 20
276.16
 30
18.20
  0
VERTEX
  8
BORDER_D0_T132.1_RK1_A0_W0_EM1
 10
2726.80
 20
250.24
 30
18.20
  0
VERTEX
  8
BORDER_D0_T132.1_RK1_A0_W0_EM1
 10
2696.60
 20
228.29
 30
18.20
  0
VERTEX
  8
BORDER_D0_T132.1_RK1_A0_W0_EM1
 10
2708.14
 20
192.79
 30
18.20
  0
VERTEX
  8
BORDER_D0_T132.1_RK1_A0_W0_EM1
 10
2531.25
 20
31.07
 30
18.20
  0
VERTEX
  8
BORDER_D0_T132.1_RK1_A0_W0_EM1
 10
2314.20
 20
226.99
 30
18.20
  0
VERTEX
  8
BORDER_D0_T132.1_RK1_A0_W0_EM1
 10
2097.15
 20
31.07
 30
18.20
  0
VERTEX
  8
BORDER_D0_T132.1_RK1_A0_W0_EM1
 10
2158.30
 20
317.00
 30
18.20
  0
VERTEX
  8
BORDER_D0_T132.1_RK1_A0_W0_EM1
 10
1880.10
 20
407.01
 30
18.20
  0
VERTEX
  8
BORDER_D0_T132.1_RK1_A0_W0_EM1
 10
2158.30
 20
497.02
 30
18.20
  0
VERTEX
  8
BORDER_D0_T132.1_RK1_A0_W0_EM1
 10
2097.15
 20
782.95
 30
18.20
  0
VERTEX
  8
BORDER_D0_T132.1_RK1_A0_W0_EM1
 10
2314.20
 20
587.03
 30
18.20
  0
VERTEX
  8
BORDER_D0_T132.1_RK1_A0_W0_EM1
 10
2531.25
 20
782.95
 30
18.20
  0
VERTEX
  8
BORDER_D0_T132.1_RK1_A0_W0_EM1
 10
2470.09
 20
497.02
 30
18.20
  0
VERTEX
  8
BORDER_D0_T132.1_RK1_A0_W0_EM1
 10
2748.30
 20
407.01
 30
18.20
  0
VERTEX
  8
BORDER_D0_T132.1_RK1_A0_W0_EM1
 10
2470.09
 20
317.00
 30
18.20
  0
VERTEX
  8
BORDER_D0_T132.1_RK1_A0_W0_EM1
 10
2531.25
 20
31.07
 30
18.20
  0
SEQEND
  8
BORDER_D0_T132.1_RK1_A0_W0_EM1
  0
POLYLINE
  8
BORDER_D0_T132.1_RK1_A0_W0_EM1
 70
0
 66
1
  0
VERTEX
  8
BORDER_D0_T132.1_RK1_A0_W0_EM1
 10
2097.48
 20
200.48
 30
18.20
  0
VERTEX
  8
BORDER_D0_T132.1_RK1_A0_W0_EM1
 10
2012.84
 20
151.61
 30
18.20
  0
VERTEX
  8
BORDER_D0_T132.1_RK1_A0_W0_EM1
 10
1928.19
 20
200.48
 30
18.20
  0
VERTEX
  8
BORDER_D0_T132.1_RK1_A0_W0_EM1
 10
1928.19
 20
311.45
 30
18.20
  0
VERTEX
  8
BORDER_D0_T132.1_RK1_A0_W0_EM1
 10
1913.49
 20
311.45
 30
18.20
  0
VERTEX
  8
BORDER_D0_T132.1_RK1_A0_W0_EM1
 10
1913.44
 20
205.47
 30
18.20
  0
VERTEX
  8
BORDER_D0_T132.1_RK1_A0_W0_EM1
 10
1790.47
 20
172.89
 30
18.20
  0
VERTEX
  8
BORDER_D0_T132.1_RK1_A0_W0_EM1
 10
1421.56
 20
221.76
 30
18.20
  0
SEQEND
  8
BORDER_D0_T132.1_RK1_A0_W0_EM1
  0
POLYLINE
  8
BORDER_D0_T132.1_RK1_A0_W0_EM1
 70
0
 66
1
  0
VERTEX
  8
BORDER_D0_T132.1_RK1_A0_W0_EM1
 10
979.60
 20
226.13
 30
18.20
  0
VERTEX
  8
BORDER_D0_T132.1_RK1_A0_W0_EM1
 10
894.95
 20
177.26
 30
18.20
  0
VERTEX
  8
BORDER_D0_T132.1_RK1_A0_W0_EM1
 10
810.31
 20
226.13
 30
18.20
  0
VERTEX
  8
BORDER_D0_T132.1_RK1_A0_W0_EM1
 10
810.31
 20
337.10
 30
18.20
  0
VERTEX
  8
BORDER_D0_T132.1_RK1_A0_W0_EM1
 10
754.10
 20
356.12
 30
18.20
  0
VERTEX
  8
BORDER_D0_T132.1_RK1_A0_W0_EM1
 10
718.43
 20
382.04
 30
18.20
  0
VERTEX
  8
BORDER_D0_T132.1_RK1_A0_W0_EM1
 10
688.22
 20
403.99
 30
18.20
  0
VERTEX
  8
BORDER_D0_T132.1_RK1_A0_W0_EM1
 10
658.02
 20
382.04
 30
18.20
  0
VERTEX
  8
BORDER_D0_T132.1_RK1_A0_W0_EM1
 10
646.48
 20
417.55
 30
18.20
  0
VERTEX
  8
BORDER_D0_T132.1_RK1_A0_W0_EM1
 10
609.15
 20
417.55
 30
18.20
  0
VERTEX
  8
BORDER_D0_T132.1_RK1_A0_W0_EM1
 10
620.69
 20
453.06
 30
18.20
  0
VERTEX
  8
BORDER_D0_T132.1_RK1_A0_W0_EM1
 10
590.48
 20
475.00
 30
18.20
  0
VERTEX
  8
BORDER_D0_T132.1_RK1_A0_W0_EM1
 10
620.69
 20
496.94
 30
18.20
  0
VERTEX
  8
BORDER_D0_T132.1_RK1_A0_W0_EM1
 10
609.15
 20
532.45
 30
18.20
  0
VERTEX
  8
BORDER_D0_T132.1_RK1_A0_W0_EM1
 10
646.48
 20
532.45
 30
18.20
  0
VERTEX
  8
BORDER_D0_T132.1_RK1_A0_W0_EM1
 10
658.02
 20
567.96
 30
18.20
  0
VERTEX
  8
BORDER_D0_T132.1_RK1_A0_W0_EM1
 10
688.22
 20
546.01
 30
18.20
  0
VERTEX
  8
BORDER_D0_T132.1_RK1_A0_W0_EM1
 10
718.43
 20
567.96
 30
18.20
  0
VERTEX
  8
BORDER_D0_T132.1_RK1_A0_W0_EM1
 10
729.96
 20
532.45
 30
18.20
  0
VERTEX
  8
BORDER_D0_T132.1_RK1_A0_W0_EM1
 10
767.30
 20
532.45
 30
18.20
  0
VERTEX
  8
BORDER_D0_T132.1_RK1_A0_W0_EM1
 10
755.76
 20
496.94
 30
18.20
  0
VERTEX
  8
BORDER_D0_T132.1_RK1_A0_W0_EM1
 10
785.96
 20
475.00
 30
18.20
  0
SEQEND
  8
BORDER_D0_T132.1_RK1_A0_W0_EM1
  0
POLYLINE
  8
BORDER_D0_T132.1_RK1_A0_W0_EM1
 70
0
 66
1
  0
VERTEX
  8
BORDER_D0_T132.1_RK1_A0_W0_EM1
 10
521.11
 20
542.45
 30
18.20
  0
VERTEX
  8
BORDER_D0_T132.1_RK1_A0_W0_EM1
 10
509.58
 20
506.94
 30
18.20
  0
VERTEX
  8
BORDER_D0_T132.1_RK1_A0_W0_EM1
 10
539.78
 20
485.00
 30
18.20
  0
VERTEX
  8
BORDER_D0_T132.1_RK1_A0_W0_EM1
 10
509.58
 20
463.06
 30
18.20
  0
VERTEX
  8
BORDER_D0_T132.1_RK1_A0_W0_EM1
 10
521.11
 20
427.55
 30
18.20
  0
VERTEX
  8
BORDER_D0_T132.1_RK1_A0_W0_EM1
 10
483.78
 20
427.55
 30
18.20
  0
VERTEX
  8
BORDER_D0_T132.1_RK1_A0_W0_EM1
 10
472.24
 20
392.04
 30
18.20
  0
VERTEX
  8
BORDER_D0_T132.1_RK1_A0_W0_EM1
 10
390.69
 20
338.62
 30
18.20
  0
VERTEX
  8
BORDER_D0_T132.1_RK1_A0_W0_EM1
 10
386.60
 20
326.04
 30
18.20
  0
VERTEX
  8
BORDER_D0_T132.1_RK1_A0_W0_EM1
 10
375.07
 20
290.53
 30
18.20
  0
VERTEX
  8
BORDER_D0_T132.1_RK1_A0_W0_EM1
 10
405.27
 20
268.58
 30
18.20
  0
VERTEX
  8
BORDER_D0_T132.1_RK1_A0_W0_EM1
 10
375.07
 20
246.64
 30
18.20
  0
VERTEX
  8
BORDER_D0_T132.1_RK1_A0_W0_EM1
 10
386.60
 20
211.13
 30
18.20
  0
VERTEX
  8
BORDER_D0_T132.1_RK1_A0_W0_EM1
 10
349.27
 20
211.13
 30
18.20
  0
VERTEX
  8
BORDER_D0_T132.1_RK1_A0_W0_EM1
 10
333.65
 20
163.05
 30
18.20
  0
VERTEX
  8
BORDER_D0_T132.1_RK1_A0_W0_EM1
 10
347.63
 20
158.50
 30
18.20
  0
VERTEX
  8
BORDER_D0_T132.1_RK1_A0_W0_EM1
 10
386.56
 20
169.36
 30
18.20
  0
VERTEX
  8
BORDER_D0_T132.1_RK1_A0_W0_EM1
 10
394.33
 20
180.06
 30
18.20
  0
VERTEX
  8
BORDER_D0_T132.1_RK1_A0_W0_EM1
 10
416.28
 20
210.26
 30
18.20
  0
VERTEX
  8
BORDER_D0_T132.1_RK1_A0_W0_EM1
 10
394.33
 20
240.47
 30
18.20
  0
VERTEX
  8
BORDER_D0_T132.1_RK1_A0_W0_EM1
 10
429.84
 20
252.00
 30
18.20
  0
VERTEX
  8
BORDER_D0_T132.1_RK1_A0_W0_EM1
 10
429.84
 20
289.34
 30
18.20
  0
VERTEX
  8
BORDER_D0_T132.1_RK1_A0_W0_EM1
 10
465.34
 20
277.80
 30
18.20
  0
VERTEX
  8
BORDER_D0_T132.1_RK1_A0_W0_EM1
 10
487.29
 20
308.00
 30
18.20
  0
VERTEX
  8
BORDER_D0_T132.1_RK1_A0_W0_EM1
 10
509.23
 20
277.80
 30
18.20
  0
VERTEX
  8
BORDER_D0_T132.1_RK1_A0_W0_EM1
 10
544.74
 20
289.34
 30
18.20
  0
VERTEX
  8
BORDER_D0_T132.1_RK1_A0_W0_EM1
 10
544.74
 20
252.00
 30
18.20
  0
VERTEX
  8
BORDER_D0_T132.1_RK1_A0_W0_EM1
 10
580.24
 20
240.47
 30
18.20
  0
VERTEX
  8
BORDER_D0_T132.1_RK1_A0_W0_EM1
 10
582.05
 20
217.90
 30
18.20
  0
VERTEX
  8
BORDER_D0_T132.1_RK1_A0_W0_EM1
 10
596.75
 20
217.90
 30
18.20
  0
VERTEX
  8
BORDER_D0_T132.1_RK1_A0_W0_EM1
 10
596.75
 20
328.87
 30
18.20
  0
VERTEX
  8
BORDER_D0_T132.1_RK1_A0_W0_EM1
 10
681.40
 20
377.74
 30
18.20
  0
VERTEX
  8
BORDER_D0_T132.1_RK1_A0_W0_EM1
 10
777.50
 20
322.26
 30
18.20
  0
VERTEX
  8
BORDER_D0_T132.1_RK1_A0_W0_EM1
 10
784.85
 20
334.99
 30
18.20
  0
VERTEX
  8
BORDER_D0_T132.1_RK1_A0_W0_EM1
 10
785.05
 20
346.74
 30
18.20
  0
VERTEX
  8
BORDER_D0_T132.1_RK1_A0_W0_EM1
 10
942.79
 20
539.04
 30
18.20
  0
VERTEX
  8
BORDER_D0_T132.1_RK1_A0_W0_EM1
 10
702.15
 20
601.90
 30
18.20
  0
VERTEX
  8
BORDER_D0_T132.1_RK1_A0_W0_EM1
 10
942.79
 20
664.76
 30
18.20
  0
VERTEX
  8
BORDER_D0_T132.1_RK1_A0_W0_EM1
 10
785.05
 20
857.06
 30
18.20
  0
VERTEX
  8
BORDER_D0_T132.1_RK1_A0_W0_EM1
 10
1016.68
 20
766.47
 30
18.20
  0
VERTEX
  8
BORDER_D0_T132.1_RK1_A0_W0_EM1
 10
1002.10
 20
1014.76
 30
18.20
  0
VERTEX
  8
BORDER_D0_T132.1_RK1_A0_W0_EM1
 10
1136.24
 20
805.32
 30
18.20
  0
VERTEX
  8
BORDER_D0_T132.1_RK1_A0_W0_EM1
 10
1270.39
 20
1014.76
 30
18.20
  0
VERTEX
  8
BORDER_D0_T132.1_RK1_A0_W0_EM1
 10
1255.81
 20
766.47
 30
18.20
  0
VERTEX
  8
BORDER_D0_T132.1_RK1_A0_W0_EM1
 10
1487.44
 20
857.06
 30
18.20
  0
VERTEX
  8
BORDER_D0_T132.1_RK1_A0_W0_EM1
 10
1329.70
 20
664.76
 30
18.20
  0
VERTEX
  8
BORDER_D0_T132.1_RK1_A0_W0_EM1
 10
1570.34
 20
601.90
 30
18.20
  0
VERTEX
  8
BORDER_D0_T132.1_RK1_A0_W0_EM1
 10
1329.70
 20
539.04
 30
18.20
  0
VERTEX
  8
BORDER_D0_T132.1_RK1_A0_W0_EM1
 10
1495.83
 20
336.52
 30
18.20
  0
VERTEX
  8
BORDER_D0_T132.1_RK1_A0_W0_EM1
 10
1560.67
 20
372.23
 30
18.20
  0
VERTEX
  8
BORDER_D0_T132.1_RK1_A0_W0_EM1
 10
1569.89
 20
415.36
 30
18.20
  0
VERTEX
  8
BORDER_D0_T132.1_RK1_A0_W0_EM1
 10
1583.66
 20
479.73
 30
18.20
  0
VERTEX
  8
BORDER_D0_T132.1_RK1_A0_W0_EM1
 10
1521.02
 20
500.00
 30
18.20
  0
VERTEX
  8
BORDER_D0_T132.1_RK1_A0_W0_EM1
 10
1583.66
 20
520.27
 30
18.20
  0
VERTEX
  8
BORDER_D0_T132.1_RK1_A0_W0_EM1
 10
1569.89
 20
584.65
 30
18.20
  0
VERTEX
  8
BORDER_D0_T132.1_RK1_A0_W0_EM1
 10
1618.76
 20
540.53
 30
18.20
  0
VERTEX
  8
BORDER_D0_T132.1_RK1_A0_W0_EM1
 10
1667.63
 20
584.65
 30
18.20
  0
VERTEX
  8
BORDER_D0_T132.1_RK1_A0_W0_EM1
 10
1653.86
 20
520.27
 30
18.20
  0
VERTEX
  8
BORDER_D0_T132.1_RK1_A0_W0_EM1
 10
1824.11
 20
465.18
 30
18.20
  0
VERTEX
  8
BORDER_D0_T132.1_RK1_A0_W0_EM1
 10
1871.59
 20
477.59
 30
18.20
  0
VERTEX
  8
BORDER_D0_T132.1_RK1_A0_W0_EM1
 10
1868.25
 20
490.39
 30
18.20
  0
VERTEX
  8
BORDER_D0_T132.1_RK1_A0_W0_EM1
 10
1805.39
 20
731.03
 30
18.20
  0
VERTEX
  8
BORDER_D0_T132.1_RK1_A0_W0_EM1
 10
1613.09
 20
573.29
 30
18.20
  0
VERTEX
  8
BORDER_D0_T132.1_RK1_A0_W0_EM1
 10
1703.68
 20
804.92
 30
18.20
  0
VERTEX
  8
BORDER_D0_T132.1_RK1_A0_W0_EM1
 10
1455.39
 20
790.34
 30
18.20
  0
VERTEX
  8
BORDER_D0_T132.1_RK1_A0_W0_EM1
 10
1664.83
 20
924.49
 30
18.20
  0
VERTEX
  8
BORDER_D0_T132.1_RK1_A0_W0_EM1
 10
1455.39
 20
1058.63
 30
18.20
  0
VERTEX
  8
BORDER_D0_T132.1_RK1_A0_W0_EM1
 10
1703.68
 20
1044.05
 30
18.20
  0
VERTEX
  8
BORDER_D0_T132.1_RK1_A0_W0_EM1
 10
1613.09
 20
1275.68
 30
18.20
  0
VERTEX
  8
BORDER_D0_T132.1_RK1_A0_W0_EM1
 10
1805.39
 20
1117.94
 30
18.20
  0
VERTEX
  8
BORDER_D0_T132.1_RK1_A0_W0_EM1
 10
1868.25
 20
1358.59
 30
18.20
  0
VERTEX
  8
BORDER_D0_T132.1_RK1_A0_W0_EM1
 10
1931.10
 20
1117.94
 30
18.20
  0
VERTEX
  8
BORDER_D0_T132.1_RK1_A0_W0_EM1
 10
2123.40
 20
1275.68
 30
18.20
  0
VERTEX
  8
BORDER_D0_T132.1_RK1_A0_W0_EM1
 10
2032.81
 20
1044.05
 30
18.20
  0
VERTEX
  8
BORDER_D0_T132.1_RK1_A0_W0_EM1
 10
2281.10
 20
1058.63
 30
18.20
  0
VERTEX
  8
BORDER_D0_T132.1_RK1_A0_W0_EM1
 10
2071.66
 20
924.49
 30
18.20
  0
VERTEX
  8
BORDER_D0_T132.1_RK1_A0_W0_EM1
 10
2281.10
 20
790.34
 30
18.20
  0
SEQEND
  8
BORDER_D0_T132.1_RK1_A0_W0_EM1
  0
POLYLINE
  8
BORDER_D0_T132.1_RK1_A0_W0_EM1
 70
0
 66
1
  0
VERTEX
  8
BORDER_D0_T132.1_RK1_A0_W0_EM1
 10
1600.68
 20
1863.19
 30
18.20
  0
VERTEX
  8
BORDER_D0_T132.1_RK1_A0_W0_EM1
 10
1507.72
 20
1930.72
 30
18.20
  0
VERTEX
  8
BORDER_D0_T132.1_RK1_A0_W0_EM1
 10
1543.22
 20
2040.00
 30
18.20
  0
VERTEX
  8
BORDER_D0_T132.1_RK1_A0_W0_EM1
 10
1671.35
 20
2040.00
 30
18.20
  0
VERTEX
  8
BORDER_D0_T132.1_RK1_A0_W0_EM1
 10
2017.08
 20
2053.11
 30
18.20
  0
VERTEX
  8
BORDER_D0_T132.1_RK1_A0_W0_EM1
 10
2017.08
 20
2038.41
 30
18.20
  0
VERTEX
  8
BORDER_D0_T132.1_RK1_A0_W0_EM1
 10
2145.22
 20
2038.41
 30
18.20
  0
VERTEX
  8
BORDER_D0_T132.1_RK1_A0_W0_EM1
 10
2180.72
 20
1929.13
 30
18.20
  0
VERTEX
  8
BORDER_D0_T132.1_RK1_A0_W0_EM1
 10
2087.76
 20
1861.59
 30
18.20
  0
SEQEND
  8
BORDER_D0_T132.1_RK1_A0_W0_EM1
  0
POLYLINE
  8
BORDER_D0_T132.1_RK1_A0_W0_EM1
 70
0
 66
1
  0
VERTEX
  8
BORDER_D0_T132.1_RK1_A0_W0_EM1
 10
2213.73
 20
1593.09
 30
18.20
  0
VERTEX
  8
BORDER_D0_T132.1_RK1_A0_W0_EM1
 10
2243.93
 20
1571.14
 30
18.20
  0
VERTEX
  8
BORDER_D0_T132.1_RK1_A0_W0_EM1
 10
2274.13
 20
1593.09
 30
18.20
  0
VERTEX
  8
BORDER_D0_T132.1_RK1_A0_W0_EM1
 10
2285.67
 20
1557.58
 30
18.20
  0
VERTEX
  8
BORDER_D0_T132.1_RK1_A0_W0_EM1
 10
2323.00
 20
1557.58
 30
18.20
  0
VERTEX
  8
BORDER_D0_T132.1_RK1_A0_W0_EM1
 10
2311.47
 20
1522.08
 30
18.20
  0
VERTEX
  8
BORDER_D0_T132.1_RK1_A0_W0_EM1
 10
2341.67
 20
1500.13
 30
18.20
  0
VERTEX
  8
BORDER_D0_T132.1_RK1_A0_W0_EM1
 10
2311.47
 20
1478.19
 30
18.20
  0
VERTEX
  8
BORDER_D0_T132.1_RK1_A0_W0_EM1
 10
2323.00
 20
1442.68
 30
18.20
  0
VERTEX
  8
BORDER_D0_T132.1_RK1_A0_W0_EM1
 10
2285.67
 20
1442.68
 30
18.20
  0
VERTEX
  8
BORDER_D0_T132.1_RK1_A0_W0_EM1
 10
2270.04
 20
1394.59
 30
18.20
  0
VERTEX
  8
BORDER_D0_T132.1_RK1_A0_W0_EM1
 10
2275.12
 20
1388.03
 30
18.20
  0
VERTEX
  8
BORDER_D0_T132.1_RK1_A0_W0_EM1
 10
2297.06
 20
1357.83
 30
18.20
  0
VERTEX
  8
BORDER_D0_T132.1_RK1_A0_W0_EM1
 10
2332.57
 20
1369.36
 30
18.20
  0
VERTEX
  8
BORDER_D0_T132.1_RK1_A0_W0_EM1
 10
2332.57
 20
1332.03
 30
18.20
  0
VERTEX
  8
BORDER_D0_T132.1_RK1_A0_W0_EM1
 10
2368.07
 20
1320.49
 30
18.20
  0
SEQEND
  8
BORDER_D0_T132.1_RK1_A0_W0_EM1
  0
POLYLINE
  8
BORDER_D0_T132.1_RK1_A0_W0_EM1
 70
0
 66
1
  0
VERTEX
  8
BORDER_D0_T132.1_RK1_A0_W0_EM1
 10
2201.40
 20
1371.99
 30
18.20
  0
VERTEX
  8
BORDER_D0_T132.1_RK1_A0_W0_EM1
 10
1969.77
 20
1462.58
 30
18.20
  0
VERTEX
  8
BORDER_D0_T132.1_RK1_A0_W0_EM1
 10
1984.35
 20
1214.29
 30
18.20
  0
VERTEX
  8
BORDER_D0_T132.1_RK1_A0_W0_EM1
 10
1850.21
 20
1423.73
 30
18.20
  0
VERTEX
  8
BORDER_D0_T132.1_RK1_A0_W0_EM1
 10
1716.06
 20
1214.29
 30
18.20
  0
VERTEX
  8
BORDER_D0_T132.1_RK1_A0_W0_EM1
 10
1730.65
 20
1462.58
 30
18.20
  0
VERTEX
  8
BORDER_D0_T132.1_RK1_A0_W0_EM1
 10
1499.02
 20
1371.99
 30
18.20
  0
VERTEX
  8
BORDER_D0_T132.1_RK1_A0_W0_EM1
 10
1656.75
 20
1564.29
 30
18.20
  0
VERTEX
  8
BORDER_D0_T132.1_RK1_A0_W0_EM1
 10
1416.11
 20
1627.15
 30
18.20
  0
VERTEX
  8
BORDER_D0_T132.1_RK1_A0_W0_EM1
 10
1656.75
 20
1690.00
 30
18.20
  0
VERTEX
  8
BORDER_D0_T132.1_RK1_A0_W0_EM1
 10
1499.02
 20
1882.30
 30
18.20
  0
VERTEX
  8
BORDER_D0_T132.1_RK1_A0_W0_EM1
 10
1730.65
 20
1791.71
 30
18.20
  0
VERTEX
  8
BORDER_D0_T132.1_RK1_A0_W0_EM1
 10
1716.06
 20
2040.00
 30
18.20
  0
VERTEX
  8
BORDER_D0_T132.1_RK1_A0_W0_EM1
 10
1850.21
 20
1830.56
 30
18.20
  0
VERTEX
  8
BORDER_D0_T132.1_RK1_A0_W0_EM1
 10
1984.35
 20
2040.00
 30
18.20
  0
VERTEX
  8
BORDER_D0_T132.1_RK1_A0_W0_EM1
 10
1969.77
 20
1791.71
 30
18.20
  0
VERTEX
  8
BORDER_D0_T132.1_RK1_A0_W0_EM1
 10
2201.40
 20
1882.30
 30
18.20
  0
VERTEX
  8
BORDER_D0_T132.1_RK1_A0_W0_EM1
 10
2043.67
 20
1690.00
 30
18.20
  0
VERTEX
  8
BORDER_D0_T132.1_RK1_A0_W0_EM1
 10
2284.31
 20
1627.15
 30
18.20
  0
SEQEND
  8
BORDER_D0_T132.1_RK1_A0_W0_EM1
  0
POLYLINE
  8
BORDER_D0_T132.1_RK1_A0_W0_EM1
 70
0
 66
1
  0
VERTEX
  8
BORDER_D0_T132.1_RK1_A0_W0_EM1
 10
1339.57
 20
1799.97
 30
18.20
  0
VERTEX
  8
BORDER_D0_T132.1_RK1_A0_W0_EM1
 10
1304.07
 20
1788.44
 30
18.20
  0
VERTEX
  8
BORDER_D0_T132.1_RK1_A0_W0_EM1
 10
1304.07
 20
1751.10
 30
18.20
  0
VERTEX
  8
BORDER_D0_T132.1_RK1_A0_W0_EM1
 10
1268.56
 20
1762.64
 30
18.20
  0
VERTEX
  8
BORDER_D0_T132.1_RK1_A0_W0_EM1
 10
1246.62
 20
1732.44
 30
18.20
  0
VERTEX
  8
BORDER_D0_T132.1_RK1_A0_W0_EM1
 10
1224.67
 20
1762.64
 30
18.20
  0
VERTEX
  8
BORDER_D0_T132.1_RK1_A0_W0_EM1
 10
1189.17
 20
1751.10
 30
18.20
  0
VERTEX
  8
BORDER_D0_T132.1_RK1_A0_W0_EM1
 10
1189.17
 20
1788.44
 30
18.20
  0
VERTEX
  8
BORDER_D0_T132.1_RK1_A0_W0_EM1
 10
1153.66
 20
1799.97
 30
18.20
  0
VERTEX
  8
BORDER_D0_T132.1_RK1_A0_W0_EM1
 10
1175.60
 20
1830.18
 30
18.20
  0
VERTEX
  8
BORDER_D0_T132.1_RK1_A0_W0_EM1
 10
1153.66
 20
1860.38
 30
18.20
  0
VERTEX
  8
BORDER_D0_T132.1_RK1_A0_W0_EM1
 10
1189.17
 20
1871.92
 30
18.20
  0
VERTEX
  8
BORDER_D0_T132.1_RK1_A0_W0_EM1
 10
1189.17
 20
1909.25
 30
18.20
  0
VERTEX
  8
BORDER_D0_T132.1_RK1_A0_W0_EM1
 10
1224.67
 20
1897.71
 30
18.20
  0
VERTEX
  8
BORDER_D0_T132.1_RK1_A0_W0_EM1
 10
1246.62
 20
1927.92
 30
18.20
  0
VERTEX
  8
BORDER_D0_T132.1_RK1_A0_W0_EM1
 10
1268.56
 20
1897.71
 30
18.20
  0
VERTEX
  8
BORDER_D0_T132.1_RK1_A0_W0_EM1
 10
1304.07
 20
1909.25
 30
18.20
  0
VERTEX
  8
BORDER_D0_T132.1_RK1_A0_W0_EM1
 10
1304.07
 20
1871.92
 30
18.20
  0
VERTEX
  8
BORDER_D0_T132.1_RK1_A0_W0_EM1
 10
1339.57
 20
1860.38
 30
18.20
  0
VERTEX
  8
BORDER_D0_T132.1_RK1_A0_W0_EM1
 10
1345.94
 20
1851.90
 30
18.20
  0
VERTEX
  8
BORDER_D0_T132.1_RK1_A0_W0_EM1
 10
1358.67
 20
1859.25
 30
18.20
  0
VERTEX
  8
BORDER_D0_T132.1_RK1_A0_W0_EM1
 10
1352.06
 20
1870.71
 30
18.20
  0
VERTEX
  8
BORDER_D0_T132.1_RK1_A0_W0_EM1
 10
1303.19
 20
1955.35
 30
18.20
  0
VERTEX
  8
BORDER_D0_T132.1_RK1_A0_W0_EM1
 10
1352.06
 20
2040.00
 30
18.20
  0
VERTEX
  8
BORDER_D0_T132.1_RK1_A0_W0_EM1
 10
1449.80
 20
2040.00
 30
18.20
  0
VERTEX
  8
BORDER_D0_T132.1_RK1_A0_W0_EM1
 10
1498.67
 20
1955.35
 30
18.20
  0
VERTEX
  8
BORDER_D0_T132.1_RK1_A0_W0_EM1
 10
1449.80
 20
1870.71
 30
18.20
  0
SEQEND
  8
BORDER_D0_T132.1_RK1_A0_W0_EM1
  0
POLYLINE
  8
BORDER_D0_T132.1_RK1_A0_W0_EM1
 70
0
 66
1
  0
VERTEX
  8
BORDER_D0_T132.1_RK1_A0_W0_EM1
 10
1466.96
 20
1867.96
 30
18.20
  0
VERTEX
  8
BORDER_D0_T132.1_RK1_A0_W0_EM1
 10
1466.96
 20
1796.94
 30
18.20
  0
VERTEX
  8
BORDER_D0_T132.1_RK1_A0_W0_EM1
 10
1534.50
 20
1775.00
 30
18.20
  0
VERTEX
  8
BORDER_D0_T132.1_RK1_A0_W0_EM1
 10
1466.96
 20
1753.06
 30
18.20
  0
VERTEX
  8
BORDER_D0_T132.1_RK1_A0_W0_EM1
 10
1466.96
 20
1682.04
 30
18.20
  0
VERTEX
  8
BORDER_D0_T132.1_RK1_A0_W0_EM1
 10
1357.93
 20
1695.20
 30
18.20
  0
VERTEX
  8
BORDER_D0_T132.1_RK1_A0_W0_EM1
 10
1353.11
 20
1682.88
 30
18.20
  0
VERTEX
  8
BORDER_D0_T132.1_RK1_A0_W0_EM1
 10
1262.51
 20
1451.25
 30
18.20
  0
VERTEX
  8
BORDER_D0_T132.1_RK1_A0_W0_EM1
 10
1510.80
 20
1465.83
 30
18.20
  0
VERTEX
  8
BORDER_D0_T132.1_RK1_A0_W0_EM1
 10
1301.36
 20
1331.69
 30
18.20
  0
VERTEX
  8
BORDER_D0_T132.1_RK1_A0_W0_EM1
 10
1510.80
 20
1197.55
 30
18.20
  0
SEQEND
  8
BORDER_D0_T132.1_RK1_A0_W0_EM1
  0
POLYLINE
  8
BORDER_D0_T132.1_RK1_A0_W0_EM1
 70
1
 66
1
  0
VERTEX
  8
BORDER_D0_T132.1_RK1_A0_W0_EM1
 10
835.71
 20
1471.76
 30
18.20
  0
VERTEX
  8
BORDER_D0_T132.1_RK1_A0_W0_EM1
 10
587.42
 20
1486.34
 30
18.20
  0
VERTEX
  8
BORDER_D0_T132.1_RK1_A0_W0_EM1
 10
678.01
 20
1254.71
 30
18.20
  0
VERTEX
  8
BORDER_D0_T132.1_RK1_A0_W0_EM1
 10
485.71
 20
1412.44
 30
18.20
  0
VERTEX
  8
BORDER_D0_T132.1_RK1_A0_W0_EM1
 10
422.85
 20
1171.80
 30
18.20
  0
VERTEX
  8
BORDER_D0_T132.1_RK1_A0_W0_EM1
 10
360.00
 20
1412.44
 30
18.20
  0
VERTEX
  8
BORDER_D0_T132.1_RK1_A0_W0_EM1
 10
167.70
 20
1254.71
 30
18.20
  0
VERTEX
  8
BORDER_D0_T132.1_RK1_A0_W0_EM1
 10
258.29
 20
1486.34
 30
18.20
  0
VERTEX
  8
BORDER_D0_T132.1_RK1_A0_W0_EM1
 10
10.00
 20
1471.76
 30
18.20
  0
VERTEX
  8
BORDER_D0_T132.1_RK1_A0_W0_EM1
 10
219.44
 20
1605.90
 30
18.20
  0
VERTEX
  8
BORDER_D0_T132.1_RK1_A0_W0_EM1
 10
10.00
 20
1740.04
 30
18.20
  0
VERTEX
  8
BORDER_D0_T132.1_RK1_A0_W0_EM1
 10
258.29
 20
1725.46
 30
18.20
  0
VERTEX
  8
BORDER_D0_T132.1_RK1_A0_W0_EM1
 10
167.70
 20
1957.09
 30
18.20
  0
VERTEX
  8
BORDER_D0_T132.1_RK1_A0_W0_EM1
 10
360.00
 20
1799.36
 30
18.20
  0
VERTEX
  8
BORDER_D0_T132.1_RK1_A0_W0_EM1
 10
422.85
 20
2040.00
 30
18.20
  0
VERTEX
  8
BORDER_D0_T132.1_RK1_A0_W0_EM1
 10
485.71
 20
1799.36
 30
18.20
  0
VERTEX
  8
BORDER_D0_T132.1_RK1_A0_W0_EM1
 10
678.01
 20
1957.09
 30
18.20
  0
VERTEX
  8
BORDER_D0_T132.1_RK1_A0_W0_EM1
 10
587.42
 20
1725.46
 30
18.20
  0
VERTEX
  8
BORDER_D0_T132.1_RK1_A0_W0_EM1
 10
835.71
 20
1740.04
 30
18.20
  0
VERTEX
  8
BORDER_D0_T132.1_RK1_A0_W0_EM1
 10
626.27
 20
1605.90
 30
18.20
  0
VERTEX
  8
BORDER_D0_T132.1_RK1_A0_W0_EM1
 10
835.71
 20
1471.76
 30
18.20
  0
SEQEND
  8
BORDER_D0_T132.1_RK1_A0_W0_EM1
  0
ENDSEC
  0
EOF
