  0
SECTION
  2
HEADER
  9
$LTSCALE
 40
41.00
  9
$LIMMIN
 10
-41.00
 20
-61.50
  9
$LIMMAX
 10
2841.00
 20
2193.50
  9
$EXTMIN
 10
-41.00
 20
-61.50
  9
$EXTMAX
 10
2841.00
 20
2193.50
  9
$TEXTSTYLE
  7
txt
  9
$CLAYER
  8
1
  9
$CECOLOR
 62
7
  9
$CELTYPE
  6
CONTINUOUS
  9
$OSMODE
 70
0
  0
ENDSEC
  0
SECTION
  2
TABLES
  0
TABLE
  2
STYLE
 70
1
  0
STYLE
  2
STANDARD
 70
0
 40
1.00
 41
1.00
 50
0.00
 71
0
 42
0.20
  3
txt
  4

  0
ENDTAB
  0
TABLE
  2
LTYPE
 70
1
  0
LTYPE
  2
HIDDEN
 70
64
  3
_ _ _ _ _ _ _ _ _ _ _ _ _ _ _ _ _ _ _ _ _ _
 72
65
 73
2
 40
0.50
 49
0.25
 49
-0.25
  0
ENDTAB
  0
ENDSEC
  0
SECTION
  2
ENTITIES
  0
LINE
  6
CONTINUOUS
  8
FRAME_Z18
 10
0.00
 20
0.00
 30
0.00
 11
2800.00
 21
0.00
 31
0.00
  0
LINE
  6
CONTINUOUS
  8
FRAME_Z18
 10
0.00
 20
2050.00
 30
0.00
 11
2800.00
 21
2050.00
 31
0.00
  0
LINE
  6
CONTINUOUS
  8
FRAME_Z18
 10
0.00
 20
0.00
 30
0.00
 11
0.00
 21
2050.00
 31
0.00
  0
LINE
  6
CONTINUOUS
  8
FRAME_Z18
 10
2800.00
 20
0.00
 30
0.00
 11
2800.00
 21
2050.00
 31
0.00
  0
POLYLINE
  8
BORDER_D0_T132_RK1_A0_W0_EM1_RI1_ID0023
 70
1
 66
1
  0
VERTEX
  8
BORDER_D0_T132_RK1_A0_W0_EM1_RI1_ID0023
 10
211.07
 20
77.25
 30
16.50
  0
VERTEX
  8
BORDER_D0_T132_RK1_A0_W0_EM1_RI1_ID0023
 10
126.43
 20
126.12
 30
16.50
  0
VERTEX
  8
BORDER_D0_T132_RK1_A0_W0_EM1_RI1_ID0023
 10
126.43
 20
223.86
 30
16.50
  0
VERTEX
  8
BORDER_D0_T132_RK1_A0_W0_EM1_RI1_ID0023
 10
211.07
 20
272.73
 30
16.50
  0
VERTEX
  8
BORDER_D0_T132_RK1_A0_W0_EM1_RI1_ID0023
 10
295.71
 20
223.86
 30
16.50
  0
VERTEX
  8
BORDER_D0_T132_RK1_A0_W0_EM1_RI1_ID0023
 10
295.71
 20
126.12
 30
16.50
  0
VERTEX
  8
BORDER_D0_T132_RK1_A0_W0_EM1_RI1_ID0023
 10
211.07
 20
77.25
 30
16.50
  0
SEQEND
  8
BORDER_D0_T132_RK1_A0_W0_EM1_RI1_ID0023
  0
POLYLINE
  8
BORDER_D0_T132_RK1_A0_W0_EM1_RI1_ID0028
 70
1
 66
1
  0
VERTEX
  8
BORDER_D0_T132_RK1_A0_W0_EM1_RI1_ID0028
 10
399.27
 20
30.80
 30
16.50
  0
VERTEX
  8
BORDER_D0_T132_RK1_A0_W0_EM1_RI1_ID0028
 10
727.19
 20
30.80
 30
16.50
  0
VERTEX
  8
BORDER_D0_T132_RK1_A0_W0_EM1_RI1_ID0028
 10
727.19
 20
11.25
 30
16.50
  0
VERTEX
  8
BORDER_D0_T132_RK1_A0_W0_EM1_RI1_ID0028
 10
399.27
 20
11.25
 30
16.50
 42
-0.220734
  0
VERTEX
  8
BORDER_D0_T132_RK1_A0_W0_EM1_RI1_ID0028
 10
247.22
 20
74.23
 30
16.50
  0
VERTEX
  8
BORDER_D0_T132_RK1_A0_W0_EM1_RI1_ID0028
 10
261.05
 20
88.05
 30
16.50
 42
0.198903
  0
VERTEX
  8
BORDER_D0_T132_RK1_A0_W0_EM1_RI1_ID0028
 10
399.27
 20
30.80
 30
16.50
  0
SEQEND
  8
BORDER_D0_T132_RK1_A0_W0_EM1_RI1_ID0028
  0
POLYLINE
  8
BORDER_D0_T132_RK1_A0_W0_EM1_RI1_ID0003
 70
1
 66
1
  0
VERTEX
  8
BORDER_D0_T132_RK1_A0_W0_EM1_RI1_ID0003
 10
403.41
 20
104.47
 30
16.50
  0
VERTEX
  8
BORDER_D0_T132_RK1_A0_W0_EM1_RI1_ID0003
 10
345.96
 20
123.14
 30
16.50
  0
VERTEX
  8
BORDER_D0_T132_RK1_A0_W0_EM1_RI1_ID0003
 10
310.45
 20
172.01
 30
16.50
  0
VERTEX
  8
BORDER_D0_T132_RK1_A0_W0_EM1_RI1_ID0003
 10
310.45
 20
232.41
 30
16.50
  0
VERTEX
  8
BORDER_D0_T132_RK1_A0_W0_EM1_RI1_ID0003
 10
345.96
 20
281.28
 30
16.50
  0
VERTEX
  8
BORDER_D0_T132_RK1_A0_W0_EM1_RI1_ID0003
 10
403.41
 20
299.95
 30
16.50
  0
VERTEX
  8
BORDER_D0_T132_RK1_A0_W0_EM1_RI1_ID0003
 10
460.87
 20
281.28
 30
16.50
  0
VERTEX
  8
BORDER_D0_T132_RK1_A0_W0_EM1_RI1_ID0003
 10
496.37
 20
232.41
 30
16.50
  0
VERTEX
  8
BORDER_D0_T132_RK1_A0_W0_EM1_RI1_ID0003
 10
496.37
 20
172.01
 30
16.50
  0
VERTEX
  8
BORDER_D0_T132_RK1_A0_W0_EM1_RI1_ID0003
 10
460.87
 20
123.14
 30
16.50
  0
VERTEX
  8
BORDER_D0_T132_RK1_A0_W0_EM1_RI1_ID0003
 10
403.41
 20
104.47
 30
16.50
  0
SEQEND
  8
BORDER_D0_T132_RK1_A0_W0_EM1_RI1_ID0003
  0
POLYLINE
  8
BORDER_D0_T132_RK1_A0_W0_EM1_RI1_ID0013
 70
1
 66
1
  0
VERTEX
  8
BORDER_D0_T132_RK1_A0_W0_EM1_RI1_ID0013
 10
517.22
 20
265.03
 30
16.50
  0
VERTEX
  8
BORDER_D0_T132_RK1_A0_W0_EM1_RI1_ID0013
 10
541.80
 20
265.03
 30
16.50
 42
-0.333267
  0
VERTEX
  8
BORDER_D0_T132_RK1_A0_W0_EM1_RI1_ID0013
 10
541.80
 20
69.55
 30
16.50
  0
VERTEX
  8
BORDER_D0_T132_RK1_A0_W0_EM1_RI1_ID0013
 10
492.64
 20
69.55
 30
16.50
 42
0.469337
  0
VERTEX
  8
BORDER_D0_T132_RK1_A0_W0_EM1_RI1_ID0013
 10
492.64
 20
265.03
 30
16.50
  0
VERTEX
  8
BORDER_D0_T132_RK1_A0_W0_EM1_RI1_ID0013
 10
517.22
 20
265.03
 30
16.50
  0
SEQEND
  8
BORDER_D0_T132_RK1_A0_W0_EM1_RI1_ID0013
  0
POLYLINE
  8
BORDER_D0_T132_RK1_A0_W0_EM1_RI1_ID0003
 70
1
 66
1
  0
VERTEX
  8
BORDER_D0_T132_RK1_A0_W0_EM1_RI1_ID0003
 10
785.31
 20
153.08
 30
16.50
  0
VERTEX
  8
BORDER_D0_T132_RK1_A0_W0_EM1_RI1_ID0003
 10
766.64
 20
95.63
 30
16.50
  0
VERTEX
  8
BORDER_D0_T132_RK1_A0_W0_EM1_RI1_ID0003
 10
717.77
 20
60.12
 30
16.50
  0
VERTEX
  8
BORDER_D0_T132_RK1_A0_W0_EM1_RI1_ID0003
 10
657.37
 20
60.12
 30
16.50
  0
VERTEX
  8
BORDER_D0_T132_RK1_A0_W0_EM1_RI1_ID0003
 10
608.50
 20
95.63
 30
16.50
  0
VERTEX
  8
BORDER_D0_T132_RK1_A0_W0_EM1_RI1_ID0003
 10
589.83
 20
153.08
 30
16.50
  0
VERTEX
  8
BORDER_D0_T132_RK1_A0_W0_EM1_RI1_ID0003
 10
608.50
 20
210.53
 30
16.50
  0
VERTEX
  8
BORDER_D0_T132_RK1_A0_W0_EM1_RI1_ID0003
 10
657.37
 20
246.03
 30
16.50
  0
VERTEX
  8
BORDER_D0_T132_RK1_A0_W0_EM1_RI1_ID0003
 10
717.77
 20
246.03
 30
16.50
  0
VERTEX
  8
BORDER_D0_T132_RK1_A0_W0_EM1_RI1_ID0003
 10
766.64
 20
210.53
 30
16.50
  0
VERTEX
  8
BORDER_D0_T132_RK1_A0_W0_EM1_RI1_ID0003
 10
785.31
 20
153.08
 30
16.50
  0
SEQEND
  8
BORDER_D0_T132_RK1_A0_W0_EM1_RI1_ID0003
  0
POLYLINE
  8
BORDER_D0_T132_RK1_A0_W0_EM1_RI1_ID0023
 70
1
 66
1
  0
VERTEX
  8
BORDER_D0_T132_RK1_A0_W0_EM1_RI1_ID0023
 10
905.46
 20
52.47
 30
16.50
  0
VERTEX
  8
BORDER_D0_T132_RK1_A0_W0_EM1_RI1_ID0023
 10
820.82
 20
101.34
 30
16.50
  0
VERTEX
  8
BORDER_D0_T132_RK1_A0_W0_EM1_RI1_ID0023
 10
820.82
 20
199.08
 30
16.50
  0
VERTEX
  8
BORDER_D0_T132_RK1_A0_W0_EM1_RI1_ID0023
 10
905.46
 20
247.95
 30
16.50
  0
VERTEX
  8
BORDER_D0_T132_RK1_A0_W0_EM1_RI1_ID0023
 10
990.10
 20
199.08
 30
16.50
  0
VERTEX
  8
BORDER_D0_T132_RK1_A0_W0_EM1_RI1_ID0023
 10
990.10
 20
101.34
 30
16.50
  0
VERTEX
  8
BORDER_D0_T132_RK1_A0_W0_EM1_RI1_ID0023
 10
905.46
 20
52.47
 30
16.50
  0
SEQEND
  8
BORDER_D0_T132_RK1_A0_W0_EM1_RI1_ID0023
  0
POLYLINE
  8
BORDER_D0_T132_RK1_A0_W0_EM1_RI1_ID0003
 70
1
 66
1
  0
VERTEX
  8
BORDER_D0_T132_RK1_A0_W0_EM1_RI1_ID0003
 10
205.48
 20
340.97
 30
16.50
  0
VERTEX
  8
BORDER_D0_T132_RK1_A0_W0_EM1_RI1_ID0003
 10
186.81
 20
283.52
 30
16.50
  0
VERTEX
  8
BORDER_D0_T132_RK1_A0_W0_EM1_RI1_ID0003
 10
137.94
 20
248.01
 30
16.50
  0
VERTEX
  8
BORDER_D0_T132_RK1_A0_W0_EM1_RI1_ID0003
 10
77.54
 20
248.01
 30
16.50
  0
VERTEX
  8
BORDER_D0_T132_RK1_A0_W0_EM1_RI1_ID0003
 10
28.67
 20
283.52
 30
16.50
  0
VERTEX
  8
BORDER_D0_T132_RK1_A0_W0_EM1_RI1_ID0003
 10
10.00
 20
340.97
 30
16.50
  0
VERTEX
  8
BORDER_D0_T132_RK1_A0_W0_EM1_RI1_ID0003
 10
28.67
 20
398.42
 30
16.50
  0
VERTEX
  8
BORDER_D0_T132_RK1_A0_W0_EM1_RI1_ID0003
 10
77.54
 20
433.92
 30
16.50
  0
VERTEX
  8
BORDER_D0_T132_RK1_A0_W0_EM1_RI1_ID0003
 10
137.94
 20
433.92
 30
16.50
  0
VERTEX
  8
BORDER_D0_T132_RK1_A0_W0_EM1_RI1_ID0003
 10
186.81
 20
398.42
 30
16.50
  0
VERTEX
  8
BORDER_D0_T132_RK1_A0_W0_EM1_RI1_ID0003
 10
205.48
 20
340.97
 30
16.50
  0
SEQEND
  8
BORDER_D0_T132_RK1_A0_W0_EM1_RI1_ID0003
  0
POLYLINE
  8
BORDER_D0_T132_RK1_A0_W0_EM1_RI1_ID0019
 70
1
 66
1
  0
VERTEX
  8
BORDER_D0_T132_RK1_A0_W0_EM1_RI1_ID0019
 10
782.95
 20
693.44
 30
16.50
  0
VERTEX
  8
BORDER_D0_T132_RK1_A0_W0_EM1_RI1_ID0019
 10
1555.90
 20
693.44
 30
16.50
 42
-0.076784
  0
VERTEX
  8
BORDER_D0_T132_RK1_A0_W0_EM1_RI1_ID0019
 10
1544.16
 20
618.06
 30
16.50
 42
-0.068061
  0
VERTEX
  8
BORDER_D0_T132_RK1_A0_W0_EM1_RI1_ID0019
 10
1509.28
 20
544.97
 30
16.50
 42
-0.056093
  0
VERTEX
  8
BORDER_D0_T132_RK1_A0_W0_EM1_RI1_ID0019
 10
1452.34
 20
476.39
 30
16.50
 42
-0.045361
  0
VERTEX
  8
BORDER_D0_T132_RK1_A0_W0_EM1_RI1_ID0019
 10
1375.06
 20
414.41
 30
16.50
 42
-0.037263
  0
VERTEX
  8
BORDER_D0_T132_RK1_A0_W0_EM1_RI1_ID0019
 10
1279.79
 20
360.90
 30
16.50
 42
-0.031620
  0
VERTEX
  8
BORDER_D0_T132_RK1_A0_W0_EM1_RI1_ID0019
 10
1169.42
 20
317.50
 30
16.50
 42
-0.027905
  0
VERTEX
  8
BORDER_D0_T132_RK1_A0_W0_EM1_RI1_ID0019
 10
1047.31
 20
285.52
 30
16.50
 42
-0.025667
  0
VERTEX
  8
BORDER_D0_T132_RK1_A0_W0_EM1_RI1_ID0019
 10
917.17
 20
265.93
 30
16.50
 42
-0.024616
  0
VERTEX
  8
BORDER_D0_T132_RK1_A0_W0_EM1_RI1_ID0019
 10
782.95
 20
259.34
 30
16.50
 42
-0.024617
  0
VERTEX
  8
BORDER_D0_T132_RK1_A0_W0_EM1_RI1_ID0019
 10
648.73
 20
265.93
 30
16.50
 42
-0.025667
  0
VERTEX
  8
BORDER_D0_T132_RK1_A0_W0_EM1_RI1_ID0019
 10
518.59
 20
285.52
 30
16.50
 42
-0.027907
  0
VERTEX
  8
BORDER_D0_T132_RK1_A0_W0_EM1_RI1_ID0019
 10
396.47
 20
317.50
 30
16.50
 42
-0.031618
  0
VERTEX
  8
BORDER_D0_T132_RK1_A0_W0_EM1_RI1_ID0019
 10
286.11
 20
360.90
 30
16.50
 42
-0.037263
  0
VERTEX
  8
BORDER_D0_T132_RK1_A0_W0_EM1_RI1_ID0019
 10
190.84
 20
414.41
 30
16.50
 42
-0.045361
  0
VERTEX
  8
BORDER_D0_T132_RK1_A0_W0_EM1_RI1_ID0019
 10
113.56
 20
476.39
 30
16.50
 42
-0.056097
  0
VERTEX
  8
BORDER_D0_T132_RK1_A0_W0_EM1_RI1_ID0019
 10
56.61
 20
544.97
 30
16.50
 42
-0.068057
  0
VERTEX
  8
BORDER_D0_T132_RK1_A0_W0_EM1_RI1_ID0019
 10
21.74
 20
618.06
 30
16.50
 42
-0.076784
  0
VERTEX
  8
BORDER_D0_T132_RK1_A0_W0_EM1_RI1_ID0019
 10
10.00
 20
693.44
 30
16.50
  0
VERTEX
  8
BORDER_D0_T132_RK1_A0_W0_EM1_RI1_ID0019
 10
782.95
 20
693.44
 30
16.50
  0
SEQEND
  8
BORDER_D0_T132_RK1_A0_W0_EM1_RI1_ID0019
  0
POLYLINE
  8
BORDER_D0_T132_RK1_A0_W0_EM1_RI1_ID0019
 70
1
 66
1
  0
VERTEX
  8
BORDER_D0_T132_RK1_A0_W0_EM1_RI1_ID0019
 10
782.95
 20
1142.24
 30
16.50
  0
VERTEX
  8
BORDER_D0_T132_RK1_A0_W0_EM1_RI1_ID0019
 10
1555.90
 20
1142.24
 30
16.50
 42
-0.076784
  0
VERTEX
  8
BORDER_D0_T132_RK1_A0_W0_EM1_RI1_ID0019
 10
1544.16
 20
1066.86
 30
16.50
 42
-0.068061
  0
VERTEX
  8
BORDER_D0_T132_RK1_A0_W0_EM1_RI1_ID0019
 10
1509.28
 20
993.77
 30
16.50
 42
-0.056093
  0
VERTEX
  8
BORDER_D0_T132_RK1_A0_W0_EM1_RI1_ID0019
 10
1452.34
 20
925.19
 30
16.50
 42
-0.045361
  0
VERTEX
  8
BORDER_D0_T132_RK1_A0_W0_EM1_RI1_ID0019
 10
1375.06
 20
863.21
 30
16.50
 42
-0.037263
  0
VERTEX
  8
BORDER_D0_T132_RK1_A0_W0_EM1_RI1_ID0019
 10
1279.79
 20
809.70
 30
16.50
 42
-0.031620
  0
VERTEX
  8
BORDER_D0_T132_RK1_A0_W0_EM1_RI1_ID0019
 10
1169.42
 20
766.30
 30
16.50
 42
-0.027905
  0
VERTEX
  8
BORDER_D0_T132_RK1_A0_W0_EM1_RI1_ID0019
 10
1047.31
 20
734.32
 30
16.50
 42
-0.025667
  0
VERTEX
  8
BORDER_D0_T132_RK1_A0_W0_EM1_RI1_ID0019
 10
917.17
 20
714.73
 30
16.50
 42
-0.024616
  0
VERTEX
  8
BORDER_D0_T132_RK1_A0_W0_EM1_RI1_ID0019
 10
782.95
 20
708.14
 30
16.50
 42
-0.024616
  0
VERTEX
  8
BORDER_D0_T132_RK1_A0_W0_EM1_RI1_ID0019
 10
648.73
 20
714.73
 30
16.50
 42
-0.025667
  0
VERTEX
  8
BORDER_D0_T132_RK1_A0_W0_EM1_RI1_ID0019
 10
518.59
 20
734.32
 30
16.50
 42
-0.027907
  0
VERTEX
  8
BORDER_D0_T132_RK1_A0_W0_EM1_RI1_ID0019
 10
396.47
 20
766.30
 30
16.50
 42
-0.031618
  0
VERTEX
  8
BORDER_D0_T132_RK1_A0_W0_EM1_RI1_ID0019
 10
286.11
 20
809.70
 30
16.50
 42
-0.037263
  0
VERTEX
  8
BORDER_D0_T132_RK1_A0_W0_EM1_RI1_ID0019
 10
190.84
 20
863.21
 30
16.50
 42
-0.045361
  0
VERTEX
  8
BORDER_D0_T132_RK1_A0_W0_EM1_RI1_ID0019
 10
113.56
 20
925.19
 30
16.50
 42
-0.056097
  0
VERTEX
  8
BORDER_D0_T132_RK1_A0_W0_EM1_RI1_ID0019
 10
56.61
 20
993.77
 30
16.50
 42
-0.068057
  0
VERTEX
  8
BORDER_D0_T132_RK1_A0_W0_EM1_RI1_ID0019
 10
21.74
 20
1066.86
 30
16.50
 42
-0.076784
  0
VERTEX
  8
BORDER_D0_T132_RK1_A0_W0_EM1_RI1_ID0019
 10
10.00
 20
1142.24
 30
16.50
  0
VERTEX
  8
BORDER_D0_T132_RK1_A0_W0_EM1_RI1_ID0019
 10
782.95
 20
1142.24
 30
16.50
  0
SEQEND
  8
BORDER_D0_T132_RK1_A0_W0_EM1_RI1_ID0019
  0
POLYLINE
  8
BORDER_D0_T132_RK1_A0_W0_EM1_RI1_ID0013
 70
1
 66
1
  0
VERTEX
  8
BORDER_D0_T132_RK1_A0_W0_EM1_RI1_ID0013
 10
10.00
 20
1258.25
 30
16.50
  0
VERTEX
  8
BORDER_D0_T132_RK1_A0_W0_EM1_RI1_ID0013
 10
10.00
 20
1282.83
 30
16.50
 42
-0.333267
  0
VERTEX
  8
BORDER_D0_T132_RK1_A0_W0_EM1_RI1_ID0013
 10
205.48
 20
1282.83
 30
16.50
  0
VERTEX
  8
BORDER_D0_T132_RK1_A0_W0_EM1_RI1_ID0013
 10
205.48
 20
1233.67
 30
16.50
 42
0.469337
  0
VERTEX
  8
BORDER_D0_T132_RK1_A0_W0_EM1_RI1_ID0013
 10
10.00
 20
1233.67
 30
16.50
  0
VERTEX
  8
BORDER_D0_T132_RK1_A0_W0_EM1_RI1_ID0013
 10
10.00
 20
1258.25
 30
16.50
  0
SEQEND
  8
BORDER_D0_T132_RK1_A0_W0_EM1_RI1_ID0013
  0
POLYLINE
  8
BORDER_D0_T132_RK1_A0_W0_EM1_RI1_ID0019
 70
1
 66
1
  0
VERTEX
  8
BORDER_D0_T132_RK1_A0_W0_EM1_RI1_ID0019
 10
782.95
 20
1591.04
 30
16.50
  0
VERTEX
  8
BORDER_D0_T132_RK1_A0_W0_EM1_RI1_ID0019
 10
1555.90
 20
1591.04
 30
16.50
 42
-0.076784
  0
VERTEX
  8
BORDER_D0_T132_RK1_A0_W0_EM1_RI1_ID0019
 10
1544.16
 20
1515.66
 30
16.50
 42
-0.068061
  0
VERTEX
  8
BORDER_D0_T132_RK1_A0_W0_EM1_RI1_ID0019
 10
1509.28
 20
1442.57
 30
16.50
 42
-0.056093
  0
VERTEX
  8
BORDER_D0_T132_RK1_A0_W0_EM1_RI1_ID0019
 10
1452.34
 20
1373.99
 30
16.50
 42
-0.045361
  0
VERTEX
  8
BORDER_D0_T132_RK1_A0_W0_EM1_RI1_ID0019
 10
1375.06
 20
1312.01
 30
16.50
 42
-0.037263
  0
VERTEX
  8
BORDER_D0_T132_RK1_A0_W0_EM1_RI1_ID0019
 10
1279.79
 20
1258.50
 30
16.50
 42
-0.031620
  0
VERTEX
  8
BORDER_D0_T132_RK1_A0_W0_EM1_RI1_ID0019
 10
1169.42
 20
1215.10
 30
16.50
 42
-0.027905
  0
VERTEX
  8
BORDER_D0_T132_RK1_A0_W0_EM1_RI1_ID0019
 10
1047.31
 20
1183.12
 30
16.50
 42
-0.025667
  0
VERTEX
  8
BORDER_D0_T132_RK1_A0_W0_EM1_RI1_ID0019
 10
917.17
 20
1163.53
 30
16.50
 42
-0.024616
  0
VERTEX
  8
BORDER_D0_T132_RK1_A0_W0_EM1_RI1_ID0019
 10
782.95
 20
1156.94
 30
16.50
 42
-0.024617
  0
VERTEX
  8
BORDER_D0_T132_RK1_A0_W0_EM1_RI1_ID0019
 10
648.73
 20
1163.53
 30
16.50
 42
-0.025667
  0
VERTEX
  8
BORDER_D0_T132_RK1_A0_W0_EM1_RI1_ID0019
 10
518.59
 20
1183.12
 30
16.50
 42
-0.027907
  0
VERTEX
  8
BORDER_D0_T132_RK1_A0_W0_EM1_RI1_ID0019
 10
396.47
 20
1215.10
 30
16.50
 42
-0.031618
  0
VERTEX
  8
BORDER_D0_T132_RK1_A0_W0_EM1_RI1_ID0019
 10
286.11
 20
1258.50
 30
16.50
 42
-0.037263
  0
VERTEX
  8
BORDER_D0_T132_RK1_A0_W0_EM1_RI1_ID0019
 10
190.84
 20
1312.01
 30
16.50
 42
-0.045361
  0
VERTEX
  8
BORDER_D0_T132_RK1_A0_W0_EM1_RI1_ID0019
 10
113.56
 20
1373.99
 30
16.50
 42
-0.056097
  0
VERTEX
  8
BORDER_D0_T132_RK1_A0_W0_EM1_RI1_ID0019
 10
56.61
 20
1442.57
 30
16.50
 42
-0.068057
  0
VERTEX
  8
BORDER_D0_T132_RK1_A0_W0_EM1_RI1_ID0019
 10
21.74
 20
1515.66
 30
16.50
 42
-0.076784
  0
VERTEX
  8
BORDER_D0_T132_RK1_A0_W0_EM1_RI1_ID0019
 10
10.00
 20
1591.04
 30
16.50
  0
VERTEX
  8
BORDER_D0_T132_RK1_A0_W0_EM1_RI1_ID0019
 10
782.95
 20
1591.04
 30
16.50
  0
SEQEND
  8
BORDER_D0_T132_RK1_A0_W0_EM1_RI1_ID0019
  0
POLYLINE
  8
BORDER_D0_T132_RK1_A0_W0_EM1_RI1_ID0025
 70
1
 66
1
  0
VERTEX
  8
BORDER_D0_T132_RK1_A0_W0_EM1_RI1_ID0025
 10
186.81
 20
1947.05
 30
16.50
  0
VERTEX
  8
BORDER_D0_T132_RK1_A0_W0_EM1_RI1_ID0025
 10
119.28
 20
1854.09
 30
16.50
  0
VERTEX
  8
BORDER_D0_T132_RK1_A0_W0_EM1_RI1_ID0025
 10
10.00
 20
1889.60
 30
16.50
  0
VERTEX
  8
BORDER_D0_T132_RK1_A0_W0_EM1_RI1_ID0025
 10
10.00
 20
2004.50
 30
16.50
  0
VERTEX
  8
BORDER_D0_T132_RK1_A0_W0_EM1_RI1_ID0025
 10
119.28
 20
2040.00
 30
16.50
  0
VERTEX
  8
BORDER_D0_T132_RK1_A0_W0_EM1_RI1_ID0025
 10
186.81
 20
1947.05
 30
16.50
  0
SEQEND
  8
BORDER_D0_T132_RK1_A0_W0_EM1_RI1_ID0025
  0
POLYLINE
  8
BORDER_D0_T132_RK1_A0_W0_EM1_RI1_ID0019
 70
1
 66
1
  0
VERTEX
  8
BORDER_D0_T132_RK1_A0_W0_EM1_RI1_ID0019
 10
782.95
 20
1606.06
 30
16.50
  0
VERTEX
  8
BORDER_D0_T132_RK1_A0_W0_EM1_RI1_ID0019
 10
10.00
 20
1606.06
 30
16.50
 42
-0.076784
  0
VERTEX
  8
BORDER_D0_T132_RK1_A0_W0_EM1_RI1_ID0019
 10
21.74
 20
1681.44
 30
16.50
 42
-0.068061
  0
VERTEX
  8
BORDER_D0_T132_RK1_A0_W0_EM1_RI1_ID0019
 10
56.62
 20
1754.53
 30
16.50
 42
-0.056093
  0
VERTEX
  8
BORDER_D0_T132_RK1_A0_W0_EM1_RI1_ID0019
 10
113.56
 20
1823.11
 30
16.50
 42
-0.045361
  0
VERTEX
  8
BORDER_D0_T132_RK1_A0_W0_EM1_RI1_ID0019
 10
190.84
 20
1885.09
 30
16.50
 42
-0.037263
  0
VERTEX
  8
BORDER_D0_T132_RK1_A0_W0_EM1_RI1_ID0019
 10
286.11
 20
1938.60
 30
16.50
 42
-0.031620
  0
VERTEX
  8
BORDER_D0_T132_RK1_A0_W0_EM1_RI1_ID0019
 10
396.48
 20
1982.00
 30
16.50
 42
-0.027905
  0
VERTEX
  8
BORDER_D0_T132_RK1_A0_W0_EM1_RI1_ID0019
 10
518.59
 20
2013.98
 30
16.50
 42
-0.025667
  0
VERTEX
  8
BORDER_D0_T132_RK1_A0_W0_EM1_RI1_ID0019
 10
648.73
 20
2033.57
 30
16.50
 42
-0.024617
  0
VERTEX
  8
BORDER_D0_T132_RK1_A0_W0_EM1_RI1_ID0019
 10
782.95
 20
2040.16
 30
16.50
 42
-0.024617
  0
VERTEX
  8
BORDER_D0_T132_RK1_A0_W0_EM1_RI1_ID0019
 10
917.17
 20
2033.57
 30
16.50
 42
-0.025667
  0
VERTEX
  8
BORDER_D0_T132_RK1_A0_W0_EM1_RI1_ID0019
 10
1047.31
 20
2013.98
 30
16.50
 42
-0.027907
  0
VERTEX
  8
BORDER_D0_T132_RK1_A0_W0_EM1_RI1_ID0019
 10
1169.43
 20
1982.00
 30
16.50
 42
-0.031618
  0
VERTEX
  8
BORDER_D0_T132_RK1_A0_W0_EM1_RI1_ID0019
 10
1279.79
 20
1938.60
 30
16.50
 42
-0.037263
  0
VERTEX
  8
BORDER_D0_T132_RK1_A0_W0_EM1_RI1_ID0019
 10
1375.06
 20
1885.09
 30
16.50
 42
-0.045361
  0
VERTEX
  8
BORDER_D0_T132_RK1_A0_W0_EM1_RI1_ID0019
 10
1452.34
 20
1823.11
 30
16.50
 42
-0.056097
  0
VERTEX
  8
BORDER_D0_T132_RK1_A0_W0_EM1_RI1_ID0019
 10
1509.29
 20
1754.53
 30
16.50
 42
-0.068057
  0
VERTEX
  8
BORDER_D0_T132_RK1_A0_W0_EM1_RI1_ID0019
 10
1544.16
 20
1681.44
 30
16.50
 42
-0.076784
  0
VERTEX
  8
BORDER_D0_T132_RK1_A0_W0_EM1_RI1_ID0019
 10
1555.90
 20
1606.06
 30
16.50
  0
VERTEX
  8
BORDER_D0_T132_RK1_A0_W0_EM1_RI1_ID0019
 10
782.95
 20
1606.06
 30
16.50
  0
SEQEND
  8
BORDER_D0_T132_RK1_A0_W0_EM1_RI1_ID0019
  0
POLYLINE
  8
BORDER_D0_T132_RK1_A0_W0_EM1_RI1_ID0013
 70
1
 66
1
  0
VERTEX
  8
BORDER_D0_T132_RK1_A0_W0_EM1_RI1_ID0013
 10
1522.42
 20
1241.29
 30
16.50
  0
VERTEX
  8
BORDER_D0_T132_RK1_A0_W0_EM1_RI1_ID0013
 10
1522.42
 20
1216.71
 30
16.50
 42
-0.333267
  0
VERTEX
  8
BORDER_D0_T132_RK1_A0_W0_EM1_RI1_ID0013
 10
1326.94
 20
1216.71
 30
16.50
  0
VERTEX
  8
BORDER_D0_T132_RK1_A0_W0_EM1_RI1_ID0013
 10
1326.94
 20
1265.87
 30
16.50
 42
0.469337
  0
VERTEX
  8
BORDER_D0_T132_RK1_A0_W0_EM1_RI1_ID0013
 10
1522.42
 20
1265.87
 30
16.50
  0
VERTEX
  8
BORDER_D0_T132_RK1_A0_W0_EM1_RI1_ID0013
 10
1522.42
 20
1241.29
 30
16.50
  0
SEQEND
  8
BORDER_D0_T132_RK1_A0_W0_EM1_RI1_ID0013
  0
POLYLINE
  8
BORDER_D0_T132_RK1_A0_W0_EM1_RI1_ID0019
 70
1
 66
1
  0
VERTEX
  8
BORDER_D0_T132_RK1_A0_W0_EM1_RI1_ID0019
 10
1570.77
 20
1267.05
 30
16.50
  0
VERTEX
  8
BORDER_D0_T132_RK1_A0_W0_EM1_RI1_ID0019
 10
1570.77
 20
2040.00
 30
16.50
 42
-0.076784
  0
VERTEX
  8
BORDER_D0_T132_RK1_A0_W0_EM1_RI1_ID0019
 10
1646.15
 20
2028.26
 30
16.50
 42
-0.068061
  0
VERTEX
  8
BORDER_D0_T132_RK1_A0_W0_EM1_RI1_ID0019
 10
1719.24
 20
1993.38
 30
16.50
 42
-0.056093
  0
VERTEX
  8
BORDER_D0_T132_RK1_A0_W0_EM1_RI1_ID0019
 10
1787.82
 20
1936.44
 30
16.50
 42
-0.045361
  0
VERTEX
  8
BORDER_D0_T132_RK1_A0_W0_EM1_RI1_ID0019
 10
1849.80
 20
1859.16
 30
16.50
 42
-0.037263
  0
VERTEX
  8
BORDER_D0_T132_RK1_A0_W0_EM1_RI1_ID0019
 10
1903.31
 20
1763.89
 30
16.50
 42
-0.031620
  0
VERTEX
  8
BORDER_D0_T132_RK1_A0_W0_EM1_RI1_ID0019
 10
1946.71
 20
1653.52
 30
16.50
 42
-0.027905
  0
VERTEX
  8
BORDER_D0_T132_RK1_A0_W0_EM1_RI1_ID0019
 10
1978.69
 20
1531.41
 30
16.50
 42
-0.025667
  0
VERTEX
  8
BORDER_D0_T132_RK1_A0_W0_EM1_RI1_ID0019
 10
1998.28
 20
1401.27
 30
16.50
 42
-0.024616
  0
VERTEX
  8
BORDER_D0_T132_RK1_A0_W0_EM1_RI1_ID0019
 10
2004.87
 20
1267.05
 30
16.50
 42
-0.024617
  0
VERTEX
  8
BORDER_D0_T132_RK1_A0_W0_EM1_RI1_ID0019
 10
1998.28
 20
1132.83
 30
16.50
 42
-0.025667
  0
VERTEX
  8
BORDER_D0_T132_RK1_A0_W0_EM1_RI1_ID0019
 10
1978.69
 20
1002.69
 30
16.50
 42
-0.027907
  0
VERTEX
  8
BORDER_D0_T132_RK1_A0_W0_EM1_RI1_ID0019
 10
1946.71
 20
880.57
 30
16.50
 42
-0.031618
  0
VERTEX
  8
BORDER_D0_T132_RK1_A0_W0_EM1_RI1_ID0019
 10
1903.31
 20
770.21
 30
16.50
 42
-0.037263
  0
VERTEX
  8
BORDER_D0_T132_RK1_A0_W0_EM1_RI1_ID0019
 10
1849.80
 20
674.94
 30
16.50
 42
-0.045361
  0
VERTEX
  8
BORDER_D0_T132_RK1_A0_W0_EM1_RI1_ID0019
 10
1787.82
 20
597.66
 30
16.50
 42
-0.056097
  0
VERTEX
  8
BORDER_D0_T132_RK1_A0_W0_EM1_RI1_ID0019
 10
1719.24
 20
540.71
 30
16.50
 42
-0.068057
  0
VERTEX
  8
BORDER_D0_T132_RK1_A0_W0_EM1_RI1_ID0019
 10
1646.15
 20
505.84
 30
16.50
 42
-0.076784
  0
VERTEX
  8
BORDER_D0_T132_RK1_A0_W0_EM1_RI1_ID0019
 10
1570.77
 20
494.10
 30
16.50
  0
VERTEX
  8
BORDER_D0_T132_RK1_A0_W0_EM1_RI1_ID0019
 10
1570.77
 20
1267.05
 30
16.50
  0
SEQEND
  8
BORDER_D0_T132_RK1_A0_W0_EM1_RI1_ID0019
  0
POLYLINE
  8
BORDER_D0_T132_RK1_A0_W0_EM1_RI1_ID0013
 70
1
 66
1
  0
VERTEX
  8
BORDER_D0_T132_RK1_A0_W0_EM1_RI1_ID0013
 10
1735.31
 20
508.71
 30
16.50
  0
VERTEX
  8
BORDER_D0_T132_RK1_A0_W0_EM1_RI1_ID0013
 10
1735.31
 20
533.29
 30
16.50
 42
-0.333267
  0
VERTEX
  8
BORDER_D0_T132_RK1_A0_W0_EM1_RI1_ID0013
 10
1930.79
 20
533.29
 30
16.50
  0
VERTEX
  8
BORDER_D0_T132_RK1_A0_W0_EM1_RI1_ID0013
 10
1930.79
 20
484.13
 30
16.50
 42
0.469337
  0
VERTEX
  8
BORDER_D0_T132_RK1_A0_W0_EM1_RI1_ID0013
 10
1735.31
 20
484.13
 30
16.50
  0
VERTEX
  8
BORDER_D0_T132_RK1_A0_W0_EM1_RI1_ID0013
 10
1735.31
 20
508.71
 30
16.50
  0
SEQEND
  8
BORDER_D0_T132_RK1_A0_W0_EM1_RI1_ID0013
  0
POLYLINE
  8
BORDER_D0_T132_RK1_A0_W0_EM1_RI1_ID0019
 70
1
 66
1
  0
VERTEX
  8
BORDER_D0_T132_RK1_A0_W0_EM1_RI1_ID0019
 10
2019.57
 20
1267.05
 30
16.50
  0
VERTEX
  8
BORDER_D0_T132_RK1_A0_W0_EM1_RI1_ID0019
 10
2019.57
 20
2040.00
 30
16.50
 42
-0.076784
  0
VERTEX
  8
BORDER_D0_T132_RK1_A0_W0_EM1_RI1_ID0019
 10
2094.95
 20
2028.26
 30
16.50
 42
-0.068061
  0
VERTEX
  8
BORDER_D0_T132_RK1_A0_W0_EM1_RI1_ID0019
 10
2168.04
 20
1993.38
 30
16.50
 42
-0.056093
  0
VERTEX
  8
BORDER_D0_T132_RK1_A0_W0_EM1_RI1_ID0019
 10
2236.62
 20
1936.44
 30
16.50
 42
-0.045361
  0
VERTEX
  8
BORDER_D0_T132_RK1_A0_W0_EM1_RI1_ID0019
 10
2298.60
 20
1859.16
 30
16.50
 42
-0.037263
  0
VERTEX
  8
BORDER_D0_T132_RK1_A0_W0_EM1_RI1_ID0019
 10
2352.11
 20
1763.89
 30
16.50
 42
-0.031620
  0
VERTEX
  8
BORDER_D0_T132_RK1_A0_W0_EM1_RI1_ID0019
 10
2395.51
 20
1653.52
 30
16.50
 42
-0.027905
  0
VERTEX
  8
BORDER_D0_T132_RK1_A0_W0_EM1_RI1_ID0019
 10
2427.49
 20
1531.41
 30
16.50
 42
-0.025667
  0
VERTEX
  8
BORDER_D0_T132_RK1_A0_W0_EM1_RI1_ID0019
 10
2447.08
 20
1401.27
 30
16.50
 42
-0.024617
  0
VERTEX
  8
BORDER_D0_T132_RK1_A0_W0_EM1_RI1_ID0019
 10
2453.67
 20
1267.05
 30
16.50
 42
-0.024616
  0
VERTEX
  8
BORDER_D0_T132_RK1_A0_W0_EM1_RI1_ID0019
 10
2447.08
 20
1132.83
 30
16.50
 42
-0.025667
  0
VERTEX
  8
BORDER_D0_T132_RK1_A0_W0_EM1_RI1_ID0019
 10
2427.49
 20
1002.69
 30
16.50
 42
-0.027907
  0
VERTEX
  8
BORDER_D0_T132_RK1_A0_W0_EM1_RI1_ID0019
 10
2395.51
 20
880.57
 30
16.50
 42
-0.031618
  0
VERTEX
  8
BORDER_D0_T132_RK1_A0_W0_EM1_RI1_ID0019
 10
2352.11
 20
770.21
 30
16.50
 42
-0.037263
  0
VERTEX
  8
BORDER_D0_T132_RK1_A0_W0_EM1_RI1_ID0019
 10
2298.60
 20
674.94
 30
16.50
 42
-0.045361
  0
VERTEX
  8
BORDER_D0_T132_RK1_A0_W0_EM1_RI1_ID0019
 10
2236.62
 20
597.66
 30
16.50
 42
-0.056097
  0
VERTEX
  8
BORDER_D0_T132_RK1_A0_W0_EM1_RI1_ID0019
 10
2168.04
 20
540.71
 30
16.50
 42
-0.068057
  0
VERTEX
  8
BORDER_D0_T132_RK1_A0_W0_EM1_RI1_ID0019
 10
2094.95
 20
505.84
 30
16.50
 42
-0.076784
  0
VERTEX
  8
BORDER_D0_T132_RK1_A0_W0_EM1_RI1_ID0019
 10
2019.57
 20
494.10
 30
16.50
  0
VERTEX
  8
BORDER_D0_T132_RK1_A0_W0_EM1_RI1_ID0019
 10
2019.57
 20
1267.05
 30
16.50
  0
SEQEND
  8
BORDER_D0_T132_RK1_A0_W0_EM1_RI1_ID0019
  0
POLYLINE
  8
BORDER_D0_T132_RK1_A0_W0_EM1_RI1_ID0003
 70
1
 66
1
  0
VERTEX
  8
BORDER_D0_T132_RK1_A0_W0_EM1_RI1_ID0003
 10
2297.20
 20
402.26
 30
16.50
  0
VERTEX
  8
BORDER_D0_T132_RK1_A0_W0_EM1_RI1_ID0003
 10
2239.75
 20
420.93
 30
16.50
  0
VERTEX
  8
BORDER_D0_T132_RK1_A0_W0_EM1_RI1_ID0003
 10
2204.24
 20
469.80
 30
16.50
  0
VERTEX
  8
BORDER_D0_T132_RK1_A0_W0_EM1_RI1_ID0003
 10
2204.24
 20
530.20
 30
16.50
  0
VERTEX
  8
BORDER_D0_T132_RK1_A0_W0_EM1_RI1_ID0003
 10
2239.75
 20
579.07
 30
16.50
  0
VERTEX
  8
BORDER_D0_T132_RK1_A0_W0_EM1_RI1_ID0003
 10
2297.20
 20
597.74
 30
16.50
  0
VERTEX
  8
BORDER_D0_T132_RK1_A0_W0_EM1_RI1_ID0003
 10
2354.66
 20
579.07
 30
16.50
  0
VERTEX
  8
BORDER_D0_T132_RK1_A0_W0_EM1_RI1_ID0003
 10
2390.16
 20
530.20
 30
16.50
  0
VERTEX
  8
BORDER_D0_T132_RK1_A0_W0_EM1_RI1_ID0003
 10
2390.16
 20
469.80
 30
16.50
  0
VERTEX
  8
BORDER_D0_T132_RK1_A0_W0_EM1_RI1_ID0003
 10
2354.66
 20
420.93
 30
16.50
  0
VERTEX
  8
BORDER_D0_T132_RK1_A0_W0_EM1_RI1_ID0003
 10
2297.20
 20
402.26
 30
16.50
  0
SEQEND
  8
BORDER_D0_T132_RK1_A0_W0_EM1_RI1_ID0003
  0
POLYLINE
  8
BORDER_D0_T132_RK1_A0_W0_EM1_RI1_ID0019
 70
1
 66
1
  0
VERTEX
  8
BORDER_D0_T132_RK1_A0_W0_EM1_RI1_ID0019
 10
1771.80
 20
10.16
 30
16.50
  0
VERTEX
  8
BORDER_D0_T132_RK1_A0_W0_EM1_RI1_ID0019
 10
998.85
 20
10.16
 30
16.50
 42
-0.076784
  0
VERTEX
  8
BORDER_D0_T132_RK1_A0_W0_EM1_RI1_ID0019
 10
1010.59
 20
85.54
 30
16.50
 42
-0.068061
  0
VERTEX
  8
BORDER_D0_T132_RK1_A0_W0_EM1_RI1_ID0019
 10
1045.47
 20
158.63
 30
16.50
 42
-0.056093
  0
VERTEX
  8
BORDER_D0_T132_RK1_A0_W0_EM1_RI1_ID0019
 10
1102.41
 20
227.21
 30
16.50
 42
-0.045361
  0
VERTEX
  8
BORDER_D0_T132_RK1_A0_W0_EM1_RI1_ID0019
 10
1179.69
 20
289.19
 30
16.50
 42
-0.037263
  0
VERTEX
  8
BORDER_D0_T132_RK1_A0_W0_EM1_RI1_ID0019
 10
1274.96
 20
342.70
 30
16.50
 42
-0.031620
  0
VERTEX
  8
BORDER_D0_T132_RK1_A0_W0_EM1_RI1_ID0019
 10
1385.33
 20
386.10
 30
16.50
 42
-0.027905
  0
VERTEX
  8
BORDER_D0_T132_RK1_A0_W0_EM1_RI1_ID0019
 10
1507.44
 20
418.08
 30
16.50
 42
-0.025667
  0
VERTEX
  8
BORDER_D0_T132_RK1_A0_W0_EM1_RI1_ID0019
 10
1637.58
 20
437.67
 30
16.50
 42
-0.024617
  0
VERTEX
  8
BORDER_D0_T132_RK1_A0_W0_EM1_RI1_ID0019
 10
1771.80
 20
444.26
 30
16.50
 42
-0.024617
  0
VERTEX
  8
BORDER_D0_T132_RK1_A0_W0_EM1_RI1_ID0019
 10
1906.02
 20
437.67
 30
16.50
 42
-0.025667
  0
VERTEX
  8
BORDER_D0_T132_RK1_A0_W0_EM1_RI1_ID0019
 10
2036.16
 20
418.08
 30
16.50
 42
-0.027907
  0
VERTEX
  8
BORDER_D0_T132_RK1_A0_W0_EM1_RI1_ID0019
 10
2158.28
 20
386.10
 30
16.50
 42
-0.031618
  0
VERTEX
  8
BORDER_D0_T132_RK1_A0_W0_EM1_RI1_ID0019
 10
2268.64
 20
342.70
 30
16.50
 42
-0.037263
  0
VERTEX
  8
BORDER_D0_T132_RK1_A0_W0_EM1_RI1_ID0019
 10
2363.91
 20
289.19
 30
16.50
 42
-0.045361
  0
VERTEX
  8
BORDER_D0_T132_RK1_A0_W0_EM1_RI1_ID0019
 10
2441.19
 20
227.21
 30
16.50
 42
-0.056097
  0
VERTEX
  8
BORDER_D0_T132_RK1_A0_W0_EM1_RI1_ID0019
 10
2498.14
 20
158.63
 30
16.50
 42
-0.068057
  0
VERTEX
  8
BORDER_D0_T132_RK1_A0_W0_EM1_RI1_ID0019
 10
2533.01
 20
85.54
 30
16.50
 42
-0.076784
  0
VERTEX
  8
BORDER_D0_T132_RK1_A0_W0_EM1_RI1_ID0019
 10
2544.75
 20
10.16
 30
16.50
  0
VERTEX
  8
BORDER_D0_T132_RK1_A0_W0_EM1_RI1_ID0019
 10
1771.80
 20
10.16
 30
16.50
  0
SEQEND
  8
BORDER_D0_T132_RK1_A0_W0_EM1_RI1_ID0019
  0
POLYLINE
  8
BORDER_D0_T132_RK1_A0_W0_EM1_RI1_ID0011
 70
1
 66
1
  0
VERTEX
  8
BORDER_D0_T132_RK1_A0_W0_EM1_RI1_ID0011
 10
2680.34
 20
9.99
 30
16.50
  0
VERTEX
  8
BORDER_D0_T132_RK1_A0_W0_EM1_RI1_ID0011
 10
2652.13
 20
58.86
 30
16.50
  0
VERTEX
  8
BORDER_D0_T132_RK1_A0_W0_EM1_RI1_ID0011
 10
2595.70
 20
58.86
 30
16.50
  0
VERTEX
  8
BORDER_D0_T132_RK1_A0_W0_EM1_RI1_ID0011
 10
2623.92
 20
107.73
 30
16.50
  0
VERTEX
  8
BORDER_D0_T132_RK1_A0_W0_EM1_RI1_ID0011
 10
2595.70
 20
156.60
 30
16.50
  0
VERTEX
  8
BORDER_D0_T132_RK1_A0_W0_EM1_RI1_ID0011
 10
2652.13
 20
156.60
 30
16.50
  0
VERTEX
  8
BORDER_D0_T132_RK1_A0_W0_EM1_RI1_ID0011
 10
2680.34
 20
205.47
 30
16.50
  0
VERTEX
  8
BORDER_D0_T132_RK1_A0_W0_EM1_RI1_ID0011
 10
2708.56
 20
156.60
 30
16.50
  0
VERTEX
  8
BORDER_D0_T132_RK1_A0_W0_EM1_RI1_ID0011
 10
2764.98
 20
156.60
 30
16.50
  0
VERTEX
  8
BORDER_D0_T132_RK1_A0_W0_EM1_RI1_ID0011
 10
2736.78
 20
107.73
 30
16.50
  0
VERTEX
  8
BORDER_D0_T132_RK1_A0_W0_EM1_RI1_ID0011
 10
2764.98
 20
58.86
 30
16.50
  0
VERTEX
  8
BORDER_D0_T132_RK1_A0_W0_EM1_RI1_ID0011
 10
2708.56
 20
58.86
 30
16.50
  0
VERTEX
  8
BORDER_D0_T132_RK1_A0_W0_EM1_RI1_ID0011
 10
2680.34
 20
9.99
 30
16.50
  0
SEQEND
  8
BORDER_D0_T132_RK1_A0_W0_EM1_RI1_ID0011
  0
POLYLINE
  8
BORDER_D0_T132_RK1_A0_W0_EM1_RI1_ID0018
 70
1
 66
1
  0
VERTEX
  8
BORDER_D0_T132_RK1_A0_W0_EM1_RI1_ID0018
 10
2616.92
 20
669.60
 30
16.50
 42
-0.106572
  0
VERTEX
  8
BORDER_D0_T132_RK1_A0_W0_EM1_RI1_ID0018
 10
2633.89
 20
665.86
 30
16.50
 42
-0.081329
  0
VERTEX
  8
BORDER_D0_T132_RK1_A0_W0_EM1_RI1_ID0018
 10
2650.35
 20
654.77
 30
16.50
 42
-0.056349
  0
VERTEX
  8
BORDER_D0_T132_RK1_A0_W0_EM1_RI1_ID0018
 10
2665.79
 20
636.65
 30
16.50
 42
-0.039882
  0
VERTEX
  8
BORDER_D0_T132_RK1_A0_W0_EM1_RI1_ID0018
 10
2679.75
 20
612.06
 30
16.50
 42
-0.029934
  0
VERTEX
  8
BORDER_D0_T132_RK1_A0_W0_EM1_RI1_ID0018
 10
2691.79
 20
581.75
 30
16.50
 42
-0.023970
  0
VERTEX
  8
BORDER_D0_T132_RK1_A0_W0_EM1_RI1_ID0018
 10
2701.56
 20
546.63
 30
16.50
 42
-0.020392
  0
VERTEX
  8
BORDER_D0_T132_RK1_A0_W0_EM1_RI1_ID0018
 10
2708.77
 20
507.78
 30
16.50
 42
-0.018360
  0
VERTEX
  8
BORDER_D0_T132_RK1_A0_W0_EM1_RI1_ID0018
 10
2713.17
 20
466.37
 30
16.50
 42
-0.017437
  0
VERTEX
  8
BORDER_D0_T132_RK1_A0_W0_EM1_RI1_ID0018
 10
2714.66
 20
423.66
 30
16.50
 42
-0.017437
  0
VERTEX
  8
BORDER_D0_T132_RK1_A0_W0_EM1_RI1_ID0018
 10
2713.17
 20
380.95
 30
16.50
 42
-0.018360
  0
VERTEX
  8
BORDER_D0_T132_RK1_A0_W0_EM1_RI1_ID0018
 10
2708.77
 20
339.54
 30
16.50
 42
-0.020392
  0
VERTEX
  8
BORDER_D0_T132_RK1_A0_W0_EM1_RI1_ID0018
 10
2701.56
 20
300.69
 30
16.50
 42
-0.023970
  0
VERTEX
  8
BORDER_D0_T132_RK1_A0_W0_EM1_RI1_ID0018
 10
2691.79
 20
265.57
 30
16.50
 42
-0.029934
  0
VERTEX
  8
BORDER_D0_T132_RK1_A0_W0_EM1_RI1_ID0018
 10
2679.75
 20
235.26
 30
16.50
 42
-0.039882
  0
VERTEX
  8
BORDER_D0_T132_RK1_A0_W0_EM1_RI1_ID0018
 10
2665.79
 20
210.67
 30
16.50
 42
-0.056349
  0
VERTEX
  8
BORDER_D0_T132_RK1_A0_W0_EM1_RI1_ID0018
 10
2650.35
 20
192.55
 30
16.50
 42
-0.081329
  0
VERTEX
  8
BORDER_D0_T132_RK1_A0_W0_EM1_RI1_ID0018
 10
2633.89
 20
181.46
 30
16.50
 42
-0.106572
  0
VERTEX
  8
BORDER_D0_T132_RK1_A0_W0_EM1_RI1_ID0018
 10
2616.92
 20
177.72
 30
16.50
 42
-0.106572
  0
VERTEX
  8
BORDER_D0_T132_RK1_A0_W0_EM1_RI1_ID0018
 10
2599.95
 20
181.46
 30
16.50
 42
-0.081329
  0
VERTEX
  8
BORDER_D0_T132_RK1_A0_W0_EM1_RI1_ID0018
 10
2583.49
 20
192.55
 30
16.50
 42
-0.056348
  0
VERTEX
  8
BORDER_D0_T132_RK1_A0_W0_EM1_RI1_ID0018
 10
2568.05
 20
210.67
 30
16.50
 42
-0.039883
  0
VERTEX
  8
BORDER_D0_T132_RK1_A0_W0_EM1_RI1_ID0018
 10
2554.09
 20
235.26
 30
16.50
 42
-0.029934
  0
VERTEX
  8
BORDER_D0_T132_RK1_A0_W0_EM1_RI1_ID0018
 10
2542.05
 20
265.57
 30
16.50
 42
-0.023970
  0
VERTEX
  8
BORDER_D0_T132_RK1_A0_W0_EM1_RI1_ID0018
 10
2532.28
 20
300.69
 30
16.50
 42
-0.020392
  0
VERTEX
  8
BORDER_D0_T132_RK1_A0_W0_EM1_RI1_ID0018
 10
2525.07
 20
339.54
 30
16.50
 42
-0.018360
  0
VERTEX
  8
BORDER_D0_T132_RK1_A0_W0_EM1_RI1_ID0018
 10
2520.67
 20
380.95
 30
16.50
 42
-0.017436
  0
VERTEX
  8
BORDER_D0_T132_RK1_A0_W0_EM1_RI1_ID0018
 10
2519.18
 20
423.66
 30
16.50
 42
-0.017437
  0
VERTEX
  8
BORDER_D0_T132_RK1_A0_W0_EM1_RI1_ID0018
 10
2520.67
 20
466.37
 30
16.50
 42
-0.018360
  0
VERTEX
  8
BORDER_D0_T132_RK1_A0_W0_EM1_RI1_ID0018
 10
2525.07
 20
507.78
 30
16.50
 42
-0.020392
  0
VERTEX
  8
BORDER_D0_T132_RK1_A0_W0_EM1_RI1_ID0018
 10
2532.28
 20
546.63
 30
16.50
 42
-0.023970
  0
VERTEX
  8
BORDER_D0_T132_RK1_A0_W0_EM1_RI1_ID0018
 10
2542.05
 20
581.75
 30
16.50
 42
-0.029934
  0
VERTEX
  8
BORDER_D0_T132_RK1_A0_W0_EM1_RI1_ID0018
 10
2554.09
 20
612.06
 30
16.50
 42
-0.039883
  0
VERTEX
  8
BORDER_D0_T132_RK1_A0_W0_EM1_RI1_ID0018
 10
2568.05
 20
636.65
 30
16.50
 42
-0.056348
  0
VERTEX
  8
BORDER_D0_T132_RK1_A0_W0_EM1_RI1_ID0018
 10
2583.49
 20
654.77
 30
16.50
 42
-0.081329
  0
VERTEX
  8
BORDER_D0_T132_RK1_A0_W0_EM1_RI1_ID0018
 10
2599.95
 20
665.86
 30
16.50
 42
-0.106572
  0
VERTEX
  8
BORDER_D0_T132_RK1_A0_W0_EM1_RI1_ID0018
 10
2616.92
 20
669.60
 30
16.50
  0
SEQEND
  8
BORDER_D0_T132_RK1_A0_W0_EM1_RI1_ID0018
  0
POLYLINE
  8
BORDER_D0_T132_RK1_A0_W0_EM1_RI1_ID0018
 70
1
 66
1
  0
VERTEX
  8
BORDER_D0_T132_RK1_A0_W0_EM1_RI1_ID0018
 10
2528.14
 20
1130.59
 30
16.50
 42
-0.106572
  0
VERTEX
  8
BORDER_D0_T132_RK1_A0_W0_EM1_RI1_ID0018
 10
2545.11
 20
1126.85
 30
16.50
 42
-0.081329
  0
VERTEX
  8
BORDER_D0_T132_RK1_A0_W0_EM1_RI1_ID0018
 10
2561.57
 20
1115.76
 30
16.50
 42
-0.056349
  0
VERTEX
  8
BORDER_D0_T132_RK1_A0_W0_EM1_RI1_ID0018
 10
2577.01
 20
1097.64
 30
16.50
 42
-0.039882
  0
VERTEX
  8
BORDER_D0_T132_RK1_A0_W0_EM1_RI1_ID0018
 10
2590.97
 20
1073.05
 30
16.50
 42
-0.029934
  0
VERTEX
  8
BORDER_D0_T132_RK1_A0_W0_EM1_RI1_ID0018
 10
2603.01
 20
1042.74
 30
16.50
 42
-0.023970
  0
VERTEX
  8
BORDER_D0_T132_RK1_A0_W0_EM1_RI1_ID0018
 10
2612.78
 20
1007.62
 30
16.50
 42
-0.020392
  0
VERTEX
  8
BORDER_D0_T132_RK1_A0_W0_EM1_RI1_ID0018
 10
2619.99
 20
968.77
 30
16.50
 42
-0.018360
  0
VERTEX
  8
BORDER_D0_T132_RK1_A0_W0_EM1_RI1_ID0018
 10
2624.39
 20
927.36
 30
16.50
 42
-0.017437
  0
VERTEX
  8
BORDER_D0_T132_RK1_A0_W0_EM1_RI1_ID0018
 10
2625.88
 20
884.65
 30
16.50
 42
-0.017437
  0
VERTEX
  8
BORDER_D0_T132_RK1_A0_W0_EM1_RI1_ID0018
 10
2624.39
 20
841.94
 30
16.50
 42
-0.018360
  0
VERTEX
  8
BORDER_D0_T132_RK1_A0_W0_EM1_RI1_ID0018
 10
2619.99
 20
800.53
 30
16.50
 42
-0.020392
  0
VERTEX
  8
BORDER_D0_T132_RK1_A0_W0_EM1_RI1_ID0018
 10
2612.78
 20
761.68
 30
16.50
 42
-0.023970
  0
VERTEX
  8
BORDER_D0_T132_RK1_A0_W0_EM1_RI1_ID0018
 10
2603.01
 20
726.56
 30
16.50
 42
-0.029934
  0
VERTEX
  8
BORDER_D0_T132_RK1_A0_W0_EM1_RI1_ID0018
 10
2590.97
 20
696.25
 30
16.50
 42
-0.039882
  0
VERTEX
  8
BORDER_D0_T132_RK1_A0_W0_EM1_RI1_ID0018
 10
2577.01
 20
671.66
 30
16.50
 42
-0.056349
  0
VERTEX
  8
BORDER_D0_T132_RK1_A0_W0_EM1_RI1_ID0018
 10
2561.57
 20
653.54
 30
16.50
 42
-0.081329
  0
VERTEX
  8
BORDER_D0_T132_RK1_A0_W0_EM1_RI1_ID0018
 10
2545.11
 20
642.45
 30
16.50
 42
-0.106572
  0
VERTEX
  8
BORDER_D0_T132_RK1_A0_W0_EM1_RI1_ID0018
 10
2528.14
 20
638.71
 30
16.50
 42
-0.106572
  0
VERTEX
  8
BORDER_D0_T132_RK1_A0_W0_EM1_RI1_ID0018
 10
2511.17
 20
642.45
 30
16.50
 42
-0.081329
  0
VERTEX
  8
BORDER_D0_T132_RK1_A0_W0_EM1_RI1_ID0018
 10
2494.71
 20
653.54
 30
16.50
 42
-0.056348
  0
VERTEX
  8
BORDER_D0_T132_RK1_A0_W0_EM1_RI1_ID0018
 10
2479.27
 20
671.66
 30
16.50
 42
-0.039882
  0
VERTEX
  8
BORDER_D0_T132_RK1_A0_W0_EM1_RI1_ID0018
 10
2465.31
 20
696.25
 30
16.50
 42
-0.029934
  0
VERTEX
  8
BORDER_D0_T132_RK1_A0_W0_EM1_RI1_ID0018
 10
2453.27
 20
726.56
 30
16.50
 42
-0.023970
  0
VERTEX
  8
BORDER_D0_T132_RK1_A0_W0_EM1_RI1_ID0018
 10
2443.50
 20
761.68
 30
16.50
 42
-0.020392
  0
VERTEX
  8
BORDER_D0_T132_RK1_A0_W0_EM1_RI1_ID0018
 10
2436.29
 20
800.53
 30
16.50
 42
-0.018360
  0
VERTEX
  8
BORDER_D0_T132_RK1_A0_W0_EM1_RI1_ID0018
 10
2431.89
 20
841.94
 30
16.50
 42
-0.017436
  0
VERTEX
  8
BORDER_D0_T132_RK1_A0_W0_EM1_RI1_ID0018
 10
2430.40
 20
884.65
 30
16.50
 42
-0.017437
  0
VERTEX
  8
BORDER_D0_T132_RK1_A0_W0_EM1_RI1_ID0018
 10
2431.89
 20
927.36
 30
16.50
 42
-0.018360
  0
VERTEX
  8
BORDER_D0_T132_RK1_A0_W0_EM1_RI1_ID0018
 10
2436.29
 20
968.77
 30
16.50
 42
-0.020392
  0
VERTEX
  8
BORDER_D0_T132_RK1_A0_W0_EM1_RI1_ID0018
 10
2443.50
 20
1007.62
 30
16.50
 42
-0.023970
  0
VERTEX
  8
BORDER_D0_T132_RK1_A0_W0_EM1_RI1_ID0018
 10
2453.27
 20
1042.74
 30
16.50
 42
-0.029934
  0
VERTEX
  8
BORDER_D0_T132_RK1_A0_W0_EM1_RI1_ID0018
 10
2465.31
 20
1073.05
 30
16.50
 42
-0.039882
  0
VERTEX
  8
BORDER_D0_T132_RK1_A0_W0_EM1_RI1_ID0018
 10
2479.27
 20
1097.64
 30
16.50
 42
-0.056348
  0
VERTEX
  8
BORDER_D0_T132_RK1_A0_W0_EM1_RI1_ID0018
 10
2494.71
 20
1115.76
 30
16.50
 42
-0.081329
  0
VERTEX
  8
BORDER_D0_T132_RK1_A0_W0_EM1_RI1_ID0018
 10
2511.17
 20
1126.85
 30
16.50
 42
-0.106572
  0
VERTEX
  8
BORDER_D0_T132_RK1_A0_W0_EM1_RI1_ID0018
 10
2528.14
 20
1130.59
 30
16.50
  0
SEQEND
  8
BORDER_D0_T132_RK1_A0_W0_EM1_RI1_ID0018
  0
POLYLINE
  8
BORDER_D0_T132_RK1_A0_W0_EM1_RI1_ID0020
 70
1
 66
1
  0
VERTEX
  8
BORDER_D0_T132_RK1_A0_W0_EM1_RI1_ID0020
 10
2736.99
 20
966.68
 30
16.50
  0
VERTEX
  8
BORDER_D0_T132_RK1_A0_W0_EM1_RI1_ID0020
 10
2736.99
 20
720.74
 30
16.50
 42
-0.106572
  0
VERTEX
  8
BORDER_D0_T132_RK1_A0_W0_EM1_RI1_ID0020
 10
2720.02
 20
724.48
 30
16.50
 42
-0.081329
  0
VERTEX
  8
BORDER_D0_T132_RK1_A0_W0_EM1_RI1_ID0020
 10
2703.56
 20
735.57
 30
16.50
 42
-0.056348
  0
VERTEX
  8
BORDER_D0_T132_RK1_A0_W0_EM1_RI1_ID0020
 10
2688.12
 20
753.69
 30
16.50
 42
-0.039882
  0
VERTEX
  8
BORDER_D0_T132_RK1_A0_W0_EM1_RI1_ID0020
 10
2674.16
 20
778.28
 30
16.50
 42
-0.029934
  0
VERTEX
  8
BORDER_D0_T132_RK1_A0_W0_EM1_RI1_ID0020
 10
2662.12
 20
808.59
 30
16.50
 42
-0.023970
  0
VERTEX
  8
BORDER_D0_T132_RK1_A0_W0_EM1_RI1_ID0020
 10
2652.35
 20
843.71
 30
16.50
 42
-0.020392
  0
VERTEX
  8
BORDER_D0_T132_RK1_A0_W0_EM1_RI1_ID0020
 10
2645.14
 20
882.56
 30
16.50
 42
-0.018360
  0
VERTEX
  8
BORDER_D0_T132_RK1_A0_W0_EM1_RI1_ID0020
 10
2640.74
 20
923.97
 30
16.50
 42
-0.017437
  0
VERTEX
  8
BORDER_D0_T132_RK1_A0_W0_EM1_RI1_ID0020
 10
2639.25
 20
966.68
 30
16.50
 42
-0.017437
  0
VERTEX
  8
BORDER_D0_T132_RK1_A0_W0_EM1_RI1_ID0020
 10
2640.74
 20
1009.39
 30
16.50
 42
-0.018360
  0
VERTEX
  8
BORDER_D0_T132_RK1_A0_W0_EM1_RI1_ID0020
 10
2645.14
 20
1050.80
 30
16.50
 42
-0.020392
  0
VERTEX
  8
BORDER_D0_T132_RK1_A0_W0_EM1_RI1_ID0020
 10
2652.35
 20
1089.65
 30
16.50
 42
-0.023970
  0
VERTEX
  8
BORDER_D0_T132_RK1_A0_W0_EM1_RI1_ID0020
 10
2662.12
 20
1124.77
 30
16.50
 42
-0.029934
  0
VERTEX
  8
BORDER_D0_T132_RK1_A0_W0_EM1_RI1_ID0020
 10
2674.16
 20
1155.08
 30
16.50
 42
-0.039882
  0
VERTEX
  8
BORDER_D0_T132_RK1_A0_W0_EM1_RI1_ID0020
 10
2688.12
 20
1179.67
 30
16.50
 42
-0.056349
  0
VERTEX
  8
BORDER_D0_T132_RK1_A0_W0_EM1_RI1_ID0020
 10
2703.56
 20
1197.79
 30
16.50
 42
-0.081329
  0
VERTEX
  8
BORDER_D0_T132_RK1_A0_W0_EM1_RI1_ID0020
 10
2720.02
 20
1208.88
 30
16.50
 42
-0.106572
  0
VERTEX
  8
BORDER_D0_T132_RK1_A0_W0_EM1_RI1_ID0020
 10
2736.99
 20
1212.62
 30
16.50
  0
VERTEX
  8
BORDER_D0_T132_RK1_A0_W0_EM1_RI1_ID0020
 10
2736.99
 20
966.68
 30
16.50
  0
SEQEND
  8
BORDER_D0_T132_RK1_A0_W0_EM1_RI1_ID0020
  0
POLYLINE
  8
BORDER_D0_T132_RK1_A0_W0_EM1_RI1_ID0018
 70
1
 66
1
  0
VERTEX
  8
BORDER_D0_T132_RK1_A0_W0_EM1_RI1_ID0018
 10
2618.87
 20
1634.28
 30
16.50
 42
-0.106572
  0
VERTEX
  8
BORDER_D0_T132_RK1_A0_W0_EM1_RI1_ID0018
 10
2635.84
 20
1630.54
 30
16.50
 42
-0.081329
  0
VERTEX
  8
BORDER_D0_T132_RK1_A0_W0_EM1_RI1_ID0018
 10
2652.30
 20
1619.45
 30
16.50
 42
-0.056349
  0
VERTEX
  8
BORDER_D0_T132_RK1_A0_W0_EM1_RI1_ID0018
 10
2667.74
 20
1601.33
 30
16.50
 42
-0.039882
  0
VERTEX
  8
BORDER_D0_T132_RK1_A0_W0_EM1_RI1_ID0018
 10
2681.70
 20
1576.74
 30
16.50
 42
-0.029934
  0
VERTEX
  8
BORDER_D0_T132_RK1_A0_W0_EM1_RI1_ID0018
 10
2693.74
 20
1546.43
 30
16.50
 42
-0.023970
  0
VERTEX
  8
BORDER_D0_T132_RK1_A0_W0_EM1_RI1_ID0018
 10
2703.51
 20
1511.31
 30
16.50
 42
-0.020392
  0
VERTEX
  8
BORDER_D0_T132_RK1_A0_W0_EM1_RI1_ID0018
 10
2710.72
 20
1472.46
 30
16.50
 42
-0.018360
  0
VERTEX
  8
BORDER_D0_T132_RK1_A0_W0_EM1_RI1_ID0018
 10
2715.12
 20
1431.05
 30
16.50
 42
-0.017437
  0
VERTEX
  8
BORDER_D0_T132_RK1_A0_W0_EM1_RI1_ID0018
 10
2716.61
 20
1388.34
 30
16.50
 42
-0.017437
  0
VERTEX
  8
BORDER_D0_T132_RK1_A0_W0_EM1_RI1_ID0018
 10
2715.12
 20
1345.63
 30
16.50
 42
-0.018360
  0
VERTEX
  8
BORDER_D0_T132_RK1_A0_W0_EM1_RI1_ID0018
 10
2710.72
 20
1304.22
 30
16.50
 42
-0.020392
  0
VERTEX
  8
BORDER_D0_T132_RK1_A0_W0_EM1_RI1_ID0018
 10
2703.51
 20
1265.37
 30
16.50
 42
-0.023970
  0
VERTEX
  8
BORDER_D0_T132_RK1_A0_W0_EM1_RI1_ID0018
 10
2693.74
 20
1230.25
 30
16.50
 42
-0.029934
  0
VERTEX
  8
BORDER_D0_T132_RK1_A0_W0_EM1_RI1_ID0018
 10
2681.70
 20
1199.94
 30
16.50
 42
-0.039882
  0
VERTEX
  8
BORDER_D0_T132_RK1_A0_W0_EM1_RI1_ID0018
 10
2667.74
 20
1175.35
 30
16.50
 42
-0.056349
  0
VERTEX
  8
BORDER_D0_T132_RK1_A0_W0_EM1_RI1_ID0018
 10
2652.30
 20
1157.23
 30
16.50
 42
-0.081329
  0
VERTEX
  8
BORDER_D0_T132_RK1_A0_W0_EM1_RI1_ID0018
 10
2635.84
 20
1146.14
 30
16.50
 42
-0.106572
  0
VERTEX
  8
BORDER_D0_T132_RK1_A0_W0_EM1_RI1_ID0018
 10
2618.87
 20
1142.40
 30
16.50
 42
-0.106572
  0
VERTEX
  8
BORDER_D0_T132_RK1_A0_W0_EM1_RI1_ID0018
 10
2601.90
 20
1146.14
 30
16.50
 42
-0.081329
  0
VERTEX
  8
BORDER_D0_T132_RK1_A0_W0_EM1_RI1_ID0018
 10
2585.44
 20
1157.23
 30
16.50
 42
-0.056348
  0
VERTEX
  8
BORDER_D0_T132_RK1_A0_W0_EM1_RI1_ID0018
 10
2570.00
 20
1175.35
 30
16.50
 42
-0.039883
  0
VERTEX
  8
BORDER_D0_T132_RK1_A0_W0_EM1_RI1_ID0018
 10
2556.04
 20
1199.94
 30
16.50
 42
-0.029934
  0
VERTEX
  8
BORDER_D0_T132_RK1_A0_W0_EM1_RI1_ID0018
 10
2544.00
 20
1230.25
 30
16.50
 42
-0.023970
  0
VERTEX
  8
BORDER_D0_T132_RK1_A0_W0_EM1_RI1_ID0018
 10
2534.23
 20
1265.37
 30
16.50
 42
-0.020392
  0
VERTEX
  8
BORDER_D0_T132_RK1_A0_W0_EM1_RI1_ID0018
 10
2527.02
 20
1304.22
 30
16.50
 42
-0.018360
  0
VERTEX
  8
BORDER_D0_T132_RK1_A0_W0_EM1_RI1_ID0018
 10
2522.62
 20
1345.63
 30
16.50
 42
-0.017437
  0
VERTEX
  8
BORDER_D0_T132_RK1_A0_W0_EM1_RI1_ID0018
 10
2521.13
 20
1388.34
 30
16.50
 42
-0.017436
  0
VERTEX
  8
BORDER_D0_T132_RK1_A0_W0_EM1_RI1_ID0018
 10
2522.62
 20
1431.05
 30
16.50
 42
-0.018360
  0
VERTEX
  8
BORDER_D0_T132_RK1_A0_W0_EM1_RI1_ID0018
 10
2527.02
 20
1472.46
 30
16.50
 42
-0.020392
  0
VERTEX
  8
BORDER_D0_T132_RK1_A0_W0_EM1_RI1_ID0018
 10
2534.23
 20
1511.31
 30
16.50
 42
-0.023970
  0
VERTEX
  8
BORDER_D0_T132_RK1_A0_W0_EM1_RI1_ID0018
 10
2544.00
 20
1546.43
 30
16.50
 42
-0.029934
  0
VERTEX
  8
BORDER_D0_T132_RK1_A0_W0_EM1_RI1_ID0018
 10
2556.04
 20
1576.74
 30
16.50
 42
-0.039883
  0
VERTEX
  8
BORDER_D0_T132_RK1_A0_W0_EM1_RI1_ID0018
 10
2570.00
 20
1601.33
 30
16.50
 42
-0.056348
  0
VERTEX
  8
BORDER_D0_T132_RK1_A0_W0_EM1_RI1_ID0018
 10
2585.44
 20
1619.45
 30
16.50
 42
-0.081329
  0
VERTEX
  8
BORDER_D0_T132_RK1_A0_W0_EM1_RI1_ID0018
 10
2601.90
 20
1630.54
 30
16.50
 42
-0.106572
  0
VERTEX
  8
BORDER_D0_T132_RK1_A0_W0_EM1_RI1_ID0018
 10
2618.87
 20
1634.28
 30
16.50
  0
SEQEND
  8
BORDER_D0_T132_RK1_A0_W0_EM1_RI1_ID0018
  0
POLYLINE
  8
BORDER_D0_T132_RK1_A0_W0_EM1_RI1_ID0018
 70
1
 66
1
  0
VERTEX
  8
BORDER_D0_T132_RK1_A0_W0_EM1_RI1_ID0018
 10
2491.38
 20
2040.00
 30
16.50
 42
-0.106572
  0
VERTEX
  8
BORDER_D0_T132_RK1_A0_W0_EM1_RI1_ID0018
 10
2508.35
 20
2036.26
 30
16.50
 42
-0.081329
  0
VERTEX
  8
BORDER_D0_T132_RK1_A0_W0_EM1_RI1_ID0018
 10
2524.81
 20
2025.17
 30
16.50
 42
-0.056348
  0
VERTEX
  8
BORDER_D0_T132_RK1_A0_W0_EM1_RI1_ID0018
 10
2540.25
 20
2007.05
 30
16.50
 42
-0.039882
  0
VERTEX
  8
BORDER_D0_T132_RK1_A0_W0_EM1_RI1_ID0018
 10
2554.21
 20
1982.46
 30
16.50
 42
-0.029934
  0
VERTEX
  8
BORDER_D0_T132_RK1_A0_W0_EM1_RI1_ID0018
 10
2566.25
 20
1952.15
 30
16.50
 42
-0.023970
  0
VERTEX
  8
BORDER_D0_T132_RK1_A0_W0_EM1_RI1_ID0018
 10
2576.02
 20
1917.03
 30
16.50
 42
-0.020392
  0
VERTEX
  8
BORDER_D0_T132_RK1_A0_W0_EM1_RI1_ID0018
 10
2583.23
 20
1878.18
 30
16.50
 42
-0.018360
  0
VERTEX
  8
BORDER_D0_T132_RK1_A0_W0_EM1_RI1_ID0018
 10
2587.63
 20
1836.77
 30
16.50
 42
-0.017437
  0
VERTEX
  8
BORDER_D0_T132_RK1_A0_W0_EM1_RI1_ID0018
 10
2589.12
 20
1794.06
 30
16.50
 42
-0.017437
  0
VERTEX
  8
BORDER_D0_T132_RK1_A0_W0_EM1_RI1_ID0018
 10
2587.63
 20
1751.35
 30
16.50
 42
-0.018360
  0
VERTEX
  8
BORDER_D0_T132_RK1_A0_W0_EM1_RI1_ID0018
 10
2583.23
 20
1709.94
 30
16.50
 42
-0.020392
  0
VERTEX
  8
BORDER_D0_T132_RK1_A0_W0_EM1_RI1_ID0018
 10
2576.02
 20
1671.09
 30
16.50
 42
-0.023970
  0
VERTEX
  8
BORDER_D0_T132_RK1_A0_W0_EM1_RI1_ID0018
 10
2566.25
 20
1635.97
 30
16.50
 42
-0.029934
  0
VERTEX
  8
BORDER_D0_T132_RK1_A0_W0_EM1_RI1_ID0018
 10
2554.21
 20
1605.66
 30
16.50
 42
-0.039882
  0
VERTEX
  8
BORDER_D0_T132_RK1_A0_W0_EM1_RI1_ID0018
 10
2540.25
 20
1581.07
 30
16.50
 42
-0.056349
  0
VERTEX
  8
BORDER_D0_T132_RK1_A0_W0_EM1_RI1_ID0018
 10
2524.81
 20
1562.95
 30
16.50
 42
-0.081329
  0
VERTEX
  8
BORDER_D0_T132_RK1_A0_W0_EM1_RI1_ID0018
 10
2508.35
 20
1551.86
 30
16.50
 42
-0.106572
  0
VERTEX
  8
BORDER_D0_T132_RK1_A0_W0_EM1_RI1_ID0018
 10
2491.38
 20
1548.12
 30
16.50
 42
-0.106572
  0
VERTEX
  8
BORDER_D0_T132_RK1_A0_W0_EM1_RI1_ID0018
 10
2474.41
 20
1551.86
 30
16.50
 42
-0.081329
  0
VERTEX
  8
BORDER_D0_T132_RK1_A0_W0_EM1_RI1_ID0018
 10
2457.95
 20
1562.95
 30
16.50
 42
-0.056348
  0
VERTEX
  8
BORDER_D0_T132_RK1_A0_W0_EM1_RI1_ID0018
 10
2442.51
 20
1581.07
 30
16.50
 42
-0.039883
  0
VERTEX
  8
BORDER_D0_T132_RK1_A0_W0_EM1_RI1_ID0018
 10
2428.55
 20
1605.66
 30
16.50
 42
-0.029934
  0
VERTEX
  8
BORDER_D0_T132_RK1_A0_W0_EM1_RI1_ID0018
 10
2416.51
 20
1635.97
 30
16.50
 42
-0.023970
  0
VERTEX
  8
BORDER_D0_T132_RK1_A0_W0_EM1_RI1_ID0018
 10
2406.74
 20
1671.09
 30
16.50
 42
-0.020392
  0
VERTEX
  8
BORDER_D0_T132_RK1_A0_W0_EM1_RI1_ID0018
 10
2399.53
 20
1709.94
 30
16.50
 42
-0.018360
  0
VERTEX
  8
BORDER_D0_T132_RK1_A0_W0_EM1_RI1_ID0018
 10
2395.13
 20
1751.35
 30
16.50
 42
-0.017437
  0
VERTEX
  8
BORDER_D0_T132_RK1_A0_W0_EM1_RI1_ID0018
 10
2393.64
 20
1794.06
 30
16.50
 42
-0.017436
  0
VERTEX
  8
BORDER_D0_T132_RK1_A0_W0_EM1_RI1_ID0018
 10
2395.13
 20
1836.77
 30
16.50
 42
-0.018360
  0
VERTEX
  8
BORDER_D0_T132_RK1_A0_W0_EM1_RI1_ID0018
 10
2399.53
 20
1878.18
 30
16.50
 42
-0.020392
  0
VERTEX
  8
BORDER_D0_T132_RK1_A0_W0_EM1_RI1_ID0018
 10
2406.74
 20
1917.03
 30
16.50
 42
-0.023970
  0
VERTEX
  8
BORDER_D0_T132_RK1_A0_W0_EM1_RI1_ID0018
 10
2416.51
 20
1952.15
 30
16.50
 42
-0.029934
  0
VERTEX
  8
BORDER_D0_T132_RK1_A0_W0_EM1_RI1_ID0018
 10
2428.55
 20
1982.46
 30
16.50
 42
-0.039883
  0
VERTEX
  8
BORDER_D0_T132_RK1_A0_W0_EM1_RI1_ID0018
 10
2442.51
 20
2007.05
 30
16.50
 42
-0.056348
  0
VERTEX
  8
BORDER_D0_T132_RK1_A0_W0_EM1_RI1_ID0018
 10
2457.95
 20
2025.17
 30
16.50
 42
-0.081329
  0
VERTEX
  8
BORDER_D0_T132_RK1_A0_W0_EM1_RI1_ID0018
 10
2474.41
 20
2036.26
 30
16.50
 42
-0.106572
  0
VERTEX
  8
BORDER_D0_T132_RK1_A0_W0_EM1_RI1_ID0018
 10
2491.38
 20
2040.00
 30
16.50
  0
SEQEND
  8
BORDER_D0_T132_RK1_A0_W0_EM1_RI1_ID0018
  0
POLYLINE
  8
BORDER_D0_T132_RK1_A0_W0_EM1_RI1_ID0020
 70
1
 66
1
  0
VERTEX
  8
BORDER_D0_T132_RK1_A0_W0_EM1_RI1_ID0020
 10
2746.39
 20
1794.06
 30
16.50
  0
VERTEX
  8
BORDER_D0_T132_RK1_A0_W0_EM1_RI1_ID0020
 10
2746.39
 20
1548.12
 30
16.50
 42
-0.106572
  0
VERTEX
  8
BORDER_D0_T132_RK1_A0_W0_EM1_RI1_ID0020
 10
2729.42
 20
1551.86
 30
16.50
 42
-0.081329
  0
VERTEX
  8
BORDER_D0_T132_RK1_A0_W0_EM1_RI1_ID0020
 10
2712.96
 20
1562.95
 30
16.50
 42
-0.056348
  0
VERTEX
  8
BORDER_D0_T132_RK1_A0_W0_EM1_RI1_ID0020
 10
2697.52
 20
1581.07
 30
16.50
 42
-0.039883
  0
VERTEX
  8
BORDER_D0_T132_RK1_A0_W0_EM1_RI1_ID0020
 10
2683.56
 20
1605.66
 30
16.50
 42
-0.029934
  0
VERTEX
  8
BORDER_D0_T132_RK1_A0_W0_EM1_RI1_ID0020
 10
2671.52
 20
1635.97
 30
16.50
 42
-0.023970
  0
VERTEX
  8
BORDER_D0_T132_RK1_A0_W0_EM1_RI1_ID0020
 10
2661.75
 20
1671.09
 30
16.50
 42
-0.020392
  0
VERTEX
  8
BORDER_D0_T132_RK1_A0_W0_EM1_RI1_ID0020
 10
2654.54
 20
1709.94
 30
16.50
 42
-0.018360
  0
VERTEX
  8
BORDER_D0_T132_RK1_A0_W0_EM1_RI1_ID0020
 10
2650.14
 20
1751.35
 30
16.50
 42
-0.017437
  0
VERTEX
  8
BORDER_D0_T132_RK1_A0_W0_EM1_RI1_ID0020
 10
2648.65
 20
1794.06
 30
16.50
 42
-0.017436
  0
VERTEX
  8
BORDER_D0_T132_RK1_A0_W0_EM1_RI1_ID0020
 10
2650.14
 20
1836.77
 30
16.50
 42
-0.018360
  0
VERTEX
  8
BORDER_D0_T132_RK1_A0_W0_EM1_RI1_ID0020
 10
2654.54
 20
1878.18
 30
16.50
 42
-0.020392
  0
VERTEX
  8
BORDER_D0_T132_RK1_A0_W0_EM1_RI1_ID0020
 10
2661.75
 20
1917.03
 30
16.50
 42
-0.023970
  0
VERTEX
  8
BORDER_D0_T132_RK1_A0_W0_EM1_RI1_ID0020
 10
2671.52
 20
1952.15
 30
16.50
 42
-0.029934
  0
VERTEX
  8
BORDER_D0_T132_RK1_A0_W0_EM1_RI1_ID0020
 10
2683.56
 20
1982.46
 30
16.50
 42
-0.039883
  0
VERTEX
  8
BORDER_D0_T132_RK1_A0_W0_EM1_RI1_ID0020
 10
2697.52
 20
2007.05
 30
16.50
 42
-0.056348
  0
VERTEX
  8
BORDER_D0_T132_RK1_A0_W0_EM1_RI1_ID0020
 10
2712.96
 20
2025.17
 30
16.50
 42
-0.081329
  0
VERTEX
  8
BORDER_D0_T132_RK1_A0_W0_EM1_RI1_ID0020
 10
2729.42
 20
2036.26
 30
16.50
 42
-0.106572
  0
VERTEX
  8
BORDER_D0_T132_RK1_A0_W0_EM1_RI1_ID0020
 10
2746.39
 20
2040.00
 30
16.50
  0
VERTEX
  8
BORDER_D0_T132_RK1_A0_W0_EM1_RI1_ID0020
 10
2746.39
 20
1794.06
 30
16.50
  0
SEQEND
  8
BORDER_D0_T132_RK1_A0_W0_EM1_RI1_ID0020
  0
POLYLINE
  8
BORDER_D0_T132.1_RK1_A0_W0_EM1
 70
1
 66
1
  0
VERTEX
  8
BORDER_D0_T132.1_RK1_A0_W0_EM1
 10
211.07
 20
77.26
 30
18.20
  0
VERTEX
  8
BORDER_D0_T132.1_RK1_A0_W0_EM1
 10
126.43
 20
126.13
 30
18.20
  0
VERTEX
  8
BORDER_D0_T132.1_RK1_A0_W0_EM1
 10
126.43
 20
223.87
 30
18.20
  0
VERTEX
  8
BORDER_D0_T132.1_RK1_A0_W0_EM1
 10
211.07
 20
272.74
 30
18.20
  0
VERTEX
  8
BORDER_D0_T132.1_RK1_A0_W0_EM1
 10
295.72
 20
223.87
 30
18.20
  0
VERTEX
  8
BORDER_D0_T132.1_RK1_A0_W0_EM1
 10
295.72
 20
126.13
 30
18.20
  0
VERTEX
  8
BORDER_D0_T132.1_RK1_A0_W0_EM1
 10
211.07
 20
77.26
 30
18.20
  0
SEQEND
  8
BORDER_D0_T132.1_RK1_A0_W0_EM1
  0
POLYLINE
  8
BORDER_D0_T132.1_RK1_A0_W0_EM1
 70
1
 66
1
  0
VERTEX
  8
BORDER_D0_T132.1_RK1_A0_W0_EM1
 10
399.26
 20
30.80
 30
18.20
  0
VERTEX
  8
BORDER_D0_T132.1_RK1_A0_W0_EM1
 10
727.18
 20
30.80
 30
18.20
  0
VERTEX
  8
BORDER_D0_T132.1_RK1_A0_W0_EM1
 10
727.18
 20
11.25
 30
18.20
  0
VERTEX
  8
BORDER_D0_T132.1_RK1_A0_W0_EM1
 10
399.26
 20
11.25
 30
18.20
 42
-0.220731
  0
VERTEX
  8
BORDER_D0_T132.1_RK1_A0_W0_EM1
 10
247.22
 20
74.23
 30
18.20
  0
VERTEX
  8
BORDER_D0_T132.1_RK1_A0_W0_EM1
 10
261.04
 20
88.06
 30
18.20
 42
0.198912
  0
VERTEX
  8
BORDER_D0_T132.1_RK1_A0_W0_EM1
 10
399.26
 20
30.80
 30
18.20
  0
SEQEND
  8
BORDER_D0_T132.1_RK1_A0_W0_EM1
  0
POLYLINE
  8
BORDER_D0_T132.1_RK1_A0_W0_EM1
 70
1
 66
1
  0
VERTEX
  8
BORDER_D0_T132.1_RK1_A0_W0_EM1
 10
403.41
 20
104.47
 30
18.20
  0
VERTEX
  8
BORDER_D0_T132.1_RK1_A0_W0_EM1
 10
345.96
 20
123.14
 30
18.20
  0
VERTEX
  8
BORDER_D0_T132.1_RK1_A0_W0_EM1
 10
310.46
 20
172.01
 30
18.20
  0
VERTEX
  8
BORDER_D0_T132.1_RK1_A0_W0_EM1
 10
310.46
 20
232.42
 30
18.20
  0
VERTEX
  8
BORDER_D0_T132.1_RK1_A0_W0_EM1
 10
345.96
 20
281.29
 30
18.20
  0
VERTEX
  8
BORDER_D0_T132.1_RK1_A0_W0_EM1
 10
403.41
 20
299.95
 30
18.20
  0
VERTEX
  8
BORDER_D0_T132.1_RK1_A0_W0_EM1
 10
460.86
 20
281.29
 30
18.20
  0
VERTEX
  8
BORDER_D0_T132.1_RK1_A0_W0_EM1
 10
496.37
 20
232.42
 30
18.20
  0
VERTEX
  8
BORDER_D0_T132.1_RK1_A0_W0_EM1
 10
496.37
 20
172.01
 30
18.20
  0
VERTEX
  8
BORDER_D0_T132.1_RK1_A0_W0_EM1
 10
460.86
 20
123.14
 30
18.20
  0
VERTEX
  8
BORDER_D0_T132.1_RK1_A0_W0_EM1
 10
403.41
 20
104.47
 30
18.20
  0
SEQEND
  8
BORDER_D0_T132.1_RK1_A0_W0_EM1
  0
POLYLINE
  8
BORDER_D0_T132.1_RK1_A0_W0_EM1
 70
1
 66
1
  0
VERTEX
  8
BORDER_D0_T132.1_RK1_A0_W0_EM1
 10
492.64
 20
265.03
 30
18.20
  0
VERTEX
  8
BORDER_D0_T132.1_RK1_A0_W0_EM1
 10
541.81
 20
265.03
 30
18.20
 42
-0.333267
  0
VERTEX
  8
BORDER_D0_T132.1_RK1_A0_W0_EM1
 10
541.81
 20
69.55
 30
18.20
  0
VERTEX
  8
BORDER_D0_T132.1_RK1_A0_W0_EM1
 10
492.64
 20
69.55
 30
18.20
 42
0.469337
  0
VERTEX
  8
BORDER_D0_T132.1_RK1_A0_W0_EM1
 10
492.64
 20
265.03
 30
18.20
  0
SEQEND
  8
BORDER_D0_T132.1_RK1_A0_W0_EM1
  0
POLYLINE
  8
BORDER_D0_T132.1_RK1_A0_W0_EM1
 70
1
 66
1
  0
VERTEX
  8
BORDER_D0_T132.1_RK1_A0_W0_EM1
 10
785.31
 20
153.08
 30
18.20
  0
VERTEX
  8
BORDER_D0_T132.1_RK1_A0_W0_EM1
 10
766.65
 20
95.63
 30
18.20
  0
VERTEX
  8
BORDER_D0_T132.1_RK1_A0_W0_EM1
 10
717.78
 20
60.12
 30
18.20
  0
VERTEX
  8
BORDER_D0_T132.1_RK1_A0_W0_EM1
 10
657.37
 20
60.12
 30
18.20
  0
VERTEX
  8
BORDER_D0_T132.1_RK1_A0_W0_EM1
 10
608.50
 20
95.63
 30
18.20
  0
VERTEX
  8
BORDER_D0_T132.1_RK1_A0_W0_EM1
 10
589.83
 20
153.08
 30
18.20
  0
VERTEX
  8
BORDER_D0_T132.1_RK1_A0_W0_EM1
 10
608.50
 20
210.53
 30
18.20
  0
VERTEX
  8
BORDER_D0_T132.1_RK1_A0_W0_EM1
 10
657.37
 20
246.03
 30
18.20
  0
VERTEX
  8
BORDER_D0_T132.1_RK1_A0_W0_EM1
 10
717.78
 20
246.03
 30
18.20
  0
VERTEX
  8
BORDER_D0_T132.1_RK1_A0_W0_EM1
 10
766.65
 20
210.53
 30
18.20
  0
VERTEX
  8
BORDER_D0_T132.1_RK1_A0_W0_EM1
 10
785.31
 20
153.08
 30
18.20
  0
SEQEND
  8
BORDER_D0_T132.1_RK1_A0_W0_EM1
  0
POLYLINE
  8
BORDER_D0_T132.1_RK1_A0_W0_EM1
 70
1
 66
1
  0
VERTEX
  8
BORDER_D0_T132.1_RK1_A0_W0_EM1
 10
905.46
 20
52.48
 30
18.20
  0
VERTEX
  8
BORDER_D0_T132.1_RK1_A0_W0_EM1
 10
820.81
 20
101.35
 30
18.20
  0
VERTEX
  8
BORDER_D0_T132.1_RK1_A0_W0_EM1
 10
820.81
 20
199.09
 30
18.20
  0
VERTEX
  8
BORDER_D0_T132.1_RK1_A0_W0_EM1
 10
905.46
 20
247.96
 30
18.20
  0
VERTEX
  8
BORDER_D0_T132.1_RK1_A0_W0_EM1
 10
990.10
 20
199.09
 30
18.20
  0
VERTEX
  8
BORDER_D0_T132.1_RK1_A0_W0_EM1
 10
990.10
 20
101.35
 30
18.20
  0
VERTEX
  8
BORDER_D0_T132.1_RK1_A0_W0_EM1
 10
905.46
 20
52.48
 30
18.20
  0
SEQEND
  8
BORDER_D0_T132.1_RK1_A0_W0_EM1
  0
POLYLINE
  8
BORDER_D0_T132.1_RK1_A0_W0_EM1
 70
1
 66
1
  0
VERTEX
  8
BORDER_D0_T132.1_RK1_A0_W0_EM1
 10
205.48
 20
340.96
 30
18.20
  0
VERTEX
  8
BORDER_D0_T132.1_RK1_A0_W0_EM1
 10
186.81
 20
283.51
 30
18.20
  0
VERTEX
  8
BORDER_D0_T132.1_RK1_A0_W0_EM1
 10
137.94
 20
248.01
 30
18.20
  0
VERTEX
  8
BORDER_D0_T132.1_RK1_A0_W0_EM1
 10
77.54
 20
248.01
 30
18.20
  0
VERTEX
  8
BORDER_D0_T132.1_RK1_A0_W0_EM1
 10
28.67
 20
283.51
 30
18.20
  0
VERTEX
  8
BORDER_D0_T132.1_RK1_A0_W0_EM1
 10
10.00
 20
340.96
 30
18.20
  0
VERTEX
  8
BORDER_D0_T132.1_RK1_A0_W0_EM1
 10
28.67
 20
398.41
 30
18.20
  0
VERTEX
  8
BORDER_D0_T132.1_RK1_A0_W0_EM1
 10
77.54
 20
433.92
 30
18.20
  0
VERTEX
  8
BORDER_D0_T132.1_RK1_A0_W0_EM1
 10
137.94
 20
433.92
 30
18.20
  0
VERTEX
  8
BORDER_D0_T132.1_RK1_A0_W0_EM1
 10
186.81
 20
398.41
 30
18.20
  0
VERTEX
  8
BORDER_D0_T132.1_RK1_A0_W0_EM1
 10
205.48
 20
340.96
 30
18.20
  0
SEQEND
  8
BORDER_D0_T132.1_RK1_A0_W0_EM1
  0
POLYLINE
  8
BORDER_D0_T132.1_RK1_A0_W0_EM1
 70
1
 66
1
  0
VERTEX
  8
BORDER_D0_T132.1_RK1_A0_W0_EM1
 10
10.00
 20
693.60
 30
18.20
  0
VERTEX
  8
BORDER_D0_T132.1_RK1_A0_W0_EM1
 10
1555.90
 20
693.60
 30
18.20
 42
-0.076786
  0
VERTEX
  8
BORDER_D0_T132.1_RK1_A0_W0_EM1
 10
1544.16
 20
618.22
 30
18.20
 42
-0.068058
  0
VERTEX
  8
BORDER_D0_T132.1_RK1_A0_W0_EM1
 10
1509.29
 20
545.13
 30
18.20
 42
-0.056093
  0
VERTEX
  8
BORDER_D0_T132.1_RK1_A0_W0_EM1
 10
1452.34
 20
476.55
 30
18.20
 42
-0.045362
  0
VERTEX
  8
BORDER_D0_T132.1_RK1_A0_W0_EM1
 10
1375.06
 20
414.57
 30
18.20
 42
-0.037263
  0
VERTEX
  8
BORDER_D0_T132.1_RK1_A0_W0_EM1
 10
1279.79
 20
361.06
 30
18.20
 42
-0.031620
  0
VERTEX
  8
BORDER_D0_T132.1_RK1_A0_W0_EM1
 10
1169.43
 20
317.66
 30
18.20
 42
-0.027905
  0
VERTEX
  8
BORDER_D0_T132.1_RK1_A0_W0_EM1
 10
1047.31
 20
285.68
 30
18.20
 42
-0.025667
  0
VERTEX
  8
BORDER_D0_T132.1_RK1_A0_W0_EM1
 10
917.17
 20
266.10
 30
18.20
 42
-0.024617
  0
VERTEX
  8
BORDER_D0_T132.1_RK1_A0_W0_EM1
 10
782.95
 20
259.50
 30
18.20
 42
-0.024617
  0
VERTEX
  8
BORDER_D0_T132.1_RK1_A0_W0_EM1
 10
648.73
 20
266.10
 30
18.20
 42
-0.025667
  0
VERTEX
  8
BORDER_D0_T132.1_RK1_A0_W0_EM1
 10
518.59
 20
285.68
 30
18.20
 42
-0.027905
  0
VERTEX
  8
BORDER_D0_T132.1_RK1_A0_W0_EM1
 10
396.48
 20
317.66
 30
18.20
 42
-0.031620
  0
VERTEX
  8
BORDER_D0_T132.1_RK1_A0_W0_EM1
 10
286.11
 20
361.06
 30
18.20
 42
-0.037263
  0
VERTEX
  8
BORDER_D0_T132.1_RK1_A0_W0_EM1
 10
190.84
 20
414.57
 30
18.20
 42
-0.045362
  0
VERTEX
  8
BORDER_D0_T132.1_RK1_A0_W0_EM1
 10
113.56
 20
476.55
 30
18.20
 42
-0.056093
  0
VERTEX
  8
BORDER_D0_T132.1_RK1_A0_W0_EM1
 10
56.62
 20
545.13
 30
18.20
 42
-0.068058
  0
VERTEX
  8
BORDER_D0_T132.1_RK1_A0_W0_EM1
 10
21.74
 20
618.22
 30
18.20
 42
-0.076786
  0
VERTEX
  8
BORDER_D0_T132.1_RK1_A0_W0_EM1
 10
10.00
 20
693.60
 30
18.20
  0
SEQEND
  8
BORDER_D0_T132.1_RK1_A0_W0_EM1
  0
POLYLINE
  8
BORDER_D0_T132.1_RK1_A0_W0_EM1
 70
1
 66
1
  0
VERTEX
  8
BORDER_D0_T132.1_RK1_A0_W0_EM1
 10
10.00
 20
1142.40
 30
18.20
  0
VERTEX
  8
BORDER_D0_T132.1_RK1_A0_W0_EM1
 10
1555.90
 20
1142.40
 30
18.20
 42
-0.076786
  0
VERTEX
  8
BORDER_D0_T132.1_RK1_A0_W0_EM1
 10
1544.16
 20
1067.02
 30
18.20
 42
-0.068058
  0
VERTEX
  8
BORDER_D0_T132.1_RK1_A0_W0_EM1
 10
1509.29
 20
993.93
 30
18.20
 42
-0.056093
  0
VERTEX
  8
BORDER_D0_T132.1_RK1_A0_W0_EM1
 10
1452.34
 20
925.35
 30
18.20
 42
-0.045362
  0
VERTEX
  8
BORDER_D0_T132.1_RK1_A0_W0_EM1
 10
1375.06
 20
863.37
 30
18.20
 42
-0.037263
  0
VERTEX
  8
BORDER_D0_T132.1_RK1_A0_W0_EM1
 10
1279.79
 20
809.86
 30
18.20
 42
-0.031620
  0
VERTEX
  8
BORDER_D0_T132.1_RK1_A0_W0_EM1
 10
1169.43
 20
766.46
 30
18.20
 42
-0.027905
  0
VERTEX
  8
BORDER_D0_T132.1_RK1_A0_W0_EM1
 10
1047.31
 20
734.48
 30
18.20
 42
-0.025667
  0
VERTEX
  8
BORDER_D0_T132.1_RK1_A0_W0_EM1
 10
917.17
 20
714.90
 30
18.20
 42
-0.024617
  0
VERTEX
  8
BORDER_D0_T132.1_RK1_A0_W0_EM1
 10
782.95
 20
708.30
 30
18.20
 42
-0.024617
  0
VERTEX
  8
BORDER_D0_T132.1_RK1_A0_W0_EM1
 10
648.73
 20
714.90
 30
18.20
 42
-0.025667
  0
VERTEX
  8
BORDER_D0_T132.1_RK1_A0_W0_EM1
 10
518.59
 20
734.48
 30
18.20
 42
-0.027905
  0
VERTEX
  8
BORDER_D0_T132.1_RK1_A0_W0_EM1
 10
396.48
 20
766.46
 30
18.20
 42
-0.031620
  0
VERTEX
  8
BORDER_D0_T132.1_RK1_A0_W0_EM1
 10
286.11
 20
809.86
 30
18.20
 42
-0.037263
  0
VERTEX
  8
BORDER_D0_T132.1_RK1_A0_W0_EM1
 10
190.84
 20
863.37
 30
18.20
 42
-0.045362
  0
VERTEX
  8
BORDER_D0_T132.1_RK1_A0_W0_EM1
 10
113.56
 20
925.35
 30
18.20
 42
-0.056093
  0
VERTEX
  8
BORDER_D0_T132.1_RK1_A0_W0_EM1
 10
56.62
 20
993.93
 30
18.20
 42
-0.068058
  0
VERTEX
  8
BORDER_D0_T132.1_RK1_A0_W0_EM1
 10
21.74
 20
1067.02
 30
18.20
 42
-0.076786
  0
VERTEX
  8
BORDER_D0_T132.1_RK1_A0_W0_EM1
 10
10.00
 20
1142.40
 30
18.20
  0
SEQEND
  8
BORDER_D0_T132.1_RK1_A0_W0_EM1
  0
POLYLINE
  8
BORDER_D0_T132.1_RK1_A0_W0_EM1
 70
1
 66
1
  0
VERTEX
  8
BORDER_D0_T132.1_RK1_A0_W0_EM1
 10
10.00
 20
1233.67
 30
18.20
  0
VERTEX
  8
BORDER_D0_T132.1_RK1_A0_W0_EM1
 10
10.00
 20
1282.83
 30
18.20
 42
-0.333267
  0
VERTEX
  8
BORDER_D0_T132.1_RK1_A0_W0_EM1
 10
205.48
 20
1282.83
 30
18.20
  0
VERTEX
  8
BORDER_D0_T132.1_RK1_A0_W0_EM1
 10
205.48
 20
1233.67
 30
18.20
 42
0.469337
  0
VERTEX
  8
BORDER_D0_T132.1_RK1_A0_W0_EM1
 10
10.00
 20
1233.67
 30
18.20
  0
SEQEND
  8
BORDER_D0_T132.1_RK1_A0_W0_EM1
  0
POLYLINE
  8
BORDER_D0_T132.1_RK1_A0_W0_EM1
 70
1
 66
1
  0
VERTEX
  8
BORDER_D0_T132.1_RK1_A0_W0_EM1
 10
10.00
 20
1591.20
 30
18.20
  0
VERTEX
  8
BORDER_D0_T132.1_RK1_A0_W0_EM1
 10
1555.90
 20
1591.20
 30
18.20
 42
-0.076786
  0
VERTEX
  8
BORDER_D0_T132.1_RK1_A0_W0_EM1
 10
1544.16
 20
1515.82
 30
18.20
 42
-0.068058
  0
VERTEX
  8
BORDER_D0_T132.1_RK1_A0_W0_EM1
 10
1509.29
 20
1442.73
 30
18.20
 42
-0.056093
  0
VERTEX
  8
BORDER_D0_T132.1_RK1_A0_W0_EM1
 10
1452.34
 20
1374.15
 30
18.20
 42
-0.045362
  0
VERTEX
  8
BORDER_D0_T132.1_RK1_A0_W0_EM1
 10
1375.06
 20
1312.17
 30
18.20
 42
-0.037263
  0
VERTEX
  8
BORDER_D0_T132.1_RK1_A0_W0_EM1
 10
1279.79
 20
1258.66
 30
18.20
 42
-0.031620
  0
VERTEX
  8
BORDER_D0_T132.1_RK1_A0_W0_EM1
 10
1169.43
 20
1215.26
 30
18.20
 42
-0.027905
  0
VERTEX
  8
BORDER_D0_T132.1_RK1_A0_W0_EM1
 10
1047.31
 20
1183.28
 30
18.20
 42
-0.025667
  0
VERTEX
  8
BORDER_D0_T132.1_RK1_A0_W0_EM1
 10
917.17
 20
1163.69
 30
18.20
 42
-0.024617
  0
VERTEX
  8
BORDER_D0_T132.1_RK1_A0_W0_EM1
 10
782.95
 20
1157.10
 30
18.20
 42
-0.024617
  0
VERTEX
  8
BORDER_D0_T132.1_RK1_A0_W0_EM1
 10
648.73
 20
1163.69
 30
18.20
 42
-0.025667
  0
VERTEX
  8
BORDER_D0_T132.1_RK1_A0_W0_EM1
 10
518.59
 20
1183.28
 30
18.20
 42
-0.027905
  0
VERTEX
  8
BORDER_D0_T132.1_RK1_A0_W0_EM1
 10
396.48
 20
1215.26
 30
18.20
 42
-0.031620
  0
VERTEX
  8
BORDER_D0_T132.1_RK1_A0_W0_EM1
 10
286.11
 20
1258.66
 30
18.20
 42
-0.037263
  0
VERTEX
  8
BORDER_D0_T132.1_RK1_A0_W0_EM1
 10
190.84
 20
1312.17
 30
18.20
 42
-0.045362
  0
VERTEX
  8
BORDER_D0_T132.1_RK1_A0_W0_EM1
 10
113.56
 20
1374.15
 30
18.20
 42
-0.056093
  0
VERTEX
  8
BORDER_D0_T132.1_RK1_A0_W0_EM1
 10
56.62
 20
1442.73
 30
18.20
 42
-0.068058
  0
VERTEX
  8
BORDER_D0_T132.1_RK1_A0_W0_EM1
 10
21.74
 20
1515.82
 30
18.20
 42
-0.076786
  0
VERTEX
  8
BORDER_D0_T132.1_RK1_A0_W0_EM1
 10
10.00
 20
1591.20
 30
18.20
  0
SEQEND
  8
BORDER_D0_T132.1_RK1_A0_W0_EM1
  0
POLYLINE
  8
BORDER_D0_T132.1_RK1_A0_W0_EM1
 70
1
 66
1
  0
VERTEX
  8
BORDER_D0_T132.1_RK1_A0_W0_EM1
 10
186.81
 20
1947.04
 30
18.20
  0
VERTEX
  8
BORDER_D0_T132.1_RK1_A0_W0_EM1
 10
119.28
 20
1854.09
 30
18.20
  0
VERTEX
  8
BORDER_D0_T132.1_RK1_A0_W0_EM1
 10
10.00
 20
1889.59
 30
18.20
  0
VERTEX
  8
BORDER_D0_T132.1_RK1_A0_W0_EM1
 10
10.00
 20
2004.49
 30
18.20
  0
VERTEX
  8
BORDER_D0_T132.1_RK1_A0_W0_EM1
 10
119.28
 20
2040.00
 30
18.20
  0
VERTEX
  8
BORDER_D0_T132.1_RK1_A0_W0_EM1
 10
186.81
 20
1947.04
 30
18.20
  0
SEQEND
  8
BORDER_D0_T132.1_RK1_A0_W0_EM1
  0
POLYLINE
  8
BORDER_D0_T132.1_RK1_A0_W0_EM1
 70
1
 66
1
  0
VERTEX
  8
BORDER_D0_T132.1_RK1_A0_W0_EM1
 10
1555.90
 20
1605.90
 30
18.20
  0
VERTEX
  8
BORDER_D0_T132.1_RK1_A0_W0_EM1
 10
10.00
 20
1605.90
 30
18.20
 42
-0.076786
  0
VERTEX
  8
BORDER_D0_T132.1_RK1_A0_W0_EM1
 10
21.74
 20
1681.28
 30
18.20
 42
-0.068058
  0
VERTEX
  8
BORDER_D0_T132.1_RK1_A0_W0_EM1
 10
56.62
 20
1754.37
 30
18.20
 42
-0.056093
  0
VERTEX
  8
BORDER_D0_T132.1_RK1_A0_W0_EM1
 10
113.56
 20
1822.95
 30
18.20
 42
-0.045362
  0
VERTEX
  8
BORDER_D0_T132.1_RK1_A0_W0_EM1
 10
190.84
 20
1884.93
 30
18.20
 42
-0.037263
  0
VERTEX
  8
BORDER_D0_T132.1_RK1_A0_W0_EM1
 10
286.11
 20
1938.44
 30
18.20
 42
-0.031620
  0
VERTEX
  8
BORDER_D0_T132.1_RK1_A0_W0_EM1
 10
396.48
 20
1981.84
 30
18.20
 42
-0.027905
  0
VERTEX
  8
BORDER_D0_T132.1_RK1_A0_W0_EM1
 10
518.59
 20
2013.82
 30
18.20
 42
-0.025667
  0
VERTEX
  8
BORDER_D0_T132.1_RK1_A0_W0_EM1
 10
648.73
 20
2033.41
 30
18.20
 42
-0.024617
  0
VERTEX
  8
BORDER_D0_T132.1_RK1_A0_W0_EM1
 10
782.95
 20
2040.00
 30
18.20
 42
-0.024617
  0
VERTEX
  8
BORDER_D0_T132.1_RK1_A0_W0_EM1
 10
917.17
 20
2033.41
 30
18.20
 42
-0.025667
  0
VERTEX
  8
BORDER_D0_T132.1_RK1_A0_W0_EM1
 10
1047.31
 20
2013.82
 30
18.20
 42
-0.027905
  0
VERTEX
  8
BORDER_D0_T132.1_RK1_A0_W0_EM1
 10
1169.43
 20
1981.84
 30
18.20
 42
-0.031620
  0
VERTEX
  8
BORDER_D0_T132.1_RK1_A0_W0_EM1
 10
1279.79
 20
1938.44
 30
18.20
 42
-0.037263
  0
VERTEX
  8
BORDER_D0_T132.1_RK1_A0_W0_EM1
 10
1375.06
 20
1884.93
 30
18.20
 42
-0.045362
  0
VERTEX
  8
BORDER_D0_T132.1_RK1_A0_W0_EM1
 10
1452.34
 20
1822.95
 30
18.20
 42
-0.056093
  0
VERTEX
  8
BORDER_D0_T132.1_RK1_A0_W0_EM1
 10
1509.29
 20
1754.37
 30
18.20
 42
-0.068058
  0
VERTEX
  8
BORDER_D0_T132.1_RK1_A0_W0_EM1
 10
1544.16
 20
1681.28
 30
18.20
 42
-0.076786
  0
VERTEX
  8
BORDER_D0_T132.1_RK1_A0_W0_EM1
 10
1555.90
 20
1605.90
 30
18.20
  0
SEQEND
  8
BORDER_D0_T132.1_RK1_A0_W0_EM1
  0
POLYLINE
  8
BORDER_D0_T132.1_RK1_A0_W0_EM1
 70
1
 66
1
  0
VERTEX
  8
BORDER_D0_T132.1_RK1_A0_W0_EM1
 10
1522.42
 20
1265.87
 30
18.20
  0
VERTEX
  8
BORDER_D0_T132.1_RK1_A0_W0_EM1
 10
1522.42
 20
1216.70
 30
18.20
 42
-0.333267
  0
VERTEX
  8
BORDER_D0_T132.1_RK1_A0_W0_EM1
 10
1326.94
 20
1216.70
 30
18.20
  0
VERTEX
  8
BORDER_D0_T132.1_RK1_A0_W0_EM1
 10
1326.94
 20
1265.87
 30
18.20
 42
0.469337
  0
VERTEX
  8
BORDER_D0_T132.1_RK1_A0_W0_EM1
 10
1522.42
 20
1265.87
 30
18.20
  0
SEQEND
  8
BORDER_D0_T132.1_RK1_A0_W0_EM1
  0
POLYLINE
  8
BORDER_D0_T132.1_RK1_A0_W0_EM1
 70
1
 66
1
  0
VERTEX
  8
BORDER_D0_T132.1_RK1_A0_W0_EM1
 10
1570.61
 20
494.10
 30
18.20
  0
VERTEX
  8
BORDER_D0_T132.1_RK1_A0_W0_EM1
 10
1570.61
 20
2040.00
 30
18.20
 42
-0.076786
  0
VERTEX
  8
BORDER_D0_T132.1_RK1_A0_W0_EM1
 10
1645.99
 20
2028.26
 30
18.20
 42
-0.068058
  0
VERTEX
  8
BORDER_D0_T132.1_RK1_A0_W0_EM1
 10
1719.08
 20
1993.39
 30
18.20
 42
-0.056093
  0
VERTEX
  8
BORDER_D0_T132.1_RK1_A0_W0_EM1
 10
1787.66
 20
1936.44
 30
18.20
 42
-0.045362
  0
VERTEX
  8
BORDER_D0_T132.1_RK1_A0_W0_EM1
 10
1849.64
 20
1859.16
 30
18.20
 42
-0.037263
  0
VERTEX
  8
BORDER_D0_T132.1_RK1_A0_W0_EM1
 10
1903.15
 20
1763.89
 30
18.20
 42
-0.031620
  0
VERTEX
  8
BORDER_D0_T132.1_RK1_A0_W0_EM1
 10
1946.55
 20
1653.53
 30
18.20
 42
-0.027905
  0
VERTEX
  8
BORDER_D0_T132.1_RK1_A0_W0_EM1
 10
1978.53
 20
1531.41
 30
18.20
 42
-0.025667
  0
VERTEX
  8
BORDER_D0_T132.1_RK1_A0_W0_EM1
 10
1998.11
 20
1401.27
 30
18.20
 42
-0.024617
  0
VERTEX
  8
BORDER_D0_T132.1_RK1_A0_W0_EM1
 10
2004.71
 20
1267.05
 30
18.20
 42
-0.024617
  0
VERTEX
  8
BORDER_D0_T132.1_RK1_A0_W0_EM1
 10
1998.11
 20
1132.83
 30
18.20
 42
-0.025667
  0
VERTEX
  8
BORDER_D0_T132.1_RK1_A0_W0_EM1
 10
1978.53
 20
1002.69
 30
18.20
 42
-0.027905
  0
VERTEX
  8
BORDER_D0_T132.1_RK1_A0_W0_EM1
 10
1946.55
 20
880.58
 30
18.20
 42
-0.031620
  0
VERTEX
  8
BORDER_D0_T132.1_RK1_A0_W0_EM1
 10
1903.15
 20
770.21
 30
18.20
 42
-0.037263
  0
VERTEX
  8
BORDER_D0_T132.1_RK1_A0_W0_EM1
 10
1849.64
 20
674.94
 30
18.20
 42
-0.045362
  0
VERTEX
  8
BORDER_D0_T132.1_RK1_A0_W0_EM1
 10
1787.66
 20
597.66
 30
18.20
 42
-0.056093
  0
VERTEX
  8
BORDER_D0_T132.1_RK1_A0_W0_EM1
 10
1719.08
 20
540.72
 30
18.20
 42
-0.068058
  0
VERTEX
  8
BORDER_D0_T132.1_RK1_A0_W0_EM1
 10
1645.99
 20
505.84
 30
18.20
 42
-0.076786
  0
VERTEX
  8
BORDER_D0_T132.1_RK1_A0_W0_EM1
 10
1570.61
 20
494.10
 30
18.20
  0
SEQEND
  8
BORDER_D0_T132.1_RK1_A0_W0_EM1
  0
POLYLINE
  8
BORDER_D0_T132.1_RK1_A0_W0_EM1
 70
1
 66
1
  0
VERTEX
  8
BORDER_D0_T132.1_RK1_A0_W0_EM1
 10
1735.31
 20
484.13
 30
18.20
  0
VERTEX
  8
BORDER_D0_T132.1_RK1_A0_W0_EM1
 10
1735.31
 20
533.29
 30
18.20
 42
-0.333267
  0
VERTEX
  8
BORDER_D0_T132.1_RK1_A0_W0_EM1
 10
1930.79
 20
533.29
 30
18.20
  0
VERTEX
  8
BORDER_D0_T132.1_RK1_A0_W0_EM1
 10
1930.79
 20
484.13
 30
18.20
 42
0.469338
  0
VERTEX
  8
BORDER_D0_T132.1_RK1_A0_W0_EM1
 10
1735.31
 20
484.13
 30
18.20
  0
SEQEND
  8
BORDER_D0_T132.1_RK1_A0_W0_EM1
  0
POLYLINE
  8
BORDER_D0_T132.1_RK1_A0_W0_EM1
 70
1
 66
1
  0
VERTEX
  8
BORDER_D0_T132.1_RK1_A0_W0_EM1
 10
2019.41
 20
494.10
 30
18.20
  0
VERTEX
  8
BORDER_D0_T132.1_RK1_A0_W0_EM1
 10
2019.41
 20
2040.00
 30
18.20
 42
-0.076786
  0
VERTEX
  8
BORDER_D0_T132.1_RK1_A0_W0_EM1
 10
2094.79
 20
2028.26
 30
18.20
 42
-0.068058
  0
VERTEX
  8
BORDER_D0_T132.1_RK1_A0_W0_EM1
 10
2167.88
 20
1993.39
 30
18.20
 42
-0.056093
  0
VERTEX
  8
BORDER_D0_T132.1_RK1_A0_W0_EM1
 10
2236.46
 20
1936.44
 30
18.20
 42
-0.045362
  0
VERTEX
  8
BORDER_D0_T132.1_RK1_A0_W0_EM1
 10
2298.44
 20
1859.16
 30
18.20
 42
-0.037263
  0
VERTEX
  8
BORDER_D0_T132.1_RK1_A0_W0_EM1
 10
2351.95
 20
1763.89
 30
18.20
 42
-0.031620
  0
VERTEX
  8
BORDER_D0_T132.1_RK1_A0_W0_EM1
 10
2395.35
 20
1653.53
 30
18.20
 42
-0.027905
  0
VERTEX
  8
BORDER_D0_T132.1_RK1_A0_W0_EM1
 10
2427.33
 20
1531.41
 30
18.20
 42
-0.025667
  0
VERTEX
  8
BORDER_D0_T132.1_RK1_A0_W0_EM1
 10
2446.91
 20
1401.27
 30
18.20
 42
-0.024617
  0
VERTEX
  8
BORDER_D0_T132.1_RK1_A0_W0_EM1
 10
2453.51
 20
1267.05
 30
18.20
 42
-0.024617
  0
VERTEX
  8
BORDER_D0_T132.1_RK1_A0_W0_EM1
 10
2446.91
 20
1132.83
 30
18.20
 42
-0.025667
  0
VERTEX
  8
BORDER_D0_T132.1_RK1_A0_W0_EM1
 10
2427.33
 20
1002.69
 30
18.20
 42
-0.027905
  0
VERTEX
  8
BORDER_D0_T132.1_RK1_A0_W0_EM1
 10
2395.35
 20
880.58
 30
18.20
 42
-0.031620
  0
VERTEX
  8
BORDER_D0_T132.1_RK1_A0_W0_EM1
 10
2351.95
 20
770.21
 30
18.20
 42
-0.037263
  0
VERTEX
  8
BORDER_D0_T132.1_RK1_A0_W0_EM1
 10
2298.44
 20
674.94
 30
18.20
 42
-0.045362
  0
VERTEX
  8
BORDER_D0_T132.1_RK1_A0_W0_EM1
 10
2236.46
 20
597.66
 30
18.20
 42
-0.056093
  0
VERTEX
  8
BORDER_D0_T132.1_RK1_A0_W0_EM1
 10
2167.88
 20
540.72
 30
18.20
 42
-0.068058
  0
VERTEX
  8
BORDER_D0_T132.1_RK1_A0_W0_EM1
 10
2094.79
 20
505.84
 30
18.20
 42
-0.076786
  0
VERTEX
  8
BORDER_D0_T132.1_RK1_A0_W0_EM1
 10
2019.41
 20
494.10
 30
18.20
  0
SEQEND
  8
BORDER_D0_T132.1_RK1_A0_W0_EM1
  0
POLYLINE
  8
BORDER_D0_T132.1_RK1_A0_W0_EM1
 70
1
 66
1
  0
VERTEX
  8
BORDER_D0_T132.1_RK1_A0_W0_EM1
 10
2297.20
 20
402.26
 30
18.20
  0
VERTEX
  8
BORDER_D0_T132.1_RK1_A0_W0_EM1
 10
2239.75
 20
420.93
 30
18.20
  0
VERTEX
  8
BORDER_D0_T132.1_RK1_A0_W0_EM1
 10
2204.24
 20
469.80
 30
18.20
  0
VERTEX
  8
BORDER_D0_T132.1_RK1_A0_W0_EM1
 10
2204.24
 20
530.20
 30
18.20
  0
VERTEX
  8
BORDER_D0_T132.1_RK1_A0_W0_EM1
 10
2239.75
 20
579.07
 30
18.20
  0
VERTEX
  8
BORDER_D0_T132.1_RK1_A0_W0_EM1
 10
2297.20
 20
597.74
 30
18.20
  0
VERTEX
  8
BORDER_D0_T132.1_RK1_A0_W0_EM1
 10
2354.65
 20
579.07
 30
18.20
  0
VERTEX
  8
BORDER_D0_T132.1_RK1_A0_W0_EM1
 10
2390.15
 20
530.20
 30
18.20
  0
VERTEX
  8
BORDER_D0_T132.1_RK1_A0_W0_EM1
 10
2390.15
 20
469.80
 30
18.20
  0
VERTEX
  8
BORDER_D0_T132.1_RK1_A0_W0_EM1
 10
2354.65
 20
420.93
 30
18.20
  0
VERTEX
  8
BORDER_D0_T132.1_RK1_A0_W0_EM1
 10
2297.20
 20
402.26
 30
18.20
  0
SEQEND
  8
BORDER_D0_T132.1_RK1_A0_W0_EM1
  0
POLYLINE
  8
BORDER_D0_T132.1_RK1_A0_W0_EM1
 70
1
 66
1
  0
VERTEX
  8
BORDER_D0_T132.1_RK1_A0_W0_EM1
 10
2544.75
 20
10.00
 30
18.20
  0
VERTEX
  8
BORDER_D0_T132.1_RK1_A0_W0_EM1
 10
998.85
 20
10.00
 30
18.20
 42
-0.076786
  0
VERTEX
  8
BORDER_D0_T132.1_RK1_A0_W0_EM1
 10
1010.59
 20
85.38
 30
18.20
 42
-0.068058
  0
VERTEX
  8
BORDER_D0_T132.1_RK1_A0_W0_EM1
 10
1045.46
 20
158.47
 30
18.20
 42
-0.056093
  0
VERTEX
  8
BORDER_D0_T132.1_RK1_A0_W0_EM1
 10
1102.40
 20
227.05
 30
18.20
 42
-0.045362
  0
VERTEX
  8
BORDER_D0_T132.1_RK1_A0_W0_EM1
 10
1179.68
 20
289.03
 30
18.20
 42
-0.037263
  0
VERTEX
  8
BORDER_D0_T132.1_RK1_A0_W0_EM1
 10
1274.95
 20
342.54
 30
18.20
 42
-0.031620
  0
VERTEX
  8
BORDER_D0_T132.1_RK1_A0_W0_EM1
 10
1385.32
 20
385.94
 30
18.20
 42
-0.027905
  0
VERTEX
  8
BORDER_D0_T132.1_RK1_A0_W0_EM1
 10
1507.43
 20
417.92
 30
18.20
 42
-0.025667
  0
VERTEX
  8
BORDER_D0_T132.1_RK1_A0_W0_EM1
 10
1637.57
 20
437.51
 30
18.20
 42
-0.024617
  0
VERTEX
  8
BORDER_D0_T132.1_RK1_A0_W0_EM1
 10
1771.80
 20
444.10
 30
18.20
 42
-0.024617
  0
VERTEX
  8
BORDER_D0_T132.1_RK1_A0_W0_EM1
 10
1906.02
 20
437.51
 30
18.20
 42
-0.025667
  0
VERTEX
  8
BORDER_D0_T132.1_RK1_A0_W0_EM1
 10
2036.16
 20
417.92
 30
18.20
 42
-0.027905
  0
VERTEX
  8
BORDER_D0_T132.1_RK1_A0_W0_EM1
 10
2158.27
 20
385.94
 30
18.20
 42
-0.031620
  0
VERTEX
  8
BORDER_D0_T132.1_RK1_A0_W0_EM1
 10
2268.64
 20
342.54
 30
18.20
 42
-0.037263
  0
VERTEX
  8
BORDER_D0_T132.1_RK1_A0_W0_EM1
 10
2363.91
 20
289.03
 30
18.20
 42
-0.045362
  0
VERTEX
  8
BORDER_D0_T132.1_RK1_A0_W0_EM1
 10
2441.19
 20
227.05
 30
18.20
 42
-0.056093
  0
VERTEX
  8
BORDER_D0_T132.1_RK1_A0_W0_EM1
 10
2498.13
 20
158.47
 30
18.20
 42
-0.068058
  0
VERTEX
  8
BORDER_D0_T132.1_RK1_A0_W0_EM1
 10
2533.00
 20
85.38
 30
18.20
 42
-0.076786
  0
VERTEX
  8
BORDER_D0_T132.1_RK1_A0_W0_EM1
 10
2544.75
 20
10.00
 30
18.20
  0
SEQEND
  8
BORDER_D0_T132.1_RK1_A0_W0_EM1
  0
POLYLINE
  8
BORDER_D0_T132.1_RK1_A0_W0_EM1
 70
1
 66
1
  0
VERTEX
  8
BORDER_D0_T132.1_RK1_A0_W0_EM1
 10
2680.34
 20
10.00
 30
18.20
  0
VERTEX
  8
BORDER_D0_T132.1_RK1_A0_W0_EM1
 10
2652.12
 20
58.87
 30
18.20
  0
VERTEX
  8
BORDER_D0_T132.1_RK1_A0_W0_EM1
 10
2595.69
 20
58.87
 30
18.20
  0
VERTEX
  8
BORDER_D0_T132.1_RK1_A0_W0_EM1
 10
2623.91
 20
107.74
 30
18.20
  0
VERTEX
  8
BORDER_D0_T132.1_RK1_A0_W0_EM1
 10
2595.69
 20
156.61
 30
18.20
  0
VERTEX
  8
BORDER_D0_T132.1_RK1_A0_W0_EM1
 10
2652.12
 20
156.61
 30
18.20
  0
VERTEX
  8
BORDER_D0_T132.1_RK1_A0_W0_EM1
 10
2680.34
 20
205.48
 30
18.20
  0
VERTEX
  8
BORDER_D0_T132.1_RK1_A0_W0_EM1
 10
2708.55
 20
156.61
 30
18.20
  0
VERTEX
  8
BORDER_D0_T132.1_RK1_A0_W0_EM1
 10
2764.98
 20
156.61
 30
18.20
  0
VERTEX
  8
BORDER_D0_T132.1_RK1_A0_W0_EM1
 10
2736.77
 20
107.74
 30
18.20
  0
VERTEX
  8
BORDER_D0_T132.1_RK1_A0_W0_EM1
 10
2764.98
 20
58.87
 30
18.20
  0
VERTEX
  8
BORDER_D0_T132.1_RK1_A0_W0_EM1
 10
2708.55
 20
58.87
 30
18.20
  0
VERTEX
  8
BORDER_D0_T132.1_RK1_A0_W0_EM1
 10
2680.34
 20
10.00
 30
18.20
  0
SEQEND
  8
BORDER_D0_T132.1_RK1_A0_W0_EM1
  0
POLYLINE
  8
BORDER_D0_T132.1_RK1_A0_W0_EM1
 70
1
 66
1
  0
VERTEX
  8
BORDER_D0_T132.1_RK1_A0_W0_EM1
 10
2616.92
 20
669.60
 30
18.20
 42
-0.106580
  0
VERTEX
  8
BORDER_D0_T132.1_RK1_A0_W0_EM1
 10
2633.89
 20
665.86
 30
18.20
 42
-0.081333
  0
VERTEX
  8
BORDER_D0_T132.1_RK1_A0_W0_EM1
 10
2650.35
 20
654.77
 30
18.20
 42
-0.056346
  0
VERTEX
  8
BORDER_D0_T132.1_RK1_A0_W0_EM1
 10
2665.79
 20
636.65
 30
18.20
 42
-0.039878
  0
VERTEX
  8
BORDER_D0_T132.1_RK1_A0_W0_EM1
 10
2679.75
 20
612.06
 30
18.20
 42
-0.029940
  0
VERTEX
  8
BORDER_D0_T132.1_RK1_A0_W0_EM1
 10
2691.79
 20
581.75
 30
18.20
 42
-0.023968
  0
VERTEX
  8
BORDER_D0_T132.1_RK1_A0_W0_EM1
 10
2701.57
 20
546.63
 30
18.20
 42
-0.020393
  0
VERTEX
  8
BORDER_D0_T132.1_RK1_A0_W0_EM1
 10
2708.77
 20
507.77
 30
18.20
 42
-0.018360
  0
VERTEX
  8
BORDER_D0_T132.1_RK1_A0_W0_EM1
 10
2713.18
 20
466.37
 30
18.20
 42
-0.017435
  0
VERTEX
  8
BORDER_D0_T132.1_RK1_A0_W0_EM1
 10
2714.66
 20
423.66
 30
18.20
 42
-0.017435
  0
VERTEX
  8
BORDER_D0_T132.1_RK1_A0_W0_EM1
 10
2713.18
 20
380.95
 30
18.20
 42
-0.018360
  0
VERTEX
  8
BORDER_D0_T132.1_RK1_A0_W0_EM1
 10
2708.77
 20
339.54
 30
18.20
 42
-0.020393
  0
VERTEX
  8
BORDER_D0_T132.1_RK1_A0_W0_EM1
 10
2701.57
 20
300.69
 30
18.20
 42
-0.023968
  0
VERTEX
  8
BORDER_D0_T132.1_RK1_A0_W0_EM1
 10
2691.79
 20
265.57
 30
18.20
 42
-0.029940
  0
VERTEX
  8
BORDER_D0_T132.1_RK1_A0_W0_EM1
 10
2679.75
 20
235.26
 30
18.20
 42
-0.039878
  0
VERTEX
  8
BORDER_D0_T132.1_RK1_A0_W0_EM1
 10
2665.79
 20
210.67
 30
18.20
 42
-0.056346
  0
VERTEX
  8
BORDER_D0_T132.1_RK1_A0_W0_EM1
 10
2650.35
 20
192.55
 30
18.20
 42
-0.081333
  0
VERTEX
  8
BORDER_D0_T132.1_RK1_A0_W0_EM1
 10
2633.89
 20
181.46
 30
18.20
 42
-0.106580
  0
VERTEX
  8
BORDER_D0_T132.1_RK1_A0_W0_EM1
 10
2616.92
 20
177.72
 30
18.20
 42
-0.106579
  0
VERTEX
  8
BORDER_D0_T132.1_RK1_A0_W0_EM1
 10
2599.95
 20
181.46
 30
18.20
 42
-0.081333
  0
VERTEX
  8
BORDER_D0_T132.1_RK1_A0_W0_EM1
 10
2583.49
 20
192.55
 30
18.20
 42
-0.056346
  0
VERTEX
  8
BORDER_D0_T132.1_RK1_A0_W0_EM1
 10
2568.05
 20
210.67
 30
18.20
 42
-0.039878
  0
VERTEX
  8
BORDER_D0_T132.1_RK1_A0_W0_EM1
 10
2554.09
 20
235.26
 30
18.20
 42
-0.029939
  0
VERTEX
  8
BORDER_D0_T132.1_RK1_A0_W0_EM1
 10
2542.05
 20
265.57
 30
18.20
 42
-0.023968
  0
VERTEX
  8
BORDER_D0_T132.1_RK1_A0_W0_EM1
 10
2532.28
 20
300.69
 30
18.20
 42
-0.020393
  0
VERTEX
  8
BORDER_D0_T132.1_RK1_A0_W0_EM1
 10
2525.07
 20
339.54
 30
18.20
 42
-0.018360
  0
VERTEX
  8
BORDER_D0_T132.1_RK1_A0_W0_EM1
 10
2520.67
 20
380.95
 30
18.20
 42
-0.017435
  0
VERTEX
  8
BORDER_D0_T132.1_RK1_A0_W0_EM1
 10
2519.18
 20
423.66
 30
18.20
 42
-0.017435
  0
VERTEX
  8
BORDER_D0_T132.1_RK1_A0_W0_EM1
 10
2520.67
 20
466.37
 30
18.20
 42
-0.018360
  0
VERTEX
  8
BORDER_D0_T132.1_RK1_A0_W0_EM1
 10
2525.07
 20
507.77
 30
18.20
 42
-0.020393
  0
VERTEX
  8
BORDER_D0_T132.1_RK1_A0_W0_EM1
 10
2532.28
 20
546.63
 30
18.20
 42
-0.023968
  0
VERTEX
  8
BORDER_D0_T132.1_RK1_A0_W0_EM1
 10
2542.05
 20
581.75
 30
18.20
 42
-0.029940
  0
VERTEX
  8
BORDER_D0_T132.1_RK1_A0_W0_EM1
 10
2554.09
 20
612.06
 30
18.20
 42
-0.039878
  0
VERTEX
  8
BORDER_D0_T132.1_RK1_A0_W0_EM1
 10
2568.05
 20
636.65
 30
18.20
 42
-0.056346
  0
VERTEX
  8
BORDER_D0_T132.1_RK1_A0_W0_EM1
 10
2583.49
 20
654.77
 30
18.20
 42
-0.081333
  0
VERTEX
  8
BORDER_D0_T132.1_RK1_A0_W0_EM1
 10
2599.95
 20
665.86
 30
18.20
 42
-0.106578
  0
VERTEX
  8
BORDER_D0_T132.1_RK1_A0_W0_EM1
 10
2616.92
 20
669.60
 30
18.20
  0
SEQEND
  8
BORDER_D0_T132.1_RK1_A0_W0_EM1
  0
POLYLINE
  8
BORDER_D0_T132.1_RK1_A0_W0_EM1
 70
1
 66
1
  0
VERTEX
  8
BORDER_D0_T132.1_RK1_A0_W0_EM1
 10
2528.14
 20
1130.59
 30
18.20
 42
-0.106579
  0
VERTEX
  8
BORDER_D0_T132.1_RK1_A0_W0_EM1
 10
2545.11
 20
1126.86
 30
18.20
 42
-0.081333
  0
VERTEX
  8
BORDER_D0_T132.1_RK1_A0_W0_EM1
 10
2561.57
 20
1115.76
 30
18.20
 42
-0.056346
  0
VERTEX
  8
BORDER_D0_T132.1_RK1_A0_W0_EM1
 10
2577.01
 20
1097.64
 30
18.20
 42
-0.039878
  0
VERTEX
  8
BORDER_D0_T132.1_RK1_A0_W0_EM1
 10
2590.97
 20
1073.06
 30
18.20
 42
-0.029940
  0
VERTEX
  8
BORDER_D0_T132.1_RK1_A0_W0_EM1
 10
2603.01
 20
1042.74
 30
18.20
 42
-0.023968
  0
VERTEX
  8
BORDER_D0_T132.1_RK1_A0_W0_EM1
 10
2612.79
 20
1007.62
 30
18.20
 42
-0.020393
  0
VERTEX
  8
BORDER_D0_T132.1_RK1_A0_W0_EM1
 10
2619.99
 20
968.77
 30
18.20
 42
-0.018360
  0
VERTEX
  8
BORDER_D0_T132.1_RK1_A0_W0_EM1
 10
2624.40
 20
927.36
 30
18.20
 42
-0.017435
  0
VERTEX
  8
BORDER_D0_T132.1_RK1_A0_W0_EM1
 10
2625.88
 20
884.65
 30
18.20
 42
-0.017435
  0
VERTEX
  8
BORDER_D0_T132.1_RK1_A0_W0_EM1
 10
2624.40
 20
841.95
 30
18.20
 42
-0.018360
  0
VERTEX
  8
BORDER_D0_T132.1_RK1_A0_W0_EM1
 10
2619.99
 20
800.54
 30
18.20
 42
-0.020393
  0
VERTEX
  8
BORDER_D0_T132.1_RK1_A0_W0_EM1
 10
2612.79
 20
761.68
 30
18.20
 42
-0.023968
  0
VERTEX
  8
BORDER_D0_T132.1_RK1_A0_W0_EM1
 10
2603.01
 20
726.57
 30
18.20
 42
-0.029939
  0
VERTEX
  8
BORDER_D0_T132.1_RK1_A0_W0_EM1
 10
2590.97
 20
696.25
 30
18.20
 42
-0.039878
  0
VERTEX
  8
BORDER_D0_T132.1_RK1_A0_W0_EM1
 10
2577.01
 20
671.66
 30
18.20
 42
-0.056346
  0
VERTEX
  8
BORDER_D0_T132.1_RK1_A0_W0_EM1
 10
2561.57
 20
653.55
 30
18.20
 42
-0.081333
  0
VERTEX
  8
BORDER_D0_T132.1_RK1_A0_W0_EM1
 10
2545.11
 20
642.45
 30
18.20
 42
-0.106579
  0
VERTEX
  8
BORDER_D0_T132.1_RK1_A0_W0_EM1
 10
2528.14
 20
638.71
 30
18.20
 42
-0.106580
  0
VERTEX
  8
BORDER_D0_T132.1_RK1_A0_W0_EM1
 10
2511.17
 20
642.45
 30
18.20
 42
-0.081333
  0
VERTEX
  8
BORDER_D0_T132.1_RK1_A0_W0_EM1
 10
2494.71
 20
653.55
 30
18.20
 42
-0.056346
  0
VERTEX
  8
BORDER_D0_T132.1_RK1_A0_W0_EM1
 10
2479.27
 20
671.66
 30
18.20
 42
-0.039878
  0
VERTEX
  8
BORDER_D0_T132.1_RK1_A0_W0_EM1
 10
2465.32
 20
696.25
 30
18.20
 42
-0.029939
  0
VERTEX
  8
BORDER_D0_T132.1_RK1_A0_W0_EM1
 10
2453.27
 20
726.57
 30
18.20
 42
-0.023968
  0
VERTEX
  8
BORDER_D0_T132.1_RK1_A0_W0_EM1
 10
2443.50
 20
761.68
 30
18.20
 42
-0.020393
  0
VERTEX
  8
BORDER_D0_T132.1_RK1_A0_W0_EM1
 10
2436.30
 20
800.54
 30
18.20
 42
-0.018360
  0
VERTEX
  8
BORDER_D0_T132.1_RK1_A0_W0_EM1
 10
2431.89
 20
841.95
 30
18.20
 42
-0.017435
  0
VERTEX
  8
BORDER_D0_T132.1_RK1_A0_W0_EM1
 10
2430.40
 20
884.65
 30
18.20
 42
-0.017435
  0
VERTEX
  8
BORDER_D0_T132.1_RK1_A0_W0_EM1
 10
2431.89
 20
927.36
 30
18.20
 42
-0.018360
  0
VERTEX
  8
BORDER_D0_T132.1_RK1_A0_W0_EM1
 10
2436.30
 20
968.77
 30
18.20
 42
-0.020393
  0
VERTEX
  8
BORDER_D0_T132.1_RK1_A0_W0_EM1
 10
2443.50
 20
1007.62
 30
18.20
 42
-0.023968
  0
VERTEX
  8
BORDER_D0_T132.1_RK1_A0_W0_EM1
 10
2453.27
 20
1042.74
 30
18.20
 42
-0.029940
  0
VERTEX
  8
BORDER_D0_T132.1_RK1_A0_W0_EM1
 10
2465.32
 20
1073.06
 30
18.20
 42
-0.039878
  0
VERTEX
  8
BORDER_D0_T132.1_RK1_A0_W0_EM1
 10
2479.27
 20
1097.64
 30
18.20
 42
-0.056346
  0
VERTEX
  8
BORDER_D0_T132.1_RK1_A0_W0_EM1
 10
2494.71
 20
1115.76
 30
18.20
 42
-0.081333
  0
VERTEX
  8
BORDER_D0_T132.1_RK1_A0_W0_EM1
 10
2511.17
 20
1126.86
 30
18.20
 42
-0.106580
  0
VERTEX
  8
BORDER_D0_T132.1_RK1_A0_W0_EM1
 10
2528.14
 20
1130.59
 30
18.20
  0
SEQEND
  8
BORDER_D0_T132.1_RK1_A0_W0_EM1
  0
POLYLINE
  8
BORDER_D0_T132.1_RK1_A0_W0_EM1
 70
1
 66
1
  0
VERTEX
  8
BORDER_D0_T132.1_RK1_A0_W0_EM1
 10
2737.00
 20
1212.62
 30
18.20
  0
VERTEX
  8
BORDER_D0_T132.1_RK1_A0_W0_EM1
 10
2737.00
 20
720.74
 30
18.20
 42
-0.106580
  0
VERTEX
  8
BORDER_D0_T132.1_RK1_A0_W0_EM1
 10
2720.02
 20
724.47
 30
18.20
 42
-0.081333
  0
VERTEX
  8
BORDER_D0_T132.1_RK1_A0_W0_EM1
 10
2703.57
 20
735.57
 30
18.20
 42
-0.056346
  0
VERTEX
  8
BORDER_D0_T132.1_RK1_A0_W0_EM1
 10
2688.13
 20
753.69
 30
18.20
 42
-0.039878
  0
VERTEX
  8
BORDER_D0_T132.1_RK1_A0_W0_EM1
 10
2674.17
 20
778.28
 30
18.20
 42
-0.029940
  0
VERTEX
  8
BORDER_D0_T132.1_RK1_A0_W0_EM1
 10
2662.12
 20
808.59
 30
18.20
 42
-0.023968
  0
VERTEX
  8
BORDER_D0_T132.1_RK1_A0_W0_EM1
 10
2652.35
 20
843.71
 30
18.20
 42
-0.020393
  0
VERTEX
  8
BORDER_D0_T132.1_RK1_A0_W0_EM1
 10
2645.15
 20
882.56
 30
18.20
 42
-0.018360
  0
VERTEX
  8
BORDER_D0_T132.1_RK1_A0_W0_EM1
 10
2640.74
 20
923.97
 30
18.20
 42
-0.017435
  0
VERTEX
  8
BORDER_D0_T132.1_RK1_A0_W0_EM1
 10
2639.25
 20
966.68
 30
18.20
 42
-0.017435
  0
VERTEX
  8
BORDER_D0_T132.1_RK1_A0_W0_EM1
 10
2640.74
 20
1009.39
 30
18.20
 42
-0.018360
  0
VERTEX
  8
BORDER_D0_T132.1_RK1_A0_W0_EM1
 10
2645.15
 20
1050.80
 30
18.20
 42
-0.020393
  0
VERTEX
  8
BORDER_D0_T132.1_RK1_A0_W0_EM1
 10
2652.35
 20
1089.65
 30
18.20
 42
-0.023968
  0
VERTEX
  8
BORDER_D0_T132.1_RK1_A0_W0_EM1
 10
2662.12
 20
1124.77
 30
18.20
 42
-0.029940
  0
VERTEX
  8
BORDER_D0_T132.1_RK1_A0_W0_EM1
 10
2674.17
 20
1155.08
 30
18.20
 42
-0.039878
  0
VERTEX
  8
BORDER_D0_T132.1_RK1_A0_W0_EM1
 10
2688.13
 20
1179.67
 30
18.20
 42
-0.056346
  0
VERTEX
  8
BORDER_D0_T132.1_RK1_A0_W0_EM1
 10
2703.57
 20
1197.79
 30
18.20
 42
-0.081333
  0
VERTEX
  8
BORDER_D0_T132.1_RK1_A0_W0_EM1
 10
2720.02
 20
1208.88
 30
18.20
 42
-0.106580
  0
VERTEX
  8
BORDER_D0_T132.1_RK1_A0_W0_EM1
 10
2737.00
 20
1212.62
 30
18.20
  0
SEQEND
  8
BORDER_D0_T132.1_RK1_A0_W0_EM1
  0
POLYLINE
  8
BORDER_D0_T132.1_RK1_A0_W0_EM1
 70
1
 66
1
  0
VERTEX
  8
BORDER_D0_T132.1_RK1_A0_W0_EM1
 10
2618.87
 20
1634.28
 30
18.20
 42
-0.106578
  0
VERTEX
  8
BORDER_D0_T132.1_RK1_A0_W0_EM1
 10
2635.85
 20
1630.54
 30
18.20
 42
-0.081333
  0
VERTEX
  8
BORDER_D0_T132.1_RK1_A0_W0_EM1
 10
2652.30
 20
1619.45
 30
18.20
 42
-0.056346
  0
VERTEX
  8
BORDER_D0_T132.1_RK1_A0_W0_EM1
 10
2667.74
 20
1601.33
 30
18.20
 42
-0.039878
  0
VERTEX
  8
BORDER_D0_T132.1_RK1_A0_W0_EM1
 10
2681.70
 20
1576.74
 30
18.20
 42
-0.029940
  0
VERTEX
  8
BORDER_D0_T132.1_RK1_A0_W0_EM1
 10
2693.75
 20
1546.43
 30
18.20
 42
-0.023968
  0
VERTEX
  8
BORDER_D0_T132.1_RK1_A0_W0_EM1
 10
2703.52
 20
1511.31
 30
18.20
 42
-0.020393
  0
VERTEX
  8
BORDER_D0_T132.1_RK1_A0_W0_EM1
 10
2710.72
 20
1472.45
 30
18.20
 42
-0.018360
  0
VERTEX
  8
BORDER_D0_T132.1_RK1_A0_W0_EM1
 10
2715.13
 20
1431.05
 30
18.20
 42
-0.017435
  0
VERTEX
  8
BORDER_D0_T132.1_RK1_A0_W0_EM1
 10
2716.61
 20
1388.34
 30
18.20
 42
-0.017435
  0
VERTEX
  8
BORDER_D0_T132.1_RK1_A0_W0_EM1
 10
2715.13
 20
1345.63
 30
18.20
 42
-0.018360
  0
VERTEX
  8
BORDER_D0_T132.1_RK1_A0_W0_EM1
 10
2710.72
 20
1304.22
 30
18.20
 42
-0.020393
  0
VERTEX
  8
BORDER_D0_T132.1_RK1_A0_W0_EM1
 10
2703.52
 20
1265.37
 30
18.20
 42
-0.023968
  0
VERTEX
  8
BORDER_D0_T132.1_RK1_A0_W0_EM1
 10
2693.75
 20
1230.25
 30
18.20
 42
-0.029940
  0
VERTEX
  8
BORDER_D0_T132.1_RK1_A0_W0_EM1
 10
2681.70
 20
1199.94
 30
18.20
 42
-0.039878
  0
VERTEX
  8
BORDER_D0_T132.1_RK1_A0_W0_EM1
 10
2667.74
 20
1175.35
 30
18.20
 42
-0.056346
  0
VERTEX
  8
BORDER_D0_T132.1_RK1_A0_W0_EM1
 10
2652.30
 20
1157.23
 30
18.20
 42
-0.081333
  0
VERTEX
  8
BORDER_D0_T132.1_RK1_A0_W0_EM1
 10
2635.85
 20
1146.13
 30
18.20
 42
-0.106579
  0
VERTEX
  8
BORDER_D0_T132.1_RK1_A0_W0_EM1
 10
2618.87
 20
1142.40
 30
18.20
 42
-0.106579
  0
VERTEX
  8
BORDER_D0_T132.1_RK1_A0_W0_EM1
 10
2601.90
 20
1146.13
 30
18.20
 42
-0.081333
  0
VERTEX
  8
BORDER_D0_T132.1_RK1_A0_W0_EM1
 10
2585.45
 20
1157.23
 30
18.20
 42
-0.056347
  0
VERTEX
  8
BORDER_D0_T132.1_RK1_A0_W0_EM1
 10
2570.00
 20
1175.35
 30
18.20
 42
-0.039878
  0
VERTEX
  8
BORDER_D0_T132.1_RK1_A0_W0_EM1
 10
2556.05
 20
1199.94
 30
18.20
 42
-0.029940
  0
VERTEX
  8
BORDER_D0_T132.1_RK1_A0_W0_EM1
 10
2544.00
 20
1230.25
 30
18.20
 42
-0.023968
  0
VERTEX
  8
BORDER_D0_T132.1_RK1_A0_W0_EM1
 10
2534.23
 20
1265.37
 30
18.20
 42
-0.020393
  0
VERTEX
  8
BORDER_D0_T132.1_RK1_A0_W0_EM1
 10
2527.03
 20
1304.22
 30
18.20
 42
-0.018360
  0
VERTEX
  8
BORDER_D0_T132.1_RK1_A0_W0_EM1
 10
2522.62
 20
1345.63
 30
18.20
 42
-0.017435
  0
VERTEX
  8
BORDER_D0_T132.1_RK1_A0_W0_EM1
 10
2521.13
 20
1388.34
 30
18.20
 42
-0.017435
  0
VERTEX
  8
BORDER_D0_T132.1_RK1_A0_W0_EM1
 10
2522.62
 20
1431.05
 30
18.20
 42
-0.018360
  0
VERTEX
  8
BORDER_D0_T132.1_RK1_A0_W0_EM1
 10
2527.03
 20
1472.45
 30
18.20
 42
-0.020393
  0
VERTEX
  8
BORDER_D0_T132.1_RK1_A0_W0_EM1
 10
2534.23
 20
1511.31
 30
18.20
 42
-0.023968
  0
VERTEX
  8
BORDER_D0_T132.1_RK1_A0_W0_EM1
 10
2544.00
 20
1546.43
 30
18.20
 42
-0.029940
  0
VERTEX
  8
BORDER_D0_T132.1_RK1_A0_W0_EM1
 10
2556.05
 20
1576.74
 30
18.20
 42
-0.039878
  0
VERTEX
  8
BORDER_D0_T132.1_RK1_A0_W0_EM1
 10
2570.00
 20
1601.33
 30
18.20
 42
-0.056347
  0
VERTEX
  8
BORDER_D0_T132.1_RK1_A0_W0_EM1
 10
2585.45
 20
1619.45
 30
18.20
 42
-0.081333
  0
VERTEX
  8
BORDER_D0_T132.1_RK1_A0_W0_EM1
 10
2601.90
 20
1630.54
 30
18.20
 42
-0.106578
  0
VERTEX
  8
BORDER_D0_T132.1_RK1_A0_W0_EM1
 10
2618.87
 20
1634.28
 30
18.20
  0
SEQEND
  8
BORDER_D0_T132.1_RK1_A0_W0_EM1
  0
POLYLINE
  8
BORDER_D0_T132.1_RK1_A0_W0_EM1
 70
1
 66
1
  0
VERTEX
  8
BORDER_D0_T132.1_RK1_A0_W0_EM1
 10
2491.38
 20
2040.00
 30
18.20
 42
-0.106579
  0
VERTEX
  8
BORDER_D0_T132.1_RK1_A0_W0_EM1
 10
2508.35
 20
2036.26
 30
18.20
 42
-0.081333
  0
VERTEX
  8
BORDER_D0_T132.1_RK1_A0_W0_EM1
 10
2524.81
 20
2025.17
 30
18.20
 42
-0.056346
  0
VERTEX
  8
BORDER_D0_T132.1_RK1_A0_W0_EM1
 10
2540.25
 20
2007.05
 30
18.20
 42
-0.039878
  0
VERTEX
  8
BORDER_D0_T132.1_RK1_A0_W0_EM1
 10
2554.21
 20
1982.46
 30
18.20
 42
-0.029940
  0
VERTEX
  8
BORDER_D0_T132.1_RK1_A0_W0_EM1
 10
2566.25
 20
1952.15
 30
18.20
 42
-0.023968
  0
VERTEX
  8
BORDER_D0_T132.1_RK1_A0_W0_EM1
 10
2576.03
 20
1917.03
 30
18.20
 42
-0.020393
  0
VERTEX
  8
BORDER_D0_T132.1_RK1_A0_W0_EM1
 10
2583.23
 20
1878.18
 30
18.20
 42
-0.018360
  0
VERTEX
  8
BORDER_D0_T132.1_RK1_A0_W0_EM1
 10
2587.64
 20
1836.77
 30
18.20
 42
-0.017435
  0
VERTEX
  8
BORDER_D0_T132.1_RK1_A0_W0_EM1
 10
2589.12
 20
1794.06
 30
18.20
 42
-0.017435
  0
VERTEX
  8
BORDER_D0_T132.1_RK1_A0_W0_EM1
 10
2587.64
 20
1751.35
 30
18.20
 42
-0.018360
  0
VERTEX
  8
BORDER_D0_T132.1_RK1_A0_W0_EM1
 10
2583.23
 20
1709.94
 30
18.20
 42
-0.020393
  0
VERTEX
  8
BORDER_D0_T132.1_RK1_A0_W0_EM1
 10
2576.03
 20
1671.09
 30
18.20
 42
-0.023968
  0
VERTEX
  8
BORDER_D0_T132.1_RK1_A0_W0_EM1
 10
2566.25
 20
1635.97
 30
18.20
 42
-0.029939
  0
VERTEX
  8
BORDER_D0_T132.1_RK1_A0_W0_EM1
 10
2554.21
 20
1605.66
 30
18.20
 42
-0.039879
  0
VERTEX
  8
BORDER_D0_T132.1_RK1_A0_W0_EM1
 10
2540.25
 20
1581.07
 30
18.20
 42
-0.056346
  0
VERTEX
  8
BORDER_D0_T132.1_RK1_A0_W0_EM1
 10
2524.81
 20
1562.95
 30
18.20
 42
-0.081333
  0
VERTEX
  8
BORDER_D0_T132.1_RK1_A0_W0_EM1
 10
2508.35
 20
1551.86
 30
18.20
 42
-0.106578
  0
VERTEX
  8
BORDER_D0_T132.1_RK1_A0_W0_EM1
 10
2491.38
 20
1548.12
 30
18.20
 42
-0.106580
  0
VERTEX
  8
BORDER_D0_T132.1_RK1_A0_W0_EM1
 10
2474.41
 20
1551.86
 30
18.20
 42
-0.081333
  0
VERTEX
  8
BORDER_D0_T132.1_RK1_A0_W0_EM1
 10
2457.95
 20
1562.95
 30
18.20
 42
-0.056346
  0
VERTEX
  8
BORDER_D0_T132.1_RK1_A0_W0_EM1
 10
2442.51
 20
1581.07
 30
18.20
 42
-0.039879
  0
VERTEX
  8
BORDER_D0_T132.1_RK1_A0_W0_EM1
 10
2428.55
 20
1605.66
 30
18.20
 42
-0.029940
  0
VERTEX
  8
BORDER_D0_T132.1_RK1_A0_W0_EM1
 10
2416.51
 20
1635.97
 30
18.20
 42
-0.023968
  0
VERTEX
  8
BORDER_D0_T132.1_RK1_A0_W0_EM1
 10
2406.74
 20
1671.09
 30
18.20
 42
-0.020393
  0
VERTEX
  8
BORDER_D0_T132.1_RK1_A0_W0_EM1
 10
2399.53
 20
1709.94
 30
18.20
 42
-0.018360
  0
VERTEX
  8
BORDER_D0_T132.1_RK1_A0_W0_EM1
 10
2395.13
 20
1751.35
 30
18.20
 42
-0.017435
  0
VERTEX
  8
BORDER_D0_T132.1_RK1_A0_W0_EM1
 10
2393.64
 20
1794.06
 30
18.20
 42
-0.017435
  0
VERTEX
  8
BORDER_D0_T132.1_RK1_A0_W0_EM1
 10
2395.13
 20
1836.77
 30
18.20
 42
-0.018360
  0
VERTEX
  8
BORDER_D0_T132.1_RK1_A0_W0_EM1
 10
2399.53
 20
1878.18
 30
18.20
 42
-0.020393
  0
VERTEX
  8
BORDER_D0_T132.1_RK1_A0_W0_EM1
 10
2406.74
 20
1917.03
 30
18.20
 42
-0.023968
  0
VERTEX
  8
BORDER_D0_T132.1_RK1_A0_W0_EM1
 10
2416.51
 20
1952.15
 30
18.20
 42
-0.029940
  0
VERTEX
  8
BORDER_D0_T132.1_RK1_A0_W0_EM1
 10
2428.55
 20
1982.46
 30
18.20
 42
-0.039878
  0
VERTEX
  8
BORDER_D0_T132.1_RK1_A0_W0_EM1
 10
2442.51
 20
2007.05
 30
18.20
 42
-0.056346
  0
VERTEX
  8
BORDER_D0_T132.1_RK1_A0_W0_EM1
 10
2457.95
 20
2025.17
 30
18.20
 42
-0.081333
  0
VERTEX
  8
BORDER_D0_T132.1_RK1_A0_W0_EM1
 10
2474.41
 20
2036.26
 30
18.20
 42
-0.106580
  0
VERTEX
  8
BORDER_D0_T132.1_RK1_A0_W0_EM1
 10
2491.38
 20
2040.00
 30
18.20
  0
SEQEND
  8
BORDER_D0_T132.1_RK1_A0_W0_EM1
  0
POLYLINE
  8
BORDER_D0_T132.1_RK1_A0_W0_EM1
 70
1
 66
1
  0
VERTEX
  8
BORDER_D0_T132.1_RK1_A0_W0_EM1
 10
2746.39
 20
2040.00
 30
18.20
  0
VERTEX
  8
BORDER_D0_T132.1_RK1_A0_W0_EM1
 10
2746.39
 20
1548.12
 30
18.20
 42
-0.106580
  0
VERTEX
  8
BORDER_D0_T132.1_RK1_A0_W0_EM1
 10
2729.42
 20
1551.86
 30
18.20
 42
-0.081332
  0
VERTEX
  8
BORDER_D0_T132.1_RK1_A0_W0_EM1
 10
2712.96
 20
1562.95
 30
18.20
 42
-0.056346
  0
VERTEX
  8
BORDER_D0_T132.1_RK1_A0_W0_EM1
 10
2697.52
 20
1581.07
 30
18.20
 42
-0.039879
  0
VERTEX
  8
BORDER_D0_T132.1_RK1_A0_W0_EM1
 10
2683.57
 20
1605.66
 30
18.20
 42
-0.029940
  0
VERTEX
  8
BORDER_D0_T132.1_RK1_A0_W0_EM1
 10
2671.52
 20
1635.97
 30
18.20
 42
-0.023968
  0
VERTEX
  8
BORDER_D0_T132.1_RK1_A0_W0_EM1
 10
2661.75
 20
1671.09
 30
18.20
 42
-0.020393
  0
VERTEX
  8
BORDER_D0_T132.1_RK1_A0_W0_EM1
 10
2654.55
 20
1709.94
 30
18.20
 42
-0.018360
  0
VERTEX
  8
BORDER_D0_T132.1_RK1_A0_W0_EM1
 10
2650.14
 20
1751.35
 30
18.20
 42
-0.017435
  0
VERTEX
  8
BORDER_D0_T132.1_RK1_A0_W0_EM1
 10
2648.65
 20
1794.06
 30
18.20
 42
-0.017435
  0
VERTEX
  8
BORDER_D0_T132.1_RK1_A0_W0_EM1
 10
2650.14
 20
1836.77
 30
18.20
 42
-0.018360
  0
VERTEX
  8
BORDER_D0_T132.1_RK1_A0_W0_EM1
 10
2654.55
 20
1878.18
 30
18.20
 42
-0.020393
  0
VERTEX
  8
BORDER_D0_T132.1_RK1_A0_W0_EM1
 10
2661.75
 20
1917.03
 30
18.20
 42
-0.023968
  0
VERTEX
  8
BORDER_D0_T132.1_RK1_A0_W0_EM1
 10
2671.52
 20
1952.15
 30
18.20
 42
-0.029940
  0
VERTEX
  8
BORDER_D0_T132.1_RK1_A0_W0_EM1
 10
2683.57
 20
1982.46
 30
18.20
 42
-0.039878
  0
VERTEX
  8
BORDER_D0_T132.1_RK1_A0_W0_EM1
 10
2697.52
 20
2007.05
 30
18.20
 42
-0.056346
  0
VERTEX
  8
BORDER_D0_T132.1_RK1_A0_W0_EM1
 10
2712.96
 20
2025.17
 30
18.20
 42
-0.081332
  0
VERTEX
  8
BORDER_D0_T132.1_RK1_A0_W0_EM1
 10
2729.42
 20
2036.26
 30
18.20
 42
-0.106580
  0
VERTEX
  8
BORDER_D0_T132.1_RK1_A0_W0_EM1
 10
2746.39
 20
2040.00
 30
18.20
  0
SEQEND
  8
BORDER_D0_T132.1_RK1_A0_W0_EM1
  0
ENDSEC
  0
EOF
