  0
SECTION
  2
HEADER
  9
$LTSCALE
 40
41.00
  9
$LIMMIN
 10
-41.00
 20
-61.50
  9
$LIMMAX
 10
2841.00
 20
2193.50
  9
$EXTMIN
 10
-41.00
 20
-61.50
  9
$EXTMAX
 10
2841.00
 20
2193.50
  9
$TEXTSTYLE
  7
txt
  9
$CLAYER
  8
1
  9
$CECOLOR
 62
7
  9
$CELTYPE
  6
CONTINUOUS
  9
$OSMODE
 70
0
  0
ENDSEC
  0
SECTION
  2
TABLES
  0
TABLE
  2
STYLE
 70
1
  0
STYLE
  2
STANDARD
 70
0
 40
1.00
 41
1.00
 50
0.00
 71
0
 42
0.20
  3
txt
  4

  0
ENDTAB
  0
TABLE
  2
LTYPE
 70
1
  0
LTYPE
  2
HIDDEN
 70
64
  3
_ _ _ _ _ _ _ _ _ _ _ _ _ _ _ _ _ _ _ _ _ _
 72
65
 73
2
 40
0.50
 49
0.25
 49
-0.25
  0
ENDTAB
  0
ENDSEC
  0
SECTION
  2
ENTITIES
  0
LINE
  6
CONTINUOUS
  8
FRAME_Z18
 10
0.00
 20
0.00
 30
0.00
 11
2800.00
 21
0.00
 31
0.00
  0
LINE
  6
CONTINUOUS
  8
FRAME_Z18
 10
0.00
 20
2050.00
 30
0.00
 11
2800.00
 21
2050.00
 31
0.00
  0
LINE
  6
CONTINUOUS
  8
FRAME_Z18
 10
0.00
 20
0.00
 30
0.00
 11
0.00
 21
2050.00
 31
0.00
  0
LINE
  6
CONTINUOUS
  8
FRAME_Z18
 10
2800.00
 20
0.00
 30
0.00
 11
2800.00
 21
2050.00
 31
0.00
  0
TEXT
  8
TEXT
 10
694.04
 20
288.23
 30
18.00
 40
41.00
  1

  0
TEXT
  8
TEXT
 10
682.04
 20
304.23
 30
18.00
 40
41.00
  1
A
  0
TEXT
  8
TEXT
 10
866.04
 20
143.23
 30
18.00
 40
41.00
  1
B
  0
TEXT
  8
TEXT
 10
912.04
 20
357.23
 30
18.00
 40
41.00
  1
C
  0
POLYLINE
  8
BORDER_D0_T132_RK1_A0_W0_EM1_RI1_ID0018
 70
1
 66
1
  0
VERTEX
  8
BORDER_D0_T132_RK1_A0_W0_EM1_RI1_ID0018
 10
579.04
 20
150.00
 30
16.50
 42
-0.106572
  0
VERTEX
  8
BORDER_D0_T132_RK1_A0_W0_EM1_RI1_ID0018
 10
575.30
 20
133.03
 30
16.50
 42
-0.081329
  0
VERTEX
  8
BORDER_D0_T132_RK1_A0_W0_EM1_RI1_ID0018
 10
564.21
 20
116.57
 30
16.50
 42
-0.056348
  0
VERTEX
  8
BORDER_D0_T132_RK1_A0_W0_EM1_RI1_ID0018
 10
546.09
 20
101.13
 30
16.50
 42
-0.039882
  0
VERTEX
  8
BORDER_D0_T132_RK1_A0_W0_EM1_RI1_ID0018
 10
521.50
 20
87.17
 30
16.50
 42
-0.029934
  0
VERTEX
  8
BORDER_D0_T132_RK1_A0_W0_EM1_RI1_ID0018
 10
491.19
 20
75.13
 30
16.50
 42
-0.023970
  0
VERTEX
  8
BORDER_D0_T132_RK1_A0_W0_EM1_RI1_ID0018
 10
456.07
 20
65.36
 30
16.50
 42
-0.020392
  0
VERTEX
  8
BORDER_D0_T132_RK1_A0_W0_EM1_RI1_ID0018
 10
417.22
 20
58.15
 30
16.50
 42
-0.018360
  0
VERTEX
  8
BORDER_D0_T132_RK1_A0_W0_EM1_RI1_ID0018
 10
375.81
 20
53.75
 30
16.50
 42
-0.017436
  0
VERTEX
  8
BORDER_D0_T132_RK1_A0_W0_EM1_RI1_ID0018
 10
333.10
 20
52.26
 30
16.50
 42
-0.017436
  0
VERTEX
  8
BORDER_D0_T132_RK1_A0_W0_EM1_RI1_ID0018
 10
290.39
 20
53.75
 30
16.50
 42
-0.018360
  0
VERTEX
  8
BORDER_D0_T132_RK1_A0_W0_EM1_RI1_ID0018
 10
248.98
 20
58.15
 30
16.50
 42
-0.020392
  0
VERTEX
  8
BORDER_D0_T132_RK1_A0_W0_EM1_RI1_ID0018
 10
210.13
 20
65.36
 30
16.50
 42
-0.023970
  0
VERTEX
  8
BORDER_D0_T132_RK1_A0_W0_EM1_RI1_ID0018
 10
175.01
 20
75.13
 30
16.50
 42
-0.029934
  0
VERTEX
  8
BORDER_D0_T132_RK1_A0_W0_EM1_RI1_ID0018
 10
144.70
 20
87.17
 30
16.50
 42
-0.039882
  0
VERTEX
  8
BORDER_D0_T132_RK1_A0_W0_EM1_RI1_ID0018
 10
120.11
 20
101.13
 30
16.50
 42
-0.056348
  0
VERTEX
  8
BORDER_D0_T132_RK1_A0_W0_EM1_RI1_ID0018
 10
101.99
 20
116.57
 30
16.50
 42
-0.081329
  0
VERTEX
  8
BORDER_D0_T132_RK1_A0_W0_EM1_RI1_ID0018
 10
90.90
 20
133.03
 30
16.50
 42
-0.106572
  0
VERTEX
  8
BORDER_D0_T132_RK1_A0_W0_EM1_RI1_ID0018
 10
87.16
 20
150.00
 30
16.50
 42
-0.106572
  0
VERTEX
  8
BORDER_D0_T132_RK1_A0_W0_EM1_RI1_ID0018
 10
90.90
 20
166.97
 30
16.50
 42
-0.081329
  0
VERTEX
  8
BORDER_D0_T132_RK1_A0_W0_EM1_RI1_ID0018
 10
101.99
 20
183.43
 30
16.50
 42
-0.056349
  0
VERTEX
  8
BORDER_D0_T132_RK1_A0_W0_EM1_RI1_ID0018
 10
120.11
 20
198.87
 30
16.50
 42
-0.039882
  0
VERTEX
  8
BORDER_D0_T132_RK1_A0_W0_EM1_RI1_ID0018
 10
144.70
 20
212.83
 30
16.50
 42
-0.029934
  0
VERTEX
  8
BORDER_D0_T132_RK1_A0_W0_EM1_RI1_ID0018
 10
175.01
 20
224.87
 30
16.50
 42
-0.023970
  0
VERTEX
  8
BORDER_D0_T132_RK1_A0_W0_EM1_RI1_ID0018
 10
210.13
 20
234.64
 30
16.50
 42
-0.020392
  0
VERTEX
  8
BORDER_D0_T132_RK1_A0_W0_EM1_RI1_ID0018
 10
248.98
 20
241.85
 30
16.50
 42
-0.018360
  0
VERTEX
  8
BORDER_D0_T132_RK1_A0_W0_EM1_RI1_ID0018
 10
290.39
 20
246.25
 30
16.50
 42
-0.017437
  0
VERTEX
  8
BORDER_D0_T132_RK1_A0_W0_EM1_RI1_ID0018
 10
333.10
 20
247.74
 30
16.50
 42
-0.017437
  0
VERTEX
  8
BORDER_D0_T132_RK1_A0_W0_EM1_RI1_ID0018
 10
375.81
 20
246.25
 30
16.50
 42
-0.018360
  0
VERTEX
  8
BORDER_D0_T132_RK1_A0_W0_EM1_RI1_ID0018
 10
417.22
 20
241.85
 30
16.50
 42
-0.020392
  0
VERTEX
  8
BORDER_D0_T132_RK1_A0_W0_EM1_RI1_ID0018
 10
456.07
 20
234.64
 30
16.50
 42
-0.023970
  0
VERTEX
  8
BORDER_D0_T132_RK1_A0_W0_EM1_RI1_ID0018
 10
491.19
 20
224.87
 30
16.50
 42
-0.029934
  0
VERTEX
  8
BORDER_D0_T132_RK1_A0_W0_EM1_RI1_ID0018
 10
521.50
 20
212.83
 30
16.50
 42
-0.039882
  0
VERTEX
  8
BORDER_D0_T132_RK1_A0_W0_EM1_RI1_ID0018
 10
546.09
 20
198.87
 30
16.50
 42
-0.056349
  0
VERTEX
  8
BORDER_D0_T132_RK1_A0_W0_EM1_RI1_ID0018
 10
564.21
 20
183.43
 30
16.50
 42
-0.081329
  0
VERTEX
  8
BORDER_D0_T132_RK1_A0_W0_EM1_RI1_ID0018
 10
575.30
 20
166.97
 30
16.50
 42
-0.106572
  0
VERTEX
  8
BORDER_D0_T132_RK1_A0_W0_EM1_RI1_ID0018
 10
579.04
 20
150.00
 30
16.50
  0
SEQEND
  8
BORDER_D0_T132_RK1_A0_W0_EM1_RI1_ID0018
  0
POLYLINE
  8
BORDER_D0_T132_RK1_A0_W0_EM1_RI1_ID0004
 70
1
 66
1
  0
VERTEX
  8
BORDER_D0_T132_RK1_A0_W0_EM1_RI1_ID0004
 10
422.85
 20
1171.79
 30
16.50
  0
VERTEX
  8
BORDER_D0_T132_RK1_A0_W0_EM1_RI1_ID0004
 10
167.70
 20
1254.70
 30
16.50
  0
VERTEX
  8
BORDER_D0_T132_RK1_A0_W0_EM1_RI1_ID0004
 10
10.00
 20
1471.75
 30
16.50
  0
VERTEX
  8
BORDER_D0_T132_RK1_A0_W0_EM1_RI1_ID0004
 10
10.00
 20
1740.03
 30
16.50
  0
VERTEX
  8
BORDER_D0_T132_RK1_A0_W0_EM1_RI1_ID0004
 10
167.70
 20
1957.08
 30
16.50
  0
VERTEX
  8
BORDER_D0_T132_RK1_A0_W0_EM1_RI1_ID0004
 10
422.85
 20
2039.99
 30
16.50
  0
VERTEX
  8
BORDER_D0_T132_RK1_A0_W0_EM1_RI1_ID0004
 10
678.01
 20
1957.08
 30
16.50
  0
VERTEX
  8
BORDER_D0_T132_RK1_A0_W0_EM1_RI1_ID0004
 10
835.71
 20
1740.03
 30
16.50
  0
VERTEX
  8
BORDER_D0_T132_RK1_A0_W0_EM1_RI1_ID0004
 10
835.71
 20
1471.75
 30
16.50
  0
VERTEX
  8
BORDER_D0_T132_RK1_A0_W0_EM1_RI1_ID0004
 10
678.01
 20
1254.70
 30
16.50
  0
VERTEX
  8
BORDER_D0_T132_RK1_A0_W0_EM1_RI1_ID0004
 10
422.85
 20
1171.79
 30
16.50
  0
SEQEND
  8
BORDER_D0_T132_RK1_A0_W0_EM1_RI1_ID0004
  0
POLYLINE
  8
BORDER_D0_T132_RK1_A0_W0_EM1_RI1_ID0004
 70
1
 66
1
  0
VERTEX
  8
BORDER_D0_T132_RK1_A0_W0_EM1_RI1_ID0004
 10
1263.26
 20
1171.79
 30
16.50
  0
VERTEX
  8
BORDER_D0_T132_RK1_A0_W0_EM1_RI1_ID0004
 10
1008.11
 20
1254.70
 30
16.50
  0
VERTEX
  8
BORDER_D0_T132_RK1_A0_W0_EM1_RI1_ID0004
 10
850.41
 20
1471.75
 30
16.50
  0
VERTEX
  8
BORDER_D0_T132_RK1_A0_W0_EM1_RI1_ID0004
 10
850.41
 20
1740.03
 30
16.50
  0
VERTEX
  8
BORDER_D0_T132_RK1_A0_W0_EM1_RI1_ID0004
 10
1008.11
 20
1957.08
 30
16.50
  0
VERTEX
  8
BORDER_D0_T132_RK1_A0_W0_EM1_RI1_ID0004
 10
1263.26
 20
2039.99
 30
16.50
  0
VERTEX
  8
BORDER_D0_T132_RK1_A0_W0_EM1_RI1_ID0004
 10
1518.42
 20
1957.08
 30
16.50
  0
VERTEX
  8
BORDER_D0_T132_RK1_A0_W0_EM1_RI1_ID0004
 10
1676.12
 20
1740.03
 30
16.50
  0
VERTEX
  8
BORDER_D0_T132_RK1_A0_W0_EM1_RI1_ID0004
 10
1676.12
 20
1471.75
 30
16.50
  0
VERTEX
  8
BORDER_D0_T132_RK1_A0_W0_EM1_RI1_ID0004
 10
1518.42
 20
1254.70
 30
16.50
  0
VERTEX
  8
BORDER_D0_T132_RK1_A0_W0_EM1_RI1_ID0004
 10
1263.26
 20
1171.79
 30
16.50
  0
SEQEND
  8
BORDER_D0_T132_RK1_A0_W0_EM1_RI1_ID0004
  0
POLYLINE
  8
BORDER_D0_T132_RK1_A0_W0_EM1_RI1_ID0004
 70
1
 66
1
  0
VERTEX
  8
BORDER_D0_T132_RK1_A0_W0_EM1_RI1_ID0004
 10
2103.67
 20
1171.79
 30
16.50
  0
VERTEX
  8
BORDER_D0_T132_RK1_A0_W0_EM1_RI1_ID0004
 10
1848.52
 20
1254.70
 30
16.50
  0
VERTEX
  8
BORDER_D0_T132_RK1_A0_W0_EM1_RI1_ID0004
 10
1690.82
 20
1471.75
 30
16.50
  0
VERTEX
  8
BORDER_D0_T132_RK1_A0_W0_EM1_RI1_ID0004
 10
1690.82
 20
1740.03
 30
16.50
  0
VERTEX
  8
BORDER_D0_T132_RK1_A0_W0_EM1_RI1_ID0004
 10
1848.52
 20
1957.08
 30
16.50
  0
VERTEX
  8
BORDER_D0_T132_RK1_A0_W0_EM1_RI1_ID0004
 10
2103.67
 20
2039.99
 30
16.50
  0
VERTEX
  8
BORDER_D0_T132_RK1_A0_W0_EM1_RI1_ID0004
 10
2358.83
 20
1957.08
 30
16.50
  0
VERTEX
  8
BORDER_D0_T132_RK1_A0_W0_EM1_RI1_ID0004
 10
2516.53
 20
1740.03
 30
16.50
  0
VERTEX
  8
BORDER_D0_T132_RK1_A0_W0_EM1_RI1_ID0004
 10
2516.53
 20
1471.75
 30
16.50
  0
VERTEX
  8
BORDER_D0_T132_RK1_A0_W0_EM1_RI1_ID0004
 10
2358.83
 20
1254.70
 30
16.50
  0
VERTEX
  8
BORDER_D0_T132_RK1_A0_W0_EM1_RI1_ID0004
 10
2103.67
 20
1171.79
 30
16.50
  0
SEQEND
  8
BORDER_D0_T132_RK1_A0_W0_EM1_RI1_ID0004
  0
POLYLINE
  8
BORDER_D0_T132_RK1_A0_W0_EM1_RI1_ID0025
 70
1
 66
1
  0
VERTEX
  8
BORDER_D0_T132_RK1_A0_W0_EM1_RI1_ID0025
 10
2369.64
 20
1243.40
 30
16.50
  0
VERTEX
  8
BORDER_D0_T132_RK1_A0_W0_EM1_RI1_ID0025
 10
2462.60
 20
1175.87
 30
16.50
  0
VERTEX
  8
BORDER_D0_T132_RK1_A0_W0_EM1_RI1_ID0025
 10
2427.09
 20
1066.59
 30
16.50
  0
VERTEX
  8
BORDER_D0_T132_RK1_A0_W0_EM1_RI1_ID0025
 10
2312.19
 20
1066.59
 30
16.50
  0
VERTEX
  8
BORDER_D0_T132_RK1_A0_W0_EM1_RI1_ID0025
 10
2276.69
 20
1175.87
 30
16.50
  0
VERTEX
  8
BORDER_D0_T132_RK1_A0_W0_EM1_RI1_ID0025
 10
2369.64
 20
1243.40
 30
16.50
  0
SEQEND
  8
BORDER_D0_T132_RK1_A0_W0_EM1_RI1_ID0025
  0
POLYLINE
  8
BORDER_D0_T132_RK1_A0_W0_EM1_RI1_ID0004
 70
1
 66
1
  0
VERTEX
  8
BORDER_D0_T132_RK1_A0_W0_EM1_RI1_ID0004
 10
2447.23
 20
743.49
 30
16.50
  0
VERTEX
  8
BORDER_D0_T132_RK1_A0_W0_EM1_RI1_ID0004
 10
2364.32
 20
488.34
 30
16.50
  0
VERTEX
  8
BORDER_D0_T132_RK1_A0_W0_EM1_RI1_ID0004
 10
2147.27
 20
330.64
 30
16.50
  0
VERTEX
  8
BORDER_D0_T132_RK1_A0_W0_EM1_RI1_ID0004
 10
1878.99
 20
330.64
 30
16.50
  0
VERTEX
  8
BORDER_D0_T132_RK1_A0_W0_EM1_RI1_ID0004
 10
1661.94
 20
488.34
 30
16.50
  0
VERTEX
  8
BORDER_D0_T132_RK1_A0_W0_EM1_RI1_ID0004
 10
1579.03
 20
743.49
 30
16.50
  0
VERTEX
  8
BORDER_D0_T132_RK1_A0_W0_EM1_RI1_ID0004
 10
1661.94
 20
998.65
 30
16.50
  0
VERTEX
  8
BORDER_D0_T132_RK1_A0_W0_EM1_RI1_ID0004
 10
1878.99
 20
1156.35
 30
16.50
  0
VERTEX
  8
BORDER_D0_T132_RK1_A0_W0_EM1_RI1_ID0004
 10
2147.27
 20
1156.35
 30
16.50
  0
VERTEX
  8
BORDER_D0_T132_RK1_A0_W0_EM1_RI1_ID0004
 10
2364.32
 20
998.65
 30
16.50
  0
VERTEX
  8
BORDER_D0_T132_RK1_A0_W0_EM1_RI1_ID0004
 10
2447.23
 20
743.49
 30
16.50
  0
SEQEND
  8
BORDER_D0_T132_RK1_A0_W0_EM1_RI1_ID0004
  0
POLYLINE
  8
BORDER_D0_T132_RK1_A0_W0_EM1_RI1_ID0001
 70
1
 66
1
  0
VERTEX
  8
BORDER_D0_T132_RK1_A0_W0_EM1_RI1_ID0001
 10
2215.65
 20
220.20
 30
16.50
  0
VERTEX
  8
BORDER_D0_T132_RK1_A0_W0_EM1_RI1_ID0001
 10
2161.47
 20
206.04
 30
16.50
  0
VERTEX
  8
BORDER_D0_T132_RK1_A0_W0_EM1_RI1_ID0001
 10
2196.98
 20
162.75
 30
16.50
  0
VERTEX
  8
BORDER_D0_T132_RK1_A0_W0_EM1_RI1_ID0001
 10
2144.83
 20
183.14
 30
16.50
  0
VERTEX
  8
BORDER_D0_T132_RK1_A0_W0_EM1_RI1_ID0001
 10
2148.11
 20
127.24
 30
16.50
  0
VERTEX
  8
BORDER_D0_T132_RK1_A0_W0_EM1_RI1_ID0001
 10
2117.91
 20
174.40
 30
16.50
  0
VERTEX
  8
BORDER_D0_T132_RK1_A0_W0_EM1_RI1_ID0001
 10
2087.71
 20
127.24
 30
16.50
  0
VERTEX
  8
BORDER_D0_T132_RK1_A0_W0_EM1_RI1_ID0001
 10
2090.99
 20
183.14
 30
16.50
  0
VERTEX
  8
BORDER_D0_T132_RK1_A0_W0_EM1_RI1_ID0001
 10
2038.84
 20
162.75
 30
16.50
  0
VERTEX
  8
BORDER_D0_T132_RK1_A0_W0_EM1_RI1_ID0001
 10
2074.35
 20
206.04
 30
16.50
  0
VERTEX
  8
BORDER_D0_T132_RK1_A0_W0_EM1_RI1_ID0001
 10
2020.17
 20
220.20
 30
16.50
  0
VERTEX
  8
BORDER_D0_T132_RK1_A0_W0_EM1_RI1_ID0001
 10
2074.35
 20
234.35
 30
16.50
  0
VERTEX
  8
BORDER_D0_T132_RK1_A0_W0_EM1_RI1_ID0001
 10
2038.84
 20
277.65
 30
16.50
  0
VERTEX
  8
BORDER_D0_T132_RK1_A0_W0_EM1_RI1_ID0001
 10
2090.99
 20
257.25
 30
16.50
  0
VERTEX
  8
BORDER_D0_T132_RK1_A0_W0_EM1_RI1_ID0001
 10
2087.71
 20
313.15
 30
16.50
  0
VERTEX
  8
BORDER_D0_T132_RK1_A0_W0_EM1_RI1_ID0001
 10
2117.91
 20
266.00
 30
16.50
  0
VERTEX
  8
BORDER_D0_T132_RK1_A0_W0_EM1_RI1_ID0001
 10
2148.11
 20
313.15
 30
16.50
  0
VERTEX
  8
BORDER_D0_T132_RK1_A0_W0_EM1_RI1_ID0001
 10
2144.83
 20
257.25
 30
16.50
  0
VERTEX
  8
BORDER_D0_T132_RK1_A0_W0_EM1_RI1_ID0001
 10
2196.98
 20
277.65
 30
16.50
  0
VERTEX
  8
BORDER_D0_T132_RK1_A0_W0_EM1_RI1_ID0001
 10
2161.47
 20
234.35
 30
16.50
  0
VERTEX
  8
BORDER_D0_T132_RK1_A0_W0_EM1_RI1_ID0001
 10
2215.65
 20
220.20
 30
16.50
  0
SEQEND
  8
BORDER_D0_T132_RK1_A0_W0_EM1_RI1_ID0001
  0
POLYLINE
  8
BORDER_D0_T132_RK1_A0_W0_EM1_RI1_ID0004
 70
1
 66
1
  0
VERTEX
  8
BORDER_D0_T132_RK1_A0_W0_EM1_RI1_ID0004
 10
1667.11
 20
424.81
 30
16.50
  0
VERTEX
  8
BORDER_D0_T132_RK1_A0_W0_EM1_RI1_ID0004
 10
1584.20
 20
169.66
 30
16.50
  0
VERTEX
  8
BORDER_D0_T132_RK1_A0_W0_EM1_RI1_ID0004
 10
1367.15
 20
11.96
 30
16.50
  0
VERTEX
  8
BORDER_D0_T132_RK1_A0_W0_EM1_RI1_ID0004
 10
1098.87
 20
11.96
 30
16.50
  0
VERTEX
  8
BORDER_D0_T132_RK1_A0_W0_EM1_RI1_ID0004
 10
881.82
 20
169.66
 30
16.50
  0
VERTEX
  8
BORDER_D0_T132_RK1_A0_W0_EM1_RI1_ID0004
 10
798.91
 20
424.81
 30
16.50
  0
VERTEX
  8
BORDER_D0_T132_RK1_A0_W0_EM1_RI1_ID0004
 10
881.82
 20
679.97
 30
16.50
  0
VERTEX
  8
BORDER_D0_T132_RK1_A0_W0_EM1_RI1_ID0004
 10
1098.87
 20
837.67
 30
16.50
  0
VERTEX
  8
BORDER_D0_T132_RK1_A0_W0_EM1_RI1_ID0004
 10
1367.15
 20
837.67
 30
16.50
  0
VERTEX
  8
BORDER_D0_T132_RK1_A0_W0_EM1_RI1_ID0004
 10
1584.20
 20
679.97
 30
16.50
  0
VERTEX
  8
BORDER_D0_T132_RK1_A0_W0_EM1_RI1_ID0004
 10
1667.11
 20
424.81
 30
16.50
  0
SEQEND
  8
BORDER_D0_T132_RK1_A0_W0_EM1_RI1_ID0004
  0
POLYLINE
  8
BORDER_D0_T132_RK1_A0_W0_EM1_RI1_ID0025
 70
1
 66
1
  0
VERTEX
  8
BORDER_D0_T132_RK1_A0_W0_EM1_RI1_ID0025
 10
787.85
 20
193.41
 30
16.50
  0
VERTEX
  8
BORDER_D0_T132_RK1_A0_W0_EM1_RI1_ID0025
 10
880.81
 20
125.88
 30
16.50
  0
VERTEX
  8
BORDER_D0_T132_RK1_A0_W0_EM1_RI1_ID0025
 10
845.30
 20
16.60
 30
16.50
  0
VERTEX
  8
BORDER_D0_T132_RK1_A0_W0_EM1_RI1_ID0025
 10
730.40
 20
16.60
 30
16.50
  0
VERTEX
  8
BORDER_D0_T132_RK1_A0_W0_EM1_RI1_ID0025
 10
694.90
 20
125.88
 30
16.50
  0
VERTEX
  8
BORDER_D0_T132_RK1_A0_W0_EM1_RI1_ID0025
 10
787.85
 20
193.41
 30
16.50
  0
SEQEND
  8
BORDER_D0_T132_RK1_A0_W0_EM1_RI1_ID0025
  0
POLYLINE
  8
BORDER_D0_T132_RK1_A0_W0_EM1_RI1_ID0001
 70
1
 66
1
  0
VERTEX
  8
BORDER_D0_T132_RK1_A0_W0_EM1_RI1_ID0001
 10
782.46
 20
255.01
 30
16.50
  0
VERTEX
  8
BORDER_D0_T132_RK1_A0_W0_EM1_RI1_ID0001
 10
728.28
 20
240.85
 30
16.50
  0
VERTEX
  8
BORDER_D0_T132_RK1_A0_W0_EM1_RI1_ID0001
 10
763.79
 20
197.56
 30
16.50
  0
VERTEX
  8
BORDER_D0_T132_RK1_A0_W0_EM1_RI1_ID0001
 10
711.64
 20
217.95
 30
16.50
  0
VERTEX
  8
BORDER_D0_T132_RK1_A0_W0_EM1_RI1_ID0001
 10
714.92
 20
162.05
 30
16.50
  0
VERTEX
  8
BORDER_D0_T132_RK1_A0_W0_EM1_RI1_ID0001
 10
684.72
 20
209.21
 30
16.50
  0
VERTEX
  8
BORDER_D0_T132_RK1_A0_W0_EM1_RI1_ID0001
 10
654.52
 20
162.05
 30
16.50
  0
VERTEX
  8
BORDER_D0_T132_RK1_A0_W0_EM1_RI1_ID0001
 10
657.80
 20
217.95
 30
16.50
  0
VERTEX
  8
BORDER_D0_T132_RK1_A0_W0_EM1_RI1_ID0001
 10
605.65
 20
197.56
 30
16.50
  0
VERTEX
  8
BORDER_D0_T132_RK1_A0_W0_EM1_RI1_ID0001
 10
641.16
 20
240.85
 30
16.50
  0
VERTEX
  8
BORDER_D0_T132_RK1_A0_W0_EM1_RI1_ID0001
 10
586.98
 20
255.01
 30
16.50
  0
VERTEX
  8
BORDER_D0_T132_RK1_A0_W0_EM1_RI1_ID0001
 10
641.16
 20
269.16
 30
16.50
  0
VERTEX
  8
BORDER_D0_T132_RK1_A0_W0_EM1_RI1_ID0001
 10
605.65
 20
312.46
 30
16.50
  0
VERTEX
  8
BORDER_D0_T132_RK1_A0_W0_EM1_RI1_ID0001
 10
657.80
 20
292.06
 30
16.50
  0
VERTEX
  8
BORDER_D0_T132_RK1_A0_W0_EM1_RI1_ID0001
 10
654.52
 20
347.96
 30
16.50
  0
VERTEX
  8
BORDER_D0_T132_RK1_A0_W0_EM1_RI1_ID0001
 10
684.72
 20
300.81
 30
16.50
  0
VERTEX
  8
BORDER_D0_T132_RK1_A0_W0_EM1_RI1_ID0001
 10
714.92
 20
347.96
 30
16.50
  0
VERTEX
  8
BORDER_D0_T132_RK1_A0_W0_EM1_RI1_ID0001
 10
711.64
 20
292.06
 30
16.50
  0
VERTEX
  8
BORDER_D0_T132_RK1_A0_W0_EM1_RI1_ID0001
 10
763.79
 20
312.46
 30
16.50
  0
VERTEX
  8
BORDER_D0_T132_RK1_A0_W0_EM1_RI1_ID0001
 10
728.28
 20
269.16
 30
16.50
  0
VERTEX
  8
BORDER_D0_T132_RK1_A0_W0_EM1_RI1_ID0001
 10
782.46
 20
255.01
 30
16.50
  0
SEQEND
  8
BORDER_D0_T132_RK1_A0_W0_EM1_RI1_ID0001
  0
POLYLINE
  8
BORDER_D0_T132_RK1_A0_W0_EM1_RI1_ID0004
 70
1
 66
1
  0
VERTEX
  8
BORDER_D0_T132_RK1_A0_W0_EM1_RI1_ID0004
 10
422.85
 20
288.14
 30
16.50
  0
VERTEX
  8
BORDER_D0_T132_RK1_A0_W0_EM1_RI1_ID0004
 10
167.70
 20
371.05
 30
16.50
  0
VERTEX
  8
BORDER_D0_T132_RK1_A0_W0_EM1_RI1_ID0004
 10
10.00
 20
588.10
 30
16.50
  0
VERTEX
  8
BORDER_D0_T132_RK1_A0_W0_EM1_RI1_ID0004
 10
10.00
 20
856.38
 30
16.50
  0
VERTEX
  8
BORDER_D0_T132_RK1_A0_W0_EM1_RI1_ID0004
 10
167.70
 20
1073.43
 30
16.50
  0
VERTEX
  8
BORDER_D0_T132_RK1_A0_W0_EM1_RI1_ID0004
 10
422.85
 20
1156.34
 30
16.50
  0
VERTEX
  8
BORDER_D0_T132_RK1_A0_W0_EM1_RI1_ID0004
 10
678.01
 20
1073.43
 30
16.50
  0
VERTEX
  8
BORDER_D0_T132_RK1_A0_W0_EM1_RI1_ID0004
 10
835.71
 20
856.38
 30
16.50
  0
VERTEX
  8
BORDER_D0_T132_RK1_A0_W0_EM1_RI1_ID0004
 10
835.71
 20
588.10
 30
16.50
  0
VERTEX
  8
BORDER_D0_T132_RK1_A0_W0_EM1_RI1_ID0004
 10
678.01
 20
371.05
 30
16.50
  0
VERTEX
  8
BORDER_D0_T132_RK1_A0_W0_EM1_RI1_ID0004
 10
422.85
 20
288.14
 30
16.50
  0
SEQEND
  8
BORDER_D0_T132_RK1_A0_W0_EM1_RI1_ID0004
  0
POLYLINE
  8
BORDER_D0_T132_RK1_A0_W0_EM1_RI1_ID0009
 70
1
 66
1
  0
VERTEX
  8
BORDER_D0_T132_RK1_A0_W0_EM1_RI1_ID0009
 10
94.64
 20
201.63
 30
16.50
  0
VERTEX
  8
BORDER_D0_T132_RK1_A0_W0_EM1_RI1_ID0009
 10
74.38
 20
264.27
 30
16.50
  0
VERTEX
  8
BORDER_D0_T132_RK1_A0_W0_EM1_RI1_ID0009
 10
10.00
 20
250.50
 30
16.50
  0
VERTEX
  8
BORDER_D0_T132_RK1_A0_W0_EM1_RI1_ID0009
 10
54.11
 20
299.37
 30
16.50
  0
VERTEX
  8
BORDER_D0_T132_RK1_A0_W0_EM1_RI1_ID0009
 10
10.00
 20
348.24
 30
16.50
  0
VERTEX
  8
BORDER_D0_T132_RK1_A0_W0_EM1_RI1_ID0009
 10
74.38
 20
334.47
 30
16.50
  0
VERTEX
  8
BORDER_D0_T132_RK1_A0_W0_EM1_RI1_ID0009
 10
94.64
 20
397.11
 30
16.50
  0
VERTEX
  8
BORDER_D0_T132_RK1_A0_W0_EM1_RI1_ID0009
 10
114.91
 20
334.47
 30
16.50
  0
VERTEX
  8
BORDER_D0_T132_RK1_A0_W0_EM1_RI1_ID0009
 10
179.28
 20
348.24
 30
16.50
  0
VERTEX
  8
BORDER_D0_T132_RK1_A0_W0_EM1_RI1_ID0009
 10
135.18
 20
299.37
 30
16.50
  0
VERTEX
  8
BORDER_D0_T132_RK1_A0_W0_EM1_RI1_ID0009
 10
179.28
 20
250.50
 30
16.50
  0
VERTEX
  8
BORDER_D0_T132_RK1_A0_W0_EM1_RI1_ID0009
 10
114.91
 20
264.27
 30
16.50
  0
VERTEX
  8
BORDER_D0_T132_RK1_A0_W0_EM1_RI1_ID0009
 10
94.64
 20
201.63
 30
16.50
  0
SEQEND
  8
BORDER_D0_T132_RK1_A0_W0_EM1_RI1_ID0009
  0
POLYLINE
  8
BORDER_D0_T132_RK1_A0_W0_EM1_RI1_ID0009
 70
1
 66
1
  0
VERTEX
  8
BORDER_D0_T132_RK1_A0_W0_EM1_RI1_ID0009
 10
94.64
 20
1085.23
 30
16.50
  0
VERTEX
  8
BORDER_D0_T132_RK1_A0_W0_EM1_RI1_ID0009
 10
74.38
 20
1147.87
 30
16.50
  0
VERTEX
  8
BORDER_D0_T132_RK1_A0_W0_EM1_RI1_ID0009
 10
10.00
 20
1134.10
 30
16.50
  0
VERTEX
  8
BORDER_D0_T132_RK1_A0_W0_EM1_RI1_ID0009
 10
54.11
 20
1182.97
 30
16.50
  0
VERTEX
  8
BORDER_D0_T132_RK1_A0_W0_EM1_RI1_ID0009
 10
10.00
 20
1231.84
 30
16.50
  0
VERTEX
  8
BORDER_D0_T132_RK1_A0_W0_EM1_RI1_ID0009
 10
74.38
 20
1218.07
 30
16.50
  0
VERTEX
  8
BORDER_D0_T132_RK1_A0_W0_EM1_RI1_ID0009
 10
94.64
 20
1280.71
 30
16.50
  0
VERTEX
  8
BORDER_D0_T132_RK1_A0_W0_EM1_RI1_ID0009
 10
114.91
 20
1218.07
 30
16.50
  0
VERTEX
  8
BORDER_D0_T132_RK1_A0_W0_EM1_RI1_ID0009
 10
179.28
 20
1231.84
 30
16.50
  0
VERTEX
  8
BORDER_D0_T132_RK1_A0_W0_EM1_RI1_ID0009
 10
135.18
 20
1182.97
 30
16.50
  0
VERTEX
  8
BORDER_D0_T132_RK1_A0_W0_EM1_RI1_ID0009
 10
179.28
 20
1134.10
 30
16.50
  0
VERTEX
  8
BORDER_D0_T132_RK1_A0_W0_EM1_RI1_ID0009
 10
114.91
 20
1147.87
 30
16.50
  0
VERTEX
  8
BORDER_D0_T132_RK1_A0_W0_EM1_RI1_ID0009
 10
94.64
 20
1085.23
 30
16.50
  0
SEQEND
  8
BORDER_D0_T132_RK1_A0_W0_EM1_RI1_ID0009
  0
POLYLINE
  8
BORDER_D0_T132_RK1_A0_W0_EM1_RI1_ID0001
 70
1
 66
1
  0
VERTEX
  8
BORDER_D0_T132_RK1_A0_W0_EM1_RI1_ID0001
 10
846.49
 20
1175.00
 30
16.50
  0
VERTEX
  8
BORDER_D0_T132_RK1_A0_W0_EM1_RI1_ID0001
 10
792.31
 20
1160.84
 30
16.50
  0
VERTEX
  8
BORDER_D0_T132_RK1_A0_W0_EM1_RI1_ID0001
 10
827.82
 20
1117.55
 30
16.50
  0
VERTEX
  8
BORDER_D0_T132_RK1_A0_W0_EM1_RI1_ID0001
 10
775.67
 20
1137.94
 30
16.50
  0
VERTEX
  8
BORDER_D0_T132_RK1_A0_W0_EM1_RI1_ID0001
 10
778.95
 20
1082.04
 30
16.50
  0
VERTEX
  8
BORDER_D0_T132_RK1_A0_W0_EM1_RI1_ID0001
 10
748.75
 20
1129.20
 30
16.50
  0
VERTEX
  8
BORDER_D0_T132_RK1_A0_W0_EM1_RI1_ID0001
 10
718.55
 20
1082.04
 30
16.50
  0
VERTEX
  8
BORDER_D0_T132_RK1_A0_W0_EM1_RI1_ID0001
 10
721.83
 20
1137.94
 30
16.50
  0
VERTEX
  8
BORDER_D0_T132_RK1_A0_W0_EM1_RI1_ID0001
 10
669.68
 20
1117.55
 30
16.50
  0
VERTEX
  8
BORDER_D0_T132_RK1_A0_W0_EM1_RI1_ID0001
 10
705.19
 20
1160.84
 30
16.50
  0
VERTEX
  8
BORDER_D0_T132_RK1_A0_W0_EM1_RI1_ID0001
 10
651.01
 20
1175.00
 30
16.50
  0
VERTEX
  8
BORDER_D0_T132_RK1_A0_W0_EM1_RI1_ID0001
 10
705.19
 20
1189.15
 30
16.50
  0
VERTEX
  8
BORDER_D0_T132_RK1_A0_W0_EM1_RI1_ID0001
 10
669.68
 20
1232.45
 30
16.50
  0
VERTEX
  8
BORDER_D0_T132_RK1_A0_W0_EM1_RI1_ID0001
 10
721.83
 20
1212.05
 30
16.50
  0
VERTEX
  8
BORDER_D0_T132_RK1_A0_W0_EM1_RI1_ID0001
 10
718.55
 20
1267.95
 30
16.50
  0
VERTEX
  8
BORDER_D0_T132_RK1_A0_W0_EM1_RI1_ID0001
 10
748.75
 20
1220.80
 30
16.50
  0
VERTEX
  8
BORDER_D0_T132_RK1_A0_W0_EM1_RI1_ID0001
 10
778.95
 20
1267.95
 30
16.50
  0
VERTEX
  8
BORDER_D0_T132_RK1_A0_W0_EM1_RI1_ID0001
 10
775.67
 20
1212.05
 30
16.50
  0
VERTEX
  8
BORDER_D0_T132_RK1_A0_W0_EM1_RI1_ID0001
 10
827.82
 20
1232.45
 30
16.50
  0
VERTEX
  8
BORDER_D0_T132_RK1_A0_W0_EM1_RI1_ID0001
 10
792.31
 20
1189.15
 30
16.50
  0
VERTEX
  8
BORDER_D0_T132_RK1_A0_W0_EM1_RI1_ID0001
 10
846.49
 20
1175.00
 30
16.50
  0
SEQEND
  8
BORDER_D0_T132_RK1_A0_W0_EM1_RI1_ID0001
  0
POLYLINE
  8
BORDER_D0_T132_RK1_A0_W0_EM1_RI1_ID0001
 70
1
 66
1
  0
VERTEX
  8
BORDER_D0_T132_RK1_A0_W0_EM1_RI1_ID0001
 10
854.22
 20
934.08
 30
16.50
  0
VERTEX
  8
BORDER_D0_T132_RK1_A0_W0_EM1_RI1_ID0001
 10
840.06
 20
988.25
 30
16.50
  0
VERTEX
  8
BORDER_D0_T132_RK1_A0_W0_EM1_RI1_ID0001
 10
796.77
 20
952.75
 30
16.50
  0
VERTEX
  8
BORDER_D0_T132_RK1_A0_W0_EM1_RI1_ID0001
 10
817.16
 20
1004.89
 30
16.50
  0
VERTEX
  8
BORDER_D0_T132_RK1_A0_W0_EM1_RI1_ID0001
 10
761.26
 20
1001.61
 30
16.50
  0
VERTEX
  8
BORDER_D0_T132_RK1_A0_W0_EM1_RI1_ID0001
 10
808.42
 20
1031.82
 30
16.50
  0
VERTEX
  8
BORDER_D0_T132_RK1_A0_W0_EM1_RI1_ID0001
 10
761.26
 20
1062.01
 30
16.50
  0
VERTEX
  8
BORDER_D0_T132_RK1_A0_W0_EM1_RI1_ID0001
 10
817.16
 20
1058.74
 30
16.50
  0
VERTEX
  8
BORDER_D0_T132_RK1_A0_W0_EM1_RI1_ID0001
 10
796.77
 20
1110.88
 30
16.50
  0
VERTEX
  8
BORDER_D0_T132_RK1_A0_W0_EM1_RI1_ID0001
 10
840.06
 20
1075.37
 30
16.50
  0
VERTEX
  8
BORDER_D0_T132_RK1_A0_W0_EM1_RI1_ID0001
 10
854.22
 20
1129.56
 30
16.50
  0
VERTEX
  8
BORDER_D0_T132_RK1_A0_W0_EM1_RI1_ID0001
 10
868.37
 20
1075.37
 30
16.50
  0
VERTEX
  8
BORDER_D0_T132_RK1_A0_W0_EM1_RI1_ID0001
 10
911.67
 20
1110.88
 30
16.50
  0
VERTEX
  8
BORDER_D0_T132_RK1_A0_W0_EM1_RI1_ID0001
 10
891.27
 20
1058.74
 30
16.50
  0
VERTEX
  8
BORDER_D0_T132_RK1_A0_W0_EM1_RI1_ID0001
 10
947.17
 20
1062.01
 30
16.50
  0
VERTEX
  8
BORDER_D0_T132_RK1_A0_W0_EM1_RI1_ID0001
 10
900.02
 20
1031.82
 30
16.50
  0
VERTEX
  8
BORDER_D0_T132_RK1_A0_W0_EM1_RI1_ID0001
 10
947.17
 20
1001.61
 30
16.50
  0
VERTEX
  8
BORDER_D0_T132_RK1_A0_W0_EM1_RI1_ID0001
 10
891.27
 20
1004.89
 30
16.50
  0
VERTEX
  8
BORDER_D0_T132_RK1_A0_W0_EM1_RI1_ID0001
 10
911.67
 20
952.75
 30
16.50
  0
VERTEX
  8
BORDER_D0_T132_RK1_A0_W0_EM1_RI1_ID0001
 10
868.37
 20
988.25
 30
16.50
  0
VERTEX
  8
BORDER_D0_T132_RK1_A0_W0_EM1_RI1_ID0001
 10
854.22
 20
934.08
 30
16.50
  0
SEQEND
  8
BORDER_D0_T132_RK1_A0_W0_EM1_RI1_ID0001
  0
POLYLINE
  8
BORDER_D0_T132_RK1_A0_W0_EM1_RI1_ID0007
 70
1
 66
1
  0
VERTEX
  8
BORDER_D0_T132_RK1_A0_W0_EM1_RI1_ID0007
 10
945.98
 20
773.75
 30
16.50
  0
VERTEX
  8
BORDER_D0_T132_RK1_A0_W0_EM1_RI1_ID0007
 10
924.03
 20
841.28
 30
16.50
  0
VERTEX
  8
BORDER_D0_T132_RK1_A0_W0_EM1_RI1_ID0007
 10
853.02
 20
841.28
 30
16.50
  0
VERTEX
  8
BORDER_D0_T132_RK1_A0_W0_EM1_RI1_ID0007
 10
910.47
 20
883.02
 30
16.50
  0
VERTEX
  8
BORDER_D0_T132_RK1_A0_W0_EM1_RI1_ID0007
 10
888.53
 20
950.56
 30
16.50
  0
VERTEX
  8
BORDER_D0_T132_RK1_A0_W0_EM1_RI1_ID0007
 10
945.98
 20
908.82
 30
16.50
  0
VERTEX
  8
BORDER_D0_T132_RK1_A0_W0_EM1_RI1_ID0007
 10
1003.43
 20
950.56
 30
16.50
  0
VERTEX
  8
BORDER_D0_T132_RK1_A0_W0_EM1_RI1_ID0007
 10
981.48
 20
883.02
 30
16.50
  0
VERTEX
  8
BORDER_D0_T132_RK1_A0_W0_EM1_RI1_ID0007
 10
1038.93
 20
841.28
 30
16.50
  0
VERTEX
  8
BORDER_D0_T132_RK1_A0_W0_EM1_RI1_ID0007
 10
967.92
 20
841.28
 30
16.50
  0
VERTEX
  8
BORDER_D0_T132_RK1_A0_W0_EM1_RI1_ID0007
 10
945.98
 20
773.75
 30
16.50
  0
SEQEND
  8
BORDER_D0_T132_RK1_A0_W0_EM1_RI1_ID0007
  0
POLYLINE
  8
BORDER_D0_T132_RK1_A0_W0_EM1_RI1_ID0025
 70
1
 66
1
  0
VERTEX
  8
BORDER_D0_T132_RK1_A0_W0_EM1_RI1_ID0025
 10
1519.32
 20
1063.41
 30
16.50
  0
VERTEX
  8
BORDER_D0_T132_RK1_A0_W0_EM1_RI1_ID0025
 10
1612.28
 20
995.88
 30
16.50
  0
VERTEX
  8
BORDER_D0_T132_RK1_A0_W0_EM1_RI1_ID0025
 10
1576.77
 20
886.60
 30
16.50
  0
VERTEX
  8
BORDER_D0_T132_RK1_A0_W0_EM1_RI1_ID0025
 10
1461.87
 20
886.60
 30
16.50
  0
VERTEX
  8
BORDER_D0_T132_RK1_A0_W0_EM1_RI1_ID0025
 10
1426.37
 20
995.88
 30
16.50
  0
VERTEX
  8
BORDER_D0_T132_RK1_A0_W0_EM1_RI1_ID0025
 10
1519.32
 20
1063.41
 30
16.50
  0
SEQEND
  8
BORDER_D0_T132_RK1_A0_W0_EM1_RI1_ID0025
  0
POLYLINE
  8
BORDER_D0_T132_RK1_A0_W0_EM1_RI1_ID0001
 70
1
 66
1
  0
VERTEX
  8
BORDER_D0_T132_RK1_A0_W0_EM1_RI1_ID0001
 10
1686.88
 20
1175.00
 30
16.50
  0
VERTEX
  8
BORDER_D0_T132_RK1_A0_W0_EM1_RI1_ID0001
 10
1632.70
 20
1160.84
 30
16.50
  0
VERTEX
  8
BORDER_D0_T132_RK1_A0_W0_EM1_RI1_ID0001
 10
1668.21
 20
1117.55
 30
16.50
  0
VERTEX
  8
BORDER_D0_T132_RK1_A0_W0_EM1_RI1_ID0001
 10
1616.06
 20
1137.94
 30
16.50
  0
VERTEX
  8
BORDER_D0_T132_RK1_A0_W0_EM1_RI1_ID0001
 10
1619.34
 20
1082.04
 30
16.50
  0
VERTEX
  8
BORDER_D0_T132_RK1_A0_W0_EM1_RI1_ID0001
 10
1589.14
 20
1129.20
 30
16.50
  0
VERTEX
  8
BORDER_D0_T132_RK1_A0_W0_EM1_RI1_ID0001
 10
1558.94
 20
1082.04
 30
16.50
  0
VERTEX
  8
BORDER_D0_T132_RK1_A0_W0_EM1_RI1_ID0001
 10
1562.22
 20
1137.94
 30
16.50
  0
VERTEX
  8
BORDER_D0_T132_RK1_A0_W0_EM1_RI1_ID0001
 10
1510.07
 20
1117.55
 30
16.50
  0
VERTEX
  8
BORDER_D0_T132_RK1_A0_W0_EM1_RI1_ID0001
 10
1545.58
 20
1160.84
 30
16.50
  0
VERTEX
  8
BORDER_D0_T132_RK1_A0_W0_EM1_RI1_ID0001
 10
1491.40
 20
1175.00
 30
16.50
  0
VERTEX
  8
BORDER_D0_T132_RK1_A0_W0_EM1_RI1_ID0001
 10
1545.58
 20
1189.15
 30
16.50
  0
VERTEX
  8
BORDER_D0_T132_RK1_A0_W0_EM1_RI1_ID0001
 10
1510.07
 20
1232.45
 30
16.50
  0
VERTEX
  8
BORDER_D0_T132_RK1_A0_W0_EM1_RI1_ID0001
 10
1562.22
 20
1212.05
 30
16.50
  0
VERTEX
  8
BORDER_D0_T132_RK1_A0_W0_EM1_RI1_ID0001
 10
1558.94
 20
1267.95
 30
16.50
  0
VERTEX
  8
BORDER_D0_T132_RK1_A0_W0_EM1_RI1_ID0001
 10
1589.14
 20
1220.80
 30
16.50
  0
VERTEX
  8
BORDER_D0_T132_RK1_A0_W0_EM1_RI1_ID0001
 10
1619.34
 20
1267.95
 30
16.50
  0
VERTEX
  8
BORDER_D0_T132_RK1_A0_W0_EM1_RI1_ID0001
 10
1616.06
 20
1212.05
 30
16.50
  0
VERTEX
  8
BORDER_D0_T132_RK1_A0_W0_EM1_RI1_ID0001
 10
1668.21
 20
1232.45
 30
16.50
  0
VERTEX
  8
BORDER_D0_T132_RK1_A0_W0_EM1_RI1_ID0001
 10
1632.70
 20
1189.15
 30
16.50
  0
VERTEX
  8
BORDER_D0_T132_RK1_A0_W0_EM1_RI1_ID0001
 10
1686.88
 20
1175.00
 30
16.50
  0
SEQEND
  8
BORDER_D0_T132_RK1_A0_W0_EM1_RI1_ID0001
  0
POLYLINE
  8
BORDER_D0_T132_RK1_A0_W0_EM1_RI1_ID0009
 70
1
 66
1
  0
VERTEX
  8
BORDER_D0_T132_RK1_A0_W0_EM1_RI1_ID0009
 10
1749.81
 20
1955.35
 30
16.50
  0
VERTEX
  8
BORDER_D0_T132_RK1_A0_W0_EM1_RI1_ID0009
 10
1687.17
 20
1935.09
 30
16.50
  0
VERTEX
  8
BORDER_D0_T132_RK1_A0_W0_EM1_RI1_ID0009
 10
1700.94
 20
1870.71
 30
16.50
  0
VERTEX
  8
BORDER_D0_T132_RK1_A0_W0_EM1_RI1_ID0009
 10
1652.07
 20
1914.82
 30
16.50
  0
VERTEX
  8
BORDER_D0_T132_RK1_A0_W0_EM1_RI1_ID0009
 10
1603.20
 20
1870.71
 30
16.50
  0
VERTEX
  8
BORDER_D0_T132_RK1_A0_W0_EM1_RI1_ID0009
 10
1616.97
 20
1935.09
 30
16.50
  0
VERTEX
  8
BORDER_D0_T132_RK1_A0_W0_EM1_RI1_ID0009
 10
1554.33
 20
1955.35
 30
16.50
  0
VERTEX
  8
BORDER_D0_T132_RK1_A0_W0_EM1_RI1_ID0009
 10
1616.97
 20
1975.62
 30
16.50
  0
VERTEX
  8
BORDER_D0_T132_RK1_A0_W0_EM1_RI1_ID0009
 10
1603.20
 20
2040.00
 30
16.50
  0
VERTEX
  8
BORDER_D0_T132_RK1_A0_W0_EM1_RI1_ID0009
 10
1652.07
 20
1995.89
 30
16.50
  0
VERTEX
  8
BORDER_D0_T132_RK1_A0_W0_EM1_RI1_ID0009
 10
1700.94
 20
2040.00
 30
16.50
  0
VERTEX
  8
BORDER_D0_T132_RK1_A0_W0_EM1_RI1_ID0009
 10
1687.17
 20
1975.62
 30
16.50
  0
VERTEX
  8
BORDER_D0_T132_RK1_A0_W0_EM1_RI1_ID0009
 10
1749.81
 20
1955.35
 30
16.50
  0
SEQEND
  8
BORDER_D0_T132_RK1_A0_W0_EM1_RI1_ID0009
  0
POLYLINE
  8
BORDER_D0_T132_RK1_A0_W0_EM1_RI1_ID0009
 70
1
 66
1
  0
VERTEX
  8
BORDER_D0_T132_RK1_A0_W0_EM1_RI1_ID0009
 10
909.38
 20
1955.35
 30
16.50
  0
VERTEX
  8
BORDER_D0_T132_RK1_A0_W0_EM1_RI1_ID0009
 10
846.74
 20
1935.09
 30
16.50
  0
VERTEX
  8
BORDER_D0_T132_RK1_A0_W0_EM1_RI1_ID0009
 10
860.51
 20
1870.71
 30
16.50
  0
VERTEX
  8
BORDER_D0_T132_RK1_A0_W0_EM1_RI1_ID0009
 10
811.64
 20
1914.82
 30
16.50
  0
VERTEX
  8
BORDER_D0_T132_RK1_A0_W0_EM1_RI1_ID0009
 10
762.77
 20
1870.71
 30
16.50
  0
VERTEX
  8
BORDER_D0_T132_RK1_A0_W0_EM1_RI1_ID0009
 10
776.54
 20
1935.09
 30
16.50
  0
VERTEX
  8
BORDER_D0_T132_RK1_A0_W0_EM1_RI1_ID0009
 10
713.90
 20
1955.35
 30
16.50
  0
VERTEX
  8
BORDER_D0_T132_RK1_A0_W0_EM1_RI1_ID0009
 10
776.54
 20
1975.62
 30
16.50
  0
VERTEX
  8
BORDER_D0_T132_RK1_A0_W0_EM1_RI1_ID0009
 10
762.77
 20
2040.00
 30
16.50
  0
VERTEX
  8
BORDER_D0_T132_RK1_A0_W0_EM1_RI1_ID0009
 10
811.64
 20
1995.89
 30
16.50
  0
VERTEX
  8
BORDER_D0_T132_RK1_A0_W0_EM1_RI1_ID0009
 10
860.51
 20
2040.00
 30
16.50
  0
VERTEX
  8
BORDER_D0_T132_RK1_A0_W0_EM1_RI1_ID0009
 10
846.74
 20
1975.62
 30
16.50
  0
VERTEX
  8
BORDER_D0_T132_RK1_A0_W0_EM1_RI1_ID0009
 10
909.38
 20
1955.35
 30
16.50
  0
SEQEND
  8
BORDER_D0_T132_RK1_A0_W0_EM1_RI1_ID0009
  0
POLYLINE
  8
BORDER_D0_T132_RK1_A0_W0_EM1_RI1_ID0018
 70
1
 66
1
  0
VERTEX
  8
BORDER_D0_T132_RK1_A0_W0_EM1_RI1_ID0018
 10
2051.37
 20
108.36
 30
16.50
 42
-0.106572
  0
VERTEX
  8
BORDER_D0_T132_RK1_A0_W0_EM1_RI1_ID0018
 10
2047.63
 20
91.39
 30
16.50
 42
-0.081329
  0
VERTEX
  8
BORDER_D0_T132_RK1_A0_W0_EM1_RI1_ID0018
 10
2036.54
 20
74.93
 30
16.50
 42
-0.056348
  0
VERTEX
  8
BORDER_D0_T132_RK1_A0_W0_EM1_RI1_ID0018
 10
2018.42
 20
59.49
 30
16.50
 42
-0.039882
  0
VERTEX
  8
BORDER_D0_T132_RK1_A0_W0_EM1_RI1_ID0018
 10
1993.83
 20
45.53
 30
16.50
 42
-0.029934
  0
VERTEX
  8
BORDER_D0_T132_RK1_A0_W0_EM1_RI1_ID0018
 10
1963.52
 20
33.49
 30
16.50
 42
-0.023970
  0
VERTEX
  8
BORDER_D0_T132_RK1_A0_W0_EM1_RI1_ID0018
 10
1928.40
 20
23.72
 30
16.50
 42
-0.020392
  0
VERTEX
  8
BORDER_D0_T132_RK1_A0_W0_EM1_RI1_ID0018
 10
1889.55
 20
16.51
 30
16.50
 42
-0.018360
  0
VERTEX
  8
BORDER_D0_T132_RK1_A0_W0_EM1_RI1_ID0018
 10
1848.14
 20
12.11
 30
16.50
 42
-0.017436
  0
VERTEX
  8
BORDER_D0_T132_RK1_A0_W0_EM1_RI1_ID0018
 10
1805.43
 20
10.62
 30
16.50
 42
-0.017436
  0
VERTEX
  8
BORDER_D0_T132_RK1_A0_W0_EM1_RI1_ID0018
 10
1762.72
 20
12.11
 30
16.50
 42
-0.018360
  0
VERTEX
  8
BORDER_D0_T132_RK1_A0_W0_EM1_RI1_ID0018
 10
1721.31
 20
16.51
 30
16.50
 42
-0.020392
  0
VERTEX
  8
BORDER_D0_T132_RK1_A0_W0_EM1_RI1_ID0018
 10
1682.46
 20
23.72
 30
16.50
 42
-0.023970
  0
VERTEX
  8
BORDER_D0_T132_RK1_A0_W0_EM1_RI1_ID0018
 10
1647.34
 20
33.49
 30
16.50
 42
-0.029934
  0
VERTEX
  8
BORDER_D0_T132_RK1_A0_W0_EM1_RI1_ID0018
 10
1617.03
 20
45.53
 30
16.50
 42
-0.039882
  0
VERTEX
  8
BORDER_D0_T132_RK1_A0_W0_EM1_RI1_ID0018
 10
1592.44
 20
59.49
 30
16.50
 42
-0.056349
  0
VERTEX
  8
BORDER_D0_T132_RK1_A0_W0_EM1_RI1_ID0018
 10
1574.32
 20
74.93
 30
16.50
 42
-0.081329
  0
VERTEX
  8
BORDER_D0_T132_RK1_A0_W0_EM1_RI1_ID0018
 10
1563.23
 20
91.39
 30
16.50
 42
-0.106572
  0
VERTEX
  8
BORDER_D0_T132_RK1_A0_W0_EM1_RI1_ID0018
 10
1559.49
 20
108.36
 30
16.50
 42
-0.106572
  0
VERTEX
  8
BORDER_D0_T132_RK1_A0_W0_EM1_RI1_ID0018
 10
1563.23
 20
125.33
 30
16.50
 42
-0.081329
  0
VERTEX
  8
BORDER_D0_T132_RK1_A0_W0_EM1_RI1_ID0018
 10
1574.32
 20
141.79
 30
16.50
 42
-0.056348
  0
VERTEX
  8
BORDER_D0_T132_RK1_A0_W0_EM1_RI1_ID0018
 10
1592.44
 20
157.23
 30
16.50
 42
-0.039882
  0
VERTEX
  8
BORDER_D0_T132_RK1_A0_W0_EM1_RI1_ID0018
 10
1617.03
 20
171.19
 30
16.50
 42
-0.029934
  0
VERTEX
  8
BORDER_D0_T132_RK1_A0_W0_EM1_RI1_ID0018
 10
1647.34
 20
183.23
 30
16.50
 42
-0.023970
  0
VERTEX
  8
BORDER_D0_T132_RK1_A0_W0_EM1_RI1_ID0018
 10
1682.46
 20
193.00
 30
16.50
 42
-0.020392
  0
VERTEX
  8
BORDER_D0_T132_RK1_A0_W0_EM1_RI1_ID0018
 10
1721.31
 20
200.21
 30
16.50
 42
-0.018360
  0
VERTEX
  8
BORDER_D0_T132_RK1_A0_W0_EM1_RI1_ID0018
 10
1762.72
 20
204.61
 30
16.50
 42
-0.017437
  0
VERTEX
  8
BORDER_D0_T132_RK1_A0_W0_EM1_RI1_ID0018
 10
1805.43
 20
206.10
 30
16.50
 42
-0.017437
  0
VERTEX
  8
BORDER_D0_T132_RK1_A0_W0_EM1_RI1_ID0018
 10
1848.14
 20
204.61
 30
16.50
 42
-0.018360
  0
VERTEX
  8
BORDER_D0_T132_RK1_A0_W0_EM1_RI1_ID0018
 10
1889.55
 20
200.21
 30
16.50
 42
-0.020392
  0
VERTEX
  8
BORDER_D0_T132_RK1_A0_W0_EM1_RI1_ID0018
 10
1928.40
 20
193.00
 30
16.50
 42
-0.023970
  0
VERTEX
  8
BORDER_D0_T132_RK1_A0_W0_EM1_RI1_ID0018
 10
1963.52
 20
183.23
 30
16.50
 42
-0.029934
  0
VERTEX
  8
BORDER_D0_T132_RK1_A0_W0_EM1_RI1_ID0018
 10
1993.83
 20
171.19
 30
16.50
 42
-0.039882
  0
VERTEX
  8
BORDER_D0_T132_RK1_A0_W0_EM1_RI1_ID0018
 10
2018.42
 20
157.23
 30
16.50
 42
-0.056349
  0
VERTEX
  8
BORDER_D0_T132_RK1_A0_W0_EM1_RI1_ID0018
 10
2036.54
 20
141.79
 30
16.50
 42
-0.081329
  0
VERTEX
  8
BORDER_D0_T132_RK1_A0_W0_EM1_RI1_ID0018
 10
2047.63
 20
125.33
 30
16.50
 42
-0.106572
  0
VERTEX
  8
BORDER_D0_T132_RK1_A0_W0_EM1_RI1_ID0018
 10
2051.37
 20
108.36
 30
16.50
  0
SEQEND
  8
BORDER_D0_T132_RK1_A0_W0_EM1_RI1_ID0018
  0
POLYLINE
  8
BORDER_D0_T132_RK1_A0_W0_EM1_RI1_ID0018
 70
1
 66
1
  0
VERTEX
  8
BORDER_D0_T132_RK1_A0_W0_EM1_RI1_ID0018
 10
2417.86
 20
501.88
 30
16.50
 42
-0.106572
  0
VERTEX
  8
BORDER_D0_T132_RK1_A0_W0_EM1_RI1_ID0018
 10
2434.83
 20
498.14
 30
16.50
 42
-0.081329
  0
VERTEX
  8
BORDER_D0_T132_RK1_A0_W0_EM1_RI1_ID0018
 10
2451.29
 20
487.05
 30
16.50
 42
-0.056349
  0
VERTEX
  8
BORDER_D0_T132_RK1_A0_W0_EM1_RI1_ID0018
 10
2466.73
 20
468.93
 30
16.50
 42
-0.039882
  0
VERTEX
  8
BORDER_D0_T132_RK1_A0_W0_EM1_RI1_ID0018
 10
2480.69
 20
444.34
 30
16.50
 42
-0.029934
  0
VERTEX
  8
BORDER_D0_T132_RK1_A0_W0_EM1_RI1_ID0018
 10
2492.73
 20
414.03
 30
16.50
 42
-0.023970
  0
VERTEX
  8
BORDER_D0_T132_RK1_A0_W0_EM1_RI1_ID0018
 10
2502.50
 20
378.91
 30
16.50
 42
-0.020392
  0
VERTEX
  8
BORDER_D0_T132_RK1_A0_W0_EM1_RI1_ID0018
 10
2509.71
 20
340.06
 30
16.50
 42
-0.018360
  0
VERTEX
  8
BORDER_D0_T132_RK1_A0_W0_EM1_RI1_ID0018
 10
2514.11
 20
298.65
 30
16.50
 42
-0.017437
  0
VERTEX
  8
BORDER_D0_T132_RK1_A0_W0_EM1_RI1_ID0018
 10
2515.60
 20
255.94
 30
16.50
 42
-0.017437
  0
VERTEX
  8
BORDER_D0_T132_RK1_A0_W0_EM1_RI1_ID0018
 10
2514.11
 20
213.23
 30
16.50
 42
-0.018360
  0
VERTEX
  8
BORDER_D0_T132_RK1_A0_W0_EM1_RI1_ID0018
 10
2509.71
 20
171.82
 30
16.50
 42
-0.020392
  0
VERTEX
  8
BORDER_D0_T132_RK1_A0_W0_EM1_RI1_ID0018
 10
2502.50
 20
132.97
 30
16.50
 42
-0.023970
  0
VERTEX
  8
BORDER_D0_T132_RK1_A0_W0_EM1_RI1_ID0018
 10
2492.73
 20
97.85
 30
16.50
 42
-0.029934
  0
VERTEX
  8
BORDER_D0_T132_RK1_A0_W0_EM1_RI1_ID0018
 10
2480.69
 20
67.54
 30
16.50
 42
-0.039882
  0
VERTEX
  8
BORDER_D0_T132_RK1_A0_W0_EM1_RI1_ID0018
 10
2466.73
 20
42.95
 30
16.50
 42
-0.056349
  0
VERTEX
  8
BORDER_D0_T132_RK1_A0_W0_EM1_RI1_ID0018
 10
2451.29
 20
24.83
 30
16.50
 42
-0.081329
  0
VERTEX
  8
BORDER_D0_T132_RK1_A0_W0_EM1_RI1_ID0018
 10
2434.83
 20
13.74
 30
16.50
 42
-0.106572
  0
VERTEX
  8
BORDER_D0_T132_RK1_A0_W0_EM1_RI1_ID0018
 10
2417.86
 20
10.00
 30
16.50
 42
-0.106572
  0
VERTEX
  8
BORDER_D0_T132_RK1_A0_W0_EM1_RI1_ID0018
 10
2400.89
 20
13.74
 30
16.50
 42
-0.081329
  0
VERTEX
  8
BORDER_D0_T132_RK1_A0_W0_EM1_RI1_ID0018
 10
2384.43
 20
24.83
 30
16.50
 42
-0.056348
  0
VERTEX
  8
BORDER_D0_T132_RK1_A0_W0_EM1_RI1_ID0018
 10
2368.99
 20
42.95
 30
16.50
 42
-0.039883
  0
VERTEX
  8
BORDER_D0_T132_RK1_A0_W0_EM1_RI1_ID0018
 10
2355.03
 20
67.54
 30
16.50
 42
-0.029934
  0
VERTEX
  8
BORDER_D0_T132_RK1_A0_W0_EM1_RI1_ID0018
 10
2342.99
 20
97.85
 30
16.50
 42
-0.023970
  0
VERTEX
  8
BORDER_D0_T132_RK1_A0_W0_EM1_RI1_ID0018
 10
2333.22
 20
132.97
 30
16.50
 42
-0.020392
  0
VERTEX
  8
BORDER_D0_T132_RK1_A0_W0_EM1_RI1_ID0018
 10
2326.01
 20
171.82
 30
16.50
 42
-0.018360
  0
VERTEX
  8
BORDER_D0_T132_RK1_A0_W0_EM1_RI1_ID0018
 10
2321.61
 20
213.23
 30
16.50
 42
-0.017436
  0
VERTEX
  8
BORDER_D0_T132_RK1_A0_W0_EM1_RI1_ID0018
 10
2320.12
 20
255.94
 30
16.50
 42
-0.017437
  0
VERTEX
  8
BORDER_D0_T132_RK1_A0_W0_EM1_RI1_ID0018
 10
2321.61
 20
298.65
 30
16.50
 42
-0.018360
  0
VERTEX
  8
BORDER_D0_T132_RK1_A0_W0_EM1_RI1_ID0018
 10
2326.01
 20
340.06
 30
16.50
 42
-0.020392
  0
VERTEX
  8
BORDER_D0_T132_RK1_A0_W0_EM1_RI1_ID0018
 10
2333.22
 20
378.91
 30
16.50
 42
-0.023970
  0
VERTEX
  8
BORDER_D0_T132_RK1_A0_W0_EM1_RI1_ID0018
 10
2342.99
 20
414.03
 30
16.50
 42
-0.029934
  0
VERTEX
  8
BORDER_D0_T132_RK1_A0_W0_EM1_RI1_ID0018
 10
2355.03
 20
444.34
 30
16.50
 42
-0.039883
  0
VERTEX
  8
BORDER_D0_T132_RK1_A0_W0_EM1_RI1_ID0018
 10
2368.99
 20
468.93
 30
16.50
 42
-0.056348
  0
VERTEX
  8
BORDER_D0_T132_RK1_A0_W0_EM1_RI1_ID0018
 10
2384.43
 20
487.05
 30
16.50
 42
-0.081329
  0
VERTEX
  8
BORDER_D0_T132_RK1_A0_W0_EM1_RI1_ID0018
 10
2400.89
 20
498.14
 30
16.50
 42
-0.106572
  0
VERTEX
  8
BORDER_D0_T132_RK1_A0_W0_EM1_RI1_ID0018
 10
2417.86
 20
501.88
 30
16.50
  0
SEQEND
  8
BORDER_D0_T132_RK1_A0_W0_EM1_RI1_ID0018
  0
POLYLINE
  8
BORDER_D0_T132_RK1_A0_W0_EM1_RI1_ID0018
 70
1
 66
1
  0
VERTEX
  8
BORDER_D0_T132_RK1_A0_W0_EM1_RI1_ID0018
 10
2627.05
 20
2040.00
 30
16.50
 42
-0.106572
  0
VERTEX
  8
BORDER_D0_T132_RK1_A0_W0_EM1_RI1_ID0018
 10
2644.02
 20
2036.26
 30
16.50
 42
-0.081329
  0
VERTEX
  8
BORDER_D0_T132_RK1_A0_W0_EM1_RI1_ID0018
 10
2660.48
 20
2025.17
 30
16.50
 42
-0.056349
  0
VERTEX
  8
BORDER_D0_T132_RK1_A0_W0_EM1_RI1_ID0018
 10
2675.92
 20
2007.05
 30
16.50
 42
-0.039882
  0
VERTEX
  8
BORDER_D0_T132_RK1_A0_W0_EM1_RI1_ID0018
 10
2689.88
 20
1982.46
 30
16.50
 42
-0.029934
  0
VERTEX
  8
BORDER_D0_T132_RK1_A0_W0_EM1_RI1_ID0018
 10
2701.92
 20
1952.15
 30
16.50
 42
-0.023970
  0
VERTEX
  8
BORDER_D0_T132_RK1_A0_W0_EM1_RI1_ID0018
 10
2711.69
 20
1917.03
 30
16.50
 42
-0.020392
  0
VERTEX
  8
BORDER_D0_T132_RK1_A0_W0_EM1_RI1_ID0018
 10
2718.90
 20
1878.18
 30
16.50
 42
-0.018360
  0
VERTEX
  8
BORDER_D0_T132_RK1_A0_W0_EM1_RI1_ID0018
 10
2723.30
 20
1836.77
 30
16.50
 42
-0.017437
  0
VERTEX
  8
BORDER_D0_T132_RK1_A0_W0_EM1_RI1_ID0018
 10
2724.79
 20
1794.06
 30
16.50
 42
-0.017437
  0
VERTEX
  8
BORDER_D0_T132_RK1_A0_W0_EM1_RI1_ID0018
 10
2723.30
 20
1751.35
 30
16.50
 42
-0.018360
  0
VERTEX
  8
BORDER_D0_T132_RK1_A0_W0_EM1_RI1_ID0018
 10
2718.90
 20
1709.94
 30
16.50
 42
-0.020392
  0
VERTEX
  8
BORDER_D0_T132_RK1_A0_W0_EM1_RI1_ID0018
 10
2711.69
 20
1671.09
 30
16.50
 42
-0.023970
  0
VERTEX
  8
BORDER_D0_T132_RK1_A0_W0_EM1_RI1_ID0018
 10
2701.92
 20
1635.97
 30
16.50
 42
-0.029934
  0
VERTEX
  8
BORDER_D0_T132_RK1_A0_W0_EM1_RI1_ID0018
 10
2689.88
 20
1605.66
 30
16.50
 42
-0.039882
  0
VERTEX
  8
BORDER_D0_T132_RK1_A0_W0_EM1_RI1_ID0018
 10
2675.92
 20
1581.07
 30
16.50
 42
-0.056349
  0
VERTEX
  8
BORDER_D0_T132_RK1_A0_W0_EM1_RI1_ID0018
 10
2660.48
 20
1562.95
 30
16.50
 42
-0.081329
  0
VERTEX
  8
BORDER_D0_T132_RK1_A0_W0_EM1_RI1_ID0018
 10
2644.02
 20
1551.86
 30
16.50
 42
-0.106572
  0
VERTEX
  8
BORDER_D0_T132_RK1_A0_W0_EM1_RI1_ID0018
 10
2627.05
 20
1548.12
 30
16.50
 42
-0.106572
  0
VERTEX
  8
BORDER_D0_T132_RK1_A0_W0_EM1_RI1_ID0018
 10
2610.08
 20
1551.86
 30
16.50
 42
-0.081329
  0
VERTEX
  8
BORDER_D0_T132_RK1_A0_W0_EM1_RI1_ID0018
 10
2593.62
 20
1562.95
 30
16.50
 42
-0.056348
  0
VERTEX
  8
BORDER_D0_T132_RK1_A0_W0_EM1_RI1_ID0018
 10
2578.18
 20
1581.07
 30
16.50
 42
-0.039883
  0
VERTEX
  8
BORDER_D0_T132_RK1_A0_W0_EM1_RI1_ID0018
 10
2564.22
 20
1605.66
 30
16.50
 42
-0.029934
  0
VERTEX
  8
BORDER_D0_T132_RK1_A0_W0_EM1_RI1_ID0018
 10
2552.18
 20
1635.97
 30
16.50
 42
-0.023970
  0
VERTEX
  8
BORDER_D0_T132_RK1_A0_W0_EM1_RI1_ID0018
 10
2542.41
 20
1671.09
 30
16.50
 42
-0.020392
  0
VERTEX
  8
BORDER_D0_T132_RK1_A0_W0_EM1_RI1_ID0018
 10
2535.20
 20
1709.94
 30
16.50
 42
-0.018360
  0
VERTEX
  8
BORDER_D0_T132_RK1_A0_W0_EM1_RI1_ID0018
 10
2530.80
 20
1751.35
 30
16.50
 42
-0.017437
  0
VERTEX
  8
BORDER_D0_T132_RK1_A0_W0_EM1_RI1_ID0018
 10
2529.31
 20
1794.06
 30
16.50
 42
-0.017436
  0
VERTEX
  8
BORDER_D0_T132_RK1_A0_W0_EM1_RI1_ID0018
 10
2530.80
 20
1836.77
 30
16.50
 42
-0.018360
  0
VERTEX
  8
BORDER_D0_T132_RK1_A0_W0_EM1_RI1_ID0018
 10
2535.20
 20
1878.18
 30
16.50
 42
-0.020392
  0
VERTEX
  8
BORDER_D0_T132_RK1_A0_W0_EM1_RI1_ID0018
 10
2542.41
 20
1917.03
 30
16.50
 42
-0.023970
  0
VERTEX
  8
BORDER_D0_T132_RK1_A0_W0_EM1_RI1_ID0018
 10
2552.18
 20
1952.15
 30
16.50
 42
-0.029934
  0
VERTEX
  8
BORDER_D0_T132_RK1_A0_W0_EM1_RI1_ID0018
 10
2564.22
 20
1982.46
 30
16.50
 42
-0.039883
  0
VERTEX
  8
BORDER_D0_T132_RK1_A0_W0_EM1_RI1_ID0018
 10
2578.18
 20
2007.05
 30
16.50
 42
-0.056348
  0
VERTEX
  8
BORDER_D0_T132_RK1_A0_W0_EM1_RI1_ID0018
 10
2593.62
 20
2025.17
 30
16.50
 42
-0.081329
  0
VERTEX
  8
BORDER_D0_T132_RK1_A0_W0_EM1_RI1_ID0018
 10
2610.08
 20
2036.26
 30
16.50
 42
-0.106572
  0
VERTEX
  8
BORDER_D0_T132_RK1_A0_W0_EM1_RI1_ID0018
 10
2627.05
 20
2040.00
 30
16.50
  0
SEQEND
  8
BORDER_D0_T132_RK1_A0_W0_EM1_RI1_ID0018
  0
POLYLINE
  8
BORDER_D0_T132_RK1_A0_W0_EM1_RI1_ID0018
 70
1
 66
1
  0
VERTEX
  8
BORDER_D0_T132_RK1_A0_W0_EM1_RI1_ID0018
 10
2597.47
 20
1532.04
 30
16.50
 42
-0.106572
  0
VERTEX
  8
BORDER_D0_T132_RK1_A0_W0_EM1_RI1_ID0018
 10
2614.44
 20
1528.30
 30
16.50
 42
-0.081329
  0
VERTEX
  8
BORDER_D0_T132_RK1_A0_W0_EM1_RI1_ID0018
 10
2630.90
 20
1517.21
 30
16.50
 42
-0.056349
  0
VERTEX
  8
BORDER_D0_T132_RK1_A0_W0_EM1_RI1_ID0018
 10
2646.34
 20
1499.09
 30
16.50
 42
-0.039882
  0
VERTEX
  8
BORDER_D0_T132_RK1_A0_W0_EM1_RI1_ID0018
 10
2660.30
 20
1474.50
 30
16.50
 42
-0.029934
  0
VERTEX
  8
BORDER_D0_T132_RK1_A0_W0_EM1_RI1_ID0018
 10
2672.34
 20
1444.19
 30
16.50
 42
-0.023970
  0
VERTEX
  8
BORDER_D0_T132_RK1_A0_W0_EM1_RI1_ID0018
 10
2682.11
 20
1409.07
 30
16.50
 42
-0.020392
  0
VERTEX
  8
BORDER_D0_T132_RK1_A0_W0_EM1_RI1_ID0018
 10
2689.32
 20
1370.22
 30
16.50
 42
-0.018360
  0
VERTEX
  8
BORDER_D0_T132_RK1_A0_W0_EM1_RI1_ID0018
 10
2693.72
 20
1328.81
 30
16.50
 42
-0.017437
  0
VERTEX
  8
BORDER_D0_T132_RK1_A0_W0_EM1_RI1_ID0018
 10
2695.21
 20
1286.10
 30
16.50
 42
-0.017437
  0
VERTEX
  8
BORDER_D0_T132_RK1_A0_W0_EM1_RI1_ID0018
 10
2693.72
 20
1243.39
 30
16.50
 42
-0.018360
  0
VERTEX
  8
BORDER_D0_T132_RK1_A0_W0_EM1_RI1_ID0018
 10
2689.32
 20
1201.98
 30
16.50
 42
-0.020392
  0
VERTEX
  8
BORDER_D0_T132_RK1_A0_W0_EM1_RI1_ID0018
 10
2682.11
 20
1163.13
 30
16.50
 42
-0.023970
  0
VERTEX
  8
BORDER_D0_T132_RK1_A0_W0_EM1_RI1_ID0018
 10
2672.34
 20
1128.01
 30
16.50
 42
-0.029934
  0
VERTEX
  8
BORDER_D0_T132_RK1_A0_W0_EM1_RI1_ID0018
 10
2660.30
 20
1097.70
 30
16.50
 42
-0.039882
  0
VERTEX
  8
BORDER_D0_T132_RK1_A0_W0_EM1_RI1_ID0018
 10
2646.34
 20
1073.11
 30
16.50
 42
-0.056349
  0
VERTEX
  8
BORDER_D0_T132_RK1_A0_W0_EM1_RI1_ID0018
 10
2630.90
 20
1054.99
 30
16.50
 42
-0.081329
  0
VERTEX
  8
BORDER_D0_T132_RK1_A0_W0_EM1_RI1_ID0018
 10
2614.44
 20
1043.90
 30
16.50
 42
-0.106572
  0
VERTEX
  8
BORDER_D0_T132_RK1_A0_W0_EM1_RI1_ID0018
 10
2597.47
 20
1040.16
 30
16.50
 42
-0.106572
  0
VERTEX
  8
BORDER_D0_T132_RK1_A0_W0_EM1_RI1_ID0018
 10
2580.50
 20
1043.90
 30
16.50
 42
-0.081329
  0
VERTEX
  8
BORDER_D0_T132_RK1_A0_W0_EM1_RI1_ID0018
 10
2564.04
 20
1054.99
 30
16.50
 42
-0.056348
  0
VERTEX
  8
BORDER_D0_T132_RK1_A0_W0_EM1_RI1_ID0018
 10
2548.60
 20
1073.11
 30
16.50
 42
-0.039883
  0
VERTEX
  8
BORDER_D0_T132_RK1_A0_W0_EM1_RI1_ID0018
 10
2534.64
 20
1097.70
 30
16.50
 42
-0.029934
  0
VERTEX
  8
BORDER_D0_T132_RK1_A0_W0_EM1_RI1_ID0018
 10
2522.60
 20
1128.01
 30
16.50
 42
-0.023970
  0
VERTEX
  8
BORDER_D0_T132_RK1_A0_W0_EM1_RI1_ID0018
 10
2512.83
 20
1163.13
 30
16.50
 42
-0.020392
  0
VERTEX
  8
BORDER_D0_T132_RK1_A0_W0_EM1_RI1_ID0018
 10
2505.62
 20
1201.98
 30
16.50
 42
-0.018360
  0
VERTEX
  8
BORDER_D0_T132_RK1_A0_W0_EM1_RI1_ID0018
 10
2501.22
 20
1243.39
 30
16.50
 42
-0.017437
  0
VERTEX
  8
BORDER_D0_T132_RK1_A0_W0_EM1_RI1_ID0018
 10
2499.73
 20
1286.10
 30
16.50
 42
-0.017436
  0
VERTEX
  8
BORDER_D0_T132_RK1_A0_W0_EM1_RI1_ID0018
 10
2501.22
 20
1328.81
 30
16.50
 42
-0.018360
  0
VERTEX
  8
BORDER_D0_T132_RK1_A0_W0_EM1_RI1_ID0018
 10
2505.62
 20
1370.22
 30
16.50
 42
-0.020392
  0
VERTEX
  8
BORDER_D0_T132_RK1_A0_W0_EM1_RI1_ID0018
 10
2512.83
 20
1409.07
 30
16.50
 42
-0.023970
  0
VERTEX
  8
BORDER_D0_T132_RK1_A0_W0_EM1_RI1_ID0018
 10
2522.60
 20
1444.19
 30
16.50
 42
-0.029934
  0
VERTEX
  8
BORDER_D0_T132_RK1_A0_W0_EM1_RI1_ID0018
 10
2534.64
 20
1474.50
 30
16.50
 42
-0.039883
  0
VERTEX
  8
BORDER_D0_T132_RK1_A0_W0_EM1_RI1_ID0018
 10
2548.60
 20
1499.09
 30
16.50
 42
-0.056348
  0
VERTEX
  8
BORDER_D0_T132_RK1_A0_W0_EM1_RI1_ID0018
 10
2564.04
 20
1517.21
 30
16.50
 42
-0.081329
  0
VERTEX
  8
BORDER_D0_T132_RK1_A0_W0_EM1_RI1_ID0018
 10
2580.50
 20
1528.30
 30
16.50
 42
-0.106572
  0
VERTEX
  8
BORDER_D0_T132_RK1_A0_W0_EM1_RI1_ID0018
 10
2597.47
 20
1532.04
 30
16.50
  0
SEQEND
  8
BORDER_D0_T132_RK1_A0_W0_EM1_RI1_ID0018
  0
POLYLINE
  8
BORDER_D0_T132_RK1_A0_W0_EM1_RI1_ID0018
 70
1
 66
1
  0
VERTEX
  8
BORDER_D0_T132_RK1_A0_W0_EM1_RI1_ID0018
 10
2628.64
 20
1030.62
 30
16.50
 42
-0.106572
  0
VERTEX
  8
BORDER_D0_T132_RK1_A0_W0_EM1_RI1_ID0018
 10
2645.61
 20
1026.88
 30
16.50
 42
-0.081329
  0
VERTEX
  8
BORDER_D0_T132_RK1_A0_W0_EM1_RI1_ID0018
 10
2662.07
 20
1015.79
 30
16.50
 42
-0.056349
  0
VERTEX
  8
BORDER_D0_T132_RK1_A0_W0_EM1_RI1_ID0018
 10
2677.51
 20
997.67
 30
16.50
 42
-0.039882
  0
VERTEX
  8
BORDER_D0_T132_RK1_A0_W0_EM1_RI1_ID0018
 10
2691.47
 20
973.08
 30
16.50
 42
-0.029934
  0
VERTEX
  8
BORDER_D0_T132_RK1_A0_W0_EM1_RI1_ID0018
 10
2703.51
 20
942.77
 30
16.50
 42
-0.023970
  0
VERTEX
  8
BORDER_D0_T132_RK1_A0_W0_EM1_RI1_ID0018
 10
2713.28
 20
907.65
 30
16.50
 42
-0.020392
  0
VERTEX
  8
BORDER_D0_T132_RK1_A0_W0_EM1_RI1_ID0018
 10
2720.49
 20
868.80
 30
16.50
 42
-0.018360
  0
VERTEX
  8
BORDER_D0_T132_RK1_A0_W0_EM1_RI1_ID0018
 10
2724.89
 20
827.39
 30
16.50
 42
-0.017437
  0
VERTEX
  8
BORDER_D0_T132_RK1_A0_W0_EM1_RI1_ID0018
 10
2726.38
 20
784.68
 30
16.50
 42
-0.017437
  0
VERTEX
  8
BORDER_D0_T132_RK1_A0_W0_EM1_RI1_ID0018
 10
2724.89
 20
741.97
 30
16.50
 42
-0.018360
  0
VERTEX
  8
BORDER_D0_T132_RK1_A0_W0_EM1_RI1_ID0018
 10
2720.49
 20
700.56
 30
16.50
 42
-0.020392
  0
VERTEX
  8
BORDER_D0_T132_RK1_A0_W0_EM1_RI1_ID0018
 10
2713.28
 20
661.71
 30
16.50
 42
-0.023970
  0
VERTEX
  8
BORDER_D0_T132_RK1_A0_W0_EM1_RI1_ID0018
 10
2703.51
 20
626.59
 30
16.50
 42
-0.029934
  0
VERTEX
  8
BORDER_D0_T132_RK1_A0_W0_EM1_RI1_ID0018
 10
2691.47
 20
596.28
 30
16.50
 42
-0.039882
  0
VERTEX
  8
BORDER_D0_T132_RK1_A0_W0_EM1_RI1_ID0018
 10
2677.51
 20
571.69
 30
16.50
 42
-0.056349
  0
VERTEX
  8
BORDER_D0_T132_RK1_A0_W0_EM1_RI1_ID0018
 10
2662.07
 20
553.57
 30
16.50
 42
-0.081329
  0
VERTEX
  8
BORDER_D0_T132_RK1_A0_W0_EM1_RI1_ID0018
 10
2645.61
 20
542.48
 30
16.50
 42
-0.106572
  0
VERTEX
  8
BORDER_D0_T132_RK1_A0_W0_EM1_RI1_ID0018
 10
2628.64
 20
538.74
 30
16.50
 42
-0.106572
  0
VERTEX
  8
BORDER_D0_T132_RK1_A0_W0_EM1_RI1_ID0018
 10
2611.67
 20
542.48
 30
16.50
 42
-0.081329
  0
VERTEX
  8
BORDER_D0_T132_RK1_A0_W0_EM1_RI1_ID0018
 10
2595.21
 20
553.57
 30
16.50
 42
-0.056348
  0
VERTEX
  8
BORDER_D0_T132_RK1_A0_W0_EM1_RI1_ID0018
 10
2579.77
 20
571.69
 30
16.50
 42
-0.039882
  0
VERTEX
  8
BORDER_D0_T132_RK1_A0_W0_EM1_RI1_ID0018
 10
2565.81
 20
596.28
 30
16.50
 42
-0.029934
  0
VERTEX
  8
BORDER_D0_T132_RK1_A0_W0_EM1_RI1_ID0018
 10
2553.77
 20
626.59
 30
16.50
 42
-0.023970
  0
VERTEX
  8
BORDER_D0_T132_RK1_A0_W0_EM1_RI1_ID0018
 10
2544.00
 20
661.71
 30
16.50
 42
-0.020392
  0
VERTEX
  8
BORDER_D0_T132_RK1_A0_W0_EM1_RI1_ID0018
 10
2536.79
 20
700.56
 30
16.50
 42
-0.018360
  0
VERTEX
  8
BORDER_D0_T132_RK1_A0_W0_EM1_RI1_ID0018
 10
2532.39
 20
741.97
 30
16.50
 42
-0.017437
  0
VERTEX
  8
BORDER_D0_T132_RK1_A0_W0_EM1_RI1_ID0018
 10
2530.90
 20
784.68
 30
16.50
 42
-0.017437
  0
VERTEX
  8
BORDER_D0_T132_RK1_A0_W0_EM1_RI1_ID0018
 10
2532.39
 20
827.39
 30
16.50
 42
-0.018360
  0
VERTEX
  8
BORDER_D0_T132_RK1_A0_W0_EM1_RI1_ID0018
 10
2536.79
 20
868.80
 30
16.50
 42
-0.020392
  0
VERTEX
  8
BORDER_D0_T132_RK1_A0_W0_EM1_RI1_ID0018
 10
2544.00
 20
907.65
 30
16.50
 42
-0.023970
  0
VERTEX
  8
BORDER_D0_T132_RK1_A0_W0_EM1_RI1_ID0018
 10
2553.77
 20
942.77
 30
16.50
 42
-0.029934
  0
VERTEX
  8
BORDER_D0_T132_RK1_A0_W0_EM1_RI1_ID0018
 10
2565.81
 20
973.08
 30
16.50
 42
-0.039883
  0
VERTEX
  8
BORDER_D0_T132_RK1_A0_W0_EM1_RI1_ID0018
 10
2579.77
 20
997.67
 30
16.50
 42
-0.056348
  0
VERTEX
  8
BORDER_D0_T132_RK1_A0_W0_EM1_RI1_ID0018
 10
2595.21
 20
1015.79
 30
16.50
 42
-0.081329
  0
VERTEX
  8
BORDER_D0_T132_RK1_A0_W0_EM1_RI1_ID0018
 10
2611.67
 20
1026.88
 30
16.50
 42
-0.106572
  0
VERTEX
  8
BORDER_D0_T132_RK1_A0_W0_EM1_RI1_ID0018
 10
2628.64
 20
1030.62
 30
16.50
  0
SEQEND
  8
BORDER_D0_T132_RK1_A0_W0_EM1_RI1_ID0018
  0
POLYLINE
  8
BORDER_D0_T132_RK1_A0_W0_EM1_RI1_ID0018
 70
1
 66
1
  0
VERTEX
  8
BORDER_D0_T132_RK1_A0_W0_EM1_RI1_ID0018
 10
2627.87
 20
524.04
 30
16.50
 42
-0.106572
  0
VERTEX
  8
BORDER_D0_T132_RK1_A0_W0_EM1_RI1_ID0018
 10
2644.84
 20
520.30
 30
16.50
 42
-0.081329
  0
VERTEX
  8
BORDER_D0_T132_RK1_A0_W0_EM1_RI1_ID0018
 10
2661.30
 20
509.21
 30
16.50
 42
-0.056349
  0
VERTEX
  8
BORDER_D0_T132_RK1_A0_W0_EM1_RI1_ID0018
 10
2676.74
 20
491.09
 30
16.50
 42
-0.039882
  0
VERTEX
  8
BORDER_D0_T132_RK1_A0_W0_EM1_RI1_ID0018
 10
2690.70
 20
466.50
 30
16.50
 42
-0.029934
  0
VERTEX
  8
BORDER_D0_T132_RK1_A0_W0_EM1_RI1_ID0018
 10
2702.74
 20
436.19
 30
16.50
 42
-0.023970
  0
VERTEX
  8
BORDER_D0_T132_RK1_A0_W0_EM1_RI1_ID0018
 10
2712.51
 20
401.07
 30
16.50
 42
-0.020392
  0
VERTEX
  8
BORDER_D0_T132_RK1_A0_W0_EM1_RI1_ID0018
 10
2719.72
 20
362.22
 30
16.50
 42
-0.018360
  0
VERTEX
  8
BORDER_D0_T132_RK1_A0_W0_EM1_RI1_ID0018
 10
2724.12
 20
320.81
 30
16.50
 42
-0.017437
  0
VERTEX
  8
BORDER_D0_T132_RK1_A0_W0_EM1_RI1_ID0018
 10
2725.61
 20
278.10
 30
16.50
 42
-0.017437
  0
VERTEX
  8
BORDER_D0_T132_RK1_A0_W0_EM1_RI1_ID0018
 10
2724.12
 20
235.39
 30
16.50
 42
-0.018360
  0
VERTEX
  8
BORDER_D0_T132_RK1_A0_W0_EM1_RI1_ID0018
 10
2719.72
 20
193.98
 30
16.50
 42
-0.020392
  0
VERTEX
  8
BORDER_D0_T132_RK1_A0_W0_EM1_RI1_ID0018
 10
2712.51
 20
155.13
 30
16.50
 42
-0.023970
  0
VERTEX
  8
BORDER_D0_T132_RK1_A0_W0_EM1_RI1_ID0018
 10
2702.74
 20
120.01
 30
16.50
 42
-0.029934
  0
VERTEX
  8
BORDER_D0_T132_RK1_A0_W0_EM1_RI1_ID0018
 10
2690.70
 20
89.70
 30
16.50
 42
-0.039882
  0
VERTEX
  8
BORDER_D0_T132_RK1_A0_W0_EM1_RI1_ID0018
 10
2676.74
 20
65.11
 30
16.50
 42
-0.056349
  0
VERTEX
  8
BORDER_D0_T132_RK1_A0_W0_EM1_RI1_ID0018
 10
2661.30
 20
46.99
 30
16.50
 42
-0.081329
  0
VERTEX
  8
BORDER_D0_T132_RK1_A0_W0_EM1_RI1_ID0018
 10
2644.84
 20
35.90
 30
16.50
 42
-0.106572
  0
VERTEX
  8
BORDER_D0_T132_RK1_A0_W0_EM1_RI1_ID0018
 10
2627.87
 20
32.16
 30
16.50
 42
-0.106572
  0
VERTEX
  8
BORDER_D0_T132_RK1_A0_W0_EM1_RI1_ID0018
 10
2610.90
 20
35.90
 30
16.50
 42
-0.081329
  0
VERTEX
  8
BORDER_D0_T132_RK1_A0_W0_EM1_RI1_ID0018
 10
2594.44
 20
46.99
 30
16.50
 42
-0.056348
  0
VERTEX
  8
BORDER_D0_T132_RK1_A0_W0_EM1_RI1_ID0018
 10
2579.00
 20
65.11
 30
16.50
 42
-0.039883
  0
VERTEX
  8
BORDER_D0_T132_RK1_A0_W0_EM1_RI1_ID0018
 10
2565.04
 20
89.70
 30
16.50
 42
-0.029934
  0
VERTEX
  8
BORDER_D0_T132_RK1_A0_W0_EM1_RI1_ID0018
 10
2553.00
 20
120.01
 30
16.50
 42
-0.023970
  0
VERTEX
  8
BORDER_D0_T132_RK1_A0_W0_EM1_RI1_ID0018
 10
2543.23
 20
155.13
 30
16.50
 42
-0.020392
  0
VERTEX
  8
BORDER_D0_T132_RK1_A0_W0_EM1_RI1_ID0018
 10
2536.02
 20
193.98
 30
16.50
 42
-0.018360
  0
VERTEX
  8
BORDER_D0_T132_RK1_A0_W0_EM1_RI1_ID0018
 10
2531.62
 20
235.39
 30
16.50
 42
-0.017436
  0
VERTEX
  8
BORDER_D0_T132_RK1_A0_W0_EM1_RI1_ID0018
 10
2530.13
 20
278.10
 30
16.50
 42
-0.017437
  0
VERTEX
  8
BORDER_D0_T132_RK1_A0_W0_EM1_RI1_ID0018
 10
2531.62
 20
320.81
 30
16.50
 42
-0.018360
  0
VERTEX
  8
BORDER_D0_T132_RK1_A0_W0_EM1_RI1_ID0018
 10
2536.02
 20
362.22
 30
16.50
 42
-0.020392
  0
VERTEX
  8
BORDER_D0_T132_RK1_A0_W0_EM1_RI1_ID0018
 10
2543.23
 20
401.07
 30
16.50
 42
-0.023970
  0
VERTEX
  8
BORDER_D0_T132_RK1_A0_W0_EM1_RI1_ID0018
 10
2553.00
 20
436.19
 30
16.50
 42
-0.029934
  0
VERTEX
  8
BORDER_D0_T132_RK1_A0_W0_EM1_RI1_ID0018
 10
2565.04
 20
466.50
 30
16.50
 42
-0.039883
  0
VERTEX
  8
BORDER_D0_T132_RK1_A0_W0_EM1_RI1_ID0018
 10
2579.00
 20
491.09
 30
16.50
 42
-0.056348
  0
VERTEX
  8
BORDER_D0_T132_RK1_A0_W0_EM1_RI1_ID0018
 10
2594.44
 20
509.21
 30
16.50
 42
-0.081329
  0
VERTEX
  8
BORDER_D0_T132_RK1_A0_W0_EM1_RI1_ID0018
 10
2610.90
 20
520.30
 30
16.50
 42
-0.106572
  0
VERTEX
  8
BORDER_D0_T132_RK1_A0_W0_EM1_RI1_ID0018
 10
2627.87
 20
524.04
 30
16.50
  0
SEQEND
  8
BORDER_D0_T132_RK1_A0_W0_EM1_RI1_ID0018
  0
POLYLINE
  8
BORDER_D0_T132_RK1_A0_W0_EM1_RI1_ID0018
 70
1
 66
1
  0
VERTEX
  8
BORDER_D0_T132_RK1_A0_W0_EM1_RI1_ID0018
 10
1456.22
 20
1060.86
 30
16.50
 42
-0.106572
  0
VERTEX
  8
BORDER_D0_T132_RK1_A0_W0_EM1_RI1_ID0018
 10
1452.48
 20
1043.89
 30
16.50
 42
-0.081330
  0
VERTEX
  8
BORDER_D0_T132_RK1_A0_W0_EM1_RI1_ID0018
 10
1441.39
 20
1027.43
 30
16.50
 42
-0.056348
  0
VERTEX
  8
BORDER_D0_T132_RK1_A0_W0_EM1_RI1_ID0018
 10
1423.27
 20
1011.99
 30
16.50
 42
-0.039882
  0
VERTEX
  8
BORDER_D0_T132_RK1_A0_W0_EM1_RI1_ID0018
 10
1398.68
 20
998.03
 30
16.50
 42
-0.029934
  0
VERTEX
  8
BORDER_D0_T132_RK1_A0_W0_EM1_RI1_ID0018
 10
1368.37
 20
985.99
 30
16.50
 42
-0.023970
  0
VERTEX
  8
BORDER_D0_T132_RK1_A0_W0_EM1_RI1_ID0018
 10
1333.25
 20
976.22
 30
16.50
 42
-0.020392
  0
VERTEX
  8
BORDER_D0_T132_RK1_A0_W0_EM1_RI1_ID0018
 10
1294.40
 20
969.01
 30
16.50
 42
-0.018360
  0
VERTEX
  8
BORDER_D0_T132_RK1_A0_W0_EM1_RI1_ID0018
 10
1252.99
 20
964.61
 30
16.50
 42
-0.017437
  0
VERTEX
  8
BORDER_D0_T132_RK1_A0_W0_EM1_RI1_ID0018
 10
1210.28
 20
963.12
 30
16.50
 42
-0.017437
  0
VERTEX
  8
BORDER_D0_T132_RK1_A0_W0_EM1_RI1_ID0018
 10
1167.57
 20
964.61
 30
16.50
 42
-0.018360
  0
VERTEX
  8
BORDER_D0_T132_RK1_A0_W0_EM1_RI1_ID0018
 10
1126.16
 20
969.01
 30
16.50
 42
-0.020392
  0
VERTEX
  8
BORDER_D0_T132_RK1_A0_W0_EM1_RI1_ID0018
 10
1087.31
 20
976.22
 30
16.50
 42
-0.023970
  0
VERTEX
  8
BORDER_D0_T132_RK1_A0_W0_EM1_RI1_ID0018
 10
1052.19
 20
985.99
 30
16.50
 42
-0.029934
  0
VERTEX
  8
BORDER_D0_T132_RK1_A0_W0_EM1_RI1_ID0018
 10
1021.88
 20
998.03
 30
16.50
 42
-0.039882
  0
VERTEX
  8
BORDER_D0_T132_RK1_A0_W0_EM1_RI1_ID0018
 10
997.29
 20
1011.99
 30
16.50
 42
-0.056348
  0
VERTEX
  8
BORDER_D0_T132_RK1_A0_W0_EM1_RI1_ID0018
 10
979.17
 20
1027.43
 30
16.50
 42
-0.081330
  0
VERTEX
  8
BORDER_D0_T132_RK1_A0_W0_EM1_RI1_ID0018
 10
968.08
 20
1043.89
 30
16.50
 42
-0.106572
  0
VERTEX
  8
BORDER_D0_T132_RK1_A0_W0_EM1_RI1_ID0018
 10
964.34
 20
1060.86
 30
16.50
 42
-0.106572
  0
VERTEX
  8
BORDER_D0_T132_RK1_A0_W0_EM1_RI1_ID0018
 10
968.08
 20
1077.83
 30
16.50
 42
-0.081330
  0
VERTEX
  8
BORDER_D0_T132_RK1_A0_W0_EM1_RI1_ID0018
 10
979.17
 20
1094.29
 30
16.50
 42
-0.056348
  0
VERTEX
  8
BORDER_D0_T132_RK1_A0_W0_EM1_RI1_ID0018
 10
997.29
 20
1109.73
 30
16.50
 42
-0.039882
  0
VERTEX
  8
BORDER_D0_T132_RK1_A0_W0_EM1_RI1_ID0018
 10
1021.88
 20
1123.69
 30
16.50
 42
-0.029934
  0
VERTEX
  8
BORDER_D0_T132_RK1_A0_W0_EM1_RI1_ID0018
 10
1052.19
 20
1135.73
 30
16.50
 42
-0.023970
  0
VERTEX
  8
BORDER_D0_T132_RK1_A0_W0_EM1_RI1_ID0018
 10
1087.31
 20
1145.50
 30
16.50
 42
-0.020392
  0
VERTEX
  8
BORDER_D0_T132_RK1_A0_W0_EM1_RI1_ID0018
 10
1126.16
 20
1152.71
 30
16.50
 42
-0.018360
  0
VERTEX
  8
BORDER_D0_T132_RK1_A0_W0_EM1_RI1_ID0018
 10
1167.57
 20
1157.11
 30
16.50
 42
-0.017437
  0
VERTEX
  8
BORDER_D0_T132_RK1_A0_W0_EM1_RI1_ID0018
 10
1210.28
 20
1158.60
 30
16.50
 42
-0.017437
  0
VERTEX
  8
BORDER_D0_T132_RK1_A0_W0_EM1_RI1_ID0018
 10
1252.99
 20
1157.11
 30
16.50
 42
-0.018360
  0
VERTEX
  8
BORDER_D0_T132_RK1_A0_W0_EM1_RI1_ID0018
 10
1294.40
 20
1152.71
 30
16.50
 42
-0.020392
  0
VERTEX
  8
BORDER_D0_T132_RK1_A0_W0_EM1_RI1_ID0018
 10
1333.25
 20
1145.50
 30
16.50
 42
-0.023970
  0
VERTEX
  8
BORDER_D0_T132_RK1_A0_W0_EM1_RI1_ID0018
 10
1368.37
 20
1135.73
 30
16.50
 42
-0.029934
  0
VERTEX
  8
BORDER_D0_T132_RK1_A0_W0_EM1_RI1_ID0018
 10
1398.68
 20
1123.69
 30
16.50
 42
-0.039882
  0
VERTEX
  8
BORDER_D0_T132_RK1_A0_W0_EM1_RI1_ID0018
 10
1423.27
 20
1109.73
 30
16.50
 42
-0.056348
  0
VERTEX
  8
BORDER_D0_T132_RK1_A0_W0_EM1_RI1_ID0018
 10
1441.39
 20
1094.29
 30
16.50
 42
-0.081330
  0
VERTEX
  8
BORDER_D0_T132_RK1_A0_W0_EM1_RI1_ID0018
 10
1452.48
 20
1077.83
 30
16.50
 42
-0.106572
  0
VERTEX
  8
BORDER_D0_T132_RK1_A0_W0_EM1_RI1_ID0018
 10
1456.22
 20
1060.86
 30
16.50
  0
SEQEND
  8
BORDER_D0_T132_RK1_A0_W0_EM1_RI1_ID0018
  0
POLYLINE
  8
BORDER_D0_T132.1_RK1_A0_W0_EM1
 70
0
 66
1
  0
VERTEX
  8
BORDER_D0_T132.1_RK1_A0_W0_EM1
 10
333.10
 20
-14.70
 30
18.20
  0
VERTEX
  8
BORDER_D0_T132.1_RK1_A0_W0_EM1
 10
333.10
 20
52.26
 30
18.20
 42
-0.017435
  0
VERTEX
  8
BORDER_D0_T132.1_RK1_A0_W0_EM1
 10
290.39
 20
53.74
 30
18.20
 42
-0.018360
  0
VERTEX
  8
BORDER_D0_T132.1_RK1_A0_W0_EM1
 10
248.98
 20
58.15
 30
18.20
 42
-0.020393
  0
VERTEX
  8
BORDER_D0_T132.1_RK1_A0_W0_EM1
 10
210.13
 20
65.36
 30
18.20
 42
-0.023968
  0
VERTEX
  8
BORDER_D0_T132.1_RK1_A0_W0_EM1
 10
175.01
 20
75.13
 30
18.20
 42
-0.029940
  0
VERTEX
  8
BORDER_D0_T132.1_RK1_A0_W0_EM1
 10
144.69
 20
87.17
 30
18.20
 42
-0.039878
  0
VERTEX
  8
BORDER_D0_T132.1_RK1_A0_W0_EM1
 10
120.11
 20
101.13
 30
18.20
 42
-0.056346
  0
VERTEX
  8
BORDER_D0_T132.1_RK1_A0_W0_EM1
 10
101.99
 20
116.57
 30
18.20
 42
-0.081333
  0
VERTEX
  8
BORDER_D0_T132.1_RK1_A0_W0_EM1
 10
90.89
 20
133.03
 30
18.20
 42
-0.106579
  0
VERTEX
  8
BORDER_D0_T132.1_RK1_A0_W0_EM1
 10
87.15
 20
150.00
 30
18.20
 42
-0.106579
  0
VERTEX
  8
BORDER_D0_T132.1_RK1_A0_W0_EM1
 10
90.89
 20
166.97
 30
18.20
 42
-0.081333
  0
VERTEX
  8
BORDER_D0_T132.1_RK1_A0_W0_EM1
 10
101.99
 20
183.43
 30
18.20
 42
-0.056346
  0
VERTEX
  8
BORDER_D0_T132.1_RK1_A0_W0_EM1
 10
120.11
 20
198.87
 30
18.20
 42
-0.039878
  0
VERTEX
  8
BORDER_D0_T132.1_RK1_A0_W0_EM1
 10
144.69
 20
212.83
 30
18.20
 42
-0.029940
  0
VERTEX
  8
BORDER_D0_T132.1_RK1_A0_W0_EM1
 10
175.01
 20
224.87
 30
18.20
 42
-0.023968
  0
VERTEX
  8
BORDER_D0_T132.1_RK1_A0_W0_EM1
 10
210.13
 20
234.65
 30
18.20
 42
-0.020393
  0
VERTEX
  8
BORDER_D0_T132.1_RK1_A0_W0_EM1
 10
248.98
 20
241.85
 30
18.20
 42
-0.018360
  0
VERTEX
  8
BORDER_D0_T132.1_RK1_A0_W0_EM1
 10
290.39
 20
246.26
 30
18.20
 42
-0.017435
  0
VERTEX
  8
BORDER_D0_T132.1_RK1_A0_W0_EM1
 10
333.10
 20
247.74
 30
18.20
 42
-0.017435
  0
VERTEX
  8
BORDER_D0_T132.1_RK1_A0_W0_EM1
 10
375.80
 20
246.26
 30
18.20
 42
-0.018360
  0
VERTEX
  8
BORDER_D0_T132.1_RK1_A0_W0_EM1
 10
417.21
 20
241.85
 30
18.20
 42
-0.020393
  0
VERTEX
  8
BORDER_D0_T132.1_RK1_A0_W0_EM1
 10
456.07
 20
234.65
 30
18.20
 42
-0.023968
  0
VERTEX
  8
BORDER_D0_T132.1_RK1_A0_W0_EM1
 10
491.18
 20
224.87
 30
18.20
 42
-0.029940
  0
VERTEX
  8
BORDER_D0_T132.1_RK1_A0_W0_EM1
 10
521.50
 20
212.83
 30
18.20
 42
-0.039878
  0
VERTEX
  8
BORDER_D0_T132.1_RK1_A0_W0_EM1
 10
546.09
 20
198.87
 30
18.20
 42
-0.056346
  0
VERTEX
  8
BORDER_D0_T132.1_RK1_A0_W0_EM1
 10
564.20
 20
183.43
 30
18.20
 42
-0.081333
  0
VERTEX
  8
BORDER_D0_T132.1_RK1_A0_W0_EM1
 10
575.30
 20
166.97
 30
18.20
 42
-0.106579
  0
VERTEX
  8
BORDER_D0_T132.1_RK1_A0_W0_EM1
 10
579.03
 20
150.00
 30
18.20
 42
-0.106579
  0
VERTEX
  8
BORDER_D0_T132.1_RK1_A0_W0_EM1
 10
575.30
 20
133.03
 30
18.20
 42
-0.081333
  0
VERTEX
  8
BORDER_D0_T132.1_RK1_A0_W0_EM1
 10
564.20
 20
116.57
 30
18.20
 42
-0.056346
  0
VERTEX
  8
BORDER_D0_T132.1_RK1_A0_W0_EM1
 10
546.09
 20
101.13
 30
18.20
 42
-0.039879
  0
VERTEX
  8
BORDER_D0_T132.1_RK1_A0_W0_EM1
 10
521.50
 20
87.17
 30
18.20
 42
-0.029940
  0
VERTEX
  8
BORDER_D0_T132.1_RK1_A0_W0_EM1
 10
491.18
 20
75.13
 30
18.20
 42
-0.023968
  0
VERTEX
  8
BORDER_D0_T132.1_RK1_A0_W0_EM1
 10
456.07
 20
65.36
 30
18.20
 42
-0.020393
  0
VERTEX
  8
BORDER_D0_T132.1_RK1_A0_W0_EM1
 10
417.21
 20
58.15
 30
18.20
 42
-0.018360
  0
VERTEX
  8
BORDER_D0_T132.1_RK1_A0_W0_EM1
 10
375.80
 20
53.74
 30
18.20
 42
-0.017435
  0
VERTEX
  8
BORDER_D0_T132.1_RK1_A0_W0_EM1
 10
333.10
 20
52.26
 30
18.20
  0
SEQEND
  8
BORDER_D0_T132.1_RK1_A0_W0_EM1
  0
POLYLINE
  8
BORDER_D0_T132.1_RK1_A0_W0_EM1
 70
0
 66
1
  0
VERTEX
  8
BORDER_D0_T132.1_RK1_A0_W0_EM1
 10
422.85
 20
1171.80
 30
18.20
  0
VERTEX
  8
BORDER_D0_T132.1_RK1_A0_W0_EM1
 10
167.70
 20
1254.71
 30
18.20
  0
VERTEX
  8
BORDER_D0_T132.1_RK1_A0_W0_EM1
 10
10.00
 20
1471.76
 30
18.20
  0
VERTEX
  8
BORDER_D0_T132.1_RK1_A0_W0_EM1
 10
10.00
 20
1740.04
 30
18.20
  0
VERTEX
  8
BORDER_D0_T132.1_RK1_A0_W0_EM1
 10
167.70
 20
1957.09
 30
18.20
  0
VERTEX
  8
BORDER_D0_T132.1_RK1_A0_W0_EM1
 10
422.85
 20
2040.00
 30
18.20
  0
VERTEX
  8
BORDER_D0_T132.1_RK1_A0_W0_EM1
 10
678.01
 20
1957.09
 30
18.20
  0
VERTEX
  8
BORDER_D0_T132.1_RK1_A0_W0_EM1
 10
835.71
 20
1740.04
 30
18.20
  0
VERTEX
  8
BORDER_D0_T132.1_RK1_A0_W0_EM1
 10
835.71
 20
1732.69
 30
18.20
  0
VERTEX
  8
BORDER_D0_T132.1_RK1_A0_W0_EM1
 10
850.41
 20
1732.69
 30
18.20
  0
VERTEX
  8
BORDER_D0_T132.1_RK1_A0_W0_EM1
 10
850.41
 20
1740.04
 30
18.20
  0
VERTEX
  8
BORDER_D0_T132.1_RK1_A0_W0_EM1
 10
1008.10
 20
1957.09
 30
18.20
  0
VERTEX
  8
BORDER_D0_T132.1_RK1_A0_W0_EM1
 10
1263.26
 20
2040.00
 30
18.20
  0
VERTEX
  8
BORDER_D0_T132.1_RK1_A0_W0_EM1
 10
1518.42
 20
1957.09
 30
18.20
  0
VERTEX
  8
BORDER_D0_T132.1_RK1_A0_W0_EM1
 10
1676.12
 20
1740.04
 30
18.20
  0
VERTEX
  8
BORDER_D0_T132.1_RK1_A0_W0_EM1
 10
1676.12
 20
1732.69
 30
18.20
  0
VERTEX
  8
BORDER_D0_T132.1_RK1_A0_W0_EM1
 10
1690.82
 20
1732.69
 30
18.20
  0
VERTEX
  8
BORDER_D0_T132.1_RK1_A0_W0_EM1
 10
1690.82
 20
1740.04
 30
18.20
  0
VERTEX
  8
BORDER_D0_T132.1_RK1_A0_W0_EM1
 10
1848.51
 20
1957.09
 30
18.20
  0
VERTEX
  8
BORDER_D0_T132.1_RK1_A0_W0_EM1
 10
2103.67
 20
2040.00
 30
18.20
  0
VERTEX
  8
BORDER_D0_T132.1_RK1_A0_W0_EM1
 10
2358.83
 20
1957.09
 30
18.20
  0
VERTEX
  8
BORDER_D0_T132.1_RK1_A0_W0_EM1
 10
2516.52
 20
1740.04
 30
18.20
  0
VERTEX
  8
BORDER_D0_T132.1_RK1_A0_W0_EM1
 10
2516.52
 20
1471.76
 30
18.20
  0
VERTEX
  8
BORDER_D0_T132.1_RK1_A0_W0_EM1
 10
2358.83
 20
1254.71
 30
18.20
  0
VERTEX
  8
BORDER_D0_T132.1_RK1_A0_W0_EM1
 10
2103.67
 20
1171.80
 30
18.20
  0
SEQEND
  8
BORDER_D0_T132.1_RK1_A0_W0_EM1
  0
POLYLINE
  8
BORDER_D0_T132.1_RK1_A0_W0_EM1
 70
0
 66
1
  0
VERTEX
  8
BORDER_D0_T132.1_RK1_A0_W0_EM1
 10
2276.69
 20
1175.87
 30
18.20
  0
VERTEX
  8
BORDER_D0_T132.1_RK1_A0_W0_EM1
 10
2369.64
 20
1243.41
 30
18.20
  0
VERTEX
  8
BORDER_D0_T132.1_RK1_A0_W0_EM1
 10
2462.60
 20
1175.87
 30
18.20
  0
VERTEX
  8
BORDER_D0_T132.1_RK1_A0_W0_EM1
 10
2427.09
 20
1066.59
 30
18.20
  0
VERTEX
  8
BORDER_D0_T132.1_RK1_A0_W0_EM1
 10
2360.24
 20
1011.23
 30
18.20
  0
VERTEX
  8
BORDER_D0_T132.1_RK1_A0_W0_EM1
 10
2364.32
 20
998.65
 30
18.20
  0
VERTEX
  8
BORDER_D0_T132.1_RK1_A0_W0_EM1
 10
2447.23
 20
743.49
 30
18.20
  0
VERTEX
  8
BORDER_D0_T132.1_RK1_A0_W0_EM1
 10
2364.32
 20
488.33
 30
18.20
  0
VERTEX
  8
BORDER_D0_T132.1_RK1_A0_W0_EM1
 10
2358.38
 20
484.01
 30
18.20
  0
VERTEX
  8
BORDER_D0_T132.1_RK1_A0_W0_EM1
 10
2215.65
 20
220.19
 30
18.20
  0
VERTEX
  8
BORDER_D0_T132.1_RK1_A0_W0_EM1
 10
2161.47
 20
206.04
 30
18.20
  0
VERTEX
  8
BORDER_D0_T132.1_RK1_A0_W0_EM1
 10
2196.98
 20
162.74
 30
18.20
  0
VERTEX
  8
BORDER_D0_T132.1_RK1_A0_W0_EM1
 10
2144.83
 20
183.14
 30
18.20
  0
VERTEX
  8
BORDER_D0_T132.1_RK1_A0_W0_EM1
 10
2148.11
 20
127.24
 30
18.20
  0
VERTEX
  8
BORDER_D0_T132.1_RK1_A0_W0_EM1
 10
2117.91
 20
174.39
 30
18.20
  0
VERTEX
  8
BORDER_D0_T132.1_RK1_A0_W0_EM1
 10
2087.71
 20
127.24
 30
18.20
  0
VERTEX
  8
BORDER_D0_T132.1_RK1_A0_W0_EM1
 10
2090.99
 20
183.14
 30
18.20
  0
VERTEX
  8
BORDER_D0_T132.1_RK1_A0_W0_EM1
 10
2038.84
 20
162.74
 30
18.20
  0
VERTEX
  8
BORDER_D0_T132.1_RK1_A0_W0_EM1
 10
2074.35
 20
206.04
 30
18.20
  0
VERTEX
  8
BORDER_D0_T132.1_RK1_A0_W0_EM1
 10
2020.17
 20
220.19
 30
18.20
  0
VERTEX
  8
BORDER_D0_T132.1_RK1_A0_W0_EM1
 10
2007.37
 20
223.54
 30
18.20
  0
VERTEX
  8
BORDER_D0_T132.1_RK1_A0_W0_EM1
 10
1680.73
 20
466.75
 30
18.20
  0
VERTEX
  8
BORDER_D0_T132.1_RK1_A0_W0_EM1
 10
1667.10
 20
424.81
 30
18.20
  0
VERTEX
  8
BORDER_D0_T132.1_RK1_A0_W0_EM1
 10
1584.20
 20
169.65
 30
18.20
  0
VERTEX
  8
BORDER_D0_T132.1_RK1_A0_W0_EM1
 10
1367.15
 20
11.96
 30
18.20
  0
VERTEX
  8
BORDER_D0_T132.1_RK1_A0_W0_EM1
 10
1098.86
 20
11.96
 30
18.20
  0
VERTEX
  8
BORDER_D0_T132.1_RK1_A0_W0_EM1
 10
845.31
 20
16.59
 30
18.20
  0
VERTEX
  8
BORDER_D0_T132.1_RK1_A0_W0_EM1
 10
730.41
 20
16.59
 30
18.20
  0
VERTEX
  8
BORDER_D0_T132.1_RK1_A0_W0_EM1
 10
694.90
 20
125.87
 30
18.20
  0
VERTEX
  8
BORDER_D0_T132.1_RK1_A0_W0_EM1
 10
787.86
 20
193.41
 30
18.20
  0
VERTEX
  8
BORDER_D0_T132.1_RK1_A0_W0_EM1
 10
808.34
 20
208.28
 30
18.20
  0
VERTEX
  8
BORDER_D0_T132.1_RK1_A0_W0_EM1
 10
795.26
 20
258.34
 30
18.20
  0
VERTEX
  8
BORDER_D0_T132.1_RK1_A0_W0_EM1
 10
782.46
 20
255.00
 30
18.20
  0
VERTEX
  8
BORDER_D0_T132.1_RK1_A0_W0_EM1
 10
728.28
 20
240.85
 30
18.20
  0
VERTEX
  8
BORDER_D0_T132.1_RK1_A0_W0_EM1
 10
763.79
 20
197.55
 30
18.20
  0
VERTEX
  8
BORDER_D0_T132.1_RK1_A0_W0_EM1
 10
711.64
 20
217.95
 30
18.20
  0
VERTEX
  8
BORDER_D0_T132.1_RK1_A0_W0_EM1
 10
714.92
 20
162.04
 30
18.20
  0
VERTEX
  8
BORDER_D0_T132.1_RK1_A0_W0_EM1
 10
684.72
 20
209.20
 30
18.20
  0
VERTEX
  8
BORDER_D0_T132.1_RK1_A0_W0_EM1
 10
654.52
 20
162.04
 30
18.20
  0
VERTEX
  8
BORDER_D0_T132.1_RK1_A0_W0_EM1
 10
657.80
 20
217.95
 30
18.20
  0
VERTEX
  8
BORDER_D0_T132.1_RK1_A0_W0_EM1
 10
605.65
 20
197.55
 30
18.20
  0
VERTEX
  8
BORDER_D0_T132.1_RK1_A0_W0_EM1
 10
641.16
 20
240.85
 30
18.20
  0
VERTEX
  8
BORDER_D0_T132.1_RK1_A0_W0_EM1
 10
586.98
 20
255.00
 30
18.20
  0
VERTEX
  8
BORDER_D0_T132.1_RK1_A0_W0_EM1
 10
422.85
 20
288.14
 30
18.20
  0
VERTEX
  8
BORDER_D0_T132.1_RK1_A0_W0_EM1
 10
167.70
 20
371.05
 30
18.20
  0
VERTEX
  8
BORDER_D0_T132.1_RK1_A0_W0_EM1
 10
10.00
 20
588.10
 30
18.20
  0
VERTEX
  8
BORDER_D0_T132.1_RK1_A0_W0_EM1
 10
10.00
 20
856.39
 30
18.20
  0
VERTEX
  8
BORDER_D0_T132.1_RK1_A0_W0_EM1
 10
167.70
 20
1073.44
 30
18.20
  0
VERTEX
  8
BORDER_D0_T132.1_RK1_A0_W0_EM1
 10
422.85
 20
1156.34
 30
18.20
  0
VERTEX
  8
BORDER_D0_T132.1_RK1_A0_W0_EM1
 10
678.01
 20
1073.44
 30
18.20
  0
VERTEX
  8
BORDER_D0_T132.1_RK1_A0_W0_EM1
 10
835.71
 20
856.39
 30
18.20
  0
VERTEX
  8
BORDER_D0_T132.1_RK1_A0_W0_EM1
 10
835.71
 20
588.10
 30
18.20
  0
VERTEX
  8
BORDER_D0_T132.1_RK1_A0_W0_EM1
 10
678.01
 20
371.05
 30
18.20
  0
VERTEX
  8
BORDER_D0_T132.1_RK1_A0_W0_EM1
 10
422.85
 20
288.14
 30
18.20
  0
VERTEX
  8
BORDER_D0_T132.1_RK1_A0_W0_EM1
 10
179.29
 20
250.51
 30
18.20
  0
VERTEX
  8
BORDER_D0_T132.1_RK1_A0_W0_EM1
 10
114.91
 20
264.28
 30
18.20
  0
VERTEX
  8
BORDER_D0_T132.1_RK1_A0_W0_EM1
 10
94.64
 20
201.64
 30
18.20
  0
VERTEX
  8
BORDER_D0_T132.1_RK1_A0_W0_EM1
 10
74.38
 20
264.28
 30
18.20
  0
VERTEX
  8
BORDER_D0_T132.1_RK1_A0_W0_EM1
 10
10.00
 20
250.51
 30
18.20
  0
VERTEX
  8
BORDER_D0_T132.1_RK1_A0_W0_EM1
 10
54.11
 20
299.38
 30
18.20
  0
VERTEX
  8
BORDER_D0_T132.1_RK1_A0_W0_EM1
 10
10.00
 20
348.25
 30
18.20
  0
VERTEX
  8
BORDER_D0_T132.1_RK1_A0_W0_EM1
 10
74.38
 20
334.48
 30
18.20
  0
VERTEX
  8
BORDER_D0_T132.1_RK1_A0_W0_EM1
 10
94.64
 20
397.12
 30
18.20
  0
SEQEND
  8
BORDER_D0_T132.1_RK1_A0_W0_EM1
  0
POLYLINE
  8
BORDER_D0_T132.1_RK1_A0_W0_EM1
 70
1
 66
1
  0
VERTEX
  8
BORDER_D0_T132.1_RK1_A0_W0_EM1
 10
179.29
 20
1134.11
 30
18.20
  0
VERTEX
  8
BORDER_D0_T132.1_RK1_A0_W0_EM1
 10
114.91
 20
1147.88
 30
18.20
  0
VERTEX
  8
BORDER_D0_T132.1_RK1_A0_W0_EM1
 10
94.64
 20
1085.24
 30
18.20
  0
VERTEX
  8
BORDER_D0_T132.1_RK1_A0_W0_EM1
 10
74.38
 20
1147.88
 30
18.20
  0
VERTEX
  8
BORDER_D0_T132.1_RK1_A0_W0_EM1
 10
10.00
 20
1134.11
 30
18.20
  0
VERTEX
  8
BORDER_D0_T132.1_RK1_A0_W0_EM1
 10
54.11
 20
1182.98
 30
18.20
  0
VERTEX
  8
BORDER_D0_T132.1_RK1_A0_W0_EM1
 10
10.00
 20
1231.85
 30
18.20
  0
VERTEX
  8
BORDER_D0_T132.1_RK1_A0_W0_EM1
 10
74.38
 20
1218.08
 30
18.20
  0
VERTEX
  8
BORDER_D0_T132.1_RK1_A0_W0_EM1
 10
94.64
 20
1280.72
 30
18.20
  0
VERTEX
  8
BORDER_D0_T132.1_RK1_A0_W0_EM1
 10
114.91
 20
1218.08
 30
18.20
  0
VERTEX
  8
BORDER_D0_T132.1_RK1_A0_W0_EM1
 10
179.29
 20
1231.85
 30
18.20
  0
VERTEX
  8
BORDER_D0_T132.1_RK1_A0_W0_EM1
 10
135.18
 20
1182.98
 30
18.20
  0
VERTEX
  8
BORDER_D0_T132.1_RK1_A0_W0_EM1
 10
179.29
 20
1134.11
 30
18.20
  0
SEQEND
  8
BORDER_D0_T132.1_RK1_A0_W0_EM1
  0
POLYLINE
  8
BORDER_D0_T132.1_RK1_A0_W0_EM1
 70
0
 66
1
  0
VERTEX
  8
BORDER_D0_T132.1_RK1_A0_W0_EM1
 10
947.16
 20
1001.61
 30
18.20
  0
VERTEX
  8
BORDER_D0_T132.1_RK1_A0_W0_EM1
 10
891.26
 20
1004.89
 30
18.20
  0
VERTEX
  8
BORDER_D0_T132.1_RK1_A0_W0_EM1
 10
911.66
 20
952.74
 30
18.20
  0
VERTEX
  8
BORDER_D0_T132.1_RK1_A0_W0_EM1
 10
868.36
 20
988.26
 30
18.20
  0
VERTEX
  8
BORDER_D0_T132.1_RK1_A0_W0_EM1
 10
854.21
 20
934.07
 30
18.20
  0
VERTEX
  8
BORDER_D0_T132.1_RK1_A0_W0_EM1
 10
840.05
 20
988.26
 30
18.20
  0
VERTEX
  8
BORDER_D0_T132.1_RK1_A0_W0_EM1
 10
796.76
 20
952.74
 30
18.20
  0
VERTEX
  8
BORDER_D0_T132.1_RK1_A0_W0_EM1
 10
817.15
 20
1004.89
 30
18.20
  0
VERTEX
  8
BORDER_D0_T132.1_RK1_A0_W0_EM1
 10
761.25
 20
1001.61
 30
18.20
  0
VERTEX
  8
BORDER_D0_T132.1_RK1_A0_W0_EM1
 10
808.41
 20
1031.81
 30
18.20
  0
VERTEX
  8
BORDER_D0_T132.1_RK1_A0_W0_EM1
 10
761.25
 20
1062.02
 30
18.20
  0
VERTEX
  8
BORDER_D0_T132.1_RK1_A0_W0_EM1
 10
817.15
 20
1058.73
 30
18.20
  0
VERTEX
  8
BORDER_D0_T132.1_RK1_A0_W0_EM1
 10
796.76
 20
1110.89
 30
18.20
  0
VERTEX
  8
BORDER_D0_T132.1_RK1_A0_W0_EM1
 10
840.05
 20
1075.37
 30
18.20
  0
VERTEX
  8
BORDER_D0_T132.1_RK1_A0_W0_EM1
 10
854.21
 20
1129.55
 30
18.20
  0
VERTEX
  8
BORDER_D0_T132.1_RK1_A0_W0_EM1
 10
868.36
 20
1075.37
 30
18.20
  0
VERTEX
  8
BORDER_D0_T132.1_RK1_A0_W0_EM1
 10
911.66
 20
1110.89
 30
18.20
  0
VERTEX
  8
BORDER_D0_T132.1_RK1_A0_W0_EM1
 10
891.26
 20
1058.73
 30
18.20
  0
VERTEX
  8
BORDER_D0_T132.1_RK1_A0_W0_EM1
 10
947.16
 20
1062.02
 30
18.20
  0
VERTEX
  8
BORDER_D0_T132.1_RK1_A0_W0_EM1
 10
900.01
 20
1031.81
 30
18.20
  0
VERTEX
  8
BORDER_D0_T132.1_RK1_A0_W0_EM1
 10
947.16
 20
1001.61
 30
18.20
  0
VERTEX
  8
BORDER_D0_T132.1_RK1_A0_W0_EM1
 10
1052.16
 20
934.36
 30
18.20
  0
VERTEX
  8
BORDER_D0_T132.1_RK1_A0_W0_EM1
 10
1052.16
 20
841.28
 30
18.20
  0
VERTEX
  8
BORDER_D0_T132.1_RK1_A0_W0_EM1
 10
967.92
 20
841.28
 30
18.20
  0
VERTEX
  8
BORDER_D0_T132.1_RK1_A0_W0_EM1
 10
945.97
 20
773.74
 30
18.20
  0
VERTEX
  8
BORDER_D0_T132.1_RK1_A0_W0_EM1
 10
924.03
 20
841.28
 30
18.20
  0
VERTEX
  8
BORDER_D0_T132.1_RK1_A0_W0_EM1
 10
853.02
 20
841.28
 30
18.20
  0
VERTEX
  8
BORDER_D0_T132.1_RK1_A0_W0_EM1
 10
910.47
 20
883.02
 30
18.20
  0
VERTEX
  8
BORDER_D0_T132.1_RK1_A0_W0_EM1
 10
888.52
 20
950.56
 30
18.20
  0
VERTEX
  8
BORDER_D0_T132.1_RK1_A0_W0_EM1
 10
945.97
 20
908.82
 30
18.20
  0
VERTEX
  8
BORDER_D0_T132.1_RK1_A0_W0_EM1
 10
1003.42
 20
950.56
 30
18.20
  0
VERTEX
  8
BORDER_D0_T132.1_RK1_A0_W0_EM1
 10
1014.13
 20
958.34
 30
18.20
  0
VERTEX
  8
BORDER_D0_T132.1_RK1_A0_W0_EM1
 10
1475.51
 20
844.65
 30
18.20
  0
VERTEX
  8
BORDER_D0_T132.1_RK1_A0_W0_EM1
 10
1461.88
 20
886.59
 30
18.20
  0
VERTEX
  8
BORDER_D0_T132.1_RK1_A0_W0_EM1
 10
1426.37
 20
995.87
 30
18.20
  0
VERTEX
  8
BORDER_D0_T132.1_RK1_A0_W0_EM1
 10
1519.33
 20
1063.41
 30
18.20
  0
VERTEX
  8
BORDER_D0_T132.1_RK1_A0_W0_EM1
 10
1612.29
 20
995.87
 30
18.20
  0
VERTEX
  8
BORDER_D0_T132.1_RK1_A0_W0_EM1
 10
1622.99
 20
988.09
 30
18.20
  0
VERTEX
  8
BORDER_D0_T132.1_RK1_A0_W0_EM1
 10
1709.28
 20
1101.49
 30
18.20
  0
VERTEX
  8
BORDER_D0_T132.1_RK1_A0_W0_EM1
 10
1668.21
 20
1117.55
 30
18.20
  0
VERTEX
  8
BORDER_D0_T132.1_RK1_A0_W0_EM1
 10
1616.06
 20
1137.95
 30
18.20
  0
VERTEX
  8
BORDER_D0_T132.1_RK1_A0_W0_EM1
 10
1619.34
 20
1082.04
 30
18.20
  0
VERTEX
  8
BORDER_D0_T132.1_RK1_A0_W0_EM1
 10
1589.14
 20
1129.20
 30
18.20
  0
VERTEX
  8
BORDER_D0_T132.1_RK1_A0_W0_EM1
 10
1558.93
 20
1082.04
 30
18.20
  0
VERTEX
  8
BORDER_D0_T132.1_RK1_A0_W0_EM1
 10
1562.22
 20
1137.95
 30
18.20
  0
VERTEX
  8
BORDER_D0_T132.1_RK1_A0_W0_EM1
 10
1510.06
 20
1117.55
 30
18.20
  0
VERTEX
  8
BORDER_D0_T132.1_RK1_A0_W0_EM1
 10
1545.58
 20
1160.85
 30
18.20
  0
VERTEX
  8
BORDER_D0_T132.1_RK1_A0_W0_EM1
 10
1491.40
 20
1175.00
 30
18.20
  0
VERTEX
  8
BORDER_D0_T132.1_RK1_A0_W0_EM1
 10
1545.58
 20
1189.15
 30
18.20
  0
VERTEX
  8
BORDER_D0_T132.1_RK1_A0_W0_EM1
 10
1510.06
 20
1232.45
 30
18.20
  0
VERTEX
  8
BORDER_D0_T132.1_RK1_A0_W0_EM1
 10
1562.22
 20
1212.05
 30
18.20
  0
VERTEX
  8
BORDER_D0_T132.1_RK1_A0_W0_EM1
 10
1558.93
 20
1267.96
 30
18.20
  0
VERTEX
  8
BORDER_D0_T132.1_RK1_A0_W0_EM1
 10
1589.14
 20
1220.80
 30
18.20
  0
VERTEX
  8
BORDER_D0_T132.1_RK1_A0_W0_EM1
 10
1619.34
 20
1267.96
 30
18.20
  0
SEQEND
  8
BORDER_D0_T132.1_RK1_A0_W0_EM1
  0
POLYLINE
  8
BORDER_D0_T132.1_RK1_A0_W0_EM1
 70
0
 66
1
  0
VERTEX
  8
BORDER_D0_T132.1_RK1_A0_W0_EM1
 10
1700.94
 20
1870.71
 30
18.20
  0
VERTEX
  8
BORDER_D0_T132.1_RK1_A0_W0_EM1
 10
1652.07
 20
1914.82
 30
18.20
  0
VERTEX
  8
BORDER_D0_T132.1_RK1_A0_W0_EM1
 10
1603.20
 20
1870.71
 30
18.20
  0
VERTEX
  8
BORDER_D0_T132.1_RK1_A0_W0_EM1
 10
1616.96
 20
1935.09
 30
18.20
  0
VERTEX
  8
BORDER_D0_T132.1_RK1_A0_W0_EM1
 10
1554.33
 20
1955.35
 30
18.20
  0
SEQEND
  8
BORDER_D0_T132.1_RK1_A0_W0_EM1
  0
POLYLINE
  8
BORDER_D0_T132.1_RK1_A0_W0_EM1
 70
0
 66
1
  0
VERTEX
  8
BORDER_D0_T132.1_RK1_A0_W0_EM1
 10
909.38
 20
1955.35
 30
18.20
  0
VERTEX
  8
BORDER_D0_T132.1_RK1_A0_W0_EM1
 10
846.74
 20
1935.09
 30
18.20
  0
VERTEX
  8
BORDER_D0_T132.1_RK1_A0_W0_EM1
 10
860.51
 20
1870.71
 30
18.20
  0
SEQEND
  8
BORDER_D0_T132.1_RK1_A0_W0_EM1
  0
POLYLINE
  8
BORDER_D0_T132.1_RK1_A0_W0_EM1
 70
1
 66
1
  0
VERTEX
  8
BORDER_D0_T132.1_RK1_A0_W0_EM1
 10
1617.03
 20
171.18
 30
18.20
 42
-0.029940
  0
VERTEX
  8
BORDER_D0_T132.1_RK1_A0_W0_EM1
 10
1647.34
 20
183.23
 30
18.20
 42
-0.023968
  0
VERTEX
  8
BORDER_D0_T132.1_RK1_A0_W0_EM1
 10
1682.46
 20
193.00
 30
18.20
 42
-0.020393
  0
VERTEX
  8
BORDER_D0_T132.1_RK1_A0_W0_EM1
 10
1721.31
 20
200.20
 30
18.20
 42
-0.018360
  0
VERTEX
  8
BORDER_D0_T132.1_RK1_A0_W0_EM1
 10
1762.72
 20
204.61
 30
18.20
 42
-0.017435
  0
VERTEX
  8
BORDER_D0_T132.1_RK1_A0_W0_EM1
 10
1805.43
 20
206.10
 30
18.20
 42
-0.017435
  0
VERTEX
  8
BORDER_D0_T132.1_RK1_A0_W0_EM1
 10
1848.14
 20
204.61
 30
18.20
 42
-0.018360
  0
VERTEX
  8
BORDER_D0_T132.1_RK1_A0_W0_EM1
 10
1889.55
 20
200.20
 30
18.20
 42
-0.020393
  0
VERTEX
  8
BORDER_D0_T132.1_RK1_A0_W0_EM1
 10
1928.40
 20
193.00
 30
18.20
 42
-0.023968
  0
VERTEX
  8
BORDER_D0_T132.1_RK1_A0_W0_EM1
 10
1963.52
 20
183.23
 30
18.20
 42
-0.029940
  0
VERTEX
  8
BORDER_D0_T132.1_RK1_A0_W0_EM1
 10
1993.83
 20
171.18
 30
18.20
 42
-0.039878
  0
VERTEX
  8
BORDER_D0_T132.1_RK1_A0_W0_EM1
 10
2018.42
 20
157.23
 30
18.20
 42
-0.056346
  0
VERTEX
  8
BORDER_D0_T132.1_RK1_A0_W0_EM1
 10
2036.54
 20
141.79
 30
18.20
 42
-0.081333
  0
VERTEX
  8
BORDER_D0_T132.1_RK1_A0_W0_EM1
 10
2047.63
 20
125.33
 30
18.20
 42
-0.106579
  0
VERTEX
  8
BORDER_D0_T132.1_RK1_A0_W0_EM1
 10
2051.37
 20
108.36
 30
18.20
 42
-0.106579
  0
VERTEX
  8
BORDER_D0_T132.1_RK1_A0_W0_EM1
 10
2047.63
 20
91.39
 30
18.20
 42
-0.081333
  0
VERTEX
  8
BORDER_D0_T132.1_RK1_A0_W0_EM1
 10
2036.54
 20
74.93
 30
18.20
 42
-0.056346
  0
VERTEX
  8
BORDER_D0_T132.1_RK1_A0_W0_EM1
 10
2018.42
 20
59.49
 30
18.20
 42
-0.039878
  0
VERTEX
  8
BORDER_D0_T132.1_RK1_A0_W0_EM1
 10
1993.83
 20
45.53
 30
18.20
 42
-0.029940
  0
VERTEX
  8
BORDER_D0_T132.1_RK1_A0_W0_EM1
 10
1963.52
 20
33.49
 30
18.20
 42
-0.023968
  0
VERTEX
  8
BORDER_D0_T132.1_RK1_A0_W0_EM1
 10
1928.40
 20
23.71
 30
18.20
 42
-0.020393
  0
VERTEX
  8
BORDER_D0_T132.1_RK1_A0_W0_EM1
 10
1889.55
 20
16.51
 30
18.20
 42
-0.018360
  0
VERTEX
  8
BORDER_D0_T132.1_RK1_A0_W0_EM1
 10
1848.14
 20
12.10
 30
18.20
 42
-0.017435
  0
VERTEX
  8
BORDER_D0_T132.1_RK1_A0_W0_EM1
 10
1805.43
 20
10.62
 30
18.20
 42
-0.017435
  0
VERTEX
  8
BORDER_D0_T132.1_RK1_A0_W0_EM1
 10
1762.72
 20
12.10
 30
18.20
 42
-0.018360
  0
VERTEX
  8
BORDER_D0_T132.1_RK1_A0_W0_EM1
 10
1721.31
 20
16.51
 30
18.20
 42
-0.020393
  0
VERTEX
  8
BORDER_D0_T132.1_RK1_A0_W0_EM1
 10
1682.46
 20
23.71
 30
18.20
 42
-0.023968
  0
VERTEX
  8
BORDER_D0_T132.1_RK1_A0_W0_EM1
 10
1647.34
 20
33.49
 30
18.20
 42
-0.029940
  0
VERTEX
  8
BORDER_D0_T132.1_RK1_A0_W0_EM1
 10
1617.03
 20
45.53
 30
18.20
 42
-0.039879
  0
VERTEX
  8
BORDER_D0_T132.1_RK1_A0_W0_EM1
 10
1592.44
 20
59.49
 30
18.20
 42
-0.056346
  0
VERTEX
  8
BORDER_D0_T132.1_RK1_A0_W0_EM1
 10
1574.32
 20
74.93
 30
18.20
 42
-0.081333
  0
VERTEX
  8
BORDER_D0_T132.1_RK1_A0_W0_EM1
 10
1563.23
 20
91.39
 30
18.20
 42
-0.106579
  0
VERTEX
  8
BORDER_D0_T132.1_RK1_A0_W0_EM1
 10
1559.49
 20
108.36
 30
18.20
 42
-0.106579
  0
VERTEX
  8
BORDER_D0_T132.1_RK1_A0_W0_EM1
 10
1563.23
 20
125.33
 30
18.20
 42
-0.081333
  0
VERTEX
  8
BORDER_D0_T132.1_RK1_A0_W0_EM1
 10
1574.32
 20
141.79
 30
18.20
 42
-0.056346
  0
VERTEX
  8
BORDER_D0_T132.1_RK1_A0_W0_EM1
 10
1592.44
 20
157.23
 30
18.20
 42
-0.039878
  0
VERTEX
  8
BORDER_D0_T132.1_RK1_A0_W0_EM1
 10
1617.03
 20
171.18
 30
18.20
  0
SEQEND
  8
BORDER_D0_T132.1_RK1_A0_W0_EM1
  0
POLYLINE
  8
BORDER_D0_T132.1_RK1_A0_W0_EM1
 70
1
 66
1
  0
VERTEX
  8
BORDER_D0_T132.1_RK1_A0_W0_EM1
 10
2627.05
 20
1548.12
 30
18.20
 42
-0.106578
  0
VERTEX
  8
BORDER_D0_T132.1_RK1_A0_W0_EM1
 10
2610.08
 20
1551.86
 30
18.20
 42
-0.081333
  0
VERTEX
  8
BORDER_D0_T132.1_RK1_A0_W0_EM1
 10
2593.62
 20
1562.95
 30
18.20
 42
-0.056347
  0
VERTEX
  8
BORDER_D0_T132.1_RK1_A0_W0_EM1
 10
2578.18
 20
1581.07
 30
18.20
 42
-0.039878
  0
VERTEX
  8
BORDER_D0_T132.1_RK1_A0_W0_EM1
 10
2564.23
 20
1605.66
 30
18.20
 42
-0.029940
  0
VERTEX
  8
BORDER_D0_T132.1_RK1_A0_W0_EM1
 10
2552.18
 20
1635.97
 30
18.20
 42
-0.023968
  0
VERTEX
  8
BORDER_D0_T132.1_RK1_A0_W0_EM1
 10
2542.41
 20
1671.09
 30
18.20
 42
-0.020393
  0
VERTEX
  8
BORDER_D0_T132.1_RK1_A0_W0_EM1
 10
2535.21
 20
1709.94
 30
18.20
 42
-0.018360
  0
VERTEX
  8
BORDER_D0_T132.1_RK1_A0_W0_EM1
 10
2530.80
 20
1751.35
 30
18.20
 42
-0.017435
  0
VERTEX
  8
BORDER_D0_T132.1_RK1_A0_W0_EM1
 10
2529.31
 20
1794.06
 30
18.20
 42
-0.017435
  0
VERTEX
  8
BORDER_D0_T132.1_RK1_A0_W0_EM1
 10
2530.80
 20
1836.77
 30
18.20
 42
-0.018360
  0
VERTEX
  8
BORDER_D0_T132.1_RK1_A0_W0_EM1
 10
2535.21
 20
1878.18
 30
18.20
 42
-0.020393
  0
VERTEX
  8
BORDER_D0_T132.1_RK1_A0_W0_EM1
 10
2542.41
 20
1917.03
 30
18.20
 42
-0.023968
  0
VERTEX
  8
BORDER_D0_T132.1_RK1_A0_W0_EM1
 10
2552.18
 20
1952.15
 30
18.20
 42
-0.029940
  0
VERTEX
  8
BORDER_D0_T132.1_RK1_A0_W0_EM1
 10
2564.23
 20
1982.46
 30
18.20
 42
-0.039878
  0
VERTEX
  8
BORDER_D0_T132.1_RK1_A0_W0_EM1
 10
2578.18
 20
2007.05
 30
18.20
 42
-0.056347
  0
VERTEX
  8
BORDER_D0_T132.1_RK1_A0_W0_EM1
 10
2593.62
 20
2025.17
 30
18.20
 42
-0.081333
  0
VERTEX
  8
BORDER_D0_T132.1_RK1_A0_W0_EM1
 10
2610.08
 20
2036.26
 30
18.20
 42
-0.106579
  0
VERTEX
  8
BORDER_D0_T132.1_RK1_A0_W0_EM1
 10
2627.05
 20
2040.00
 30
18.20
 42
-0.106579
  0
VERTEX
  8
BORDER_D0_T132.1_RK1_A0_W0_EM1
 10
2644.02
 20
2036.26
 30
18.20
 42
-0.081333
  0
VERTEX
  8
BORDER_D0_T132.1_RK1_A0_W0_EM1
 10
2660.48
 20
2025.17
 30
18.20
 42
-0.056346
  0
VERTEX
  8
BORDER_D0_T132.1_RK1_A0_W0_EM1
 10
2675.92
 20
2007.05
 30
18.20
 42
-0.039878
  0
VERTEX
  8
BORDER_D0_T132.1_RK1_A0_W0_EM1
 10
2689.88
 20
1982.46
 30
18.20
 42
-0.029940
  0
VERTEX
  8
BORDER_D0_T132.1_RK1_A0_W0_EM1
 10
2701.92
 20
1952.15
 30
18.20
 42
-0.023968
  0
VERTEX
  8
BORDER_D0_T132.1_RK1_A0_W0_EM1
 10
2711.70
 20
1917.03
 30
18.20
 42
-0.020393
  0
VERTEX
  8
BORDER_D0_T132.1_RK1_A0_W0_EM1
 10
2718.90
 20
1878.18
 30
18.20
 42
-0.018360
  0
VERTEX
  8
BORDER_D0_T132.1_RK1_A0_W0_EM1
 10
2723.31
 20
1836.77
 30
18.20
 42
-0.017435
  0
VERTEX
  8
BORDER_D0_T132.1_RK1_A0_W0_EM1
 10
2724.79
 20
1794.06
 30
18.20
 42
-0.017435
  0
VERTEX
  8
BORDER_D0_T132.1_RK1_A0_W0_EM1
 10
2723.31
 20
1751.35
 30
18.20
 42
-0.018360
  0
VERTEX
  8
BORDER_D0_T132.1_RK1_A0_W0_EM1
 10
2718.90
 20
1709.94
 30
18.20
 42
-0.020393
  0
VERTEX
  8
BORDER_D0_T132.1_RK1_A0_W0_EM1
 10
2711.70
 20
1671.09
 30
18.20
 42
-0.023968
  0
VERTEX
  8
BORDER_D0_T132.1_RK1_A0_W0_EM1
 10
2701.92
 20
1635.97
 30
18.20
 42
-0.029940
  0
VERTEX
  8
BORDER_D0_T132.1_RK1_A0_W0_EM1
 10
2689.88
 20
1605.66
 30
18.20
 42
-0.039879
  0
VERTEX
  8
BORDER_D0_T132.1_RK1_A0_W0_EM1
 10
2675.92
 20
1581.07
 30
18.20
 42
-0.056346
  0
VERTEX
  8
BORDER_D0_T132.1_RK1_A0_W0_EM1
 10
2660.48
 20
1562.95
 30
18.20
 42
-0.081333
  0
VERTEX
  8
BORDER_D0_T132.1_RK1_A0_W0_EM1
 10
2644.02
 20
1551.86
 30
18.20
 42
-0.106578
  0
VERTEX
  8
BORDER_D0_T132.1_RK1_A0_W0_EM1
 10
2627.05
 20
1548.12
 30
18.20
  0
SEQEND
  8
BORDER_D0_T132.1_RK1_A0_W0_EM1
  0
POLYLINE
  8
BORDER_D0_T132.1_RK1_A0_W0_EM1
 70
1
 66
1
  0
VERTEX
  8
BORDER_D0_T132.1_RK1_A0_W0_EM1
 10
2645.61
 20
1026.88
 30
18.20
 42
-0.081333
  0
VERTEX
  8
BORDER_D0_T132.1_RK1_A0_W0_EM1
 10
2662.07
 20
1015.79
 30
18.20
 42
-0.056346
  0
VERTEX
  8
BORDER_D0_T132.1_RK1_A0_W0_EM1
 10
2677.51
 20
997.67
 30
18.20
 42
-0.039878
  0
VERTEX
  8
BORDER_D0_T132.1_RK1_A0_W0_EM1
 10
2691.47
 20
973.08
 30
18.20
 42
-0.029939
  0
VERTEX
  8
BORDER_D0_T132.1_RK1_A0_W0_EM1
 10
2703.51
 20
942.77
 30
18.20
 42
-0.023968
  0
VERTEX
  8
BORDER_D0_T132.1_RK1_A0_W0_EM1
 10
2713.29
 20
907.65
 30
18.20
 42
-0.020393
  0
VERTEX
  8
BORDER_D0_T132.1_RK1_A0_W0_EM1
 10
2720.49
 20
868.79
 30
18.20
 42
-0.018360
  0
VERTEX
  8
BORDER_D0_T132.1_RK1_A0_W0_EM1
 10
2724.90
 20
827.39
 30
18.20
 42
-0.017435
  0
VERTEX
  8
BORDER_D0_T132.1_RK1_A0_W0_EM1
 10
2726.38
 20
784.68
 30
18.20
 42
-0.017435
  0
VERTEX
  8
BORDER_D0_T132.1_RK1_A0_W0_EM1
 10
2724.90
 20
741.97
 30
18.20
 42
-0.018360
  0
VERTEX
  8
BORDER_D0_T132.1_RK1_A0_W0_EM1
 10
2720.49
 20
700.56
 30
18.20
 42
-0.020393
  0
VERTEX
  8
BORDER_D0_T132.1_RK1_A0_W0_EM1
 10
2713.29
 20
661.71
 30
18.20
 42
-0.023968
  0
VERTEX
  8
BORDER_D0_T132.1_RK1_A0_W0_EM1
 10
2703.51
 20
626.59
 30
18.20
 42
-0.029940
  0
VERTEX
  8
BORDER_D0_T132.1_RK1_A0_W0_EM1
 10
2691.47
 20
596.28
 30
18.20
 42
-0.039878
  0
VERTEX
  8
BORDER_D0_T132.1_RK1_A0_W0_EM1
 10
2677.51
 20
571.69
 30
18.20
 42
-0.056346
  0
VERTEX
  8
BORDER_D0_T132.1_RK1_A0_W0_EM1
 10
2662.07
 20
553.57
 30
18.20
 42
-0.081333
  0
VERTEX
  8
BORDER_D0_T132.1_RK1_A0_W0_EM1
 10
2645.61
 20
542.47
 30
18.20
 42
-0.106579
  0
VERTEX
  8
BORDER_D0_T132.1_RK1_A0_W0_EM1
 10
2628.64
 20
538.74
 30
18.20
 42
-0.106580
  0
VERTEX
  8
BORDER_D0_T132.1_RK1_A0_W0_EM1
 10
2611.67
 20
542.47
 30
18.20
 42
-0.081333
  0
VERTEX
  8
BORDER_D0_T132.1_RK1_A0_W0_EM1
 10
2595.21
 20
553.57
 30
18.20
 42
-0.056346
  0
VERTEX
  8
BORDER_D0_T132.1_RK1_A0_W0_EM1
 10
2579.77
 20
571.69
 30
18.20
 42
-0.039878
  0
VERTEX
  8
BORDER_D0_T132.1_RK1_A0_W0_EM1
 10
2565.82
 20
596.28
 30
18.20
 42
-0.029940
  0
VERTEX
  8
BORDER_D0_T132.1_RK1_A0_W0_EM1
 10
2553.77
 20
626.59
 30
18.20
 42
-0.023968
  0
VERTEX
  8
BORDER_D0_T132.1_RK1_A0_W0_EM1
 10
2544.00
 20
661.71
 30
18.20
 42
-0.020393
  0
VERTEX
  8
BORDER_D0_T132.1_RK1_A0_W0_EM1
 10
2536.80
 20
700.56
 30
18.20
 42
-0.018360
  0
VERTEX
  8
BORDER_D0_T132.1_RK1_A0_W0_EM1
 10
2532.39
 20
741.97
 30
18.20
 42
-0.017435
  0
VERTEX
  8
BORDER_D0_T132.1_RK1_A0_W0_EM1
 10
2530.90
 20
784.68
 30
18.20
 42
-0.017435
  0
VERTEX
  8
BORDER_D0_T132.1_RK1_A0_W0_EM1
 10
2532.39
 20
827.39
 30
18.20
 42
-0.018360
  0
VERTEX
  8
BORDER_D0_T132.1_RK1_A0_W0_EM1
 10
2536.80
 20
868.79
 30
18.20
 42
-0.020393
  0
VERTEX
  8
BORDER_D0_T132.1_RK1_A0_W0_EM1
 10
2544.00
 20
907.65
 30
18.20
 42
-0.023968
  0
VERTEX
  8
BORDER_D0_T132.1_RK1_A0_W0_EM1
 10
2553.77
 20
942.77
 30
18.20
 42
-0.029940
  0
VERTEX
  8
BORDER_D0_T132.1_RK1_A0_W0_EM1
 10
2565.82
 20
973.08
 30
18.20
 42
-0.039878
  0
VERTEX
  8
BORDER_D0_T132.1_RK1_A0_W0_EM1
 10
2579.77
 20
997.67
 30
18.20
 42
-0.056346
  0
VERTEX
  8
BORDER_D0_T132.1_RK1_A0_W0_EM1
 10
2595.21
 20
1015.79
 30
18.20
 42
-0.081333
  0
VERTEX
  8
BORDER_D0_T132.1_RK1_A0_W0_EM1
 10
2611.67
 20
1026.88
 30
18.20
 42
-0.106580
  0
VERTEX
  8
BORDER_D0_T132.1_RK1_A0_W0_EM1
 10
2628.64
 20
1030.62
 30
18.20
 42
-0.106579
  0
VERTEX
  8
BORDER_D0_T132.1_RK1_A0_W0_EM1
 10
2645.61
 20
1026.88
 30
18.20
  0
SEQEND
  8
BORDER_D0_T132.1_RK1_A0_W0_EM1
  0
POLYLINE
  8
BORDER_D0_T132.1_RK1_A0_W0_EM1
 70
1
 66
1
  0
VERTEX
  8
BORDER_D0_T132.1_RK1_A0_W0_EM1
 10
1452.49
 20
1043.89
 30
18.20
 42
-0.081333
  0
VERTEX
  8
BORDER_D0_T132.1_RK1_A0_W0_EM1
 10
1441.39
 20
1027.43
 30
18.20
 42
-0.056346
  0
VERTEX
  8
BORDER_D0_T132.1_RK1_A0_W0_EM1
 10
1423.27
 20
1011.99
 30
18.20
 42
-0.039878
  0
VERTEX
  8
BORDER_D0_T132.1_RK1_A0_W0_EM1
 10
1398.68
 20
998.04
 30
18.20
 42
-0.029940
  0
VERTEX
  8
BORDER_D0_T132.1_RK1_A0_W0_EM1
 10
1368.37
 20
985.99
 30
18.20
 42
-0.023968
  0
VERTEX
  8
BORDER_D0_T132.1_RK1_A0_W0_EM1
 10
1333.25
 20
976.22
 30
18.20
 42
-0.020393
  0
VERTEX
  8
BORDER_D0_T132.1_RK1_A0_W0_EM1
 10
1294.40
 20
969.02
 30
18.20
 42
-0.018360
  0
VERTEX
  8
BORDER_D0_T132.1_RK1_A0_W0_EM1
 10
1252.99
 20
964.61
 30
18.20
 42
-0.017435
  0
VERTEX
  8
BORDER_D0_T132.1_RK1_A0_W0_EM1
 10
1210.28
 20
963.12
 30
18.20
 42
-0.017435
  0
VERTEX
  8
BORDER_D0_T132.1_RK1_A0_W0_EM1
 10
1167.57
 20
964.61
 30
18.20
 42
-0.018360
  0
VERTEX
  8
BORDER_D0_T132.1_RK1_A0_W0_EM1
 10
1126.17
 20
969.02
 30
18.20
 42
-0.020393
  0
VERTEX
  8
BORDER_D0_T132.1_RK1_A0_W0_EM1
 10
1087.31
 20
976.22
 30
18.20
 42
-0.023968
  0
VERTEX
  8
BORDER_D0_T132.1_RK1_A0_W0_EM1
 10
1052.19
 20
985.99
 30
18.20
 42
-0.029940
  0
VERTEX
  8
BORDER_D0_T132.1_RK1_A0_W0_EM1
 10
1021.88
 20
998.04
 30
18.20
 42
-0.039878
  0
VERTEX
  8
BORDER_D0_T132.1_RK1_A0_W0_EM1
 10
997.29
 20
1011.99
 30
18.20
 42
-0.056346
  0
VERTEX
  8
BORDER_D0_T132.1_RK1_A0_W0_EM1
 10
979.17
 20
1027.43
 30
18.20
 42
-0.081333
  0
VERTEX
  8
BORDER_D0_T132.1_RK1_A0_W0_EM1
 10
968.08
 20
1043.89
 30
18.20
 42
-0.106580
  0
VERTEX
  8
BORDER_D0_T132.1_RK1_A0_W0_EM1
 10
964.34
 20
1060.86
 30
18.20
 42
-0.106579
  0
VERTEX
  8
BORDER_D0_T132.1_RK1_A0_W0_EM1
 10
968.08
 20
1077.83
 30
18.20
 42
-0.081333
  0
VERTEX
  8
BORDER_D0_T132.1_RK1_A0_W0_EM1
 10
979.17
 20
1094.29
 30
18.20
 42
-0.056346
  0
VERTEX
  8
BORDER_D0_T132.1_RK1_A0_W0_EM1
 10
997.29
 20
1109.73
 30
18.20
 42
-0.039878
  0
VERTEX
  8
BORDER_D0_T132.1_RK1_A0_W0_EM1
 10
1021.88
 20
1123.69
 30
18.20
 42
-0.029940
  0
VERTEX
  8
BORDER_D0_T132.1_RK1_A0_W0_EM1
 10
1052.19
 20
1135.73
 30
18.20
 42
-0.023968
  0
VERTEX
  8
BORDER_D0_T132.1_RK1_A0_W0_EM1
 10
1087.31
 20
1145.51
 30
18.20
 42
-0.020393
  0
VERTEX
  8
BORDER_D0_T132.1_RK1_A0_W0_EM1
 10
1126.17
 20
1152.71
 30
18.20
 42
-0.018360
  0
VERTEX
  8
BORDER_D0_T132.1_RK1_A0_W0_EM1
 10
1167.57
 20
1157.12
 30
18.20
 42
-0.017435
  0
VERTEX
  8
BORDER_D0_T132.1_RK1_A0_W0_EM1
 10
1210.28
 20
1158.60
 30
18.20
 42
-0.017435
  0
VERTEX
  8
BORDER_D0_T132.1_RK1_A0_W0_EM1
 10
1252.99
 20
1157.12
 30
18.20
 42
-0.018360
  0
VERTEX
  8
BORDER_D0_T132.1_RK1_A0_W0_EM1
 10
1294.40
 20
1152.71
 30
18.20
 42
-0.020393
  0
VERTEX
  8
BORDER_D0_T132.1_RK1_A0_W0_EM1
 10
1333.25
 20
1145.51
 30
18.20
 42
-0.023968
  0
VERTEX
  8
BORDER_D0_T132.1_RK1_A0_W0_EM1
 10
1368.37
 20
1135.73
 30
18.20
 42
-0.029940
  0
VERTEX
  8
BORDER_D0_T132.1_RK1_A0_W0_EM1
 10
1398.68
 20
1123.69
 30
18.20
 42
-0.039878
  0
VERTEX
  8
BORDER_D0_T132.1_RK1_A0_W0_EM1
 10
1423.27
 20
1109.73
 30
18.20
 42
-0.056347
  0
VERTEX
  8
BORDER_D0_T132.1_RK1_A0_W0_EM1
 10
1441.39
 20
1094.29
 30
18.20
 42
-0.081333
  0
VERTEX
  8
BORDER_D0_T132.1_RK1_A0_W0_EM1
 10
1452.49
 20
1077.83
 30
18.20
 42
-0.106579
  0
VERTEX
  8
BORDER_D0_T132.1_RK1_A0_W0_EM1
 10
1456.22
 20
1060.86
 30
18.20
 42
-0.106580
  0
VERTEX
  8
BORDER_D0_T132.1_RK1_A0_W0_EM1
 10
1452.49
 20
1043.89
 30
18.20
  0
SEQEND
  8
BORDER_D0_T132.1_RK1_A0_W0_EM1
  0
POLYLINE
  8
BORDER_D0_T132.1_RK1_A0_W0_EM1
 70
1
 66
1
  0
VERTEX
  8
BORDER_D0_T132.1_RK1_A0_W0_EM1
 10
2644.84
 20
520.30
 30
18.20
 42
-0.081333
  0
VERTEX
  8
BORDER_D0_T132.1_RK1_A0_W0_EM1
 10
2661.29
 20
509.21
 30
18.20
 42
-0.056347
  0
VERTEX
  8
BORDER_D0_T132.1_RK1_A0_W0_EM1
 10
2676.74
 20
491.09
 30
18.20
 42
-0.039878
  0
VERTEX
  8
BORDER_D0_T132.1_RK1_A0_W0_EM1
 10
2690.69
 20
466.50
 30
18.20
 42
-0.029940
  0
VERTEX
  8
BORDER_D0_T132.1_RK1_A0_W0_EM1
 10
2702.74
 20
436.18
 30
18.20
 42
-0.023968
  0
VERTEX
  8
BORDER_D0_T132.1_RK1_A0_W0_EM1
 10
2712.51
 20
401.07
 30
18.20
 42
-0.020393
  0
VERTEX
  8
BORDER_D0_T132.1_RK1_A0_W0_EM1
 10
2719.71
 20
362.21
 30
18.20
 42
-0.018360
  0
VERTEX
  8
BORDER_D0_T132.1_RK1_A0_W0_EM1
 10
2724.12
 20
320.80
 30
18.20
 42
-0.017435
  0
VERTEX
  8
BORDER_D0_T132.1_RK1_A0_W0_EM1
 10
2725.61
 20
278.10
 30
18.20
 42
-0.017435
  0
VERTEX
  8
BORDER_D0_T132.1_RK1_A0_W0_EM1
 10
2724.12
 20
235.39
 30
18.20
 42
-0.018360
  0
VERTEX
  8
BORDER_D0_T132.1_RK1_A0_W0_EM1
 10
2719.71
 20
193.98
 30
18.20
 42
-0.020393
  0
VERTEX
  8
BORDER_D0_T132.1_RK1_A0_W0_EM1
 10
2712.51
 20
155.13
 30
18.20
 42
-0.023968
  0
VERTEX
  8
BORDER_D0_T132.1_RK1_A0_W0_EM1
 10
2702.74
 20
120.01
 30
18.20
 42
-0.029940
  0
VERTEX
  8
BORDER_D0_T132.1_RK1_A0_W0_EM1
 10
2690.69
 20
89.70
 30
18.20
 42
-0.039878
  0
VERTEX
  8
BORDER_D0_T132.1_RK1_A0_W0_EM1
 10
2676.74
 20
65.11
 30
18.20
 42
-0.056347
  0
VERTEX
  8
BORDER_D0_T132.1_RK1_A0_W0_EM1
 10
2661.29
 20
46.99
 30
18.20
 42
-0.081333
  0
VERTEX
  8
BORDER_D0_T132.1_RK1_A0_W0_EM1
 10
2644.84
 20
35.89
 30
18.20
 42
-0.106579
  0
VERTEX
  8
BORDER_D0_T132.1_RK1_A0_W0_EM1
 10
2627.87
 20
32.16
 30
18.20
 42
-0.106579
  0
VERTEX
  8
BORDER_D0_T132.1_RK1_A0_W0_EM1
 10
2610.89
 20
35.89
 30
18.20
 42
-0.081333
  0
VERTEX
  8
BORDER_D0_T132.1_RK1_A0_W0_EM1
 10
2594.44
 20
46.99
 30
18.20
 42
-0.056346
  0
VERTEX
  8
BORDER_D0_T132.1_RK1_A0_W0_EM1
 10
2579.00
 20
65.11
 30
18.20
 42
-0.039878
  0
VERTEX
  8
BORDER_D0_T132.1_RK1_A0_W0_EM1
 10
2565.04
 20
89.70
 30
18.20
 42
-0.029940
  0
VERTEX
  8
BORDER_D0_T132.1_RK1_A0_W0_EM1
 10
2552.99
 20
120.01
 30
18.20
 42
-0.023968
  0
VERTEX
  8
BORDER_D0_T132.1_RK1_A0_W0_EM1
 10
2543.22
 20
155.13
 30
18.20
 42
-0.020393
  0
VERTEX
  8
BORDER_D0_T132.1_RK1_A0_W0_EM1
 10
2536.02
 20
193.98
 30
18.20
 42
-0.018360
  0
VERTEX
  8
BORDER_D0_T132.1_RK1_A0_W0_EM1
 10
2531.61
 20
235.39
 30
18.20
 42
-0.017435
  0
VERTEX
  8
BORDER_D0_T132.1_RK1_A0_W0_EM1
 10
2530.13
 20
278.10
 30
18.20
 42
-0.017435
  0
VERTEX
  8
BORDER_D0_T132.1_RK1_A0_W0_EM1
 10
2531.61
 20
320.80
 30
18.20
 42
-0.018360
  0
VERTEX
  8
BORDER_D0_T132.1_RK1_A0_W0_EM1
 10
2536.02
 20
362.21
 30
18.20
 42
-0.020393
  0
VERTEX
  8
BORDER_D0_T132.1_RK1_A0_W0_EM1
 10
2543.22
 20
401.07
 30
18.20
 42
-0.023968
  0
VERTEX
  8
BORDER_D0_T132.1_RK1_A0_W0_EM1
 10
2552.99
 20
436.18
 30
18.20
 42
-0.029940
  0
VERTEX
  8
BORDER_D0_T132.1_RK1_A0_W0_EM1
 10
2565.04
 20
466.50
 30
18.20
 42
-0.039878
  0
VERTEX
  8
BORDER_D0_T132.1_RK1_A0_W0_EM1
 10
2579.00
 20
491.09
 30
18.20
 42
-0.056346
  0
VERTEX
  8
BORDER_D0_T132.1_RK1_A0_W0_EM1
 10
2594.44
 20
509.21
 30
18.20
 42
-0.081333
  0
VERTEX
  8
BORDER_D0_T132.1_RK1_A0_W0_EM1
 10
2610.89
 20
520.30
 30
18.20
 42
-0.106579
  0
VERTEX
  8
BORDER_D0_T132.1_RK1_A0_W0_EM1
 10
2627.87
 20
524.04
 30
18.20
 42
-0.106579
  0
VERTEX
  8
BORDER_D0_T132.1_RK1_A0_W0_EM1
 10
2644.84
 20
520.30
 30
18.20
  0
SEQEND
  8
BORDER_D0_T132.1_RK1_A0_W0_EM1
  0
POLYLINE
  8
BORDER_D0_T132.1_RK1_A0_W0_EM1
 70
1
 66
1
  0
VERTEX
  8
BORDER_D0_T132.1_RK1_A0_W0_EM1
 10
2630.89
 20
1517.21
 30
18.20
 42
-0.056346
  0
VERTEX
  8
BORDER_D0_T132.1_RK1_A0_W0_EM1
 10
2646.33
 20
1499.09
 30
18.20
 42
-0.039878
  0
VERTEX
  8
BORDER_D0_T132.1_RK1_A0_W0_EM1
 10
2660.29
 20
1474.51
 30
18.20
 42
-0.029939
  0
VERTEX
  8
BORDER_D0_T132.1_RK1_A0_W0_EM1
 10
2672.34
 20
1444.19
 30
18.20
 42
-0.023968
  0
VERTEX
  8
BORDER_D0_T132.1_RK1_A0_W0_EM1
 10
2682.11
 20
1409.07
 30
18.20
 42
-0.020393
  0
VERTEX
  8
BORDER_D0_T132.1_RK1_A0_W0_EM1
 10
2689.31
 20
1370.22
 30
18.20
 42
-0.018360
  0
VERTEX
  8
BORDER_D0_T132.1_RK1_A0_W0_EM1
 10
2693.72
 20
1328.81
 30
18.20
 42
-0.017435
  0
VERTEX
  8
BORDER_D0_T132.1_RK1_A0_W0_EM1
 10
2695.21
 20
1286.10
 30
18.20
 42
-0.017435
  0
VERTEX
  8
BORDER_D0_T132.1_RK1_A0_W0_EM1
 10
2693.72
 20
1243.40
 30
18.20
 42
-0.018360
  0
VERTEX
  8
BORDER_D0_T132.1_RK1_A0_W0_EM1
 10
2689.31
 20
1201.99
 30
18.20
 42
-0.020393
  0
VERTEX
  8
BORDER_D0_T132.1_RK1_A0_W0_EM1
 10
2682.11
 20
1163.13
 30
18.20
 42
-0.023968
  0
VERTEX
  8
BORDER_D0_T132.1_RK1_A0_W0_EM1
 10
2672.34
 20
1128.02
 30
18.20
 42
-0.029939
  0
VERTEX
  8
BORDER_D0_T132.1_RK1_A0_W0_EM1
 10
2660.29
 20
1097.70
 30
18.20
 42
-0.039878
  0
VERTEX
  8
BORDER_D0_T132.1_RK1_A0_W0_EM1
 10
2646.33
 20
1073.11
 30
18.20
 42
-0.056346
  0
VERTEX
  8
BORDER_D0_T132.1_RK1_A0_W0_EM1
 10
2630.89
 20
1055.00
 30
18.20
 42
-0.081333
  0
VERTEX
  8
BORDER_D0_T132.1_RK1_A0_W0_EM1
 10
2614.44
 20
1043.90
 30
18.20
 42
-0.106579
  0
VERTEX
  8
BORDER_D0_T132.1_RK1_A0_W0_EM1
 10
2597.47
 20
1040.16
 30
18.20
 42
-0.106580
  0
VERTEX
  8
BORDER_D0_T132.1_RK1_A0_W0_EM1
 10
2580.49
 20
1043.90
 30
18.20
 42
-0.081333
  0
VERTEX
  8
BORDER_D0_T132.1_RK1_A0_W0_EM1
 10
2564.04
 20
1055.00
 30
18.20
 42
-0.056346
  0
VERTEX
  8
BORDER_D0_T132.1_RK1_A0_W0_EM1
 10
2548.59
 20
1073.11
 30
18.20
 42
-0.039878
  0
VERTEX
  8
BORDER_D0_T132.1_RK1_A0_W0_EM1
 10
2534.64
 20
1097.70
 30
18.20
 42
-0.029940
  0
VERTEX
  8
BORDER_D0_T132.1_RK1_A0_W0_EM1
 10
2522.59
 20
1128.02
 30
18.20
 42
-0.023968
  0
VERTEX
  8
BORDER_D0_T132.1_RK1_A0_W0_EM1
 10
2512.82
 20
1163.13
 30
18.20
 42
-0.020393
  0
VERTEX
  8
BORDER_D0_T132.1_RK1_A0_W0_EM1
 10
2505.62
 20
1201.99
 30
18.20
 42
-0.018360
  0
VERTEX
  8
BORDER_D0_T132.1_RK1_A0_W0_EM1
 10
2501.21
 20
1243.40
 30
18.20
 42
-0.017435
  0
VERTEX
  8
BORDER_D0_T132.1_RK1_A0_W0_EM1
 10
2499.73
 20
1286.10
 30
18.20
 42
-0.017435
  0
VERTEX
  8
BORDER_D0_T132.1_RK1_A0_W0_EM1
 10
2501.21
 20
1328.81
 30
18.20
 42
-0.018360
  0
VERTEX
  8
BORDER_D0_T132.1_RK1_A0_W0_EM1
 10
2505.62
 20
1370.22
 30
18.20
 42
-0.020393
  0
VERTEX
  8
BORDER_D0_T132.1_RK1_A0_W0_EM1
 10
2512.82
 20
1409.07
 30
18.20
 42
-0.023968
  0
VERTEX
  8
BORDER_D0_T132.1_RK1_A0_W0_EM1
 10
2522.59
 20
1444.19
 30
18.20
 42
-0.029940
  0
VERTEX
  8
BORDER_D0_T132.1_RK1_A0_W0_EM1
 10
2534.64
 20
1474.51
 30
18.20
 42
-0.039878
  0
VERTEX
  8
BORDER_D0_T132.1_RK1_A0_W0_EM1
 10
2548.59
 20
1499.09
 30
18.20
 42
-0.056346
  0
VERTEX
  8
BORDER_D0_T132.1_RK1_A0_W0_EM1
 10
2564.04
 20
1517.21
 30
18.20
 42
-0.081333
  0
VERTEX
  8
BORDER_D0_T132.1_RK1_A0_W0_EM1
 10
2580.49
 20
1528.31
 30
18.20
 42
-0.106580
  0
VERTEX
  8
BORDER_D0_T132.1_RK1_A0_W0_EM1
 10
2597.47
 20
1532.04
 30
18.20
 42
-0.106579
  0
VERTEX
  8
BORDER_D0_T132.1_RK1_A0_W0_EM1
 10
2614.44
 20
1528.31
 30
18.20
 42
-0.081333
  0
VERTEX
  8
BORDER_D0_T132.1_RK1_A0_W0_EM1
 10
2630.89
 20
1517.21
 30
18.20
  0
SEQEND
  8
BORDER_D0_T132.1_RK1_A0_W0_EM1
  0
POLYLINE
  8
BORDER_D0_T132.1_RK1_A0_W0_EM1
 70
1
 66
1
  0
VERTEX
  8
BORDER_D0_T132.1_RK1_A0_W0_EM1
 10
2333.22
 20
132.97
 30
18.20
 42
-0.020393
  0
VERTEX
  8
BORDER_D0_T132.1_RK1_A0_W0_EM1
 10
2326.02
 20
171.82
 30
18.20
 42
-0.018360
  0
VERTEX
  8
BORDER_D0_T132.1_RK1_A0_W0_EM1
 10
2321.61
 20
213.23
 30
18.20
 42
-0.017435
  0
VERTEX
  8
BORDER_D0_T132.1_RK1_A0_W0_EM1
 10
2320.12
 20
255.94
 30
18.20
 42
-0.017435
  0
VERTEX
  8
BORDER_D0_T132.1_RK1_A0_W0_EM1
 10
2321.61
 20
298.65
 30
18.20
 42
-0.018360
  0
VERTEX
  8
BORDER_D0_T132.1_RK1_A0_W0_EM1
 10
2326.02
 20
340.06
 30
18.20
 42
-0.020393
  0
VERTEX
  8
BORDER_D0_T132.1_RK1_A0_W0_EM1
 10
2333.22
 20
378.91
 30
18.20
 42
-0.023968
  0
VERTEX
  8
BORDER_D0_T132.1_RK1_A0_W0_EM1
 10
2342.99
 20
414.03
 30
18.20
 42
-0.029940
  0
VERTEX
  8
BORDER_D0_T132.1_RK1_A0_W0_EM1
 10
2355.04
 20
444.34
 30
18.20
 42
-0.039878
  0
VERTEX
  8
BORDER_D0_T132.1_RK1_A0_W0_EM1
 10
2368.99
 20
468.93
 30
18.20
 42
-0.056347
  0
VERTEX
  8
BORDER_D0_T132.1_RK1_A0_W0_EM1
 10
2384.43
 20
487.05
 30
18.20
 42
-0.081333
  0
VERTEX
  8
BORDER_D0_T132.1_RK1_A0_W0_EM1
 10
2400.89
 20
498.14
 30
18.20
 42
-0.106579
  0
VERTEX
  8
BORDER_D0_T132.1_RK1_A0_W0_EM1
 10
2417.86
 20
501.88
 30
18.20
 42
-0.106579
  0
VERTEX
  8
BORDER_D0_T132.1_RK1_A0_W0_EM1
 10
2434.83
 20
498.14
 30
18.20
 42
-0.081333
  0
VERTEX
  8
BORDER_D0_T132.1_RK1_A0_W0_EM1
 10
2451.29
 20
487.05
 30
18.20
 42
-0.056346
  0
VERTEX
  8
BORDER_D0_T132.1_RK1_A0_W0_EM1
 10
2466.73
 20
468.93
 30
18.20
 42
-0.039878
  0
VERTEX
  8
BORDER_D0_T132.1_RK1_A0_W0_EM1
 10
2480.69
 20
444.34
 30
18.20
 42
-0.029940
  0
VERTEX
  8
BORDER_D0_T132.1_RK1_A0_W0_EM1
 10
2492.74
 20
414.03
 30
18.20
 42
-0.023968
  0
VERTEX
  8
BORDER_D0_T132.1_RK1_A0_W0_EM1
 10
2502.51
 20
378.91
 30
18.20
 42
-0.020393
  0
VERTEX
  8
BORDER_D0_T132.1_RK1_A0_W0_EM1
 10
2509.71
 20
340.06
 30
18.20
 42
-0.018360
  0
VERTEX
  8
BORDER_D0_T132.1_RK1_A0_W0_EM1
 10
2514.12
 20
298.65
 30
18.20
 42
-0.017435
  0
VERTEX
  8
BORDER_D0_T132.1_RK1_A0_W0_EM1
 10
2515.60
 20
255.94
 30
18.20
 42
-0.017435
  0
VERTEX
  8
BORDER_D0_T132.1_RK1_A0_W0_EM1
 10
2514.12
 20
213.23
 30
18.20
 42
-0.018360
  0
VERTEX
  8
BORDER_D0_T132.1_RK1_A0_W0_EM1
 10
2509.71
 20
171.82
 30
18.20
 42
-0.020393
  0
VERTEX
  8
BORDER_D0_T132.1_RK1_A0_W0_EM1
 10
2502.51
 20
132.97
 30
18.20
 42
-0.023968
  0
VERTEX
  8
BORDER_D0_T132.1_RK1_A0_W0_EM1
 10
2492.74
 20
97.85
 30
18.20
 42
-0.029940
  0
VERTEX
  8
BORDER_D0_T132.1_RK1_A0_W0_EM1
 10
2480.69
 20
67.54
 30
18.20
 42
-0.039878
  0
VERTEX
  8
BORDER_D0_T132.1_RK1_A0_W0_EM1
 10
2466.73
 20
42.95
 30
18.20
 42
-0.056346
  0
VERTEX
  8
BORDER_D0_T132.1_RK1_A0_W0_EM1
 10
2451.29
 20
24.83
 30
18.20
 42
-0.081333
  0
VERTEX
  8
BORDER_D0_T132.1_RK1_A0_W0_EM1
 10
2434.83
 20
13.74
 30
18.20
 42
-0.106579
  0
VERTEX
  8
BORDER_D0_T132.1_RK1_A0_W0_EM1
 10
2417.86
 20
10.00
 30
18.20
 42
-0.106579
  0
VERTEX
  8
BORDER_D0_T132.1_RK1_A0_W0_EM1
 10
2400.89
 20
13.74
 30
18.20
 42
-0.081333
  0
VERTEX
  8
BORDER_D0_T132.1_RK1_A0_W0_EM1
 10
2384.43
 20
24.83
 30
18.20
 42
-0.056347
  0
VERTEX
  8
BORDER_D0_T132.1_RK1_A0_W0_EM1
 10
2368.99
 20
42.95
 30
18.20
 42
-0.039878
  0
VERTEX
  8
BORDER_D0_T132.1_RK1_A0_W0_EM1
 10
2355.04
 20
67.54
 30
18.20
 42
-0.029940
  0
VERTEX
  8
BORDER_D0_T132.1_RK1_A0_W0_EM1
 10
2342.99
 20
97.85
 30
18.20
 42
-0.023968
  0
VERTEX
  8
BORDER_D0_T132.1_RK1_A0_W0_EM1
 10
2333.22
 20
132.97
 30
18.20
  0
SEQEND
  8
BORDER_D0_T132.1_RK1_A0_W0_EM1
  0
POLYLINE
  8
BORDER_D0_T132.1_RK1_A0_W0_EM1
 70
0
 66
1
  0
VERTEX
  8
BORDER_D0_T132.1_RK1_A0_W0_EM1
 10
860.51
 20
1870.71
 30
18.20
  0
VERTEX
  8
BORDER_D0_T132.1_RK1_A0_W0_EM1
 10
811.64
 20
1914.82
 30
18.20
  0
VERTEX
  8
BORDER_D0_T132.1_RK1_A0_W0_EM1
 10
762.77
 20
1870.71
 30
18.20
  0
VERTEX
  8
BORDER_D0_T132.1_RK1_A0_W0_EM1
 10
776.53
 20
1935.09
 30
18.20
  0
VERTEX
  8
BORDER_D0_T132.1_RK1_A0_W0_EM1
 10
713.90
 20
1955.35
 30
18.20
  0
VERTEX
  8
BORDER_D0_T132.1_RK1_A0_W0_EM1
 10
776.53
 20
1975.62
 30
18.20
  0
VERTEX
  8
BORDER_D0_T132.1_RK1_A0_W0_EM1
 10
762.77
 20
2040.00
 30
18.20
  0
VERTEX
  8
BORDER_D0_T132.1_RK1_A0_W0_EM1
 10
811.64
 20
1995.89
 30
18.20
  0
VERTEX
  8
BORDER_D0_T132.1_RK1_A0_W0_EM1
 10
860.51
 20
2040.00
 30
18.20
  0
VERTEX
  8
BORDER_D0_T132.1_RK1_A0_W0_EM1
 10
846.74
 20
1975.62
 30
18.20
  0
VERTEX
  8
BORDER_D0_T132.1_RK1_A0_W0_EM1
 10
909.38
 20
1955.35
 30
18.20
  0
SEQEND
  8
BORDER_D0_T132.1_RK1_A0_W0_EM1
  0
POLYLINE
  8
BORDER_D0_T132.1_RK1_A0_W0_EM1
 70
0
 66
1
  0
VERTEX
  8
BORDER_D0_T132.1_RK1_A0_W0_EM1
 10
1554.33
 20
1955.35
 30
18.20
  0
VERTEX
  8
BORDER_D0_T132.1_RK1_A0_W0_EM1
 10
1616.96
 20
1975.62
 30
18.20
  0
VERTEX
  8
BORDER_D0_T132.1_RK1_A0_W0_EM1
 10
1603.20
 20
2040.00
 30
18.20
  0
VERTEX
  8
BORDER_D0_T132.1_RK1_A0_W0_EM1
 10
1652.07
 20
1995.89
 30
18.20
  0
VERTEX
  8
BORDER_D0_T132.1_RK1_A0_W0_EM1
 10
1700.94
 20
2040.00
 30
18.20
  0
VERTEX
  8
BORDER_D0_T132.1_RK1_A0_W0_EM1
 10
1687.17
 20
1975.62
 30
18.20
  0
VERTEX
  8
BORDER_D0_T132.1_RK1_A0_W0_EM1
 10
1749.81
 20
1955.35
 30
18.20
  0
VERTEX
  8
BORDER_D0_T132.1_RK1_A0_W0_EM1
 10
1687.17
 20
1935.09
 30
18.20
  0
VERTEX
  8
BORDER_D0_T132.1_RK1_A0_W0_EM1
 10
1700.94
 20
1870.71
 30
18.20
  0
SEQEND
  8
BORDER_D0_T132.1_RK1_A0_W0_EM1
  0
POLYLINE
  8
BORDER_D0_T132.1_RK1_A0_W0_EM1
 70
0
 66
1
  0
VERTEX
  8
BORDER_D0_T132.1_RK1_A0_W0_EM1
 10
1619.34
 20
1267.96
 30
18.20
  0
VERTEX
  8
BORDER_D0_T132.1_RK1_A0_W0_EM1
 10
1616.06
 20
1212.05
 30
18.20
  0
VERTEX
  8
BORDER_D0_T132.1_RK1_A0_W0_EM1
 10
1668.21
 20
1232.45
 30
18.20
  0
VERTEX
  8
BORDER_D0_T132.1_RK1_A0_W0_EM1
 10
1632.69
 20
1189.15
 30
18.20
  0
VERTEX
  8
BORDER_D0_T132.1_RK1_A0_W0_EM1
 10
1686.88
 20
1175.00
 30
18.20
  0
VERTEX
  8
BORDER_D0_T132.1_RK1_A0_W0_EM1
 10
1632.69
 20
1160.85
 30
18.20
  0
VERTEX
  8
BORDER_D0_T132.1_RK1_A0_W0_EM1
 10
1668.21
 20
1117.55
 30
18.20
  0
VERTEX
  8
BORDER_D0_T132.1_RK1_A0_W0_EM1
 10
1616.37
 20
1008.45
 30
18.20
  0
VERTEX
  8
BORDER_D0_T132.1_RK1_A0_W0_EM1
 10
1612.29
 20
995.87
 30
18.20
  0
VERTEX
  8
BORDER_D0_T132.1_RK1_A0_W0_EM1
 10
1576.78
 20
886.59
 30
18.20
  0
VERTEX
  8
BORDER_D0_T132.1_RK1_A0_W0_EM1
 10
1461.88
 20
886.59
 30
18.20
  0
VERTEX
  8
BORDER_D0_T132.1_RK1_A0_W0_EM1
 10
1007.51
 20
963.14
 30
18.20
  0
VERTEX
  8
BORDER_D0_T132.1_RK1_A0_W0_EM1
 10
1003.42
 20
950.56
 30
18.20
  0
VERTEX
  8
BORDER_D0_T132.1_RK1_A0_W0_EM1
 10
981.48
 20
883.02
 30
18.20
  0
VERTEX
  8
BORDER_D0_T132.1_RK1_A0_W0_EM1
 10
1038.93
 20
841.28
 30
18.20
  0
SEQEND
  8
BORDER_D0_T132.1_RK1_A0_W0_EM1
  0
POLYLINE
  8
BORDER_D0_T132.1_RK1_A0_W0_EM1
 70
1
 66
1
  0
VERTEX
  8
BORDER_D0_T132.1_RK1_A0_W0_EM1
 10
827.82
 20
1117.55
 30
18.20
  0
VERTEX
  8
BORDER_D0_T132.1_RK1_A0_W0_EM1
 10
775.66
 20
1137.95
 30
18.20
  0
VERTEX
  8
BORDER_D0_T132.1_RK1_A0_W0_EM1
 10
778.95
 20
1082.04
 30
18.20
  0
VERTEX
  8
BORDER_D0_T132.1_RK1_A0_W0_EM1
 10
748.74
 20
1129.20
 30
18.20
  0
VERTEX
  8
BORDER_D0_T132.1_RK1_A0_W0_EM1
 10
718.54
 20
1082.04
 30
18.20
  0
VERTEX
  8
BORDER_D0_T132.1_RK1_A0_W0_EM1
 10
721.83
 20
1137.95
 30
18.20
  0
VERTEX
  8
BORDER_D0_T132.1_RK1_A0_W0_EM1
 10
669.67
 20
1117.55
 30
18.20
  0
VERTEX
  8
BORDER_D0_T132.1_RK1_A0_W0_EM1
 10
705.19
 20
1160.85
 30
18.20
  0
VERTEX
  8
BORDER_D0_T132.1_RK1_A0_W0_EM1
 10
651.01
 20
1175.00
 30
18.20
  0
VERTEX
  8
BORDER_D0_T132.1_RK1_A0_W0_EM1
 10
705.19
 20
1189.15
 30
18.20
  0
VERTEX
  8
BORDER_D0_T132.1_RK1_A0_W0_EM1
 10
669.67
 20
1232.45
 30
18.20
  0
VERTEX
  8
BORDER_D0_T132.1_RK1_A0_W0_EM1
 10
721.83
 20
1212.05
 30
18.20
  0
VERTEX
  8
BORDER_D0_T132.1_RK1_A0_W0_EM1
 10
718.54
 20
1267.96
 30
18.20
  0
VERTEX
  8
BORDER_D0_T132.1_RK1_A0_W0_EM1
 10
748.74
 20
1220.80
 30
18.20
  0
VERTEX
  8
BORDER_D0_T132.1_RK1_A0_W0_EM1
 10
778.95
 20
1267.96
 30
18.20
  0
VERTEX
  8
BORDER_D0_T132.1_RK1_A0_W0_EM1
 10
775.66
 20
1212.05
 30
18.20
  0
VERTEX
  8
BORDER_D0_T132.1_RK1_A0_W0_EM1
 10
827.82
 20
1232.45
 30
18.20
  0
VERTEX
  8
BORDER_D0_T132.1_RK1_A0_W0_EM1
 10
792.30
 20
1189.15
 30
18.20
  0
VERTEX
  8
BORDER_D0_T132.1_RK1_A0_W0_EM1
 10
846.48
 20
1175.00
 30
18.20
  0
VERTEX
  8
BORDER_D0_T132.1_RK1_A0_W0_EM1
 10
792.30
 20
1160.85
 30
18.20
  0
VERTEX
  8
BORDER_D0_T132.1_RK1_A0_W0_EM1
 10
827.82
 20
1117.55
 30
18.20
  0
SEQEND
  8
BORDER_D0_T132.1_RK1_A0_W0_EM1
  0
POLYLINE
  8
BORDER_D0_T132.1_RK1_A0_W0_EM1
 70
0
 66
1
  0
VERTEX
  8
BORDER_D0_T132.1_RK1_A0_W0_EM1
 10
94.64
 20
397.12
 30
18.20
  0
VERTEX
  8
BORDER_D0_T132.1_RK1_A0_W0_EM1
 10
114.91
 20
334.48
 30
18.20
  0
VERTEX
  8
BORDER_D0_T132.1_RK1_A0_W0_EM1
 10
179.29
 20
348.25
 30
18.20
  0
VERTEX
  8
BORDER_D0_T132.1_RK1_A0_W0_EM1
 10
135.18
 20
299.38
 30
18.20
  0
VERTEX
  8
BORDER_D0_T132.1_RK1_A0_W0_EM1
 10
188.15
 20
240.69
 30
18.20
  0
VERTEX
  8
BORDER_D0_T132.1_RK1_A0_W0_EM1
 10
570.46
 20
265.88
 30
18.20
  0
VERTEX
  8
BORDER_D0_T132.1_RK1_A0_W0_EM1
 10
574.18
 20
251.66
 30
18.20
  0
VERTEX
  8
BORDER_D0_T132.1_RK1_A0_W0_EM1
 10
586.98
 20
255.00
 30
18.20
  0
VERTEX
  8
BORDER_D0_T132.1_RK1_A0_W0_EM1
 10
641.16
 20
269.15
 30
18.20
  0
VERTEX
  8
BORDER_D0_T132.1_RK1_A0_W0_EM1
 10
605.65
 20
312.45
 30
18.20
  0
VERTEX
  8
BORDER_D0_T132.1_RK1_A0_W0_EM1
 10
657.80
 20
292.05
 30
18.20
  0
VERTEX
  8
BORDER_D0_T132.1_RK1_A0_W0_EM1
 10
654.52
 20
347.96
 30
18.20
  0
VERTEX
  8
BORDER_D0_T132.1_RK1_A0_W0_EM1
 10
684.72
 20
300.80
 30
18.20
  0
VERTEX
  8
BORDER_D0_T132.1_RK1_A0_W0_EM1
 10
714.92
 20
347.96
 30
18.20
  0
VERTEX
  8
BORDER_D0_T132.1_RK1_A0_W0_EM1
 10
711.64
 20
292.05
 30
18.20
  0
VERTEX
  8
BORDER_D0_T132.1_RK1_A0_W0_EM1
 10
763.79
 20
312.45
 30
18.20
  0
VERTEX
  8
BORDER_D0_T132.1_RK1_A0_W0_EM1
 10
728.28
 20
269.15
 30
18.20
  0
VERTEX
  8
BORDER_D0_T132.1_RK1_A0_W0_EM1
 10
782.46
 20
255.00
 30
18.20
  0
VERTEX
  8
BORDER_D0_T132.1_RK1_A0_W0_EM1
 10
777.16
 20
201.18
 30
18.20
  0
VERTEX
  8
BORDER_D0_T132.1_RK1_A0_W0_EM1
 10
787.86
 20
193.41
 30
18.20
  0
VERTEX
  8
BORDER_D0_T132.1_RK1_A0_W0_EM1
 10
880.81
 20
125.87
 30
18.20
  0
VERTEX
  8
BORDER_D0_T132.1_RK1_A0_W0_EM1
 10
841.22
 20
4.01
 30
18.20
  0
VERTEX
  8
BORDER_D0_T132.1_RK1_A0_W0_EM1
 10
855.20
 20
-0.53
 30
18.20
  0
VERTEX
  8
BORDER_D0_T132.1_RK1_A0_W0_EM1
 10
1100.92
 20
-7.71
 30
18.20
  0
VERTEX
  8
BORDER_D0_T132.1_RK1_A0_W0_EM1
 10
1109.56
 20
4.18
 30
18.20
  0
VERTEX
  8
BORDER_D0_T132.1_RK1_A0_W0_EM1
 10
1098.86
 20
11.96
 30
18.20
  0
VERTEX
  8
BORDER_D0_T132.1_RK1_A0_W0_EM1
 10
881.81
 20
169.65
 30
18.20
  0
VERTEX
  8
BORDER_D0_T132.1_RK1_A0_W0_EM1
 10
798.91
 20
424.81
 30
18.20
  0
VERTEX
  8
BORDER_D0_T132.1_RK1_A0_W0_EM1
 10
881.81
 20
679.97
 30
18.20
  0
VERTEX
  8
BORDER_D0_T132.1_RK1_A0_W0_EM1
 10
1098.86
 20
837.66
 30
18.20
  0
VERTEX
  8
BORDER_D0_T132.1_RK1_A0_W0_EM1
 10
1367.15
 20
837.66
 30
18.20
  0
VERTEX
  8
BORDER_D0_T132.1_RK1_A0_W0_EM1
 10
1584.20
 20
679.97
 30
18.20
  0
VERTEX
  8
BORDER_D0_T132.1_RK1_A0_W0_EM1
 10
1671.19
 20
412.23
 30
18.20
  0
VERTEX
  8
BORDER_D0_T132.1_RK1_A0_W0_EM1
 10
2007.37
 20
216.85
 30
18.20
  0
VERTEX
  8
BORDER_D0_T132.1_RK1_A0_W0_EM1
 10
2020.17
 20
220.19
 30
18.20
  0
VERTEX
  8
BORDER_D0_T132.1_RK1_A0_W0_EM1
 10
2074.35
 20
234.34
 30
18.20
  0
VERTEX
  8
BORDER_D0_T132.1_RK1_A0_W0_EM1
 10
2038.84
 20
277.64
 30
18.20
  0
VERTEX
  8
BORDER_D0_T132.1_RK1_A0_W0_EM1
 10
2090.99
 20
257.24
 30
18.20
  0
VERTEX
  8
BORDER_D0_T132.1_RK1_A0_W0_EM1
 10
2087.71
 20
313.15
 30
18.20
  0
VERTEX
  8
BORDER_D0_T132.1_RK1_A0_W0_EM1
 10
2117.91
 20
265.99
 30
18.20
  0
VERTEX
  8
BORDER_D0_T132.1_RK1_A0_W0_EM1
 10
2148.11
 20
313.15
 30
18.20
  0
VERTEX
  8
BORDER_D0_T132.1_RK1_A0_W0_EM1
 10
2144.83
 20
257.24
 30
18.20
  0
VERTEX
  8
BORDER_D0_T132.1_RK1_A0_W0_EM1
 10
2196.98
 20
277.64
 30
18.20
  0
VERTEX
  8
BORDER_D0_T132.1_RK1_A0_W0_EM1
 10
2161.47
 20
234.34
 30
18.20
  0
VERTEX
  8
BORDER_D0_T132.1_RK1_A0_W0_EM1
 10
2215.65
 20
220.19
 30
18.20
  0
SEQEND
  8
BORDER_D0_T132.1_RK1_A0_W0_EM1
  0
POLYLINE
  8
BORDER_D0_T132.1_RK1_A0_W0_EM1
 70
0
 66
1
  0
VERTEX
  8
BORDER_D0_T132.1_RK1_A0_W0_EM1
 10
2364.32
 20
488.33
 30
18.20
  0
VERTEX
  8
BORDER_D0_T132.1_RK1_A0_W0_EM1
 10
2147.27
 20
330.64
 30
18.20
  0
VERTEX
  8
BORDER_D0_T132.1_RK1_A0_W0_EM1
 10
1878.98
 20
330.64
 30
18.20
  0
VERTEX
  8
BORDER_D0_T132.1_RK1_A0_W0_EM1
 10
1661.94
 20
488.33
 30
18.20
  0
VERTEX
  8
BORDER_D0_T132.1_RK1_A0_W0_EM1
 10
1579.03
 20
743.49
 30
18.20
  0
VERTEX
  8
BORDER_D0_T132.1_RK1_A0_W0_EM1
 10
1661.94
 20
998.65
 30
18.20
  0
VERTEX
  8
BORDER_D0_T132.1_RK1_A0_W0_EM1
 10
1878.98
 20
1156.34
 30
18.20
  0
VERTEX
  8
BORDER_D0_T132.1_RK1_A0_W0_EM1
 10
2147.27
 20
1156.34
 30
18.20
  0
VERTEX
  8
BORDER_D0_T132.1_RK1_A0_W0_EM1
 10
2375.03
 20
990.87
 30
18.20
  0
VERTEX
  8
BORDER_D0_T132.1_RK1_A0_W0_EM1
 10
2440.32
 20
1051.89
 30
18.20
  0
VERTEX
  8
BORDER_D0_T132.1_RK1_A0_W0_EM1
 10
2440.32
 20
1066.59
 30
18.20
  0
VERTEX
  8
BORDER_D0_T132.1_RK1_A0_W0_EM1
 10
2312.19
 20
1066.59
 30
18.20
  0
VERTEX
  8
BORDER_D0_T132.1_RK1_A0_W0_EM1
 10
2272.60
 20
1188.45
 30
18.20
  0
VERTEX
  8
BORDER_D0_T132.1_RK1_A0_W0_EM1
 10
2103.67
 20
1171.80
 30
18.20
  0
VERTEX
  8
BORDER_D0_T132.1_RK1_A0_W0_EM1
 10
1848.51
 20
1254.71
 30
18.20
  0
VERTEX
  8
BORDER_D0_T132.1_RK1_A0_W0_EM1
 10
1690.82
 20
1471.76
 30
18.20
  0
VERTEX
  8
BORDER_D0_T132.1_RK1_A0_W0_EM1
 10
1690.82
 20
1753.27
 30
18.20
  0
VERTEX
  8
BORDER_D0_T132.1_RK1_A0_W0_EM1
 10
1676.12
 20
1753.27
 30
18.20
  0
VERTEX
  8
BORDER_D0_T132.1_RK1_A0_W0_EM1
 10
1676.12
 20
1471.76
 30
18.20
  0
VERTEX
  8
BORDER_D0_T132.1_RK1_A0_W0_EM1
 10
1518.42
 20
1254.71
 30
18.20
  0
VERTEX
  8
BORDER_D0_T132.1_RK1_A0_W0_EM1
 10
1263.26
 20
1171.80
 30
18.20
  0
VERTEX
  8
BORDER_D0_T132.1_RK1_A0_W0_EM1
 10
1008.10
 20
1254.71
 30
18.20
  0
VERTEX
  8
BORDER_D0_T132.1_RK1_A0_W0_EM1
 10
850.41
 20
1471.76
 30
18.20
  0
VERTEX
  8
BORDER_D0_T132.1_RK1_A0_W0_EM1
 10
850.41
 20
1753.27
 30
18.20
  0
VERTEX
  8
BORDER_D0_T132.1_RK1_A0_W0_EM1
 10
835.71
 20
1753.27
 30
18.20
  0
VERTEX
  8
BORDER_D0_T132.1_RK1_A0_W0_EM1
 10
835.71
 20
1471.76
 30
18.20
  0
VERTEX
  8
BORDER_D0_T132.1_RK1_A0_W0_EM1
 10
678.01
 20
1254.71
 30
18.20
  0
VERTEX
  8
BORDER_D0_T132.1_RK1_A0_W0_EM1
 10
422.85
 20
1171.80
 30
18.20
  0
SEQEND
  8
BORDER_D0_T132.1_RK1_A0_W0_EM1
  0
ENDSEC
  0
EOF
