  0
SECTION
  2
HEADER
  9
$LTSCALE
 40
41.00
  9
$LIMMIN
 10
-41.00
 20
-61.50
  9
$LIMMAX
 10
2841.00
 20
2193.50
  9
$EXTMIN
 10
-41.00
 20
-61.50
  9
$EXTMAX
 10
2841.00
 20
2193.50
  9
$TEXTSTYLE
  7
txt
  9
$CLAYER
  8
1
  9
$CECOLOR
 62
7
  9
$CELTYPE
  6
CONTINUOUS
  9
$OSMODE
 70
0
  0
ENDSEC
  0
SECTION
  2
TABLES
  0
TABLE
  2
STYLE
 70
1
  0
STYLE
  2
STANDARD
 70
0
 40
1.00
 41
1.00
 50
0.00
 71
0
 42
0.20
  3
txt
  4

  0
ENDTAB
  0
TABLE
  2
LTYPE
 70
1
  0
LTYPE
  2
HIDDEN
 70
64
  3
_ _ _ _ _ _ _ _ _ _ _ _ _ _ _ _ _ _ _ _ _ _
 72
65
 73
2
 40
0.50
 49
0.25
 49
-0.25
  0
ENDTAB
  0
ENDSEC
  0
SECTION
  2
ENTITIES
  0
LINE
  6
CONTINUOUS
  8
FRAME_Z18
 10
0.00
 20
0.00
 30
0.00
 11
2800.00
 21
0.00
 31
0.00
  0
LINE
  6
CONTINUOUS
  8
FRAME_Z18
 10
0.00
 20
2050.00
 30
0.00
 11
2800.00
 21
2050.00
 31
0.00
  0
LINE
  6
CONTINUOUS
  8
FRAME_Z18
 10
0.00
 20
0.00
 30
0.00
 11
0.00
 21
2050.00
 31
0.00
  0
LINE
  6
CONTINUOUS
  8
FRAME_Z18
 10
2800.00
 20
0.00
 30
0.00
 11
2800.00
 21
2050.00
 31
0.00
  0
TEXT
  8
TEXT
 10
617.80
 20
144.05
 30
18.00
 40
41.00
  1

  0
TEXT
  8
TEXT
 10
605.80
 20
160.05
 30
18.00
 40
41.00
  1
A
  0
TEXT
  8
TEXT
 10
789.80
 20
-0.95
 30
18.00
 40
41.00
  1
B
  0
TEXT
  8
TEXT
 10
835.80
 20
213.05
 30
18.00
 40
41.00
  1
C
  0
POLYLINE
  8
CONTOUR_D0
 70
1
 66
1
  0
VERTEX
  8
CONTOUR_D0
 10
1916.32
 20
475.00
 30
17.00
 42
-0.121127
  0
VERTEX
  8
CONTOUR_D0
 10
1912.88
 20
461.39
 30
17.00
 42
-0.084995
  0
VERTEX
  8
CONTOUR_D0
 10
1902.66
 20
448.20
 30
17.00
 42
-0.054590
  0
VERTEX
  8
CONTOUR_D0
 10
1885.97
 20
435.83
 30
17.00
 42
-0.036890
  0
VERTEX
  8
CONTOUR_D0
 10
1863.31
 20
424.64
 30
17.00
 42
-0.026939
  0
VERTEX
  8
CONTOUR_D0
 10
1835.39
 20
414.98
 30
17.00
 42
-0.021226
  0
VERTEX
  8
CONTOUR_D0
 10
1803.04
 20
407.15
 30
17.00
 42
-0.017888
  0
VERTEX
  8
CONTOUR_D0
 10
1767.25
 20
401.38
 30
17.00
 42
-0.016018
  0
VERTEX
  8
CONTOUR_D0
 10
1729.11
 20
397.84
 30
17.00
 42
-0.015176
  0
VERTEX
  8
CONTOUR_D0
 10
1689.77
 20
396.65
 30
17.00
 42
-0.015176
  0
VERTEX
  8
CONTOUR_D0
 10
1650.43
 20
397.84
 30
17.00
 42
-0.016018
  0
VERTEX
  8
CONTOUR_D0
 10
1612.29
 20
401.38
 30
17.00
 42
-0.017888
  0
VERTEX
  8
CONTOUR_D0
 10
1576.50
 20
407.15
 30
17.00
 42
-0.021226
  0
VERTEX
  8
CONTOUR_D0
 10
1544.15
 20
414.98
 30
17.00
 42
-0.026948
  0
VERTEX
  8
CONTOUR_D0
 10
1516.22
 20
424.64
 30
17.00
 42
-0.036877
  0
VERTEX
  8
CONTOUR_D0
 10
1493.57
 20
435.83
 30
17.00
 42
-0.054569
  0
VERTEX
  8
CONTOUR_D0
 10
1476.89
 20
448.20
 30
17.00
 42
-0.085027
  0
VERTEX
  8
CONTOUR_D0
 10
1466.66
 20
461.39
 30
17.00
 42
-0.121127
  0
VERTEX
  8
CONTOUR_D0
 10
1463.22
 20
475.00
 30
17.00
 42
-0.121041
  0
VERTEX
  8
CONTOUR_D0
 10
1466.66
 20
488.60
 30
17.00
 42
-0.085067
  0
VERTEX
  8
CONTOUR_D0
 10
1476.89
 20
501.80
 30
17.00
 42
-0.054569
  0
VERTEX
  8
CONTOUR_D0
 10
1493.57
 20
514.17
 30
17.00
 42
-0.066481
  0
VERTEX
  8
CONTOUR_D0
 10
1516.22
 20
525.36
 30
17.00
 42
-0.043161
  0
VERTEX
  8
CONTOUR_D0
 10
1544.15
 20
535.02
 30
17.00
 42
-0.021226
  0
VERTEX
  8
CONTOUR_D0
 10
1576.50
 20
542.85
 30
17.00
 42
-0.017888
  0
VERTEX
  8
CONTOUR_D0
 10
1612.29
 20
548.62
 30
17.00
 42
-0.016018
  0
VERTEX
  8
CONTOUR_D0
 10
1650.43
 20
552.16
 30
17.00
 42
-0.015176
  0
VERTEX
  8
CONTOUR_D0
 10
1689.77
 20
553.35
 30
17.00
 42
-0.015176
  0
VERTEX
  8
CONTOUR_D0
 10
1729.11
 20
552.16
 30
17.00
 42
-0.016018
  0
VERTEX
  8
CONTOUR_D0
 10
1767.25
 20
548.62
 30
17.00
 42
-0.017888
  0
VERTEX
  8
CONTOUR_D0
 10
1803.04
 20
542.85
 30
17.00
 42
-0.021226
  0
VERTEX
  8
CONTOUR_D0
 10
1835.39
 20
535.02
 30
17.00
 42
-0.026939
  0
VERTEX
  8
CONTOUR_D0
 10
1863.31
 20
525.36
 30
17.00
 42
-0.036890
  0
VERTEX
  8
CONTOUR_D0
 10
1885.97
 20
514.17
 30
17.00
 42
-0.054590
  0
VERTEX
  8
CONTOUR_D0
 10
1902.66
 20
501.80
 30
17.00
 42
-0.085036
  0
VERTEX
  8
CONTOUR_D0
 10
1912.88
 20
488.60
 30
17.00
 42
-0.121041
  0
VERTEX
  8
CONTOUR_D0
 10
1916.32
 20
475.00
 30
17.00
  0
SEQEND
  8
CONTOUR_D0
  0
POLYLINE
  8
CONTOUR_D0
 70
1
 66
1
  0
VERTEX
  8
CONTOUR_D0
 10
2370.50
 20
380.00
 30
17.00
 42
-0.121126
  0
VERTEX
  8
CONTOUR_D0
 10
2367.06
 20
366.39
 30
17.00
 42
-0.084996
  0
VERTEX
  8
CONTOUR_D0
 10
2356.84
 20
353.20
 30
17.00
 42
-0.054590
  0
VERTEX
  8
CONTOUR_D0
 10
2340.15
 20
340.83
 30
17.00
 42
-0.036890
  0
VERTEX
  8
CONTOUR_D0
 10
2317.49
 20
329.64
 30
17.00
 42
-0.026939
  0
VERTEX
  8
CONTOUR_D0
 10
2289.57
 20
319.98
 30
17.00
 42
-0.021226
  0
VERTEX
  8
CONTOUR_D0
 10
2257.22
 20
312.15
 30
17.00
 42
-0.017888
  0
VERTEX
  8
CONTOUR_D0
 10
2221.43
 20
306.38
 30
17.00
 42
-0.016018
  0
VERTEX
  8
CONTOUR_D0
 10
2183.29
 20
302.84
 30
17.00
 42
-0.015176
  0
VERTEX
  8
CONTOUR_D0
 10
2143.95
 20
301.65
 30
17.00
 42
-0.015176
  0
VERTEX
  8
CONTOUR_D0
 10
2104.61
 20
302.84
 30
17.00
 42
-0.016018
  0
VERTEX
  8
CONTOUR_D0
 10
2066.47
 20
306.38
 30
17.00
 42
-0.017888
  0
VERTEX
  8
CONTOUR_D0
 10
2030.68
 20
312.15
 30
17.00
 42
-0.021226
  0
VERTEX
  8
CONTOUR_D0
 10
1998.33
 20
319.98
 30
17.00
 42
-0.026948
  0
VERTEX
  8
CONTOUR_D0
 10
1970.40
 20
329.64
 30
17.00
 42
-0.036877
  0
VERTEX
  8
CONTOUR_D0
 10
1947.75
 20
340.83
 30
17.00
 42
-0.054569
  0
VERTEX
  8
CONTOUR_D0
 10
1931.07
 20
353.20
 30
17.00
 42
-0.085027
  0
VERTEX
  8
CONTOUR_D0
 10
1920.84
 20
366.39
 30
17.00
 42
-0.121127
  0
VERTEX
  8
CONTOUR_D0
 10
1917.40
 20
380.00
 30
17.00
 42
-0.121041
  0
VERTEX
  8
CONTOUR_D0
 10
1920.84
 20
393.60
 30
17.00
 42
-0.085067
  0
VERTEX
  8
CONTOUR_D0
 10
1931.07
 20
406.80
 30
17.00
 42
-0.054569
  0
VERTEX
  8
CONTOUR_D0
 10
1947.75
 20
419.17
 30
17.00
 42
-0.066481
  0
VERTEX
  8
CONTOUR_D0
 10
1970.40
 20
430.36
 30
17.00
 42
-0.043161
  0
VERTEX
  8
CONTOUR_D0
 10
1998.33
 20
440.02
 30
17.00
 42
-0.021226
  0
VERTEX
  8
CONTOUR_D0
 10
2030.68
 20
447.85
 30
17.00
 42
-0.017888
  0
VERTEX
  8
CONTOUR_D0
 10
2066.47
 20
453.62
 30
17.00
 42
-0.016018
  0
VERTEX
  8
CONTOUR_D0
 10
2104.61
 20
457.16
 30
17.00
 42
-0.015176
  0
VERTEX
  8
CONTOUR_D0
 10
2143.95
 20
458.35
 30
17.00
 42
-0.015176
  0
VERTEX
  8
CONTOUR_D0
 10
2183.29
 20
457.16
 30
17.00
 42
-0.016018
  0
VERTEX
  8
CONTOUR_D0
 10
2221.43
 20
453.62
 30
17.00
 42
-0.017888
  0
VERTEX
  8
CONTOUR_D0
 10
2257.22
 20
447.85
 30
17.00
 42
-0.021226
  0
VERTEX
  8
CONTOUR_D0
 10
2289.57
 20
440.02
 30
17.00
 42
-0.026939
  0
VERTEX
  8
CONTOUR_D0
 10
2317.49
 20
430.36
 30
17.00
 42
-0.036890
  0
VERTEX
  8
CONTOUR_D0
 10
2340.15
 20
419.17
 30
17.00
 42
-0.054590
  0
VERTEX
  8
CONTOUR_D0
 10
2356.84
 20
406.80
 30
17.00
 42
-0.085037
  0
VERTEX
  8
CONTOUR_D0
 10
2367.06
 20
393.60
 30
17.00
 42
-0.121041
  0
VERTEX
  8
CONTOUR_D0
 10
2370.50
 20
380.00
 30
17.00
  0
SEQEND
  8
CONTOUR_D0
  0
TEXT
  8
TEXT
 10
2945.63
 20
672.99
 30
18.00
 40
41.00
  1

  0
TEXT
  8
TEXT
 10
2957.63
 20
656.99
 30
18.00
 40
41.00
  1
A
  0
TEXT
  8
TEXT
 10
2773.63
 20
817.99
 30
18.00
 40
41.00
  1
B
  0
TEXT
  8
TEXT
 10
2727.63
 20
603.99
 30
18.00
 40
41.00
  1
C
  0
POLYLINE
  8
CONTOUR_D0
 70
1
 66
1
  0
VERTEX
  8
CONTOUR_D0
 10
2681.87
 20
2020.61
 30
17.00
 42
-0.121127
  0
VERTEX
  8
CONTOUR_D0
 10
2695.48
 20
2017.17
 30
17.00
 42
-0.084995
  0
VERTEX
  8
CONTOUR_D0
 10
2708.67
 20
2006.95
 30
17.00
 42
-0.054589
  0
VERTEX
  8
CONTOUR_D0
 10
2721.04
 20
1990.26
 30
17.00
 42
-0.036890
  0
VERTEX
  8
CONTOUR_D0
 10
2732.23
 20
1967.60
 30
17.00
 42
-0.026939
  0
VERTEX
  8
CONTOUR_D0
 10
2741.89
 20
1939.68
 30
17.00
 42
-0.021226
  0
VERTEX
  8
CONTOUR_D0
 10
2749.72
 20
1907.33
 30
17.00
 42
-0.017888
  0
VERTEX
  8
CONTOUR_D0
 10
2755.49
 20
1871.54
 30
17.00
 42
-0.016018
  0
VERTEX
  8
CONTOUR_D0
 10
2759.03
 20
1833.40
 30
17.00
 42
-0.015176
  0
VERTEX
  8
CONTOUR_D0
 10
2760.22
 20
1794.06
 30
17.00
 42
-0.015176
  0
VERTEX
  8
CONTOUR_D0
 10
2759.03
 20
1754.72
 30
17.00
 42
-0.016018
  0
VERTEX
  8
CONTOUR_D0
 10
2755.49
 20
1716.58
 30
17.00
 42
-0.017888
  0
VERTEX
  8
CONTOUR_D0
 10
2749.72
 20
1680.79
 30
17.00
 42
-0.021226
  0
VERTEX
  8
CONTOUR_D0
 10
2741.89
 20
1648.44
 30
17.00
 42
-0.026947
  0
VERTEX
  8
CONTOUR_D0
 10
2732.23
 20
1620.51
 30
17.00
 42
-0.036877
  0
VERTEX
  8
CONTOUR_D0
 10
2721.04
 20
1597.86
 30
17.00
 42
-0.054568
  0
VERTEX
  8
CONTOUR_D0
 10
2708.67
 20
1581.18
 30
17.00
 42
-0.085027
  0
VERTEX
  8
CONTOUR_D0
 10
2695.48
 20
1570.95
 30
17.00
 42
-0.121127
  0
VERTEX
  8
CONTOUR_D0
 10
2681.87
 20
1567.51
 30
17.00
 42
-0.121041
  0
VERTEX
  8
CONTOUR_D0
 10
2668.27
 20
1570.95
 30
17.00
 42
-0.085068
  0
VERTEX
  8
CONTOUR_D0
 10
2655.07
 20
1581.18
 30
17.00
 42
-0.054568
  0
VERTEX
  8
CONTOUR_D0
 10
2642.70
 20
1597.86
 30
17.00
 42
-0.066481
  0
VERTEX
  8
CONTOUR_D0
 10
2631.51
 20
1620.51
 30
17.00
 42
-0.043161
  0
VERTEX
  8
CONTOUR_D0
 10
2621.85
 20
1648.44
 30
17.00
 42
-0.021226
  0
VERTEX
  8
CONTOUR_D0
 10
2614.02
 20
1680.79
 30
17.00
 42
-0.017888
  0
VERTEX
  8
CONTOUR_D0
 10
2608.25
 20
1716.58
 30
17.00
 42
-0.016018
  0
VERTEX
  8
CONTOUR_D0
 10
2604.71
 20
1754.72
 30
17.00
 42
-0.015176
  0
VERTEX
  8
CONTOUR_D0
 10
2603.52
 20
1794.06
 30
17.00
 42
-0.015176
  0
VERTEX
  8
CONTOUR_D0
 10
2604.71
 20
1833.40
 30
17.00
 42
-0.016018
  0
VERTEX
  8
CONTOUR_D0
 10
2608.25
 20
1871.54
 30
17.00
 42
-0.017888
  0
VERTEX
  8
CONTOUR_D0
 10
2614.02
 20
1907.33
 30
17.00
 42
-0.021226
  0
VERTEX
  8
CONTOUR_D0
 10
2621.85
 20
1939.68
 30
17.00
 42
-0.026939
  0
VERTEX
  8
CONTOUR_D0
 10
2631.51
 20
1967.60
 30
17.00
 42
-0.036890
  0
VERTEX
  8
CONTOUR_D0
 10
2642.70
 20
1990.26
 30
17.00
 42
-0.054589
  0
VERTEX
  8
CONTOUR_D0
 10
2655.07
 20
2006.95
 30
17.00
 42
-0.085036
  0
VERTEX
  8
CONTOUR_D0
 10
2668.27
 20
2017.17
 30
17.00
 42
-0.121041
  0
VERTEX
  8
CONTOUR_D0
 10
2681.87
 20
2020.61
 30
17.00
  0
SEQEND
  8
CONTOUR_D0
  0
POLYLINE
  8
CONTOUR_D0
 70
1
 66
1
  0
VERTEX
  8
CONTOUR_D0
 10
2209.90
 20
1953.87
 30
17.00
 42
-0.084763
  0
VERTEX
  8
CONTOUR_D0
 10
2270.32
 20
1943.43
 30
17.00
 42
-0.072416
  0
VERTEX
  8
CONTOUR_D0
 10
2328.91
 20
1912.45
 30
17.00
 42
-0.056882
  0
VERTEX
  8
CONTOUR_D0
 10
2383.89
 20
1861.85
 30
17.00
 42
-0.044133
  0
VERTEX
  8
CONTOUR_D0
 10
2433.57
 20
1793.18
 30
17.00
 42
-0.035179
  0
VERTEX
  8
CONTOUR_D0
 10
2476.46
 20
1708.53
 30
17.00
 42
-0.029250
  0
VERTEX
  8
CONTOUR_D0
 10
2511.25
 20
1610.46
 30
17.00
 42
-0.025474
  0
VERTEX
  8
CONTOUR_D0
 10
2536.88
 20
1501.96
 30
17.00
 42
-0.023248
  0
VERTEX
  8
CONTOUR_D0
 10
2552.58
 20
1386.32
 30
17.00
 42
-0.022215
  0
VERTEX
  8
CONTOUR_D0
 10
2557.87
 20
1267.05
 30
17.00
 42
-0.022216
  0
VERTEX
  8
CONTOUR_D0
 10
2552.58
 20
1147.78
 30
17.00
 42
-0.023248
  0
VERTEX
  8
CONTOUR_D0
 10
2536.88
 20
1032.14
 30
17.00
 42
-0.025474
  0
VERTEX
  8
CONTOUR_D0
 10
2511.25
 20
923.64
 30
17.00
 42
-0.029250
  0
VERTEX
  8
CONTOUR_D0
 10
2476.46
 20
825.57
 30
17.00
 42
-0.035179
  0
VERTEX
  8
CONTOUR_D0
 10
2433.57
 20
740.92
 30
17.00
 42
-0.044133
  0
VERTEX
  8
CONTOUR_D0
 10
2383.89
 20
672.25
 30
17.00
 42
-0.056882
  0
VERTEX
  8
CONTOUR_D0
 10
2328.91
 20
621.65
 30
17.00
 42
-0.072416
  0
VERTEX
  8
CONTOUR_D0
 10
2270.32
 20
590.67
 30
17.00
 42
-0.084763
  0
VERTEX
  8
CONTOUR_D0
 10
2209.90
 20
580.23
 30
17.00
 42
-0.084763
  0
VERTEX
  8
CONTOUR_D0
 10
2149.48
 20
590.67
 30
17.00
 42
-0.072415
  0
VERTEX
  8
CONTOUR_D0
 10
2090.89
 20
621.65
 30
17.00
 42
-0.056882
  0
VERTEX
  8
CONTOUR_D0
 10
2035.91
 20
672.25
 30
17.00
 42
-0.064582
  0
VERTEX
  8
CONTOUR_D0
 10
1986.23
 20
740.92
 30
17.00
 42
-0.049437
  0
VERTEX
  8
CONTOUR_D0
 10
1943.34
 20
825.57
 30
17.00
 42
-0.029250
  0
VERTEX
  8
CONTOUR_D0
 10
1908.55
 20
923.64
 30
17.00
 42
-0.025474
  0
VERTEX
  8
CONTOUR_D0
 10
1882.92
 20
1032.14
 30
17.00
 42
-0.023248
  0
VERTEX
  8
CONTOUR_D0
 10
1867.22
 20
1147.78
 30
17.00
 42
-0.022216
  0
VERTEX
  8
CONTOUR_D0
 10
1861.93
 20
1267.05
 30
17.00
 42
-0.022215
  0
VERTEX
  8
CONTOUR_D0
 10
1867.22
 20
1386.32
 30
17.00
 42
-0.023248
  0
VERTEX
  8
CONTOUR_D0
 10
1882.92
 20
1501.96
 30
17.00
 42
-0.025474
  0
VERTEX
  8
CONTOUR_D0
 10
1908.55
 20
1610.46
 30
17.00
 42
-0.029250
  0
VERTEX
  8
CONTOUR_D0
 10
1943.34
 20
1708.53
 30
17.00
 42
-0.035179
  0
VERTEX
  8
CONTOUR_D0
 10
1986.23
 20
1793.18
 30
17.00
 42
-0.044133
  0
VERTEX
  8
CONTOUR_D0
 10
2035.91
 20
1861.85
 30
17.00
 42
-0.056882
  0
VERTEX
  8
CONTOUR_D0
 10
2090.89
 20
1912.45
 30
17.00
 42
-0.072415
  0
VERTEX
  8
CONTOUR_D0
 10
2149.48
 20
1943.43
 30
17.00
 42
-0.084763
  0
VERTEX
  8
CONTOUR_D0
 10
2209.90
 20
1953.87
 30
17.00
  0
SEQEND
  8
CONTOUR_D0
  0
POLYLINE
  8
CONTOUR_D0
 70
1
 66
1
  0
VERTEX
  8
CONTOUR_D0
 10
1327.00
 20
1953.87
 30
17.00
 42
-0.084763
  0
VERTEX
  8
CONTOUR_D0
 10
1387.42
 20
1943.43
 30
17.00
 42
-0.072416
  0
VERTEX
  8
CONTOUR_D0
 10
1446.01
 20
1912.45
 30
17.00
 42
-0.056882
  0
VERTEX
  8
CONTOUR_D0
 10
1500.99
 20
1861.85
 30
17.00
 42
-0.044133
  0
VERTEX
  8
CONTOUR_D0
 10
1550.67
 20
1793.18
 30
17.00
 42
-0.035179
  0
VERTEX
  8
CONTOUR_D0
 10
1593.56
 20
1708.53
 30
17.00
 42
-0.029250
  0
VERTEX
  8
CONTOUR_D0
 10
1628.35
 20
1610.46
 30
17.00
 42
-0.025474
  0
VERTEX
  8
CONTOUR_D0
 10
1653.98
 20
1501.96
 30
17.00
 42
-0.023248
  0
VERTEX
  8
CONTOUR_D0
 10
1669.68
 20
1386.32
 30
17.00
 42
-0.022215
  0
VERTEX
  8
CONTOUR_D0
 10
1674.97
 20
1267.05
 30
17.00
 42
-0.022216
  0
VERTEX
  8
CONTOUR_D0
 10
1669.68
 20
1147.78
 30
17.00
 42
-0.023248
  0
VERTEX
  8
CONTOUR_D0
 10
1653.98
 20
1032.14
 30
17.00
 42
-0.025474
  0
VERTEX
  8
CONTOUR_D0
 10
1628.35
 20
923.64
 30
17.00
 42
-0.029250
  0
VERTEX
  8
CONTOUR_D0
 10
1593.56
 20
825.57
 30
17.00
 42
-0.035179
  0
VERTEX
  8
CONTOUR_D0
 10
1550.67
 20
740.92
 30
17.00
 42
-0.044133
  0
VERTEX
  8
CONTOUR_D0
 10
1500.99
 20
672.25
 30
17.00
 42
-0.056882
  0
VERTEX
  8
CONTOUR_D0
 10
1446.01
 20
621.65
 30
17.00
 42
-0.072416
  0
VERTEX
  8
CONTOUR_D0
 10
1387.42
 20
590.67
 30
17.00
 42
-0.084763
  0
VERTEX
  8
CONTOUR_D0
 10
1327.00
 20
580.23
 30
17.00
 42
-0.084763
  0
VERTEX
  8
CONTOUR_D0
 10
1266.58
 20
590.67
 30
17.00
 42
-0.072416
  0
VERTEX
  8
CONTOUR_D0
 10
1207.99
 20
621.65
 30
17.00
 42
-0.056882
  0
VERTEX
  8
CONTOUR_D0
 10
1153.01
 20
672.25
 30
17.00
 42
-0.064582
  0
VERTEX
  8
CONTOUR_D0
 10
1103.33
 20
740.92
 30
17.00
 42
-0.049437
  0
VERTEX
  8
CONTOUR_D0
 10
1060.44
 20
825.57
 30
17.00
 42
-0.029250
  0
VERTEX
  8
CONTOUR_D0
 10
1025.65
 20
923.64
 30
17.00
 42
-0.025474
  0
VERTEX
  8
CONTOUR_D0
 10
1000.02
 20
1032.14
 30
17.00
 42
-0.023248
  0
VERTEX
  8
CONTOUR_D0
 10
984.32
 20
1147.78
 30
17.00
 42
-0.022216
  0
VERTEX
  8
CONTOUR_D0
 10
979.03
 20
1267.05
 30
17.00
 42
-0.022215
  0
VERTEX
  8
CONTOUR_D0
 10
984.32
 20
1386.32
 30
17.00
 42
-0.023248
  0
VERTEX
  8
CONTOUR_D0
 10
1000.02
 20
1501.96
 30
17.00
 42
-0.025474
  0
VERTEX
  8
CONTOUR_D0
 10
1025.65
 20
1610.46
 30
17.00
 42
-0.029250
  0
VERTEX
  8
CONTOUR_D0
 10
1060.44
 20
1708.53
 30
17.00
 42
-0.035179
  0
VERTEX
  8
CONTOUR_D0
 10
1103.33
 20
1793.18
 30
17.00
 42
-0.044133
  0
VERTEX
  8
CONTOUR_D0
 10
1153.01
 20
1861.85
 30
17.00
 42
-0.056882
  0
VERTEX
  8
CONTOUR_D0
 10
1207.99
 20
1912.45
 30
17.00
 42
-0.072416
  0
VERTEX
  8
CONTOUR_D0
 10
1266.58
 20
1943.43
 30
17.00
 42
-0.084763
  0
VERTEX
  8
CONTOUR_D0
 10
1327.00
 20
1953.87
 30
17.00
  0
SEQEND
  8
CONTOUR_D0
  0
TEXT
  8
TEXT
 10
316.91
 20
2108.90
 30
18.00
 40
41.00
  1

  0
TEXT
  8
TEXT
 10
332.91
 20
2120.90
 30
18.00
 40
41.00
  1
A
  0
TEXT
  8
TEXT
 10
171.91
 20
1936.90
 30
18.00
 40
41.00
  1
B
  0
TEXT
  8
TEXT
 10
385.91
 20
1890.90
 30
18.00
 40
41.00
  1
C
  0
POLYLINE
  8
CONTOUR_D0
 70
1
 66
1
  0
VERTEX
  8
CONTOUR_D0
 10
444.10
 20
1953.87
 30
17.00
 42
-0.084763
  0
VERTEX
  8
CONTOUR_D0
 10
504.52
 20
1943.43
 30
17.00
 42
-0.072416
  0
VERTEX
  8
CONTOUR_D0
 10
563.11
 20
1912.45
 30
17.00
 42
-0.056882
  0
VERTEX
  8
CONTOUR_D0
 10
618.09
 20
1861.85
 30
17.00
 42
-0.044133
  0
VERTEX
  8
CONTOUR_D0
 10
667.77
 20
1793.18
 30
17.00
 42
-0.035179
  0
VERTEX
  8
CONTOUR_D0
 10
710.66
 20
1708.53
 30
17.00
 42
-0.029250
  0
VERTEX
  8
CONTOUR_D0
 10
745.45
 20
1610.46
 30
17.00
 42
-0.025474
  0
VERTEX
  8
CONTOUR_D0
 10
771.08
 20
1501.96
 30
17.00
 42
-0.023248
  0
VERTEX
  8
CONTOUR_D0
 10
786.78
 20
1386.32
 30
17.00
 42
-0.022215
  0
VERTEX
  8
CONTOUR_D0
 10
792.07
 20
1267.05
 30
17.00
 42
-0.022216
  0
VERTEX
  8
CONTOUR_D0
 10
786.78
 20
1147.78
 30
17.00
 42
-0.023248
  0
VERTEX
  8
CONTOUR_D0
 10
771.08
 20
1032.14
 30
17.00
 42
-0.025474
  0
VERTEX
  8
CONTOUR_D0
 10
745.45
 20
923.64
 30
17.00
 42
-0.029250
  0
VERTEX
  8
CONTOUR_D0
 10
710.66
 20
825.57
 30
17.00
 42
-0.035179
  0
VERTEX
  8
CONTOUR_D0
 10
667.77
 20
740.92
 30
17.00
 42
-0.044133
  0
VERTEX
  8
CONTOUR_D0
 10
618.09
 20
672.25
 30
17.00
 42
-0.056882
  0
VERTEX
  8
CONTOUR_D0
 10
563.11
 20
621.65
 30
17.00
 42
-0.072416
  0
VERTEX
  8
CONTOUR_D0
 10
504.52
 20
590.67
 30
17.00
 42
-0.084763
  0
VERTEX
  8
CONTOUR_D0
 10
444.10
 20
580.23
 30
17.00
 42
-0.084763
  0
VERTEX
  8
CONTOUR_D0
 10
383.68
 20
590.67
 30
17.00
 42
-0.072416
  0
VERTEX
  8
CONTOUR_D0
 10
325.09
 20
621.65
 30
17.00
 42
-0.056882
  0
VERTEX
  8
CONTOUR_D0
 10
270.11
 20
672.25
 30
17.00
 42
-0.064582
  0
VERTEX
  8
CONTOUR_D0
 10
220.43
 20
740.92
 30
17.00
 42
-0.049437
  0
VERTEX
  8
CONTOUR_D0
 10
177.54
 20
825.57
 30
17.00
 42
-0.029250
  0
VERTEX
  8
CONTOUR_D0
 10
142.75
 20
923.64
 30
17.00
 42
-0.025474
  0
VERTEX
  8
CONTOUR_D0
 10
117.12
 20
1032.14
 30
17.00
 42
-0.023248
  0
VERTEX
  8
CONTOUR_D0
 10
101.42
 20
1147.78
 30
17.00
 42
-0.022215
  0
VERTEX
  8
CONTOUR_D0
 10
96.13
 20
1267.05
 30
17.00
 42
-0.022215
  0
VERTEX
  8
CONTOUR_D0
 10
101.42
 20
1386.32
 30
17.00
 42
-0.023248
  0
VERTEX
  8
CONTOUR_D0
 10
117.12
 20
1501.96
 30
17.00
 42
-0.025474
  0
VERTEX
  8
CONTOUR_D0
 10
142.75
 20
1610.46
 30
17.00
 42
-0.029250
  0
VERTEX
  8
CONTOUR_D0
 10
177.54
 20
1708.53
 30
17.00
 42
-0.035179
  0
VERTEX
  8
CONTOUR_D0
 10
220.43
 20
1793.18
 30
17.00
 42
-0.044133
  0
VERTEX
  8
CONTOUR_D0
 10
270.11
 20
1861.85
 30
17.00
 42
-0.056882
  0
VERTEX
  8
CONTOUR_D0
 10
325.09
 20
1912.45
 30
17.00
 42
-0.072416
  0
VERTEX
  8
CONTOUR_D0
 10
383.68
 20
1943.43
 30
17.00
 42
-0.084763
  0
VERTEX
  8
CONTOUR_D0
 10
444.10
 20
1953.87
 30
17.00
  0
SEQEND
  8
CONTOUR_D0
  0
POLYLINE
  8
BORDER_D0_T132_RK1_A0_W0_EM1_RI1_ID0020
 70
1
 66
1
  0
VERTEX
  8
BORDER_D0_T132_RK1_A0_W0_EM1_RI1_ID0020
 10
706.63
 20
143.76
 30
16.50
  0
VERTEX
  8
BORDER_D0_T132_RK1_A0_W0_EM1_RI1_ID0020
 10
952.57
 20
143.76
 30
16.50
 42
-0.106572
  0
VERTEX
  8
BORDER_D0_T132_RK1_A0_W0_EM1_RI1_ID0020
 10
948.83
 20
126.79
 30
16.50
 42
-0.081329
  0
VERTEX
  8
BORDER_D0_T132_RK1_A0_W0_EM1_RI1_ID0020
 10
937.74
 20
110.33
 30
16.50
 42
-0.056348
  0
VERTEX
  8
BORDER_D0_T132_RK1_A0_W0_EM1_RI1_ID0020
 10
919.62
 20
94.89
 30
16.50
 42
-0.039882
  0
VERTEX
  8
BORDER_D0_T132_RK1_A0_W0_EM1_RI1_ID0020
 10
895.03
 20
80.93
 30
16.50
 42
-0.029934
  0
VERTEX
  8
BORDER_D0_T132_RK1_A0_W0_EM1_RI1_ID0020
 10
864.72
 20
68.89
 30
16.50
 42
-0.023970
  0
VERTEX
  8
BORDER_D0_T132_RK1_A0_W0_EM1_RI1_ID0020
 10
829.60
 20
59.12
 30
16.50
 42
-0.020392
  0
VERTEX
  8
BORDER_D0_T132_RK1_A0_W0_EM1_RI1_ID0020
 10
790.75
 20
51.91
 30
16.50
 42
-0.018360
  0
VERTEX
  8
BORDER_D0_T132_RK1_A0_W0_EM1_RI1_ID0020
 10
749.34
 20
47.51
 30
16.50
 42
-0.017437
  0
VERTEX
  8
BORDER_D0_T132_RK1_A0_W0_EM1_RI1_ID0020
 10
706.63
 20
46.02
 30
16.50
 42
-0.017437
  0
VERTEX
  8
BORDER_D0_T132_RK1_A0_W0_EM1_RI1_ID0020
 10
663.92
 20
47.51
 30
16.50
 42
-0.018360
  0
VERTEX
  8
BORDER_D0_T132_RK1_A0_W0_EM1_RI1_ID0020
 10
622.51
 20
51.91
 30
16.50
 42
-0.020392
  0
VERTEX
  8
BORDER_D0_T132_RK1_A0_W0_EM1_RI1_ID0020
 10
583.66
 20
59.12
 30
16.50
 42
-0.023970
  0
VERTEX
  8
BORDER_D0_T132_RK1_A0_W0_EM1_RI1_ID0020
 10
548.54
 20
68.89
 30
16.50
 42
-0.029934
  0
VERTEX
  8
BORDER_D0_T132_RK1_A0_W0_EM1_RI1_ID0020
 10
518.23
 20
80.93
 30
16.50
 42
-0.039882
  0
VERTEX
  8
BORDER_D0_T132_RK1_A0_W0_EM1_RI1_ID0020
 10
493.64
 20
94.89
 30
16.50
 42
-0.056349
  0
VERTEX
  8
BORDER_D0_T132_RK1_A0_W0_EM1_RI1_ID0020
 10
475.52
 20
110.33
 30
16.50
 42
-0.081329
  0
VERTEX
  8
BORDER_D0_T132_RK1_A0_W0_EM1_RI1_ID0020
 10
464.43
 20
126.79
 30
16.50
 42
-0.106572
  0
VERTEX
  8
BORDER_D0_T132_RK1_A0_W0_EM1_RI1_ID0020
 10
460.69
 20
143.76
 30
16.50
  0
VERTEX
  8
BORDER_D0_T132_RK1_A0_W0_EM1_RI1_ID0020
 10
706.63
 20
143.76
 30
16.50
  0
SEQEND
  8
BORDER_D0_T132_RK1_A0_W0_EM1_RI1_ID0020
  0
POLYLINE
  8
BORDER_D0_T132_RK1_A0_W0_EM1_RI1_ID0020
 70
1
 66
1
  0
VERTEX
  8
BORDER_D0_T132_RK1_A0_W0_EM1_RI1_ID0020
 10
255.94
 20
158.46
 30
16.50
  0
VERTEX
  8
BORDER_D0_T132_RK1_A0_W0_EM1_RI1_ID0020
 10
10.00
 20
158.46
 30
16.50
 42
-0.106572
  0
VERTEX
  8
BORDER_D0_T132_RK1_A0_W0_EM1_RI1_ID0020
 10
13.74
 20
175.43
 30
16.50
 42
-0.081329
  0
VERTEX
  8
BORDER_D0_T132_RK1_A0_W0_EM1_RI1_ID0020
 10
24.83
 20
191.89
 30
16.50
 42
-0.056349
  0
VERTEX
  8
BORDER_D0_T132_RK1_A0_W0_EM1_RI1_ID0020
 10
42.95
 20
207.33
 30
16.50
 42
-0.039882
  0
VERTEX
  8
BORDER_D0_T132_RK1_A0_W0_EM1_RI1_ID0020
 10
67.54
 20
221.29
 30
16.50
 42
-0.029934
  0
VERTEX
  8
BORDER_D0_T132_RK1_A0_W0_EM1_RI1_ID0020
 10
97.85
 20
233.33
 30
16.50
 42
-0.023970
  0
VERTEX
  8
BORDER_D0_T132_RK1_A0_W0_EM1_RI1_ID0020
 10
132.97
 20
243.10
 30
16.50
 42
-0.020392
  0
VERTEX
  8
BORDER_D0_T132_RK1_A0_W0_EM1_RI1_ID0020
 10
171.82
 20
250.31
 30
16.50
 42
-0.018360
  0
VERTEX
  8
BORDER_D0_T132_RK1_A0_W0_EM1_RI1_ID0020
 10
213.23
 20
254.71
 30
16.50
 42
-0.017437
  0
VERTEX
  8
BORDER_D0_T132_RK1_A0_W0_EM1_RI1_ID0020
 10
255.94
 20
256.20
 30
16.50
 42
-0.017437
  0
VERTEX
  8
BORDER_D0_T132_RK1_A0_W0_EM1_RI1_ID0020
 10
298.65
 20
254.71
 30
16.50
 42
-0.018360
  0
VERTEX
  8
BORDER_D0_T132_RK1_A0_W0_EM1_RI1_ID0020
 10
340.06
 20
250.31
 30
16.50
 42
-0.020392
  0
VERTEX
  8
BORDER_D0_T132_RK1_A0_W0_EM1_RI1_ID0020
 10
378.91
 20
243.10
 30
16.50
 42
-0.023970
  0
VERTEX
  8
BORDER_D0_T132_RK1_A0_W0_EM1_RI1_ID0020
 10
414.03
 20
233.33
 30
16.50
 42
-0.029934
  0
VERTEX
  8
BORDER_D0_T132_RK1_A0_W0_EM1_RI1_ID0020
 10
444.34
 20
221.29
 30
16.50
 42
-0.039882
  0
VERTEX
  8
BORDER_D0_T132_RK1_A0_W0_EM1_RI1_ID0020
 10
468.93
 20
207.33
 30
16.50
 42
-0.056349
  0
VERTEX
  8
BORDER_D0_T132_RK1_A0_W0_EM1_RI1_ID0020
 10
487.05
 20
191.89
 30
16.50
 42
-0.081329
  0
VERTEX
  8
BORDER_D0_T132_RK1_A0_W0_EM1_RI1_ID0020
 10
498.14
 20
175.43
 30
16.50
 42
-0.106572
  0
VERTEX
  8
BORDER_D0_T132_RK1_A0_W0_EM1_RI1_ID0020
 10
501.88
 20
158.46
 30
16.50
  0
VERTEX
  8
BORDER_D0_T132_RK1_A0_W0_EM1_RI1_ID0020
 10
255.94
 20
158.46
 30
16.50
  0
SEQEND
  8
BORDER_D0_T132_RK1_A0_W0_EM1_RI1_ID0020
  0
POLYLINE
  8
BORDER_D0_T132_RK1_A0_W0_EM1_RI1_ID0020
 70
1
 66
1
  0
VERTEX
  8
BORDER_D0_T132_RK1_A0_W0_EM1_RI1_ID0020
 10
255.94
 20
46.02
 30
16.50
  0
VERTEX
  8
BORDER_D0_T132_RK1_A0_W0_EM1_RI1_ID0020
 10
10.00
 20
46.02
 30
16.50
 42
-0.106572
  0
VERTEX
  8
BORDER_D0_T132_RK1_A0_W0_EM1_RI1_ID0020
 10
13.74
 20
62.99
 30
16.50
 42
-0.081329
  0
VERTEX
  8
BORDER_D0_T132_RK1_A0_W0_EM1_RI1_ID0020
 10
24.83
 20
79.45
 30
16.50
 42
-0.056349
  0
VERTEX
  8
BORDER_D0_T132_RK1_A0_W0_EM1_RI1_ID0020
 10
42.95
 20
94.89
 30
16.50
 42
-0.039882
  0
VERTEX
  8
BORDER_D0_T132_RK1_A0_W0_EM1_RI1_ID0020
 10
67.54
 20
108.85
 30
16.50
 42
-0.029934
  0
VERTEX
  8
BORDER_D0_T132_RK1_A0_W0_EM1_RI1_ID0020
 10
97.85
 20
120.89
 30
16.50
 42
-0.023970
  0
VERTEX
  8
BORDER_D0_T132_RK1_A0_W0_EM1_RI1_ID0020
 10
132.97
 20
130.66
 30
16.50
 42
-0.020392
  0
VERTEX
  8
BORDER_D0_T132_RK1_A0_W0_EM1_RI1_ID0020
 10
171.82
 20
137.87
 30
16.50
 42
-0.018360
  0
VERTEX
  8
BORDER_D0_T132_RK1_A0_W0_EM1_RI1_ID0020
 10
213.23
 20
142.27
 30
16.50
 42
-0.017437
  0
VERTEX
  8
BORDER_D0_T132_RK1_A0_W0_EM1_RI1_ID0020
 10
255.94
 20
143.76
 30
16.50
 42
-0.017437
  0
VERTEX
  8
BORDER_D0_T132_RK1_A0_W0_EM1_RI1_ID0020
 10
298.65
 20
142.27
 30
16.50
 42
-0.018360
  0
VERTEX
  8
BORDER_D0_T132_RK1_A0_W0_EM1_RI1_ID0020
 10
340.06
 20
137.87
 30
16.50
 42
-0.020392
  0
VERTEX
  8
BORDER_D0_T132_RK1_A0_W0_EM1_RI1_ID0020
 10
378.91
 20
130.66
 30
16.50
 42
-0.023970
  0
VERTEX
  8
BORDER_D0_T132_RK1_A0_W0_EM1_RI1_ID0020
 10
414.03
 20
120.89
 30
16.50
 42
-0.029934
  0
VERTEX
  8
BORDER_D0_T132_RK1_A0_W0_EM1_RI1_ID0020
 10
444.34
 20
108.85
 30
16.50
 42
-0.039882
  0
VERTEX
  8
BORDER_D0_T132_RK1_A0_W0_EM1_RI1_ID0020
 10
468.93
 20
94.89
 30
16.50
 42
-0.056349
  0
VERTEX
  8
BORDER_D0_T132_RK1_A0_W0_EM1_RI1_ID0020
 10
487.05
 20
79.45
 30
16.50
 42
-0.081329
  0
VERTEX
  8
BORDER_D0_T132_RK1_A0_W0_EM1_RI1_ID0020
 10
498.14
 20
62.99
 30
16.50
 42
-0.106572
  0
VERTEX
  8
BORDER_D0_T132_RK1_A0_W0_EM1_RI1_ID0020
 10
501.88
 20
46.02
 30
16.50
  0
VERTEX
  8
BORDER_D0_T132_RK1_A0_W0_EM1_RI1_ID0020
 10
255.94
 20
46.02
 30
16.50
  0
SEQEND
  8
BORDER_D0_T132_RK1_A0_W0_EM1_RI1_ID0020
  0
POLYLINE
  8
BORDER_D0_T132_RK1_A0_W0_EM1_RI1_ID0027
 70
1
 66
1
  0
VERTEX
  8
BORDER_D0_T132_RK1_A0_W0_EM1_RI1_ID0027
 10
637.78
 20
308.66
 30
16.50
  0
VERTEX
  8
BORDER_D0_T132_RK1_A0_W0_EM1_RI1_ID0027
 10
1309.11
 20
308.66
 30
16.50
  0
VERTEX
  8
BORDER_D0_T132_RK1_A0_W0_EM1_RI1_ID0027
 10
1309.11
 20
227.94
 30
16.50
  0
VERTEX
  8
BORDER_D0_T132_RK1_A0_W0_EM1_RI1_ID0027
 10
637.78
 20
227.94
 30
16.50
 42
-0.220733
  0
VERTEX
  8
BORDER_D0_T132_RK1_A0_W0_EM1_RI1_ID0027
 10
10.00
 20
487.98
 30
16.50
  0
VERTEX
  8
BORDER_D0_T132_RK1_A0_W0_EM1_RI1_ID0027
 10
67.07
 20
545.05
 30
16.50
 42
0.198913
  0
VERTEX
  8
BORDER_D0_T132_RK1_A0_W0_EM1_RI1_ID0027
 10
637.78
 20
308.66
 30
16.50
  0
SEQEND
  8
BORDER_D0_T132_RK1_A0_W0_EM1_RI1_ID0027
  0
POLYLINE
  8
BORDER_D0_T132_RK1_A0_W0_EM1_RI1_ID0027
 70
1
 66
1
  0
VERTEX
  8
BORDER_D0_T132_RK1_A0_W0_EM1_RI1_ID0027
 10
637.78
 20
441.86
 30
16.50
  0
VERTEX
  8
BORDER_D0_T132_RK1_A0_W0_EM1_RI1_ID0027
 10
1309.11
 20
441.86
 30
16.50
  0
VERTEX
  8
BORDER_D0_T132_RK1_A0_W0_EM1_RI1_ID0027
 10
1309.11
 20
361.14
 30
16.50
  0
VERTEX
  8
BORDER_D0_T132_RK1_A0_W0_EM1_RI1_ID0027
 10
637.78
 20
361.14
 30
16.50
 42
-0.220733
  0
VERTEX
  8
BORDER_D0_T132_RK1_A0_W0_EM1_RI1_ID0027
 10
10.00
 20
621.18
 30
16.50
  0
VERTEX
  8
BORDER_D0_T132_RK1_A0_W0_EM1_RI1_ID0027
 10
67.07
 20
678.25
 30
16.50
 42
0.198913
  0
VERTEX
  8
BORDER_D0_T132_RK1_A0_W0_EM1_RI1_ID0027
 10
637.78
 20
441.86
 30
16.50
  0
SEQEND
  8
BORDER_D0_T132_RK1_A0_W0_EM1_RI1_ID0027
  0
POLYLINE
  8
BORDER_D0_T132_RK1_A0_W0_EM1_RI1_ID0007
 70
1
 66
1
  0
VERTEX
  8
BORDER_D0_T132_RK1_A0_W0_EM1_RI1_ID0007
 10
869.74
 20
629.57
 30
16.50
  0
VERTEX
  8
BORDER_D0_T132_RK1_A0_W0_EM1_RI1_ID0007
 10
847.79
 20
697.10
 30
16.50
  0
VERTEX
  8
BORDER_D0_T132_RK1_A0_W0_EM1_RI1_ID0007
 10
776.78
 20
697.10
 30
16.50
  0
VERTEX
  8
BORDER_D0_T132_RK1_A0_W0_EM1_RI1_ID0007
 10
834.23
 20
738.84
 30
16.50
  0
VERTEX
  8
BORDER_D0_T132_RK1_A0_W0_EM1_RI1_ID0007
 10
812.29
 20
806.38
 30
16.50
  0
VERTEX
  8
BORDER_D0_T132_RK1_A0_W0_EM1_RI1_ID0007
 10
869.74
 20
764.64
 30
16.50
  0
VERTEX
  8
BORDER_D0_T132_RK1_A0_W0_EM1_RI1_ID0007
 10
927.19
 20
806.38
 30
16.50
  0
VERTEX
  8
BORDER_D0_T132_RK1_A0_W0_EM1_RI1_ID0007
 10
905.24
 20
738.84
 30
16.50
  0
VERTEX
  8
BORDER_D0_T132_RK1_A0_W0_EM1_RI1_ID0007
 10
962.69
 20
697.10
 30
16.50
  0
VERTEX
  8
BORDER_D0_T132_RK1_A0_W0_EM1_RI1_ID0007
 10
891.68
 20
697.10
 30
16.50
  0
VERTEX
  8
BORDER_D0_T132_RK1_A0_W0_EM1_RI1_ID0007
 10
869.74
 20
629.57
 30
16.50
  0
SEQEND
  8
BORDER_D0_T132_RK1_A0_W0_EM1_RI1_ID0007
  0
POLYLINE
  8
BORDER_D0_T132_RK1_A0_W0_EM1_RI1_ID0020
 70
1
 66
1
  0
VERTEX
  8
BORDER_D0_T132_RK1_A0_W0_EM1_RI1_ID0020
 10
808.59
 20
476.13
 30
16.50
  0
VERTEX
  8
BORDER_D0_T132_RK1_A0_W0_EM1_RI1_ID0020
 10
562.65
 20
476.13
 30
16.50
 42
-0.106572
  0
VERTEX
  8
BORDER_D0_T132_RK1_A0_W0_EM1_RI1_ID0020
 10
566.39
 20
493.10
 30
16.50
 42
-0.081329
  0
VERTEX
  8
BORDER_D0_T132_RK1_A0_W0_EM1_RI1_ID0020
 10
577.48
 20
509.56
 30
16.50
 42
-0.056349
  0
VERTEX
  8
BORDER_D0_T132_RK1_A0_W0_EM1_RI1_ID0020
 10
595.60
 20
525.00
 30
16.50
 42
-0.039882
  0
VERTEX
  8
BORDER_D0_T132_RK1_A0_W0_EM1_RI1_ID0020
 10
620.19
 20
538.96
 30
16.50
 42
-0.029934
  0
VERTEX
  8
BORDER_D0_T132_RK1_A0_W0_EM1_RI1_ID0020
 10
650.50
 20
551.00
 30
16.50
 42
-0.023970
  0
VERTEX
  8
BORDER_D0_T132_RK1_A0_W0_EM1_RI1_ID0020
 10
685.62
 20
560.77
 30
16.50
 42
-0.020392
  0
VERTEX
  8
BORDER_D0_T132_RK1_A0_W0_EM1_RI1_ID0020
 10
724.47
 20
567.98
 30
16.50
 42
-0.018360
  0
VERTEX
  8
BORDER_D0_T132_RK1_A0_W0_EM1_RI1_ID0020
 10
765.88
 20
572.38
 30
16.50
 42
-0.017437
  0
VERTEX
  8
BORDER_D0_T132_RK1_A0_W0_EM1_RI1_ID0020
 10
808.59
 20
573.87
 30
16.50
 42
-0.017437
  0
VERTEX
  8
BORDER_D0_T132_RK1_A0_W0_EM1_RI1_ID0020
 10
851.30
 20
572.38
 30
16.50
 42
-0.018360
  0
VERTEX
  8
BORDER_D0_T132_RK1_A0_W0_EM1_RI1_ID0020
 10
892.71
 20
567.98
 30
16.50
 42
-0.020392
  0
VERTEX
  8
BORDER_D0_T132_RK1_A0_W0_EM1_RI1_ID0020
 10
931.56
 20
560.77
 30
16.50
 42
-0.023970
  0
VERTEX
  8
BORDER_D0_T132_RK1_A0_W0_EM1_RI1_ID0020
 10
966.68
 20
551.00
 30
16.50
 42
-0.029934
  0
VERTEX
  8
BORDER_D0_T132_RK1_A0_W0_EM1_RI1_ID0020
 10
996.99
 20
538.96
 30
16.50
 42
-0.039882
  0
VERTEX
  8
BORDER_D0_T132_RK1_A0_W0_EM1_RI1_ID0020
 10
1021.58
 20
525.00
 30
16.50
 42
-0.056349
  0
VERTEX
  8
BORDER_D0_T132_RK1_A0_W0_EM1_RI1_ID0020
 10
1039.70
 20
509.56
 30
16.50
 42
-0.081330
  0
VERTEX
  8
BORDER_D0_T132_RK1_A0_W0_EM1_RI1_ID0020
 10
1050.79
 20
493.10
 30
16.50
 42
-0.106572
  0
VERTEX
  8
BORDER_D0_T132_RK1_A0_W0_EM1_RI1_ID0020
 10
1054.53
 20
476.13
 30
16.50
  0
VERTEX
  8
BORDER_D0_T132_RK1_A0_W0_EM1_RI1_ID0020
 10
808.59
 20
476.13
 30
16.50
  0
SEQEND
  8
BORDER_D0_T132_RK1_A0_W0_EM1_RI1_ID0020
  0
POLYLINE
  8
BORDER_D0_T132_RK1_A0_W0_EM1_RI1_ID0013
 70
1
 66
1
  0
VERTEX
  8
BORDER_D0_T132_RK1_A0_W0_EM1_RI1_ID0013
 10
1323.81
 20
226.06
 30
16.50
  0
VERTEX
  8
BORDER_D0_T132_RK1_A0_W0_EM1_RI1_ID0013
 10
1323.81
 20
250.64
 30
16.50
 42
-0.333267
  0
VERTEX
  8
BORDER_D0_T132_RK1_A0_W0_EM1_RI1_ID0013
 10
1519.29
 20
250.64
 30
16.50
  0
VERTEX
  8
BORDER_D0_T132_RK1_A0_W0_EM1_RI1_ID0013
 10
1519.29
 20
201.48
 30
16.50
 42
0.469338
  0
VERTEX
  8
BORDER_D0_T132_RK1_A0_W0_EM1_RI1_ID0013
 10
1323.81
 20
201.48
 30
16.50
  0
VERTEX
  8
BORDER_D0_T132_RK1_A0_W0_EM1_RI1_ID0013
 10
1323.81
 20
226.06
 30
16.50
  0
SEQEND
  8
BORDER_D0_T132_RK1_A0_W0_EM1_RI1_ID0013
  0
POLYLINE
  8
BORDER_D0_T132_RK1_A0_W0_EM1_RI1_ID0020
 70
1
 66
1
  0
VERTEX
  8
BORDER_D0_T132_RK1_A0_W0_EM1_RI1_ID0020
 10
1188.51
 20
77.34
 30
16.50
  0
VERTEX
  8
BORDER_D0_T132_RK1_A0_W0_EM1_RI1_ID0020
 10
942.57
 20
77.34
 30
16.50
 42
-0.106572
  0
VERTEX
  8
BORDER_D0_T132_RK1_A0_W0_EM1_RI1_ID0020
 10
946.31
 20
94.31
 30
16.50
 42
-0.081329
  0
VERTEX
  8
BORDER_D0_T132_RK1_A0_W0_EM1_RI1_ID0020
 10
957.40
 20
110.77
 30
16.50
 42
-0.056348
  0
VERTEX
  8
BORDER_D0_T132_RK1_A0_W0_EM1_RI1_ID0020
 10
975.52
 20
126.21
 30
16.50
 42
-0.039882
  0
VERTEX
  8
BORDER_D0_T132_RK1_A0_W0_EM1_RI1_ID0020
 10
1000.11
 20
140.17
 30
16.50
 42
-0.029934
  0
VERTEX
  8
BORDER_D0_T132_RK1_A0_W0_EM1_RI1_ID0020
 10
1030.42
 20
152.21
 30
16.50
 42
-0.023970
  0
VERTEX
  8
BORDER_D0_T132_RK1_A0_W0_EM1_RI1_ID0020
 10
1065.54
 20
161.98
 30
16.50
 42
-0.020392
  0
VERTEX
  8
BORDER_D0_T132_RK1_A0_W0_EM1_RI1_ID0020
 10
1104.39
 20
169.19
 30
16.50
 42
-0.018360
  0
VERTEX
  8
BORDER_D0_T132_RK1_A0_W0_EM1_RI1_ID0020
 10
1145.80
 20
173.59
 30
16.50
 42
-0.017437
  0
VERTEX
  8
BORDER_D0_T132_RK1_A0_W0_EM1_RI1_ID0020
 10
1188.51
 20
175.08
 30
16.50
 42
-0.017437
  0
VERTEX
  8
BORDER_D0_T132_RK1_A0_W0_EM1_RI1_ID0020
 10
1231.22
 20
173.59
 30
16.50
 42
-0.018360
  0
VERTEX
  8
BORDER_D0_T132_RK1_A0_W0_EM1_RI1_ID0020
 10
1272.63
 20
169.19
 30
16.50
 42
-0.020392
  0
VERTEX
  8
BORDER_D0_T132_RK1_A0_W0_EM1_RI1_ID0020
 10
1311.48
 20
161.98
 30
16.50
 42
-0.023970
  0
VERTEX
  8
BORDER_D0_T132_RK1_A0_W0_EM1_RI1_ID0020
 10
1346.60
 20
152.21
 30
16.50
 42
-0.029934
  0
VERTEX
  8
BORDER_D0_T132_RK1_A0_W0_EM1_RI1_ID0020
 10
1376.91
 20
140.17
 30
16.50
 42
-0.039882
  0
VERTEX
  8
BORDER_D0_T132_RK1_A0_W0_EM1_RI1_ID0020
 10
1401.50
 20
126.21
 30
16.50
 42
-0.056349
  0
VERTEX
  8
BORDER_D0_T132_RK1_A0_W0_EM1_RI1_ID0020
 10
1419.62
 20
110.77
 30
16.50
 42
-0.081329
  0
VERTEX
  8
BORDER_D0_T132_RK1_A0_W0_EM1_RI1_ID0020
 10
1430.71
 20
94.31
 30
16.50
 42
-0.106572
  0
VERTEX
  8
BORDER_D0_T132_RK1_A0_W0_EM1_RI1_ID0020
 10
1434.45
 20
77.34
 30
16.50
  0
VERTEX
  8
BORDER_D0_T132_RK1_A0_W0_EM1_RI1_ID0020
 10
1188.51
 20
77.34
 30
16.50
  0
SEQEND
  8
BORDER_D0_T132_RK1_A0_W0_EM1_RI1_ID0020
  0
POLYLINE
  8
BORDER_D0_T132_RK1_A0_W0_EM1_RI1_ID0020
 70
1
 66
1
  0
VERTEX
  8
BORDER_D0_T132_RK1_A0_W0_EM1_RI1_ID0020
 10
2141.88
 20
151.67
 30
16.50
  0
VERTEX
  8
BORDER_D0_T132_RK1_A0_W0_EM1_RI1_ID0020
 10
2387.82
 20
151.67
 30
16.50
 42
-0.106572
  0
VERTEX
  8
BORDER_D0_T132_RK1_A0_W0_EM1_RI1_ID0020
 10
2384.08
 20
134.70
 30
16.50
 42
-0.081330
  0
VERTEX
  8
BORDER_D0_T132_RK1_A0_W0_EM1_RI1_ID0020
 10
2372.99
 20
118.24
 30
16.50
 42
-0.056348
  0
VERTEX
  8
BORDER_D0_T132_RK1_A0_W0_EM1_RI1_ID0020
 10
2354.87
 20
102.80
 30
16.50
 42
-0.039883
  0
VERTEX
  8
BORDER_D0_T132_RK1_A0_W0_EM1_RI1_ID0020
 10
2330.28
 20
88.84
 30
16.50
 42
-0.029934
  0
VERTEX
  8
BORDER_D0_T132_RK1_A0_W0_EM1_RI1_ID0020
 10
2299.97
 20
76.80
 30
16.50
 42
-0.023970
  0
VERTEX
  8
BORDER_D0_T132_RK1_A0_W0_EM1_RI1_ID0020
 10
2264.85
 20
67.03
 30
16.50
 42
-0.020392
  0
VERTEX
  8
BORDER_D0_T132_RK1_A0_W0_EM1_RI1_ID0020
 10
2226.00
 20
59.82
 30
16.50
 42
-0.018360
  0
VERTEX
  8
BORDER_D0_T132_RK1_A0_W0_EM1_RI1_ID0020
 10
2184.59
 20
55.42
 30
16.50
 42
-0.017437
  0
VERTEX
  8
BORDER_D0_T132_RK1_A0_W0_EM1_RI1_ID0020
 10
2141.88
 20
53.93
 30
16.50
 42
-0.017437
  0
VERTEX
  8
BORDER_D0_T132_RK1_A0_W0_EM1_RI1_ID0020
 10
2099.17
 20
55.42
 30
16.50
 42
-0.018360
  0
VERTEX
  8
BORDER_D0_T132_RK1_A0_W0_EM1_RI1_ID0020
 10
2057.76
 20
59.82
 30
16.50
 42
-0.020392
  0
VERTEX
  8
BORDER_D0_T132_RK1_A0_W0_EM1_RI1_ID0020
 10
2018.91
 20
67.03
 30
16.50
 42
-0.023970
  0
VERTEX
  8
BORDER_D0_T132_RK1_A0_W0_EM1_RI1_ID0020
 10
1983.79
 20
76.80
 30
16.50
 42
-0.029934
  0
VERTEX
  8
BORDER_D0_T132_RK1_A0_W0_EM1_RI1_ID0020
 10
1953.48
 20
88.84
 30
16.50
 42
-0.039882
  0
VERTEX
  8
BORDER_D0_T132_RK1_A0_W0_EM1_RI1_ID0020
 10
1928.89
 20
102.80
 30
16.50
 42
-0.056349
  0
VERTEX
  8
BORDER_D0_T132_RK1_A0_W0_EM1_RI1_ID0020
 10
1910.77
 20
118.24
 30
16.50
 42
-0.081329
  0
VERTEX
  8
BORDER_D0_T132_RK1_A0_W0_EM1_RI1_ID0020
 10
1899.68
 20
134.70
 30
16.50
 42
-0.106572
  0
VERTEX
  8
BORDER_D0_T132_RK1_A0_W0_EM1_RI1_ID0020
 10
1895.94
 20
151.67
 30
16.50
  0
VERTEX
  8
BORDER_D0_T132_RK1_A0_W0_EM1_RI1_ID0020
 10
2141.88
 20
151.67
 30
16.50
  0
SEQEND
  8
BORDER_D0_T132_RK1_A0_W0_EM1_RI1_ID0020
  0
POLYLINE
  8
BORDER_D0_T132_RK1_A0_W0_EM1_RI1_ID0020
 70
1
 66
1
  0
VERTEX
  8
BORDER_D0_T132_RK1_A0_W0_EM1_RI1_ID0020
 10
1691.21
 20
53.90
 30
16.50
  0
VERTEX
  8
BORDER_D0_T132_RK1_A0_W0_EM1_RI1_ID0020
 10
1445.27
 20
53.90
 30
16.50
 42
-0.106572
  0
VERTEX
  8
BORDER_D0_T132_RK1_A0_W0_EM1_RI1_ID0020
 10
1449.01
 20
70.87
 30
16.50
 42
-0.081329
  0
VERTEX
  8
BORDER_D0_T132_RK1_A0_W0_EM1_RI1_ID0020
 10
1460.10
 20
87.33
 30
16.50
 42
-0.056348
  0
VERTEX
  8
BORDER_D0_T132_RK1_A0_W0_EM1_RI1_ID0020
 10
1478.22
 20
102.77
 30
16.50
 42
-0.039882
  0
VERTEX
  8
BORDER_D0_T132_RK1_A0_W0_EM1_RI1_ID0020
 10
1502.81
 20
116.73
 30
16.50
 42
-0.029934
  0
VERTEX
  8
BORDER_D0_T132_RK1_A0_W0_EM1_RI1_ID0020
 10
1533.12
 20
128.77
 30
16.50
 42
-0.023970
  0
VERTEX
  8
BORDER_D0_T132_RK1_A0_W0_EM1_RI1_ID0020
 10
1568.24
 20
138.54
 30
16.50
 42
-0.020392
  0
VERTEX
  8
BORDER_D0_T132_RK1_A0_W0_EM1_RI1_ID0020
 10
1607.09
 20
145.75
 30
16.50
 42
-0.018360
  0
VERTEX
  8
BORDER_D0_T132_RK1_A0_W0_EM1_RI1_ID0020
 10
1648.50
 20
150.15
 30
16.50
 42
-0.017437
  0
VERTEX
  8
BORDER_D0_T132_RK1_A0_W0_EM1_RI1_ID0020
 10
1691.21
 20
151.64
 30
16.50
 42
-0.017437
  0
VERTEX
  8
BORDER_D0_T132_RK1_A0_W0_EM1_RI1_ID0020
 10
1733.92
 20
150.15
 30
16.50
 42
-0.018360
  0
VERTEX
  8
BORDER_D0_T132_RK1_A0_W0_EM1_RI1_ID0020
 10
1775.33
 20
145.75
 30
16.50
 42
-0.020392
  0
VERTEX
  8
BORDER_D0_T132_RK1_A0_W0_EM1_RI1_ID0020
 10
1814.18
 20
138.54
 30
16.50
 42
-0.023970
  0
VERTEX
  8
BORDER_D0_T132_RK1_A0_W0_EM1_RI1_ID0020
 10
1849.30
 20
128.77
 30
16.50
 42
-0.029934
  0
VERTEX
  8
BORDER_D0_T132_RK1_A0_W0_EM1_RI1_ID0020
 10
1879.61
 20
116.73
 30
16.50
 42
-0.039882
  0
VERTEX
  8
BORDER_D0_T132_RK1_A0_W0_EM1_RI1_ID0020
 10
1904.20
 20
102.77
 30
16.50
 42
-0.056349
  0
VERTEX
  8
BORDER_D0_T132_RK1_A0_W0_EM1_RI1_ID0020
 10
1922.32
 20
87.33
 30
16.50
 42
-0.081329
  0
VERTEX
  8
BORDER_D0_T132_RK1_A0_W0_EM1_RI1_ID0020
 10
1933.41
 20
70.87
 30
16.50
 42
-0.106572
  0
VERTEX
  8
BORDER_D0_T132_RK1_A0_W0_EM1_RI1_ID0020
 10
1937.15
 20
53.90
 30
16.50
  0
VERTEX
  8
BORDER_D0_T132_RK1_A0_W0_EM1_RI1_ID0020
 10
1691.21
 20
53.90
 30
16.50
  0
SEQEND
  8
BORDER_D0_T132_RK1_A0_W0_EM1_RI1_ID0020
  0
POLYLINE
  8
BORDER_D0_T132_RK1_A0_W0_EM1_RI1_ID0027
 70
1
 66
1
  0
VERTEX
  8
BORDER_D0_T132_RK1_A0_W0_EM1_RI1_ID0027
 10
1951.71
 20
247.79
 30
16.50
  0
VERTEX
  8
BORDER_D0_T132_RK1_A0_W0_EM1_RI1_ID0027
 10
2623.04
 20
247.79
 30
16.50
  0
VERTEX
  8
BORDER_D0_T132_RK1_A0_W0_EM1_RI1_ID0027
 10
2623.04
 20
167.07
 30
16.50
  0
VERTEX
  8
BORDER_D0_T132_RK1_A0_W0_EM1_RI1_ID0027
 10
1951.71
 20
167.07
 30
16.50
 42
-0.220733
  0
VERTEX
  8
BORDER_D0_T132_RK1_A0_W0_EM1_RI1_ID0027
 10
1323.93
 20
427.11
 30
16.50
  0
VERTEX
  8
BORDER_D0_T132_RK1_A0_W0_EM1_RI1_ID0027
 10
1381.00
 20
484.18
 30
16.50
 42
0.198913
  0
VERTEX
  8
BORDER_D0_T132_RK1_A0_W0_EM1_RI1_ID0027
 10
1951.71
 20
247.79
 30
16.50
  0
SEQEND
  8
BORDER_D0_T132_RK1_A0_W0_EM1_RI1_ID0027
  0
POLYLINE
  8
BORDER_D0_T132_RK1_A0_W0_EM1_RI1_ID0021
 70
1
 66
1
  0
VERTEX
  8
BORDER_D0_T132_RK1_A0_W0_EM1_RI1_ID0021
 10
1935.71
 20
475.00
 30
16.50
 42
-0.106572
  0
VERTEX
  8
BORDER_D0_T132_RK1_A0_W0_EM1_RI1_ID0021
 10
1931.97
 20
458.03
 30
16.50
 42
-0.081329
  0
VERTEX
  8
BORDER_D0_T132_RK1_A0_W0_EM1_RI1_ID0021
 10
1920.88
 20
441.57
 30
16.50
 42
-0.056349
  0
VERTEX
  8
BORDER_D0_T132_RK1_A0_W0_EM1_RI1_ID0021
 10
1902.76
 20
426.13
 30
16.50
 42
-0.039882
  0
VERTEX
  8
BORDER_D0_T132_RK1_A0_W0_EM1_RI1_ID0021
 10
1878.17
 20
412.17
 30
16.50
 42
-0.029934
  0
VERTEX
  8
BORDER_D0_T132_RK1_A0_W0_EM1_RI1_ID0021
 10
1847.86
 20
400.13
 30
16.50
 42
-0.023970
  0
VERTEX
  8
BORDER_D0_T132_RK1_A0_W0_EM1_RI1_ID0021
 10
1812.74
 20
390.36
 30
16.50
 42
-0.020392
  0
VERTEX
  8
BORDER_D0_T132_RK1_A0_W0_EM1_RI1_ID0021
 10
1773.89
 20
383.15
 30
16.50
 42
-0.018360
  0
VERTEX
  8
BORDER_D0_T132_RK1_A0_W0_EM1_RI1_ID0021
 10
1732.48
 20
378.75
 30
16.50
 42
-0.017437
  0
VERTEX
  8
BORDER_D0_T132_RK1_A0_W0_EM1_RI1_ID0021
 10
1689.77
 20
377.26
 30
16.50
 42
-0.017437
  0
VERTEX
  8
BORDER_D0_T132_RK1_A0_W0_EM1_RI1_ID0021
 10
1647.06
 20
378.75
 30
16.50
 42
-0.018360
  0
VERTEX
  8
BORDER_D0_T132_RK1_A0_W0_EM1_RI1_ID0021
 10
1605.65
 20
383.15
 30
16.50
 42
-0.020392
  0
VERTEX
  8
BORDER_D0_T132_RK1_A0_W0_EM1_RI1_ID0021
 10
1566.80
 20
390.36
 30
16.50
 42
-0.023970
  0
VERTEX
  8
BORDER_D0_T132_RK1_A0_W0_EM1_RI1_ID0021
 10
1531.68
 20
400.13
 30
16.50
 42
-0.029934
  0
VERTEX
  8
BORDER_D0_T132_RK1_A0_W0_EM1_RI1_ID0021
 10
1501.37
 20
412.17
 30
16.50
 42
-0.039882
  0
VERTEX
  8
BORDER_D0_T132_RK1_A0_W0_EM1_RI1_ID0021
 10
1476.78
 20
426.13
 30
16.50
 42
-0.056349
  0
VERTEX
  8
BORDER_D0_T132_RK1_A0_W0_EM1_RI1_ID0021
 10
1458.66
 20
441.57
 30
16.50
 42
-0.081329
  0
VERTEX
  8
BORDER_D0_T132_RK1_A0_W0_EM1_RI1_ID0021
 10
1447.57
 20
458.03
 30
16.50
 42
-0.106572
  0
VERTEX
  8
BORDER_D0_T132_RK1_A0_W0_EM1_RI1_ID0021
 10
1443.83
 20
475.00
 30
16.50
 42
-0.106572
  0
VERTEX
  8
BORDER_D0_T132_RK1_A0_W0_EM1_RI1_ID0021
 10
1447.57
 20
491.97
 30
16.50
 42
-0.081329
  0
VERTEX
  8
BORDER_D0_T132_RK1_A0_W0_EM1_RI1_ID0021
 10
1458.66
 20
508.43
 30
16.50
 42
-0.056349
  0
VERTEX
  8
BORDER_D0_T132_RK1_A0_W0_EM1_RI1_ID0021
 10
1476.78
 20
523.87
 30
16.50
 42
-0.039882
  0
VERTEX
  8
BORDER_D0_T132_RK1_A0_W0_EM1_RI1_ID0021
 10
1501.37
 20
537.83
 30
16.50
 42
-0.029934
  0
VERTEX
  8
BORDER_D0_T132_RK1_A0_W0_EM1_RI1_ID0021
 10
1531.68
 20
549.87
 30
16.50
 42
-0.023970
  0
VERTEX
  8
BORDER_D0_T132_RK1_A0_W0_EM1_RI1_ID0021
 10
1566.80
 20
559.64
 30
16.50
 42
-0.020392
  0
VERTEX
  8
BORDER_D0_T132_RK1_A0_W0_EM1_RI1_ID0021
 10
1605.65
 20
566.85
 30
16.50
 42
-0.018360
  0
VERTEX
  8
BORDER_D0_T132_RK1_A0_W0_EM1_RI1_ID0021
 10
1647.06
 20
571.25
 30
16.50
 42
-0.017437
  0
VERTEX
  8
BORDER_D0_T132_RK1_A0_W0_EM1_RI1_ID0021
 10
1689.77
 20
572.74
 30
16.50
 42
-0.017437
  0
VERTEX
  8
BORDER_D0_T132_RK1_A0_W0_EM1_RI1_ID0021
 10
1732.48
 20
571.25
 30
16.50
 42
-0.018360
  0
VERTEX
  8
BORDER_D0_T132_RK1_A0_W0_EM1_RI1_ID0021
 10
1773.89
 20
566.85
 30
16.50
 42
-0.020392
  0
VERTEX
  8
BORDER_D0_T132_RK1_A0_W0_EM1_RI1_ID0021
 10
1812.74
 20
559.64
 30
16.50
 42
-0.023970
  0
VERTEX
  8
BORDER_D0_T132_RK1_A0_W0_EM1_RI1_ID0021
 10
1847.86
 20
549.87
 30
16.50
 42
-0.029934
  0
VERTEX
  8
BORDER_D0_T132_RK1_A0_W0_EM1_RI1_ID0021
 10
1878.17
 20
537.83
 30
16.50
 42
-0.039882
  0
VERTEX
  8
BORDER_D0_T132_RK1_A0_W0_EM1_RI1_ID0021
 10
1902.76
 20
523.87
 30
16.50
 42
-0.056349
  0
VERTEX
  8
BORDER_D0_T132_RK1_A0_W0_EM1_RI1_ID0021
 10
1920.88
 20
508.43
 30
16.50
 42
-0.081329
  0
VERTEX
  8
BORDER_D0_T132_RK1_A0_W0_EM1_RI1_ID0021
 10
1931.97
 20
491.97
 30
16.50
 42
-0.106572
  0
VERTEX
  8
BORDER_D0_T132_RK1_A0_W0_EM1_RI1_ID0021
 10
1935.71
 20
475.00
 30
16.50
  0
SEQEND
  8
BORDER_D0_T132_RK1_A0_W0_EM1_RI1_ID0021
  0
POLYLINE
  8
BORDER_D0_T132_RK1_A0_W0_EM1_RI1_ID0025
 70
1
 66
1
  0
VERTEX
  8
BORDER_D0_T132_RK1_A0_W0_EM1_RI1_ID0025
 10
1747.67
 20
788.41
 30
16.50
  0
VERTEX
  8
BORDER_D0_T132_RK1_A0_W0_EM1_RI1_ID0025
 10
1840.63
 20
720.88
 30
16.50
  0
VERTEX
  8
BORDER_D0_T132_RK1_A0_W0_EM1_RI1_ID0025
 10
1805.12
 20
611.60
 30
16.50
  0
VERTEX
  8
BORDER_D0_T132_RK1_A0_W0_EM1_RI1_ID0025
 10
1690.22
 20
611.60
 30
16.50
  0
VERTEX
  8
BORDER_D0_T132_RK1_A0_W0_EM1_RI1_ID0025
 10
1654.72
 20
720.88
 30
16.50
  0
VERTEX
  8
BORDER_D0_T132_RK1_A0_W0_EM1_RI1_ID0025
 10
1747.67
 20
788.41
 30
16.50
  0
SEQEND
  8
BORDER_D0_T132_RK1_A0_W0_EM1_RI1_ID0025
  0
POLYLINE
  8
BORDER_D0_T132_RK1_A0_W0_EM1_RI1_ID0025
 70
1
 66
1
  0
VERTEX
  8
BORDER_D0_T132_RK1_A0_W0_EM1_RI1_ID0025
 10
2389.88
 20
515.00
 30
16.50
  0
VERTEX
  8
BORDER_D0_T132_RK1_A0_W0_EM1_RI1_ID0025
 10
2457.41
 20
607.96
 30
16.50
  0
VERTEX
  8
BORDER_D0_T132_RK1_A0_W0_EM1_RI1_ID0025
 10
2566.69
 20
572.45
 30
16.50
  0
VERTEX
  8
BORDER_D0_T132_RK1_A0_W0_EM1_RI1_ID0025
 10
2566.69
 20
457.55
 30
16.50
  0
VERTEX
  8
BORDER_D0_T132_RK1_A0_W0_EM1_RI1_ID0025
 10
2457.41
 20
422.05
 30
16.50
  0
VERTEX
  8
BORDER_D0_T132_RK1_A0_W0_EM1_RI1_ID0025
 10
2389.88
 20
515.00
 30
16.50
  0
SEQEND
  8
BORDER_D0_T132_RK1_A0_W0_EM1_RI1_ID0025
  0
POLYLINE
  8
BORDER_D0_T132_RK1_A0_W0_EM1_RI1_ID0021
 70
1
 66
1
  0
VERTEX
  8
BORDER_D0_T132_RK1_A0_W0_EM1_RI1_ID0021
 10
2389.89
 20
380.00
 30
16.50
 42
-0.106572
  0
VERTEX
  8
BORDER_D0_T132_RK1_A0_W0_EM1_RI1_ID0021
 10
2386.15
 20
363.03
 30
16.50
 42
-0.081329
  0
VERTEX
  8
BORDER_D0_T132_RK1_A0_W0_EM1_RI1_ID0021
 10
2375.06
 20
346.57
 30
16.50
 42
-0.056349
  0
VERTEX
  8
BORDER_D0_T132_RK1_A0_W0_EM1_RI1_ID0021
 10
2356.94
 20
331.13
 30
16.50
 42
-0.039882
  0
VERTEX
  8
BORDER_D0_T132_RK1_A0_W0_EM1_RI1_ID0021
 10
2332.35
 20
317.17
 30
16.50
 42
-0.029934
  0
VERTEX
  8
BORDER_D0_T132_RK1_A0_W0_EM1_RI1_ID0021
 10
2302.04
 20
305.13
 30
16.50
 42
-0.023970
  0
VERTEX
  8
BORDER_D0_T132_RK1_A0_W0_EM1_RI1_ID0021
 10
2266.92
 20
295.36
 30
16.50
 42
-0.020392
  0
VERTEX
  8
BORDER_D0_T132_RK1_A0_W0_EM1_RI1_ID0021
 10
2228.07
 20
288.15
 30
16.50
 42
-0.018360
  0
VERTEX
  8
BORDER_D0_T132_RK1_A0_W0_EM1_RI1_ID0021
 10
2186.66
 20
283.75
 30
16.50
 42
-0.017437
  0
VERTEX
  8
BORDER_D0_T132_RK1_A0_W0_EM1_RI1_ID0021
 10
2143.95
 20
282.26
 30
16.50
 42
-0.017437
  0
VERTEX
  8
BORDER_D0_T132_RK1_A0_W0_EM1_RI1_ID0021
 10
2101.24
 20
283.75
 30
16.50
 42
-0.018360
  0
VERTEX
  8
BORDER_D0_T132_RK1_A0_W0_EM1_RI1_ID0021
 10
2059.83
 20
288.15
 30
16.50
 42
-0.020392
  0
VERTEX
  8
BORDER_D0_T132_RK1_A0_W0_EM1_RI1_ID0021
 10
2020.98
 20
295.36
 30
16.50
 42
-0.023970
  0
VERTEX
  8
BORDER_D0_T132_RK1_A0_W0_EM1_RI1_ID0021
 10
1985.86
 20
305.13
 30
16.50
 42
-0.029934
  0
VERTEX
  8
BORDER_D0_T132_RK1_A0_W0_EM1_RI1_ID0021
 10
1955.55
 20
317.17
 30
16.50
 42
-0.039882
  0
VERTEX
  8
BORDER_D0_T132_RK1_A0_W0_EM1_RI1_ID0021
 10
1930.96
 20
331.13
 30
16.50
 42
-0.056349
  0
VERTEX
  8
BORDER_D0_T132_RK1_A0_W0_EM1_RI1_ID0021
 10
1912.84
 20
346.57
 30
16.50
 42
-0.081329
  0
VERTEX
  8
BORDER_D0_T132_RK1_A0_W0_EM1_RI1_ID0021
 10
1901.75
 20
363.03
 30
16.50
 42
-0.106572
  0
VERTEX
  8
BORDER_D0_T132_RK1_A0_W0_EM1_RI1_ID0021
 10
1898.01
 20
380.00
 30
16.50
 42
-0.106572
  0
VERTEX
  8
BORDER_D0_T132_RK1_A0_W0_EM1_RI1_ID0021
 10
1901.75
 20
396.97
 30
16.50
 42
-0.081329
  0
VERTEX
  8
BORDER_D0_T132_RK1_A0_W0_EM1_RI1_ID0021
 10
1912.84
 20
413.43
 30
16.50
 42
-0.056349
  0
VERTEX
  8
BORDER_D0_T132_RK1_A0_W0_EM1_RI1_ID0021
 10
1930.96
 20
428.87
 30
16.50
 42
-0.039882
  0
VERTEX
  8
BORDER_D0_T132_RK1_A0_W0_EM1_RI1_ID0021
 10
1955.55
 20
442.83
 30
16.50
 42
-0.029934
  0
VERTEX
  8
BORDER_D0_T132_RK1_A0_W0_EM1_RI1_ID0021
 10
1985.86
 20
454.87
 30
16.50
 42
-0.023970
  0
VERTEX
  8
BORDER_D0_T132_RK1_A0_W0_EM1_RI1_ID0021
 10
2020.98
 20
464.64
 30
16.50
 42
-0.020392
  0
VERTEX
  8
BORDER_D0_T132_RK1_A0_W0_EM1_RI1_ID0021
 10
2059.83
 20
471.85
 30
16.50
 42
-0.018360
  0
VERTEX
  8
BORDER_D0_T132_RK1_A0_W0_EM1_RI1_ID0021
 10
2101.24
 20
476.25
 30
16.50
 42
-0.017437
  0
VERTEX
  8
BORDER_D0_T132_RK1_A0_W0_EM1_RI1_ID0021
 10
2143.95
 20
477.74
 30
16.50
 42
-0.017437
  0
VERTEX
  8
BORDER_D0_T132_RK1_A0_W0_EM1_RI1_ID0021
 10
2186.66
 20
476.25
 30
16.50
 42
-0.018360
  0
VERTEX
  8
BORDER_D0_T132_RK1_A0_W0_EM1_RI1_ID0021
 10
2228.07
 20
471.85
 30
16.50
 42
-0.020392
  0
VERTEX
  8
BORDER_D0_T132_RK1_A0_W0_EM1_RI1_ID0021
 10
2266.92
 20
464.64
 30
16.50
 42
-0.023970
  0
VERTEX
  8
BORDER_D0_T132_RK1_A0_W0_EM1_RI1_ID0021
 10
2302.04
 20
454.87
 30
16.50
 42
-0.029934
  0
VERTEX
  8
BORDER_D0_T132_RK1_A0_W0_EM1_RI1_ID0021
 10
2332.35
 20
442.83
 30
16.50
 42
-0.039882
  0
VERTEX
  8
BORDER_D0_T132_RK1_A0_W0_EM1_RI1_ID0021
 10
2356.94
 20
428.87
 30
16.50
 42
-0.056349
  0
VERTEX
  8
BORDER_D0_T132_RK1_A0_W0_EM1_RI1_ID0021
 10
2375.06
 20
413.43
 30
16.50
 42
-0.081329
  0
VERTEX
  8
BORDER_D0_T132_RK1_A0_W0_EM1_RI1_ID0021
 10
2386.15
 20
396.97
 30
16.50
 42
-0.106572
  0
VERTEX
  8
BORDER_D0_T132_RK1_A0_W0_EM1_RI1_ID0021
 10
2389.89
 20
380.00
 30
16.50
  0
SEQEND
  8
BORDER_D0_T132_RK1_A0_W0_EM1_RI1_ID0021
  0
POLYLINE
  8
BORDER_D0_T132_RK1_A0_W0_EM1_RI1_ID0013
 70
1
 66
1
  0
VERTEX
  8
BORDER_D0_T132_RK1_A0_W0_EM1_RI1_ID0013
 10
2383.79
 20
308.71
 30
16.50
  0
VERTEX
  8
BORDER_D0_T132_RK1_A0_W0_EM1_RI1_ID0013
 10
2383.79
 20
333.29
 30
16.50
 42
-0.333267
  0
VERTEX
  8
BORDER_D0_T132_RK1_A0_W0_EM1_RI1_ID0013
 10
2579.27
 20
333.29
 30
16.50
  0
VERTEX
  8
BORDER_D0_T132_RK1_A0_W0_EM1_RI1_ID0013
 10
2579.27
 20
284.13
 30
16.50
 42
0.469338
  0
VERTEX
  8
BORDER_D0_T132_RK1_A0_W0_EM1_RI1_ID0013
 10
2383.79
 20
284.13
 30
16.50
  0
VERTEX
  8
BORDER_D0_T132_RK1_A0_W0_EM1_RI1_ID0013
 10
2383.79
 20
308.71
 30
16.50
  0
SEQEND
  8
BORDER_D0_T132_RK1_A0_W0_EM1_RI1_ID0013
  0
POLYLINE
  8
BORDER_D0_T132_RK1_A0_W0_EM1_RI1_ID0020
 70
1
 66
1
  0
VERTEX
  8
BORDER_D0_T132_RK1_A0_W0_EM1_RI1_ID0020
 10
2637.79
 20
420.27
 30
16.50
  0
VERTEX
  8
BORDER_D0_T132_RK1_A0_W0_EM1_RI1_ID0020
 10
2637.79
 20
666.21
 30
16.50
 42
-0.106572
  0
VERTEX
  8
BORDER_D0_T132_RK1_A0_W0_EM1_RI1_ID0020
 10
2654.76
 20
662.47
 30
16.50
 42
-0.081329
  0
VERTEX
  8
BORDER_D0_T132_RK1_A0_W0_EM1_RI1_ID0020
 10
2671.22
 20
651.38
 30
16.50
 42
-0.056349
  0
VERTEX
  8
BORDER_D0_T132_RK1_A0_W0_EM1_RI1_ID0020
 10
2686.66
 20
633.26
 30
16.50
 42
-0.039882
  0
VERTEX
  8
BORDER_D0_T132_RK1_A0_W0_EM1_RI1_ID0020
 10
2700.62
 20
608.67
 30
16.50
 42
-0.029934
  0
VERTEX
  8
BORDER_D0_T132_RK1_A0_W0_EM1_RI1_ID0020
 10
2712.66
 20
578.36
 30
16.50
 42
-0.023970
  0
VERTEX
  8
BORDER_D0_T132_RK1_A0_W0_EM1_RI1_ID0020
 10
2722.43
 20
543.24
 30
16.50
 42
-0.020392
  0
VERTEX
  8
BORDER_D0_T132_RK1_A0_W0_EM1_RI1_ID0020
 10
2729.64
 20
504.39
 30
16.50
 42
-0.018360
  0
VERTEX
  8
BORDER_D0_T132_RK1_A0_W0_EM1_RI1_ID0020
 10
2734.04
 20
462.98
 30
16.50
 42
-0.017437
  0
VERTEX
  8
BORDER_D0_T132_RK1_A0_W0_EM1_RI1_ID0020
 10
2735.53
 20
420.27
 30
16.50
 42
-0.017437
  0
VERTEX
  8
BORDER_D0_T132_RK1_A0_W0_EM1_RI1_ID0020
 10
2734.04
 20
377.56
 30
16.50
 42
-0.018360
  0
VERTEX
  8
BORDER_D0_T132_RK1_A0_W0_EM1_RI1_ID0020
 10
2729.64
 20
336.15
 30
16.50
 42
-0.020392
  0
VERTEX
  8
BORDER_D0_T132_RK1_A0_W0_EM1_RI1_ID0020
 10
2722.43
 20
297.30
 30
16.50
 42
-0.023970
  0
VERTEX
  8
BORDER_D0_T132_RK1_A0_W0_EM1_RI1_ID0020
 10
2712.66
 20
262.18
 30
16.50
 42
-0.029934
  0
VERTEX
  8
BORDER_D0_T132_RK1_A0_W0_EM1_RI1_ID0020
 10
2700.62
 20
231.87
 30
16.50
 42
-0.039882
  0
VERTEX
  8
BORDER_D0_T132_RK1_A0_W0_EM1_RI1_ID0020
 10
2686.66
 20
207.28
 30
16.50
 42
-0.056349
  0
VERTEX
  8
BORDER_D0_T132_RK1_A0_W0_EM1_RI1_ID0020
 10
2671.22
 20
189.16
 30
16.50
 42
-0.081329
  0
VERTEX
  8
BORDER_D0_T132_RK1_A0_W0_EM1_RI1_ID0020
 10
2654.76
 20
178.07
 30
16.50
 42
-0.106572
  0
VERTEX
  8
BORDER_D0_T132_RK1_A0_W0_EM1_RI1_ID0020
 10
2637.79
 20
174.33
 30
16.50
  0
VERTEX
  8
BORDER_D0_T132_RK1_A0_W0_EM1_RI1_ID0020
 10
2637.79
 20
420.27
 30
16.50
  0
SEQEND
  8
BORDER_D0_T132_RK1_A0_W0_EM1_RI1_ID0020
  0
POLYLINE
  8
BORDER_D0_T132_RK1_A0_W0_EM1_RI1_ID0007
 70
1
 66
1
  0
VERTEX
  8
BORDER_D0_T132_RK1_A0_W0_EM1_RI1_ID0007
 10
2693.68
 20
187.47
 30
16.50
  0
VERTEX
  8
BORDER_D0_T132_RK1_A0_W0_EM1_RI1_ID0007
 10
2715.63
 20
119.94
 30
16.50
  0
VERTEX
  8
BORDER_D0_T132_RK1_A0_W0_EM1_RI1_ID0007
 10
2786.64
 20
119.94
 30
16.50
  0
VERTEX
  8
BORDER_D0_T132_RK1_A0_W0_EM1_RI1_ID0007
 10
2729.19
 20
78.20
 30
16.50
  0
VERTEX
  8
BORDER_D0_T132_RK1_A0_W0_EM1_RI1_ID0007
 10
2751.13
 20
10.66
 30
16.50
  0
VERTEX
  8
BORDER_D0_T132_RK1_A0_W0_EM1_RI1_ID0007
 10
2693.68
 20
52.40
 30
16.50
  0
VERTEX
  8
BORDER_D0_T132_RK1_A0_W0_EM1_RI1_ID0007
 10
2636.23
 20
10.66
 30
16.50
  0
VERTEX
  8
BORDER_D0_T132_RK1_A0_W0_EM1_RI1_ID0007
 10
2658.18
 20
78.20
 30
16.50
  0
VERTEX
  8
BORDER_D0_T132_RK1_A0_W0_EM1_RI1_ID0007
 10
2600.73
 20
119.94
 30
16.50
  0
VERTEX
  8
BORDER_D0_T132_RK1_A0_W0_EM1_RI1_ID0007
 10
2671.74
 20
119.94
 30
16.50
  0
VERTEX
  8
BORDER_D0_T132_RK1_A0_W0_EM1_RI1_ID0007
 10
2693.68
 20
187.47
 30
16.50
  0
SEQEND
  8
BORDER_D0_T132_RK1_A0_W0_EM1_RI1_ID0007
  0
POLYLINE
  8
BORDER_D0_T132_RK1_A0_W0_EM1_RI1_ID0020
 70
1
 66
1
  0
VERTEX
  8
BORDER_D0_T132_RK1_A0_W0_EM1_RI1_ID0020
 10
2658.73
 20
1290.23
 30
16.50
  0
VERTEX
  8
BORDER_D0_T132_RK1_A0_W0_EM1_RI1_ID0020
 10
2658.73
 20
1536.17
 30
16.50
 42
-0.106572
  0
VERTEX
  8
BORDER_D0_T132_RK1_A0_W0_EM1_RI1_ID0020
 10
2675.70
 20
1532.43
 30
16.50
 42
-0.081329
  0
VERTEX
  8
BORDER_D0_T132_RK1_A0_W0_EM1_RI1_ID0020
 10
2692.16
 20
1521.34
 30
16.50
 42
-0.056349
  0
VERTEX
  8
BORDER_D0_T132_RK1_A0_W0_EM1_RI1_ID0020
 10
2707.60
 20
1503.22
 30
16.50
 42
-0.039882
  0
VERTEX
  8
BORDER_D0_T132_RK1_A0_W0_EM1_RI1_ID0020
 10
2721.56
 20
1478.63
 30
16.50
 42
-0.029934
  0
VERTEX
  8
BORDER_D0_T132_RK1_A0_W0_EM1_RI1_ID0020
 10
2733.60
 20
1448.32
 30
16.50
 42
-0.023970
  0
VERTEX
  8
BORDER_D0_T132_RK1_A0_W0_EM1_RI1_ID0020
 10
2743.37
 20
1413.20
 30
16.50
 42
-0.020392
  0
VERTEX
  8
BORDER_D0_T132_RK1_A0_W0_EM1_RI1_ID0020
 10
2750.58
 20
1374.35
 30
16.50
 42
-0.018360
  0
VERTEX
  8
BORDER_D0_T132_RK1_A0_W0_EM1_RI1_ID0020
 10
2754.98
 20
1332.94
 30
16.50
 42
-0.017437
  0
VERTEX
  8
BORDER_D0_T132_RK1_A0_W0_EM1_RI1_ID0020
 10
2756.47
 20
1290.23
 30
16.50
 42
-0.017437
  0
VERTEX
  8
BORDER_D0_T132_RK1_A0_W0_EM1_RI1_ID0020
 10
2754.98
 20
1247.52
 30
16.50
 42
-0.018360
  0
VERTEX
  8
BORDER_D0_T132_RK1_A0_W0_EM1_RI1_ID0020
 10
2750.58
 20
1206.11
 30
16.50
 42
-0.020392
  0
VERTEX
  8
BORDER_D0_T132_RK1_A0_W0_EM1_RI1_ID0020
 10
2743.37
 20
1167.26
 30
16.50
 42
-0.023970
  0
VERTEX
  8
BORDER_D0_T132_RK1_A0_W0_EM1_RI1_ID0020
 10
2733.60
 20
1132.14
 30
16.50
 42
-0.029934
  0
VERTEX
  8
BORDER_D0_T132_RK1_A0_W0_EM1_RI1_ID0020
 10
2721.56
 20
1101.83
 30
16.50
 42
-0.039882
  0
VERTEX
  8
BORDER_D0_T132_RK1_A0_W0_EM1_RI1_ID0020
 10
2707.60
 20
1077.24
 30
16.50
 42
-0.056349
  0
VERTEX
  8
BORDER_D0_T132_RK1_A0_W0_EM1_RI1_ID0020
 10
2692.16
 20
1059.12
 30
16.50
 42
-0.081329
  0
VERTEX
  8
BORDER_D0_T132_RK1_A0_W0_EM1_RI1_ID0020
 10
2675.70
 20
1048.03
 30
16.50
 42
-0.106572
  0
VERTEX
  8
BORDER_D0_T132_RK1_A0_W0_EM1_RI1_ID0020
 10
2658.73
 20
1044.29
 30
16.50
  0
VERTEX
  8
BORDER_D0_T132_RK1_A0_W0_EM1_RI1_ID0020
 10
2658.73
 20
1290.23
 30
16.50
  0
SEQEND
  8
BORDER_D0_T132_RK1_A0_W0_EM1_RI1_ID0020
  0
POLYLINE
  8
BORDER_D0_T132_RK1_A0_W0_EM1_RI1_ID0020
 70
1
 66
1
  0
VERTEX
  8
BORDER_D0_T132_RK1_A0_W0_EM1_RI1_ID0020
 10
2756.97
 20
840.18
 30
16.50
  0
VERTEX
  8
BORDER_D0_T132_RK1_A0_W0_EM1_RI1_ID0020
 10
2756.97
 20
594.24
 30
16.50
 42
-0.106572
  0
VERTEX
  8
BORDER_D0_T132_RK1_A0_W0_EM1_RI1_ID0020
 10
2740.00
 20
597.98
 30
16.50
 42
-0.081329
  0
VERTEX
  8
BORDER_D0_T132_RK1_A0_W0_EM1_RI1_ID0020
 10
2723.54
 20
609.07
 30
16.50
 42
-0.056348
  0
VERTEX
  8
BORDER_D0_T132_RK1_A0_W0_EM1_RI1_ID0020
 10
2708.10
 20
627.19
 30
16.50
 42
-0.039882
  0
VERTEX
  8
BORDER_D0_T132_RK1_A0_W0_EM1_RI1_ID0020
 10
2694.14
 20
651.78
 30
16.50
 42
-0.029934
  0
VERTEX
  8
BORDER_D0_T132_RK1_A0_W0_EM1_RI1_ID0020
 10
2682.10
 20
682.09
 30
16.50
 42
-0.023970
  0
VERTEX
  8
BORDER_D0_T132_RK1_A0_W0_EM1_RI1_ID0020
 10
2672.33
 20
717.21
 30
16.50
 42
-0.020392
  0
VERTEX
  8
BORDER_D0_T132_RK1_A0_W0_EM1_RI1_ID0020
 10
2665.12
 20
756.06
 30
16.50
 42
-0.018360
  0
VERTEX
  8
BORDER_D0_T132_RK1_A0_W0_EM1_RI1_ID0020
 10
2660.72
 20
797.47
 30
16.50
 42
-0.017437
  0
VERTEX
  8
BORDER_D0_T132_RK1_A0_W0_EM1_RI1_ID0020
 10
2659.23
 20
840.18
 30
16.50
 42
-0.017437
  0
VERTEX
  8
BORDER_D0_T132_RK1_A0_W0_EM1_RI1_ID0020
 10
2660.72
 20
882.89
 30
16.50
 42
-0.018360
  0
VERTEX
  8
BORDER_D0_T132_RK1_A0_W0_EM1_RI1_ID0020
 10
2665.12
 20
924.30
 30
16.50
 42
-0.020392
  0
VERTEX
  8
BORDER_D0_T132_RK1_A0_W0_EM1_RI1_ID0020
 10
2672.33
 20
963.15
 30
16.50
 42
-0.023970
  0
VERTEX
  8
BORDER_D0_T132_RK1_A0_W0_EM1_RI1_ID0020
 10
2682.10
 20
998.27
 30
16.50
 42
-0.029934
  0
VERTEX
  8
BORDER_D0_T132_RK1_A0_W0_EM1_RI1_ID0020
 10
2694.14
 20
1028.58
 30
16.50
 42
-0.039882
  0
VERTEX
  8
BORDER_D0_T132_RK1_A0_W0_EM1_RI1_ID0020
 10
2708.10
 20
1053.17
 30
16.50
 42
-0.056349
  0
VERTEX
  8
BORDER_D0_T132_RK1_A0_W0_EM1_RI1_ID0020
 10
2723.54
 20
1071.29
 30
16.50
 42
-0.081329
  0
VERTEX
  8
BORDER_D0_T132_RK1_A0_W0_EM1_RI1_ID0020
 10
2740.00
 20
1082.38
 30
16.50
 42
-0.106572
  0
VERTEX
  8
BORDER_D0_T132_RK1_A0_W0_EM1_RI1_ID0020
 10
2756.97
 20
1086.12
 30
16.50
  0
VERTEX
  8
BORDER_D0_T132_RK1_A0_W0_EM1_RI1_ID0020
 10
2756.97
 20
840.18
 30
16.50
  0
SEQEND
  8
BORDER_D0_T132_RK1_A0_W0_EM1_RI1_ID0020
  0
POLYLINE
  8
BORDER_D0_T132_RK1_A0_W0_EM1_RI1_ID0021
 70
1
 66
1
  0
VERTEX
  8
BORDER_D0_T132_RK1_A0_W0_EM1_RI1_ID0021
 10
2681.87
 20
2040.00
 30
16.50
 42
-0.106572
  0
VERTEX
  8
BORDER_D0_T132_RK1_A0_W0_EM1_RI1_ID0021
 10
2698.84
 20
2036.26
 30
16.50
 42
-0.081329
  0
VERTEX
  8
BORDER_D0_T132_RK1_A0_W0_EM1_RI1_ID0021
 10
2715.30
 20
2025.17
 30
16.50
 42
-0.056349
  0
VERTEX
  8
BORDER_D0_T132_RK1_A0_W0_EM1_RI1_ID0021
 10
2730.74
 20
2007.05
 30
16.50
 42
-0.039882
  0
VERTEX
  8
BORDER_D0_T132_RK1_A0_W0_EM1_RI1_ID0021
 10
2744.70
 20
1982.46
 30
16.50
 42
-0.029934
  0
VERTEX
  8
BORDER_D0_T132_RK1_A0_W0_EM1_RI1_ID0021
 10
2756.74
 20
1952.15
 30
16.50
 42
-0.023970
  0
VERTEX
  8
BORDER_D0_T132_RK1_A0_W0_EM1_RI1_ID0021
 10
2766.51
 20
1917.03
 30
16.50
 42
-0.020392
  0
VERTEX
  8
BORDER_D0_T132_RK1_A0_W0_EM1_RI1_ID0021
 10
2773.72
 20
1878.18
 30
16.50
 42
-0.018360
  0
VERTEX
  8
BORDER_D0_T132_RK1_A0_W0_EM1_RI1_ID0021
 10
2778.12
 20
1836.77
 30
16.50
 42
-0.017437
  0
VERTEX
  8
BORDER_D0_T132_RK1_A0_W0_EM1_RI1_ID0021
 10
2779.61
 20
1794.06
 30
16.50
 42
-0.017437
  0
VERTEX
  8
BORDER_D0_T132_RK1_A0_W0_EM1_RI1_ID0021
 10
2778.12
 20
1751.35
 30
16.50
 42
-0.018360
  0
VERTEX
  8
BORDER_D0_T132_RK1_A0_W0_EM1_RI1_ID0021
 10
2773.72
 20
1709.94
 30
16.50
 42
-0.020392
  0
VERTEX
  8
BORDER_D0_T132_RK1_A0_W0_EM1_RI1_ID0021
 10
2766.51
 20
1671.09
 30
16.50
 42
-0.023970
  0
VERTEX
  8
BORDER_D0_T132_RK1_A0_W0_EM1_RI1_ID0021
 10
2756.74
 20
1635.97
 30
16.50
 42
-0.029934
  0
VERTEX
  8
BORDER_D0_T132_RK1_A0_W0_EM1_RI1_ID0021
 10
2744.70
 20
1605.66
 30
16.50
 42
-0.039882
  0
VERTEX
  8
BORDER_D0_T132_RK1_A0_W0_EM1_RI1_ID0021
 10
2730.74
 20
1581.07
 30
16.50
 42
-0.056349
  0
VERTEX
  8
BORDER_D0_T132_RK1_A0_W0_EM1_RI1_ID0021
 10
2715.30
 20
1562.95
 30
16.50
 42
-0.081329
  0
VERTEX
  8
BORDER_D0_T132_RK1_A0_W0_EM1_RI1_ID0021
 10
2698.84
 20
1551.86
 30
16.50
 42
-0.106572
  0
VERTEX
  8
BORDER_D0_T132_RK1_A0_W0_EM1_RI1_ID0021
 10
2681.87
 20
1548.12
 30
16.50
 42
-0.106572
  0
VERTEX
  8
BORDER_D0_T132_RK1_A0_W0_EM1_RI1_ID0021
 10
2664.90
 20
1551.86
 30
16.50
 42
-0.081329
  0
VERTEX
  8
BORDER_D0_T132_RK1_A0_W0_EM1_RI1_ID0021
 10
2648.44
 20
1562.95
 30
16.50
 42
-0.056348
  0
VERTEX
  8
BORDER_D0_T132_RK1_A0_W0_EM1_RI1_ID0021
 10
2633.00
 20
1581.07
 30
16.50
 42
-0.039883
  0
VERTEX
  8
BORDER_D0_T132_RK1_A0_W0_EM1_RI1_ID0021
 10
2619.04
 20
1605.66
 30
16.50
 42
-0.029934
  0
VERTEX
  8
BORDER_D0_T132_RK1_A0_W0_EM1_RI1_ID0021
 10
2607.00
 20
1635.97
 30
16.50
 42
-0.023970
  0
VERTEX
  8
BORDER_D0_T132_RK1_A0_W0_EM1_RI1_ID0021
 10
2597.23
 20
1671.09
 30
16.50
 42
-0.020392
  0
VERTEX
  8
BORDER_D0_T132_RK1_A0_W0_EM1_RI1_ID0021
 10
2590.02
 20
1709.94
 30
16.50
 42
-0.018360
  0
VERTEX
  8
BORDER_D0_T132_RK1_A0_W0_EM1_RI1_ID0021
 10
2585.62
 20
1751.35
 30
16.50
 42
-0.017437
  0
VERTEX
  8
BORDER_D0_T132_RK1_A0_W0_EM1_RI1_ID0021
 10
2584.13
 20
1794.06
 30
16.50
 42
-0.017436
  0
VERTEX
  8
BORDER_D0_T132_RK1_A0_W0_EM1_RI1_ID0021
 10
2585.62
 20
1836.77
 30
16.50
 42
-0.018360
  0
VERTEX
  8
BORDER_D0_T132_RK1_A0_W0_EM1_RI1_ID0021
 10
2590.02
 20
1878.18
 30
16.50
 42
-0.020392
  0
VERTEX
  8
BORDER_D0_T132_RK1_A0_W0_EM1_RI1_ID0021
 10
2597.23
 20
1917.03
 30
16.50
 42
-0.023970
  0
VERTEX
  8
BORDER_D0_T132_RK1_A0_W0_EM1_RI1_ID0021
 10
2607.00
 20
1952.15
 30
16.50
 42
-0.029934
  0
VERTEX
  8
BORDER_D0_T132_RK1_A0_W0_EM1_RI1_ID0021
 10
2619.04
 20
1982.46
 30
16.50
 42
-0.039883
  0
VERTEX
  8
BORDER_D0_T132_RK1_A0_W0_EM1_RI1_ID0021
 10
2633.00
 20
2007.05
 30
16.50
 42
-0.056348
  0
VERTEX
  8
BORDER_D0_T132_RK1_A0_W0_EM1_RI1_ID0021
 10
2648.44
 20
2025.17
 30
16.50
 42
-0.081329
  0
VERTEX
  8
BORDER_D0_T132_RK1_A0_W0_EM1_RI1_ID0021
 10
2664.90
 20
2036.26
 30
16.50
 42
-0.106572
  0
VERTEX
  8
BORDER_D0_T132_RK1_A0_W0_EM1_RI1_ID0021
 10
2681.87
 20
2040.00
 30
16.50
  0
SEQEND
  8
BORDER_D0_T132_RK1_A0_W0_EM1_RI1_ID0021
  0
POLYLINE
  8
BORDER_D0_T132_RK1_A0_W0_EM1_RI1_ID0022
 70
1
 66
1
  0
VERTEX
  8
BORDER_D0_T132_RK1_A0_W0_EM1_RI1_ID0022
 10
2209.90
 20
2040.00
 30
16.50
 42
-0.076784
  0
VERTEX
  8
BORDER_D0_T132_RK1_A0_W0_EM1_RI1_ID0022
 10
2285.28
 20
2028.26
 30
16.50
 42
-0.068057
  0
VERTEX
  8
BORDER_D0_T132_RK1_A0_W0_EM1_RI1_ID0022
 10
2358.37
 20
1993.39
 30
16.50
 42
-0.056097
  0
VERTEX
  8
BORDER_D0_T132_RK1_A0_W0_EM1_RI1_ID0022
 10
2426.95
 20
1936.44
 30
16.50
 42
-0.045361
  0
VERTEX
  8
BORDER_D0_T132_RK1_A0_W0_EM1_RI1_ID0022
 10
2488.93
 20
1859.16
 30
16.50
 42
-0.037263
  0
VERTEX
  8
BORDER_D0_T132_RK1_A0_W0_EM1_RI1_ID0022
 10
2542.44
 20
1763.89
 30
16.50
 42
-0.031618
  0
VERTEX
  8
BORDER_D0_T132_RK1_A0_W0_EM1_RI1_ID0022
 10
2585.84
 20
1653.53
 30
16.50
 42
-0.027907
  0
VERTEX
  8
BORDER_D0_T132_RK1_A0_W0_EM1_RI1_ID0022
 10
2617.82
 20
1531.41
 30
16.50
 42
-0.025666
  0
VERTEX
  8
BORDER_D0_T132_RK1_A0_W0_EM1_RI1_ID0022
 10
2637.40
 20
1401.27
 30
16.50
 42
-0.024617
  0
VERTEX
  8
BORDER_D0_T132_RK1_A0_W0_EM1_RI1_ID0022
 10
2644.00
 20
1267.05
 30
16.50
 42
-0.024617
  0
VERTEX
  8
BORDER_D0_T132_RK1_A0_W0_EM1_RI1_ID0022
 10
2637.40
 20
1132.83
 30
16.50
 42
-0.025666
  0
VERTEX
  8
BORDER_D0_T132_RK1_A0_W0_EM1_RI1_ID0022
 10
2617.82
 20
1002.69
 30
16.50
 42
-0.027905
  0
VERTEX
  8
BORDER_D0_T132_RK1_A0_W0_EM1_RI1_ID0022
 10
2585.84
 20
880.58
 30
16.50
 42
-0.031620
  0
VERTEX
  8
BORDER_D0_T132_RK1_A0_W0_EM1_RI1_ID0022
 10
2542.44
 20
770.21
 30
16.50
 42
-0.037263
  0
VERTEX
  8
BORDER_D0_T132_RK1_A0_W0_EM1_RI1_ID0022
 10
2488.93
 20
674.94
 30
16.50
 42
-0.045361
  0
VERTEX
  8
BORDER_D0_T132_RK1_A0_W0_EM1_RI1_ID0022
 10
2426.95
 20
597.66
 30
16.50
 42
-0.056093
  0
VERTEX
  8
BORDER_D0_T132_RK1_A0_W0_EM1_RI1_ID0022
 10
2358.37
 20
540.72
 30
16.50
 42
-0.068061
  0
VERTEX
  8
BORDER_D0_T132_RK1_A0_W0_EM1_RI1_ID0022
 10
2285.28
 20
505.84
 30
16.50
 42
-0.076784
  0
VERTEX
  8
BORDER_D0_T132_RK1_A0_W0_EM1_RI1_ID0022
 10
2209.90
 20
494.10
 30
16.50
 42
-0.076784
  0
VERTEX
  8
BORDER_D0_T132_RK1_A0_W0_EM1_RI1_ID0022
 10
2134.52
 20
505.84
 30
16.50
 42
-0.068061
  0
VERTEX
  8
BORDER_D0_T132_RK1_A0_W0_EM1_RI1_ID0022
 10
2061.43
 20
540.72
 30
16.50
 42
-0.056093
  0
VERTEX
  8
BORDER_D0_T132_RK1_A0_W0_EM1_RI1_ID0022
 10
1992.85
 20
597.66
 30
16.50
 42
-0.045361
  0
VERTEX
  8
BORDER_D0_T132_RK1_A0_W0_EM1_RI1_ID0022
 10
1930.87
 20
674.94
 30
16.50
 42
-0.037263
  0
VERTEX
  8
BORDER_D0_T132_RK1_A0_W0_EM1_RI1_ID0022
 10
1877.36
 20
770.21
 30
16.50
 42
-0.031620
  0
VERTEX
  8
BORDER_D0_T132_RK1_A0_W0_EM1_RI1_ID0022
 10
1833.96
 20
880.58
 30
16.50
 42
-0.027905
  0
VERTEX
  8
BORDER_D0_T132_RK1_A0_W0_EM1_RI1_ID0022
 10
1801.98
 20
1002.69
 30
16.50
 42
-0.025667
  0
VERTEX
  8
BORDER_D0_T132_RK1_A0_W0_EM1_RI1_ID0022
 10
1782.39
 20
1132.83
 30
16.50
 42
-0.024617
  0
VERTEX
  8
BORDER_D0_T132_RK1_A0_W0_EM1_RI1_ID0022
 10
1775.80
 20
1267.05
 30
16.50
 42
-0.024617
  0
VERTEX
  8
BORDER_D0_T132_RK1_A0_W0_EM1_RI1_ID0022
 10
1782.39
 20
1401.27
 30
16.50
 42
-0.025667
  0
VERTEX
  8
BORDER_D0_T132_RK1_A0_W0_EM1_RI1_ID0022
 10
1801.98
 20
1531.41
 30
16.50
 42
-0.027907
  0
VERTEX
  8
BORDER_D0_T132_RK1_A0_W0_EM1_RI1_ID0022
 10
1833.96
 20
1653.53
 30
16.50
 42
-0.031618
  0
VERTEX
  8
BORDER_D0_T132_RK1_A0_W0_EM1_RI1_ID0022
 10
1877.36
 20
1763.89
 30
16.50
 42
-0.037263
  0
VERTEX
  8
BORDER_D0_T132_RK1_A0_W0_EM1_RI1_ID0022
 10
1930.87
 20
1859.16
 30
16.50
 42
-0.045361
  0
VERTEX
  8
BORDER_D0_T132_RK1_A0_W0_EM1_RI1_ID0022
 10
1992.85
 20
1936.44
 30
16.50
 42
-0.056097
  0
VERTEX
  8
BORDER_D0_T132_RK1_A0_W0_EM1_RI1_ID0022
 10
2061.43
 20
1993.39
 30
16.50
 42
-0.068057
  0
VERTEX
  8
BORDER_D0_T132_RK1_A0_W0_EM1_RI1_ID0022
 10
2134.52
 20
2028.26
 30
16.50
 42
-0.076784
  0
VERTEX
  8
BORDER_D0_T132_RK1_A0_W0_EM1_RI1_ID0022
 10
2209.90
 20
2040.00
 30
16.50
  0
SEQEND
  8
BORDER_D0_T132_RK1_A0_W0_EM1_RI1_ID0022
  0
POLYLINE
  8
BORDER_D0_T132_RK1_A0_W0_EM1_RI1_ID0013
 70
1
 66
1
  0
VERTEX
  8
BORDER_D0_T132_RK1_A0_W0_EM1_RI1_ID0013
 10
1951.30
 20
2015.42
 30
16.50
  0
VERTEX
  8
BORDER_D0_T132_RK1_A0_W0_EM1_RI1_ID0013
 10
1951.30
 20
1990.84
 30
16.50
 42
-0.333267
  0
VERTEX
  8
BORDER_D0_T132_RK1_A0_W0_EM1_RI1_ID0013
 10
1755.82
 20
1990.84
 30
16.50
  0
VERTEX
  8
BORDER_D0_T132_RK1_A0_W0_EM1_RI1_ID0013
 10
1755.82
 20
2040.00
 30
16.50
 42
0.469337
  0
VERTEX
  8
BORDER_D0_T132_RK1_A0_W0_EM1_RI1_ID0013
 10
1951.30
 20
2040.00
 30
16.50
  0
VERTEX
  8
BORDER_D0_T132_RK1_A0_W0_EM1_RI1_ID0013
 10
1951.30
 20
2015.42
 30
16.50
  0
SEQEND
  8
BORDER_D0_T132_RK1_A0_W0_EM1_RI1_ID0013
  0
POLYLINE
  8
BORDER_D0_T132_RK1_A0_W0_EM1_RI1_ID0025
 70
1
 66
1
  0
VERTEX
  8
BORDER_D0_T132_RK1_A0_W0_EM1_RI1_ID0025
 10
1752.57
 20
1908.40
 30
16.50
  0
VERTEX
  8
BORDER_D0_T132_RK1_A0_W0_EM1_RI1_ID0025
 10
1845.53
 20
1840.87
 30
16.50
  0
VERTEX
  8
BORDER_D0_T132_RK1_A0_W0_EM1_RI1_ID0025
 10
1810.02
 20
1731.59
 30
16.50
  0
VERTEX
  8
BORDER_D0_T132_RK1_A0_W0_EM1_RI1_ID0025
 10
1695.12
 20
1731.59
 30
16.50
  0
VERTEX
  8
BORDER_D0_T132_RK1_A0_W0_EM1_RI1_ID0025
 10
1659.62
 20
1840.87
 30
16.50
  0
VERTEX
  8
BORDER_D0_T132_RK1_A0_W0_EM1_RI1_ID0025
 10
1752.57
 20
1908.40
 30
16.50
  0
SEQEND
  8
BORDER_D0_T132_RK1_A0_W0_EM1_RI1_ID0025
  0
POLYLINE
  8
BORDER_D0_T132_RK1_A0_W0_EM1_RI1_ID0025
 70
1
 66
1
  0
VERTEX
  8
BORDER_D0_T132_RK1_A0_W0_EM1_RI1_ID0025
 10
1665.27
 20
1863.19
 30
16.50
  0
VERTEX
  8
BORDER_D0_T132_RK1_A0_W0_EM1_RI1_ID0025
 10
1572.31
 20
1930.72
 30
16.50
  0
VERTEX
  8
BORDER_D0_T132_RK1_A0_W0_EM1_RI1_ID0025
 10
1607.82
 20
2040.00
 30
16.50
  0
VERTEX
  8
BORDER_D0_T132_RK1_A0_W0_EM1_RI1_ID0025
 10
1722.72
 20
2040.00
 30
16.50
  0
VERTEX
  8
BORDER_D0_T132_RK1_A0_W0_EM1_RI1_ID0025
 10
1758.22
 20
1930.72
 30
16.50
  0
VERTEX
  8
BORDER_D0_T132_RK1_A0_W0_EM1_RI1_ID0025
 10
1665.27
 20
1863.19
 30
16.50
  0
SEQEND
  8
BORDER_D0_T132_RK1_A0_W0_EM1_RI1_ID0025
  0
POLYLINE
  8
BORDER_D0_T132_RK1_A0_W0_EM1_RI1_ID0022
 70
1
 66
1
  0
VERTEX
  8
BORDER_D0_T132_RK1_A0_W0_EM1_RI1_ID0022
 10
1327.00
 20
2040.00
 30
16.50
 42
-0.076784
  0
VERTEX
  8
BORDER_D0_T132_RK1_A0_W0_EM1_RI1_ID0022
 10
1402.38
 20
2028.26
 30
16.50
 42
-0.068057
  0
VERTEX
  8
BORDER_D0_T132_RK1_A0_W0_EM1_RI1_ID0022
 10
1475.47
 20
1993.39
 30
16.50
 42
-0.056097
  0
VERTEX
  8
BORDER_D0_T132_RK1_A0_W0_EM1_RI1_ID0022
 10
1544.05
 20
1936.44
 30
16.50
 42
-0.045361
  0
VERTEX
  8
BORDER_D0_T132_RK1_A0_W0_EM1_RI1_ID0022
 10
1606.03
 20
1859.16
 30
16.50
 42
-0.037263
  0
VERTEX
  8
BORDER_D0_T132_RK1_A0_W0_EM1_RI1_ID0022
 10
1659.54
 20
1763.89
 30
16.50
 42
-0.031618
  0
VERTEX
  8
BORDER_D0_T132_RK1_A0_W0_EM1_RI1_ID0022
 10
1702.94
 20
1653.53
 30
16.50
 42
-0.027907
  0
VERTEX
  8
BORDER_D0_T132_RK1_A0_W0_EM1_RI1_ID0022
 10
1734.92
 20
1531.41
 30
16.50
 42
-0.025666
  0
VERTEX
  8
BORDER_D0_T132_RK1_A0_W0_EM1_RI1_ID0022
 10
1754.50
 20
1401.27
 30
16.50
 42
-0.024617
  0
VERTEX
  8
BORDER_D0_T132_RK1_A0_W0_EM1_RI1_ID0022
 10
1761.10
 20
1267.05
 30
16.50
 42
-0.024617
  0
VERTEX
  8
BORDER_D0_T132_RK1_A0_W0_EM1_RI1_ID0022
 10
1754.50
 20
1132.83
 30
16.50
 42
-0.025666
  0
VERTEX
  8
BORDER_D0_T132_RK1_A0_W0_EM1_RI1_ID0022
 10
1734.92
 20
1002.69
 30
16.50
 42
-0.027905
  0
VERTEX
  8
BORDER_D0_T132_RK1_A0_W0_EM1_RI1_ID0022
 10
1702.94
 20
880.58
 30
16.50
 42
-0.031620
  0
VERTEX
  8
BORDER_D0_T132_RK1_A0_W0_EM1_RI1_ID0022
 10
1659.54
 20
770.21
 30
16.50
 42
-0.037263
  0
VERTEX
  8
BORDER_D0_T132_RK1_A0_W0_EM1_RI1_ID0022
 10
1606.03
 20
674.94
 30
16.50
 42
-0.045361
  0
VERTEX
  8
BORDER_D0_T132_RK1_A0_W0_EM1_RI1_ID0022
 10
1544.05
 20
597.66
 30
16.50
 42
-0.056093
  0
VERTEX
  8
BORDER_D0_T132_RK1_A0_W0_EM1_RI1_ID0022
 10
1475.47
 20
540.72
 30
16.50
 42
-0.068061
  0
VERTEX
  8
BORDER_D0_T132_RK1_A0_W0_EM1_RI1_ID0022
 10
1402.38
 20
505.84
 30
16.50
 42
-0.076784
  0
VERTEX
  8
BORDER_D0_T132_RK1_A0_W0_EM1_RI1_ID0022
 10
1327.00
 20
494.10
 30
16.50
 42
-0.076784
  0
VERTEX
  8
BORDER_D0_T132_RK1_A0_W0_EM1_RI1_ID0022
 10
1251.62
 20
505.84
 30
16.50
 42
-0.068061
  0
VERTEX
  8
BORDER_D0_T132_RK1_A0_W0_EM1_RI1_ID0022
 10
1178.53
 20
540.72
 30
16.50
 42
-0.056093
  0
VERTEX
  8
BORDER_D0_T132_RK1_A0_W0_EM1_RI1_ID0022
 10
1109.95
 20
597.66
 30
16.50
 42
-0.045361
  0
VERTEX
  8
BORDER_D0_T132_RK1_A0_W0_EM1_RI1_ID0022
 10
1047.97
 20
674.94
 30
16.50
 42
-0.037263
  0
VERTEX
  8
BORDER_D0_T132_RK1_A0_W0_EM1_RI1_ID0022
 10
994.46
 20
770.21
 30
16.50
 42
-0.031620
  0
VERTEX
  8
BORDER_D0_T132_RK1_A0_W0_EM1_RI1_ID0022
 10
951.06
 20
880.58
 30
16.50
 42
-0.027905
  0
VERTEX
  8
BORDER_D0_T132_RK1_A0_W0_EM1_RI1_ID0022
 10
919.08
 20
1002.69
 30
16.50
 42
-0.025667
  0
VERTEX
  8
BORDER_D0_T132_RK1_A0_W0_EM1_RI1_ID0022
 10
899.49
 20
1132.83
 30
16.50
 42
-0.024617
  0
VERTEX
  8
BORDER_D0_T132_RK1_A0_W0_EM1_RI1_ID0022
 10
892.90
 20
1267.05
 30
16.50
 42
-0.024617
  0
VERTEX
  8
BORDER_D0_T132_RK1_A0_W0_EM1_RI1_ID0022
 10
899.49
 20
1401.27
 30
16.50
 42
-0.025667
  0
VERTEX
  8
BORDER_D0_T132_RK1_A0_W0_EM1_RI1_ID0022
 10
919.08
 20
1531.41
 30
16.50
 42
-0.027907
  0
VERTEX
  8
BORDER_D0_T132_RK1_A0_W0_EM1_RI1_ID0022
 10
951.06
 20
1653.53
 30
16.50
 42
-0.031618
  0
VERTEX
  8
BORDER_D0_T132_RK1_A0_W0_EM1_RI1_ID0022
 10
994.46
 20
1763.89
 30
16.50
 42
-0.037263
  0
VERTEX
  8
BORDER_D0_T132_RK1_A0_W0_EM1_RI1_ID0022
 10
1047.97
 20
1859.16
 30
16.50
 42
-0.045361
  0
VERTEX
  8
BORDER_D0_T132_RK1_A0_W0_EM1_RI1_ID0022
 10
1109.95
 20
1936.44
 30
16.50
 42
-0.056097
  0
VERTEX
  8
BORDER_D0_T132_RK1_A0_W0_EM1_RI1_ID0022
 10
1178.53
 20
1993.39
 30
16.50
 42
-0.068057
  0
VERTEX
  8
BORDER_D0_T132_RK1_A0_W0_EM1_RI1_ID0022
 10
1251.62
 20
2028.26
 30
16.50
 42
-0.076784
  0
VERTEX
  8
BORDER_D0_T132_RK1_A0_W0_EM1_RI1_ID0022
 10
1327.00
 20
2040.00
 30
16.50
  0
SEQEND
  8
BORDER_D0_T132_RK1_A0_W0_EM1_RI1_ID0022
  0
POLYLINE
  8
BORDER_D0_T132_RK1_A0_W0_EM1_RI1_ID0013
 70
1
 66
1
  0
VERTEX
  8
BORDER_D0_T132_RK1_A0_W0_EM1_RI1_ID0013
 10
1065.39
 20
2015.42
 30
16.50
  0
VERTEX
  8
BORDER_D0_T132_RK1_A0_W0_EM1_RI1_ID0013
 10
1065.39
 20
1990.84
 30
16.50
 42
-0.333267
  0
VERTEX
  8
BORDER_D0_T132_RK1_A0_W0_EM1_RI1_ID0013
 10
869.91
 20
1990.84
 30
16.50
  0
VERTEX
  8
BORDER_D0_T132_RK1_A0_W0_EM1_RI1_ID0013
 10
869.91
 20
2040.00
 30
16.50
 42
0.469338
  0
VERTEX
  8
BORDER_D0_T132_RK1_A0_W0_EM1_RI1_ID0013
 10
1065.39
 20
2040.00
 30
16.50
  0
VERTEX
  8
BORDER_D0_T132_RK1_A0_W0_EM1_RI1_ID0013
 10
1065.39
 20
2015.42
 30
16.50
  0
SEQEND
  8
BORDER_D0_T132_RK1_A0_W0_EM1_RI1_ID0013
  0
POLYLINE
  8
BORDER_D0_T132_RK1_A0_W0_EM1_RI1_ID0007
 70
1
 66
1
  0
VERTEX
  8
BORDER_D0_T132_RK1_A0_W0_EM1_RI1_ID0007
 10
802.43
 20
1856.96
 30
16.50
  0
VERTEX
  8
BORDER_D0_T132_RK1_A0_W0_EM1_RI1_ID0007
 10
869.96
 20
1878.91
 30
16.50
  0
VERTEX
  8
BORDER_D0_T132_RK1_A0_W0_EM1_RI1_ID0007
 10
869.96
 20
1949.92
 30
16.50
  0
VERTEX
  8
BORDER_D0_T132_RK1_A0_W0_EM1_RI1_ID0007
 10
911.70
 20
1892.47
 30
16.50
  0
VERTEX
  8
BORDER_D0_T132_RK1_A0_W0_EM1_RI1_ID0007
 10
979.24
 20
1914.41
 30
16.50
  0
VERTEX
  8
BORDER_D0_T132_RK1_A0_W0_EM1_RI1_ID0007
 10
937.50
 20
1856.96
 30
16.50
  0
VERTEX
  8
BORDER_D0_T132_RK1_A0_W0_EM1_RI1_ID0007
 10
979.24
 20
1799.51
 30
16.50
  0
VERTEX
  8
BORDER_D0_T132_RK1_A0_W0_EM1_RI1_ID0007
 10
911.70
 20
1821.46
 30
16.50
  0
VERTEX
  8
BORDER_D0_T132_RK1_A0_W0_EM1_RI1_ID0007
 10
869.96
 20
1764.01
 30
16.50
  0
VERTEX
  8
BORDER_D0_T132_RK1_A0_W0_EM1_RI1_ID0007
 10
869.96
 20
1835.02
 30
16.50
  0
VERTEX
  8
BORDER_D0_T132_RK1_A0_W0_EM1_RI1_ID0007
 10
802.43
 20
1856.96
 30
16.50
  0
SEQEND
  8
BORDER_D0_T132_RK1_A0_W0_EM1_RI1_ID0007
  0
POLYLINE
  8
BORDER_D0_T132_RK1_A0_W0_EM1_RI1_ID0025
 70
1
 66
1
  0
VERTEX
  8
BORDER_D0_T132_RK1_A0_W0_EM1_RI1_ID0025
 10
678.42
 20
1947.04
 30
16.50
  0
VERTEX
  8
BORDER_D0_T132_RK1_A0_W0_EM1_RI1_ID0025
 10
745.95
 20
2040.00
 30
16.50
  0
VERTEX
  8
BORDER_D0_T132_RK1_A0_W0_EM1_RI1_ID0025
 10
855.23
 20
2004.49
 30
16.50
  0
VERTEX
  8
BORDER_D0_T132_RK1_A0_W0_EM1_RI1_ID0025
 10
855.23
 20
1889.59
 30
16.50
  0
VERTEX
  8
BORDER_D0_T132_RK1_A0_W0_EM1_RI1_ID0025
 10
745.95
 20
1854.09
 30
16.50
  0
VERTEX
  8
BORDER_D0_T132_RK1_A0_W0_EM1_RI1_ID0025
 10
678.42
 20
1947.04
 30
16.50
  0
SEQEND
  8
BORDER_D0_T132_RK1_A0_W0_EM1_RI1_ID0025
  0
POLYLINE
  8
BORDER_D0_T132_RK1_A0_W0_EM1_RI1_ID0022
 70
1
 66
1
  0
VERTEX
  8
BORDER_D0_T132_RK1_A0_W0_EM1_RI1_ID0022
 10
444.10
 20
2040.00
 30
16.50
 42
-0.076784
  0
VERTEX
  8
BORDER_D0_T132_RK1_A0_W0_EM1_RI1_ID0022
 10
519.48
 20
2028.26
 30
16.50
 42
-0.068057
  0
VERTEX
  8
BORDER_D0_T132_RK1_A0_W0_EM1_RI1_ID0022
 10
592.57
 20
1993.39
 30
16.50
 42
-0.056097
  0
VERTEX
  8
BORDER_D0_T132_RK1_A0_W0_EM1_RI1_ID0022
 10
661.15
 20
1936.44
 30
16.50
 42
-0.045361
  0
VERTEX
  8
BORDER_D0_T132_RK1_A0_W0_EM1_RI1_ID0022
 10
723.13
 20
1859.16
 30
16.50
 42
-0.037263
  0
VERTEX
  8
BORDER_D0_T132_RK1_A0_W0_EM1_RI1_ID0022
 10
776.64
 20
1763.89
 30
16.50
 42
-0.031618
  0
VERTEX
  8
BORDER_D0_T132_RK1_A0_W0_EM1_RI1_ID0022
 10
820.04
 20
1653.53
 30
16.50
 42
-0.027907
  0
VERTEX
  8
BORDER_D0_T132_RK1_A0_W0_EM1_RI1_ID0022
 10
852.02
 20
1531.41
 30
16.50
 42
-0.025666
  0
VERTEX
  8
BORDER_D0_T132_RK1_A0_W0_EM1_RI1_ID0022
 10
871.60
 20
1401.27
 30
16.50
 42
-0.024617
  0
VERTEX
  8
BORDER_D0_T132_RK1_A0_W0_EM1_RI1_ID0022
 10
878.20
 20
1267.05
 30
16.50
 42
-0.024617
  0
VERTEX
  8
BORDER_D0_T132_RK1_A0_W0_EM1_RI1_ID0022
 10
871.60
 20
1132.83
 30
16.50
 42
-0.025666
  0
VERTEX
  8
BORDER_D0_T132_RK1_A0_W0_EM1_RI1_ID0022
 10
852.02
 20
1002.69
 30
16.50
 42
-0.027905
  0
VERTEX
  8
BORDER_D0_T132_RK1_A0_W0_EM1_RI1_ID0022
 10
820.04
 20
880.58
 30
16.50
 42
-0.031620
  0
VERTEX
  8
BORDER_D0_T132_RK1_A0_W0_EM1_RI1_ID0022
 10
776.64
 20
770.21
 30
16.50
 42
-0.037263
  0
VERTEX
  8
BORDER_D0_T132_RK1_A0_W0_EM1_RI1_ID0022
 10
723.13
 20
674.94
 30
16.50
 42
-0.045361
  0
VERTEX
  8
BORDER_D0_T132_RK1_A0_W0_EM1_RI1_ID0022
 10
661.15
 20
597.66
 30
16.50
 42
-0.056093
  0
VERTEX
  8
BORDER_D0_T132_RK1_A0_W0_EM1_RI1_ID0022
 10
592.57
 20
540.72
 30
16.50
 42
-0.068061
  0
VERTEX
  8
BORDER_D0_T132_RK1_A0_W0_EM1_RI1_ID0022
 10
519.48
 20
505.84
 30
16.50
 42
-0.076784
  0
VERTEX
  8
BORDER_D0_T132_RK1_A0_W0_EM1_RI1_ID0022
 10
444.10
 20
494.10
 30
16.50
 42
-0.076784
  0
VERTEX
  8
BORDER_D0_T132_RK1_A0_W0_EM1_RI1_ID0022
 10
368.72
 20
505.84
 30
16.50
 42
-0.068061
  0
VERTEX
  8
BORDER_D0_T132_RK1_A0_W0_EM1_RI1_ID0022
 10
295.63
 20
540.72
 30
16.50
 42
-0.056093
  0
VERTEX
  8
BORDER_D0_T132_RK1_A0_W0_EM1_RI1_ID0022
 10
227.05
 20
597.66
 30
16.50
 42
-0.045361
  0
VERTEX
  8
BORDER_D0_T132_RK1_A0_W0_EM1_RI1_ID0022
 10
165.07
 20
674.94
 30
16.50
 42
-0.037263
  0
VERTEX
  8
BORDER_D0_T132_RK1_A0_W0_EM1_RI1_ID0022
 10
111.56
 20
770.21
 30
16.50
 42
-0.031620
  0
VERTEX
  8
BORDER_D0_T132_RK1_A0_W0_EM1_RI1_ID0022
 10
68.16
 20
880.58
 30
16.50
 42
-0.027905
  0
VERTEX
  8
BORDER_D0_T132_RK1_A0_W0_EM1_RI1_ID0022
 10
36.18
 20
1002.69
 30
16.50
 42
-0.025667
  0
VERTEX
  8
BORDER_D0_T132_RK1_A0_W0_EM1_RI1_ID0022
 10
16.59
 20
1132.83
 30
16.50
 42
-0.024617
  0
VERTEX
  8
BORDER_D0_T132_RK1_A0_W0_EM1_RI1_ID0022
 10
10.00
 20
1267.05
 30
16.50
 42
-0.024617
  0
VERTEX
  8
BORDER_D0_T132_RK1_A0_W0_EM1_RI1_ID0022
 10
16.59
 20
1401.27
 30
16.50
 42
-0.025667
  0
VERTEX
  8
BORDER_D0_T132_RK1_A0_W0_EM1_RI1_ID0022
 10
36.18
 20
1531.41
 30
16.50
 42
-0.027907
  0
VERTEX
  8
BORDER_D0_T132_RK1_A0_W0_EM1_RI1_ID0022
 10
68.16
 20
1653.53
 30
16.50
 42
-0.031618
  0
VERTEX
  8
BORDER_D0_T132_RK1_A0_W0_EM1_RI1_ID0022
 10
111.56
 20
1763.89
 30
16.50
 42
-0.037263
  0
VERTEX
  8
BORDER_D0_T132_RK1_A0_W0_EM1_RI1_ID0022
 10
165.07
 20
1859.16
 30
16.50
 42
-0.045361
  0
VERTEX
  8
BORDER_D0_T132_RK1_A0_W0_EM1_RI1_ID0022
 10
227.05
 20
1936.44
 30
16.50
 42
-0.056097
  0
VERTEX
  8
BORDER_D0_T132_RK1_A0_W0_EM1_RI1_ID0022
 10
295.63
 20
1993.39
 30
16.50
 42
-0.068057
  0
VERTEX
  8
BORDER_D0_T132_RK1_A0_W0_EM1_RI1_ID0022
 10
368.72
 20
2028.26
 30
16.50
 42
-0.076784
  0
VERTEX
  8
BORDER_D0_T132_RK1_A0_W0_EM1_RI1_ID0022
 10
444.10
 20
2040.00
 30
16.50
  0
SEQEND
  8
BORDER_D0_T132_RK1_A0_W0_EM1_RI1_ID0022
  0
POLYLINE
  8
BORDER_D0_T132_RK1_A0_W0_EM1_RI1_ID0025
 70
1
 66
1
  0
VERTEX
  8
BORDER_D0_T132_RK1_A0_W0_EM1_RI1_ID0025
 10
186.81
 20
1947.05
 30
16.50
  0
VERTEX
  8
BORDER_D0_T132_RK1_A0_W0_EM1_RI1_ID0025
 10
119.28
 20
1854.09
 30
16.50
  0
VERTEX
  8
BORDER_D0_T132_RK1_A0_W0_EM1_RI1_ID0025
 10
10.00
 20
1889.60
 30
16.50
  0
VERTEX
  8
BORDER_D0_T132_RK1_A0_W0_EM1_RI1_ID0025
 10
10.00
 20
2004.50
 30
16.50
  0
VERTEX
  8
BORDER_D0_T132_RK1_A0_W0_EM1_RI1_ID0025
 10
119.28
 20
2040.00
 30
16.50
  0
VERTEX
  8
BORDER_D0_T132_RK1_A0_W0_EM1_RI1_ID0025
 10
186.81
 20
1947.05
 30
16.50
  0
SEQEND
  8
BORDER_D0_T132_RK1_A0_W0_EM1_RI1_ID0025
  0
POLYLINE
  8
BORDER_D0_T132.1_RK1_A0_W0_EM1
 70
1
 66
1
  0
VERTEX
  8
BORDER_D0_T132.1_RK1_A0_W0_EM1
 10
460.69
 20
143.76
 30
18.20
  0
VERTEX
  8
BORDER_D0_T132.1_RK1_A0_W0_EM1
 10
952.57
 20
143.76
 30
18.20
 42
-0.106579
  0
VERTEX
  8
BORDER_D0_T132.1_RK1_A0_W0_EM1
 10
948.83
 20
126.79
 30
18.20
 42
-0.081333
  0
VERTEX
  8
BORDER_D0_T132.1_RK1_A0_W0_EM1
 10
937.74
 20
110.33
 30
18.20
 42
-0.056347
  0
VERTEX
  8
BORDER_D0_T132.1_RK1_A0_W0_EM1
 10
919.62
 20
94.89
 30
18.20
 42
-0.039878
  0
VERTEX
  8
BORDER_D0_T132.1_RK1_A0_W0_EM1
 10
895.03
 20
80.93
 30
18.20
 42
-0.029940
  0
VERTEX
  8
BORDER_D0_T132.1_RK1_A0_W0_EM1
 10
864.72
 20
68.88
 30
18.20
 42
-0.023968
  0
VERTEX
  8
BORDER_D0_T132.1_RK1_A0_W0_EM1
 10
829.60
 20
59.11
 30
18.20
 42
-0.020393
  0
VERTEX
  8
BORDER_D0_T132.1_RK1_A0_W0_EM1
 10
790.74
 20
51.91
 30
18.20
 42
-0.018360
  0
VERTEX
  8
BORDER_D0_T132.1_RK1_A0_W0_EM1
 10
749.34
 20
47.50
 30
18.20
 42
-0.017435
  0
VERTEX
  8
BORDER_D0_T132.1_RK1_A0_W0_EM1
 10
706.63
 20
46.02
 30
18.20
 42
-0.017435
  0
VERTEX
  8
BORDER_D0_T132.1_RK1_A0_W0_EM1
 10
663.92
 20
47.50
 30
18.20
 42
-0.018360
  0
VERTEX
  8
BORDER_D0_T132.1_RK1_A0_W0_EM1
 10
622.51
 20
51.91
 30
18.20
 42
-0.020393
  0
VERTEX
  8
BORDER_D0_T132.1_RK1_A0_W0_EM1
 10
583.66
 20
59.11
 30
18.20
 42
-0.023968
  0
VERTEX
  8
BORDER_D0_T132.1_RK1_A0_W0_EM1
 10
548.54
 20
68.88
 30
18.20
 42
-0.029940
  0
VERTEX
  8
BORDER_D0_T132.1_RK1_A0_W0_EM1
 10
518.23
 20
80.93
 30
18.20
 42
-0.039878
  0
VERTEX
  8
BORDER_D0_T132.1_RK1_A0_W0_EM1
 10
493.64
 20
94.89
 30
18.20
 42
-0.056346
  0
VERTEX
  8
BORDER_D0_T132.1_RK1_A0_W0_EM1
 10
475.52
 20
110.33
 30
18.20
 42
-0.081333
  0
VERTEX
  8
BORDER_D0_T132.1_RK1_A0_W0_EM1
 10
464.42
 20
126.79
 30
18.20
 42
-0.106579
  0
VERTEX
  8
BORDER_D0_T132.1_RK1_A0_W0_EM1
 10
460.69
 20
143.76
 30
18.20
  0
SEQEND
  8
BORDER_D0_T132.1_RK1_A0_W0_EM1
  0
POLYLINE
  8
BORDER_D0_T132.1_RK1_A0_W0_EM1
 70
1
 66
1
  0
VERTEX
  8
BORDER_D0_T132.1_RK1_A0_W0_EM1
 10
501.88
 20
158.46
 30
18.20
  0
VERTEX
  8
BORDER_D0_T132.1_RK1_A0_W0_EM1
 10
10.00
 20
158.46
 30
18.20
 42
-0.106579
  0
VERTEX
  8
BORDER_D0_T132.1_RK1_A0_W0_EM1
 10
13.74
 20
175.43
 30
18.20
 42
-0.081333
  0
VERTEX
  8
BORDER_D0_T132.1_RK1_A0_W0_EM1
 10
24.83
 20
191.88
 30
18.20
 42
-0.056346
  0
VERTEX
  8
BORDER_D0_T132.1_RK1_A0_W0_EM1
 10
42.95
 20
207.32
 30
18.20
 42
-0.039878
  0
VERTEX
  8
BORDER_D0_T132.1_RK1_A0_W0_EM1
 10
67.54
 20
221.28
 30
18.20
 42
-0.029940
  0
VERTEX
  8
BORDER_D0_T132.1_RK1_A0_W0_EM1
 10
97.85
 20
233.33
 30
18.20
 42
-0.023968
  0
VERTEX
  8
BORDER_D0_T132.1_RK1_A0_W0_EM1
 10
132.97
 20
243.10
 30
18.20
 42
-0.020393
  0
VERTEX
  8
BORDER_D0_T132.1_RK1_A0_W0_EM1
 10
171.82
 20
250.30
 30
18.20
 42
-0.018360
  0
VERTEX
  8
BORDER_D0_T132.1_RK1_A0_W0_EM1
 10
213.23
 20
254.71
 30
18.20
 42
-0.017435
  0
VERTEX
  8
BORDER_D0_T132.1_RK1_A0_W0_EM1
 10
255.94
 20
256.20
 30
18.20
 42
-0.017435
  0
VERTEX
  8
BORDER_D0_T132.1_RK1_A0_W0_EM1
 10
298.65
 20
254.71
 30
18.20
 42
-0.018360
  0
VERTEX
  8
BORDER_D0_T132.1_RK1_A0_W0_EM1
 10
340.06
 20
250.30
 30
18.20
 42
-0.020393
  0
VERTEX
  8
BORDER_D0_T132.1_RK1_A0_W0_EM1
 10
378.91
 20
243.10
 30
18.20
 42
-0.023968
  0
VERTEX
  8
BORDER_D0_T132.1_RK1_A0_W0_EM1
 10
414.03
 20
233.33
 30
18.20
 42
-0.029940
  0
VERTEX
  8
BORDER_D0_T132.1_RK1_A0_W0_EM1
 10
444.34
 20
221.28
 30
18.20
 42
-0.039878
  0
VERTEX
  8
BORDER_D0_T132.1_RK1_A0_W0_EM1
 10
468.93
 20
207.32
 30
18.20
 42
-0.056346
  0
VERTEX
  8
BORDER_D0_T132.1_RK1_A0_W0_EM1
 10
487.05
 20
191.88
 30
18.20
 42
-0.081333
  0
VERTEX
  8
BORDER_D0_T132.1_RK1_A0_W0_EM1
 10
498.14
 20
175.43
 30
18.20
 42
-0.106579
  0
VERTEX
  8
BORDER_D0_T132.1_RK1_A0_W0_EM1
 10
501.88
 20
158.46
 30
18.20
  0
SEQEND
  8
BORDER_D0_T132.1_RK1_A0_W0_EM1
  0
POLYLINE
  8
BORDER_D0_T132.1_RK1_A0_W0_EM1
 70
1
 66
1
  0
VERTEX
  8
BORDER_D0_T132.1_RK1_A0_W0_EM1
 10
501.88
 20
46.02
 30
18.20
  0
VERTEX
  8
BORDER_D0_T132.1_RK1_A0_W0_EM1
 10
10.00
 20
46.02
 30
18.20
 42
-0.106579
  0
VERTEX
  8
BORDER_D0_T132.1_RK1_A0_W0_EM1
 10
13.74
 20
62.99
 30
18.20
 42
-0.081333
  0
VERTEX
  8
BORDER_D0_T132.1_RK1_A0_W0_EM1
 10
24.83
 20
79.45
 30
18.20
 42
-0.056346
  0
VERTEX
  8
BORDER_D0_T132.1_RK1_A0_W0_EM1
 10
42.95
 20
94.89
 30
18.20
 42
-0.039878
  0
VERTEX
  8
BORDER_D0_T132.1_RK1_A0_W0_EM1
 10
67.54
 20
108.84
 30
18.20
 42
-0.029940
  0
VERTEX
  8
BORDER_D0_T132.1_RK1_A0_W0_EM1
 10
97.85
 20
120.89
 30
18.20
 42
-0.023968
  0
VERTEX
  8
BORDER_D0_T132.1_RK1_A0_W0_EM1
 10
132.97
 20
130.66
 30
18.20
 42
-0.020393
  0
VERTEX
  8
BORDER_D0_T132.1_RK1_A0_W0_EM1
 10
171.82
 20
137.86
 30
18.20
 42
-0.018360
  0
VERTEX
  8
BORDER_D0_T132.1_RK1_A0_W0_EM1
 10
213.23
 20
142.27
 30
18.20
 42
-0.017435
  0
VERTEX
  8
BORDER_D0_T132.1_RK1_A0_W0_EM1
 10
255.94
 20
143.76
 30
18.20
 42
-0.017435
  0
VERTEX
  8
BORDER_D0_T132.1_RK1_A0_W0_EM1
 10
298.65
 20
142.27
 30
18.20
 42
-0.018360
  0
VERTEX
  8
BORDER_D0_T132.1_RK1_A0_W0_EM1
 10
340.06
 20
137.86
 30
18.20
 42
-0.020393
  0
VERTEX
  8
BORDER_D0_T132.1_RK1_A0_W0_EM1
 10
378.91
 20
130.66
 30
18.20
 42
-0.023968
  0
VERTEX
  8
BORDER_D0_T132.1_RK1_A0_W0_EM1
 10
414.03
 20
120.89
 30
18.20
 42
-0.029940
  0
VERTEX
  8
BORDER_D0_T132.1_RK1_A0_W0_EM1
 10
444.34
 20
108.84
 30
18.20
 42
-0.039878
  0
VERTEX
  8
BORDER_D0_T132.1_RK1_A0_W0_EM1
 10
468.93
 20
94.89
 30
18.20
 42
-0.056346
  0
VERTEX
  8
BORDER_D0_T132.1_RK1_A0_W0_EM1
 10
487.05
 20
79.45
 30
18.20
 42
-0.081333
  0
VERTEX
  8
BORDER_D0_T132.1_RK1_A0_W0_EM1
 10
498.14
 20
62.99
 30
18.20
 42
-0.106579
  0
VERTEX
  8
BORDER_D0_T132.1_RK1_A0_W0_EM1
 10
501.88
 20
46.02
 30
18.20
  0
SEQEND
  8
BORDER_D0_T132.1_RK1_A0_W0_EM1
  0
POLYLINE
  8
BORDER_D0_T132.1_RK1_A0_W0_EM1
 70
1
 66
1
  0
VERTEX
  8
BORDER_D0_T132.1_RK1_A0_W0_EM1
 10
637.78
 20
308.65
 30
18.20
  0
VERTEX
  8
BORDER_D0_T132.1_RK1_A0_W0_EM1
 10
1309.11
 20
308.65
 30
18.20
  0
VERTEX
  8
BORDER_D0_T132.1_RK1_A0_W0_EM1
 10
1309.11
 20
227.94
 30
18.20
  0
VERTEX
  8
BORDER_D0_T132.1_RK1_A0_W0_EM1
 10
637.78
 20
227.94
 30
18.20
 42
-0.220731
  0
VERTEX
  8
BORDER_D0_T132.1_RK1_A0_W0_EM1
 10
10.00
 20
487.98
 30
18.20
  0
VERTEX
  8
BORDER_D0_T132.1_RK1_A0_W0_EM1
 10
67.07
 20
545.05
 30
18.20
 42
0.198912
  0
VERTEX
  8
BORDER_D0_T132.1_RK1_A0_W0_EM1
 10
637.78
 20
308.65
 30
18.20
  0
SEQEND
  8
BORDER_D0_T132.1_RK1_A0_W0_EM1
  0
POLYLINE
  8
BORDER_D0_T132.1_RK1_A0_W0_EM1
 70
1
 66
1
  0
VERTEX
  8
BORDER_D0_T132.1_RK1_A0_W0_EM1
 10
637.78
 20
441.86
 30
18.20
  0
VERTEX
  8
BORDER_D0_T132.1_RK1_A0_W0_EM1
 10
1309.11
 20
441.86
 30
18.20
  0
VERTEX
  8
BORDER_D0_T132.1_RK1_A0_W0_EM1
 10
1309.11
 20
361.15
 30
18.20
  0
VERTEX
  8
BORDER_D0_T132.1_RK1_A0_W0_EM1
 10
637.78
 20
361.15
 30
18.20
 42
-0.220731
  0
VERTEX
  8
BORDER_D0_T132.1_RK1_A0_W0_EM1
 10
10.00
 20
621.18
 30
18.20
  0
VERTEX
  8
BORDER_D0_T132.1_RK1_A0_W0_EM1
 10
67.07
 20
678.25
 30
18.20
 42
0.198912
  0
VERTEX
  8
BORDER_D0_T132.1_RK1_A0_W0_EM1
 10
637.78
 20
441.86
 30
18.20
  0
SEQEND
  8
BORDER_D0_T132.1_RK1_A0_W0_EM1
  0
POLYLINE
  8
BORDER_D0_T132.1_RK1_A0_W0_EM1
 70
1
 66
1
  0
VERTEX
  8
BORDER_D0_T132.1_RK1_A0_W0_EM1
 10
869.74
 20
629.56
 30
18.20
  0
VERTEX
  8
BORDER_D0_T132.1_RK1_A0_W0_EM1
 10
847.79
 20
697.10
 30
18.20
  0
VERTEX
  8
BORDER_D0_T132.1_RK1_A0_W0_EM1
 10
776.78
 20
697.10
 30
18.20
  0
VERTEX
  8
BORDER_D0_T132.1_RK1_A0_W0_EM1
 10
834.23
 20
738.84
 30
18.20
  0
VERTEX
  8
BORDER_D0_T132.1_RK1_A0_W0_EM1
 10
812.29
 20
806.38
 30
18.20
  0
VERTEX
  8
BORDER_D0_T132.1_RK1_A0_W0_EM1
 10
869.74
 20
764.64
 30
18.20
  0
VERTEX
  8
BORDER_D0_T132.1_RK1_A0_W0_EM1
 10
927.19
 20
806.38
 30
18.20
  0
VERTEX
  8
BORDER_D0_T132.1_RK1_A0_W0_EM1
 10
905.24
 20
738.84
 30
18.20
  0
VERTEX
  8
BORDER_D0_T132.1_RK1_A0_W0_EM1
 10
962.69
 20
697.10
 30
18.20
  0
VERTEX
  8
BORDER_D0_T132.1_RK1_A0_W0_EM1
 10
891.68
 20
697.10
 30
18.20
  0
VERTEX
  8
BORDER_D0_T132.1_RK1_A0_W0_EM1
 10
869.74
 20
629.56
 30
18.20
  0
SEQEND
  8
BORDER_D0_T132.1_RK1_A0_W0_EM1
  0
POLYLINE
  8
BORDER_D0_T132.1_RK1_A0_W0_EM1
 70
1
 66
1
  0
VERTEX
  8
BORDER_D0_T132.1_RK1_A0_W0_EM1
 10
1054.53
 20
476.13
 30
18.20
  0
VERTEX
  8
BORDER_D0_T132.1_RK1_A0_W0_EM1
 10
562.65
 20
476.13
 30
18.20
 42
-0.106579
  0
VERTEX
  8
BORDER_D0_T132.1_RK1_A0_W0_EM1
 10
566.38
 20
493.10
 30
18.20
 42
-0.081333
  0
VERTEX
  8
BORDER_D0_T132.1_RK1_A0_W0_EM1
 10
577.48
 20
509.56
 30
18.20
 42
-0.056347
  0
VERTEX
  8
BORDER_D0_T132.1_RK1_A0_W0_EM1
 10
595.60
 20
525.00
 30
18.20
 42
-0.039878
  0
VERTEX
  8
BORDER_D0_T132.1_RK1_A0_W0_EM1
 10
620.19
 20
538.96
 30
18.20
 42
-0.029940
  0
VERTEX
  8
BORDER_D0_T132.1_RK1_A0_W0_EM1
 10
650.50
 20
551.00
 30
18.20
 42
-0.023968
  0
VERTEX
  8
BORDER_D0_T132.1_RK1_A0_W0_EM1
 10
685.62
 20
560.78
 30
18.20
 42
-0.020393
  0
VERTEX
  8
BORDER_D0_T132.1_RK1_A0_W0_EM1
 10
724.47
 20
567.98
 30
18.20
 42
-0.018360
  0
VERTEX
  8
BORDER_D0_T132.1_RK1_A0_W0_EM1
 10
765.88
 20
572.39
 30
18.20
 42
-0.017435
  0
VERTEX
  8
BORDER_D0_T132.1_RK1_A0_W0_EM1
 10
808.59
 20
573.87
 30
18.20
 42
-0.017435
  0
VERTEX
  8
BORDER_D0_T132.1_RK1_A0_W0_EM1
 10
851.29
 20
572.39
 30
18.20
 42
-0.018360
  0
VERTEX
  8
BORDER_D0_T132.1_RK1_A0_W0_EM1
 10
892.70
 20
567.98
 30
18.20
 42
-0.020393
  0
VERTEX
  8
BORDER_D0_T132.1_RK1_A0_W0_EM1
 10
931.56
 20
560.78
 30
18.20
 42
-0.023968
  0
VERTEX
  8
BORDER_D0_T132.1_RK1_A0_W0_EM1
 10
966.67
 20
551.00
 30
18.20
 42
-0.029940
  0
VERTEX
  8
BORDER_D0_T132.1_RK1_A0_W0_EM1
 10
996.99
 20
538.96
 30
18.20
 42
-0.039878
  0
VERTEX
  8
BORDER_D0_T132.1_RK1_A0_W0_EM1
 10
1021.58
 20
525.00
 30
18.20
 42
-0.056347
  0
VERTEX
  8
BORDER_D0_T132.1_RK1_A0_W0_EM1
 10
1039.70
 20
509.56
 30
18.20
 42
-0.081333
  0
VERTEX
  8
BORDER_D0_T132.1_RK1_A0_W0_EM1
 10
1050.79
 20
493.10
 30
18.20
 42
-0.106579
  0
VERTEX
  8
BORDER_D0_T132.1_RK1_A0_W0_EM1
 10
1054.53
 20
476.13
 30
18.20
  0
SEQEND
  8
BORDER_D0_T132.1_RK1_A0_W0_EM1
  0
POLYLINE
  8
BORDER_D0_T132.1_RK1_A0_W0_EM1
 70
1
 66
1
  0
VERTEX
  8
BORDER_D0_T132.1_RK1_A0_W0_EM1
 10
1323.81
 20
201.49
 30
18.20
  0
VERTEX
  8
BORDER_D0_T132.1_RK1_A0_W0_EM1
 10
1323.81
 20
250.65
 30
18.20
 42
-0.333267
  0
VERTEX
  8
BORDER_D0_T132.1_RK1_A0_W0_EM1
 10
1519.29
 20
250.65
 30
18.20
  0
VERTEX
  8
BORDER_D0_T132.1_RK1_A0_W0_EM1
 10
1519.29
 20
201.49
 30
18.20
 42
0.469338
  0
VERTEX
  8
BORDER_D0_T132.1_RK1_A0_W0_EM1
 10
1323.81
 20
201.49
 30
18.20
  0
SEQEND
  8
BORDER_D0_T132.1_RK1_A0_W0_EM1
  0
POLYLINE
  8
BORDER_D0_T132.1_RK1_A0_W0_EM1
 70
1
 66
1
  0
VERTEX
  8
BORDER_D0_T132.1_RK1_A0_W0_EM1
 10
1434.45
 20
77.34
 30
18.20
  0
VERTEX
  8
BORDER_D0_T132.1_RK1_A0_W0_EM1
 10
942.57
 20
77.34
 30
18.20
 42
-0.106579
  0
VERTEX
  8
BORDER_D0_T132.1_RK1_A0_W0_EM1
 10
946.31
 20
94.31
 30
18.20
 42
-0.081333
  0
VERTEX
  8
BORDER_D0_T132.1_RK1_A0_W0_EM1
 10
957.41
 20
110.77
 30
18.20
 42
-0.056346
  0
VERTEX
  8
BORDER_D0_T132.1_RK1_A0_W0_EM1
 10
975.52
 20
126.21
 30
18.20
 42
-0.039878
  0
VERTEX
  8
BORDER_D0_T132.1_RK1_A0_W0_EM1
 10
1000.11
 20
140.17
 30
18.20
 42
-0.029940
  0
VERTEX
  8
BORDER_D0_T132.1_RK1_A0_W0_EM1
 10
1030.43
 20
152.21
 30
18.20
 42
-0.023968
  0
VERTEX
  8
BORDER_D0_T132.1_RK1_A0_W0_EM1
 10
1065.54
 20
161.99
 30
18.20
 42
-0.020393
  0
VERTEX
  8
BORDER_D0_T132.1_RK1_A0_W0_EM1
 10
1104.40
 20
169.19
 30
18.20
 42
-0.018360
  0
VERTEX
  8
BORDER_D0_T132.1_RK1_A0_W0_EM1
 10
1145.81
 20
173.60
 30
18.20
 42
-0.017435
  0
VERTEX
  8
BORDER_D0_T132.1_RK1_A0_W0_EM1
 10
1188.51
 20
175.08
 30
18.20
 42
-0.017435
  0
VERTEX
  8
BORDER_D0_T132.1_RK1_A0_W0_EM1
 10
1231.22
 20
173.60
 30
18.20
 42
-0.018360
  0
VERTEX
  8
BORDER_D0_T132.1_RK1_A0_W0_EM1
 10
1272.63
 20
169.19
 30
18.20
 42
-0.020393
  0
VERTEX
  8
BORDER_D0_T132.1_RK1_A0_W0_EM1
 10
1311.48
 20
161.99
 30
18.20
 42
-0.023968
  0
VERTEX
  8
BORDER_D0_T132.1_RK1_A0_W0_EM1
 10
1346.60
 20
152.21
 30
18.20
 42
-0.029940
  0
VERTEX
  8
BORDER_D0_T132.1_RK1_A0_W0_EM1
 10
1376.92
 20
140.17
 30
18.20
 42
-0.039878
  0
VERTEX
  8
BORDER_D0_T132.1_RK1_A0_W0_EM1
 10
1401.50
 20
126.21
 30
18.20
 42
-0.056346
  0
VERTEX
  8
BORDER_D0_T132.1_RK1_A0_W0_EM1
 10
1419.62
 20
110.77
 30
18.20
 42
-0.081333
  0
VERTEX
  8
BORDER_D0_T132.1_RK1_A0_W0_EM1
 10
1430.72
 20
94.31
 30
18.20
 42
-0.106579
  0
VERTEX
  8
BORDER_D0_T132.1_RK1_A0_W0_EM1
 10
1434.45
 20
77.34
 30
18.20
  0
SEQEND
  8
BORDER_D0_T132.1_RK1_A0_W0_EM1
  0
POLYLINE
  8
BORDER_D0_T132.1_RK1_A0_W0_EM1
 70
1
 66
1
  0
VERTEX
  8
BORDER_D0_T132.1_RK1_A0_W0_EM1
 10
1895.94
 20
151.67
 30
18.20
  0
VERTEX
  8
BORDER_D0_T132.1_RK1_A0_W0_EM1
 10
2387.82
 20
151.67
 30
18.20
 42
-0.106579
  0
VERTEX
  8
BORDER_D0_T132.1_RK1_A0_W0_EM1
 10
2384.09
 20
134.70
 30
18.20
 42
-0.081333
  0
VERTEX
  8
BORDER_D0_T132.1_RK1_A0_W0_EM1
 10
2372.99
 20
118.25
 30
18.20
 42
-0.056346
  0
VERTEX
  8
BORDER_D0_T132.1_RK1_A0_W0_EM1
 10
2354.87
 20
102.80
 30
18.20
 42
-0.039879
  0
VERTEX
  8
BORDER_D0_T132.1_RK1_A0_W0_EM1
 10
2330.28
 20
88.85
 30
18.20
 42
-0.029940
  0
VERTEX
  8
BORDER_D0_T132.1_RK1_A0_W0_EM1
 10
2299.97
 20
76.80
 30
18.20
 42
-0.023968
  0
VERTEX
  8
BORDER_D0_T132.1_RK1_A0_W0_EM1
 10
2264.85
 20
67.03
 30
18.20
 42
-0.020393
  0
VERTEX
  8
BORDER_D0_T132.1_RK1_A0_W0_EM1
 10
2226.00
 20
59.83
 30
18.20
 42
-0.018360
  0
VERTEX
  8
BORDER_D0_T132.1_RK1_A0_W0_EM1
 10
2184.59
 20
55.42
 30
18.20
 42
-0.017435
  0
VERTEX
  8
BORDER_D0_T132.1_RK1_A0_W0_EM1
 10
2141.88
 20
53.93
 30
18.20
 42
-0.017435
  0
VERTEX
  8
BORDER_D0_T132.1_RK1_A0_W0_EM1
 10
2099.18
 20
55.42
 30
18.20
 42
-0.018360
  0
VERTEX
  8
BORDER_D0_T132.1_RK1_A0_W0_EM1
 10
2057.77
 20
59.83
 30
18.20
 42
-0.020393
  0
VERTEX
  8
BORDER_D0_T132.1_RK1_A0_W0_EM1
 10
2018.91
 20
67.03
 30
18.20
 42
-0.023968
  0
VERTEX
  8
BORDER_D0_T132.1_RK1_A0_W0_EM1
 10
1983.80
 20
76.80
 30
18.20
 42
-0.029940
  0
VERTEX
  8
BORDER_D0_T132.1_RK1_A0_W0_EM1
 10
1953.48
 20
88.85
 30
18.20
 42
-0.039878
  0
VERTEX
  8
BORDER_D0_T132.1_RK1_A0_W0_EM1
 10
1928.89
 20
102.80
 30
18.20
 42
-0.056346
  0
VERTEX
  8
BORDER_D0_T132.1_RK1_A0_W0_EM1
 10
1910.77
 20
118.25
 30
18.20
 42
-0.081333
  0
VERTEX
  8
BORDER_D0_T132.1_RK1_A0_W0_EM1
 10
1899.68
 20
134.70
 30
18.20
 42
-0.106579
  0
VERTEX
  8
BORDER_D0_T132.1_RK1_A0_W0_EM1
 10
1895.94
 20
151.67
 30
18.20
  0
SEQEND
  8
BORDER_D0_T132.1_RK1_A0_W0_EM1
  0
POLYLINE
  8
BORDER_D0_T132.1_RK1_A0_W0_EM1
 70
1
 66
1
  0
VERTEX
  8
BORDER_D0_T132.1_RK1_A0_W0_EM1
 10
1937.15
 20
53.90
 30
18.20
  0
VERTEX
  8
BORDER_D0_T132.1_RK1_A0_W0_EM1
 10
1445.27
 20
53.90
 30
18.20
 42
-0.106579
  0
VERTEX
  8
BORDER_D0_T132.1_RK1_A0_W0_EM1
 10
1449.01
 20
70.88
 30
18.20
 42
-0.081333
  0
VERTEX
  8
BORDER_D0_T132.1_RK1_A0_W0_EM1
 10
1460.10
 20
87.33
 30
18.20
 42
-0.056347
  0
VERTEX
  8
BORDER_D0_T132.1_RK1_A0_W0_EM1
 10
1478.22
 20
102.77
 30
18.20
 42
-0.039878
  0
VERTEX
  8
BORDER_D0_T132.1_RK1_A0_W0_EM1
 10
1502.81
 20
116.73
 30
18.20
 42
-0.029939
  0
VERTEX
  8
BORDER_D0_T132.1_RK1_A0_W0_EM1
 10
1533.12
 20
128.78
 30
18.20
 42
-0.023968
  0
VERTEX
  8
BORDER_D0_T132.1_RK1_A0_W0_EM1
 10
1568.24
 20
138.55
 30
18.20
 42
-0.020393
  0
VERTEX
  8
BORDER_D0_T132.1_RK1_A0_W0_EM1
 10
1607.09
 20
145.75
 30
18.20
 42
-0.018360
  0
VERTEX
  8
BORDER_D0_T132.1_RK1_A0_W0_EM1
 10
1648.50
 20
150.16
 30
18.20
 42
-0.017435
  0
VERTEX
  8
BORDER_D0_T132.1_RK1_A0_W0_EM1
 10
1691.21
 20
151.64
 30
18.20
 42
-0.017435
  0
VERTEX
  8
BORDER_D0_T132.1_RK1_A0_W0_EM1
 10
1733.92
 20
150.16
 30
18.20
 42
-0.018360
  0
VERTEX
  8
BORDER_D0_T132.1_RK1_A0_W0_EM1
 10
1775.32
 20
145.75
 30
18.20
 42
-0.020393
  0
VERTEX
  8
BORDER_D0_T132.1_RK1_A0_W0_EM1
 10
1814.18
 20
138.55
 30
18.20
 42
-0.023968
  0
VERTEX
  8
BORDER_D0_T132.1_RK1_A0_W0_EM1
 10
1849.30
 20
128.78
 30
18.20
 42
-0.029939
  0
VERTEX
  8
BORDER_D0_T132.1_RK1_A0_W0_EM1
 10
1879.61
 20
116.73
 30
18.20
 42
-0.039878
  0
VERTEX
  8
BORDER_D0_T132.1_RK1_A0_W0_EM1
 10
1904.20
 20
102.77
 30
18.20
 42
-0.056347
  0
VERTEX
  8
BORDER_D0_T132.1_RK1_A0_W0_EM1
 10
1922.32
 20
87.33
 30
18.20
 42
-0.081333
  0
VERTEX
  8
BORDER_D0_T132.1_RK1_A0_W0_EM1
 10
1933.41
 20
70.88
 30
18.20
 42
-0.106579
  0
VERTEX
  8
BORDER_D0_T132.1_RK1_A0_W0_EM1
 10
1937.15
 20
53.90
 30
18.20
  0
SEQEND
  8
BORDER_D0_T132.1_RK1_A0_W0_EM1
  0
POLYLINE
  8
BORDER_D0_T132.1_RK1_A0_W0_EM1
 70
1
 66
1
  0
VERTEX
  8
BORDER_D0_T132.1_RK1_A0_W0_EM1
 10
1951.71
 20
247.79
 30
18.20
  0
VERTEX
  8
BORDER_D0_T132.1_RK1_A0_W0_EM1
 10
2623.04
 20
247.79
 30
18.20
  0
VERTEX
  8
BORDER_D0_T132.1_RK1_A0_W0_EM1
 10
2623.04
 20
167.08
 30
18.20
  0
VERTEX
  8
BORDER_D0_T132.1_RK1_A0_W0_EM1
 10
1951.71
 20
167.08
 30
18.20
 42
-0.220731
  0
VERTEX
  8
BORDER_D0_T132.1_RK1_A0_W0_EM1
 10
1323.93
 20
427.11
 30
18.20
  0
VERTEX
  8
BORDER_D0_T132.1_RK1_A0_W0_EM1
 10
1381.00
 20
484.18
 30
18.20
 42
0.198912
  0
VERTEX
  8
BORDER_D0_T132.1_RK1_A0_W0_EM1
 10
1951.71
 20
247.79
 30
18.20
  0
SEQEND
  8
BORDER_D0_T132.1_RK1_A0_W0_EM1
  0
POLYLINE
  8
BORDER_D0_T132.1_RK1_A0_W0_EM1
 70
1
 66
1
  0
VERTEX
  8
BORDER_D0_T132.1_RK1_A0_W0_EM1
 10
1935.70
 20
475.00
 30
18.20
 42
-0.106579
  0
VERTEX
  8
BORDER_D0_T132.1_RK1_A0_W0_EM1
 10
1931.97
 20
458.03
 30
18.20
 42
-0.081333
  0
VERTEX
  8
BORDER_D0_T132.1_RK1_A0_W0_EM1
 10
1920.87
 20
441.57
 30
18.20
 42
-0.056347
  0
VERTEX
  8
BORDER_D0_T132.1_RK1_A0_W0_EM1
 10
1902.76
 20
426.13
 30
18.20
 42
-0.039878
  0
VERTEX
  8
BORDER_D0_T132.1_RK1_A0_W0_EM1
 10
1878.17
 20
412.17
 30
18.20
 42
-0.029940
  0
VERTEX
  8
BORDER_D0_T132.1_RK1_A0_W0_EM1
 10
1847.85
 20
400.13
 30
18.20
 42
-0.023968
  0
VERTEX
  8
BORDER_D0_T132.1_RK1_A0_W0_EM1
 10
1812.73
 20
390.36
 30
18.20
 42
-0.020393
  0
VERTEX
  8
BORDER_D0_T132.1_RK1_A0_W0_EM1
 10
1773.88
 20
383.15
 30
18.20
 42
-0.018360
  0
VERTEX
  8
BORDER_D0_T132.1_RK1_A0_W0_EM1
 10
1732.47
 20
378.74
 30
18.20
 42
-0.017435
  0
VERTEX
  8
BORDER_D0_T132.1_RK1_A0_W0_EM1
 10
1689.77
 20
377.26
 30
18.20
 42
-0.017435
  0
VERTEX
  8
BORDER_D0_T132.1_RK1_A0_W0_EM1
 10
1647.06
 20
378.74
 30
18.20
 42
-0.018360
  0
VERTEX
  8
BORDER_D0_T132.1_RK1_A0_W0_EM1
 10
1605.65
 20
383.15
 30
18.20
 42
-0.020393
  0
VERTEX
  8
BORDER_D0_T132.1_RK1_A0_W0_EM1
 10
1566.80
 20
390.36
 30
18.20
 42
-0.023968
  0
VERTEX
  8
BORDER_D0_T132.1_RK1_A0_W0_EM1
 10
1531.68
 20
400.13
 30
18.20
 42
-0.029940
  0
VERTEX
  8
BORDER_D0_T132.1_RK1_A0_W0_EM1
 10
1501.36
 20
412.17
 30
18.20
 42
-0.039878
  0
VERTEX
  8
BORDER_D0_T132.1_RK1_A0_W0_EM1
 10
1476.78
 20
426.13
 30
18.20
 42
-0.056346
  0
VERTEX
  8
BORDER_D0_T132.1_RK1_A0_W0_EM1
 10
1458.66
 20
441.57
 30
18.20
 42
-0.081333
  0
VERTEX
  8
BORDER_D0_T132.1_RK1_A0_W0_EM1
 10
1447.56
 20
458.03
 30
18.20
 42
-0.106579
  0
VERTEX
  8
BORDER_D0_T132.1_RK1_A0_W0_EM1
 10
1443.82
 20
475.00
 30
18.20
 42
-0.106579
  0
VERTEX
  8
BORDER_D0_T132.1_RK1_A0_W0_EM1
 10
1447.56
 20
491.97
 30
18.20
 42
-0.081333
  0
VERTEX
  8
BORDER_D0_T132.1_RK1_A0_W0_EM1
 10
1458.66
 20
508.43
 30
18.20
 42
-0.056346
  0
VERTEX
  8
BORDER_D0_T132.1_RK1_A0_W0_EM1
 10
1476.78
 20
523.87
 30
18.20
 42
-0.039878
  0
VERTEX
  8
BORDER_D0_T132.1_RK1_A0_W0_EM1
 10
1501.36
 20
537.83
 30
18.20
 42
-0.029940
  0
VERTEX
  8
BORDER_D0_T132.1_RK1_A0_W0_EM1
 10
1531.68
 20
549.87
 30
18.20
 42
-0.023968
  0
VERTEX
  8
BORDER_D0_T132.1_RK1_A0_W0_EM1
 10
1566.80
 20
559.65
 30
18.20
 42
-0.020393
  0
VERTEX
  8
BORDER_D0_T132.1_RK1_A0_W0_EM1
 10
1605.65
 20
566.85
 30
18.20
 42
-0.018360
  0
VERTEX
  8
BORDER_D0_T132.1_RK1_A0_W0_EM1
 10
1647.06
 20
571.26
 30
18.20
 42
-0.017435
  0
VERTEX
  8
BORDER_D0_T132.1_RK1_A0_W0_EM1
 10
1689.77
 20
572.74
 30
18.20
 42
-0.017435
  0
VERTEX
  8
BORDER_D0_T132.1_RK1_A0_W0_EM1
 10
1732.47
 20
571.26
 30
18.20
 42
-0.018360
  0
VERTEX
  8
BORDER_D0_T132.1_RK1_A0_W0_EM1
 10
1773.88
 20
566.85
 30
18.20
 42
-0.020393
  0
VERTEX
  8
BORDER_D0_T132.1_RK1_A0_W0_EM1
 10
1812.73
 20
559.65
 30
18.20
 42
-0.023968
  0
VERTEX
  8
BORDER_D0_T132.1_RK1_A0_W0_EM1
 10
1847.85
 20
549.87
 30
18.20
 42
-0.029939
  0
VERTEX
  8
BORDER_D0_T132.1_RK1_A0_W0_EM1
 10
1878.17
 20
537.83
 30
18.20
 42
-0.039878
  0
VERTEX
  8
BORDER_D0_T132.1_RK1_A0_W0_EM1
 10
1902.76
 20
523.87
 30
18.20
 42
-0.056347
  0
VERTEX
  8
BORDER_D0_T132.1_RK1_A0_W0_EM1
 10
1920.87
 20
508.43
 30
18.20
 42
-0.081333
  0
VERTEX
  8
BORDER_D0_T132.1_RK1_A0_W0_EM1
 10
1931.97
 20
491.97
 30
18.20
 42
-0.106579
  0
VERTEX
  8
BORDER_D0_T132.1_RK1_A0_W0_EM1
 10
1935.70
 20
475.00
 30
18.20
  0
SEQEND
  8
BORDER_D0_T132.1_RK1_A0_W0_EM1
  0
POLYLINE
  8
BORDER_D0_T132.1_RK1_A0_W0_EM1
 70
1
 66
1
  0
VERTEX
  8
BORDER_D0_T132.1_RK1_A0_W0_EM1
 10
1747.68
 20
788.41
 30
18.20
  0
VERTEX
  8
BORDER_D0_T132.1_RK1_A0_W0_EM1
 10
1840.63
 20
720.87
 30
18.20
  0
VERTEX
  8
BORDER_D0_T132.1_RK1_A0_W0_EM1
 10
1805.13
 20
611.59
 30
18.20
  0
VERTEX
  8
BORDER_D0_T132.1_RK1_A0_W0_EM1
 10
1690.22
 20
611.59
 30
18.20
  0
VERTEX
  8
BORDER_D0_T132.1_RK1_A0_W0_EM1
 10
1654.72
 20
720.87
 30
18.20
  0
VERTEX
  8
BORDER_D0_T132.1_RK1_A0_W0_EM1
 10
1747.68
 20
788.41
 30
18.20
  0
SEQEND
  8
BORDER_D0_T132.1_RK1_A0_W0_EM1
  0
POLYLINE
  8
BORDER_D0_T132.1_RK1_A0_W0_EM1
 70
1
 66
1
  0
VERTEX
  8
BORDER_D0_T132.1_RK1_A0_W0_EM1
 10
2389.88
 20
515.00
 30
18.20
  0
VERTEX
  8
BORDER_D0_T132.1_RK1_A0_W0_EM1
 10
2457.41
 20
607.96
 30
18.20
  0
VERTEX
  8
BORDER_D0_T132.1_RK1_A0_W0_EM1
 10
2566.69
 20
572.45
 30
18.20
  0
VERTEX
  8
BORDER_D0_T132.1_RK1_A0_W0_EM1
 10
2566.69
 20
457.55
 30
18.20
  0
VERTEX
  8
BORDER_D0_T132.1_RK1_A0_W0_EM1
 10
2457.41
 20
422.04
 30
18.20
  0
VERTEX
  8
BORDER_D0_T132.1_RK1_A0_W0_EM1
 10
2389.88
 20
515.00
 30
18.20
  0
SEQEND
  8
BORDER_D0_T132.1_RK1_A0_W0_EM1
  0
POLYLINE
  8
BORDER_D0_T132.1_RK1_A0_W0_EM1
 70
1
 66
1
  0
VERTEX
  8
BORDER_D0_T132.1_RK1_A0_W0_EM1
 10
2389.88
 20
380.00
 30
18.20
 42
-0.106564
  0
VERTEX
  8
BORDER_D0_T132.1_RK1_A0_W0_EM1
 10
2386.15
 20
363.03
 30
18.20
 42
-0.081333
  0
VERTEX
  8
BORDER_D0_T132.1_RK1_A0_W0_EM1
 10
2375.05
 20
346.57
 30
18.20
 42
-0.056346
  0
VERTEX
  8
BORDER_D0_T132.1_RK1_A0_W0_EM1
 10
2356.94
 20
331.13
 30
18.20
 42
-0.039879
  0
VERTEX
  8
BORDER_D0_T132.1_RK1_A0_W0_EM1
 10
2332.35
 20
317.17
 30
18.20
 42
-0.029940
  0
VERTEX
  8
BORDER_D0_T132.1_RK1_A0_W0_EM1
 10
2302.03
 20
305.13
 30
18.20
 42
-0.023968
  0
VERTEX
  8
BORDER_D0_T132.1_RK1_A0_W0_EM1
 10
2266.92
 20
295.36
 30
18.20
 42
-0.020393
  0
VERTEX
  8
BORDER_D0_T132.1_RK1_A0_W0_EM1
 10
2228.06
 20
288.15
 30
18.20
 42
-0.018360
  0
VERTEX
  8
BORDER_D0_T132.1_RK1_A0_W0_EM1
 10
2186.65
 20
283.74
 30
18.20
 42
-0.017435
  0
VERTEX
  8
BORDER_D0_T132.1_RK1_A0_W0_EM1
 10
2143.95
 20
282.26
 30
18.20
 42
-0.017435
  0
VERTEX
  8
BORDER_D0_T132.1_RK1_A0_W0_EM1
 10
2101.24
 20
283.74
 30
18.20
 42
-0.018360
  0
VERTEX
  8
BORDER_D0_T132.1_RK1_A0_W0_EM1
 10
2059.83
 20
288.15
 30
18.20
 42
-0.020393
  0
VERTEX
  8
BORDER_D0_T132.1_RK1_A0_W0_EM1
 10
2020.98
 20
295.36
 30
18.20
 42
-0.023968
  0
VERTEX
  8
BORDER_D0_T132.1_RK1_A0_W0_EM1
 10
1985.86
 20
305.13
 30
18.20
 42
-0.029940
  0
VERTEX
  8
BORDER_D0_T132.1_RK1_A0_W0_EM1
 10
1955.55
 20
317.17
 30
18.20
 42
-0.039878
  0
VERTEX
  8
BORDER_D0_T132.1_RK1_A0_W0_EM1
 10
1930.96
 20
331.13
 30
18.20
 42
-0.056347
  0
VERTEX
  8
BORDER_D0_T132.1_RK1_A0_W0_EM1
 10
1912.84
 20
346.57
 30
18.20
 42
-0.081333
  0
VERTEX
  8
BORDER_D0_T132.1_RK1_A0_W0_EM1
 10
1901.74
 20
363.03
 30
18.20
 42
-0.106579
  0
VERTEX
  8
BORDER_D0_T132.1_RK1_A0_W0_EM1
 10
1898.01
 20
380.00
 30
18.20
 42
-0.106579
  0
VERTEX
  8
BORDER_D0_T132.1_RK1_A0_W0_EM1
 10
1901.74
 20
396.97
 30
18.20
 42
-0.081333
  0
VERTEX
  8
BORDER_D0_T132.1_RK1_A0_W0_EM1
 10
1912.84
 20
413.43
 30
18.20
 42
-0.056347
  0
VERTEX
  8
BORDER_D0_T132.1_RK1_A0_W0_EM1
 10
1930.96
 20
428.87
 30
18.20
 42
-0.039878
  0
VERTEX
  8
BORDER_D0_T132.1_RK1_A0_W0_EM1
 10
1955.55
 20
442.83
 30
18.20
 42
-0.029940
  0
VERTEX
  8
BORDER_D0_T132.1_RK1_A0_W0_EM1
 10
1985.86
 20
454.87
 30
18.20
 42
-0.023968
  0
VERTEX
  8
BORDER_D0_T132.1_RK1_A0_W0_EM1
 10
2020.98
 20
464.64
 30
18.20
 42
-0.020393
  0
VERTEX
  8
BORDER_D0_T132.1_RK1_A0_W0_EM1
 10
2059.83
 20
471.85
 30
18.20
 42
-0.018360
  0
VERTEX
  8
BORDER_D0_T132.1_RK1_A0_W0_EM1
 10
2101.24
 20
476.26
 30
18.20
 42
-0.017435
  0
VERTEX
  8
BORDER_D0_T132.1_RK1_A0_W0_EM1
 10
2143.95
 20
477.74
 30
18.20
 42
-0.017435
  0
VERTEX
  8
BORDER_D0_T132.1_RK1_A0_W0_EM1
 10
2186.65
 20
476.26
 30
18.20
 42
-0.018360
  0
VERTEX
  8
BORDER_D0_T132.1_RK1_A0_W0_EM1
 10
2228.06
 20
471.85
 30
18.20
 42
-0.020393
  0
VERTEX
  8
BORDER_D0_T132.1_RK1_A0_W0_EM1
 10
2266.92
 20
464.64
 30
18.20
 42
-0.023968
  0
VERTEX
  8
BORDER_D0_T132.1_RK1_A0_W0_EM1
 10
2302.03
 20
454.87
 30
18.20
 42
-0.029940
  0
VERTEX
  8
BORDER_D0_T132.1_RK1_A0_W0_EM1
 10
2332.35
 20
442.83
 30
18.20
 42
-0.039879
  0
VERTEX
  8
BORDER_D0_T132.1_RK1_A0_W0_EM1
 10
2356.94
 20
428.87
 30
18.20
 42
-0.056346
  0
VERTEX
  8
BORDER_D0_T132.1_RK1_A0_W0_EM1
 10
2375.05
 20
413.43
 30
18.20
 42
-0.081333
  0
VERTEX
  8
BORDER_D0_T132.1_RK1_A0_W0_EM1
 10
2386.15
 20
396.97
 30
18.20
 42
-0.106579
  0
VERTEX
  8
BORDER_D0_T132.1_RK1_A0_W0_EM1
 10
2389.89
 20
380.00
 30
18.20
  0
SEQEND
  8
BORDER_D0_T132.1_RK1_A0_W0_EM1
  0
POLYLINE
  8
BORDER_D0_T132.1_RK1_A0_W0_EM1
 70
1
 66
1
  0
VERTEX
  8
BORDER_D0_T132.1_RK1_A0_W0_EM1
 10
2383.79
 20
284.13
 30
18.20
  0
VERTEX
  8
BORDER_D0_T132.1_RK1_A0_W0_EM1
 10
2383.79
 20
333.30
 30
18.20
 42
-0.333267
  0
VERTEX
  8
BORDER_D0_T132.1_RK1_A0_W0_EM1
 10
2579.27
 20
333.30
 30
18.20
  0
VERTEX
  8
BORDER_D0_T132.1_RK1_A0_W0_EM1
 10
2579.27
 20
284.13
 30
18.20
 42
0.469338
  0
VERTEX
  8
BORDER_D0_T132.1_RK1_A0_W0_EM1
 10
2383.79
 20
284.13
 30
18.20
  0
SEQEND
  8
BORDER_D0_T132.1_RK1_A0_W0_EM1
  0
POLYLINE
  8
BORDER_D0_T132.1_RK1_A0_W0_EM1
 70
1
 66
1
  0
VERTEX
  8
BORDER_D0_T132.1_RK1_A0_W0_EM1
 10
2637.79
 20
174.33
 30
18.20
  0
VERTEX
  8
BORDER_D0_T132.1_RK1_A0_W0_EM1
 10
2637.79
 20
666.21
 30
18.20
 42
-0.106578
  0
VERTEX
  8
BORDER_D0_T132.1_RK1_A0_W0_EM1
 10
2654.76
 20
662.47
 30
18.20
 42
-0.081333
  0
VERTEX
  8
BORDER_D0_T132.1_RK1_A0_W0_EM1
 10
2671.22
 20
651.38
 30
18.20
 42
-0.056347
  0
VERTEX
  8
BORDER_D0_T132.1_RK1_A0_W0_EM1
 10
2686.66
 20
633.26
 30
18.20
 42
-0.039878
  0
VERTEX
  8
BORDER_D0_T132.1_RK1_A0_W0_EM1
 10
2700.62
 20
608.67
 30
18.20
 42
-0.029940
  0
VERTEX
  8
BORDER_D0_T132.1_RK1_A0_W0_EM1
 10
2712.67
 20
578.35
 30
18.20
 42
-0.023968
  0
VERTEX
  8
BORDER_D0_T132.1_RK1_A0_W0_EM1
 10
2722.44
 20
543.24
 30
18.20
 42
-0.020393
  0
VERTEX
  8
BORDER_D0_T132.1_RK1_A0_W0_EM1
 10
2729.64
 20
504.38
 30
18.20
 42
-0.018360
  0
VERTEX
  8
BORDER_D0_T132.1_RK1_A0_W0_EM1
 10
2734.05
 20
462.98
 30
18.20
 42
-0.017435
  0
VERTEX
  8
BORDER_D0_T132.1_RK1_A0_W0_EM1
 10
2735.53
 20
420.27
 30
18.20
 42
-0.017435
  0
VERTEX
  8
BORDER_D0_T132.1_RK1_A0_W0_EM1
 10
2734.05
 20
377.56
 30
18.20
 42
-0.018360
  0
VERTEX
  8
BORDER_D0_T132.1_RK1_A0_W0_EM1
 10
2729.64
 20
336.15
 30
18.20
 42
-0.020393
  0
VERTEX
  8
BORDER_D0_T132.1_RK1_A0_W0_EM1
 10
2722.44
 20
297.30
 30
18.20
 42
-0.023968
  0
VERTEX
  8
BORDER_D0_T132.1_RK1_A0_W0_EM1
 10
2712.67
 20
262.18
 30
18.20
 42
-0.029940
  0
VERTEX
  8
BORDER_D0_T132.1_RK1_A0_W0_EM1
 10
2700.62
 20
231.87
 30
18.20
 42
-0.039878
  0
VERTEX
  8
BORDER_D0_T132.1_RK1_A0_W0_EM1
 10
2686.66
 20
207.28
 30
18.20
 42
-0.056347
  0
VERTEX
  8
BORDER_D0_T132.1_RK1_A0_W0_EM1
 10
2671.22
 20
189.16
 30
18.20
 42
-0.081333
  0
VERTEX
  8
BORDER_D0_T132.1_RK1_A0_W0_EM1
 10
2654.76
 20
178.06
 30
18.20
 42
-0.106579
  0
VERTEX
  8
BORDER_D0_T132.1_RK1_A0_W0_EM1
 10
2637.79
 20
174.33
 30
18.20
  0
SEQEND
  8
BORDER_D0_T132.1_RK1_A0_W0_EM1
  0
POLYLINE
  8
BORDER_D0_T132.1_RK1_A0_W0_EM1
 70
1
 66
1
  0
VERTEX
  8
BORDER_D0_T132.1_RK1_A0_W0_EM1
 10
2693.69
 20
187.47
 30
18.20
  0
VERTEX
  8
BORDER_D0_T132.1_RK1_A0_W0_EM1
 10
2715.63
 20
119.93
 30
18.20
  0
VERTEX
  8
BORDER_D0_T132.1_RK1_A0_W0_EM1
 10
2786.65
 20
119.93
 30
18.20
  0
VERTEX
  8
BORDER_D0_T132.1_RK1_A0_W0_EM1
 10
2729.20
 20
78.19
 30
18.20
  0
VERTEX
  8
BORDER_D0_T132.1_RK1_A0_W0_EM1
 10
2751.14
 20
10.65
 30
18.20
  0
VERTEX
  8
BORDER_D0_T132.1_RK1_A0_W0_EM1
 10
2693.69
 20
52.39
 30
18.20
  0
VERTEX
  8
BORDER_D0_T132.1_RK1_A0_W0_EM1
 10
2636.24
 20
10.65
 30
18.20
  0
VERTEX
  8
BORDER_D0_T132.1_RK1_A0_W0_EM1
 10
2658.18
 20
78.19
 30
18.20
  0
VERTEX
  8
BORDER_D0_T132.1_RK1_A0_W0_EM1
 10
2600.73
 20
119.93
 30
18.20
  0
VERTEX
  8
BORDER_D0_T132.1_RK1_A0_W0_EM1
 10
2671.75
 20
119.93
 30
18.20
  0
VERTEX
  8
BORDER_D0_T132.1_RK1_A0_W0_EM1
 10
2693.69
 20
187.47
 30
18.20
  0
SEQEND
  8
BORDER_D0_T132.1_RK1_A0_W0_EM1
  0
POLYLINE
  8
BORDER_D0_T132.1_RK1_A0_W0_EM1
 70
1
 66
1
  0
VERTEX
  8
BORDER_D0_T132.1_RK1_A0_W0_EM1
 10
2658.73
 20
1044.30
 30
18.20
  0
VERTEX
  8
BORDER_D0_T132.1_RK1_A0_W0_EM1
 10
2658.73
 20
1536.18
 30
18.20
 42
-0.106579
  0
VERTEX
  8
BORDER_D0_T132.1_RK1_A0_W0_EM1
 10
2675.70
 20
1532.44
 30
18.20
 42
-0.081333
  0
VERTEX
  8
BORDER_D0_T132.1_RK1_A0_W0_EM1
 10
2692.16
 20
1521.34
 30
18.20
 42
-0.056346
  0
VERTEX
  8
BORDER_D0_T132.1_RK1_A0_W0_EM1
 10
2707.60
 20
1503.22
 30
18.20
 42
-0.039878
  0
VERTEX
  8
BORDER_D0_T132.1_RK1_A0_W0_EM1
 10
2721.55
 20
1478.64
 30
18.20
 42
-0.029940
  0
VERTEX
  8
BORDER_D0_T132.1_RK1_A0_W0_EM1
 10
2733.60
 20
1448.32
 30
18.20
 42
-0.023968
  0
VERTEX
  8
BORDER_D0_T132.1_RK1_A0_W0_EM1
 10
2743.37
 20
1413.20
 30
18.20
 42
-0.020393
  0
VERTEX
  8
BORDER_D0_T132.1_RK1_A0_W0_EM1
 10
2750.57
 20
1374.35
 30
18.20
 42
-0.018360
  0
VERTEX
  8
BORDER_D0_T132.1_RK1_A0_W0_EM1
 10
2754.98
 20
1332.94
 30
18.20
 42
-0.017435
  0
VERTEX
  8
BORDER_D0_T132.1_RK1_A0_W0_EM1
 10
2756.47
 20
1290.23
 30
18.20
 42
-0.017435
  0
VERTEX
  8
BORDER_D0_T132.1_RK1_A0_W0_EM1
 10
2754.98
 20
1247.53
 30
18.20
 42
-0.018360
  0
VERTEX
  8
BORDER_D0_T132.1_RK1_A0_W0_EM1
 10
2750.57
 20
1206.12
 30
18.20
 42
-0.020393
  0
VERTEX
  8
BORDER_D0_T132.1_RK1_A0_W0_EM1
 10
2743.37
 20
1167.27
 30
18.20
 42
-0.023968
  0
VERTEX
  8
BORDER_D0_T132.1_RK1_A0_W0_EM1
 10
2733.60
 20
1132.15
 30
18.20
 42
-0.029940
  0
VERTEX
  8
BORDER_D0_T132.1_RK1_A0_W0_EM1
 10
2721.55
 20
1101.83
 30
18.20
 42
-0.039878
  0
VERTEX
  8
BORDER_D0_T132.1_RK1_A0_W0_EM1
 10
2707.60
 20
1077.24
 30
18.20
 42
-0.056346
  0
VERTEX
  8
BORDER_D0_T132.1_RK1_A0_W0_EM1
 10
2692.16
 20
1059.13
 30
18.20
 42
-0.081333
  0
VERTEX
  8
BORDER_D0_T132.1_RK1_A0_W0_EM1
 10
2675.70
 20
1048.03
 30
18.20
 42
-0.106578
  0
VERTEX
  8
BORDER_D0_T132.1_RK1_A0_W0_EM1
 10
2658.73
 20
1044.30
 30
18.20
  0
SEQEND
  8
BORDER_D0_T132.1_RK1_A0_W0_EM1
  0
POLYLINE
  8
BORDER_D0_T132.1_RK1_A0_W0_EM1
 70
1
 66
1
  0
VERTEX
  8
BORDER_D0_T132.1_RK1_A0_W0_EM1
 10
2756.97
 20
1086.12
 30
18.20
  0
VERTEX
  8
BORDER_D0_T132.1_RK1_A0_W0_EM1
 10
2756.97
 20
594.24
 30
18.20
 42
-0.106579
  0
VERTEX
  8
BORDER_D0_T132.1_RK1_A0_W0_EM1
 10
2740.00
 20
597.98
 30
18.20
 42
-0.081333
  0
VERTEX
  8
BORDER_D0_T132.1_RK1_A0_W0_EM1
 10
2723.54
 20
609.08
 30
18.20
 42
-0.056346
  0
VERTEX
  8
BORDER_D0_T132.1_RK1_A0_W0_EM1
 10
2708.10
 20
627.19
 30
18.20
 42
-0.039878
  0
VERTEX
  8
BORDER_D0_T132.1_RK1_A0_W0_EM1
 10
2694.14
 20
651.78
 30
18.20
 42
-0.029940
  0
VERTEX
  8
BORDER_D0_T132.1_RK1_A0_W0_EM1
 10
2682.10
 20
682.10
 30
18.20
 42
-0.023968
  0
VERTEX
  8
BORDER_D0_T132.1_RK1_A0_W0_EM1
 10
2672.32
 20
717.21
 30
18.20
 42
-0.020393
  0
VERTEX
  8
BORDER_D0_T132.1_RK1_A0_W0_EM1
 10
2665.12
 20
756.07
 30
18.20
 42
-0.018360
  0
VERTEX
  8
BORDER_D0_T132.1_RK1_A0_W0_EM1
 10
2660.72
 20
797.48
 30
18.20
 42
-0.017435
  0
VERTEX
  8
BORDER_D0_T132.1_RK1_A0_W0_EM1
 10
2659.23
 20
840.18
 30
18.20
 42
-0.017435
  0
VERTEX
  8
BORDER_D0_T132.1_RK1_A0_W0_EM1
 10
2660.72
 20
882.89
 30
18.20
 42
-0.018360
  0
VERTEX
  8
BORDER_D0_T132.1_RK1_A0_W0_EM1
 10
2665.12
 20
924.30
 30
18.20
 42
-0.020393
  0
VERTEX
  8
BORDER_D0_T132.1_RK1_A0_W0_EM1
 10
2672.32
 20
963.15
 30
18.20
 42
-0.023968
  0
VERTEX
  8
BORDER_D0_T132.1_RK1_A0_W0_EM1
 10
2682.10
 20
998.27
 30
18.20
 42
-0.029939
  0
VERTEX
  8
BORDER_D0_T132.1_RK1_A0_W0_EM1
 10
2694.14
 20
1028.58
 30
18.20
 42
-0.039878
  0
VERTEX
  8
BORDER_D0_T132.1_RK1_A0_W0_EM1
 10
2708.10
 20
1053.17
 30
18.20
 42
-0.056346
  0
VERTEX
  8
BORDER_D0_T132.1_RK1_A0_W0_EM1
 10
2723.54
 20
1071.29
 30
18.20
 42
-0.081333
  0
VERTEX
  8
BORDER_D0_T132.1_RK1_A0_W0_EM1
 10
2740.00
 20
1082.39
 30
18.20
 42
-0.106579
  0
VERTEX
  8
BORDER_D0_T132.1_RK1_A0_W0_EM1
 10
2756.97
 20
1086.12
 30
18.20
  0
SEQEND
  8
BORDER_D0_T132.1_RK1_A0_W0_EM1
  0
POLYLINE
  8
BORDER_D0_T132.1_RK1_A0_W0_EM1
 70
1
 66
1
  0
VERTEX
  8
BORDER_D0_T132.1_RK1_A0_W0_EM1
 10
2681.87
 20
2040.00
 30
18.20
 42
-0.106579
  0
VERTEX
  8
BORDER_D0_T132.1_RK1_A0_W0_EM1
 10
2698.85
 20
2036.26
 30
18.20
 42
-0.081333
  0
VERTEX
  8
BORDER_D0_T132.1_RK1_A0_W0_EM1
 10
2715.30
 20
2025.17
 30
18.20
 42
-0.056346
  0
VERTEX
  8
BORDER_D0_T132.1_RK1_A0_W0_EM1
 10
2730.74
 20
2007.05
 30
18.20
 42
-0.039878
  0
VERTEX
  8
BORDER_D0_T132.1_RK1_A0_W0_EM1
 10
2744.70
 20
1982.46
 30
18.20
 42
-0.029940
  0
VERTEX
  8
BORDER_D0_T132.1_RK1_A0_W0_EM1
 10
2756.75
 20
1952.15
 30
18.20
 42
-0.023968
  0
VERTEX
  8
BORDER_D0_T132.1_RK1_A0_W0_EM1
 10
2766.52
 20
1917.03
 30
18.20
 42
-0.020393
  0
VERTEX
  8
BORDER_D0_T132.1_RK1_A0_W0_EM1
 10
2773.72
 20
1878.18
 30
18.20
 42
-0.018360
  0
VERTEX
  8
BORDER_D0_T132.1_RK1_A0_W0_EM1
 10
2778.13
 20
1836.77
 30
18.20
 42
-0.017435
  0
VERTEX
  8
BORDER_D0_T132.1_RK1_A0_W0_EM1
 10
2779.61
 20
1794.06
 30
18.20
 42
-0.017435
  0
VERTEX
  8
BORDER_D0_T132.1_RK1_A0_W0_EM1
 10
2778.13
 20
1751.35
 30
18.20
 42
-0.018360
  0
VERTEX
  8
BORDER_D0_T132.1_RK1_A0_W0_EM1
 10
2773.72
 20
1709.94
 30
18.20
 42
-0.020393
  0
VERTEX
  8
BORDER_D0_T132.1_RK1_A0_W0_EM1
 10
2766.52
 20
1671.09
 30
18.20
 42
-0.023968
  0
VERTEX
  8
BORDER_D0_T132.1_RK1_A0_W0_EM1
 10
2756.75
 20
1635.97
 30
18.20
 42
-0.029940
  0
VERTEX
  8
BORDER_D0_T132.1_RK1_A0_W0_EM1
 10
2744.70
 20
1605.66
 30
18.20
 42
-0.039879
  0
VERTEX
  8
BORDER_D0_T132.1_RK1_A0_W0_EM1
 10
2730.74
 20
1581.07
 30
18.20
 42
-0.056346
  0
VERTEX
  8
BORDER_D0_T132.1_RK1_A0_W0_EM1
 10
2715.30
 20
1562.95
 30
18.20
 42
-0.081333
  0
VERTEX
  8
BORDER_D0_T132.1_RK1_A0_W0_EM1
 10
2698.85
 20
1551.86
 30
18.20
 42
-0.106578
  0
VERTEX
  8
BORDER_D0_T132.1_RK1_A0_W0_EM1
 10
2681.87
 20
1548.12
 30
18.20
 42
-0.106578
  0
VERTEX
  8
BORDER_D0_T132.1_RK1_A0_W0_EM1
 10
2664.90
 20
1551.86
 30
18.20
 42
-0.081333
  0
VERTEX
  8
BORDER_D0_T132.1_RK1_A0_W0_EM1
 10
2648.45
 20
1562.95
 30
18.20
 42
-0.056346
  0
VERTEX
  8
BORDER_D0_T132.1_RK1_A0_W0_EM1
 10
2633.00
 20
1581.07
 30
18.20
 42
-0.039878
  0
VERTEX
  8
BORDER_D0_T132.1_RK1_A0_W0_EM1
 10
2619.05
 20
1605.66
 30
18.20
 42
-0.029940
  0
VERTEX
  8
BORDER_D0_T132.1_RK1_A0_W0_EM1
 10
2607.00
 20
1635.97
 30
18.20
 42
-0.023968
  0
VERTEX
  8
BORDER_D0_T132.1_RK1_A0_W0_EM1
 10
2597.23
 20
1671.09
 30
18.20
 42
-0.020393
  0
VERTEX
  8
BORDER_D0_T132.1_RK1_A0_W0_EM1
 10
2590.03
 20
1709.94
 30
18.20
 42
-0.018360
  0
VERTEX
  8
BORDER_D0_T132.1_RK1_A0_W0_EM1
 10
2585.62
 20
1751.35
 30
18.20
 42
-0.017435
  0
VERTEX
  8
BORDER_D0_T132.1_RK1_A0_W0_EM1
 10
2584.13
 20
1794.06
 30
18.20
 42
-0.017435
  0
VERTEX
  8
BORDER_D0_T132.1_RK1_A0_W0_EM1
 10
2585.62
 20
1836.77
 30
18.20
 42
-0.018360
  0
VERTEX
  8
BORDER_D0_T132.1_RK1_A0_W0_EM1
 10
2590.03
 20
1878.18
 30
18.20
 42
-0.020393
  0
VERTEX
  8
BORDER_D0_T132.1_RK1_A0_W0_EM1
 10
2597.23
 20
1917.03
 30
18.20
 42
-0.023968
  0
VERTEX
  8
BORDER_D0_T132.1_RK1_A0_W0_EM1
 10
2607.00
 20
1952.15
 30
18.20
 42
-0.029940
  0
VERTEX
  8
BORDER_D0_T132.1_RK1_A0_W0_EM1
 10
2619.05
 20
1982.46
 30
18.20
 42
-0.039878
  0
VERTEX
  8
BORDER_D0_T132.1_RK1_A0_W0_EM1
 10
2633.00
 20
2007.05
 30
18.20
 42
-0.056346
  0
VERTEX
  8
BORDER_D0_T132.1_RK1_A0_W0_EM1
 10
2648.45
 20
2025.17
 30
18.20
 42
-0.081333
  0
VERTEX
  8
BORDER_D0_T132.1_RK1_A0_W0_EM1
 10
2664.90
 20
2036.26
 30
18.20
 42
-0.106579
  0
VERTEX
  8
BORDER_D0_T132.1_RK1_A0_W0_EM1
 10
2681.87
 20
2040.00
 30
18.20
  0
SEQEND
  8
BORDER_D0_T132.1_RK1_A0_W0_EM1
  0
POLYLINE
  8
BORDER_D0_T132.1_RK1_A0_W0_EM1
 70
1
 66
1
  0
VERTEX
  8
BORDER_D0_T132.1_RK1_A0_W0_EM1
 10
2209.90
 20
2040.00
 30
18.20
 42
-0.076786
  0
VERTEX
  8
BORDER_D0_T132.1_RK1_A0_W0_EM1
 10
2285.28
 20
2028.26
 30
18.20
 42
-0.068058
  0
VERTEX
  8
BORDER_D0_T132.1_RK1_A0_W0_EM1
 10
2358.37
 20
1993.39
 30
18.20
 42
-0.056093
  0
VERTEX
  8
BORDER_D0_T132.1_RK1_A0_W0_EM1
 10
2426.95
 20
1936.44
 30
18.20
 42
-0.045362
  0
VERTEX
  8
BORDER_D0_T132.1_RK1_A0_W0_EM1
 10
2488.93
 20
1859.16
 30
18.20
 42
-0.037263
  0
VERTEX
  8
BORDER_D0_T132.1_RK1_A0_W0_EM1
 10
2542.44
 20
1763.89
 30
18.20
 42
-0.031620
  0
VERTEX
  8
BORDER_D0_T132.1_RK1_A0_W0_EM1
 10
2585.84
 20
1653.53
 30
18.20
 42
-0.027905
  0
VERTEX
  8
BORDER_D0_T132.1_RK1_A0_W0_EM1
 10
2617.82
 20
1531.41
 30
18.20
 42
-0.025667
  0
VERTEX
  8
BORDER_D0_T132.1_RK1_A0_W0_EM1
 10
2637.41
 20
1401.27
 30
18.20
 42
-0.024617
  0
VERTEX
  8
BORDER_D0_T132.1_RK1_A0_W0_EM1
 10
2644.00
 20
1267.05
 30
18.20
 42
-0.024617
  0
VERTEX
  8
BORDER_D0_T132.1_RK1_A0_W0_EM1
 10
2637.41
 20
1132.83
 30
18.20
 42
-0.025667
  0
VERTEX
  8
BORDER_D0_T132.1_RK1_A0_W0_EM1
 10
2617.82
 20
1002.69
 30
18.20
 42
-0.027905
  0
VERTEX
  8
BORDER_D0_T132.1_RK1_A0_W0_EM1
 10
2585.84
 20
880.58
 30
18.20
 42
-0.031620
  0
VERTEX
  8
BORDER_D0_T132.1_RK1_A0_W0_EM1
 10
2542.44
 20
770.21
 30
18.20
 42
-0.037263
  0
VERTEX
  8
BORDER_D0_T132.1_RK1_A0_W0_EM1
 10
2488.93
 20
674.94
 30
18.20
 42
-0.045362
  0
VERTEX
  8
BORDER_D0_T132.1_RK1_A0_W0_EM1
 10
2426.95
 20
597.66
 30
18.20
 42
-0.056093
  0
VERTEX
  8
BORDER_D0_T132.1_RK1_A0_W0_EM1
 10
2358.37
 20
540.72
 30
18.20
 42
-0.068058
  0
VERTEX
  8
BORDER_D0_T132.1_RK1_A0_W0_EM1
 10
2285.28
 20
505.84
 30
18.20
 42
-0.076786
  0
VERTEX
  8
BORDER_D0_T132.1_RK1_A0_W0_EM1
 10
2209.90
 20
494.10
 30
18.20
 42
-0.076786
  0
VERTEX
  8
BORDER_D0_T132.1_RK1_A0_W0_EM1
 10
2134.52
 20
505.84
 30
18.20
 42
-0.068058
  0
VERTEX
  8
BORDER_D0_T132.1_RK1_A0_W0_EM1
 10
2061.43
 20
540.72
 30
18.20
 42
-0.056093
  0
VERTEX
  8
BORDER_D0_T132.1_RK1_A0_W0_EM1
 10
1992.85
 20
597.66
 30
18.20
 42
-0.045362
  0
VERTEX
  8
BORDER_D0_T132.1_RK1_A0_W0_EM1
 10
1930.87
 20
674.94
 30
18.20
 42
-0.037263
  0
VERTEX
  8
BORDER_D0_T132.1_RK1_A0_W0_EM1
 10
1877.36
 20
770.21
 30
18.20
 42
-0.031620
  0
VERTEX
  8
BORDER_D0_T132.1_RK1_A0_W0_EM1
 10
1833.96
 20
880.58
 30
18.20
 42
-0.027905
  0
VERTEX
  8
BORDER_D0_T132.1_RK1_A0_W0_EM1
 10
1801.98
 20
1002.69
 30
18.20
 42
-0.025667
  0
VERTEX
  8
BORDER_D0_T132.1_RK1_A0_W0_EM1
 10
1782.40
 20
1132.83
 30
18.20
 42
-0.024617
  0
VERTEX
  8
BORDER_D0_T132.1_RK1_A0_W0_EM1
 10
1775.80
 20
1267.05
 30
18.20
 42
-0.024617
  0
VERTEX
  8
BORDER_D0_T132.1_RK1_A0_W0_EM1
 10
1782.40
 20
1401.27
 30
18.20
 42
-0.025667
  0
VERTEX
  8
BORDER_D0_T132.1_RK1_A0_W0_EM1
 10
1801.98
 20
1531.41
 30
18.20
 42
-0.027905
  0
VERTEX
  8
BORDER_D0_T132.1_RK1_A0_W0_EM1
 10
1833.96
 20
1653.53
 30
18.20
 42
-0.031620
  0
VERTEX
  8
BORDER_D0_T132.1_RK1_A0_W0_EM1
 10
1877.36
 20
1763.89
 30
18.20
 42
-0.037263
  0
VERTEX
  8
BORDER_D0_T132.1_RK1_A0_W0_EM1
 10
1930.87
 20
1859.16
 30
18.20
 42
-0.045362
  0
VERTEX
  8
BORDER_D0_T132.1_RK1_A0_W0_EM1
 10
1992.85
 20
1936.44
 30
18.20
 42
-0.056093
  0
VERTEX
  8
BORDER_D0_T132.1_RK1_A0_W0_EM1
 10
2061.43
 20
1993.39
 30
18.20
 42
-0.068058
  0
VERTEX
  8
BORDER_D0_T132.1_RK1_A0_W0_EM1
 10
2134.52
 20
2028.26
 30
18.20
 42
-0.076786
  0
VERTEX
  8
BORDER_D0_T132.1_RK1_A0_W0_EM1
 10
2209.90
 20
2040.00
 30
18.20
  0
SEQEND
  8
BORDER_D0_T132.1_RK1_A0_W0_EM1
  0
POLYLINE
  8
BORDER_D0_T132.1_RK1_A0_W0_EM1
 70
1
 66
1
  0
VERTEX
  8
BORDER_D0_T132.1_RK1_A0_W0_EM1
 10
1951.30
 20
2040.00
 30
18.20
  0
VERTEX
  8
BORDER_D0_T132.1_RK1_A0_W0_EM1
 10
1951.30
 20
1990.84
 30
18.20
 42
-0.333267
  0
VERTEX
  8
BORDER_D0_T132.1_RK1_A0_W0_EM1
 10
1755.81
 20
1990.84
 30
18.20
  0
VERTEX
  8
BORDER_D0_T132.1_RK1_A0_W0_EM1
 10
1755.81
 20
2040.00
 30
18.20
 42
0.469338
  0
VERTEX
  8
BORDER_D0_T132.1_RK1_A0_W0_EM1
 10
1951.30
 20
2040.00
 30
18.20
  0
SEQEND
  8
BORDER_D0_T132.1_RK1_A0_W0_EM1
  0
POLYLINE
  8
BORDER_D0_T132.1_RK1_A0_W0_EM1
 70
1
 66
1
  0
VERTEX
  8
BORDER_D0_T132.1_RK1_A0_W0_EM1
 10
1752.58
 20
1908.41
 30
18.20
  0
VERTEX
  8
BORDER_D0_T132.1_RK1_A0_W0_EM1
 10
1845.53
 20
1840.87
 30
18.20
  0
VERTEX
  8
BORDER_D0_T132.1_RK1_A0_W0_EM1
 10
1810.03
 20
1731.59
 30
18.20
  0
VERTEX
  8
BORDER_D0_T132.1_RK1_A0_W0_EM1
 10
1695.13
 20
1731.59
 30
18.20
  0
VERTEX
  8
BORDER_D0_T132.1_RK1_A0_W0_EM1
 10
1659.62
 20
1840.87
 30
18.20
  0
VERTEX
  8
BORDER_D0_T132.1_RK1_A0_W0_EM1
 10
1752.58
 20
1908.41
 30
18.20
  0
SEQEND
  8
BORDER_D0_T132.1_RK1_A0_W0_EM1
  0
POLYLINE
  8
BORDER_D0_T132.1_RK1_A0_W0_EM1
 70
1
 66
1
  0
VERTEX
  8
BORDER_D0_T132.1_RK1_A0_W0_EM1
 10
1665.26
 20
1863.19
 30
18.20
  0
VERTEX
  8
BORDER_D0_T132.1_RK1_A0_W0_EM1
 10
1572.31
 20
1930.72
 30
18.20
  0
VERTEX
  8
BORDER_D0_T132.1_RK1_A0_W0_EM1
 10
1607.81
 20
2040.00
 30
18.20
  0
VERTEX
  8
BORDER_D0_T132.1_RK1_A0_W0_EM1
 10
1722.71
 20
2040.00
 30
18.20
  0
VERTEX
  8
BORDER_D0_T132.1_RK1_A0_W0_EM1
 10
1758.22
 20
1930.72
 30
18.20
  0
VERTEX
  8
BORDER_D0_T132.1_RK1_A0_W0_EM1
 10
1665.26
 20
1863.19
 30
18.20
  0
SEQEND
  8
BORDER_D0_T132.1_RK1_A0_W0_EM1
  0
POLYLINE
  8
BORDER_D0_T132.1_RK1_A0_W0_EM1
 70
1
 66
1
  0
VERTEX
  8
BORDER_D0_T132.1_RK1_A0_W0_EM1
 10
1327.00
 20
2040.00
 30
18.20
 42
-0.076786
  0
VERTEX
  8
BORDER_D0_T132.1_RK1_A0_W0_EM1
 10
1402.38
 20
2028.26
 30
18.20
 42
-0.068058
  0
VERTEX
  8
BORDER_D0_T132.1_RK1_A0_W0_EM1
 10
1475.47
 20
1993.39
 30
18.20
 42
-0.056093
  0
VERTEX
  8
BORDER_D0_T132.1_RK1_A0_W0_EM1
 10
1544.05
 20
1936.44
 30
18.20
 42
-0.045362
  0
VERTEX
  8
BORDER_D0_T132.1_RK1_A0_W0_EM1
 10
1606.03
 20
1859.16
 30
18.20
 42
-0.037263
  0
VERTEX
  8
BORDER_D0_T132.1_RK1_A0_W0_EM1
 10
1659.54
 20
1763.89
 30
18.20
 42
-0.031620
  0
VERTEX
  8
BORDER_D0_T132.1_RK1_A0_W0_EM1
 10
1702.94
 20
1653.53
 30
18.20
 42
-0.027905
  0
VERTEX
  8
BORDER_D0_T132.1_RK1_A0_W0_EM1
 10
1734.92
 20
1531.41
 30
18.20
 42
-0.025667
  0
VERTEX
  8
BORDER_D0_T132.1_RK1_A0_W0_EM1
 10
1754.51
 20
1401.27
 30
18.20
 42
-0.024617
  0
VERTEX
  8
BORDER_D0_T132.1_RK1_A0_W0_EM1
 10
1761.10
 20
1267.05
 30
18.20
 42
-0.024617
  0
VERTEX
  8
BORDER_D0_T132.1_RK1_A0_W0_EM1
 10
1754.51
 20
1132.83
 30
18.20
 42
-0.025667
  0
VERTEX
  8
BORDER_D0_T132.1_RK1_A0_W0_EM1
 10
1734.92
 20
1002.69
 30
18.20
 42
-0.027905
  0
VERTEX
  8
BORDER_D0_T132.1_RK1_A0_W0_EM1
 10
1702.94
 20
880.58
 30
18.20
 42
-0.031620
  0
VERTEX
  8
BORDER_D0_T132.1_RK1_A0_W0_EM1
 10
1659.54
 20
770.21
 30
18.20
 42
-0.037263
  0
VERTEX
  8
BORDER_D0_T132.1_RK1_A0_W0_EM1
 10
1606.03
 20
674.94
 30
18.20
 42
-0.045362
  0
VERTEX
  8
BORDER_D0_T132.1_RK1_A0_W0_EM1
 10
1544.05
 20
597.66
 30
18.20
 42
-0.056093
  0
VERTEX
  8
BORDER_D0_T132.1_RK1_A0_W0_EM1
 10
1475.47
 20
540.72
 30
18.20
 42
-0.068058
  0
VERTEX
  8
BORDER_D0_T132.1_RK1_A0_W0_EM1
 10
1402.38
 20
505.84
 30
18.20
 42
-0.076786
  0
VERTEX
  8
BORDER_D0_T132.1_RK1_A0_W0_EM1
 10
1327.00
 20
494.10
 30
18.20
 42
-0.076786
  0
VERTEX
  8
BORDER_D0_T132.1_RK1_A0_W0_EM1
 10
1251.62
 20
505.84
 30
18.20
 42
-0.068058
  0
VERTEX
  8
BORDER_D0_T132.1_RK1_A0_W0_EM1
 10
1178.53
 20
540.72
 30
18.20
 42
-0.056093
  0
VERTEX
  8
BORDER_D0_T132.1_RK1_A0_W0_EM1
 10
1109.95
 20
597.66
 30
18.20
 42
-0.045362
  0
VERTEX
  8
BORDER_D0_T132.1_RK1_A0_W0_EM1
 10
1047.97
 20
674.94
 30
18.20
 42
-0.037263
  0
VERTEX
  8
BORDER_D0_T132.1_RK1_A0_W0_EM1
 10
994.46
 20
770.21
 30
18.20
 42
-0.031620
  0
VERTEX
  8
BORDER_D0_T132.1_RK1_A0_W0_EM1
 10
951.06
 20
880.58
 30
18.20
 42
-0.027905
  0
VERTEX
  8
BORDER_D0_T132.1_RK1_A0_W0_EM1
 10
919.08
 20
1002.69
 30
18.20
 42
-0.025667
  0
VERTEX
  8
BORDER_D0_T132.1_RK1_A0_W0_EM1
 10
899.49
 20
1132.83
 30
18.20
 42
-0.024617
  0
VERTEX
  8
BORDER_D0_T132.1_RK1_A0_W0_EM1
 10
892.90
 20
1267.05
 30
18.20
 42
-0.024617
  0
VERTEX
  8
BORDER_D0_T132.1_RK1_A0_W0_EM1
 10
899.49
 20
1401.27
 30
18.20
 42
-0.025667
  0
VERTEX
  8
BORDER_D0_T132.1_RK1_A0_W0_EM1
 10
919.08
 20
1531.41
 30
18.20
 42
-0.027905
  0
VERTEX
  8
BORDER_D0_T132.1_RK1_A0_W0_EM1
 10
951.06
 20
1653.53
 30
18.20
 42
-0.031620
  0
VERTEX
  8
BORDER_D0_T132.1_RK1_A0_W0_EM1
 10
994.46
 20
1763.89
 30
18.20
 42
-0.037263
  0
VERTEX
  8
BORDER_D0_T132.1_RK1_A0_W0_EM1
 10
1047.97
 20
1859.16
 30
18.20
 42
-0.045362
  0
VERTEX
  8
BORDER_D0_T132.1_RK1_A0_W0_EM1
 10
1109.95
 20
1936.44
 30
18.20
 42
-0.056093
  0
VERTEX
  8
BORDER_D0_T132.1_RK1_A0_W0_EM1
 10
1178.53
 20
1993.39
 30
18.20
 42
-0.068058
  0
VERTEX
  8
BORDER_D0_T132.1_RK1_A0_W0_EM1
 10
1251.62
 20
2028.26
 30
18.20
 42
-0.076786
  0
VERTEX
  8
BORDER_D0_T132.1_RK1_A0_W0_EM1
 10
1327.00
 20
2040.00
 30
18.20
  0
SEQEND
  8
BORDER_D0_T132.1_RK1_A0_W0_EM1
  0
POLYLINE
  8
BORDER_D0_T132.1_RK1_A0_W0_EM1
 70
1
 66
1
  0
VERTEX
  8
BORDER_D0_T132.1_RK1_A0_W0_EM1
 10
1065.39
 20
2040.00
 30
18.20
  0
VERTEX
  8
BORDER_D0_T132.1_RK1_A0_W0_EM1
 10
1065.39
 20
1990.84
 30
18.20
 42
-0.333267
  0
VERTEX
  8
BORDER_D0_T132.1_RK1_A0_W0_EM1
 10
869.91
 20
1990.84
 30
18.20
  0
VERTEX
  8
BORDER_D0_T132.1_RK1_A0_W0_EM1
 10
869.91
 20
2040.00
 30
18.20
 42
0.469338
  0
VERTEX
  8
BORDER_D0_T132.1_RK1_A0_W0_EM1
 10
1065.39
 20
2040.00
 30
18.20
  0
SEQEND
  8
BORDER_D0_T132.1_RK1_A0_W0_EM1
  0
POLYLINE
  8
BORDER_D0_T132.1_RK1_A0_W0_EM1
 70
1
 66
1
  0
VERTEX
  8
BORDER_D0_T132.1_RK1_A0_W0_EM1
 10
802.42
 20
1856.97
 30
18.20
  0
VERTEX
  8
BORDER_D0_T132.1_RK1_A0_W0_EM1
 10
869.96
 20
1878.91
 30
18.20
  0
VERTEX
  8
BORDER_D0_T132.1_RK1_A0_W0_EM1
 10
869.96
 20
1949.93
 30
18.20
  0
VERTEX
  8
BORDER_D0_T132.1_RK1_A0_W0_EM1
 10
911.70
 20
1892.47
 30
18.20
  0
VERTEX
  8
BORDER_D0_T132.1_RK1_A0_W0_EM1
 10
979.24
 20
1914.42
 30
18.20
  0
VERTEX
  8
BORDER_D0_T132.1_RK1_A0_W0_EM1
 10
937.50
 20
1856.97
 30
18.20
  0
VERTEX
  8
BORDER_D0_T132.1_RK1_A0_W0_EM1
 10
979.24
 20
1799.52
 30
18.20
  0
VERTEX
  8
BORDER_D0_T132.1_RK1_A0_W0_EM1
 10
911.70
 20
1821.46
 30
18.20
  0
VERTEX
  8
BORDER_D0_T132.1_RK1_A0_W0_EM1
 10
869.96
 20
1764.01
 30
18.20
  0
VERTEX
  8
BORDER_D0_T132.1_RK1_A0_W0_EM1
 10
869.96
 20
1835.03
 30
18.20
  0
VERTEX
  8
BORDER_D0_T132.1_RK1_A0_W0_EM1
 10
802.42
 20
1856.97
 30
18.20
  0
SEQEND
  8
BORDER_D0_T132.1_RK1_A0_W0_EM1
  0
POLYLINE
  8
BORDER_D0_T132.1_RK1_A0_W0_EM1
 70
1
 66
1
  0
VERTEX
  8
BORDER_D0_T132.1_RK1_A0_W0_EM1
 10
678.42
 20
1947.04
 30
18.20
  0
VERTEX
  8
BORDER_D0_T132.1_RK1_A0_W0_EM1
 10
745.95
 20
2040.00
 30
18.20
  0
VERTEX
  8
BORDER_D0_T132.1_RK1_A0_W0_EM1
 10
855.23
 20
2004.49
 30
18.20
  0
VERTEX
  8
BORDER_D0_T132.1_RK1_A0_W0_EM1
 10
855.23
 20
1889.59
 30
18.20
  0
VERTEX
  8
BORDER_D0_T132.1_RK1_A0_W0_EM1
 10
745.95
 20
1854.09
 30
18.20
  0
VERTEX
  8
BORDER_D0_T132.1_RK1_A0_W0_EM1
 10
678.42
 20
1947.04
 30
18.20
  0
SEQEND
  8
BORDER_D0_T132.1_RK1_A0_W0_EM1
  0
POLYLINE
  8
BORDER_D0_T132.1_RK1_A0_W0_EM1
 70
1
 66
1
  0
VERTEX
  8
BORDER_D0_T132.1_RK1_A0_W0_EM1
 10
444.10
 20
2040.00
 30
18.20
 42
-0.076786
  0
VERTEX
  8
BORDER_D0_T132.1_RK1_A0_W0_EM1
 10
519.48
 20
2028.26
 30
18.20
 42
-0.068058
  0
VERTEX
  8
BORDER_D0_T132.1_RK1_A0_W0_EM1
 10
592.57
 20
1993.39
 30
18.20
 42
-0.056093
  0
VERTEX
  8
BORDER_D0_T132.1_RK1_A0_W0_EM1
 10
661.15
 20
1936.44
 30
18.20
 42
-0.045362
  0
VERTEX
  8
BORDER_D0_T132.1_RK1_A0_W0_EM1
 10
723.13
 20
1859.16
 30
18.20
 42
-0.037263
  0
VERTEX
  8
BORDER_D0_T132.1_RK1_A0_W0_EM1
 10
776.64
 20
1763.89
 30
18.20
 42
-0.031620
  0
VERTEX
  8
BORDER_D0_T132.1_RK1_A0_W0_EM1
 10
820.04
 20
1653.53
 30
18.20
 42
-0.027905
  0
VERTEX
  8
BORDER_D0_T132.1_RK1_A0_W0_EM1
 10
852.02
 20
1531.41
 30
18.20
 42
-0.025667
  0
VERTEX
  8
BORDER_D0_T132.1_RK1_A0_W0_EM1
 10
871.60
 20
1401.27
 30
18.20
 42
-0.024617
  0
VERTEX
  8
BORDER_D0_T132.1_RK1_A0_W0_EM1
 10
878.20
 20
1267.05
 30
18.20
 42
-0.024617
  0
VERTEX
  8
BORDER_D0_T132.1_RK1_A0_W0_EM1
 10
871.60
 20
1132.83
 30
18.20
 42
-0.025667
  0
VERTEX
  8
BORDER_D0_T132.1_RK1_A0_W0_EM1
 10
852.02
 20
1002.69
 30
18.20
 42
-0.027905
  0
VERTEX
  8
BORDER_D0_T132.1_RK1_A0_W0_EM1
 10
820.04
 20
880.58
 30
18.20
 42
-0.031620
  0
VERTEX
  8
BORDER_D0_T132.1_RK1_A0_W0_EM1
 10
776.64
 20
770.21
 30
18.20
 42
-0.037263
  0
VERTEX
  8
BORDER_D0_T132.1_RK1_A0_W0_EM1
 10
723.13
 20
674.94
 30
18.20
 42
-0.045362
  0
VERTEX
  8
BORDER_D0_T132.1_RK1_A0_W0_EM1
 10
661.15
 20
597.66
 30
18.20
 42
-0.056093
  0
VERTEX
  8
BORDER_D0_T132.1_RK1_A0_W0_EM1
 10
592.57
 20
540.72
 30
18.20
 42
-0.068058
  0
VERTEX
  8
BORDER_D0_T132.1_RK1_A0_W0_EM1
 10
519.48
 20
505.84
 30
18.20
 42
-0.076786
  0
VERTEX
  8
BORDER_D0_T132.1_RK1_A0_W0_EM1
 10
444.10
 20
494.10
 30
18.20
 42
-0.076786
  0
VERTEX
  8
BORDER_D0_T132.1_RK1_A0_W0_EM1
 10
368.72
 20
505.84
 30
18.20
 42
-0.068058
  0
VERTEX
  8
BORDER_D0_T132.1_RK1_A0_W0_EM1
 10
295.63
 20
540.72
 30
18.20
 42
-0.056093
  0
VERTEX
  8
BORDER_D0_T132.1_RK1_A0_W0_EM1
 10
227.05
 20
597.66
 30
18.20
 42
-0.045362
  0
VERTEX
  8
BORDER_D0_T132.1_RK1_A0_W0_EM1
 10
165.07
 20
674.94
 30
18.20
 42
-0.037263
  0
VERTEX
  8
BORDER_D0_T132.1_RK1_A0_W0_EM1
 10
111.56
 20
770.21
 30
18.20
 42
-0.031620
  0
VERTEX
  8
BORDER_D0_T132.1_RK1_A0_W0_EM1
 10
68.16
 20
880.58
 30
18.20
 42
-0.027905
  0
VERTEX
  8
BORDER_D0_T132.1_RK1_A0_W0_EM1
 10
36.18
 20
1002.69
 30
18.20
 42
-0.025667
  0
VERTEX
  8
BORDER_D0_T132.1_RK1_A0_W0_EM1
 10
16.59
 20
1132.83
 30
18.20
 42
-0.024617
  0
VERTEX
  8
BORDER_D0_T132.1_RK1_A0_W0_EM1
 10
10.00
 20
1267.05
 30
18.20
 42
-0.024617
  0
VERTEX
  8
BORDER_D0_T132.1_RK1_A0_W0_EM1
 10
16.59
 20
1401.27
 30
18.20
 42
-0.025667
  0
VERTEX
  8
BORDER_D0_T132.1_RK1_A0_W0_EM1
 10
36.18
 20
1531.41
 30
18.20
 42
-0.027905
  0
VERTEX
  8
BORDER_D0_T132.1_RK1_A0_W0_EM1
 10
68.16
 20
1653.53
 30
18.20
 42
-0.031620
  0
VERTEX
  8
BORDER_D0_T132.1_RK1_A0_W0_EM1
 10
111.56
 20
1763.89
 30
18.20
 42
-0.037263
  0
VERTEX
  8
BORDER_D0_T132.1_RK1_A0_W0_EM1
 10
165.07
 20
1859.16
 30
18.20
 42
-0.045362
  0
VERTEX
  8
BORDER_D0_T132.1_RK1_A0_W0_EM1
 10
227.05
 20
1936.44
 30
18.20
 42
-0.056093
  0
VERTEX
  8
BORDER_D0_T132.1_RK1_A0_W0_EM1
 10
295.63
 20
1993.39
 30
18.20
 42
-0.068058
  0
VERTEX
  8
BORDER_D0_T132.1_RK1_A0_W0_EM1
 10
368.72
 20
2028.26
 30
18.20
 42
-0.076786
  0
VERTEX
  8
BORDER_D0_T132.1_RK1_A0_W0_EM1
 10
444.10
 20
2040.00
 30
18.20
  0
SEQEND
  8
BORDER_D0_T132.1_RK1_A0_W0_EM1
  0
POLYLINE
  8
BORDER_D0_T132.1_RK1_A0_W0_EM1
 70
1
 66
1
  0
VERTEX
  8
BORDER_D0_T132.1_RK1_A0_W0_EM1
 10
186.81
 20
1947.04
 30
18.20
  0
VERTEX
  8
BORDER_D0_T132.1_RK1_A0_W0_EM1
 10
119.28
 20
1854.09
 30
18.20
  0
VERTEX
  8
BORDER_D0_T132.1_RK1_A0_W0_EM1
 10
10.00
 20
1889.59
 30
18.20
  0
VERTEX
  8
BORDER_D0_T132.1_RK1_A0_W0_EM1
 10
10.00
 20
2004.49
 30
18.20
  0
VERTEX
  8
BORDER_D0_T132.1_RK1_A0_W0_EM1
 10
119.28
 20
2040.00
 30
18.20
  0
VERTEX
  8
BORDER_D0_T132.1_RK1_A0_W0_EM1
 10
186.81
 20
1947.04
 30
18.20
  0
SEQEND
  8
BORDER_D0_T132.1_RK1_A0_W0_EM1
  0
ENDSEC
  0
EOF
