  0
SECTION
  2
HEADER
  9
$LTSCALE
 40
30.00
  9
$LIMMIN
 10
-30.50
 20
-45.75
  9
$LIMMAX
 10
3080.50
 20
1631.75
  9
$EXTMIN
 10
-30.50
 20
-45.75
  9
$EXTMAX
 10
3080.50
 20
1631.75
  9
$TEXTSTYLE
  7
txt
  9
$CLAYER
  8
1
  9
$CECOLOR
 62
7
  9
$CELTYPE
  6
CONTINUOUS
  9
$OSMODE
 70
0
  0
ENDSEC
  0
SECTION
  2
TABLES
  0
TABLE
  2
STYLE
 70
1
  0
STYLE
  2
STANDARD
 70
0
 40
1.00
 41
1.00
 50
0.00
 71
0
 42
0.20
  3
txt
  4

  0
ENDTAB
  0
TABLE
  2
LTYPE
 70
1
  0
LTYPE
  2
HIDDEN
 70
64
  3
_ _ _ _ _ _ _ _ _ _ _ _ _ _ _ _ _ _ _ _ _ _
 72
65
 73
2
 40
0.50
 49
0.25
 49
-0.25
  0
ENDTAB
  0
ENDSEC
  0
SECTION
  2
ENTITIES
  0
LINE
  6
CONTINUOUS
  8
FRAME_Z18
 10
0.00
 20
0.00
 30
0.00
 11
3050.00
 21
0.00
 31
0.00
  0
LINE
  6
CONTINUOUS
  8
FRAME_Z18
 10
0.00
 20
1525.00
 30
0.00
 11
3050.00
 21
1525.00
 31
0.00
  0
LINE
  6
CONTINUOUS
  8
FRAME_Z18
 10
0.00
 20
0.00
 30
0.00
 11
0.00
 21
1525.00
 31
0.00
  0
LINE
  6
CONTINUOUS
  8
FRAME_Z18
 10
3050.00
 20
0.00
 30
0.00
 11
3050.00
 21
1525.00
 31
0.00
  0
CIRCLE
  8
VBORE_Z10_D10
 10
65.00
 20
290.00
 30
10.00
 40
5.00
  0
CIRCLE
  8
VBORE_Z10_D10
 10
565.00
 20
290.00
 30
10.00
 40
5.00
  0
CIRCLE
  8
VBORE_Z6_D6
 10
80.00
 20
290.00
 30
6.00
 40
3.00
  0
CIRCLE
  8
VBORE_Z6_D6
 10
550.00
 20
290.00
 30
6.00
 40
3.00
  0
POLYLINE
  8
POCKET_D0
 70
1
 66
1
  0
VERTEX
  8
POCKET_D0
 10
315.00
 20
90.00
 30
6.00
  0
VERTEX
  8
POCKET_D0
 10
125.00
 20
90.00
 30
6.00
 42
-0.414214
  0
VERTEX
  8
POCKET_D0
 10
115.00
 20
100.00
 30
6.00
  0
VERTEX
  8
POCKET_D0
 10
115.00
 20
230.00
 30
6.00
 42
-0.414214
  0
VERTEX
  8
POCKET_D0
 10
125.00
 20
240.00
 30
6.00
  0
VERTEX
  8
POCKET_D0
 10
290.00
 20
240.00
 30
6.00
  0
VERTEX
  8
POCKET_D0
 10
505.00
 20
240.00
 30
6.00
 42
-0.414214
  0
VERTEX
  8
POCKET_D0
 10
515.00
 20
230.00
 30
6.00
  0
VERTEX
  8
POCKET_D0
 10
515.00
 20
100.00
 30
6.00
 42
-0.414214
  0
VERTEX
  8
POCKET_D0
 10
505.00
 20
90.00
 30
6.00
  0
VERTEX
  8
POCKET_D0
 10
315.00
 20
90.00
 30
6.00
  0
SEQEND
  8
POCKET_D0
  0
POLYLINE
  8
ROUT_Z6_D5
 70
0
 66
1
 40
5.00
 41
5.00
  0
VERTEX
  8
ROUT_Z6_D5
 10
115.00
 20
290.00
 30
6.00
  0
VERTEX
  8
ROUT_Z6_D5
 10
515.00
 20
290.00
 30
6.00
  0
SEQEND
  8
ROUT_Z6_D5
  0
CIRCLE
  8
VBORE_Z10_D10
 10
2820.93
 20
845.00
 30
10.00
 40
5.00
  0
CIRCLE
  8
VBORE_Z10_D10
 10
2820.93
 20
345.00
 30
10.00
 40
5.00
  0
CIRCLE
  8
VBORE_Z6_D6
 10
2820.93
 20
830.00
 30
6.00
 40
3.00
  0
CIRCLE
  8
VBORE_Z6_D6
 10
2820.93
 20
360.00
 30
6.00
 40
3.00
  0
POLYLINE
  8
POCKET_D0
 70
1
 66
1
  0
VERTEX
  8
POCKET_D0
 10
2620.93
 20
595.00
 30
6.00
  0
VERTEX
  8
POCKET_D0
 10
2620.93
 20
785.00
 30
6.00
 42
-0.414214
  0
VERTEX
  8
POCKET_D0
 10
2630.93
 20
795.00
 30
6.00
  0
VERTEX
  8
POCKET_D0
 10
2760.93
 20
795.00
 30
6.00
 42
-0.414214
  0
VERTEX
  8
POCKET_D0
 10
2770.93
 20
785.00
 30
6.00
  0
VERTEX
  8
POCKET_D0
 10
2770.93
 20
620.00
 30
6.00
  0
VERTEX
  8
POCKET_D0
 10
2770.93
 20
405.00
 30
6.00
 42
-0.414214
  0
VERTEX
  8
POCKET_D0
 10
2760.93
 20
395.00
 30
6.00
  0
VERTEX
  8
POCKET_D0
 10
2630.93
 20
395.00
 30
6.00
 42
-0.414214
  0
VERTEX
  8
POCKET_D0
 10
2620.93
 20
405.00
 30
6.00
  0
VERTEX
  8
POCKET_D0
 10
2620.93
 20
595.00
 30
6.00
  0
SEQEND
  8
POCKET_D0
  0
POLYLINE
  8
ROUT_Z6_D5
 70
0
 66
1
 40
5.00
 41
5.00
  0
VERTEX
  8
ROUT_Z6_D5
 10
2820.93
 20
795.00
 30
6.00
  0
VERTEX
  8
ROUT_Z6_D5
 10
2820.93
 20
395.00
 30
6.00
  0
SEQEND
  8
ROUT_Z6_D5
  0
CIRCLE
  8
VBORE_Z10_D10
 10
2819.99
 20
1460.00
 30
10.00
 40
5.00
  0
CIRCLE
  8
VBORE_Z10_D10
 10
2819.99
 20
960.00
 30
10.00
 40
5.00
  0
CIRCLE
  8
VBORE_Z6_D6
 10
2819.99
 20
1445.00
 30
6.00
 40
3.00
  0
CIRCLE
  8
VBORE_Z6_D6
 10
2819.99
 20
975.00
 30
6.00
 40
3.00
  0
POLYLINE
  8
POCKET_D0
 70
1
 66
1
  0
VERTEX
  8
POCKET_D0
 10
2619.99
 20
1210.00
 30
6.00
  0
VERTEX
  8
POCKET_D0
 10
2619.99
 20
1400.00
 30
6.00
 42
-0.414214
  0
VERTEX
  8
POCKET_D0
 10
2629.99
 20
1410.00
 30
6.00
  0
VERTEX
  8
POCKET_D0
 10
2759.99
 20
1410.00
 30
6.00
 42
-0.414214
  0
VERTEX
  8
POCKET_D0
 10
2769.99
 20
1400.00
 30
6.00
  0
VERTEX
  8
POCKET_D0
 10
2769.99
 20
1235.00
 30
6.00
  0
VERTEX
  8
POCKET_D0
 10
2769.99
 20
1020.00
 30
6.00
 42
-0.414214
  0
VERTEX
  8
POCKET_D0
 10
2759.99
 20
1010.00
 30
6.00
  0
VERTEX
  8
POCKET_D0
 10
2629.99
 20
1010.00
 30
6.00
 42
-0.414214
  0
VERTEX
  8
POCKET_D0
 10
2619.99
 20
1020.00
 30
6.00
  0
VERTEX
  8
POCKET_D0
 10
2619.99
 20
1210.00
 30
6.00
  0
SEQEND
  8
POCKET_D0
  0
POLYLINE
  8
ROUT_Z6_D5
 70
0
 66
1
 40
5.00
 41
5.00
  0
VERTEX
  8
ROUT_Z6_D5
 10
2819.99
 20
1410.00
 30
6.00
  0
VERTEX
  8
ROUT_Z6_D5
 10
2819.99
 20
1010.00
 30
6.00
  0
SEQEND
  8
ROUT_Z6_D5
  0
CIRCLE
  8
VBORE_Z10_D35
 10
1575.00
 20
405.00
 30
10.00
 40
17.50
  0
CIRCLE
  8
VBORE_Z10_D35
 10
1575.00
 20
875.00
 30
10.00
 40
17.50
  0
CIRCLE
  8
VBORE_Z10_D8
 10
1589.00
 20
384.00
 30
10.00
 40
4.00
  0
CIRCLE
  8
VBORE_Z10_D8
 10
1589.00
 20
426.00
 30
10.00
 40
4.00
  0
CIRCLE
  8
VBORE_Z10_D8
 10
1589.00
 20
854.00
 30
10.00
 40
4.00
  0
CIRCLE
  8
VBORE_Z10_D8
 10
1589.00
 20
896.00
 30
10.00
 40
4.00
  0
CIRCLE
  8
VBORE_Z18_D8
 10
2010.00
 20
895.00
 30
18.00
 40
4.00
  0
CIRCLE
  8
VBORE_Z10_D35
 10
1065.00
 20
405.00
 30
10.00
 40
17.50
  0
CIRCLE
  8
VBORE_Z10_D35
 10
1065.00
 20
875.00
 30
10.00
 40
17.50
  0
CIRCLE
  8
VBORE_Z10_D8
 10
1079.00
 20
384.00
 30
10.00
 40
4.00
  0
CIRCLE
  8
VBORE_Z10_D8
 10
1079.00
 20
426.00
 30
10.00
 40
4.00
  0
CIRCLE
  8
VBORE_Z10_D8
 10
1079.00
 20
854.00
 30
10.00
 40
4.00
  0
CIRCLE
  8
VBORE_Z10_D8
 10
1079.00
 20
896.00
 30
10.00
 40
4.00
  0
CIRCLE
  8
VBORE_Z18_D8
 10
1500.00
 20
895.00
 30
18.00
 40
4.00
  0
CIRCLE
  8
VBORE_Z10_D35
 10
555.00
 20
405.00
 30
10.00
 40
17.50
  0
CIRCLE
  8
VBORE_Z10_D35
 10
555.00
 20
875.00
 30
10.00
 40
17.50
  0
CIRCLE
  8
VBORE_Z10_D8
 10
569.00
 20
384.00
 30
10.00
 40
4.00
  0
CIRCLE
  8
VBORE_Z10_D8
 10
569.00
 20
426.00
 30
10.00
 40
4.00
  0
CIRCLE
  8
VBORE_Z10_D8
 10
569.00
 20
854.00
 30
10.00
 40
4.00
  0
CIRCLE
  8
VBORE_Z10_D8
 10
569.00
 20
896.00
 30
10.00
 40
4.00
  0
CIRCLE
  8
VBORE_Z18_D8
 10
990.00
 20
895.00
 30
18.00
 40
4.00
  0
CIRCLE
  8
VBORE_Z10_D35
 10
45.00
 20
405.00
 30
10.00
 40
17.50
  0
CIRCLE
  8
VBORE_Z10_D35
 10
45.00
 20
875.00
 30
10.00
 40
17.50
  0
CIRCLE
  8
VBORE_Z10_D8
 10
59.00
 20
384.00
 30
10.00
 40
4.00
  0
CIRCLE
  8
VBORE_Z10_D8
 10
59.00
 20
426.00
 30
10.00
 40
4.00
  0
CIRCLE
  8
VBORE_Z10_D8
 10
59.00
 20
854.00
 30
10.00
 40
4.00
  0
CIRCLE
  8
VBORE_Z10_D8
 10
59.00
 20
896.00
 30
10.00
 40
4.00
  0
CIRCLE
  8
VBORE_Z18_D8
 10
480.00
 20
895.00
 30
18.00
 40
4.00
  0
CIRCLE
  8
VBORE_Z10_D35
 10
45.00
 20
990.00
 30
10.00
 40
17.50
  0
CIRCLE
  8
VBORE_Z10_D35
 10
45.00
 20
1460.00
 30
10.00
 40
17.50
  0
CIRCLE
  8
VBORE_Z10_D8
 10
59.00
 20
969.00
 30
10.00
 40
4.00
  0
CIRCLE
  8
VBORE_Z10_D8
 10
59.00
 20
1011.00
 30
10.00
 40
4.00
  0
CIRCLE
  8
VBORE_Z10_D8
 10
59.00
 20
1439.00
 30
10.00
 40
4.00
  0
CIRCLE
  8
VBORE_Z10_D8
 10
59.00
 20
1481.00
 30
10.00
 40
4.00
  0
CIRCLE
  8
VBORE_Z18_D8
 10
480.00
 20
1480.00
 30
18.00
 40
4.00
  0
CIRCLE
  8
VBORE_Z10_D35
 10
555.00
 20
990.00
 30
10.00
 40
17.50
  0
CIRCLE
  8
VBORE_Z10_D35
 10
555.00
 20
1460.00
 30
10.00
 40
17.50
  0
CIRCLE
  8
VBORE_Z10_D8
 10
569.00
 20
969.00
 30
10.00
 40
4.00
  0
CIRCLE
  8
VBORE_Z10_D8
 10
569.00
 20
1011.00
 30
10.00
 40
4.00
  0
CIRCLE
  8
VBORE_Z10_D8
 10
569.00
 20
1439.00
 30
10.00
 40
4.00
  0
CIRCLE
  8
VBORE_Z10_D8
 10
569.00
 20
1481.00
 30
10.00
 40
4.00
  0
CIRCLE
  8
VBORE_Z18_D8
 10
990.00
 20
1480.00
 30
18.00
 40
4.00
  0
CIRCLE
  8
VBORE_Z10_D35
 10
1065.00
 20
990.00
 30
10.00
 40
17.50
  0
CIRCLE
  8
VBORE_Z10_D35
 10
1065.00
 20
1460.00
 30
10.00
 40
17.50
  0
CIRCLE
  8
VBORE_Z10_D8
 10
1079.00
 20
969.00
 30
10.00
 40
4.00
  0
CIRCLE
  8
VBORE_Z10_D8
 10
1079.00
 20
1011.00
 30
10.00
 40
4.00
  0
CIRCLE
  8
VBORE_Z10_D8
 10
1079.00
 20
1439.00
 30
10.00
 40
4.00
  0
CIRCLE
  8
VBORE_Z10_D8
 10
1079.00
 20
1481.00
 30
10.00
 40
4.00
  0
CIRCLE
  8
VBORE_Z18_D8
 10
1500.00
 20
1480.00
 30
18.00
 40
4.00
  0
CIRCLE
  8
VBORE_Z10_D35
 10
1575.00
 20
990.00
 30
10.00
 40
17.50
  0
CIRCLE
  8
VBORE_Z10_D35
 10
1575.00
 20
1460.00
 30
10.00
 40
17.50
  0
CIRCLE
  8
VBORE_Z10_D8
 10
1589.00
 20
969.00
 30
10.00
 40
4.00
  0
CIRCLE
  8
VBORE_Z10_D8
 10
1589.00
 20
1011.00
 30
10.00
 40
4.00
  0
CIRCLE
  8
VBORE_Z10_D8
 10
1589.00
 20
1439.00
 30
10.00
 40
4.00
  0
CIRCLE
  8
VBORE_Z10_D8
 10
1589.00
 20
1481.00
 30
10.00
 40
4.00
  0
CIRCLE
  8
VBORE_Z18_D8
 10
2010.00
 20
1480.00
 30
18.00
 40
4.00
  0
POLYLINE
  8
BORDER_D0_T128_RK1_A0_W0_RI1_EM1_ID0014
 70
1
 66
1
  0
VERTEX
  8
BORDER_D0_T128_RK1_A0_W0_RI1_EM1_ID0014
 10
315.00
 20
40.00
 30
16.00
  0
VERTEX
  8
BORDER_D0_T128_RK1_A0_W0_RI1_EM1_ID0014
 10
15.00
 20
40.00
 30
16.00
  0
VERTEX
  8
BORDER_D0_T128_RK1_A0_W0_RI1_EM1_ID0014
 10
15.00
 20
340.00
 30
16.00
  0
VERTEX
  8
BORDER_D0_T128_RK1_A0_W0_RI1_EM1_ID0014
 10
315.00
 20
340.00
 30
16.00
  0
VERTEX
  8
BORDER_D0_T128_RK1_A0_W0_RI1_EM1_ID0014
 10
615.00
 20
340.00
 30
16.00
  0
VERTEX
  8
BORDER_D0_T128_RK1_A0_W0_RI1_EM1_ID0014
 10
615.00
 20
40.00
 30
16.00
  0
VERTEX
  8
BORDER_D0_T128_RK1_A0_W0_RI1_EM1_ID0014
 10
315.00
 20
40.00
 30
16.00
  0
SEQEND
  8
BORDER_D0_T128_RK1_A0_W0_RI1_EM1_ID0014
  0
POLYLINE
  8
BORDER_D0_T128_RK1_A0_W0_RI1_EM1_ID0001
 70
1
 66
1
  0
VERTEX
  8
BORDER_D0_T128_RK1_A0_W0_RI1_EM1_ID0001
 10
892.00
 20
190.00
 30
16.00
  0
VERTEX
  8
BORDER_D0_T128_RK1_A0_W0_RI1_EM1_ID0001
 10
892.00
 20
40.00
 30
16.00
  0
VERTEX
  8
BORDER_D0_T128_RK1_A0_W0_RI1_EM1_ID0001
 10
630.00
 20
40.00
 30
16.00
  0
VERTEX
  8
BORDER_D0_T128_RK1_A0_W0_RI1_EM1_ID0001
 10
630.00
 20
340.00
 30
16.00
  0
VERTEX
  8
BORDER_D0_T128_RK1_A0_W0_RI1_EM1_ID0001
 10
761.00
 20
340.00
 30
16.00
  0
VERTEX
  8
BORDER_D0_T128_RK1_A0_W0_RI1_EM1_ID0001
 10
892.00
 20
340.00
 30
16.00
  0
VERTEX
  8
BORDER_D0_T128_RK1_A0_W0_RI1_EM1_ID0001
 10
892.00
 20
190.00
 30
16.00
  0
SEQEND
  8
BORDER_D0_T128_RK1_A0_W0_RI1_EM1_ID0001
  0
POLYLINE
  8
BORDER_D0_T128_RK1_A0_W0_RI1_EM1_ID0001
 70
1
 66
1
  0
VERTEX
  8
BORDER_D0_T128_RK1_A0_W0_RI1_EM1_ID0001
 10
1169.00
 20
190.00
 30
16.00
  0
VERTEX
  8
BORDER_D0_T128_RK1_A0_W0_RI1_EM1_ID0001
 10
1169.00
 20
40.00
 30
16.00
  0
VERTEX
  8
BORDER_D0_T128_RK1_A0_W0_RI1_EM1_ID0001
 10
907.00
 20
40.00
 30
16.00
  0
VERTEX
  8
BORDER_D0_T128_RK1_A0_W0_RI1_EM1_ID0001
 10
907.00
 20
340.00
 30
16.00
  0
VERTEX
  8
BORDER_D0_T128_RK1_A0_W0_RI1_EM1_ID0001
 10
1038.00
 20
340.00
 30
16.00
  0
VERTEX
  8
BORDER_D0_T128_RK1_A0_W0_RI1_EM1_ID0001
 10
1169.00
 20
340.00
 30
16.00
  0
VERTEX
  8
BORDER_D0_T128_RK1_A0_W0_RI1_EM1_ID0001
 10
1169.00
 20
190.00
 30
16.00
  0
SEQEND
  8
BORDER_D0_T128_RK1_A0_W0_RI1_EM1_ID0001
  0
POLYLINE
  8
BORDER_D0_T128_RK1_A0_W0_RI1_EM1_ID0001
 70
1
 66
1
  0
VERTEX
  8
BORDER_D0_T128_RK1_A0_W0_RI1_EM1_ID0001
 10
1334.00
 20
78.00
 30
16.00
  0
VERTEX
  8
BORDER_D0_T128_RK1_A0_W0_RI1_EM1_ID0001
 10
1184.00
 20
78.00
 30
16.00
  0
VERTEX
  8
BORDER_D0_T128_RK1_A0_W0_RI1_EM1_ID0001
 10
1184.00
 20
340.00
 30
16.00
  0
VERTEX
  8
BORDER_D0_T128_RK1_A0_W0_RI1_EM1_ID0001
 10
1484.00
 20
340.00
 30
16.00
  0
VERTEX
  8
BORDER_D0_T128_RK1_A0_W0_RI1_EM1_ID0001
 10
1484.00
 20
209.00
 30
16.00
  0
VERTEX
  8
BORDER_D0_T128_RK1_A0_W0_RI1_EM1_ID0001
 10
1484.00
 20
78.00
 30
16.00
  0
VERTEX
  8
BORDER_D0_T128_RK1_A0_W0_RI1_EM1_ID0001
 10
1334.00
 20
78.00
 30
16.00
  0
SEQEND
  8
BORDER_D0_T128_RK1_A0_W0_RI1_EM1_ID0001
  0
POLYLINE
  8
BORDER_D0_T128_RK1_A0_W0_RI1_EM1_ID0011
 70
1
 66
1
  0
VERTEX
  8
BORDER_D0_T128_RK1_A0_W0_RI1_EM1_ID0011
 10
2305.00
 20
161.48
 30
16.00
  0
VERTEX
  8
BORDER_D0_T128_RK1_A0_W0_RI1_EM1_ID0011
 10
2055.00
 20
261.48
 30
16.00
  0
VERTEX
  8
BORDER_D0_T128_RK1_A0_W0_RI1_EM1_ID0011
 10
2055.00
 20
561.48
 30
16.00
  0
VERTEX
  8
BORDER_D0_T128_RK1_A0_W0_RI1_EM1_ID0011
 10
2555.00
 20
361.48
 30
16.00
  0
VERTEX
  8
BORDER_D0_T128_RK1_A0_W0_RI1_EM1_ID0011
 10
2555.00
 20
320.34
 30
16.00
  0
VERTEX
  8
BORDER_D0_T128_RK1_A0_W0_RI1_EM1_ID0011
 10
2555.00
 20
61.48
 30
16.00
  0
VERTEX
  8
BORDER_D0_T128_RK1_A0_W0_RI1_EM1_ID0011
 10
2305.00
 20
161.48
 30
16.00
  0
SEQEND
  8
BORDER_D0_T128_RK1_A0_W0_RI1_EM1_ID0011
  0
POLYLINE
  8
BORDER_D0_T128_RK1_A0_W0_RI1_EM1_ID0014
 70
1
 66
1
  0
VERTEX
  8
BORDER_D0_T128_RK1_A0_W0_RI1_EM1_ID0014
 10
2570.93
 20
595.00
 30
16.00
  0
VERTEX
  8
BORDER_D0_T128_RK1_A0_W0_RI1_EM1_ID0014
 10
2570.93
 20
895.00
 30
16.00
  0
VERTEX
  8
BORDER_D0_T128_RK1_A0_W0_RI1_EM1_ID0014
 10
2870.93
 20
895.00
 30
16.00
  0
VERTEX
  8
BORDER_D0_T128_RK1_A0_W0_RI1_EM1_ID0014
 10
2870.93
 20
595.00
 30
16.00
  0
VERTEX
  8
BORDER_D0_T128_RK1_A0_W0_RI1_EM1_ID0014
 10
2870.93
 20
295.00
 30
16.00
  0
VERTEX
  8
BORDER_D0_T128_RK1_A0_W0_RI1_EM1_ID0014
 10
2570.93
 20
295.00
 30
16.00
  0
VERTEX
  8
BORDER_D0_T128_RK1_A0_W0_RI1_EM1_ID0014
 10
2570.93
 20
595.00
 30
16.00
  0
SEQEND
  8
BORDER_D0_T128_RK1_A0_W0_RI1_EM1_ID0014
  0
POLYLINE
  8
BORDER_D0_T128_RK1_A0_W0_RI1_EM1_ID0011
 70
1
 66
1
  0
VERTEX
  8
BORDER_D0_T128_RK1_A0_W0_RI1_EM1_ID0011
 10
2305.94
 20
477.27
 30
16.00
  0
VERTEX
  8
BORDER_D0_T128_RK1_A0_W0_RI1_EM1_ID0011
 10
2055.94
 20
577.27
 30
16.00
  0
VERTEX
  8
BORDER_D0_T128_RK1_A0_W0_RI1_EM1_ID0011
 10
2055.94
 20
877.27
 30
16.00
  0
VERTEX
  8
BORDER_D0_T128_RK1_A0_W0_RI1_EM1_ID0011
 10
2555.94
 20
677.27
 30
16.00
  0
VERTEX
  8
BORDER_D0_T128_RK1_A0_W0_RI1_EM1_ID0011
 10
2555.94
 20
636.13
 30
16.00
  0
VERTEX
  8
BORDER_D0_T128_RK1_A0_W0_RI1_EM1_ID0011
 10
2555.94
 20
377.27
 30
16.00
  0
VERTEX
  8
BORDER_D0_T128_RK1_A0_W0_RI1_EM1_ID0011
 10
2305.94
 20
477.27
 30
16.00
  0
SEQEND
  8
BORDER_D0_T128_RK1_A0_W0_RI1_EM1_ID0011
  0
POLYLINE
  8
BORDER_D0_T128_RK1_A0_W0_RI1_EM1_ID0014
 70
1
 66
1
  0
VERTEX
  8
BORDER_D0_T128_RK1_A0_W0_RI1_EM1_ID0014
 10
2569.99
 20
1210.00
 30
16.00
  0
VERTEX
  8
BORDER_D0_T128_RK1_A0_W0_RI1_EM1_ID0014
 10
2569.99
 20
1510.00
 30
16.00
  0
VERTEX
  8
BORDER_D0_T128_RK1_A0_W0_RI1_EM1_ID0014
 10
2869.99
 20
1510.00
 30
16.00
  0
VERTEX
  8
BORDER_D0_T128_RK1_A0_W0_RI1_EM1_ID0014
 10
2869.99
 20
1210.00
 30
16.00
  0
VERTEX
  8
BORDER_D0_T128_RK1_A0_W0_RI1_EM1_ID0014
 10
2869.99
 20
910.00
 30
16.00
  0
VERTEX
  8
BORDER_D0_T128_RK1_A0_W0_RI1_EM1_ID0014
 10
2569.99
 20
910.00
 30
16.00
  0
VERTEX
  8
BORDER_D0_T128_RK1_A0_W0_RI1_EM1_ID0014
 10
2569.99
 20
1210.00
 30
16.00
  0
SEQEND
  8
BORDER_D0_T128_RK1_A0_W0_RI1_EM1_ID0014
  0
POLYLINE
  8
BORDER_D0_T128_RK1_A0_W0_RI1_EM1_ID0011
 70
1
 66
1
  0
VERTEX
  8
BORDER_D0_T128_RK1_A0_W0_RI1_EM1_ID0011
 10
2305.00
 20
1093.83
 30
16.00
  0
VERTEX
  8
BORDER_D0_T128_RK1_A0_W0_RI1_EM1_ID0011
 10
2555.00
 20
993.83
 30
16.00
  0
VERTEX
  8
BORDER_D0_T128_RK1_A0_W0_RI1_EM1_ID0011
 10
2555.00
 20
693.83
 30
16.00
  0
VERTEX
  8
BORDER_D0_T128_RK1_A0_W0_RI1_EM1_ID0011
 10
2055.00
 20
893.83
 30
16.00
  0
VERTEX
  8
BORDER_D0_T128_RK1_A0_W0_RI1_EM1_ID0011
 10
2055.00
 20
934.97
 30
16.00
  0
VERTEX
  8
BORDER_D0_T128_RK1_A0_W0_RI1_EM1_ID0011
 10
2055.00
 20
1193.83
 30
16.00
  0
VERTEX
  8
BORDER_D0_T128_RK1_A0_W0_RI1_EM1_ID0011
 10
2305.00
 20
1093.83
 30
16.00
  0
SEQEND
  8
BORDER_D0_T128_RK1_A0_W0_RI1_EM1_ID0011
  0
POLYLINE
  8
BORDER_D0_T128_RK1_A0_W0_RI1_EM1_ID0013
 70
1
 66
1
  0
VERTEX
  8
BORDER_D0_T128_RK1_A0_W0_RI1_EM1_ID0013
 10
2040.00
 20
640.00
 30
16.00
  0
VERTEX
  8
BORDER_D0_T128_RK1_A0_W0_RI1_EM1_ID0013
 10
2040.00
 20
355.00
 30
16.00
  0
VERTEX
  8
BORDER_D0_T128_RK1_A0_W0_RI1_EM1_ID0013
 10
1545.00
 20
355.00
 30
16.00
  0
VERTEX
  8
BORDER_D0_T128_RK1_A0_W0_RI1_EM1_ID0013
 10
1545.00
 20
925.00
 30
16.00
  0
VERTEX
  8
BORDER_D0_T128_RK1_A0_W0_RI1_EM1_ID0013
 10
1792.50
 20
925.00
 30
16.00
  0
VERTEX
  8
BORDER_D0_T128_RK1_A0_W0_RI1_EM1_ID0013
 10
2040.00
 20
925.00
 30
16.00
  0
VERTEX
  8
BORDER_D0_T128_RK1_A0_W0_RI1_EM1_ID0013
 10
2040.00
 20
640.00
 30
16.00
  0
SEQEND
  8
BORDER_D0_T128_RK1_A0_W0_RI1_EM1_ID0013
  0
POLYLINE
  8
BORDER_D0_T128_RK1_A0_W0_RI1_EM1_ID0013
 70
1
 66
1
  0
VERTEX
  8
BORDER_D0_T128_RK1_A0_W0_RI1_EM1_ID0013
 10
1530.00
 20
640.00
 30
16.00
  0
VERTEX
  8
BORDER_D0_T128_RK1_A0_W0_RI1_EM1_ID0013
 10
1530.00
 20
355.00
 30
16.00
  0
VERTEX
  8
BORDER_D0_T128_RK1_A0_W0_RI1_EM1_ID0013
 10
1035.00
 20
355.00
 30
16.00
  0
VERTEX
  8
BORDER_D0_T128_RK1_A0_W0_RI1_EM1_ID0013
 10
1035.00
 20
925.00
 30
16.00
  0
VERTEX
  8
BORDER_D0_T128_RK1_A0_W0_RI1_EM1_ID0013
 10
1282.50
 20
925.00
 30
16.00
  0
VERTEX
  8
BORDER_D0_T128_RK1_A0_W0_RI1_EM1_ID0013
 10
1530.00
 20
925.00
 30
16.00
  0
VERTEX
  8
BORDER_D0_T128_RK1_A0_W0_RI1_EM1_ID0013
 10
1530.00
 20
640.00
 30
16.00
  0
SEQEND
  8
BORDER_D0_T128_RK1_A0_W0_RI1_EM1_ID0013
  0
POLYLINE
  8
BORDER_D0_T128_RK1_A0_W0_RI1_EM1_ID0013
 70
1
 66
1
  0
VERTEX
  8
BORDER_D0_T128_RK1_A0_W0_RI1_EM1_ID0013
 10
1020.00
 20
640.00
 30
16.00
  0
VERTEX
  8
BORDER_D0_T128_RK1_A0_W0_RI1_EM1_ID0013
 10
1020.00
 20
355.00
 30
16.00
  0
VERTEX
  8
BORDER_D0_T128_RK1_A0_W0_RI1_EM1_ID0013
 10
525.00
 20
355.00
 30
16.00
  0
VERTEX
  8
BORDER_D0_T128_RK1_A0_W0_RI1_EM1_ID0013
 10
525.00
 20
925.00
 30
16.00
  0
VERTEX
  8
BORDER_D0_T128_RK1_A0_W0_RI1_EM1_ID0013
 10
772.50
 20
925.00
 30
16.00
  0
VERTEX
  8
BORDER_D0_T128_RK1_A0_W0_RI1_EM1_ID0013
 10
1020.00
 20
925.00
 30
16.00
  0
VERTEX
  8
BORDER_D0_T128_RK1_A0_W0_RI1_EM1_ID0013
 10
1020.00
 20
640.00
 30
16.00
  0
SEQEND
  8
BORDER_D0_T128_RK1_A0_W0_RI1_EM1_ID0013
  0
POLYLINE
  8
BORDER_D0_T128_RK1_A0_W0_RI1_EM1_ID0013
 70
1
 66
1
  0
VERTEX
  8
BORDER_D0_T128_RK1_A0_W0_RI1_EM1_ID0013
 10
510.00
 20
640.00
 30
16.00
  0
VERTEX
  8
BORDER_D0_T128_RK1_A0_W0_RI1_EM1_ID0013
 10
510.00
 20
355.00
 30
16.00
  0
VERTEX
  8
BORDER_D0_T128_RK1_A0_W0_RI1_EM1_ID0013
 10
15.00
 20
355.00
 30
16.00
  0
VERTEX
  8
BORDER_D0_T128_RK1_A0_W0_RI1_EM1_ID0013
 10
15.00
 20
925.00
 30
16.00
  0
VERTEX
  8
BORDER_D0_T128_RK1_A0_W0_RI1_EM1_ID0013
 10
262.50
 20
925.00
 30
16.00
  0
VERTEX
  8
BORDER_D0_T128_RK1_A0_W0_RI1_EM1_ID0013
 10
510.00
 20
925.00
 30
16.00
  0
VERTEX
  8
BORDER_D0_T128_RK1_A0_W0_RI1_EM1_ID0013
 10
510.00
 20
640.00
 30
16.00
  0
SEQEND
  8
BORDER_D0_T128_RK1_A0_W0_RI1_EM1_ID0013
  0
POLYLINE
  8
BORDER_D0_T128_RK1_A0_W0_RI1_EM1_ID0013
 70
1
 66
1
  0
VERTEX
  8
BORDER_D0_T128_RK1_A0_W0_RI1_EM1_ID0013
 10
510.00
 20
1225.00
 30
16.00
  0
VERTEX
  8
BORDER_D0_T128_RK1_A0_W0_RI1_EM1_ID0013
 10
510.00
 20
940.00
 30
16.00
  0
VERTEX
  8
BORDER_D0_T128_RK1_A0_W0_RI1_EM1_ID0013
 10
15.00
 20
940.00
 30
16.00
  0
VERTEX
  8
BORDER_D0_T128_RK1_A0_W0_RI1_EM1_ID0013
 10
15.00
 20
1510.00
 30
16.00
  0
VERTEX
  8
BORDER_D0_T128_RK1_A0_W0_RI1_EM1_ID0013
 10
262.50
 20
1510.00
 30
16.00
  0
VERTEX
  8
BORDER_D0_T128_RK1_A0_W0_RI1_EM1_ID0013
 10
510.00
 20
1510.00
 30
16.00
  0
VERTEX
  8
BORDER_D0_T128_RK1_A0_W0_RI1_EM1_ID0013
 10
510.00
 20
1225.00
 30
16.00
  0
SEQEND
  8
BORDER_D0_T128_RK1_A0_W0_RI1_EM1_ID0013
  0
POLYLINE
  8
BORDER_D0_T128_RK1_A0_W0_RI1_EM1_ID0013
 70
1
 66
1
  0
VERTEX
  8
BORDER_D0_T128_RK1_A0_W0_RI1_EM1_ID0013
 10
1020.00
 20
1225.00
 30
16.00
  0
VERTEX
  8
BORDER_D0_T128_RK1_A0_W0_RI1_EM1_ID0013
 10
1020.00
 20
940.00
 30
16.00
  0
VERTEX
  8
BORDER_D0_T128_RK1_A0_W0_RI1_EM1_ID0013
 10
525.00
 20
940.00
 30
16.00
  0
VERTEX
  8
BORDER_D0_T128_RK1_A0_W0_RI1_EM1_ID0013
 10
525.00
 20
1510.00
 30
16.00
  0
VERTEX
  8
BORDER_D0_T128_RK1_A0_W0_RI1_EM1_ID0013
 10
772.50
 20
1510.00
 30
16.00
  0
VERTEX
  8
BORDER_D0_T128_RK1_A0_W0_RI1_EM1_ID0013
 10
1020.00
 20
1510.00
 30
16.00
  0
VERTEX
  8
BORDER_D0_T128_RK1_A0_W0_RI1_EM1_ID0013
 10
1020.00
 20
1225.00
 30
16.00
  0
SEQEND
  8
BORDER_D0_T128_RK1_A0_W0_RI1_EM1_ID0013
  0
POLYLINE
  8
BORDER_D0_T128_RK1_A0_W0_RI1_EM1_ID0013
 70
1
 66
1
  0
VERTEX
  8
BORDER_D0_T128_RK1_A0_W0_RI1_EM1_ID0013
 10
1530.00
 20
1225.00
 30
16.00
  0
VERTEX
  8
BORDER_D0_T128_RK1_A0_W0_RI1_EM1_ID0013
 10
1530.00
 20
940.00
 30
16.00
  0
VERTEX
  8
BORDER_D0_T128_RK1_A0_W0_RI1_EM1_ID0013
 10
1035.00
 20
940.00
 30
16.00
  0
VERTEX
  8
BORDER_D0_T128_RK1_A0_W0_RI1_EM1_ID0013
 10
1035.00
 20
1510.00
 30
16.00
  0
VERTEX
  8
BORDER_D0_T128_RK1_A0_W0_RI1_EM1_ID0013
 10
1282.50
 20
1510.00
 30
16.00
  0
VERTEX
  8
BORDER_D0_T128_RK1_A0_W0_RI1_EM1_ID0013
 10
1530.00
 20
1510.00
 30
16.00
  0
VERTEX
  8
BORDER_D0_T128_RK1_A0_W0_RI1_EM1_ID0013
 10
1530.00
 20
1225.00
 30
16.00
  0
SEQEND
  8
BORDER_D0_T128_RK1_A0_W0_RI1_EM1_ID0013
  0
POLYLINE
  8
BORDER_D0_T128_RK1_A0_W0_RI1_EM1_ID0013
 70
1
 66
1
  0
VERTEX
  8
BORDER_D0_T128_RK1_A0_W0_RI1_EM1_ID0013
 10
2040.00
 20
1225.00
 30
16.00
  0
VERTEX
  8
BORDER_D0_T128_RK1_A0_W0_RI1_EM1_ID0013
 10
2040.00
 20
940.00
 30
16.00
  0
VERTEX
  8
BORDER_D0_T128_RK1_A0_W0_RI1_EM1_ID0013
 10
1545.00
 20
940.00
 30
16.00
  0
VERTEX
  8
BORDER_D0_T128_RK1_A0_W0_RI1_EM1_ID0013
 10
1545.00
 20
1510.00
 30
16.00
  0
VERTEX
  8
BORDER_D0_T128_RK1_A0_W0_RI1_EM1_ID0013
 10
1792.50
 20
1510.00
 30
16.00
  0
VERTEX
  8
BORDER_D0_T128_RK1_A0_W0_RI1_EM1_ID0013
 10
2040.00
 20
1510.00
 30
16.00
  0
VERTEX
  8
BORDER_D0_T128_RK1_A0_W0_RI1_EM1_ID0013
 10
2040.00
 20
1225.00
 30
16.00
  0
SEQEND
  8
BORDER_D0_T128_RK1_A0_W0_RI1_EM1_ID0013
  0
POLYLINE
  8
BORDER_D0_T128_RK1_A0_W0_RI1_EM1_ID0011
 70
1
 66
1
  0
VERTEX
  8
BORDER_D0_T128_RK1_A0_W0_RI1_EM1_ID0011
 10
2305.00
 20
1410.00
 30
16.00
  0
VERTEX
  8
BORDER_D0_T128_RK1_A0_W0_RI1_EM1_ID0011
 10
2555.00
 20
1310.00
 30
16.00
  0
VERTEX
  8
BORDER_D0_T128_RK1_A0_W0_RI1_EM1_ID0011
 10
2555.00
 20
1010.00
 30
16.00
  0
VERTEX
  8
BORDER_D0_T128_RK1_A0_W0_RI1_EM1_ID0011
 10
2055.00
 20
1210.00
 30
16.00
  0
VERTEX
  8
BORDER_D0_T128_RK1_A0_W0_RI1_EM1_ID0011
 10
2055.00
 20
1251.14
 30
16.00
  0
VERTEX
  8
BORDER_D0_T128_RK1_A0_W0_RI1_EM1_ID0011
 10
2055.00
 20
1510.00
 30
16.00
  0
VERTEX
  8
BORDER_D0_T128_RK1_A0_W0_RI1_EM1_ID0011
 10
2305.00
 20
1410.00
 30
16.00
  0
SEQEND
  8
BORDER_D0_T128_RK1_A0_W0_RI1_EM1_ID0011
  0
POLYLINE
  8
BORDER_D0_T128.1_RK1_A0_W0_RI1_EM1_ID0014
 70
1
 66
1
  0
VERTEX
  8
BORDER_D0_T128.1_RK1_A0_W0_RI1_EM1_ID0014
 10
315.00
 20
40.00
 30
18.30
  0
VERTEX
  8
BORDER_D0_T128.1_RK1_A0_W0_RI1_EM1_ID0014
 10
15.00
 20
40.00
 30
18.30
  0
VERTEX
  8
BORDER_D0_T128.1_RK1_A0_W0_RI1_EM1_ID0014
 10
15.00
 20
340.00
 30
18.30
  0
VERTEX
  8
BORDER_D0_T128.1_RK1_A0_W0_RI1_EM1_ID0014
 10
315.00
 20
340.00
 30
18.30
  0
VERTEX
  8
BORDER_D0_T128.1_RK1_A0_W0_RI1_EM1_ID0014
 10
615.00
 20
340.00
 30
18.30
  0
VERTEX
  8
BORDER_D0_T128.1_RK1_A0_W0_RI1_EM1_ID0014
 10
615.00
 20
40.00
 30
18.30
  0
VERTEX
  8
BORDER_D0_T128.1_RK1_A0_W0_RI1_EM1_ID0014
 10
315.00
 20
40.00
 30
18.30
  0
SEQEND
  8
BORDER_D0_T128.1_RK1_A0_W0_RI1_EM1_ID0014
  0
POLYLINE
  8
BORDER_D0_T128.1_RK1_A0_W0_RI1_EM1_ID0001
 70
1
 66
1
  0
VERTEX
  8
BORDER_D0_T128.1_RK1_A0_W0_RI1_EM1_ID0001
 10
892.00
 20
190.00
 30
18.30
  0
VERTEX
  8
BORDER_D0_T128.1_RK1_A0_W0_RI1_EM1_ID0001
 10
892.00
 20
40.00
 30
18.30
  0
VERTEX
  8
BORDER_D0_T128.1_RK1_A0_W0_RI1_EM1_ID0001
 10
630.00
 20
40.00
 30
18.30
  0
VERTEX
  8
BORDER_D0_T128.1_RK1_A0_W0_RI1_EM1_ID0001
 10
630.00
 20
340.00
 30
18.30
  0
VERTEX
  8
BORDER_D0_T128.1_RK1_A0_W0_RI1_EM1_ID0001
 10
761.00
 20
340.00
 30
18.30
  0
VERTEX
  8
BORDER_D0_T128.1_RK1_A0_W0_RI1_EM1_ID0001
 10
892.00
 20
340.00
 30
18.30
  0
VERTEX
  8
BORDER_D0_T128.1_RK1_A0_W0_RI1_EM1_ID0001
 10
892.00
 20
190.00
 30
18.30
  0
SEQEND
  8
BORDER_D0_T128.1_RK1_A0_W0_RI1_EM1_ID0001
  0
POLYLINE
  8
BORDER_D0_T128.1_RK1_A0_W0_RI1_EM1_ID0001
 70
1
 66
1
  0
VERTEX
  8
BORDER_D0_T128.1_RK1_A0_W0_RI1_EM1_ID0001
 10
1169.00
 20
190.00
 30
18.30
  0
VERTEX
  8
BORDER_D0_T128.1_RK1_A0_W0_RI1_EM1_ID0001
 10
1169.00
 20
40.00
 30
18.30
  0
VERTEX
  8
BORDER_D0_T128.1_RK1_A0_W0_RI1_EM1_ID0001
 10
907.00
 20
40.00
 30
18.30
  0
VERTEX
  8
BORDER_D0_T128.1_RK1_A0_W0_RI1_EM1_ID0001
 10
907.00
 20
340.00
 30
18.30
  0
VERTEX
  8
BORDER_D0_T128.1_RK1_A0_W0_RI1_EM1_ID0001
 10
1038.00
 20
340.00
 30
18.30
  0
VERTEX
  8
BORDER_D0_T128.1_RK1_A0_W0_RI1_EM1_ID0001
 10
1169.00
 20
340.00
 30
18.30
  0
VERTEX
  8
BORDER_D0_T128.1_RK1_A0_W0_RI1_EM1_ID0001
 10
1169.00
 20
190.00
 30
18.30
  0
SEQEND
  8
BORDER_D0_T128.1_RK1_A0_W0_RI1_EM1_ID0001
  0
POLYLINE
  8
BORDER_D0_T128.1_RK1_A0_W0_RI1_EM1_ID0001
 70
1
 66
1
  0
VERTEX
  8
BORDER_D0_T128.1_RK1_A0_W0_RI1_EM1_ID0001
 10
1334.00
 20
78.00
 30
18.30
  0
VERTEX
  8
BORDER_D0_T128.1_RK1_A0_W0_RI1_EM1_ID0001
 10
1184.00
 20
78.00
 30
18.30
  0
VERTEX
  8
BORDER_D0_T128.1_RK1_A0_W0_RI1_EM1_ID0001
 10
1184.00
 20
340.00
 30
18.30
  0
VERTEX
  8
BORDER_D0_T128.1_RK1_A0_W0_RI1_EM1_ID0001
 10
1484.00
 20
340.00
 30
18.30
  0
VERTEX
  8
BORDER_D0_T128.1_RK1_A0_W0_RI1_EM1_ID0001
 10
1484.00
 20
209.00
 30
18.30
  0
VERTEX
  8
BORDER_D0_T128.1_RK1_A0_W0_RI1_EM1_ID0001
 10
1484.00
 20
78.00
 30
18.30
  0
VERTEX
  8
BORDER_D0_T128.1_RK1_A0_W0_RI1_EM1_ID0001
 10
1334.00
 20
78.00
 30
18.30
  0
SEQEND
  8
BORDER_D0_T128.1_RK1_A0_W0_RI1_EM1_ID0001
  0
POLYLINE
  8
BORDER_D0_T128.1_RK1_A0_W0_RI1_EM1_ID0011
 70
1
 66
1
  0
VERTEX
  8
BORDER_D0_T128.1_RK1_A0_W0_RI1_EM1_ID0011
 10
2305.00
 20
161.48
 30
18.30
  0
VERTEX
  8
BORDER_D0_T128.1_RK1_A0_W0_RI1_EM1_ID0011
 10
2055.00
 20
261.48
 30
18.30
  0
VERTEX
  8
BORDER_D0_T128.1_RK1_A0_W0_RI1_EM1_ID0011
 10
2055.00
 20
561.48
 30
18.30
  0
VERTEX
  8
BORDER_D0_T128.1_RK1_A0_W0_RI1_EM1_ID0011
 10
2555.00
 20
361.48
 30
18.30
  0
VERTEX
  8
BORDER_D0_T128.1_RK1_A0_W0_RI1_EM1_ID0011
 10
2555.00
 20
320.34
 30
18.30
  0
VERTEX
  8
BORDER_D0_T128.1_RK1_A0_W0_RI1_EM1_ID0011
 10
2555.00
 20
61.48
 30
18.30
  0
VERTEX
  8
BORDER_D0_T128.1_RK1_A0_W0_RI1_EM1_ID0011
 10
2305.00
 20
161.48
 30
18.30
  0
SEQEND
  8
BORDER_D0_T128.1_RK1_A0_W0_RI1_EM1_ID0011
  0
POLYLINE
  8
BORDER_D0_T128.1_RK1_A0_W0_RI1_EM1_ID0014
 70
1
 66
1
  0
VERTEX
  8
BORDER_D0_T128.1_RK1_A0_W0_RI1_EM1_ID0014
 10
2570.93
 20
595.00
 30
18.30
  0
VERTEX
  8
BORDER_D0_T128.1_RK1_A0_W0_RI1_EM1_ID0014
 10
2570.93
 20
895.00
 30
18.30
  0
VERTEX
  8
BORDER_D0_T128.1_RK1_A0_W0_RI1_EM1_ID0014
 10
2870.93
 20
895.00
 30
18.30
  0
VERTEX
  8
BORDER_D0_T128.1_RK1_A0_W0_RI1_EM1_ID0014
 10
2870.93
 20
595.00
 30
18.30
  0
VERTEX
  8
BORDER_D0_T128.1_RK1_A0_W0_RI1_EM1_ID0014
 10
2870.93
 20
295.00
 30
18.30
  0
VERTEX
  8
BORDER_D0_T128.1_RK1_A0_W0_RI1_EM1_ID0014
 10
2570.93
 20
295.00
 30
18.30
  0
VERTEX
  8
BORDER_D0_T128.1_RK1_A0_W0_RI1_EM1_ID0014
 10
2570.93
 20
595.00
 30
18.30
  0
SEQEND
  8
BORDER_D0_T128.1_RK1_A0_W0_RI1_EM1_ID0014
  0
POLYLINE
  8
BORDER_D0_T128.1_RK1_A0_W0_RI1_EM1_ID0011
 70
1
 66
1
  0
VERTEX
  8
BORDER_D0_T128.1_RK1_A0_W0_RI1_EM1_ID0011
 10
2305.94
 20
477.27
 30
18.30
  0
VERTEX
  8
BORDER_D0_T128.1_RK1_A0_W0_RI1_EM1_ID0011
 10
2055.94
 20
577.27
 30
18.30
  0
VERTEX
  8
BORDER_D0_T128.1_RK1_A0_W0_RI1_EM1_ID0011
 10
2055.94
 20
877.27
 30
18.30
  0
VERTEX
  8
BORDER_D0_T128.1_RK1_A0_W0_RI1_EM1_ID0011
 10
2555.94
 20
677.27
 30
18.30
  0
VERTEX
  8
BORDER_D0_T128.1_RK1_A0_W0_RI1_EM1_ID0011
 10
2555.94
 20
636.13
 30
18.30
  0
VERTEX
  8
BORDER_D0_T128.1_RK1_A0_W0_RI1_EM1_ID0011
 10
2555.94
 20
377.27
 30
18.30
  0
VERTEX
  8
BORDER_D0_T128.1_RK1_A0_W0_RI1_EM1_ID0011
 10
2305.94
 20
477.27
 30
18.30
  0
SEQEND
  8
BORDER_D0_T128.1_RK1_A0_W0_RI1_EM1_ID0011
  0
POLYLINE
  8
BORDER_D0_T128.1_RK1_A0_W0_RI1_EM1_ID0014
 70
1
 66
1
  0
VERTEX
  8
BORDER_D0_T128.1_RK1_A0_W0_RI1_EM1_ID0014
 10
2569.99
 20
1210.00
 30
18.30
  0
VERTEX
  8
BORDER_D0_T128.1_RK1_A0_W0_RI1_EM1_ID0014
 10
2569.99
 20
1510.00
 30
18.30
  0
VERTEX
  8
BORDER_D0_T128.1_RK1_A0_W0_RI1_EM1_ID0014
 10
2869.99
 20
1510.00
 30
18.30
  0
VERTEX
  8
BORDER_D0_T128.1_RK1_A0_W0_RI1_EM1_ID0014
 10
2869.99
 20
1210.00
 30
18.30
  0
VERTEX
  8
BORDER_D0_T128.1_RK1_A0_W0_RI1_EM1_ID0014
 10
2869.99
 20
910.00
 30
18.30
  0
VERTEX
  8
BORDER_D0_T128.1_RK1_A0_W0_RI1_EM1_ID0014
 10
2569.99
 20
910.00
 30
18.30
  0
VERTEX
  8
BORDER_D0_T128.1_RK1_A0_W0_RI1_EM1_ID0014
 10
2569.99
 20
1210.00
 30
18.30
  0
SEQEND
  8
BORDER_D0_T128.1_RK1_A0_W0_RI1_EM1_ID0014
  0
POLYLINE
  8
BORDER_D0_T128.1_RK1_A0_W0_RI1_EM1_ID0011
 70
1
 66
1
  0
VERTEX
  8
BORDER_D0_T128.1_RK1_A0_W0_RI1_EM1_ID0011
 10
2305.00
 20
1093.83
 30
18.30
  0
VERTEX
  8
BORDER_D0_T128.1_RK1_A0_W0_RI1_EM1_ID0011
 10
2555.00
 20
993.83
 30
18.30
  0
VERTEX
  8
BORDER_D0_T128.1_RK1_A0_W0_RI1_EM1_ID0011
 10
2555.00
 20
693.83
 30
18.30
  0
VERTEX
  8
BORDER_D0_T128.1_RK1_A0_W0_RI1_EM1_ID0011
 10
2055.00
 20
893.83
 30
18.30
  0
VERTEX
  8
BORDER_D0_T128.1_RK1_A0_W0_RI1_EM1_ID0011
 10
2055.00
 20
934.97
 30
18.30
  0
VERTEX
  8
BORDER_D0_T128.1_RK1_A0_W0_RI1_EM1_ID0011
 10
2055.00
 20
1193.83
 30
18.30
  0
VERTEX
  8
BORDER_D0_T128.1_RK1_A0_W0_RI1_EM1_ID0011
 10
2305.00
 20
1093.83
 30
18.30
  0
SEQEND
  8
BORDER_D0_T128.1_RK1_A0_W0_RI1_EM1_ID0011
  0
POLYLINE
  8
BORDER_D0_T128.1_RK1_A0_W0_RI1_EM1_ID0013
 70
1
 66
1
  0
VERTEX
  8
BORDER_D0_T128.1_RK1_A0_W0_RI1_EM1_ID0013
 10
2040.00
 20
640.00
 30
18.30
  0
VERTEX
  8
BORDER_D0_T128.1_RK1_A0_W0_RI1_EM1_ID0013
 10
2040.00
 20
355.00
 30
18.30
  0
VERTEX
  8
BORDER_D0_T128.1_RK1_A0_W0_RI1_EM1_ID0013
 10
1545.00
 20
355.00
 30
18.30
  0
VERTEX
  8
BORDER_D0_T128.1_RK1_A0_W0_RI1_EM1_ID0013
 10
1545.00
 20
925.00
 30
18.30
  0
VERTEX
  8
BORDER_D0_T128.1_RK1_A0_W0_RI1_EM1_ID0013
 10
1792.50
 20
925.00
 30
18.30
  0
VERTEX
  8
BORDER_D0_T128.1_RK1_A0_W0_RI1_EM1_ID0013
 10
2040.00
 20
925.00
 30
18.30
  0
VERTEX
  8
BORDER_D0_T128.1_RK1_A0_W0_RI1_EM1_ID0013
 10
2040.00
 20
640.00
 30
18.30
  0
SEQEND
  8
BORDER_D0_T128.1_RK1_A0_W0_RI1_EM1_ID0013
  0
POLYLINE
  8
BORDER_D0_T128.1_RK1_A0_W0_RI1_EM1_ID0013
 70
1
 66
1
  0
VERTEX
  8
BORDER_D0_T128.1_RK1_A0_W0_RI1_EM1_ID0013
 10
1530.00
 20
640.00
 30
18.30
  0
VERTEX
  8
BORDER_D0_T128.1_RK1_A0_W0_RI1_EM1_ID0013
 10
1530.00
 20
355.00
 30
18.30
  0
VERTEX
  8
BORDER_D0_T128.1_RK1_A0_W0_RI1_EM1_ID0013
 10
1035.00
 20
355.00
 30
18.30
  0
VERTEX
  8
BORDER_D0_T128.1_RK1_A0_W0_RI1_EM1_ID0013
 10
1035.00
 20
925.00
 30
18.30
  0
VERTEX
  8
BORDER_D0_T128.1_RK1_A0_W0_RI1_EM1_ID0013
 10
1282.50
 20
925.00
 30
18.30
  0
VERTEX
  8
BORDER_D0_T128.1_RK1_A0_W0_RI1_EM1_ID0013
 10
1530.00
 20
925.00
 30
18.30
  0
VERTEX
  8
BORDER_D0_T128.1_RK1_A0_W0_RI1_EM1_ID0013
 10
1530.00
 20
640.00
 30
18.30
  0
SEQEND
  8
BORDER_D0_T128.1_RK1_A0_W0_RI1_EM1_ID0013
  0
POLYLINE
  8
BORDER_D0_T128.1_RK1_A0_W0_RI1_EM1_ID0013
 70
1
 66
1
  0
VERTEX
  8
BORDER_D0_T128.1_RK1_A0_W0_RI1_EM1_ID0013
 10
1020.00
 20
640.00
 30
18.30
  0
VERTEX
  8
BORDER_D0_T128.1_RK1_A0_W0_RI1_EM1_ID0013
 10
1020.00
 20
355.00
 30
18.30
  0
VERTEX
  8
BORDER_D0_T128.1_RK1_A0_W0_RI1_EM1_ID0013
 10
525.00
 20
355.00
 30
18.30
  0
VERTEX
  8
BORDER_D0_T128.1_RK1_A0_W0_RI1_EM1_ID0013
 10
525.00
 20
925.00
 30
18.30
  0
VERTEX
  8
BORDER_D0_T128.1_RK1_A0_W0_RI1_EM1_ID0013
 10
772.50
 20
925.00
 30
18.30
  0
VERTEX
  8
BORDER_D0_T128.1_RK1_A0_W0_RI1_EM1_ID0013
 10
1020.00
 20
925.00
 30
18.30
  0
VERTEX
  8
BORDER_D0_T128.1_RK1_A0_W0_RI1_EM1_ID0013
 10
1020.00
 20
640.00
 30
18.30
  0
SEQEND
  8
BORDER_D0_T128.1_RK1_A0_W0_RI1_EM1_ID0013
  0
POLYLINE
  8
BORDER_D0_T128.1_RK1_A0_W0_RI1_EM1_ID0013
 70
1
 66
1
  0
VERTEX
  8
BORDER_D0_T128.1_RK1_A0_W0_RI1_EM1_ID0013
 10
510.00
 20
640.00
 30
18.30
  0
VERTEX
  8
BORDER_D0_T128.1_RK1_A0_W0_RI1_EM1_ID0013
 10
510.00
 20
355.00
 30
18.30
  0
VERTEX
  8
BORDER_D0_T128.1_RK1_A0_W0_RI1_EM1_ID0013
 10
15.00
 20
355.00
 30
18.30
  0
VERTEX
  8
BORDER_D0_T128.1_RK1_A0_W0_RI1_EM1_ID0013
 10
15.00
 20
925.00
 30
18.30
  0
VERTEX
  8
BORDER_D0_T128.1_RK1_A0_W0_RI1_EM1_ID0013
 10
262.50
 20
925.00
 30
18.30
  0
VERTEX
  8
BORDER_D0_T128.1_RK1_A0_W0_RI1_EM1_ID0013
 10
510.00
 20
925.00
 30
18.30
  0
VERTEX
  8
BORDER_D0_T128.1_RK1_A0_W0_RI1_EM1_ID0013
 10
510.00
 20
640.00
 30
18.30
  0
SEQEND
  8
BORDER_D0_T128.1_RK1_A0_W0_RI1_EM1_ID0013
  0
POLYLINE
  8
BORDER_D0_T128.1_RK1_A0_W0_RI1_EM1_ID0013
 70
1
 66
1
  0
VERTEX
  8
BORDER_D0_T128.1_RK1_A0_W0_RI1_EM1_ID0013
 10
510.00
 20
1225.00
 30
18.30
  0
VERTEX
  8
BORDER_D0_T128.1_RK1_A0_W0_RI1_EM1_ID0013
 10
510.00
 20
940.00
 30
18.30
  0
VERTEX
  8
BORDER_D0_T128.1_RK1_A0_W0_RI1_EM1_ID0013
 10
15.00
 20
940.00
 30
18.30
  0
VERTEX
  8
BORDER_D0_T128.1_RK1_A0_W0_RI1_EM1_ID0013
 10
15.00
 20
1510.00
 30
18.30
  0
VERTEX
  8
BORDER_D0_T128.1_RK1_A0_W0_RI1_EM1_ID0013
 10
262.50
 20
1510.00
 30
18.30
  0
VERTEX
  8
BORDER_D0_T128.1_RK1_A0_W0_RI1_EM1_ID0013
 10
510.00
 20
1510.00
 30
18.30
  0
VERTEX
  8
BORDER_D0_T128.1_RK1_A0_W0_RI1_EM1_ID0013
 10
510.00
 20
1225.00
 30
18.30
  0
SEQEND
  8
BORDER_D0_T128.1_RK1_A0_W0_RI1_EM1_ID0013
  0
POLYLINE
  8
BORDER_D0_T128.1_RK1_A0_W0_RI1_EM1_ID0013
 70
1
 66
1
  0
VERTEX
  8
BORDER_D0_T128.1_RK1_A0_W0_RI1_EM1_ID0013
 10
1020.00
 20
1225.00
 30
18.30
  0
VERTEX
  8
BORDER_D0_T128.1_RK1_A0_W0_RI1_EM1_ID0013
 10
1020.00
 20
940.00
 30
18.30
  0
VERTEX
  8
BORDER_D0_T128.1_RK1_A0_W0_RI1_EM1_ID0013
 10
525.00
 20
940.00
 30
18.30
  0
VERTEX
  8
BORDER_D0_T128.1_RK1_A0_W0_RI1_EM1_ID0013
 10
525.00
 20
1510.00
 30
18.30
  0
VERTEX
  8
BORDER_D0_T128.1_RK1_A0_W0_RI1_EM1_ID0013
 10
772.50
 20
1510.00
 30
18.30
  0
VERTEX
  8
BORDER_D0_T128.1_RK1_A0_W0_RI1_EM1_ID0013
 10
1020.00
 20
1510.00
 30
18.30
  0
VERTEX
  8
BORDER_D0_T128.1_RK1_A0_W0_RI1_EM1_ID0013
 10
1020.00
 20
1225.00
 30
18.30
  0
SEQEND
  8
BORDER_D0_T128.1_RK1_A0_W0_RI1_EM1_ID0013
  0
POLYLINE
  8
BORDER_D0_T128.1_RK1_A0_W0_RI1_EM1_ID0013
 70
1
 66
1
  0
VERTEX
  8
BORDER_D0_T128.1_RK1_A0_W0_RI1_EM1_ID0013
 10
1530.00
 20
1225.00
 30
18.30
  0
VERTEX
  8
BORDER_D0_T128.1_RK1_A0_W0_RI1_EM1_ID0013
 10
1530.00
 20
940.00
 30
18.30
  0
VERTEX
  8
BORDER_D0_T128.1_RK1_A0_W0_RI1_EM1_ID0013
 10
1035.00
 20
940.00
 30
18.30
  0
VERTEX
  8
BORDER_D0_T128.1_RK1_A0_W0_RI1_EM1_ID0013
 10
1035.00
 20
1510.00
 30
18.30
  0
VERTEX
  8
BORDER_D0_T128.1_RK1_A0_W0_RI1_EM1_ID0013
 10
1282.50
 20
1510.00
 30
18.30
  0
VERTEX
  8
BORDER_D0_T128.1_RK1_A0_W0_RI1_EM1_ID0013
 10
1530.00
 20
1510.00
 30
18.30
  0
VERTEX
  8
BORDER_D0_T128.1_RK1_A0_W0_RI1_EM1_ID0013
 10
1530.00
 20
1225.00
 30
18.30
  0
SEQEND
  8
BORDER_D0_T128.1_RK1_A0_W0_RI1_EM1_ID0013
  0
POLYLINE
  8
BORDER_D0_T128.1_RK1_A0_W0_RI1_EM1_ID0013
 70
1
 66
1
  0
VERTEX
  8
BORDER_D0_T128.1_RK1_A0_W0_RI1_EM1_ID0013
 10
2040.00
 20
1225.00
 30
18.30
  0
VERTEX
  8
BORDER_D0_T128.1_RK1_A0_W0_RI1_EM1_ID0013
 10
2040.00
 20
940.00
 30
18.30
  0
VERTEX
  8
BORDER_D0_T128.1_RK1_A0_W0_RI1_EM1_ID0013
 10
1545.00
 20
940.00
 30
18.30
  0
VERTEX
  8
BORDER_D0_T128.1_RK1_A0_W0_RI1_EM1_ID0013
 10
1545.00
 20
1510.00
 30
18.30
  0
VERTEX
  8
BORDER_D0_T128.1_RK1_A0_W0_RI1_EM1_ID0013
 10
1792.50
 20
1510.00
 30
18.30
  0
VERTEX
  8
BORDER_D0_T128.1_RK1_A0_W0_RI1_EM1_ID0013
 10
2040.00
 20
1510.00
 30
18.30
  0
VERTEX
  8
BORDER_D0_T128.1_RK1_A0_W0_RI1_EM1_ID0013
 10
2040.00
 20
1225.00
 30
18.30
  0
SEQEND
  8
BORDER_D0_T128.1_RK1_A0_W0_RI1_EM1_ID0013
  0
POLYLINE
  8
BORDER_D0_T128.1_RK1_A0_W0_RI1_EM1_ID0011
 70
1
 66
1
  0
VERTEX
  8
BORDER_D0_T128.1_RK1_A0_W0_RI1_EM1_ID0011
 10
2305.00
 20
1410.00
 30
18.30
  0
VERTEX
  8
BORDER_D0_T128.1_RK1_A0_W0_RI1_EM1_ID0011
 10
2555.00
 20
1310.00
 30
18.30
  0
VERTEX
  8
BORDER_D0_T128.1_RK1_A0_W0_RI1_EM1_ID0011
 10
2555.00
 20
1010.00
 30
18.30
  0
VERTEX
  8
BORDER_D0_T128.1_RK1_A0_W0_RI1_EM1_ID0011
 10
2055.00
 20
1210.00
 30
18.30
  0
VERTEX
  8
BORDER_D0_T128.1_RK1_A0_W0_RI1_EM1_ID0011
 10
2055.00
 20
1251.14
 30
18.30
  0
VERTEX
  8
BORDER_D0_T128.1_RK1_A0_W0_RI1_EM1_ID0011
 10
2055.00
 20
1510.00
 30
18.30
  0
VERTEX
  8
BORDER_D0_T128.1_RK1_A0_W0_RI1_EM1_ID0011
 10
2305.00
 20
1410.00
 30
18.30
  0
SEQEND
  8
BORDER_D0_T128.1_RK1_A0_W0_RI1_EM1_ID0011
  0
ENDSEC
  0
EOF
