  0
SECTION
  2
HEADER
  9
$LTSCALE
 40
30.00
  9
$LIMMIN
 10
-30.50
 20
-45.75
  9
$LIMMAX
 10
3080.50
 20
1631.75
  9
$EXTMIN
 10
-30.50
 20
-45.75
  9
$EXTMAX
 10
3080.50
 20
1631.75
  9
$TEXTSTYLE
  7
txt
  9
$CLAYER
  8
1
  9
$CECOLOR
 62
7
  9
$CELTYPE
  6
CONTINUOUS
  9
$OSMODE
 70
0
  0
ENDSEC
  0
SECTION
  2
TABLES
  0
TABLE
  2
STYLE
 70
1
  0
STYLE
  2
STANDARD
 70
0
 40
1.00
 41
1.00
 50
0.00
 71
0
 42
0.20
  3
txt
  4

  0
ENDTAB
  0
TABLE
  2
LTYPE
 70
1
  0
LTYPE
  2
HIDDEN
 70
64
  3
_ _ _ _ _ _ _ _ _ _ _ _ _ _ _ _ _ _ _ _ _ _
 72
65
 73
2
 40
0.50
 49
0.25
 49
-0.25
  0
ENDTAB
  0
ENDSEC
  0
SECTION
  2
ENTITIES
  0
LINE
  6
CONTINUOUS
  8
FRAME_Z18
 10
0.00
 20
0.00
 30
0.00
 11
3050.00
 21
0.00
 31
0.00
  0
LINE
  6
CONTINUOUS
  8
FRAME_Z18
 10
0.00
 20
1525.00
 30
0.00
 11
3050.00
 21
1525.00
 31
0.00
  0
LINE
  6
CONTINUOUS
  8
FRAME_Z18
 10
0.00
 20
0.00
 30
0.00
 11
0.00
 21
1525.00
 31
0.00
  0
LINE
  6
CONTINUOUS
  8
FRAME_Z18
 10
3050.00
 20
0.00
 30
0.00
 11
3050.00
 21
1525.00
 31
0.00
  0
CIRCLE
  8
VBORE_Z6_D10
 10
675.00
 20
1177.99
 30
6.00
 40
5.00
  0
CIRCLE
  8
VBORE_Z6_D10
 10
725.00
 20
1177.99
 30
6.00
 40
5.00
  0
CIRCLE
  8
VBORE_Z6_D10
 10
675.00
 20
922.99
 30
6.00
 40
5.00
  0
CIRCLE
  8
VBORE_Z6_D10
 10
725.00
 20
922.99
 30
6.00
 40
5.00
  0
CIRCLE
  8
VBORE_Z6_D5
 10
699.50
 20
1139.83
 30
6.00
 40
2.50
  0
CIRCLE
  8
VBORE_Z6_D5
 10
699.50
 20
958.69
 30
6.00
 40
2.50
  0
POLYLINE
  8
ROUT_Z8_D8_T135_A2_W2
 70
0
 66
1
 40
8.00
 41
8.00
  0
VERTEX
  8
ROUT_Z8_D8_T135_A2_W2
 10
676.30
 20
1139.83
 30
8.00
  0
VERTEX
  8
ROUT_Z8_D8_T135_A2_W2
 10
676.30
 20
958.69
 30
8.00
  0
SEQEND
  8
ROUT_Z8_D8_T135_A2_W2
  0
POLYLINE
  8
ROUT_Z8_D8_T135_A2_W2
 70
0
 66
1
 40
8.00
 41
8.00
  0
VERTEX
  8
ROUT_Z8_D8_T135_A2_W2
 10
722.70
 20
1139.83
 30
8.00
  0
VERTEX
  8
ROUT_Z8_D8_T135_A2_W2
 10
722.70
 20
958.69
 30
8.00
  0
SEQEND
  8
ROUT_Z8_D8_T135_A2_W2
  0
POLYLINE
  8
POCKET_D0_T133_AZ1
 70
1
 66
1
  0
VERTEX
  8
POCKET_D0_T133_AZ1
 10
592.00
 20
906.96
 30
10.00
  0
VERTEX
  8
POCKET_D0_T133_AZ1
 10
592.00
 20
860.52
 30
10.00
 42
0.235173
  0
VERTEX
  8
POCKET_D0_T133_AZ1
 10
549.41
 20
817.93
 30
10.00
  0
VERTEX
  8
POCKET_D0_T133_AZ1
 10
456.53
 20
817.93
 30
10.00
 42
-0.332094
  0
VERTEX
  8
POCKET_D0_T133_AZ1
 10
592.00
 20
953.40
 30
10.00
  0
VERTEX
  8
POCKET_D0_T133_AZ1
 10
592.00
 20
906.96
 30
10.00
  0
SEQEND
  8
POCKET_D0_T133_AZ1
  0
CIRCLE
  8
VBORE_Z10_D8
 10
577.50
 20
1178.89
 30
10.00
 40
4.00
  0
CIRCLE
  8
VBORE_Z10_D8
 10
540.00
 20
1178.93
 30
10.00
 40
4.00
  0
CIRCLE
  8
VBORE_Z10_D8
 10
502.50
 20
1178.93
 30
10.00
 40
4.00
  0
POLYLINE
  8
POCKET_D0_T133_AZ1
 70
1
 66
1
  0
VERTEX
  8
POCKET_D0_T133_AZ1
 10
38.00
 20
1397.97
 30
10.00
  0
VERTEX
  8
POCKET_D0_T133_AZ1
 10
38.00
 20
1444.41
 30
10.00
 42
0.235172
  0
VERTEX
  8
POCKET_D0_T133_AZ1
 10
80.59
 20
1487.00
 30
10.00
  0
VERTEX
  8
POCKET_D0_T133_AZ1
 10
173.47
 20
1487.00
 30
10.00
 42
-0.332093
  0
VERTEX
  8
POCKET_D0_T133_AZ1
 10
38.00
 20
1351.53
 30
10.00
  0
VERTEX
  8
POCKET_D0_T133_AZ1
 10
38.00
 20
1397.97
 30
10.00
  0
SEQEND
  8
POCKET_D0_T133_AZ1
  0
CIRCLE
  8
VBORE_Z10_D8
 10
52.50
 20
1126.04
 30
10.00
 40
4.00
  0
CIRCLE
  8
VBORE_Z10_D8
 10
90.00
 20
1126.00
 30
10.00
 40
4.00
  0
CIRCLE
  8
VBORE_Z10_D8
 10
127.50
 20
1126.00
 30
10.00
 40
4.00
  0
CIRCLE
  8
VBORE_Z6_D10
 10
675.00
 20
1487.00
 30
6.00
 40
5.00
  0
CIRCLE
  8
VBORE_Z6_D10
 10
725.00
 20
1487.00
 30
6.00
 40
5.00
  0
CIRCLE
  8
VBORE_Z6_D10
 10
675.00
 20
1232.00
 30
6.00
 40
5.00
  0
CIRCLE
  8
VBORE_Z6_D10
 10
725.00
 20
1232.00
 30
6.00
 40
5.00
  0
CIRCLE
  8
VBORE_Z6_D5
 10
699.50
 20
1448.84
 30
6.00
 40
2.50
  0
CIRCLE
  8
VBORE_Z6_D5
 10
699.50
 20
1267.70
 30
6.00
 40
2.50
  0
POLYLINE
  8
ROUT_Z8_D8_T135_A2_W2
 70
0
 66
1
 40
8.00
 41
8.00
  0
VERTEX
  8
ROUT_Z8_D8_T135_A2_W2
 10
676.30
 20
1448.84
 30
8.00
  0
VERTEX
  8
ROUT_Z8_D8_T135_A2_W2
 10
676.30
 20
1267.70
 30
8.00
  0
SEQEND
  8
ROUT_Z8_D8_T135_A2_W2
  0
POLYLINE
  8
ROUT_Z8_D8_T135_A2_W2
 70
0
 66
1
 40
8.00
 41
8.00
  0
VERTEX
  8
ROUT_Z8_D8_T135_A2_W2
 10
722.70
 20
1448.84
 30
8.00
  0
VERTEX
  8
ROUT_Z8_D8_T135_A2_W2
 10
722.70
 20
1267.70
 30
8.00
  0
SEQEND
  8
ROUT_Z8_D8_T135_A2_W2
  0
CIRCLE
  8
VBORE_Z10_D8
 10
945.00
 20
1088.12
 30
10.00
 40
4.00
  0
CIRCLE
  8
VBORE_Z10_D8
 10
945.00
 20
1039.98
 30
10.00
 40
4.00
  0
CIRCLE
  8
VBORE_Z10_D8
 10
945.00
 20
522.70
 30
10.00
 40
4.00
  0
CIRCLE
  8
VBORE_Z10_D8
 10
945.00
 20
570.85
 30
10.00
 40
4.00
  0
POLYLINE
  8
CONTOUR_D0_T135_A2_W2
 70
1
 66
1
  0
VERTEX
  8
CONTOUR_D0_T135_A2_W2
 10
972.43
 20
1311.28
 30
6.00
  0
VERTEX
  8
CONTOUR_D0_T135_A2_W2
 10
972.43
 20
1491.28
 30
6.00
  0
VERTEX
  8
CONTOUR_D0_T135_A2_W2
 10
1152.43
 20
1491.28
 30
6.00
  0
VERTEX
  8
CONTOUR_D0_T135_A2_W2
 10
1354.93
 20
1491.28
 30
6.00
 42
-0.201478
  0
VERTEX
  8
CONTOUR_D0_T135_A2_W2
 10
1152.43
 20
951.28
 30
6.00
 42
0.202432
  0
VERTEX
  8
CONTOUR_D0_T135_A2_W2
 10
1024.98
 20
542.65
 30
6.00
  0
VERTEX
  8
CONTOUR_D0_T135_A2_W2
 10
972.43
 20
542.65
 30
6.00
  0
VERTEX
  8
CONTOUR_D0_T135_A2_W2
 10
972.43
 20
814.86
 30
6.00
  0
VERTEX
  8
CONTOUR_D0_T135_A2_W2
 10
972.43
 20
1131.28
 30
6.00
  0
VERTEX
  8
CONTOUR_D0_T135_A2_W2
 10
972.43
 20
1311.28
 30
6.00
  0
SEQEND
  8
CONTOUR_D0_T135_A2_W2
  0
CIRCLE
  8
VBORE_Z10_D8
 10
436.88
 20
159.38
 30
10.00
 40
4.00
  0
CIRCLE
  8
VBORE_Z10_D8
 10
485.02
 20
159.38
 30
10.00
 40
4.00
  0
CIRCLE
  8
VBORE_Z10_D8
 10
1002.30
 20
159.38
 30
10.00
 40
4.00
  0
CIRCLE
  8
VBORE_Z10_D8
 10
954.15
 20
159.38
 30
10.00
 40
4.00
  0
POLYLINE
  8
CONTOUR_D0_T135_A2_W2
 70
1
 66
1
  0
VERTEX
  8
CONTOUR_D0_T135_A2_W2
 10
213.72
 20
186.81
 30
6.00
  0
VERTEX
  8
CONTOUR_D0_T135_A2_W2
 10
33.72
 20
186.81
 30
6.00
  0
VERTEX
  8
CONTOUR_D0_T135_A2_W2
 10
33.72
 20
366.81
 30
6.00
  0
VERTEX
  8
CONTOUR_D0_T135_A2_W2
 10
33.72
 20
569.31
 30
6.00
 42
-0.201478
  0
VERTEX
  8
CONTOUR_D0_T135_A2_W2
 10
573.72
 20
366.81
 30
6.00
 42
0.202432
  0
VERTEX
  8
CONTOUR_D0_T135_A2_W2
 10
982.35
 20
239.36
 30
6.00
  0
VERTEX
  8
CONTOUR_D0_T135_A2_W2
 10
982.35
 20
186.81
 30
6.00
  0
VERTEX
  8
CONTOUR_D0_T135_A2_W2
 10
710.14
 20
186.81
 30
6.00
  0
VERTEX
  8
CONTOUR_D0_T135_A2_W2
 10
393.72
 20
186.81
 30
6.00
  0
VERTEX
  8
CONTOUR_D0_T135_A2_W2
 10
213.72
 20
186.81
 30
6.00
  0
SEQEND
  8
CONTOUR_D0_T135_A2_W2
  0
CIRCLE
  8
VBORE_Z6_D8
 10
2170.30
 20
299.11
 30
6.00
 40
4.00
  0
CIRCLE
  8
VBORE_Z6_D8
 10
2170.25
 20
283.52
 30
6.00
 40
4.00
  0
CIRCLE
  8
VBORE_Z6_D8
 10
2168.95
 20
49.91
 30
6.00
 40
4.00
  0
CIRCLE
  8
VBORE_Z6_D8
 10
2168.90
 20
34.32
 30
6.00
 40
4.00
  0
CIRCLE
  8
VBORE_Z6_D5
 10
1390.46
 20
85.00
 30
6.00
 40
2.50
  0
CIRCLE
  8
VBORE_Z6_D5
 10
1390.46
 20
63.00
 30
6.00
 40
2.50
  0
CIRCLE
  8
VBORE_Z6_D5
 10
1390.46
 20
40.00
 30
6.00
 40
2.50
  0
CIRCLE
  8
VBORE_Z6_D5
 10
1390.46
 20
21.00
 30
6.00
 40
2.50
  0
POLYLINE
  8
ROUT_Z8_D8_T135_A2_W2
 70
0
 66
1
 40
8.00
 41
8.00
  0
VERTEX
  8
ROUT_Z8_D8_T135_A2_W2
 10
1800.07
 20
1003.87
 30
8.00
  0
VERTEX
  8
ROUT_Z8_D8_T135_A2_W2
 10
1800.07
 20
803.87
 30
8.00
  0
SEQEND
  8
ROUT_Z8_D8_T135_A2_W2
  0
POLYLINE
  8
ROUT_Z8_D8_T135_A2_W2
 70
0
 66
1
 40
8.00
 41
8.00
  0
VERTEX
  8
ROUT_Z8_D8_T135_A2_W2
 10
1590.40
 20
703.87
 30
8.00
  0
VERTEX
  8
ROUT_Z8_D8_T135_A2_W2
 10
1590.40
 20
503.87
 30
8.00
  0
SEQEND
  8
ROUT_Z8_D8_T135_A2_W2
  0
POLYLINE
  8
ROUT_Z8_D8_T135_A2_W2
 70
0
 66
1
 40
8.00
 41
8.00
  0
VERTEX
  8
ROUT_Z8_D8_T135_A2_W2
 10
1391.89
 20
403.87
 30
8.00
  0
VERTEX
  8
ROUT_Z8_D8_T135_A2_W2
 10
1391.89
 20
203.87
 30
8.00
  0
SEQEND
  8
ROUT_Z8_D8_T135_A2_W2
  0
CIRCLE
  8
VBORE_Z6_D10
 10
1900.07
 20
203.87
 30
6.00
 40
5.00
  0
CIRCLE
  8
VBORE_Z6_D10
 10
1900.07
 20
403.87
 30
6.00
 40
5.00
  0
CIRCLE
  8
VBORE_Z6_D10
 10
1900.07
 20
503.87
 30
6.00
 40
5.00
  0
CIRCLE
  8
VBORE_Z6_D10
 10
1900.07
 20
703.87
 30
6.00
 40
5.00
  0
CIRCLE
  8
VBORE_Z6_D10
 10
1900.07
 20
803.87
 30
6.00
 40
5.00
  0
CIRCLE
  8
VBORE_Z6_D10
 10
1900.07
 20
1003.87
 30
6.00
 40
5.00
  0
CIRCLE
  8
VBORE_Z10_D10
 10
2250.46
 20
320.06
 30
10.00
 40
5.00
  0
CIRCLE
  8
VBORE_Z10_D10
 10
2750.46
 20
320.06
 30
10.00
 40
5.00
  0
CIRCLE
  8
VBORE_Z6_D6
 10
2265.46
 20
320.06
 30
6.00
 40
3.00
  0
CIRCLE
  8
VBORE_Z6_D6
 10
2735.46
 20
320.06
 30
6.00
 40
3.00
  0
POLYLINE
  8
POCKET_D0
 70
1
 66
1
  0
VERTEX
  8
POCKET_D0
 10
2500.46
 20
120.06
 30
6.00
  0
VERTEX
  8
POCKET_D0
 10
2310.46
 20
120.06
 30
6.00
 42
-0.414214
  0
VERTEX
  8
POCKET_D0
 10
2300.46
 20
130.06
 30
6.00
  0
VERTEX
  8
POCKET_D0
 10
2300.46
 20
260.06
 30
6.00
 42
-0.414214
  0
VERTEX
  8
POCKET_D0
 10
2310.46
 20
270.06
 30
6.00
  0
VERTEX
  8
POCKET_D0
 10
2475.46
 20
270.06
 30
6.00
  0
VERTEX
  8
POCKET_D0
 10
2690.46
 20
270.06
 30
6.00
 42
-0.414214
  0
VERTEX
  8
POCKET_D0
 10
2700.46
 20
260.06
 30
6.00
  0
VERTEX
  8
POCKET_D0
 10
2700.46
 20
130.06
 30
6.00
 42
-0.414214
  0
VERTEX
  8
POCKET_D0
 10
2690.46
 20
120.06
 30
6.00
  0
VERTEX
  8
POCKET_D0
 10
2500.46
 20
120.06
 30
6.00
  0
SEQEND
  8
POCKET_D0
  0
POLYLINE
  8
ROUT_Z6_D5
 70
0
 66
1
 40
5.00
 41
5.00
  0
VERTEX
  8
ROUT_Z6_D5
 10
2300.46
 20
320.06
 30
6.00
  0
VERTEX
  8
ROUT_Z6_D5
 10
2700.46
 20
320.06
 30
6.00
  0
SEQEND
  8
ROUT_Z6_D5
  0
CIRCLE
  8
VBORE_Z6_D10
 10
2860.46
 20
347.06
 30
6.00
 40
5.00
  0
CIRCLE
  8
VBORE_Z6_D10
 10
2910.46
 20
347.06
 30
6.00
 40
5.00
  0
CIRCLE
  8
VBORE_Z6_D10
 10
2860.46
 20
92.06
 30
6.00
 40
5.00
  0
CIRCLE
  8
VBORE_Z6_D10
 10
2910.46
 20
92.06
 30
6.00
 40
5.00
  0
CIRCLE
  8
VBORE_Z6_D5
 10
2884.96
 20
308.90
 30
6.00
 40
2.50
  0
CIRCLE
  8
VBORE_Z6_D5
 10
2884.96
 20
127.76
 30
6.00
 40
2.50
  0
POLYLINE
  8
ROUT_Z8_D8_T135_A2_W2
 70
0
 66
1
 40
8.00
 41
8.00
  0
VERTEX
  8
ROUT_Z8_D8_T135_A2_W2
 10
2861.76
 20
308.90
 30
8.00
  0
VERTEX
  8
ROUT_Z8_D8_T135_A2_W2
 10
2861.76
 20
127.76
 30
8.00
  0
SEQEND
  8
ROUT_Z8_D8_T135_A2_W2
  0
POLYLINE
  8
ROUT_Z8_D8_T135_A2_W2
 70
0
 66
1
 40
8.00
 41
8.00
  0
VERTEX
  8
ROUT_Z8_D8_T135_A2_W2
 10
2908.16
 20
308.90
 30
8.00
  0
VERTEX
  8
ROUT_Z8_D8_T135_A2_W2
 10
2908.16
 20
127.76
 30
8.00
  0
SEQEND
  8
ROUT_Z8_D8_T135_A2_W2
  0
POLYLINE
  8
ROUT_Z8_D8_T135_A2_W2
 70
0
 66
1
 40
8.00
 41
8.00
  0
VERTEX
  8
ROUT_Z8_D8_T135_A2_W2
 10
2630.39
 20
1430.12
 30
8.00
  0
VERTEX
  8
ROUT_Z8_D8_T135_A2_W2
 10
2630.39
 20
1230.12
 30
8.00
  0
SEQEND
  8
ROUT_Z8_D8_T135_A2_W2
  0
POLYLINE
  8
ROUT_Z8_D8_T135_A2_W2
 70
0
 66
1
 40
8.00
 41
8.00
  0
VERTEX
  8
ROUT_Z8_D8_T135_A2_W2
 10
2420.72
 20
1130.12
 30
8.00
  0
VERTEX
  8
ROUT_Z8_D8_T135_A2_W2
 10
2420.72
 20
930.12
 30
8.00
  0
SEQEND
  8
ROUT_Z8_D8_T135_A2_W2
  0
POLYLINE
  8
ROUT_Z8_D8_T135_A2_W2
 70
0
 66
1
 40
8.00
 41
8.00
  0
VERTEX
  8
ROUT_Z8_D8_T135_A2_W2
 10
2222.21
 20
830.12
 30
8.00
  0
VERTEX
  8
ROUT_Z8_D8_T135_A2_W2
 10
2222.21
 20
630.12
 30
8.00
  0
SEQEND
  8
ROUT_Z8_D8_T135_A2_W2
  0
CIRCLE
  8
VBORE_Z6_D10
 10
2730.39
 20
630.12
 30
6.00
 40
5.00
  0
CIRCLE
  8
VBORE_Z6_D10
 10
2730.39
 20
830.12
 30
6.00
 40
5.00
  0
CIRCLE
  8
VBORE_Z6_D10
 10
2730.39
 20
930.12
 30
6.00
 40
5.00
  0
CIRCLE
  8
VBORE_Z6_D10
 10
2730.39
 20
1130.12
 30
6.00
 40
5.00
  0
CIRCLE
  8
VBORE_Z6_D10
 10
2730.39
 20
1230.12
 30
6.00
 40
5.00
  0
CIRCLE
  8
VBORE_Z6_D10
 10
2730.39
 20
1430.12
 30
6.00
 40
5.00
  0
CIRCLE
  8
VBORE_Z6_D10
 10
2840.39
 20
1487.00
 30
6.00
 40
5.00
  0
CIRCLE
  8
VBORE_Z6_D10
 10
2890.39
 20
1487.00
 30
6.00
 40
5.00
  0
CIRCLE
  8
VBORE_Z6_D10
 10
2840.39
 20
1232.00
 30
6.00
 40
5.00
  0
CIRCLE
  8
VBORE_Z6_D10
 10
2890.39
 20
1232.00
 30
6.00
 40
5.00
  0
CIRCLE
  8
VBORE_Z6_D5
 10
2864.89
 20
1448.84
 30
6.00
 40
2.50
  0
CIRCLE
  8
VBORE_Z6_D5
 10
2864.89
 20
1267.70
 30
6.00
 40
2.50
  0
POLYLINE
  8
ROUT_Z8_D8_T135_A2_W2
 70
0
 66
1
 40
8.00
 41
8.00
  0
VERTEX
  8
ROUT_Z8_D8_T135_A2_W2
 10
2841.69
 20
1448.84
 30
8.00
  0
VERTEX
  8
ROUT_Z8_D8_T135_A2_W2
 10
2841.69
 20
1267.70
 30
8.00
  0
SEQEND
  8
ROUT_Z8_D8_T135_A2_W2
  0
POLYLINE
  8
ROUT_Z8_D8_T135_A2_W2
 70
0
 66
1
 40
8.00
 41
8.00
  0
VERTEX
  8
ROUT_Z8_D8_T135_A2_W2
 10
2888.09
 20
1448.84
 30
8.00
  0
VERTEX
  8
ROUT_Z8_D8_T135_A2_W2
 10
2888.09
 20
1267.70
 30
8.00
  0
SEQEND
  8
ROUT_Z8_D8_T135_A2_W2
  0
POLYLINE
  8
ROUT_Z8_D8_T135_A2_W2
 70
0
 66
1
 40
8.00
 41
8.00
  0
VERTEX
  8
ROUT_Z8_D8_T135_A2_W2
 10
2115.07
 20
660.00
 30
8.00
  0
VERTEX
  8
ROUT_Z8_D8_T135_A2_W2
 10
2115.07
 20
860.00
 30
8.00
  0
SEQEND
  8
ROUT_Z8_D8_T135_A2_W2
  0
POLYLINE
  8
ROUT_Z8_D8_T135_A2_W2
 70
0
 66
1
 40
8.00
 41
8.00
  0
VERTEX
  8
ROUT_Z8_D8_T135_A2_W2
 10
2324.74
 20
960.00
 30
8.00
  0
VERTEX
  8
ROUT_Z8_D8_T135_A2_W2
 10
2324.74
 20
1160.00
 30
8.00
  0
SEQEND
  8
ROUT_Z8_D8_T135_A2_W2
  0
POLYLINE
  8
ROUT_Z8_D8_T135_A2_W2
 70
0
 66
1
 40
8.00
 41
8.00
  0
VERTEX
  8
ROUT_Z8_D8_T135_A2_W2
 10
2523.25
 20
1260.00
 30
8.00
  0
VERTEX
  8
ROUT_Z8_D8_T135_A2_W2
 10
2523.25
 20
1460.00
 30
8.00
  0
SEQEND
  8
ROUT_Z8_D8_T135_A2_W2
  0
CIRCLE
  8
VBORE_Z6_D10
 10
2015.07
 20
1460.00
 30
6.00
 40
5.00
  0
CIRCLE
  8
VBORE_Z6_D10
 10
2015.07
 20
1260.00
 30
6.00
 40
5.00
  0
CIRCLE
  8
VBORE_Z6_D10
 10
2015.07
 20
1160.00
 30
6.00
 40
5.00
  0
CIRCLE
  8
VBORE_Z6_D10
 10
2015.07
 20
960.00
 30
6.00
 40
5.00
  0
CIRCLE
  8
VBORE_Z6_D10
 10
2015.07
 20
860.00
 30
6.00
 40
5.00
  0
CIRCLE
  8
VBORE_Z6_D10
 10
2015.07
 20
660.00
 30
6.00
 40
5.00
  0
CIRCLE
  8
VBORE_Z10_D8
 10
1544.98
 20
931.88
 30
10.00
 40
4.00
  0
CIRCLE
  8
VBORE_Z10_D8
 10
1544.98
 20
980.02
 30
10.00
 40
4.00
  0
CIRCLE
  8
VBORE_Z10_D8
 10
1544.98
 20
1497.30
 30
10.00
 40
4.00
  0
CIRCLE
  8
VBORE_Z10_D8
 10
1544.98
 20
1449.15
 30
10.00
 40
4.00
  0
POLYLINE
  8
CONTOUR_D0_T135_A2_W2
 70
1
 66
1
  0
VERTEX
  8
CONTOUR_D0_T135_A2_W2
 10
1517.55
 20
708.72
 30
6.00
  0
VERTEX
  8
CONTOUR_D0_T135_A2_W2
 10
1517.55
 20
528.72
 30
6.00
  0
VERTEX
  8
CONTOUR_D0_T135_A2_W2
 10
1337.55
 20
528.72
 30
6.00
  0
VERTEX
  8
CONTOUR_D0_T135_A2_W2
 10
1135.05
 20
528.72
 30
6.00
 42
-0.201478
  0
VERTEX
  8
CONTOUR_D0_T135_A2_W2
 10
1337.55
 20
1068.72
 30
6.00
 42
0.202432
  0
VERTEX
  8
CONTOUR_D0_T135_A2_W2
 10
1465.00
 20
1477.35
 30
6.00
  0
VERTEX
  8
CONTOUR_D0_T135_A2_W2
 10
1517.55
 20
1477.35
 30
6.00
  0
VERTEX
  8
CONTOUR_D0_T135_A2_W2
 10
1517.55
 20
1205.14
 30
6.00
  0
VERTEX
  8
CONTOUR_D0_T135_A2_W2
 10
1517.55
 20
888.72
 30
6.00
  0
VERTEX
  8
CONTOUR_D0_T135_A2_W2
 10
1517.55
 20
708.72
 30
6.00
  0
SEQEND
  8
CONTOUR_D0_T135_A2_W2
  0
POLYLINE
  8
BORDER_D0_T128_RK1_A0_W0_RI1_EM1_ID0008
 70
1
 66
1
  0
VERTEX
  8
BORDER_D0_T128_RK1_A0_W0_RI1_EM1_ID0008
 10
341.26
 20
610.00
 30
16.00
  0
VERTEX
  8
BORDER_D0_T128_RK1_A0_W0_RI1_EM1_ID0008
 10
15.00
 20
610.00
 30
16.00
  0
VERTEX
  8
BORDER_D0_T128_RK1_A0_W0_RI1_EM1_ID0008
 10
115.00
 20
710.00
 30
16.00
  0
VERTEX
  8
BORDER_D0_T128_RK1_A0_W0_RI1_EM1_ID0008
 10
626.09
 20
710.00
 30
16.00
  0
VERTEX
  8
BORDER_D0_T128_RK1_A0_W0_RI1_EM1_ID0008
 10
815.00
 20
898.91
 30
16.00
  0
VERTEX
  8
BORDER_D0_T128_RK1_A0_W0_RI1_EM1_ID0008
 10
815.00
 20
1410.00
 30
16.00
  0
VERTEX
  8
BORDER_D0_T128_RK1_A0_W0_RI1_EM1_ID0008
 10
915.00
 20
1510.00
 30
16.00
  0
VERTEX
  8
BORDER_D0_T128_RK1_A0_W0_RI1_EM1_ID0008
 10
915.00
 20
1150.35
 30
16.00
  0
VERTEX
  8
BORDER_D0_T128_RK1_A0_W0_RI1_EM1_ID0008
 10
915.00
 20
857.49
 30
16.00
  0
VERTEX
  8
BORDER_D0_T128_RK1_A0_W0_RI1_EM1_ID0008
 10
667.51
 20
610.00
 30
16.00
  0
VERTEX
  8
BORDER_D0_T128_RK1_A0_W0_RI1_EM1_ID0008
 10
341.26
 20
610.00
 30
16.00
  0
SEQEND
  8
BORDER_D0_T128_RK1_A0_W0_RI1_EM1_ID0008
  0
POLYLINE
  8
BORDER_D0_T128_RK1_A0_W0_RI1_EM1_ID0003
 70
1
 66
1
  0
VERTEX
  8
BORDER_D0_T128_RK1_A0_W0_RI1_EM1_ID0003
 10
630.00
 20
1053.99
 30
16.00
  0
VERTEX
  8
BORDER_D0_T128_RK1_A0_W0_RI1_EM1_ID0003
 10
630.00
 20
1200.99
 30
16.00
  0
VERTEX
  8
BORDER_D0_T128_RK1_A0_W0_RI1_EM1_ID0003
 10
769.00
 20
1200.99
 30
16.00
  0
VERTEX
  8
BORDER_D0_T128_RK1_A0_W0_RI1_EM1_ID0003
 10
769.00
 20
906.99
 30
16.00
  0
VERTEX
  8
BORDER_D0_T128_RK1_A0_W0_RI1_EM1_ID0003
 10
699.50
 20
906.99
 30
16.00
  0
VERTEX
  8
BORDER_D0_T128_RK1_A0_W0_RI1_EM1_ID0003
 10
630.00
 20
906.99
 30
16.00
  0
VERTEX
  8
BORDER_D0_T128_RK1_A0_W0_RI1_EM1_ID0003
 10
630.00
 20
1053.99
 30
16.00
  0
SEQEND
  8
BORDER_D0_T128_RK1_A0_W0_RI1_EM1_ID0003
  0
POLYLINE
  8
BORDER_D0_T128_RK1_A0_W0_RI1_EM1_ID0010
 70
1
 66
1
  0
VERTEX
  8
BORDER_D0_T128_RK1_A0_W0_RI1_EM1_ID0010
 10
352.50
 20
1144.93
 30
16.00
  0
VERTEX
  8
BORDER_D0_T128_RK1_A0_W0_RI1_EM1_ID0010
 10
465.00
 20
1194.93
 30
16.00
  0
VERTEX
  8
BORDER_D0_T128_RK1_A0_W0_RI1_EM1_ID0010
 10
615.00
 20
1194.93
 30
16.00
  0
VERTEX
  8
BORDER_D0_T128_RK1_A0_W0_RI1_EM1_ID0010
 10
615.00
 20
994.93
 30
16.00
  0
VERTEX
  8
BORDER_D0_T128_RK1_A0_W0_RI1_EM1_ID0010
 10
615.00
 20
794.93
 30
16.00
  0
VERTEX
  8
BORDER_D0_T128_RK1_A0_W0_RI1_EM1_ID0010
 10
465.00
 20
794.93
 30
16.00
  0
VERTEX
  8
BORDER_D0_T128_RK1_A0_W0_RI1_EM1_ID0010
 10
239.99
 20
794.93
 30
16.00
  0
VERTEX
  8
BORDER_D0_T128_RK1_A0_W0_RI1_EM1_ID0010
 10
15.00
 20
794.93
 30
16.00
  0
VERTEX
  8
BORDER_D0_T128_RK1_A0_W0_RI1_EM1_ID0010
 10
15.00
 20
944.93
 30
16.00
  0
VERTEX
  8
BORDER_D0_T128_RK1_A0_W0_RI1_EM1_ID0010
 10
15.00
 20
1044.93
 30
16.00
  0
VERTEX
  8
BORDER_D0_T128_RK1_A0_W0_RI1_EM1_ID0010
 10
65.00
 20
1094.93
 30
16.00
  0
VERTEX
  8
BORDER_D0_T128_RK1_A0_W0_RI1_EM1_ID0010
 10
240.00
 20
1094.93
 30
16.00
  0
VERTEX
  8
BORDER_D0_T128_RK1_A0_W0_RI1_EM1_ID0010
 10
352.50
 20
1144.93
 30
16.00
  0
SEQEND
  8
BORDER_D0_T128_RK1_A0_W0_RI1_EM1_ID0010
  0
POLYLINE
  8
BORDER_D0_T128_RK1_A0_W0_RI1_EM1_ID0010
 70
1
 66
1
  0
VERTEX
  8
BORDER_D0_T128_RK1_A0_W0_RI1_EM1_ID0010
 10
277.50
 20
1160.00
 30
16.00
  0
VERTEX
  8
BORDER_D0_T128_RK1_A0_W0_RI1_EM1_ID0010
 10
165.00
 20
1110.00
 30
16.00
  0
VERTEX
  8
BORDER_D0_T128_RK1_A0_W0_RI1_EM1_ID0010
 10
15.00
 20
1110.00
 30
16.00
  0
VERTEX
  8
BORDER_D0_T128_RK1_A0_W0_RI1_EM1_ID0010
 10
15.00
 20
1310.00
 30
16.00
  0
VERTEX
  8
BORDER_D0_T128_RK1_A0_W0_RI1_EM1_ID0010
 10
15.00
 20
1510.00
 30
16.00
  0
VERTEX
  8
BORDER_D0_T128_RK1_A0_W0_RI1_EM1_ID0010
 10
165.00
 20
1510.00
 30
16.00
  0
VERTEX
  8
BORDER_D0_T128_RK1_A0_W0_RI1_EM1_ID0010
 10
390.01
 20
1510.00
 30
16.00
  0
VERTEX
  8
BORDER_D0_T128_RK1_A0_W0_RI1_EM1_ID0010
 10
615.00
 20
1510.00
 30
16.00
  0
VERTEX
  8
BORDER_D0_T128_RK1_A0_W0_RI1_EM1_ID0010
 10
615.00
 20
1360.00
 30
16.00
  0
VERTEX
  8
BORDER_D0_T128_RK1_A0_W0_RI1_EM1_ID0010
 10
615.00
 20
1260.00
 30
16.00
  0
VERTEX
  8
BORDER_D0_T128_RK1_A0_W0_RI1_EM1_ID0010
 10
565.00
 20
1210.00
 30
16.00
  0
VERTEX
  8
BORDER_D0_T128_RK1_A0_W0_RI1_EM1_ID0010
 10
390.00
 20
1210.00
 30
16.00
  0
VERTEX
  8
BORDER_D0_T128_RK1_A0_W0_RI1_EM1_ID0010
 10
277.50
 20
1160.00
 30
16.00
  0
SEQEND
  8
BORDER_D0_T128_RK1_A0_W0_RI1_EM1_ID0010
  0
POLYLINE
  8
BORDER_D0_T128_RK1_A0_W0_RI1_EM1_ID0003
 70
1
 66
1
  0
VERTEX
  8
BORDER_D0_T128_RK1_A0_W0_RI1_EM1_ID0003
 10
630.00
 20
1363.00
 30
16.00
  0
VERTEX
  8
BORDER_D0_T128_RK1_A0_W0_RI1_EM1_ID0003
 10
630.00
 20
1510.00
 30
16.00
  0
VERTEX
  8
BORDER_D0_T128_RK1_A0_W0_RI1_EM1_ID0003
 10
769.00
 20
1510.00
 30
16.00
  0
VERTEX
  8
BORDER_D0_T128_RK1_A0_W0_RI1_EM1_ID0003
 10
769.00
 20
1216.00
 30
16.00
  0
VERTEX
  8
BORDER_D0_T128_RK1_A0_W0_RI1_EM1_ID0003
 10
699.50
 20
1216.00
 30
16.00
  0
VERTEX
  8
BORDER_D0_T128_RK1_A0_W0_RI1_EM1_ID0003
 10
630.00
 20
1216.00
 30
16.00
  0
VERTEX
  8
BORDER_D0_T128_RK1_A0_W0_RI1_EM1_ID0003
 10
630.00
 20
1363.00
 30
16.00
  0
SEQEND
  8
BORDER_D0_T128_RK1_A0_W0_RI1_EM1_ID0003
  0
POLYLINE
  8
BORDER_D0_T128_RK1_A0_W0_RI1_EM1_ID0004
 70
1
 66
1
  0
VERTEX
  8
BORDER_D0_T128_RK1_A0_W0_RI1_EM1_ID0004
 10
930.00
 20
810.00
 30
16.00
  0
VERTEX
  8
BORDER_D0_T128_RK1_A0_W0_RI1_EM1_ID0004
 10
930.00
 20
1110.00
 30
16.00
  0
VERTEX
  8
BORDER_D0_T128_RK1_A0_W0_RI1_EM1_ID0004
 10
955.00
 20
1110.00
 30
16.00
  0
VERTEX
  8
BORDER_D0_T128_RK1_A0_W0_RI1_EM1_ID0004
 10
955.00
 20
1510.00
 30
16.00
  0
VERTEX
  8
BORDER_D0_T128_RK1_A0_W0_RI1_EM1_ID0004
 10
1155.00
 20
1510.00
 30
16.00
  0
VERTEX
  8
BORDER_D0_T128_RK1_A0_W0_RI1_EM1_ID0004
 10
1380.00
 20
1510.00
 30
16.00
 42
-0.201478
  0
VERTEX
  8
BORDER_D0_T128_RK1_A0_W0_RI1_EM1_ID0004
 10
1155.00
 20
910.00
 30
16.00
 42
0.194188
  0
VERTEX
  8
BORDER_D0_T128_RK1_A0_W0_RI1_EM1_ID0004
 10
1055.00
 20
510.00
 30
16.00
  0
VERTEX
  8
BORDER_D0_T128_RK1_A0_W0_RI1_EM1_ID0004
 10
930.00
 20
510.00
 30
16.00
  0
VERTEX
  8
BORDER_D0_T128_RK1_A0_W0_RI1_EM1_ID0004
 10
930.00
 20
810.00
 30
16.00
  0
SEQEND
  8
BORDER_D0_T128_RK1_A0_W0_RI1_EM1_ID0004
  0
POLYLINE
  8
BORDER_D0_T128_RK1_A0_W0_RI1_EM1_ID0004
 70
1
 66
1
  0
VERTEX
  8
BORDER_D0_T128_RK1_A0_W0_RI1_EM1_ID0004
 10
715.00
 20
144.38
 30
16.00
  0
VERTEX
  8
BORDER_D0_T128_RK1_A0_W0_RI1_EM1_ID0004
 10
415.00
 20
144.38
 30
16.00
  0
VERTEX
  8
BORDER_D0_T128_RK1_A0_W0_RI1_EM1_ID0004
 10
415.00
 20
169.38
 30
16.00
  0
VERTEX
  8
BORDER_D0_T128_RK1_A0_W0_RI1_EM1_ID0004
 10
15.00
 20
169.38
 30
16.00
  0
VERTEX
  8
BORDER_D0_T128_RK1_A0_W0_RI1_EM1_ID0004
 10
15.00
 20
369.38
 30
16.00
  0
VERTEX
  8
BORDER_D0_T128_RK1_A0_W0_RI1_EM1_ID0004
 10
15.00
 20
594.38
 30
16.00
 42
-0.201478
  0
VERTEX
  8
BORDER_D0_T128_RK1_A0_W0_RI1_EM1_ID0004
 10
615.00
 20
369.38
 30
16.00
 42
0.194188
  0
VERTEX
  8
BORDER_D0_T128_RK1_A0_W0_RI1_EM1_ID0004
 10
1015.00
 20
269.38
 30
16.00
  0
VERTEX
  8
BORDER_D0_T128_RK1_A0_W0_RI1_EM1_ID0004
 10
1015.00
 20
144.38
 30
16.00
  0
VERTEX
  8
BORDER_D0_T128_RK1_A0_W0_RI1_EM1_ID0004
 10
715.00
 20
144.38
 30
16.00
  0
SEQEND
  8
BORDER_D0_T128_RK1_A0_W0_RI1_EM1_ID0004
  0
POLYLINE
  8
BORDER_D0_T128_RK1_A0_W0_RI1_EM1_ID0005
 70
1
 66
1
  0
VERTEX
  8
BORDER_D0_T128_RK1_A0_W0_RI1_EM1_ID0005
 10
1610.46
 20
90.00
 30
16.00
  0
VERTEX
  8
BORDER_D0_T128_RK1_A0_W0_RI1_EM1_ID0005
 10
1835.46
 20
90.00
 30
16.00
  0
VERTEX
  8
BORDER_D0_T128_RK1_A0_W0_RI1_EM1_ID0005
 10
1835.46
 20
115.00
 30
16.00
 42
0.382819
  0
VERTEX
  8
BORDER_D0_T128_RK1_A0_W0_RI1_EM1_ID0005
 10
2035.46
 20
315.00
 30
16.00
  0
VERTEX
  8
BORDER_D0_T128_RK1_A0_W0_RI1_EM1_ID0005
 10
2185.46
 20
315.00
 30
16.00
  0
VERTEX
  8
BORDER_D0_T128_RK1_A0_W0_RI1_EM1_ID0005
 10
2185.46
 20
15.00
 30
16.00
  0
VERTEX
  8
BORDER_D0_T128_RK1_A0_W0_RI1_EM1_ID0005
 10
1785.46
 20
15.00
 30
16.00
  0
VERTEX
  8
BORDER_D0_T128_RK1_A0_W0_RI1_EM1_ID0005
 10
1385.46
 20
15.00
 30
16.00
  0
VERTEX
  8
BORDER_D0_T128_RK1_A0_W0_RI1_EM1_ID0005
 10
1385.46
 20
90.00
 30
16.00
  0
VERTEX
  8
BORDER_D0_T128_RK1_A0_W0_RI1_EM1_ID0005
 10
1610.46
 20
90.00
 30
16.00
  0
SEQEND
  8
BORDER_D0_T128_RK1_A0_W0_RI1_EM1_ID0005
  0
POLYLINE
  8
BORDER_D0_T128_RK1_A0_W0_RI1_EM1_ID0002
 70
1
 66
1
  0
VERTEX
  8
BORDER_D0_T128_RK1_A0_W0_RI1_EM1_ID0002
 10
1650.07
 20
153.87
 30
16.00
  0
VERTEX
  8
BORDER_D0_T128_RK1_A0_W0_RI1_EM1_ID0002
 10
1400.07
 20
153.87
 30
16.00
 42
-0.414214
  0
VERTEX
  8
BORDER_D0_T128_RK1_A0_W0_RI1_EM1_ID0002
 10
1350.07
 20
203.87
 30
16.00
  0
VERTEX
  8
BORDER_D0_T128_RK1_A0_W0_RI1_EM1_ID0002
 10
1350.07
 20
403.87
 30
16.00
 42
-0.414214
  0
VERTEX
  8
BORDER_D0_T128_RK1_A0_W0_RI1_EM1_ID0002
 10
1400.07
 20
453.87
 30
16.00
  0
VERTEX
  8
BORDER_D0_T128_RK1_A0_W0_RI1_EM1_ID0002
 10
1500.07
 20
453.87
 30
16.00
 42
0.414214
  0
VERTEX
  8
BORDER_D0_T128_RK1_A0_W0_RI1_EM1_ID0002
 10
1550.07
 20
503.87
 30
16.00
  0
VERTEX
  8
BORDER_D0_T128_RK1_A0_W0_RI1_EM1_ID0002
 10
1550.07
 20
703.87
 30
16.00
 42
-0.414214
  0
VERTEX
  8
BORDER_D0_T128_RK1_A0_W0_RI1_EM1_ID0002
 10
1600.07
 20
753.87
 30
16.00
  0
VERTEX
  8
BORDER_D0_T128_RK1_A0_W0_RI1_EM1_ID0002
 10
1700.07
 20
753.87
 30
16.00
 42
0.414214
  0
VERTEX
  8
BORDER_D0_T128_RK1_A0_W0_RI1_EM1_ID0002
 10
1750.07
 20
803.87
 30
16.00
  0
VERTEX
  8
BORDER_D0_T128_RK1_A0_W0_RI1_EM1_ID0002
 10
1750.07
 20
1003.87
 30
16.00
 42
-0.414214
  0
VERTEX
  8
BORDER_D0_T128_RK1_A0_W0_RI1_EM1_ID0002
 10
1800.07
 20
1053.87
 30
16.00
  0
VERTEX
  8
BORDER_D0_T128_RK1_A0_W0_RI1_EM1_ID0002
 10
1900.07
 20
1053.87
 30
16.00
 42
-0.414214
  0
VERTEX
  8
BORDER_D0_T128_RK1_A0_W0_RI1_EM1_ID0002
 10
1950.07
 20
1003.87
 30
16.00
  0
VERTEX
  8
BORDER_D0_T128_RK1_A0_W0_RI1_EM1_ID0002
 10
1950.07
 20
603.87
 30
16.00
  0
VERTEX
  8
BORDER_D0_T128_RK1_A0_W0_RI1_EM1_ID0002
 10
1950.07
 20
203.87
 30
16.00
 42
-0.414214
  0
VERTEX
  8
BORDER_D0_T128_RK1_A0_W0_RI1_EM1_ID0002
 10
1900.07
 20
153.87
 30
16.00
  0
VERTEX
  8
BORDER_D0_T128_RK1_A0_W0_RI1_EM1_ID0002
 10
1650.07
 20
153.87
 30
16.00
  0
SEQEND
  8
BORDER_D0_T128_RK1_A0_W0_RI1_EM1_ID0002
  0
POLYLINE
  8
BORDER_D0_T128_RK1_A0_W0_RI1_EM1_ID0014
 70
1
 66
1
  0
VERTEX
  8
BORDER_D0_T128_RK1_A0_W0_RI1_EM1_ID0014
 10
2500.46
 20
70.06
 30
16.00
  0
VERTEX
  8
BORDER_D0_T128_RK1_A0_W0_RI1_EM1_ID0014
 10
2200.46
 20
70.06
 30
16.00
  0
VERTEX
  8
BORDER_D0_T128_RK1_A0_W0_RI1_EM1_ID0014
 10
2200.46
 20
370.06
 30
16.00
  0
VERTEX
  8
BORDER_D0_T128_RK1_A0_W0_RI1_EM1_ID0014
 10
2500.46
 20
370.06
 30
16.00
  0
VERTEX
  8
BORDER_D0_T128_RK1_A0_W0_RI1_EM1_ID0014
 10
2800.46
 20
370.06
 30
16.00
  0
VERTEX
  8
BORDER_D0_T128_RK1_A0_W0_RI1_EM1_ID0014
 10
2800.46
 20
70.06
 30
16.00
  0
VERTEX
  8
BORDER_D0_T128_RK1_A0_W0_RI1_EM1_ID0014
 10
2500.46
 20
70.06
 30
16.00
  0
SEQEND
  8
BORDER_D0_T128_RK1_A0_W0_RI1_EM1_ID0014
  0
POLYLINE
  8
BORDER_D0_T128_RK1_A0_W0_RI1_EM1_ID0003
 70
1
 66
1
  0
VERTEX
  8
BORDER_D0_T128_RK1_A0_W0_RI1_EM1_ID0003
 10
2815.46
 20
223.06
 30
16.00
  0
VERTEX
  8
BORDER_D0_T128_RK1_A0_W0_RI1_EM1_ID0003
 10
2815.46
 20
370.06
 30
16.00
  0
VERTEX
  8
BORDER_D0_T128_RK1_A0_W0_RI1_EM1_ID0003
 10
2954.46
 20
370.06
 30
16.00
  0
VERTEX
  8
BORDER_D0_T128_RK1_A0_W0_RI1_EM1_ID0003
 10
2954.46
 20
76.06
 30
16.00
  0
VERTEX
  8
BORDER_D0_T128_RK1_A0_W0_RI1_EM1_ID0003
 10
2884.96
 20
76.06
 30
16.00
  0
VERTEX
  8
BORDER_D0_T128_RK1_A0_W0_RI1_EM1_ID0003
 10
2815.46
 20
76.06
 30
16.00
  0
VERTEX
  8
BORDER_D0_T128_RK1_A0_W0_RI1_EM1_ID0003
 10
2815.46
 20
223.06
 30
16.00
  0
SEQEND
  8
BORDER_D0_T128_RK1_A0_W0_RI1_EM1_ID0003
  0
POLYLINE
  8
BORDER_D0_T128_RK1_A0_W0_RI1_EM1_ID0007
 70
1
 66
1
  0
VERTEX
  8
BORDER_D0_T128_RK1_A0_W0_RI1_EM1_ID0007
 10
2675.47
 20
385.06
 30
16.00
  0
VERTEX
  8
BORDER_D0_T128_RK1_A0_W0_RI1_EM1_ID0007
 10
2375.47
 20
385.06
 30
16.00
  0
VERTEX
  8
BORDER_D0_T128_RK1_A0_W0_RI1_EM1_ID0007
 10
2375.47
 20
435.06
 30
16.00
  0
VERTEX
  8
BORDER_D0_T128_RK1_A0_W0_RI1_EM1_ID0007
 10
2925.47
 20
435.06
 30
16.00
  0
VERTEX
  8
BORDER_D0_T128_RK1_A0_W0_RI1_EM1_ID0007
 10
2925.47
 20
985.06
 30
16.00
  0
VERTEX
  8
BORDER_D0_T128_RK1_A0_W0_RI1_EM1_ID0007
 10
2975.47
 20
985.06
 30
16.00
  0
VERTEX
  8
BORDER_D0_T128_RK1_A0_W0_RI1_EM1_ID0007
 10
2975.47
 20
685.06
 30
16.00
  0
VERTEX
  8
BORDER_D0_T128_RK1_A0_W0_RI1_EM1_ID0007
 10
2975.47
 20
385.06
 30
16.00
  0
VERTEX
  8
BORDER_D0_T128_RK1_A0_W0_RI1_EM1_ID0007
 10
2675.47
 20
385.06
 30
16.00
  0
SEQEND
  8
BORDER_D0_T128_RK1_A0_W0_RI1_EM1_ID0007
  0
POLYLINE
  8
BORDER_D0_T128_RK1_A0_W0_RI1_EM1_ID0007
 70
1
 66
1
  0
VERTEX
  8
BORDER_D0_T128_RK1_A0_W0_RI1_EM1_ID0007
 10
2610.41
 20
450.06
 30
16.00
  0
VERTEX
  8
BORDER_D0_T128_RK1_A0_W0_RI1_EM1_ID0007
 10
2310.41
 20
450.06
 30
16.00
  0
VERTEX
  8
BORDER_D0_T128_RK1_A0_W0_RI1_EM1_ID0007
 10
2310.41
 20
500.06
 30
16.00
  0
VERTEX
  8
BORDER_D0_T128_RK1_A0_W0_RI1_EM1_ID0007
 10
2860.41
 20
500.06
 30
16.00
  0
VERTEX
  8
BORDER_D0_T128_RK1_A0_W0_RI1_EM1_ID0007
 10
2860.41
 20
1050.06
 30
16.00
  0
VERTEX
  8
BORDER_D0_T128_RK1_A0_W0_RI1_EM1_ID0007
 10
2910.41
 20
1050.06
 30
16.00
  0
VERTEX
  8
BORDER_D0_T128_RK1_A0_W0_RI1_EM1_ID0007
 10
2910.41
 20
750.06
 30
16.00
  0
VERTEX
  8
BORDER_D0_T128_RK1_A0_W0_RI1_EM1_ID0007
 10
2910.41
 20
450.06
 30
16.00
  0
VERTEX
  8
BORDER_D0_T128_RK1_A0_W0_RI1_EM1_ID0007
 10
2610.41
 20
450.06
 30
16.00
  0
SEQEND
  8
BORDER_D0_T128_RK1_A0_W0_RI1_EM1_ID0007
  0
POLYLINE
  8
BORDER_D0_T128_RK1_A0_W0_RI1_EM1_ID0007
 70
1
 66
1
  0
VERTEX
  8
BORDER_D0_T128_RK1_A0_W0_RI1_EM1_ID0007
 10
2545.41
 20
515.11
 30
16.00
  0
VERTEX
  8
BORDER_D0_T128_RK1_A0_W0_RI1_EM1_ID0007
 10
2245.41
 20
515.11
 30
16.00
  0
VERTEX
  8
BORDER_D0_T128_RK1_A0_W0_RI1_EM1_ID0007
 10
2245.41
 20
565.11
 30
16.00
  0
VERTEX
  8
BORDER_D0_T128_RK1_A0_W0_RI1_EM1_ID0007
 10
2795.41
 20
565.11
 30
16.00
  0
VERTEX
  8
BORDER_D0_T128_RK1_A0_W0_RI1_EM1_ID0007
 10
2795.41
 20
1115.11
 30
16.00
  0
VERTEX
  8
BORDER_D0_T128_RK1_A0_W0_RI1_EM1_ID0007
 10
2845.41
 20
1115.11
 30
16.00
  0
VERTEX
  8
BORDER_D0_T128_RK1_A0_W0_RI1_EM1_ID0007
 10
2845.41
 20
815.11
 30
16.00
  0
VERTEX
  8
BORDER_D0_T128_RK1_A0_W0_RI1_EM1_ID0007
 10
2845.41
 20
515.11
 30
16.00
  0
VERTEX
  8
BORDER_D0_T128_RK1_A0_W0_RI1_EM1_ID0007
 10
2545.41
 20
515.11
 30
16.00
  0
SEQEND
  8
BORDER_D0_T128_RK1_A0_W0_RI1_EM1_ID0007
  0
POLYLINE
  8
BORDER_D0_T128_RK1_A0_W0_RI1_EM1_ID0002
 70
1
 66
1
  0
VERTEX
  8
BORDER_D0_T128_RK1_A0_W0_RI1_EM1_ID0002
 10
2480.39
 20
580.12
 30
16.00
  0
VERTEX
  8
BORDER_D0_T128_RK1_A0_W0_RI1_EM1_ID0002
 10
2230.39
 20
580.12
 30
16.00
 42
-0.414214
  0
VERTEX
  8
BORDER_D0_T128_RK1_A0_W0_RI1_EM1_ID0002
 10
2180.39
 20
630.12
 30
16.00
  0
VERTEX
  8
BORDER_D0_T128_RK1_A0_W0_RI1_EM1_ID0002
 10
2180.39
 20
830.12
 30
16.00
 42
-0.414214
  0
VERTEX
  8
BORDER_D0_T128_RK1_A0_W0_RI1_EM1_ID0002
 10
2230.39
 20
880.12
 30
16.00
  0
VERTEX
  8
BORDER_D0_T128_RK1_A0_W0_RI1_EM1_ID0002
 10
2330.39
 20
880.12
 30
16.00
 42
0.414214
  0
VERTEX
  8
BORDER_D0_T128_RK1_A0_W0_RI1_EM1_ID0002
 10
2380.39
 20
930.12
 30
16.00
  0
VERTEX
  8
BORDER_D0_T128_RK1_A0_W0_RI1_EM1_ID0002
 10
2380.39
 20
1130.12
 30
16.00
 42
-0.414214
  0
VERTEX
  8
BORDER_D0_T128_RK1_A0_W0_RI1_EM1_ID0002
 10
2430.39
 20
1180.12
 30
16.00
  0
VERTEX
  8
BORDER_D0_T128_RK1_A0_W0_RI1_EM1_ID0002
 10
2530.39
 20
1180.12
 30
16.00
 42
0.414214
  0
VERTEX
  8
BORDER_D0_T128_RK1_A0_W0_RI1_EM1_ID0002
 10
2580.39
 20
1230.12
 30
16.00
  0
VERTEX
  8
BORDER_D0_T128_RK1_A0_W0_RI1_EM1_ID0002
 10
2580.39
 20
1430.12
 30
16.00
 42
-0.414214
  0
VERTEX
  8
BORDER_D0_T128_RK1_A0_W0_RI1_EM1_ID0002
 10
2630.39
 20
1480.12
 30
16.00
  0
VERTEX
  8
BORDER_D0_T128_RK1_A0_W0_RI1_EM1_ID0002
 10
2730.39
 20
1480.12
 30
16.00
 42
-0.414214
  0
VERTEX
  8
BORDER_D0_T128_RK1_A0_W0_RI1_EM1_ID0002
 10
2780.39
 20
1430.12
 30
16.00
  0
VERTEX
  8
BORDER_D0_T128_RK1_A0_W0_RI1_EM1_ID0002
 10
2780.39
 20
1030.12
 30
16.00
  0
VERTEX
  8
BORDER_D0_T128_RK1_A0_W0_RI1_EM1_ID0002
 10
2780.39
 20
630.12
 30
16.00
 42
-0.414214
  0
VERTEX
  8
BORDER_D0_T128_RK1_A0_W0_RI1_EM1_ID0002
 10
2730.39
 20
580.12
 30
16.00
  0
VERTEX
  8
BORDER_D0_T128_RK1_A0_W0_RI1_EM1_ID0002
 10
2480.39
 20
580.12
 30
16.00
  0
SEQEND
  8
BORDER_D0_T128_RK1_A0_W0_RI1_EM1_ID0002
  0
POLYLINE
  8
BORDER_D0_T128_RK1_A0_W0_RI1_EM1_ID0003
 70
1
 66
1
  0
VERTEX
  8
BORDER_D0_T128_RK1_A0_W0_RI1_EM1_ID0003
 10
2795.39
 20
1363.00
 30
16.00
  0
VERTEX
  8
BORDER_D0_T128_RK1_A0_W0_RI1_EM1_ID0003
 10
2795.39
 20
1510.00
 30
16.00
  0
VERTEX
  8
BORDER_D0_T128_RK1_A0_W0_RI1_EM1_ID0003
 10
2934.39
 20
1510.00
 30
16.00
  0
VERTEX
  8
BORDER_D0_T128_RK1_A0_W0_RI1_EM1_ID0003
 10
2934.39
 20
1216.00
 30
16.00
  0
VERTEX
  8
BORDER_D0_T128_RK1_A0_W0_RI1_EM1_ID0003
 10
2864.89
 20
1216.00
 30
16.00
  0
VERTEX
  8
BORDER_D0_T128_RK1_A0_W0_RI1_EM1_ID0003
 10
2795.39
 20
1216.00
 30
16.00
  0
VERTEX
  8
BORDER_D0_T128_RK1_A0_W0_RI1_EM1_ID0003
 10
2795.39
 20
1363.00
 30
16.00
  0
SEQEND
  8
BORDER_D0_T128_RK1_A0_W0_RI1_EM1_ID0003
  0
POLYLINE
  8
BORDER_D0_T128_RK1_A0_W0_RI1_EM1_ID0002
 70
1
 66
1
  0
VERTEX
  8
BORDER_D0_T128_RK1_A0_W0_RI1_EM1_ID0002
 10
2265.07
 20
1510.00
 30
16.00
  0
VERTEX
  8
BORDER_D0_T128_RK1_A0_W0_RI1_EM1_ID0002
 10
2515.07
 20
1510.00
 30
16.00
 42
-0.414214
  0
VERTEX
  8
BORDER_D0_T128_RK1_A0_W0_RI1_EM1_ID0002
 10
2565.07
 20
1460.00
 30
16.00
  0
VERTEX
  8
BORDER_D0_T128_RK1_A0_W0_RI1_EM1_ID0002
 10
2565.07
 20
1260.00
 30
16.00
 42
-0.414214
  0
VERTEX
  8
BORDER_D0_T128_RK1_A0_W0_RI1_EM1_ID0002
 10
2515.07
 20
1210.00
 30
16.00
  0
VERTEX
  8
BORDER_D0_T128_RK1_A0_W0_RI1_EM1_ID0002
 10
2415.07
 20
1210.00
 30
16.00
 42
0.414214
  0
VERTEX
  8
BORDER_D0_T128_RK1_A0_W0_RI1_EM1_ID0002
 10
2365.07
 20
1160.00
 30
16.00
  0
VERTEX
  8
BORDER_D0_T128_RK1_A0_W0_RI1_EM1_ID0002
 10
2365.07
 20
960.00
 30
16.00
 42
-0.414214
  0
VERTEX
  8
BORDER_D0_T128_RK1_A0_W0_RI1_EM1_ID0002
 10
2315.07
 20
910.00
 30
16.00
  0
VERTEX
  8
BORDER_D0_T128_RK1_A0_W0_RI1_EM1_ID0002
 10
2215.07
 20
910.00
 30
16.00
 42
0.414214
  0
VERTEX
  8
BORDER_D0_T128_RK1_A0_W0_RI1_EM1_ID0002
 10
2165.07
 20
860.00
 30
16.00
  0
VERTEX
  8
BORDER_D0_T128_RK1_A0_W0_RI1_EM1_ID0002
 10
2165.07
 20
660.00
 30
16.00
 42
-0.414214
  0
VERTEX
  8
BORDER_D0_T128_RK1_A0_W0_RI1_EM1_ID0002
 10
2115.07
 20
610.00
 30
16.00
  0
VERTEX
  8
BORDER_D0_T128_RK1_A0_W0_RI1_EM1_ID0002
 10
2015.07
 20
610.00
 30
16.00
 42
-0.414214
  0
VERTEX
  8
BORDER_D0_T128_RK1_A0_W0_RI1_EM1_ID0002
 10
1965.07
 20
660.00
 30
16.00
  0
VERTEX
  8
BORDER_D0_T128_RK1_A0_W0_RI1_EM1_ID0002
 10
1965.07
 20
1060.00
 30
16.00
  0
VERTEX
  8
BORDER_D0_T128_RK1_A0_W0_RI1_EM1_ID0002
 10
1965.07
 20
1460.00
 30
16.00
 42
-0.414214
  0
VERTEX
  8
BORDER_D0_T128_RK1_A0_W0_RI1_EM1_ID0002
 10
2015.07
 20
1510.00
 30
16.00
  0
VERTEX
  8
BORDER_D0_T128_RK1_A0_W0_RI1_EM1_ID0002
 10
2265.07
 20
1510.00
 30
16.00
  0
SEQEND
  8
BORDER_D0_T128_RK1_A0_W0_RI1_EM1_ID0002
  0
POLYLINE
  8
BORDER_D0_T128_RK1_A0_W0_RI1_EM1_ID0001
 70
1
 66
1
  0
VERTEX
  8
BORDER_D0_T128_RK1_A0_W0_RI1_EM1_ID0001
 10
1724.98
 20
1248.00
 30
16.00
  0
VERTEX
  8
BORDER_D0_T128_RK1_A0_W0_RI1_EM1_ID0001
 10
1574.98
 20
1248.00
 30
16.00
  0
VERTEX
  8
BORDER_D0_T128_RK1_A0_W0_RI1_EM1_ID0001
 10
1574.98
 20
1510.00
 30
16.00
  0
VERTEX
  8
BORDER_D0_T128_RK1_A0_W0_RI1_EM1_ID0001
 10
1874.98
 20
1510.00
 30
16.00
  0
VERTEX
  8
BORDER_D0_T128_RK1_A0_W0_RI1_EM1_ID0001
 10
1874.98
 20
1379.00
 30
16.00
  0
VERTEX
  8
BORDER_D0_T128_RK1_A0_W0_RI1_EM1_ID0001
 10
1874.98
 20
1248.00
 30
16.00
  0
VERTEX
  8
BORDER_D0_T128_RK1_A0_W0_RI1_EM1_ID0001
 10
1724.98
 20
1248.00
 30
16.00
  0
SEQEND
  8
BORDER_D0_T128_RK1_A0_W0_RI1_EM1_ID0001
  0
POLYLINE
  8
BORDER_D0_T128_RK1_A0_W0_RI1_EM1_ID0004
 70
1
 66
1
  0
VERTEX
  8
BORDER_D0_T128_RK1_A0_W0_RI1_EM1_ID0004
 10
1559.98
 20
1210.00
 30
16.00
  0
VERTEX
  8
BORDER_D0_T128_RK1_A0_W0_RI1_EM1_ID0004
 10
1559.98
 20
910.00
 30
16.00
  0
VERTEX
  8
BORDER_D0_T128_RK1_A0_W0_RI1_EM1_ID0004
 10
1534.98
 20
910.00
 30
16.00
  0
VERTEX
  8
BORDER_D0_T128_RK1_A0_W0_RI1_EM1_ID0004
 10
1534.98
 20
510.00
 30
16.00
  0
VERTEX
  8
BORDER_D0_T128_RK1_A0_W0_RI1_EM1_ID0004
 10
1334.98
 20
510.00
 30
16.00
  0
VERTEX
  8
BORDER_D0_T128_RK1_A0_W0_RI1_EM1_ID0004
 10
1109.98
 20
510.00
 30
16.00
 42
-0.201478
  0
VERTEX
  8
BORDER_D0_T128_RK1_A0_W0_RI1_EM1_ID0004
 10
1334.98
 20
1110.00
 30
16.00
 42
0.194188
  0
VERTEX
  8
BORDER_D0_T128_RK1_A0_W0_RI1_EM1_ID0004
 10
1434.98
 20
1510.00
 30
16.00
  0
VERTEX
  8
BORDER_D0_T128_RK1_A0_W0_RI1_EM1_ID0004
 10
1559.98
 20
1510.00
 30
16.00
  0
VERTEX
  8
BORDER_D0_T128_RK1_A0_W0_RI1_EM1_ID0004
 10
1559.98
 20
1210.00
 30
16.00
  0
SEQEND
  8
BORDER_D0_T128_RK1_A0_W0_RI1_EM1_ID0004
  0
POLYLINE
  8
BORDER_D0_T128.1_RK1_A0_W0_RI1_EM1_ID0008
 70
1
 66
1
  0
VERTEX
  8
BORDER_D0_T128.1_RK1_A0_W0_RI1_EM1_ID0008
 10
341.26
 20
610.00
 30
18.30
  0
VERTEX
  8
BORDER_D0_T128.1_RK1_A0_W0_RI1_EM1_ID0008
 10
15.00
 20
610.00
 30
18.30
  0
VERTEX
  8
BORDER_D0_T128.1_RK1_A0_W0_RI1_EM1_ID0008
 10
115.00
 20
710.00
 30
18.30
  0
VERTEX
  8
BORDER_D0_T128.1_RK1_A0_W0_RI1_EM1_ID0008
 10
626.09
 20
710.00
 30
18.30
  0
VERTEX
  8
BORDER_D0_T128.1_RK1_A0_W0_RI1_EM1_ID0008
 10
815.00
 20
898.91
 30
18.30
  0
VERTEX
  8
BORDER_D0_T128.1_RK1_A0_W0_RI1_EM1_ID0008
 10
815.00
 20
1410.00
 30
18.30
  0
VERTEX
  8
BORDER_D0_T128.1_RK1_A0_W0_RI1_EM1_ID0008
 10
915.00
 20
1510.00
 30
18.30
  0
VERTEX
  8
BORDER_D0_T128.1_RK1_A0_W0_RI1_EM1_ID0008
 10
915.00
 20
1150.35
 30
18.30
  0
VERTEX
  8
BORDER_D0_T128.1_RK1_A0_W0_RI1_EM1_ID0008
 10
915.00
 20
857.49
 30
18.30
  0
VERTEX
  8
BORDER_D0_T128.1_RK1_A0_W0_RI1_EM1_ID0008
 10
667.51
 20
610.00
 30
18.30
  0
VERTEX
  8
BORDER_D0_T128.1_RK1_A0_W0_RI1_EM1_ID0008
 10
341.26
 20
610.00
 30
18.30
  0
SEQEND
  8
BORDER_D0_T128.1_RK1_A0_W0_RI1_EM1_ID0008
  0
POLYLINE
  8
BORDER_D0_T128.1_RK1_A0_W0_RI1_EM1_ID0003
 70
1
 66
1
  0
VERTEX
  8
BORDER_D0_T128.1_RK1_A0_W0_RI1_EM1_ID0003
 10
630.00
 20
1053.99
 30
18.30
  0
VERTEX
  8
BORDER_D0_T128.1_RK1_A0_W0_RI1_EM1_ID0003
 10
630.00
 20
1200.99
 30
18.30
  0
VERTEX
  8
BORDER_D0_T128.1_RK1_A0_W0_RI1_EM1_ID0003
 10
769.00
 20
1200.99
 30
18.30
  0
VERTEX
  8
BORDER_D0_T128.1_RK1_A0_W0_RI1_EM1_ID0003
 10
769.00
 20
906.99
 30
18.30
  0
VERTEX
  8
BORDER_D0_T128.1_RK1_A0_W0_RI1_EM1_ID0003
 10
699.50
 20
906.99
 30
18.30
  0
VERTEX
  8
BORDER_D0_T128.1_RK1_A0_W0_RI1_EM1_ID0003
 10
630.00
 20
906.99
 30
18.30
  0
VERTEX
  8
BORDER_D0_T128.1_RK1_A0_W0_RI1_EM1_ID0003
 10
630.00
 20
1053.99
 30
18.30
  0
SEQEND
  8
BORDER_D0_T128.1_RK1_A0_W0_RI1_EM1_ID0003
  0
POLYLINE
  8
BORDER_D0_T128.1_RK1_A0_W0_RI1_EM1_ID0010
 70
1
 66
1
  0
VERTEX
  8
BORDER_D0_T128.1_RK1_A0_W0_RI1_EM1_ID0010
 10
352.50
 20
1144.93
 30
18.30
  0
VERTEX
  8
BORDER_D0_T128.1_RK1_A0_W0_RI1_EM1_ID0010
 10
465.00
 20
1194.93
 30
18.30
  0
VERTEX
  8
BORDER_D0_T128.1_RK1_A0_W0_RI1_EM1_ID0010
 10
615.00
 20
1194.93
 30
18.30
  0
VERTEX
  8
BORDER_D0_T128.1_RK1_A0_W0_RI1_EM1_ID0010
 10
615.00
 20
994.93
 30
18.30
  0
VERTEX
  8
BORDER_D0_T128.1_RK1_A0_W0_RI1_EM1_ID0010
 10
615.00
 20
794.93
 30
18.30
  0
VERTEX
  8
BORDER_D0_T128.1_RK1_A0_W0_RI1_EM1_ID0010
 10
465.00
 20
794.93
 30
18.30
  0
VERTEX
  8
BORDER_D0_T128.1_RK1_A0_W0_RI1_EM1_ID0010
 10
239.99
 20
794.93
 30
18.30
  0
VERTEX
  8
BORDER_D0_T128.1_RK1_A0_W0_RI1_EM1_ID0010
 10
15.00
 20
794.93
 30
18.30
  0
VERTEX
  8
BORDER_D0_T128.1_RK1_A0_W0_RI1_EM1_ID0010
 10
15.00
 20
944.93
 30
18.30
  0
VERTEX
  8
BORDER_D0_T128.1_RK1_A0_W0_RI1_EM1_ID0010
 10
15.00
 20
1044.93
 30
18.30
  0
VERTEX
  8
BORDER_D0_T128.1_RK1_A0_W0_RI1_EM1_ID0010
 10
65.00
 20
1094.93
 30
18.30
  0
VERTEX
  8
BORDER_D0_T128.1_RK1_A0_W0_RI1_EM1_ID0010
 10
240.00
 20
1094.93
 30
18.30
  0
VERTEX
  8
BORDER_D0_T128.1_RK1_A0_W0_RI1_EM1_ID0010
 10
352.50
 20
1144.93
 30
18.30
  0
SEQEND
  8
BORDER_D0_T128.1_RK1_A0_W0_RI1_EM1_ID0010
  0
POLYLINE
  8
BORDER_D0_T128.1_RK1_A0_W0_RI1_EM1_ID0010
 70
1
 66
1
  0
VERTEX
  8
BORDER_D0_T128.1_RK1_A0_W0_RI1_EM1_ID0010
 10
277.50
 20
1160.00
 30
18.30
  0
VERTEX
  8
BORDER_D0_T128.1_RK1_A0_W0_RI1_EM1_ID0010
 10
165.00
 20
1110.00
 30
18.30
  0
VERTEX
  8
BORDER_D0_T128.1_RK1_A0_W0_RI1_EM1_ID0010
 10
15.00
 20
1110.00
 30
18.30
  0
VERTEX
  8
BORDER_D0_T128.1_RK1_A0_W0_RI1_EM1_ID0010
 10
15.00
 20
1310.00
 30
18.30
  0
VERTEX
  8
BORDER_D0_T128.1_RK1_A0_W0_RI1_EM1_ID0010
 10
15.00
 20
1510.00
 30
18.30
  0
VERTEX
  8
BORDER_D0_T128.1_RK1_A0_W0_RI1_EM1_ID0010
 10
165.00
 20
1510.00
 30
18.30
  0
VERTEX
  8
BORDER_D0_T128.1_RK1_A0_W0_RI1_EM1_ID0010
 10
390.01
 20
1510.00
 30
18.30
  0
VERTEX
  8
BORDER_D0_T128.1_RK1_A0_W0_RI1_EM1_ID0010
 10
615.00
 20
1510.00
 30
18.30
  0
VERTEX
  8
BORDER_D0_T128.1_RK1_A0_W0_RI1_EM1_ID0010
 10
615.00
 20
1360.00
 30
18.30
  0
VERTEX
  8
BORDER_D0_T128.1_RK1_A0_W0_RI1_EM1_ID0010
 10
615.00
 20
1260.00
 30
18.30
  0
VERTEX
  8
BORDER_D0_T128.1_RK1_A0_W0_RI1_EM1_ID0010
 10
565.00
 20
1210.00
 30
18.30
  0
VERTEX
  8
BORDER_D0_T128.1_RK1_A0_W0_RI1_EM1_ID0010
 10
390.00
 20
1210.00
 30
18.30
  0
VERTEX
  8
BORDER_D0_T128.1_RK1_A0_W0_RI1_EM1_ID0010
 10
277.50
 20
1160.00
 30
18.30
  0
SEQEND
  8
BORDER_D0_T128.1_RK1_A0_W0_RI1_EM1_ID0010
  0
POLYLINE
  8
BORDER_D0_T128.1_RK1_A0_W0_RI1_EM1_ID0003
 70
1
 66
1
  0
VERTEX
  8
BORDER_D0_T128.1_RK1_A0_W0_RI1_EM1_ID0003
 10
630.00
 20
1363.00
 30
18.30
  0
VERTEX
  8
BORDER_D0_T128.1_RK1_A0_W0_RI1_EM1_ID0003
 10
630.00
 20
1510.00
 30
18.30
  0
VERTEX
  8
BORDER_D0_T128.1_RK1_A0_W0_RI1_EM1_ID0003
 10
769.00
 20
1510.00
 30
18.30
  0
VERTEX
  8
BORDER_D0_T128.1_RK1_A0_W0_RI1_EM1_ID0003
 10
769.00
 20
1216.00
 30
18.30
  0
VERTEX
  8
BORDER_D0_T128.1_RK1_A0_W0_RI1_EM1_ID0003
 10
699.50
 20
1216.00
 30
18.30
  0
VERTEX
  8
BORDER_D0_T128.1_RK1_A0_W0_RI1_EM1_ID0003
 10
630.00
 20
1216.00
 30
18.30
  0
VERTEX
  8
BORDER_D0_T128.1_RK1_A0_W0_RI1_EM1_ID0003
 10
630.00
 20
1363.00
 30
18.30
  0
SEQEND
  8
BORDER_D0_T128.1_RK1_A0_W0_RI1_EM1_ID0003
  0
POLYLINE
  8
BORDER_D0_T128.1_RK1_A0_W0_RI1_EM1_ID0004
 70
1
 66
1
  0
VERTEX
  8
BORDER_D0_T128.1_RK1_A0_W0_RI1_EM1_ID0004
 10
930.00
 20
810.00
 30
18.30
  0
VERTEX
  8
BORDER_D0_T128.1_RK1_A0_W0_RI1_EM1_ID0004
 10
930.00
 20
1110.00
 30
18.30
  0
VERTEX
  8
BORDER_D0_T128.1_RK1_A0_W0_RI1_EM1_ID0004
 10
955.00
 20
1110.00
 30
18.30
  0
VERTEX
  8
BORDER_D0_T128.1_RK1_A0_W0_RI1_EM1_ID0004
 10
955.00
 20
1510.00
 30
18.30
  0
VERTEX
  8
BORDER_D0_T128.1_RK1_A0_W0_RI1_EM1_ID0004
 10
1155.00
 20
1510.00
 30
18.30
  0
VERTEX
  8
BORDER_D0_T128.1_RK1_A0_W0_RI1_EM1_ID0004
 10
1380.00
 20
1510.00
 30
18.30
 42
-0.201478
  0
VERTEX
  8
BORDER_D0_T128.1_RK1_A0_W0_RI1_EM1_ID0004
 10
1155.00
 20
910.00
 30
18.30
 42
0.194188
  0
VERTEX
  8
BORDER_D0_T128.1_RK1_A0_W0_RI1_EM1_ID0004
 10
1055.00
 20
510.00
 30
18.30
  0
VERTEX
  8
BORDER_D0_T128.1_RK1_A0_W0_RI1_EM1_ID0004
 10
930.00
 20
510.00
 30
18.30
  0
VERTEX
  8
BORDER_D0_T128.1_RK1_A0_W0_RI1_EM1_ID0004
 10
930.00
 20
810.00
 30
18.30
  0
SEQEND
  8
BORDER_D0_T128.1_RK1_A0_W0_RI1_EM1_ID0004
  0
POLYLINE
  8
BORDER_D0_T128.1_RK1_A0_W0_RI1_EM1_ID0004
 70
1
 66
1
  0
VERTEX
  8
BORDER_D0_T128.1_RK1_A0_W0_RI1_EM1_ID0004
 10
715.00
 20
144.38
 30
18.30
  0
VERTEX
  8
BORDER_D0_T128.1_RK1_A0_W0_RI1_EM1_ID0004
 10
415.00
 20
144.38
 30
18.30
  0
VERTEX
  8
BORDER_D0_T128.1_RK1_A0_W0_RI1_EM1_ID0004
 10
415.00
 20
169.38
 30
18.30
  0
VERTEX
  8
BORDER_D0_T128.1_RK1_A0_W0_RI1_EM1_ID0004
 10
15.00
 20
169.38
 30
18.30
  0
VERTEX
  8
BORDER_D0_T128.1_RK1_A0_W0_RI1_EM1_ID0004
 10
15.00
 20
369.38
 30
18.30
  0
VERTEX
  8
BORDER_D0_T128.1_RK1_A0_W0_RI1_EM1_ID0004
 10
15.00
 20
594.38
 30
18.30
 42
-0.201478
  0
VERTEX
  8
BORDER_D0_T128.1_RK1_A0_W0_RI1_EM1_ID0004
 10
615.00
 20
369.38
 30
18.30
 42
0.194188
  0
VERTEX
  8
BORDER_D0_T128.1_RK1_A0_W0_RI1_EM1_ID0004
 10
1015.00
 20
269.38
 30
18.30
  0
VERTEX
  8
BORDER_D0_T128.1_RK1_A0_W0_RI1_EM1_ID0004
 10
1015.00
 20
144.38
 30
18.30
  0
VERTEX
  8
BORDER_D0_T128.1_RK1_A0_W0_RI1_EM1_ID0004
 10
715.00
 20
144.38
 30
18.30
  0
SEQEND
  8
BORDER_D0_T128.1_RK1_A0_W0_RI1_EM1_ID0004
  0
POLYLINE
  8
BORDER_D0_T128.1_RK1_A0_W0_RI1_EM1_ID0005
 70
1
 66
1
  0
VERTEX
  8
BORDER_D0_T128.1_RK1_A0_W0_RI1_EM1_ID0005
 10
1610.46
 20
90.00
 30
18.30
  0
VERTEX
  8
BORDER_D0_T128.1_RK1_A0_W0_RI1_EM1_ID0005
 10
1835.46
 20
90.00
 30
18.30
  0
VERTEX
  8
BORDER_D0_T128.1_RK1_A0_W0_RI1_EM1_ID0005
 10
1835.46
 20
115.00
 30
18.30
 42
0.382819
  0
VERTEX
  8
BORDER_D0_T128.1_RK1_A0_W0_RI1_EM1_ID0005
 10
2035.46
 20
315.00
 30
18.30
  0
VERTEX
  8
BORDER_D0_T128.1_RK1_A0_W0_RI1_EM1_ID0005
 10
2185.46
 20
315.00
 30
18.30
  0
VERTEX
  8
BORDER_D0_T128.1_RK1_A0_W0_RI1_EM1_ID0005
 10
2185.46
 20
15.00
 30
18.30
  0
VERTEX
  8
BORDER_D0_T128.1_RK1_A0_W0_RI1_EM1_ID0005
 10
1785.46
 20
15.00
 30
18.30
  0
VERTEX
  8
BORDER_D0_T128.1_RK1_A0_W0_RI1_EM1_ID0005
 10
1385.46
 20
15.00
 30
18.30
  0
VERTEX
  8
BORDER_D0_T128.1_RK1_A0_W0_RI1_EM1_ID0005
 10
1385.46
 20
90.00
 30
18.30
  0
VERTEX
  8
BORDER_D0_T128.1_RK1_A0_W0_RI1_EM1_ID0005
 10
1610.46
 20
90.00
 30
18.30
  0
SEQEND
  8
BORDER_D0_T128.1_RK1_A0_W0_RI1_EM1_ID0005
  0
POLYLINE
  8
BORDER_D0_T128.1_RK1_A0_W0_RI1_EM1_ID0002
 70
1
 66
1
  0
VERTEX
  8
BORDER_D0_T128.1_RK1_A0_W0_RI1_EM1_ID0002
 10
1650.07
 20
153.87
 30
18.30
  0
VERTEX
  8
BORDER_D0_T128.1_RK1_A0_W0_RI1_EM1_ID0002
 10
1400.07
 20
153.87
 30
18.30
 42
-0.414214
  0
VERTEX
  8
BORDER_D0_T128.1_RK1_A0_W0_RI1_EM1_ID0002
 10
1350.07
 20
203.87
 30
18.30
  0
VERTEX
  8
BORDER_D0_T128.1_RK1_A0_W0_RI1_EM1_ID0002
 10
1350.07
 20
403.87
 30
18.30
 42
-0.414214
  0
VERTEX
  8
BORDER_D0_T128.1_RK1_A0_W0_RI1_EM1_ID0002
 10
1400.07
 20
453.87
 30
18.30
  0
VERTEX
  8
BORDER_D0_T128.1_RK1_A0_W0_RI1_EM1_ID0002
 10
1500.07
 20
453.87
 30
18.30
 42
0.414214
  0
VERTEX
  8
BORDER_D0_T128.1_RK1_A0_W0_RI1_EM1_ID0002
 10
1550.07
 20
503.87
 30
18.30
  0
VERTEX
  8
BORDER_D0_T128.1_RK1_A0_W0_RI1_EM1_ID0002
 10
1550.07
 20
703.87
 30
18.30
 42
-0.414214
  0
VERTEX
  8
BORDER_D0_T128.1_RK1_A0_W0_RI1_EM1_ID0002
 10
1600.07
 20
753.87
 30
18.30
  0
VERTEX
  8
BORDER_D0_T128.1_RK1_A0_W0_RI1_EM1_ID0002
 10
1700.07
 20
753.87
 30
18.30
 42
0.414214
  0
VERTEX
  8
BORDER_D0_T128.1_RK1_A0_W0_RI1_EM1_ID0002
 10
1750.07
 20
803.87
 30
18.30
  0
VERTEX
  8
BORDER_D0_T128.1_RK1_A0_W0_RI1_EM1_ID0002
 10
1750.07
 20
1003.87
 30
18.30
 42
-0.414214
  0
VERTEX
  8
BORDER_D0_T128.1_RK1_A0_W0_RI1_EM1_ID0002
 10
1800.07
 20
1053.87
 30
18.30
  0
VERTEX
  8
BORDER_D0_T128.1_RK1_A0_W0_RI1_EM1_ID0002
 10
1900.07
 20
1053.87
 30
18.30
 42
-0.414214
  0
VERTEX
  8
BORDER_D0_T128.1_RK1_A0_W0_RI1_EM1_ID0002
 10
1950.07
 20
1003.87
 30
18.30
  0
VERTEX
  8
BORDER_D0_T128.1_RK1_A0_W0_RI1_EM1_ID0002
 10
1950.07
 20
603.87
 30
18.30
  0
VERTEX
  8
BORDER_D0_T128.1_RK1_A0_W0_RI1_EM1_ID0002
 10
1950.07
 20
203.87
 30
18.30
 42
-0.414214
  0
VERTEX
  8
BORDER_D0_T128.1_RK1_A0_W0_RI1_EM1_ID0002
 10
1900.07
 20
153.87
 30
18.30
  0
VERTEX
  8
BORDER_D0_T128.1_RK1_A0_W0_RI1_EM1_ID0002
 10
1650.07
 20
153.87
 30
18.30
  0
SEQEND
  8
BORDER_D0_T128.1_RK1_A0_W0_RI1_EM1_ID0002
  0
POLYLINE
  8
BORDER_D0_T128.1_RK1_A0_W0_RI1_EM1_ID0014
 70
1
 66
1
  0
VERTEX
  8
BORDER_D0_T128.1_RK1_A0_W0_RI1_EM1_ID0014
 10
2500.46
 20
70.06
 30
18.30
  0
VERTEX
  8
BORDER_D0_T128.1_RK1_A0_W0_RI1_EM1_ID0014
 10
2200.46
 20
70.06
 30
18.30
  0
VERTEX
  8
BORDER_D0_T128.1_RK1_A0_W0_RI1_EM1_ID0014
 10
2200.46
 20
370.06
 30
18.30
  0
VERTEX
  8
BORDER_D0_T128.1_RK1_A0_W0_RI1_EM1_ID0014
 10
2500.46
 20
370.06
 30
18.30
  0
VERTEX
  8
BORDER_D0_T128.1_RK1_A0_W0_RI1_EM1_ID0014
 10
2800.46
 20
370.06
 30
18.30
  0
VERTEX
  8
BORDER_D0_T128.1_RK1_A0_W0_RI1_EM1_ID0014
 10
2800.46
 20
70.06
 30
18.30
  0
VERTEX
  8
BORDER_D0_T128.1_RK1_A0_W0_RI1_EM1_ID0014
 10
2500.46
 20
70.06
 30
18.30
  0
SEQEND
  8
BORDER_D0_T128.1_RK1_A0_W0_RI1_EM1_ID0014
  0
POLYLINE
  8
BORDER_D0_T128.1_RK1_A0_W0_RI1_EM1_ID0003
 70
1
 66
1
  0
VERTEX
  8
BORDER_D0_T128.1_RK1_A0_W0_RI1_EM1_ID0003
 10
2815.46
 20
223.06
 30
18.30
  0
VERTEX
  8
BORDER_D0_T128.1_RK1_A0_W0_RI1_EM1_ID0003
 10
2815.46
 20
370.06
 30
18.30
  0
VERTEX
  8
BORDER_D0_T128.1_RK1_A0_W0_RI1_EM1_ID0003
 10
2954.46
 20
370.06
 30
18.30
  0
VERTEX
  8
BORDER_D0_T128.1_RK1_A0_W0_RI1_EM1_ID0003
 10
2954.46
 20
76.06
 30
18.30
  0
VERTEX
  8
BORDER_D0_T128.1_RK1_A0_W0_RI1_EM1_ID0003
 10
2884.96
 20
76.06
 30
18.30
  0
VERTEX
  8
BORDER_D0_T128.1_RK1_A0_W0_RI1_EM1_ID0003
 10
2815.46
 20
76.06
 30
18.30
  0
VERTEX
  8
BORDER_D0_T128.1_RK1_A0_W0_RI1_EM1_ID0003
 10
2815.46
 20
223.06
 30
18.30
  0
SEQEND
  8
BORDER_D0_T128.1_RK1_A0_W0_RI1_EM1_ID0003
  0
POLYLINE
  8
BORDER_D0_T128.1_RK1_A0_W0_RI1_EM1_ID0007
 70
1
 66
1
  0
VERTEX
  8
BORDER_D0_T128.1_RK1_A0_W0_RI1_EM1_ID0007
 10
2675.47
 20
385.06
 30
18.30
  0
VERTEX
  8
BORDER_D0_T128.1_RK1_A0_W0_RI1_EM1_ID0007
 10
2375.47
 20
385.06
 30
18.30
  0
VERTEX
  8
BORDER_D0_T128.1_RK1_A0_W0_RI1_EM1_ID0007
 10
2375.47
 20
435.06
 30
18.30
  0
VERTEX
  8
BORDER_D0_T128.1_RK1_A0_W0_RI1_EM1_ID0007
 10
2925.47
 20
435.06
 30
18.30
  0
VERTEX
  8
BORDER_D0_T128.1_RK1_A0_W0_RI1_EM1_ID0007
 10
2925.47
 20
985.06
 30
18.30
  0
VERTEX
  8
BORDER_D0_T128.1_RK1_A0_W0_RI1_EM1_ID0007
 10
2975.47
 20
985.06
 30
18.30
  0
VERTEX
  8
BORDER_D0_T128.1_RK1_A0_W0_RI1_EM1_ID0007
 10
2975.47
 20
685.06
 30
18.30
  0
VERTEX
  8
BORDER_D0_T128.1_RK1_A0_W0_RI1_EM1_ID0007
 10
2975.47
 20
385.06
 30
18.30
  0
VERTEX
  8
BORDER_D0_T128.1_RK1_A0_W0_RI1_EM1_ID0007
 10
2675.47
 20
385.06
 30
18.30
  0
SEQEND
  8
BORDER_D0_T128.1_RK1_A0_W0_RI1_EM1_ID0007
  0
POLYLINE
  8
BORDER_D0_T128.1_RK1_A0_W0_RI1_EM1_ID0007
 70
1
 66
1
  0
VERTEX
  8
BORDER_D0_T128.1_RK1_A0_W0_RI1_EM1_ID0007
 10
2610.41
 20
450.06
 30
18.30
  0
VERTEX
  8
BORDER_D0_T128.1_RK1_A0_W0_RI1_EM1_ID0007
 10
2310.41
 20
450.06
 30
18.30
  0
VERTEX
  8
BORDER_D0_T128.1_RK1_A0_W0_RI1_EM1_ID0007
 10
2310.41
 20
500.06
 30
18.30
  0
VERTEX
  8
BORDER_D0_T128.1_RK1_A0_W0_RI1_EM1_ID0007
 10
2860.41
 20
500.06
 30
18.30
  0
VERTEX
  8
BORDER_D0_T128.1_RK1_A0_W0_RI1_EM1_ID0007
 10
2860.41
 20
1050.06
 30
18.30
  0
VERTEX
  8
BORDER_D0_T128.1_RK1_A0_W0_RI1_EM1_ID0007
 10
2910.41
 20
1050.06
 30
18.30
  0
VERTEX
  8
BORDER_D0_T128.1_RK1_A0_W0_RI1_EM1_ID0007
 10
2910.41
 20
750.06
 30
18.30
  0
VERTEX
  8
BORDER_D0_T128.1_RK1_A0_W0_RI1_EM1_ID0007
 10
2910.41
 20
450.06
 30
18.30
  0
VERTEX
  8
BORDER_D0_T128.1_RK1_A0_W0_RI1_EM1_ID0007
 10
2610.41
 20
450.06
 30
18.30
  0
SEQEND
  8
BORDER_D0_T128.1_RK1_A0_W0_RI1_EM1_ID0007
  0
POLYLINE
  8
BORDER_D0_T128.1_RK1_A0_W0_RI1_EM1_ID0007
 70
1
 66
1
  0
VERTEX
  8
BORDER_D0_T128.1_RK1_A0_W0_RI1_EM1_ID0007
 10
2545.41
 20
515.11
 30
18.30
  0
VERTEX
  8
BORDER_D0_T128.1_RK1_A0_W0_RI1_EM1_ID0007
 10
2245.41
 20
515.11
 30
18.30
  0
VERTEX
  8
BORDER_D0_T128.1_RK1_A0_W0_RI1_EM1_ID0007
 10
2245.41
 20
565.11
 30
18.30
  0
VERTEX
  8
BORDER_D0_T128.1_RK1_A0_W0_RI1_EM1_ID0007
 10
2795.41
 20
565.11
 30
18.30
  0
VERTEX
  8
BORDER_D0_T128.1_RK1_A0_W0_RI1_EM1_ID0007
 10
2795.41
 20
1115.11
 30
18.30
  0
VERTEX
  8
BORDER_D0_T128.1_RK1_A0_W0_RI1_EM1_ID0007
 10
2845.41
 20
1115.11
 30
18.30
  0
VERTEX
  8
BORDER_D0_T128.1_RK1_A0_W0_RI1_EM1_ID0007
 10
2845.41
 20
815.11
 30
18.30
  0
VERTEX
  8
BORDER_D0_T128.1_RK1_A0_W0_RI1_EM1_ID0007
 10
2845.41
 20
515.11
 30
18.30
  0
VERTEX
  8
BORDER_D0_T128.1_RK1_A0_W0_RI1_EM1_ID0007
 10
2545.41
 20
515.11
 30
18.30
  0
SEQEND
  8
BORDER_D0_T128.1_RK1_A0_W0_RI1_EM1_ID0007
  0
POLYLINE
  8
BORDER_D0_T128.1_RK1_A0_W0_RI1_EM1_ID0002
 70
1
 66
1
  0
VERTEX
  8
BORDER_D0_T128.1_RK1_A0_W0_RI1_EM1_ID0002
 10
2480.39
 20
580.12
 30
18.30
  0
VERTEX
  8
BORDER_D0_T128.1_RK1_A0_W0_RI1_EM1_ID0002
 10
2230.39
 20
580.12
 30
18.30
 42
-0.414214
  0
VERTEX
  8
BORDER_D0_T128.1_RK1_A0_W0_RI1_EM1_ID0002
 10
2180.39
 20
630.12
 30
18.30
  0
VERTEX
  8
BORDER_D0_T128.1_RK1_A0_W0_RI1_EM1_ID0002
 10
2180.39
 20
830.12
 30
18.30
 42
-0.414214
  0
VERTEX
  8
BORDER_D0_T128.1_RK1_A0_W0_RI1_EM1_ID0002
 10
2230.39
 20
880.12
 30
18.30
  0
VERTEX
  8
BORDER_D0_T128.1_RK1_A0_W0_RI1_EM1_ID0002
 10
2330.39
 20
880.12
 30
18.30
 42
0.414214
  0
VERTEX
  8
BORDER_D0_T128.1_RK1_A0_W0_RI1_EM1_ID0002
 10
2380.39
 20
930.12
 30
18.30
  0
VERTEX
  8
BORDER_D0_T128.1_RK1_A0_W0_RI1_EM1_ID0002
 10
2380.39
 20
1130.12
 30
18.30
 42
-0.414214
  0
VERTEX
  8
BORDER_D0_T128.1_RK1_A0_W0_RI1_EM1_ID0002
 10
2430.39
 20
1180.12
 30
18.30
  0
VERTEX
  8
BORDER_D0_T128.1_RK1_A0_W0_RI1_EM1_ID0002
 10
2530.39
 20
1180.12
 30
18.30
 42
0.414214
  0
VERTEX
  8
BORDER_D0_T128.1_RK1_A0_W0_RI1_EM1_ID0002
 10
2580.39
 20
1230.12
 30
18.30
  0
VERTEX
  8
BORDER_D0_T128.1_RK1_A0_W0_RI1_EM1_ID0002
 10
2580.39
 20
1430.12
 30
18.30
 42
-0.414214
  0
VERTEX
  8
BORDER_D0_T128.1_RK1_A0_W0_RI1_EM1_ID0002
 10
2630.39
 20
1480.12
 30
18.30
  0
VERTEX
  8
BORDER_D0_T128.1_RK1_A0_W0_RI1_EM1_ID0002
 10
2730.39
 20
1480.12
 30
18.30
 42
-0.414214
  0
VERTEX
  8
BORDER_D0_T128.1_RK1_A0_W0_RI1_EM1_ID0002
 10
2780.39
 20
1430.12
 30
18.30
  0
VERTEX
  8
BORDER_D0_T128.1_RK1_A0_W0_RI1_EM1_ID0002
 10
2780.39
 20
1030.12
 30
18.30
  0
VERTEX
  8
BORDER_D0_T128.1_RK1_A0_W0_RI1_EM1_ID0002
 10
2780.39
 20
630.12
 30
18.30
 42
-0.414214
  0
VERTEX
  8
BORDER_D0_T128.1_RK1_A0_W0_RI1_EM1_ID0002
 10
2730.39
 20
580.12
 30
18.30
  0
VERTEX
  8
BORDER_D0_T128.1_RK1_A0_W0_RI1_EM1_ID0002
 10
2480.39
 20
580.12
 30
18.30
  0
SEQEND
  8
BORDER_D0_T128.1_RK1_A0_W0_RI1_EM1_ID0002
  0
POLYLINE
  8
BORDER_D0_T128.1_RK1_A0_W0_RI1_EM1_ID0003
 70
1
 66
1
  0
VERTEX
  8
BORDER_D0_T128.1_RK1_A0_W0_RI1_EM1_ID0003
 10
2795.39
 20
1363.00
 30
18.30
  0
VERTEX
  8
BORDER_D0_T128.1_RK1_A0_W0_RI1_EM1_ID0003
 10
2795.39
 20
1510.00
 30
18.30
  0
VERTEX
  8
BORDER_D0_T128.1_RK1_A0_W0_RI1_EM1_ID0003
 10
2934.39
 20
1510.00
 30
18.30
  0
VERTEX
  8
BORDER_D0_T128.1_RK1_A0_W0_RI1_EM1_ID0003
 10
2934.39
 20
1216.00
 30
18.30
  0
VERTEX
  8
BORDER_D0_T128.1_RK1_A0_W0_RI1_EM1_ID0003
 10
2864.89
 20
1216.00
 30
18.30
  0
VERTEX
  8
BORDER_D0_T128.1_RK1_A0_W0_RI1_EM1_ID0003
 10
2795.39
 20
1216.00
 30
18.30
  0
VERTEX
  8
BORDER_D0_T128.1_RK1_A0_W0_RI1_EM1_ID0003
 10
2795.39
 20
1363.00
 30
18.30
  0
SEQEND
  8
BORDER_D0_T128.1_RK1_A0_W0_RI1_EM1_ID0003
  0
POLYLINE
  8
BORDER_D0_T128.1_RK1_A0_W0_RI1_EM1_ID0002
 70
1
 66
1
  0
VERTEX
  8
BORDER_D0_T128.1_RK1_A0_W0_RI1_EM1_ID0002
 10
2265.07
 20
1510.00
 30
18.30
  0
VERTEX
  8
BORDER_D0_T128.1_RK1_A0_W0_RI1_EM1_ID0002
 10
2515.07
 20
1510.00
 30
18.30
 42
-0.414214
  0
VERTEX
  8
BORDER_D0_T128.1_RK1_A0_W0_RI1_EM1_ID0002
 10
2565.07
 20
1460.00
 30
18.30
  0
VERTEX
  8
BORDER_D0_T128.1_RK1_A0_W0_RI1_EM1_ID0002
 10
2565.07
 20
1260.00
 30
18.30
 42
-0.414214
  0
VERTEX
  8
BORDER_D0_T128.1_RK1_A0_W0_RI1_EM1_ID0002
 10
2515.07
 20
1210.00
 30
18.30
  0
VERTEX
  8
BORDER_D0_T128.1_RK1_A0_W0_RI1_EM1_ID0002
 10
2415.07
 20
1210.00
 30
18.30
 42
0.414214
  0
VERTEX
  8
BORDER_D0_T128.1_RK1_A0_W0_RI1_EM1_ID0002
 10
2365.07
 20
1160.00
 30
18.30
  0
VERTEX
  8
BORDER_D0_T128.1_RK1_A0_W0_RI1_EM1_ID0002
 10
2365.07
 20
960.00
 30
18.30
 42
-0.414214
  0
VERTEX
  8
BORDER_D0_T128.1_RK1_A0_W0_RI1_EM1_ID0002
 10
2315.07
 20
910.00
 30
18.30
  0
VERTEX
  8
BORDER_D0_T128.1_RK1_A0_W0_RI1_EM1_ID0002
 10
2215.07
 20
910.00
 30
18.30
 42
0.414214
  0
VERTEX
  8
BORDER_D0_T128.1_RK1_A0_W0_RI1_EM1_ID0002
 10
2165.07
 20
860.00
 30
18.30
  0
VERTEX
  8
BORDER_D0_T128.1_RK1_A0_W0_RI1_EM1_ID0002
 10
2165.07
 20
660.00
 30
18.30
 42
-0.414214
  0
VERTEX
  8
BORDER_D0_T128.1_RK1_A0_W0_RI1_EM1_ID0002
 10
2115.07
 20
610.00
 30
18.30
  0
VERTEX
  8
BORDER_D0_T128.1_RK1_A0_W0_RI1_EM1_ID0002
 10
2015.07
 20
610.00
 30
18.30
 42
-0.414214
  0
VERTEX
  8
BORDER_D0_T128.1_RK1_A0_W0_RI1_EM1_ID0002
 10
1965.07
 20
660.00
 30
18.30
  0
VERTEX
  8
BORDER_D0_T128.1_RK1_A0_W0_RI1_EM1_ID0002
 10
1965.07
 20
1060.00
 30
18.30
  0
VERTEX
  8
BORDER_D0_T128.1_RK1_A0_W0_RI1_EM1_ID0002
 10
1965.07
 20
1460.00
 30
18.30
 42
-0.414214
  0
VERTEX
  8
BORDER_D0_T128.1_RK1_A0_W0_RI1_EM1_ID0002
 10
2015.07
 20
1510.00
 30
18.30
  0
VERTEX
  8
BORDER_D0_T128.1_RK1_A0_W0_RI1_EM1_ID0002
 10
2265.07
 20
1510.00
 30
18.30
  0
SEQEND
  8
BORDER_D0_T128.1_RK1_A0_W0_RI1_EM1_ID0002
  0
POLYLINE
  8
BORDER_D0_T128.1_RK1_A0_W0_RI1_EM1_ID0001
 70
1
 66
1
  0
VERTEX
  8
BORDER_D0_T128.1_RK1_A0_W0_RI1_EM1_ID0001
 10
1724.98
 20
1248.00
 30
18.30
  0
VERTEX
  8
BORDER_D0_T128.1_RK1_A0_W0_RI1_EM1_ID0001
 10
1574.98
 20
1248.00
 30
18.30
  0
VERTEX
  8
BORDER_D0_T128.1_RK1_A0_W0_RI1_EM1_ID0001
 10
1574.98
 20
1510.00
 30
18.30
  0
VERTEX
  8
BORDER_D0_T128.1_RK1_A0_W0_RI1_EM1_ID0001
 10
1874.98
 20
1510.00
 30
18.30
  0
VERTEX
  8
BORDER_D0_T128.1_RK1_A0_W0_RI1_EM1_ID0001
 10
1874.98
 20
1379.00
 30
18.30
  0
VERTEX
  8
BORDER_D0_T128.1_RK1_A0_W0_RI1_EM1_ID0001
 10
1874.98
 20
1248.00
 30
18.30
  0
VERTEX
  8
BORDER_D0_T128.1_RK1_A0_W0_RI1_EM1_ID0001
 10
1724.98
 20
1248.00
 30
18.30
  0
SEQEND
  8
BORDER_D0_T128.1_RK1_A0_W0_RI1_EM1_ID0001
  0
POLYLINE
  8
BORDER_D0_T128.1_RK1_A0_W0_RI1_EM1_ID0004
 70
1
 66
1
  0
VERTEX
  8
BORDER_D0_T128.1_RK1_A0_W0_RI1_EM1_ID0004
 10
1559.98
 20
1210.00
 30
18.30
  0
VERTEX
  8
BORDER_D0_T128.1_RK1_A0_W0_RI1_EM1_ID0004
 10
1559.98
 20
910.00
 30
18.30
  0
VERTEX
  8
BORDER_D0_T128.1_RK1_A0_W0_RI1_EM1_ID0004
 10
1534.98
 20
910.00
 30
18.30
  0
VERTEX
  8
BORDER_D0_T128.1_RK1_A0_W0_RI1_EM1_ID0004
 10
1534.98
 20
510.00
 30
18.30
  0
VERTEX
  8
BORDER_D0_T128.1_RK1_A0_W0_RI1_EM1_ID0004
 10
1334.98
 20
510.00
 30
18.30
  0
VERTEX
  8
BORDER_D0_T128.1_RK1_A0_W0_RI1_EM1_ID0004
 10
1109.98
 20
510.00
 30
18.30
 42
-0.201478
  0
VERTEX
  8
BORDER_D0_T128.1_RK1_A0_W0_RI1_EM1_ID0004
 10
1334.98
 20
1110.00
 30
18.30
 42
0.194188
  0
VERTEX
  8
BORDER_D0_T128.1_RK1_A0_W0_RI1_EM1_ID0004
 10
1434.98
 20
1510.00
 30
18.30
  0
VERTEX
  8
BORDER_D0_T128.1_RK1_A0_W0_RI1_EM1_ID0004
 10
1559.98
 20
1510.00
 30
18.30
  0
VERTEX
  8
BORDER_D0_T128.1_RK1_A0_W0_RI1_EM1_ID0004
 10
1559.98
 20
1210.00
 30
18.30
  0
SEQEND
  8
BORDER_D0_T128.1_RK1_A0_W0_RI1_EM1_ID0004
  0
ENDSEC
  0
EOF
