  0
SECTION
  2
HEADER
  9
$LTSCALE
 40
30.00
  9
$LIMMIN
 10
-30.50
 20
-45.75
  9
$LIMMAX
 10
3080.50
 20
1631.75
  9
$EXTMIN
 10
-30.50
 20
-45.75
  9
$EXTMAX
 10
3080.50
 20
1631.75
  9
$TEXTSTYLE
  7
txt
  9
$CLAYER
  8
1
  9
$CECOLOR
 62
7
  9
$CELTYPE
  6
CONTINUOUS
  9
$OSMODE
 70
0
  0
ENDSEC
  0
SECTION
  2
TABLES
  0
TABLE
  2
STYLE
 70
1
  0
STYLE
  2
STANDARD
 70
0
 40
1.00
 41
1.00
 50
0.00
 71
0
 42
0.20
  3
txt
  4

  0
ENDTAB
  0
TABLE
  2
LTYPE
 70
1
  0
LTYPE
  2
HIDDEN
 70
64
  3
_ _ _ _ _ _ _ _ _ _ _ _ _ _ _ _ _ _ _ _ _ _
 72
65
 73
2
 40
0.50
 49
0.25
 49
-0.25
  0
ENDTAB
  0
ENDSEC
  0
SECTION
  2
ENTITIES
  0
LINE
  6
CONTINUOUS
  8
FRAME_Z18
 10
0.00
 20
0.00
 30
0.00
 11
3050.00
 21
0.00
 31
0.00
  0
LINE
  6
CONTINUOUS
  8
FRAME_Z18
 10
0.00
 20
1525.00
 30
0.00
 11
3050.00
 21
1525.00
 31
0.00
  0
LINE
  6
CONTINUOUS
  8
FRAME_Z18
 10
0.00
 20
0.00
 30
0.00
 11
0.00
 21
1525.00
 31
0.00
  0
LINE
  6
CONTINUOUS
  8
FRAME_Z18
 10
3050.00
 20
0.00
 30
0.00
 11
3050.00
 21
1525.00
 31
0.00
  0
CIRCLE
  8
VBORE_Z6_D8
 10
987.93
 20
525.78
 30
6.00
 40
4.00
  0
CIRCLE
  8
VBORE_Z6_D8
 10
987.88
 20
510.19
 30
6.00
 40
4.00
  0
CIRCLE
  8
VBORE_Z6_D8
 10
986.58
 20
276.58
 30
6.00
 40
4.00
  0
CIRCLE
  8
VBORE_Z6_D8
 10
986.53
 20
260.99
 30
6.00
 40
4.00
  0
CIRCLE
  8
VBORE_Z6_D5
 10
208.09
 20
311.67
 30
6.00
 40
2.50
  0
CIRCLE
  8
VBORE_Z6_D5
 10
208.09
 20
289.67
 30
6.00
 40
2.50
  0
CIRCLE
  8
VBORE_Z6_D5
 10
208.09
 20
266.67
 30
6.00
 40
2.50
  0
CIRCLE
  8
VBORE_Z6_D5
 10
208.09
 20
247.67
 30
6.00
 40
2.50
  0
CIRCLE
  8
ROUT_Z18_D5_T133_A2_W2
 10
90.83
 20
129.08
 30
18.00
 40
44.63
  0
CIRCLE
  8
ROUT_Z18_D5_T133_A2_W2
 10
647.96
 20
124.20
 30
18.00
 40
44.63
  0
CIRCLE
  8
VBORE_Z6_D10
 10
1009.79
 20
181.67
 30
6.00
 40
5.00
  0
CIRCLE
  8
VBORE_Z6_D10
 10
1009.79
 20
131.67
 30
6.00
 40
5.00
  0
CIRCLE
  8
VBORE_Z6_D10
 10
754.79
 20
181.67
 30
6.00
 40
5.00
  0
CIRCLE
  8
VBORE_Z6_D10
 10
754.79
 20
131.67
 30
6.00
 40
5.00
  0
CIRCLE
  8
VBORE_Z6_D5
 10
971.63
 20
157.17
 30
6.00
 40
2.50
  0
CIRCLE
  8
VBORE_Z6_D5
 10
790.49
 20
157.17
 30
6.00
 40
2.50
  0
POLYLINE
  8
ROUT_Z8_D8_T135_A2_W2
 70
0
 66
1
 40
8.00
 41
8.00
  0
VERTEX
  8
ROUT_Z8_D8_T135_A2_W2
 10
971.63
 20
180.37
 30
8.00
  0
VERTEX
  8
ROUT_Z8_D8_T135_A2_W2
 10
790.49
 20
180.37
 30
8.00
  0
SEQEND
  8
ROUT_Z8_D8_T135_A2_W2
  0
POLYLINE
  8
ROUT_Z8_D8_T135_A2_W2
 70
0
 66
1
 40
8.00
 41
8.00
  0
VERTEX
  8
ROUT_Z8_D8_T135_A2_W2
 10
971.63
 20
133.97
 30
8.00
  0
VERTEX
  8
ROUT_Z8_D8_T135_A2_W2
 10
790.49
 20
133.97
 30
8.00
  0
SEQEND
  8
ROUT_Z8_D8_T135_A2_W2
  0
CIRCLE
  8
VBORE_Z6_D8
 10
30.16
 20
258.21
 30
6.00
 40
4.00
  0
CIRCLE
  8
VBORE_Z6_D8
 10
30.21
 20
273.80
 30
6.00
 40
4.00
  0
CIRCLE
  8
VBORE_Z6_D8
 10
31.51
 20
507.41
 30
6.00
 40
4.00
  0
CIRCLE
  8
VBORE_Z6_D8
 10
31.56
 20
523.00
 30
6.00
 40
4.00
  0
CIRCLE
  8
VBORE_Z6_D5
 10
810.00
 20
472.32
 30
6.00
 40
2.50
  0
CIRCLE
  8
VBORE_Z6_D5
 10
810.00
 20
494.32
 30
6.00
 40
2.50
  0
CIRCLE
  8
VBORE_Z6_D5
 10
810.00
 20
517.32
 30
6.00
 40
2.50
  0
CIRCLE
  8
VBORE_Z6_D5
 10
810.00
 20
536.32
 30
6.00
 40
2.50
  0
CIRCLE
  8
VBORE_Z10_D8
 10
436.88
 20
572.32
 30
10.00
 40
4.00
  0
CIRCLE
  8
VBORE_Z10_D8
 10
485.02
 20
572.32
 30
10.00
 40
4.00
  0
CIRCLE
  8
VBORE_Z10_D8
 10
1002.30
 20
572.32
 30
10.00
 40
4.00
  0
CIRCLE
  8
VBORE_Z10_D8
 10
954.15
 20
572.32
 30
10.00
 40
4.00
  0
POLYLINE
  8
CONTOUR_D0_T135_A2_W2
 70
1
 66
1
  0
VERTEX
  8
CONTOUR_D0_T135_A2_W2
 10
213.72
 20
599.75
 30
6.00
  0
VERTEX
  8
CONTOUR_D0_T135_A2_W2
 10
33.72
 20
599.75
 30
6.00
  0
VERTEX
  8
CONTOUR_D0_T135_A2_W2
 10
33.72
 20
779.75
 30
6.00
  0
VERTEX
  8
CONTOUR_D0_T135_A2_W2
 10
33.72
 20
982.25
 30
6.00
 42
-0.201478
  0
VERTEX
  8
CONTOUR_D0_T135_A2_W2
 10
573.72
 20
779.75
 30
6.00
 42
0.202432
  0
VERTEX
  8
CONTOUR_D0_T135_A2_W2
 10
982.35
 20
652.30
 30
6.00
  0
VERTEX
  8
CONTOUR_D0_T135_A2_W2
 10
982.35
 20
599.75
 30
6.00
  0
VERTEX
  8
CONTOUR_D0_T135_A2_W2
 10
710.14
 20
599.75
 30
6.00
  0
VERTEX
  8
CONTOUR_D0_T135_A2_W2
 10
393.72
 20
599.75
 30
6.00
  0
VERTEX
  8
CONTOUR_D0_T135_A2_W2
 10
213.72
 20
599.75
 30
6.00
  0
SEQEND
  8
CONTOUR_D0_T135_A2_W2
  0
CIRCLE
  8
VBORE_Z6_D8
 10
1991.05
 20
525.78
 30
6.00
 40
4.00
  0
CIRCLE
  8
VBORE_Z6_D8
 10
1991.00
 20
510.19
 30
6.00
 40
4.00
  0
CIRCLE
  8
VBORE_Z6_D8
 10
1989.70
 20
276.58
 30
6.00
 40
4.00
  0
CIRCLE
  8
VBORE_Z6_D8
 10
1989.65
 20
260.99
 30
6.00
 40
4.00
  0
CIRCLE
  8
VBORE_Z6_D5
 10
1211.21
 20
311.67
 30
6.00
 40
2.50
  0
CIRCLE
  8
VBORE_Z6_D5
 10
1211.21
 20
289.67
 30
6.00
 40
2.50
  0
CIRCLE
  8
VBORE_Z6_D5
 10
1211.21
 20
266.67
 30
6.00
 40
2.50
  0
CIRCLE
  8
VBORE_Z6_D5
 10
1211.21
 20
247.67
 30
6.00
 40
2.50
  0
CIRCLE
  8
VBORE_Z6_D8
 10
1033.25
 20
258.20
 30
6.00
 40
4.00
  0
CIRCLE
  8
VBORE_Z6_D8
 10
1033.30
 20
273.79
 30
6.00
 40
4.00
  0
CIRCLE
  8
VBORE_Z6_D8
 10
1034.60
 20
507.40
 30
6.00
 40
4.00
  0
CIRCLE
  8
VBORE_Z6_D8
 10
1034.65
 20
522.99
 30
6.00
 40
4.00
  0
CIRCLE
  8
VBORE_Z6_D5
 10
1813.09
 20
472.31
 30
6.00
 40
2.50
  0
CIRCLE
  8
VBORE_Z6_D5
 10
1813.09
 20
494.31
 30
6.00
 40
2.50
  0
CIRCLE
  8
VBORE_Z6_D5
 10
1813.09
 20
517.31
 30
6.00
 40
2.50
  0
CIRCLE
  8
VBORE_Z6_D5
 10
1813.09
 20
536.31
 30
6.00
 40
2.50
  0
CIRCLE
  8
VBORE_Z10_D8
 10
2239.37
 20
1088.12
 30
10.00
 40
4.00
  0
CIRCLE
  8
VBORE_Z10_D8
 10
2239.37
 20
1039.98
 30
10.00
 40
4.00
  0
CIRCLE
  8
VBORE_Z10_D8
 10
2239.37
 20
522.70
 30
10.00
 40
4.00
  0
CIRCLE
  8
VBORE_Z10_D8
 10
2239.37
 20
570.85
 30
10.00
 40
4.00
  0
POLYLINE
  8
CONTOUR_D0_T135_A2_W2
 70
1
 66
1
  0
VERTEX
  8
CONTOUR_D0_T135_A2_W2
 10
2266.80
 20
1311.28
 30
6.00
  0
VERTEX
  8
CONTOUR_D0_T135_A2_W2
 10
2266.80
 20
1491.28
 30
6.00
  0
VERTEX
  8
CONTOUR_D0_T135_A2_W2
 10
2446.80
 20
1491.28
 30
6.00
  0
VERTEX
  8
CONTOUR_D0_T135_A2_W2
 10
2649.30
 20
1491.28
 30
6.00
 42
-0.201478
  0
VERTEX
  8
CONTOUR_D0_T135_A2_W2
 10
2446.80
 20
951.28
 30
6.00
 42
0.202432
  0
VERTEX
  8
CONTOUR_D0_T135_A2_W2
 10
2319.35
 20
542.65
 30
6.00
  0
VERTEX
  8
CONTOUR_D0_T135_A2_W2
 10
2266.80
 20
542.65
 30
6.00
  0
VERTEX
  8
CONTOUR_D0_T135_A2_W2
 10
2266.80
 20
814.86
 30
6.00
  0
VERTEX
  8
CONTOUR_D0_T135_A2_W2
 10
2266.80
 20
1131.28
 30
6.00
  0
VERTEX
  8
CONTOUR_D0_T135_A2_W2
 10
2266.80
 20
1311.28
 30
6.00
  0
SEQEND
  8
CONTOUR_D0_T135_A2_W2
  0
CIRCLE
  8
VBORE_Z6_D10
 10
2495.37
 20
234.78
 30
6.00
 40
5.00
  0
CIRCLE
  8
VBORE_Z6_D10
 10
2495.37
 20
184.78
 30
6.00
 40
5.00
  0
CIRCLE
  8
VBORE_Z6_D10
 10
2240.37
 20
234.78
 30
6.00
 40
5.00
  0
CIRCLE
  8
VBORE_Z6_D10
 10
2240.37
 20
184.78
 30
6.00
 40
5.00
  0
CIRCLE
  8
VBORE_Z6_D5
 10
2457.21
 20
210.28
 30
6.00
 40
2.50
  0
CIRCLE
  8
VBORE_Z6_D5
 10
2276.07
 20
210.28
 30
6.00
 40
2.50
  0
POLYLINE
  8
ROUT_Z8_D8_T135_A2_W2
 70
0
 66
1
 40
8.00
 41
8.00
  0
VERTEX
  8
ROUT_Z8_D8_T135_A2_W2
 10
2457.21
 20
233.48
 30
8.00
  0
VERTEX
  8
ROUT_Z8_D8_T135_A2_W2
 10
2276.07
 20
233.48
 30
8.00
  0
SEQEND
  8
ROUT_Z8_D8_T135_A2_W2
  0
POLYLINE
  8
ROUT_Z8_D8_T135_A2_W2
 70
0
 66
1
 40
8.00
 41
8.00
  0
VERTEX
  8
ROUT_Z8_D8_T135_A2_W2
 10
2457.21
 20
187.08
 30
8.00
  0
VERTEX
  8
ROUT_Z8_D8_T135_A2_W2
 10
2276.07
 20
187.08
 30
8.00
  0
SEQEND
  8
ROUT_Z8_D8_T135_A2_W2
  0
CIRCLE
  8
ROUT_Z18_D5_T133_A2_W2
 10
2300.20
 20
397.25
 30
18.00
 40
44.63
  0
CIRCLE
  8
VBORE_Z6_D8
 10
2705.90
 20
1494.84
 30
6.00
 40
4.00
  0
CIRCLE
  8
VBORE_Z6_D8
 10
2721.49
 20
1494.79
 30
6.00
 40
4.00
  0
CIRCLE
  8
VBORE_Z6_D8
 10
2955.10
 20
1493.49
 30
6.00
 40
4.00
  0
CIRCLE
  8
VBORE_Z6_D8
 10
2970.69
 20
1493.44
 30
6.00
 40
4.00
  0
CIRCLE
  8
VBORE_Z6_D5
 10
2920.01
 20
715.00
 30
6.00
 40
2.50
  0
CIRCLE
  8
VBORE_Z6_D5
 10
2942.01
 20
715.00
 30
6.00
 40
2.50
  0
CIRCLE
  8
VBORE_Z6_D5
 10
2965.01
 20
715.00
 30
6.00
 40
2.50
  0
CIRCLE
  8
VBORE_Z6_D5
 10
2984.01
 20
715.00
 30
6.00
 40
2.50
  0
CIRCLE
  8
ROUT_Z18_D5_T133_A2_W2
 10
580.64
 20
1445.00
 30
18.00
 40
35.00
  0
CIRCLE
  8
ROUT_Z18_D5_T133_A2_W2
 10
1400.64
 20
1445.00
 30
18.00
 40
35.00
  0
CIRCLE
  8
ROUT_Z6_D10_T160_A2_W2
 10
580.64
 20
1445.00
 30
6.00
 40
40.00
  0
CIRCLE
  8
ROUT_Z6_D10_T160_A2_W2
 10
1400.64
 20
1445.00
 30
6.00
 40
40.00
  0
CIRCLE
  8
ROUT_Z18_D5_T133_A2_W2
 10
450.64
 20
1229.78
 30
18.00
 40
35.00
  0
CIRCLE
  8
ROUT_Z18_D5_T133_A2_W2
 10
1270.64
 20
1229.78
 30
18.00
 40
35.00
  0
CIRCLE
  8
ROUT_Z6_D10_T160_A2_W2
 10
450.64
 20
1229.78
 30
6.00
 40
40.00
  0
CIRCLE
  8
ROUT_Z6_D10_T160_A2_W2
 10
1270.64
 20
1229.78
 30
6.00
 40
40.00
  0
CIRCLE
  8
ROUT_Z18_D5_T133_A2_W2
 10
439.79
 20
1407.53
 30
18.00
 40
44.63
  0
POLYLINE
  8
BORDER_D0_T128_RK1_A0_W0_RI1_EM1_ID0005
 70
1
 66
1
  0
VERTEX
  8
BORDER_D0_T128_RK1_A0_W0_RI1_EM1_ID0005
 10
428.09
 20
316.67
 30
16.00
  0
VERTEX
  8
BORDER_D0_T128_RK1_A0_W0_RI1_EM1_ID0005
 10
653.09
 20
316.67
 30
16.00
  0
VERTEX
  8
BORDER_D0_T128_RK1_A0_W0_RI1_EM1_ID0005
 10
653.09
 20
341.67
 30
16.00
 42
0.382819
  0
VERTEX
  8
BORDER_D0_T128_RK1_A0_W0_RI1_EM1_ID0005
 10
853.09
 20
541.67
 30
16.00
  0
VERTEX
  8
BORDER_D0_T128_RK1_A0_W0_RI1_EM1_ID0005
 10
1003.09
 20
541.67
 30
16.00
  0
VERTEX
  8
BORDER_D0_T128_RK1_A0_W0_RI1_EM1_ID0005
 10
1003.09
 20
241.67
 30
16.00
  0
VERTEX
  8
BORDER_D0_T128_RK1_A0_W0_RI1_EM1_ID0005
 10
603.09
 20
241.67
 30
16.00
  0
VERTEX
  8
BORDER_D0_T128_RK1_A0_W0_RI1_EM1_ID0005
 10
203.09
 20
241.67
 30
16.00
  0
VERTEX
  8
BORDER_D0_T128_RK1_A0_W0_RI1_EM1_ID0005
 10
203.09
 20
316.67
 30
16.00
  0
VERTEX
  8
BORDER_D0_T128_RK1_A0_W0_RI1_EM1_ID0005
 10
428.09
 20
316.67
 30
16.00
  0
SEQEND
  8
BORDER_D0_T128_RK1_A0_W0_RI1_EM1_ID0005
  0
POLYLINE
  8
BORDER_D0_T128_RK1_A0_W0_RI1_EM1_ID0012
 70
1
 66
1
  0
VERTEX
  8
BORDER_D0_T128_RK1_A0_W0_RI1_EM1_ID0012
 10
290.00
 20
151.61
 30
16.00
  0
VERTEX
  8
BORDER_D0_T128_RK1_A0_W0_RI1_EM1_ID0012
 10
445.00
 20
86.61
 30
16.00
 42
-0.222672
  0
VERTEX
  8
BORDER_D0_T128_RK1_A0_W0_RI1_EM1_ID0012
 10
465.00
 20
66.61
 30
16.00
  0
VERTEX
  8
BORDER_D0_T128_RK1_A0_W0_RI1_EM1_ID0012
 10
465.00
 20
46.61
 30
16.00
 42
-0.363997
  0
VERTEX
  8
BORDER_D0_T128_RK1_A0_W0_RI1_EM1_ID0012
 10
445.00
 20
26.61
 30
16.00
  0
VERTEX
  8
BORDER_D0_T128_RK1_A0_W0_RI1_EM1_ID0012
 10
235.00
 20
26.61
 30
16.00
  0
VERTEX
  8
BORDER_D0_T128_RK1_A0_W0_RI1_EM1_ID0012
 10
35.00
 20
26.61
 30
16.00
 42
-0.363997
  0
VERTEX
  8
BORDER_D0_T128_RK1_A0_W0_RI1_EM1_ID0012
 10
15.00
 20
46.61
 30
16.00
  0
VERTEX
  8
BORDER_D0_T128_RK1_A0_W0_RI1_EM1_ID0012
 10
15.00
 20
206.61
 30
16.00
 42
-0.363998
  0
VERTEX
  8
BORDER_D0_T128_RK1_A0_W0_RI1_EM1_ID0012
 10
35.00
 20
226.61
 30
16.00
  0
VERTEX
  8
BORDER_D0_T128_RK1_A0_W0_RI1_EM1_ID0012
 10
85.00
 20
226.61
 30
16.00
 42
-0.132946
  0
VERTEX
  8
BORDER_D0_T128_RK1_A0_W0_RI1_EM1_ID0012
 10
135.00
 20
216.61
 30
16.00
  0
VERTEX
  8
BORDER_D0_T128_RK1_A0_W0_RI1_EM1_ID0012
 10
290.00
 20
151.61
 30
16.00
  0
SEQEND
  8
BORDER_D0_T128_RK1_A0_W0_RI1_EM1_ID0012
  0
POLYLINE
  8
BORDER_D0_T128_RK1_A0_W0_RI1_EM1_ID0012
 70
1
 66
1
  0
VERTEX
  8
BORDER_D0_T128_RK1_A0_W0_RI1_EM1_ID0012
 10
448.79
 20
101.67
 30
16.00
  0
VERTEX
  8
BORDER_D0_T128_RK1_A0_W0_RI1_EM1_ID0012
 10
293.79
 20
166.67
 30
16.00
 42
-0.222672
  0
VERTEX
  8
BORDER_D0_T128_RK1_A0_W0_RI1_EM1_ID0012
 10
273.79
 20
186.67
 30
16.00
  0
VERTEX
  8
BORDER_D0_T128_RK1_A0_W0_RI1_EM1_ID0012
 10
273.79
 20
206.67
 30
16.00
 42
-0.363997
  0
VERTEX
  8
BORDER_D0_T128_RK1_A0_W0_RI1_EM1_ID0012
 10
293.79
 20
226.67
 30
16.00
  0
VERTEX
  8
BORDER_D0_T128_RK1_A0_W0_RI1_EM1_ID0012
 10
503.79
 20
226.67
 30
16.00
  0
VERTEX
  8
BORDER_D0_T128_RK1_A0_W0_RI1_EM1_ID0012
 10
703.79
 20
226.67
 30
16.00
 42
-0.363997
  0
VERTEX
  8
BORDER_D0_T128_RK1_A0_W0_RI1_EM1_ID0012
 10
723.79
 20
206.67
 30
16.00
  0
VERTEX
  8
BORDER_D0_T128_RK1_A0_W0_RI1_EM1_ID0012
 10
723.79
 20
46.67
 30
16.00
 42
-0.363997
  0
VERTEX
  8
BORDER_D0_T128_RK1_A0_W0_RI1_EM1_ID0012
 10
703.79
 20
26.67
 30
16.00
  0
VERTEX
  8
BORDER_D0_T128_RK1_A0_W0_RI1_EM1_ID0012
 10
653.79
 20
26.67
 30
16.00
 42
-0.132946
  0
VERTEX
  8
BORDER_D0_T128_RK1_A0_W0_RI1_EM1_ID0012
 10
603.79
 20
36.67
 30
16.00
  0
VERTEX
  8
BORDER_D0_T128_RK1_A0_W0_RI1_EM1_ID0012
 10
448.79
 20
101.67
 30
16.00
  0
SEQEND
  8
BORDER_D0_T128_RK1_A0_W0_RI1_EM1_ID0012
  0
POLYLINE
  8
BORDER_D0_T128_RK1_A0_W0_RI1_EM1_ID0003
 70
1
 66
1
  0
VERTEX
  8
BORDER_D0_T128_RK1_A0_W0_RI1_EM1_ID0003
 10
885.79
 20
226.67
 30
16.00
  0
VERTEX
  8
BORDER_D0_T128_RK1_A0_W0_RI1_EM1_ID0003
 10
1032.79
 20
226.67
 30
16.00
  0
VERTEX
  8
BORDER_D0_T128_RK1_A0_W0_RI1_EM1_ID0003
 10
1032.79
 20
87.67
 30
16.00
  0
VERTEX
  8
BORDER_D0_T128_RK1_A0_W0_RI1_EM1_ID0003
 10
738.79
 20
87.67
 30
16.00
  0
VERTEX
  8
BORDER_D0_T128_RK1_A0_W0_RI1_EM1_ID0003
 10
738.79
 20
157.17
 30
16.00
  0
VERTEX
  8
BORDER_D0_T128_RK1_A0_W0_RI1_EM1_ID0003
 10
738.79
 20
226.67
 30
16.00
  0
VERTEX
  8
BORDER_D0_T128_RK1_A0_W0_RI1_EM1_ID0003
 10
885.79
 20
226.67
 30
16.00
  0
SEQEND
  8
BORDER_D0_T128_RK1_A0_W0_RI1_EM1_ID0003
  0
POLYLINE
  8
BORDER_D0_T128_RK1_A0_W0_RI1_EM1_ID0005
 70
1
 66
1
  0
VERTEX
  8
BORDER_D0_T128_RK1_A0_W0_RI1_EM1_ID0005
 10
590.00
 20
467.32
 30
16.00
  0
VERTEX
  8
BORDER_D0_T128_RK1_A0_W0_RI1_EM1_ID0005
 10
365.00
 20
467.32
 30
16.00
  0
VERTEX
  8
BORDER_D0_T128_RK1_A0_W0_RI1_EM1_ID0005
 10
365.00
 20
442.32
 30
16.00
 42
0.382819
  0
VERTEX
  8
BORDER_D0_T128_RK1_A0_W0_RI1_EM1_ID0005
 10
165.00
 20
242.32
 30
16.00
  0
VERTEX
  8
BORDER_D0_T128_RK1_A0_W0_RI1_EM1_ID0005
 10
15.00
 20
242.32
 30
16.00
  0
VERTEX
  8
BORDER_D0_T128_RK1_A0_W0_RI1_EM1_ID0005
 10
15.00
 20
542.32
 30
16.00
  0
VERTEX
  8
BORDER_D0_T128_RK1_A0_W0_RI1_EM1_ID0005
 10
415.00
 20
542.32
 30
16.00
  0
VERTEX
  8
BORDER_D0_T128_RK1_A0_W0_RI1_EM1_ID0005
 10
815.00
 20
542.32
 30
16.00
  0
VERTEX
  8
BORDER_D0_T128_RK1_A0_W0_RI1_EM1_ID0005
 10
815.00
 20
467.32
 30
16.00
  0
VERTEX
  8
BORDER_D0_T128_RK1_A0_W0_RI1_EM1_ID0005
 10
590.00
 20
467.32
 30
16.00
  0
SEQEND
  8
BORDER_D0_T128_RK1_A0_W0_RI1_EM1_ID0005
  0
POLYLINE
  8
BORDER_D0_T128_RK1_A0_W0_RI1_EM1_ID0004
 70
1
 66
1
  0
VERTEX
  8
BORDER_D0_T128_RK1_A0_W0_RI1_EM1_ID0004
 10
715.00
 20
557.32
 30
16.00
  0
VERTEX
  8
BORDER_D0_T128_RK1_A0_W0_RI1_EM1_ID0004
 10
415.00
 20
557.32
 30
16.00
  0
VERTEX
  8
BORDER_D0_T128_RK1_A0_W0_RI1_EM1_ID0004
 10
415.00
 20
582.32
 30
16.00
  0
VERTEX
  8
BORDER_D0_T128_RK1_A0_W0_RI1_EM1_ID0004
 10
15.00
 20
582.32
 30
16.00
  0
VERTEX
  8
BORDER_D0_T128_RK1_A0_W0_RI1_EM1_ID0004
 10
15.00
 20
782.32
 30
16.00
  0
VERTEX
  8
BORDER_D0_T128_RK1_A0_W0_RI1_EM1_ID0004
 10
15.00
 20
1007.32
 30
16.00
 42
-0.201478
  0
VERTEX
  8
BORDER_D0_T128_RK1_A0_W0_RI1_EM1_ID0004
 10
615.00
 20
782.32
 30
16.00
 42
0.194188
  0
VERTEX
  8
BORDER_D0_T128_RK1_A0_W0_RI1_EM1_ID0004
 10
1015.00
 20
682.32
 30
16.00
  0
VERTEX
  8
BORDER_D0_T128_RK1_A0_W0_RI1_EM1_ID0004
 10
1015.00
 20
557.32
 30
16.00
  0
VERTEX
  8
BORDER_D0_T128_RK1_A0_W0_RI1_EM1_ID0004
 10
715.00
 20
557.32
 30
16.00
  0
SEQEND
  8
BORDER_D0_T128_RK1_A0_W0_RI1_EM1_ID0004
  0
POLYLINE
  8
BORDER_D0_T128_RK1_A0_W0_RI1_EM1_ID0005
 70
1
 66
1
  0
VERTEX
  8
BORDER_D0_T128_RK1_A0_W0_RI1_EM1_ID0005
 10
1431.21
 20
316.67
 30
16.00
  0
VERTEX
  8
BORDER_D0_T128_RK1_A0_W0_RI1_EM1_ID0005
 10
1656.21
 20
316.67
 30
16.00
  0
VERTEX
  8
BORDER_D0_T128_RK1_A0_W0_RI1_EM1_ID0005
 10
1656.21
 20
341.67
 30
16.00
 42
0.382819
  0
VERTEX
  8
BORDER_D0_T128_RK1_A0_W0_RI1_EM1_ID0005
 10
1856.21
 20
541.67
 30
16.00
  0
VERTEX
  8
BORDER_D0_T128_RK1_A0_W0_RI1_EM1_ID0005
 10
2006.21
 20
541.67
 30
16.00
  0
VERTEX
  8
BORDER_D0_T128_RK1_A0_W0_RI1_EM1_ID0005
 10
2006.21
 20
241.67
 30
16.00
  0
VERTEX
  8
BORDER_D0_T128_RK1_A0_W0_RI1_EM1_ID0005
 10
1606.21
 20
241.67
 30
16.00
  0
VERTEX
  8
BORDER_D0_T128_RK1_A0_W0_RI1_EM1_ID0005
 10
1206.21
 20
241.67
 30
16.00
  0
VERTEX
  8
BORDER_D0_T128_RK1_A0_W0_RI1_EM1_ID0005
 10
1206.21
 20
316.67
 30
16.00
  0
VERTEX
  8
BORDER_D0_T128_RK1_A0_W0_RI1_EM1_ID0005
 10
1431.21
 20
316.67
 30
16.00
  0
SEQEND
  8
BORDER_D0_T128_RK1_A0_W0_RI1_EM1_ID0005
  0
POLYLINE
  8
BORDER_D0_T128_RK1_A0_W0_RI1_EM1_ID0005
 70
1
 66
1
  0
VERTEX
  8
BORDER_D0_T128_RK1_A0_W0_RI1_EM1_ID0005
 10
1593.09
 20
467.31
 30
16.00
  0
VERTEX
  8
BORDER_D0_T128_RK1_A0_W0_RI1_EM1_ID0005
 10
1368.09
 20
467.31
 30
16.00
  0
VERTEX
  8
BORDER_D0_T128_RK1_A0_W0_RI1_EM1_ID0005
 10
1368.09
 20
442.31
 30
16.00
 42
0.382819
  0
VERTEX
  8
BORDER_D0_T128_RK1_A0_W0_RI1_EM1_ID0005
 10
1168.09
 20
242.31
 30
16.00
  0
VERTEX
  8
BORDER_D0_T128_RK1_A0_W0_RI1_EM1_ID0005
 10
1018.09
 20
242.31
 30
16.00
  0
VERTEX
  8
BORDER_D0_T128_RK1_A0_W0_RI1_EM1_ID0005
 10
1018.09
 20
542.31
 30
16.00
  0
VERTEX
  8
BORDER_D0_T128_RK1_A0_W0_RI1_EM1_ID0005
 10
1418.09
 20
542.31
 30
16.00
  0
VERTEX
  8
BORDER_D0_T128_RK1_A0_W0_RI1_EM1_ID0005
 10
1818.09
 20
542.31
 30
16.00
  0
VERTEX
  8
BORDER_D0_T128_RK1_A0_W0_RI1_EM1_ID0005
 10
1818.09
 20
467.31
 30
16.00
  0
VERTEX
  8
BORDER_D0_T128_RK1_A0_W0_RI1_EM1_ID0005
 10
1593.09
 20
467.31
 30
16.00
  0
SEQEND
  8
BORDER_D0_T128_RK1_A0_W0_RI1_EM1_ID0005
  0
POLYLINE
  8
BORDER_D0_T128_RK1_A0_W0_RI1_EM1_ID0008
 70
1
 66
1
  0
VERTEX
  8
BORDER_D0_T128_RK1_A0_W0_RI1_EM1_ID0008
 10
1556.31
 20
610.00
 30
16.00
  0
VERTEX
  8
BORDER_D0_T128_RK1_A0_W0_RI1_EM1_ID0008
 10
1230.05
 20
610.00
 30
16.00
  0
VERTEX
  8
BORDER_D0_T128_RK1_A0_W0_RI1_EM1_ID0008
 10
1330.05
 20
710.00
 30
16.00
  0
VERTEX
  8
BORDER_D0_T128_RK1_A0_W0_RI1_EM1_ID0008
 10
1841.14
 20
710.00
 30
16.00
  0
VERTEX
  8
BORDER_D0_T128_RK1_A0_W0_RI1_EM1_ID0008
 10
2030.05
 20
898.91
 30
16.00
  0
VERTEX
  8
BORDER_D0_T128_RK1_A0_W0_RI1_EM1_ID0008
 10
2030.05
 20
1410.00
 30
16.00
  0
VERTEX
  8
BORDER_D0_T128_RK1_A0_W0_RI1_EM1_ID0008
 10
2130.05
 20
1510.00
 30
16.00
  0
VERTEX
  8
BORDER_D0_T128_RK1_A0_W0_RI1_EM1_ID0008
 10
2130.05
 20
1150.35
 30
16.00
  0
VERTEX
  8
BORDER_D0_T128_RK1_A0_W0_RI1_EM1_ID0008
 10
2130.05
 20
857.49
 30
16.00
  0
VERTEX
  8
BORDER_D0_T128_RK1_A0_W0_RI1_EM1_ID0008
 10
1882.56
 20
610.00
 30
16.00
  0
VERTEX
  8
BORDER_D0_T128_RK1_A0_W0_RI1_EM1_ID0008
 10
1556.31
 20
610.00
 30
16.00
  0
SEQEND
  8
BORDER_D0_T128_RK1_A0_W0_RI1_EM1_ID0008
  0
POLYLINE
  8
BORDER_D0_T128_RK1_A0_W0_RI1_EM1_ID0004
 70
1
 66
1
  0
VERTEX
  8
BORDER_D0_T128_RK1_A0_W0_RI1_EM1_ID0004
 10
2224.37
 20
810.00
 30
16.00
  0
VERTEX
  8
BORDER_D0_T128_RK1_A0_W0_RI1_EM1_ID0004
 10
2224.37
 20
1110.00
 30
16.00
  0
VERTEX
  8
BORDER_D0_T128_RK1_A0_W0_RI1_EM1_ID0004
 10
2249.37
 20
1110.00
 30
16.00
  0
VERTEX
  8
BORDER_D0_T128_RK1_A0_W0_RI1_EM1_ID0004
 10
2249.37
 20
1510.00
 30
16.00
  0
VERTEX
  8
BORDER_D0_T128_RK1_A0_W0_RI1_EM1_ID0004
 10
2449.37
 20
1510.00
 30
16.00
  0
VERTEX
  8
BORDER_D0_T128_RK1_A0_W0_RI1_EM1_ID0004
 10
2674.37
 20
1510.00
 30
16.00
 42
-0.201478
  0
VERTEX
  8
BORDER_D0_T128_RK1_A0_W0_RI1_EM1_ID0004
 10
2449.37
 20
910.00
 30
16.00
 42
0.194188
  0
VERTEX
  8
BORDER_D0_T128_RK1_A0_W0_RI1_EM1_ID0004
 10
2349.37
 20
510.00
 30
16.00
  0
VERTEX
  8
BORDER_D0_T128_RK1_A0_W0_RI1_EM1_ID0004
 10
2224.37
 20
510.00
 30
16.00
  0
VERTEX
  8
BORDER_D0_T128_RK1_A0_W0_RI1_EM1_ID0004
 10
2224.37
 20
810.00
 30
16.00
  0
SEQEND
  8
BORDER_D0_T128_RK1_A0_W0_RI1_EM1_ID0004
  0
POLYLINE
  8
BORDER_D0_T128_RK1_A0_W0_RI1_EM1_ID0003
 70
1
 66
1
  0
VERTEX
  8
BORDER_D0_T128_RK1_A0_W0_RI1_EM1_ID0003
 10
2371.37
 20
279.78
 30
16.00
  0
VERTEX
  8
BORDER_D0_T128_RK1_A0_W0_RI1_EM1_ID0003
 10
2518.37
 20
279.78
 30
16.00
  0
VERTEX
  8
BORDER_D0_T128_RK1_A0_W0_RI1_EM1_ID0003
 10
2518.37
 20
140.78
 30
16.00
  0
VERTEX
  8
BORDER_D0_T128_RK1_A0_W0_RI1_EM1_ID0003
 10
2224.37
 20
140.78
 30
16.00
  0
VERTEX
  8
BORDER_D0_T128_RK1_A0_W0_RI1_EM1_ID0003
 10
2224.37
 20
210.28
 30
16.00
  0
VERTEX
  8
BORDER_D0_T128_RK1_A0_W0_RI1_EM1_ID0003
 10
2224.37
 20
279.78
 30
16.00
  0
VERTEX
  8
BORDER_D0_T128_RK1_A0_W0_RI1_EM1_ID0003
 10
2371.37
 20
279.78
 30
16.00
  0
SEQEND
  8
BORDER_D0_T128_RK1_A0_W0_RI1_EM1_ID0003
  0
POLYLINE
  8
BORDER_D0_T128_RK1_A0_W0_RI1_EM1_ID0008
 70
1
 66
1
  0
VERTEX
  8
BORDER_D0_T128_RK1_A0_W0_RI1_EM1_ID0008
 10
1635.64
 20
15.58
 30
16.00
  0
VERTEX
  8
BORDER_D0_T128_RK1_A0_W0_RI1_EM1_ID0008
 10
1309.38
 20
15.58
 30
16.00
  0
VERTEX
  8
BORDER_D0_T128_RK1_A0_W0_RI1_EM1_ID0008
 10
1409.38
 20
115.58
 30
16.00
  0
VERTEX
  8
BORDER_D0_T128_RK1_A0_W0_RI1_EM1_ID0008
 10
1920.47
 20
115.58
 30
16.00
  0
VERTEX
  8
BORDER_D0_T128_RK1_A0_W0_RI1_EM1_ID0008
 10
2109.38
 20
304.49
 30
16.00
  0
VERTEX
  8
BORDER_D0_T128_RK1_A0_W0_RI1_EM1_ID0008
 10
2109.38
 20
815.58
 30
16.00
  0
VERTEX
  8
BORDER_D0_T128_RK1_A0_W0_RI1_EM1_ID0008
 10
2209.38
 20
915.58
 30
16.00
  0
VERTEX
  8
BORDER_D0_T128_RK1_A0_W0_RI1_EM1_ID0008
 10
2209.38
 20
555.93
 30
16.00
  0
VERTEX
  8
BORDER_D0_T128_RK1_A0_W0_RI1_EM1_ID0008
 10
2209.38
 20
263.07
 30
16.00
  0
VERTEX
  8
BORDER_D0_T128_RK1_A0_W0_RI1_EM1_ID0008
 10
1961.89
 20
15.58
 30
16.00
  0
VERTEX
  8
BORDER_D0_T128_RK1_A0_W0_RI1_EM1_ID0008
 10
1635.64
 20
15.58
 30
16.00
  0
SEQEND
  8
BORDER_D0_T128_RK1_A0_W0_RI1_EM1_ID0008
  0
POLYLINE
  8
BORDER_D0_T128_RK1_A0_W0_RI1_EM1_ID0008
 70
1
 66
1
  0
VERTEX
  8
BORDER_D0_T128_RK1_A0_W0_RI1_EM1_ID0008
 10
2308.86
 20
15.07
 30
16.00
  0
VERTEX
  8
BORDER_D0_T128_RK1_A0_W0_RI1_EM1_ID0008
 10
1982.60
 20
15.07
 30
16.00
  0
VERTEX
  8
BORDER_D0_T128_RK1_A0_W0_RI1_EM1_ID0008
 10
2082.60
 20
115.07
 30
16.00
  0
VERTEX
  8
BORDER_D0_T128_RK1_A0_W0_RI1_EM1_ID0008
 10
2593.69
 20
115.07
 30
16.00
  0
VERTEX
  8
BORDER_D0_T128_RK1_A0_W0_RI1_EM1_ID0008
 10
2782.60
 20
303.98
 30
16.00
  0
VERTEX
  8
BORDER_D0_T128_RK1_A0_W0_RI1_EM1_ID0008
 10
2782.60
 20
815.07
 30
16.00
  0
VERTEX
  8
BORDER_D0_T128_RK1_A0_W0_RI1_EM1_ID0008
 10
2882.60
 20
915.07
 30
16.00
  0
VERTEX
  8
BORDER_D0_T128_RK1_A0_W0_RI1_EM1_ID0008
 10
2882.60
 20
555.42
 30
16.00
  0
VERTEX
  8
BORDER_D0_T128_RK1_A0_W0_RI1_EM1_ID0008
 10
2882.60
 20
262.56
 30
16.00
  0
VERTEX
  8
BORDER_D0_T128_RK1_A0_W0_RI1_EM1_ID0008
 10
2635.11
 20
15.07
 30
16.00
  0
VERTEX
  8
BORDER_D0_T128_RK1_A0_W0_RI1_EM1_ID0008
 10
2308.86
 20
15.07
 30
16.00
  0
SEQEND
  8
BORDER_D0_T128_RK1_A0_W0_RI1_EM1_ID0008
  0
POLYLINE
  8
BORDER_D0_T128_RK1_A0_W0_RI1_EM1_ID0012
 70
1
 66
1
  0
VERTEX
  8
BORDER_D0_T128_RK1_A0_W0_RI1_EM1_ID0012
 10
2499.37
 20
419.78
 30
16.00
  0
VERTEX
  8
BORDER_D0_T128_RK1_A0_W0_RI1_EM1_ID0012
 10
2654.37
 20
354.78
 30
16.00
 42
-0.222673
  0
VERTEX
  8
BORDER_D0_T128_RK1_A0_W0_RI1_EM1_ID0012
 10
2674.37
 20
334.78
 30
16.00
  0
VERTEX
  8
BORDER_D0_T128_RK1_A0_W0_RI1_EM1_ID0012
 10
2674.37
 20
314.78
 30
16.00
 42
-0.363999
  0
VERTEX
  8
BORDER_D0_T128_RK1_A0_W0_RI1_EM1_ID0012
 10
2654.37
 20
294.78
 30
16.00
  0
VERTEX
  8
BORDER_D0_T128_RK1_A0_W0_RI1_EM1_ID0012
 10
2444.37
 20
294.78
 30
16.00
  0
VERTEX
  8
BORDER_D0_T128_RK1_A0_W0_RI1_EM1_ID0012
 10
2244.37
 20
294.78
 30
16.00
 42
-0.363999
  0
VERTEX
  8
BORDER_D0_T128_RK1_A0_W0_RI1_EM1_ID0012
 10
2224.37
 20
314.78
 30
16.00
  0
VERTEX
  8
BORDER_D0_T128_RK1_A0_W0_RI1_EM1_ID0012
 10
2224.37
 20
474.78
 30
16.00
 42
-0.363999
  0
VERTEX
  8
BORDER_D0_T128_RK1_A0_W0_RI1_EM1_ID0012
 10
2244.37
 20
494.78
 30
16.00
  0
VERTEX
  8
BORDER_D0_T128_RK1_A0_W0_RI1_EM1_ID0012
 10
2294.37
 20
494.78
 30
16.00
 42
-0.132946
  0
VERTEX
  8
BORDER_D0_T128_RK1_A0_W0_RI1_EM1_ID0012
 10
2344.37
 20
484.78
 30
16.00
  0
VERTEX
  8
BORDER_D0_T128_RK1_A0_W0_RI1_EM1_ID0012
 10
2499.37
 20
419.78
 30
16.00
  0
SEQEND
  8
BORDER_D0_T128_RK1_A0_W0_RI1_EM1_ID0012
  0
POLYLINE
  8
BORDER_D0_T128_RK1_A0_W0_RI1_EM1_ID0005
 70
1
 66
1
  0
VERTEX
  8
BORDER_D0_T128_RK1_A0_W0_RI1_EM1_ID0005
 10
2915.01
 20
935.00
 30
16.00
  0
VERTEX
  8
BORDER_D0_T128_RK1_A0_W0_RI1_EM1_ID0005
 10
2915.01
 20
1160.00
 30
16.00
  0
VERTEX
  8
BORDER_D0_T128_RK1_A0_W0_RI1_EM1_ID0005
 10
2890.01
 20
1160.00
 30
16.00
 42
0.382819
  0
VERTEX
  8
BORDER_D0_T128_RK1_A0_W0_RI1_EM1_ID0005
 10
2690.01
 20
1360.00
 30
16.00
  0
VERTEX
  8
BORDER_D0_T128_RK1_A0_W0_RI1_EM1_ID0005
 10
2690.01
 20
1510.00
 30
16.00
  0
VERTEX
  8
BORDER_D0_T128_RK1_A0_W0_RI1_EM1_ID0005
 10
2990.01
 20
1510.00
 30
16.00
  0
VERTEX
  8
BORDER_D0_T128_RK1_A0_W0_RI1_EM1_ID0005
 10
2990.01
 20
1110.00
 30
16.00
  0
VERTEX
  8
BORDER_D0_T128_RK1_A0_W0_RI1_EM1_ID0005
 10
2990.01
 20
710.00
 30
16.00
  0
VERTEX
  8
BORDER_D0_T128_RK1_A0_W0_RI1_EM1_ID0005
 10
2915.01
 20
710.00
 30
16.00
  0
VERTEX
  8
BORDER_D0_T128_RK1_A0_W0_RI1_EM1_ID0005
 10
2915.01
 20
935.00
 30
16.00
  0
SEQEND
  8
BORDER_D0_T128_RK1_A0_W0_RI1_EM1_ID0005
  0
POLYLINE
  8
BORDER_D0_T128_RK1_A0_W0_RI1_EM1_ID0009
 70
1
 66
1
  0
VERTEX
  8
BORDER_D0_T128_RK1_A0_W0_RI1_EM1_ID0009
 10
2015.00
 20
1334.31
 30
16.00
  0
VERTEX
  8
BORDER_D0_T128_RK1_A0_W0_RI1_EM1_ID0009
 10
2015.00
 20
1284.31
 30
16.00
 42
-0.497721
  0
VERTEX
  8
BORDER_D0_T128_RK1_A0_W0_RI1_EM1_ID0009
 10
15.00
 20
1284.31
 30
16.00
  0
VERTEX
  8
BORDER_D0_T128_RK1_A0_W0_RI1_EM1_ID0009
 10
15.00
 20
1334.31
 30
16.00
  0
VERTEX
  8
BORDER_D0_T128_RK1_A0_W0_RI1_EM1_ID0009
 10
15.00
 20
1384.31
 30
16.00
 42
0.537754
  0
VERTEX
  8
BORDER_D0_T128_RK1_A0_W0_RI1_EM1_ID0009
 10
2015.00
 20
1384.31
 30
16.00
  0
VERTEX
  8
BORDER_D0_T128_RK1_A0_W0_RI1_EM1_ID0009
 10
2015.00
 20
1334.31
 30
16.00
  0
SEQEND
  8
BORDER_D0_T128_RK1_A0_W0_RI1_EM1_ID0009
  0
POLYLINE
  8
BORDER_D0_T128_RK1_A0_W0_RI1_EM1_ID0009
 70
1
 66
1
  0
VERTEX
  8
BORDER_D0_T128_RK1_A0_W0_RI1_EM1_ID0009
 10
2015.00
 20
1460.00
 30
16.00
  0
VERTEX
  8
BORDER_D0_T128_RK1_A0_W0_RI1_EM1_ID0009
 10
2015.00
 20
1410.00
 30
16.00
 42
-0.497721
  0
VERTEX
  8
BORDER_D0_T128_RK1_A0_W0_RI1_EM1_ID0009
 10
15.00
 20
1410.00
 30
16.00
  0
VERTEX
  8
BORDER_D0_T128_RK1_A0_W0_RI1_EM1_ID0009
 10
15.00
 20
1460.00
 30
16.00
  0
VERTEX
  8
BORDER_D0_T128_RK1_A0_W0_RI1_EM1_ID0009
 10
15.00
 20
1510.00
 30
16.00
 42
0.537754
  0
VERTEX
  8
BORDER_D0_T128_RK1_A0_W0_RI1_EM1_ID0009
 10
2015.00
 20
1510.00
 30
16.00
  0
VERTEX
  8
BORDER_D0_T128_RK1_A0_W0_RI1_EM1_ID0009
 10
2015.00
 20
1460.00
 30
16.00
  0
SEQEND
  8
BORDER_D0_T128_RK1_A0_W0_RI1_EM1_ID0009
  0
POLYLINE
  8
BORDER_D0_T128_RK1_A0_W0_RI1_EM1_ID0006
 70
1
 66
1
  0
VERTEX
  8
BORDER_D0_T128_RK1_A0_W0_RI1_EM1_ID0006
 10
1220.64
 20
1510.00
 30
16.00
  0
VERTEX
  8
BORDER_D0_T128_RK1_A0_W0_RI1_EM1_ID0006
 10
1450.64
 20
1510.00
 30
16.00
  0
VERTEX
  8
BORDER_D0_T128_RK1_A0_W0_RI1_EM1_ID0006
 10
1450.64
 20
1380.00
 30
16.00
  0
VERTEX
  8
BORDER_D0_T128_RK1_A0_W0_RI1_EM1_ID0006
 10
1350.64
 20
1380.00
 30
16.00
 42
0.211887
  0
VERTEX
  8
BORDER_D0_T128_RK1_A0_W0_RI1_EM1_ID0006
 10
630.64
 20
1380.00
 30
16.00
  0
VERTEX
  8
BORDER_D0_T128_RK1_A0_W0_RI1_EM1_ID0006
 10
530.64
 20
1380.00
 30
16.00
  0
VERTEX
  8
BORDER_D0_T128_RK1_A0_W0_RI1_EM1_ID0006
 10
530.64
 20
1510.00
 30
16.00
  0
VERTEX
  8
BORDER_D0_T128_RK1_A0_W0_RI1_EM1_ID0006
 10
990.64
 20
1510.00
 30
16.00
  0
VERTEX
  8
BORDER_D0_T128_RK1_A0_W0_RI1_EM1_ID0006
 10
1220.64
 20
1510.00
 30
16.00
  0
SEQEND
  8
BORDER_D0_T128_RK1_A0_W0_RI1_EM1_ID0006
  0
POLYLINE
  8
BORDER_D0_T128_RK1_A0_W0_RI1_EM1_ID0006
 70
1
 66
1
  0
VERTEX
  8
BORDER_D0_T128_RK1_A0_W0_RI1_EM1_ID0006
 10
1090.64
 20
1294.78
 30
16.00
  0
VERTEX
  8
BORDER_D0_T128_RK1_A0_W0_RI1_EM1_ID0006
 10
1320.64
 20
1294.78
 30
16.00
  0
VERTEX
  8
BORDER_D0_T128_RK1_A0_W0_RI1_EM1_ID0006
 10
1320.64
 20
1164.78
 30
16.00
  0
VERTEX
  8
BORDER_D0_T128_RK1_A0_W0_RI1_EM1_ID0006
 10
1220.64
 20
1164.78
 30
16.00
 42
0.211887
  0
VERTEX
  8
BORDER_D0_T128_RK1_A0_W0_RI1_EM1_ID0006
 10
500.64
 20
1164.78
 30
16.00
  0
VERTEX
  8
BORDER_D0_T128_RK1_A0_W0_RI1_EM1_ID0006
 10
400.64
 20
1164.78
 30
16.00
  0
VERTEX
  8
BORDER_D0_T128_RK1_A0_W0_RI1_EM1_ID0006
 10
400.64
 20
1294.78
 30
16.00
  0
VERTEX
  8
BORDER_D0_T128_RK1_A0_W0_RI1_EM1_ID0006
 10
860.64
 20
1294.78
 30
16.00
  0
VERTEX
  8
BORDER_D0_T128_RK1_A0_W0_RI1_EM1_ID0006
 10
1090.64
 20
1294.78
 30
16.00
  0
SEQEND
  8
BORDER_D0_T128_RK1_A0_W0_RI1_EM1_ID0006
  0
POLYLINE
  8
BORDER_D0_T128_RK1_A0_W0_RI1_EM1_ID0012
 70
1
 66
1
  0
VERTEX
  8
BORDER_D0_T128_RK1_A0_W0_RI1_EM1_ID0012
 10
240.62
 20
1385.00
 30
16.00
  0
VERTEX
  8
BORDER_D0_T128_RK1_A0_W0_RI1_EM1_ID0012
 10
85.62
 20
1450.00
 30
16.00
 42
-0.222672
  0
VERTEX
  8
BORDER_D0_T128_RK1_A0_W0_RI1_EM1_ID0012
 10
65.62
 20
1470.00
 30
16.00
  0
VERTEX
  8
BORDER_D0_T128_RK1_A0_W0_RI1_EM1_ID0012
 10
65.62
 20
1490.00
 30
16.00
 42
-0.363997
  0
VERTEX
  8
BORDER_D0_T128_RK1_A0_W0_RI1_EM1_ID0012
 10
85.62
 20
1510.00
 30
16.00
  0
VERTEX
  8
BORDER_D0_T128_RK1_A0_W0_RI1_EM1_ID0012
 10
295.62
 20
1510.00
 30
16.00
  0
VERTEX
  8
BORDER_D0_T128_RK1_A0_W0_RI1_EM1_ID0012
 10
495.62
 20
1510.00
 30
16.00
 42
-0.363997
  0
VERTEX
  8
BORDER_D0_T128_RK1_A0_W0_RI1_EM1_ID0012
 10
515.62
 20
1490.00
 30
16.00
  0
VERTEX
  8
BORDER_D0_T128_RK1_A0_W0_RI1_EM1_ID0012
 10
515.62
 20
1330.00
 30
16.00
 42
-0.363997
  0
VERTEX
  8
BORDER_D0_T128_RK1_A0_W0_RI1_EM1_ID0012
 10
495.62
 20
1310.00
 30
16.00
  0
VERTEX
  8
BORDER_D0_T128_RK1_A0_W0_RI1_EM1_ID0012
 10
445.62
 20
1310.00
 30
16.00
 42
-0.132946
  0
VERTEX
  8
BORDER_D0_T128_RK1_A0_W0_RI1_EM1_ID0012
 10
395.62
 20
1320.00
 30
16.00
  0
VERTEX
  8
BORDER_D0_T128_RK1_A0_W0_RI1_EM1_ID0012
 10
240.62
 20
1385.00
 30
16.00
  0
SEQEND
  8
BORDER_D0_T128_RK1_A0_W0_RI1_EM1_ID0012
  0
POLYLINE
  8
BORDER_D0_T128.1_RK1_A0_W0_RI1_EM1_ID0005
 70
1
 66
1
  0
VERTEX
  8
BORDER_D0_T128.1_RK1_A0_W0_RI1_EM1_ID0005
 10
428.09
 20
316.67
 30
18.30
  0
VERTEX
  8
BORDER_D0_T128.1_RK1_A0_W0_RI1_EM1_ID0005
 10
653.09
 20
316.67
 30
18.30
  0
VERTEX
  8
BORDER_D0_T128.1_RK1_A0_W0_RI1_EM1_ID0005
 10
653.09
 20
341.67
 30
18.30
 42
0.382819
  0
VERTEX
  8
BORDER_D0_T128.1_RK1_A0_W0_RI1_EM1_ID0005
 10
853.09
 20
541.67
 30
18.30
  0
VERTEX
  8
BORDER_D0_T128.1_RK1_A0_W0_RI1_EM1_ID0005
 10
1003.09
 20
541.67
 30
18.30
  0
VERTEX
  8
BORDER_D0_T128.1_RK1_A0_W0_RI1_EM1_ID0005
 10
1003.09
 20
241.67
 30
18.30
  0
VERTEX
  8
BORDER_D0_T128.1_RK1_A0_W0_RI1_EM1_ID0005
 10
603.09
 20
241.67
 30
18.30
  0
VERTEX
  8
BORDER_D0_T128.1_RK1_A0_W0_RI1_EM1_ID0005
 10
203.09
 20
241.67
 30
18.30
  0
VERTEX
  8
BORDER_D0_T128.1_RK1_A0_W0_RI1_EM1_ID0005
 10
203.09
 20
316.67
 30
18.30
  0
VERTEX
  8
BORDER_D0_T128.1_RK1_A0_W0_RI1_EM1_ID0005
 10
428.09
 20
316.67
 30
18.30
  0
SEQEND
  8
BORDER_D0_T128.1_RK1_A0_W0_RI1_EM1_ID0005
  0
POLYLINE
  8
BORDER_D0_T128.1_RK1_A0_W0_RI1_EM1_ID0012
 70
1
 66
1
  0
VERTEX
  8
BORDER_D0_T128.1_RK1_A0_W0_RI1_EM1_ID0012
 10
290.00
 20
151.61
 30
18.30
  0
VERTEX
  8
BORDER_D0_T128.1_RK1_A0_W0_RI1_EM1_ID0012
 10
445.00
 20
86.61
 30
18.30
 42
-0.222672
  0
VERTEX
  8
BORDER_D0_T128.1_RK1_A0_W0_RI1_EM1_ID0012
 10
465.00
 20
66.61
 30
18.30
  0
VERTEX
  8
BORDER_D0_T128.1_RK1_A0_W0_RI1_EM1_ID0012
 10
465.00
 20
46.61
 30
18.30
 42
-0.363997
  0
VERTEX
  8
BORDER_D0_T128.1_RK1_A0_W0_RI1_EM1_ID0012
 10
445.00
 20
26.61
 30
18.30
  0
VERTEX
  8
BORDER_D0_T128.1_RK1_A0_W0_RI1_EM1_ID0012
 10
235.00
 20
26.61
 30
18.30
  0
VERTEX
  8
BORDER_D0_T128.1_RK1_A0_W0_RI1_EM1_ID0012
 10
35.00
 20
26.61
 30
18.30
 42
-0.363997
  0
VERTEX
  8
BORDER_D0_T128.1_RK1_A0_W0_RI1_EM1_ID0012
 10
15.00
 20
46.61
 30
18.30
  0
VERTEX
  8
BORDER_D0_T128.1_RK1_A0_W0_RI1_EM1_ID0012
 10
15.00
 20
206.61
 30
18.30
 42
-0.363998
  0
VERTEX
  8
BORDER_D0_T128.1_RK1_A0_W0_RI1_EM1_ID0012
 10
35.00
 20
226.61
 30
18.30
  0
VERTEX
  8
BORDER_D0_T128.1_RK1_A0_W0_RI1_EM1_ID0012
 10
85.00
 20
226.61
 30
18.30
 42
-0.132946
  0
VERTEX
  8
BORDER_D0_T128.1_RK1_A0_W0_RI1_EM1_ID0012
 10
135.00
 20
216.61
 30
18.30
  0
VERTEX
  8
BORDER_D0_T128.1_RK1_A0_W0_RI1_EM1_ID0012
 10
290.00
 20
151.61
 30
18.30
  0
SEQEND
  8
BORDER_D0_T128.1_RK1_A0_W0_RI1_EM1_ID0012
  0
POLYLINE
  8
BORDER_D0_T128.1_RK1_A0_W0_RI1_EM1_ID0012
 70
1
 66
1
  0
VERTEX
  8
BORDER_D0_T128.1_RK1_A0_W0_RI1_EM1_ID0012
 10
448.79
 20
101.67
 30
18.30
  0
VERTEX
  8
BORDER_D0_T128.1_RK1_A0_W0_RI1_EM1_ID0012
 10
293.79
 20
166.67
 30
18.30
 42
-0.222672
  0
VERTEX
  8
BORDER_D0_T128.1_RK1_A0_W0_RI1_EM1_ID0012
 10
273.79
 20
186.67
 30
18.30
  0
VERTEX
  8
BORDER_D0_T128.1_RK1_A0_W0_RI1_EM1_ID0012
 10
273.79
 20
206.67
 30
18.30
 42
-0.363997
  0
VERTEX
  8
BORDER_D0_T128.1_RK1_A0_W0_RI1_EM1_ID0012
 10
293.79
 20
226.67
 30
18.30
  0
VERTEX
  8
BORDER_D0_T128.1_RK1_A0_W0_RI1_EM1_ID0012
 10
503.79
 20
226.67
 30
18.30
  0
VERTEX
  8
BORDER_D0_T128.1_RK1_A0_W0_RI1_EM1_ID0012
 10
703.79
 20
226.67
 30
18.30
 42
-0.363997
  0
VERTEX
  8
BORDER_D0_T128.1_RK1_A0_W0_RI1_EM1_ID0012
 10
723.79
 20
206.67
 30
18.30
  0
VERTEX
  8
BORDER_D0_T128.1_RK1_A0_W0_RI1_EM1_ID0012
 10
723.79
 20
46.67
 30
18.30
 42
-0.363997
  0
VERTEX
  8
BORDER_D0_T128.1_RK1_A0_W0_RI1_EM1_ID0012
 10
703.79
 20
26.67
 30
18.30
  0
VERTEX
  8
BORDER_D0_T128.1_RK1_A0_W0_RI1_EM1_ID0012
 10
653.79
 20
26.67
 30
18.30
 42
-0.132946
  0
VERTEX
  8
BORDER_D0_T128.1_RK1_A0_W0_RI1_EM1_ID0012
 10
603.79
 20
36.67
 30
18.30
  0
VERTEX
  8
BORDER_D0_T128.1_RK1_A0_W0_RI1_EM1_ID0012
 10
448.79
 20
101.67
 30
18.30
  0
SEQEND
  8
BORDER_D0_T128.1_RK1_A0_W0_RI1_EM1_ID0012
  0
POLYLINE
  8
BORDER_D0_T128.1_RK1_A0_W0_RI1_EM1_ID0003
 70
1
 66
1
  0
VERTEX
  8
BORDER_D0_T128.1_RK1_A0_W0_RI1_EM1_ID0003
 10
885.79
 20
226.67
 30
18.30
  0
VERTEX
  8
BORDER_D0_T128.1_RK1_A0_W0_RI1_EM1_ID0003
 10
1032.79
 20
226.67
 30
18.30
  0
VERTEX
  8
BORDER_D0_T128.1_RK1_A0_W0_RI1_EM1_ID0003
 10
1032.79
 20
87.67
 30
18.30
  0
VERTEX
  8
BORDER_D0_T128.1_RK1_A0_W0_RI1_EM1_ID0003
 10
738.79
 20
87.67
 30
18.30
  0
VERTEX
  8
BORDER_D0_T128.1_RK1_A0_W0_RI1_EM1_ID0003
 10
738.79
 20
157.17
 30
18.30
  0
VERTEX
  8
BORDER_D0_T128.1_RK1_A0_W0_RI1_EM1_ID0003
 10
738.79
 20
226.67
 30
18.30
  0
VERTEX
  8
BORDER_D0_T128.1_RK1_A0_W0_RI1_EM1_ID0003
 10
885.79
 20
226.67
 30
18.30
  0
SEQEND
  8
BORDER_D0_T128.1_RK1_A0_W0_RI1_EM1_ID0003
  0
POLYLINE
  8
BORDER_D0_T128.1_RK1_A0_W0_RI1_EM1_ID0005
 70
1
 66
1
  0
VERTEX
  8
BORDER_D0_T128.1_RK1_A0_W0_RI1_EM1_ID0005
 10
590.00
 20
467.32
 30
18.30
  0
VERTEX
  8
BORDER_D0_T128.1_RK1_A0_W0_RI1_EM1_ID0005
 10
365.00
 20
467.32
 30
18.30
  0
VERTEX
  8
BORDER_D0_T128.1_RK1_A0_W0_RI1_EM1_ID0005
 10
365.00
 20
442.32
 30
18.30
 42
0.382819
  0
VERTEX
  8
BORDER_D0_T128.1_RK1_A0_W0_RI1_EM1_ID0005
 10
165.00
 20
242.32
 30
18.30
  0
VERTEX
  8
BORDER_D0_T128.1_RK1_A0_W0_RI1_EM1_ID0005
 10
15.00
 20
242.32
 30
18.30
  0
VERTEX
  8
BORDER_D0_T128.1_RK1_A0_W0_RI1_EM1_ID0005
 10
15.00
 20
542.32
 30
18.30
  0
VERTEX
  8
BORDER_D0_T128.1_RK1_A0_W0_RI1_EM1_ID0005
 10
415.00
 20
542.32
 30
18.30
  0
VERTEX
  8
BORDER_D0_T128.1_RK1_A0_W0_RI1_EM1_ID0005
 10
815.00
 20
542.32
 30
18.30
  0
VERTEX
  8
BORDER_D0_T128.1_RK1_A0_W0_RI1_EM1_ID0005
 10
815.00
 20
467.32
 30
18.30
  0
VERTEX
  8
BORDER_D0_T128.1_RK1_A0_W0_RI1_EM1_ID0005
 10
590.00
 20
467.32
 30
18.30
  0
SEQEND
  8
BORDER_D0_T128.1_RK1_A0_W0_RI1_EM1_ID0005
  0
POLYLINE
  8
BORDER_D0_T128.1_RK1_A0_W0_RI1_EM1_ID0004
 70
1
 66
1
  0
VERTEX
  8
BORDER_D0_T128.1_RK1_A0_W0_RI1_EM1_ID0004
 10
715.00
 20
557.32
 30
18.30
  0
VERTEX
  8
BORDER_D0_T128.1_RK1_A0_W0_RI1_EM1_ID0004
 10
415.00
 20
557.32
 30
18.30
  0
VERTEX
  8
BORDER_D0_T128.1_RK1_A0_W0_RI1_EM1_ID0004
 10
415.00
 20
582.32
 30
18.30
  0
VERTEX
  8
BORDER_D0_T128.1_RK1_A0_W0_RI1_EM1_ID0004
 10
15.00
 20
582.32
 30
18.30
  0
VERTEX
  8
BORDER_D0_T128.1_RK1_A0_W0_RI1_EM1_ID0004
 10
15.00
 20
782.32
 30
18.30
  0
VERTEX
  8
BORDER_D0_T128.1_RK1_A0_W0_RI1_EM1_ID0004
 10
15.00
 20
1007.32
 30
18.30
 42
-0.201478
  0
VERTEX
  8
BORDER_D0_T128.1_RK1_A0_W0_RI1_EM1_ID0004
 10
615.00
 20
782.32
 30
18.30
 42
0.194188
  0
VERTEX
  8
BORDER_D0_T128.1_RK1_A0_W0_RI1_EM1_ID0004
 10
1015.00
 20
682.32
 30
18.30
  0
VERTEX
  8
BORDER_D0_T128.1_RK1_A0_W0_RI1_EM1_ID0004
 10
1015.00
 20
557.32
 30
18.30
  0
VERTEX
  8
BORDER_D0_T128.1_RK1_A0_W0_RI1_EM1_ID0004
 10
715.00
 20
557.32
 30
18.30
  0
SEQEND
  8
BORDER_D0_T128.1_RK1_A0_W0_RI1_EM1_ID0004
  0
POLYLINE
  8
BORDER_D0_T128.1_RK1_A0_W0_RI1_EM1_ID0005
 70
1
 66
1
  0
VERTEX
  8
BORDER_D0_T128.1_RK1_A0_W0_RI1_EM1_ID0005
 10
1431.21
 20
316.67
 30
18.30
  0
VERTEX
  8
BORDER_D0_T128.1_RK1_A0_W0_RI1_EM1_ID0005
 10
1656.21
 20
316.67
 30
18.30
  0
VERTEX
  8
BORDER_D0_T128.1_RK1_A0_W0_RI1_EM1_ID0005
 10
1656.21
 20
341.67
 30
18.30
 42
0.382819
  0
VERTEX
  8
BORDER_D0_T128.1_RK1_A0_W0_RI1_EM1_ID0005
 10
1856.21
 20
541.67
 30
18.30
  0
VERTEX
  8
BORDER_D0_T128.1_RK1_A0_W0_RI1_EM1_ID0005
 10
2006.21
 20
541.67
 30
18.30
  0
VERTEX
  8
BORDER_D0_T128.1_RK1_A0_W0_RI1_EM1_ID0005
 10
2006.21
 20
241.67
 30
18.30
  0
VERTEX
  8
BORDER_D0_T128.1_RK1_A0_W0_RI1_EM1_ID0005
 10
1606.21
 20
241.67
 30
18.30
  0
VERTEX
  8
BORDER_D0_T128.1_RK1_A0_W0_RI1_EM1_ID0005
 10
1206.21
 20
241.67
 30
18.30
  0
VERTEX
  8
BORDER_D0_T128.1_RK1_A0_W0_RI1_EM1_ID0005
 10
1206.21
 20
316.67
 30
18.30
  0
VERTEX
  8
BORDER_D0_T128.1_RK1_A0_W0_RI1_EM1_ID0005
 10
1431.21
 20
316.67
 30
18.30
  0
SEQEND
  8
BORDER_D0_T128.1_RK1_A0_W0_RI1_EM1_ID0005
  0
POLYLINE
  8
BORDER_D0_T128.1_RK1_A0_W0_RI1_EM1_ID0005
 70
1
 66
1
  0
VERTEX
  8
BORDER_D0_T128.1_RK1_A0_W0_RI1_EM1_ID0005
 10
1593.09
 20
467.31
 30
18.30
  0
VERTEX
  8
BORDER_D0_T128.1_RK1_A0_W0_RI1_EM1_ID0005
 10
1368.09
 20
467.31
 30
18.30
  0
VERTEX
  8
BORDER_D0_T128.1_RK1_A0_W0_RI1_EM1_ID0005
 10
1368.09
 20
442.31
 30
18.30
 42
0.382819
  0
VERTEX
  8
BORDER_D0_T128.1_RK1_A0_W0_RI1_EM1_ID0005
 10
1168.09
 20
242.31
 30
18.30
  0
VERTEX
  8
BORDER_D0_T128.1_RK1_A0_W0_RI1_EM1_ID0005
 10
1018.09
 20
242.31
 30
18.30
  0
VERTEX
  8
BORDER_D0_T128.1_RK1_A0_W0_RI1_EM1_ID0005
 10
1018.09
 20
542.31
 30
18.30
  0
VERTEX
  8
BORDER_D0_T128.1_RK1_A0_W0_RI1_EM1_ID0005
 10
1418.09
 20
542.31
 30
18.30
  0
VERTEX
  8
BORDER_D0_T128.1_RK1_A0_W0_RI1_EM1_ID0005
 10
1818.09
 20
542.31
 30
18.30
  0
VERTEX
  8
BORDER_D0_T128.1_RK1_A0_W0_RI1_EM1_ID0005
 10
1818.09
 20
467.31
 30
18.30
  0
VERTEX
  8
BORDER_D0_T128.1_RK1_A0_W0_RI1_EM1_ID0005
 10
1593.09
 20
467.31
 30
18.30
  0
SEQEND
  8
BORDER_D0_T128.1_RK1_A0_W0_RI1_EM1_ID0005
  0
POLYLINE
  8
BORDER_D0_T128.1_RK1_A0_W0_RI1_EM1_ID0008
 70
1
 66
1
  0
VERTEX
  8
BORDER_D0_T128.1_RK1_A0_W0_RI1_EM1_ID0008
 10
1556.31
 20
610.00
 30
18.30
  0
VERTEX
  8
BORDER_D0_T128.1_RK1_A0_W0_RI1_EM1_ID0008
 10
1230.05
 20
610.00
 30
18.30
  0
VERTEX
  8
BORDER_D0_T128.1_RK1_A0_W0_RI1_EM1_ID0008
 10
1330.05
 20
710.00
 30
18.30
  0
VERTEX
  8
BORDER_D0_T128.1_RK1_A0_W0_RI1_EM1_ID0008
 10
1841.14
 20
710.00
 30
18.30
  0
VERTEX
  8
BORDER_D0_T128.1_RK1_A0_W0_RI1_EM1_ID0008
 10
2030.05
 20
898.91
 30
18.30
  0
VERTEX
  8
BORDER_D0_T128.1_RK1_A0_W0_RI1_EM1_ID0008
 10
2030.05
 20
1410.00
 30
18.30
  0
VERTEX
  8
BORDER_D0_T128.1_RK1_A0_W0_RI1_EM1_ID0008
 10
2130.05
 20
1510.00
 30
18.30
  0
VERTEX
  8
BORDER_D0_T128.1_RK1_A0_W0_RI1_EM1_ID0008
 10
2130.05
 20
1150.35
 30
18.30
  0
VERTEX
  8
BORDER_D0_T128.1_RK1_A0_W0_RI1_EM1_ID0008
 10
2130.05
 20
857.49
 30
18.30
  0
VERTEX
  8
BORDER_D0_T128.1_RK1_A0_W0_RI1_EM1_ID0008
 10
1882.56
 20
610.00
 30
18.30
  0
VERTEX
  8
BORDER_D0_T128.1_RK1_A0_W0_RI1_EM1_ID0008
 10
1556.31
 20
610.00
 30
18.30
  0
SEQEND
  8
BORDER_D0_T128.1_RK1_A0_W0_RI1_EM1_ID0008
  0
POLYLINE
  8
BORDER_D0_T128.1_RK1_A0_W0_RI1_EM1_ID0004
 70
1
 66
1
  0
VERTEX
  8
BORDER_D0_T128.1_RK1_A0_W0_RI1_EM1_ID0004
 10
2224.37
 20
810.00
 30
18.30
  0
VERTEX
  8
BORDER_D0_T128.1_RK1_A0_W0_RI1_EM1_ID0004
 10
2224.37
 20
1110.00
 30
18.30
  0
VERTEX
  8
BORDER_D0_T128.1_RK1_A0_W0_RI1_EM1_ID0004
 10
2249.37
 20
1110.00
 30
18.30
  0
VERTEX
  8
BORDER_D0_T128.1_RK1_A0_W0_RI1_EM1_ID0004
 10
2249.37
 20
1510.00
 30
18.30
  0
VERTEX
  8
BORDER_D0_T128.1_RK1_A0_W0_RI1_EM1_ID0004
 10
2449.37
 20
1510.00
 30
18.30
  0
VERTEX
  8
BORDER_D0_T128.1_RK1_A0_W0_RI1_EM1_ID0004
 10
2674.37
 20
1510.00
 30
18.30
 42
-0.201478
  0
VERTEX
  8
BORDER_D0_T128.1_RK1_A0_W0_RI1_EM1_ID0004
 10
2449.37
 20
910.00
 30
18.30
 42
0.194188
  0
VERTEX
  8
BORDER_D0_T128.1_RK1_A0_W0_RI1_EM1_ID0004
 10
2349.37
 20
510.00
 30
18.30
  0
VERTEX
  8
BORDER_D0_T128.1_RK1_A0_W0_RI1_EM1_ID0004
 10
2224.37
 20
510.00
 30
18.30
  0
VERTEX
  8
BORDER_D0_T128.1_RK1_A0_W0_RI1_EM1_ID0004
 10
2224.37
 20
810.00
 30
18.30
  0
SEQEND
  8
BORDER_D0_T128.1_RK1_A0_W0_RI1_EM1_ID0004
  0
POLYLINE
  8
BORDER_D0_T128.1_RK1_A0_W0_RI1_EM1_ID0003
 70
1
 66
1
  0
VERTEX
  8
BORDER_D0_T128.1_RK1_A0_W0_RI1_EM1_ID0003
 10
2371.37
 20
279.78
 30
18.30
  0
VERTEX
  8
BORDER_D0_T128.1_RK1_A0_W0_RI1_EM1_ID0003
 10
2518.37
 20
279.78
 30
18.30
  0
VERTEX
  8
BORDER_D0_T128.1_RK1_A0_W0_RI1_EM1_ID0003
 10
2518.37
 20
140.78
 30
18.30
  0
VERTEX
  8
BORDER_D0_T128.1_RK1_A0_W0_RI1_EM1_ID0003
 10
2224.37
 20
140.78
 30
18.30
  0
VERTEX
  8
BORDER_D0_T128.1_RK1_A0_W0_RI1_EM1_ID0003
 10
2224.37
 20
210.28
 30
18.30
  0
VERTEX
  8
BORDER_D0_T128.1_RK1_A0_W0_RI1_EM1_ID0003
 10
2224.37
 20
279.78
 30
18.30
  0
VERTEX
  8
BORDER_D0_T128.1_RK1_A0_W0_RI1_EM1_ID0003
 10
2371.37
 20
279.78
 30
18.30
  0
SEQEND
  8
BORDER_D0_T128.1_RK1_A0_W0_RI1_EM1_ID0003
  0
POLYLINE
  8
BORDER_D0_T128.1_RK1_A0_W0_RI1_EM1_ID0008
 70
1
 66
1
  0
VERTEX
  8
BORDER_D0_T128.1_RK1_A0_W0_RI1_EM1_ID0008
 10
1635.64
 20
15.58
 30
18.30
  0
VERTEX
  8
BORDER_D0_T128.1_RK1_A0_W0_RI1_EM1_ID0008
 10
1309.38
 20
15.58
 30
18.30
  0
VERTEX
  8
BORDER_D0_T128.1_RK1_A0_W0_RI1_EM1_ID0008
 10
1409.38
 20
115.58
 30
18.30
  0
VERTEX
  8
BORDER_D0_T128.1_RK1_A0_W0_RI1_EM1_ID0008
 10
1920.47
 20
115.58
 30
18.30
  0
VERTEX
  8
BORDER_D0_T128.1_RK1_A0_W0_RI1_EM1_ID0008
 10
2109.38
 20
304.49
 30
18.30
  0
VERTEX
  8
BORDER_D0_T128.1_RK1_A0_W0_RI1_EM1_ID0008
 10
2109.38
 20
815.58
 30
18.30
  0
VERTEX
  8
BORDER_D0_T128.1_RK1_A0_W0_RI1_EM1_ID0008
 10
2209.38
 20
915.58
 30
18.30
  0
VERTEX
  8
BORDER_D0_T128.1_RK1_A0_W0_RI1_EM1_ID0008
 10
2209.38
 20
555.93
 30
18.30
  0
VERTEX
  8
BORDER_D0_T128.1_RK1_A0_W0_RI1_EM1_ID0008
 10
2209.38
 20
263.07
 30
18.30
  0
VERTEX
  8
BORDER_D0_T128.1_RK1_A0_W0_RI1_EM1_ID0008
 10
1961.89
 20
15.58
 30
18.30
  0
VERTEX
  8
BORDER_D0_T128.1_RK1_A0_W0_RI1_EM1_ID0008
 10
1635.64
 20
15.58
 30
18.30
  0
SEQEND
  8
BORDER_D0_T128.1_RK1_A0_W0_RI1_EM1_ID0008
  0
POLYLINE
  8
BORDER_D0_T128.1_RK1_A0_W0_RI1_EM1_ID0008
 70
1
 66
1
  0
VERTEX
  8
BORDER_D0_T128.1_RK1_A0_W0_RI1_EM1_ID0008
 10
2308.86
 20
15.07
 30
18.30
  0
VERTEX
  8
BORDER_D0_T128.1_RK1_A0_W0_RI1_EM1_ID0008
 10
1982.60
 20
15.07
 30
18.30
  0
VERTEX
  8
BORDER_D0_T128.1_RK1_A0_W0_RI1_EM1_ID0008
 10
2082.60
 20
115.07
 30
18.30
  0
VERTEX
  8
BORDER_D0_T128.1_RK1_A0_W0_RI1_EM1_ID0008
 10
2593.69
 20
115.07
 30
18.30
  0
VERTEX
  8
BORDER_D0_T128.1_RK1_A0_W0_RI1_EM1_ID0008
 10
2782.60
 20
303.98
 30
18.30
  0
VERTEX
  8
BORDER_D0_T128.1_RK1_A0_W0_RI1_EM1_ID0008
 10
2782.60
 20
815.07
 30
18.30
  0
VERTEX
  8
BORDER_D0_T128.1_RK1_A0_W0_RI1_EM1_ID0008
 10
2882.60
 20
915.07
 30
18.30
  0
VERTEX
  8
BORDER_D0_T128.1_RK1_A0_W0_RI1_EM1_ID0008
 10
2882.60
 20
555.42
 30
18.30
  0
VERTEX
  8
BORDER_D0_T128.1_RK1_A0_W0_RI1_EM1_ID0008
 10
2882.60
 20
262.56
 30
18.30
  0
VERTEX
  8
BORDER_D0_T128.1_RK1_A0_W0_RI1_EM1_ID0008
 10
2635.11
 20
15.07
 30
18.30
  0
VERTEX
  8
BORDER_D0_T128.1_RK1_A0_W0_RI1_EM1_ID0008
 10
2308.86
 20
15.07
 30
18.30
  0
SEQEND
  8
BORDER_D0_T128.1_RK1_A0_W0_RI1_EM1_ID0008
  0
POLYLINE
  8
BORDER_D0_T128.1_RK1_A0_W0_RI1_EM1_ID0012
 70
1
 66
1
  0
VERTEX
  8
BORDER_D0_T128.1_RK1_A0_W0_RI1_EM1_ID0012
 10
2499.37
 20
419.78
 30
18.30
  0
VERTEX
  8
BORDER_D0_T128.1_RK1_A0_W0_RI1_EM1_ID0012
 10
2654.37
 20
354.78
 30
18.30
 42
-0.222673
  0
VERTEX
  8
BORDER_D0_T128.1_RK1_A0_W0_RI1_EM1_ID0012
 10
2674.37
 20
334.78
 30
18.30
  0
VERTEX
  8
BORDER_D0_T128.1_RK1_A0_W0_RI1_EM1_ID0012
 10
2674.37
 20
314.78
 30
18.30
 42
-0.363999
  0
VERTEX
  8
BORDER_D0_T128.1_RK1_A0_W0_RI1_EM1_ID0012
 10
2654.37
 20
294.78
 30
18.30
  0
VERTEX
  8
BORDER_D0_T128.1_RK1_A0_W0_RI1_EM1_ID0012
 10
2444.37
 20
294.78
 30
18.30
  0
VERTEX
  8
BORDER_D0_T128.1_RK1_A0_W0_RI1_EM1_ID0012
 10
2244.37
 20
294.78
 30
18.30
 42
-0.363999
  0
VERTEX
  8
BORDER_D0_T128.1_RK1_A0_W0_RI1_EM1_ID0012
 10
2224.37
 20
314.78
 30
18.30
  0
VERTEX
  8
BORDER_D0_T128.1_RK1_A0_W0_RI1_EM1_ID0012
 10
2224.37
 20
474.78
 30
18.30
 42
-0.363999
  0
VERTEX
  8
BORDER_D0_T128.1_RK1_A0_W0_RI1_EM1_ID0012
 10
2244.37
 20
494.78
 30
18.30
  0
VERTEX
  8
BORDER_D0_T128.1_RK1_A0_W0_RI1_EM1_ID0012
 10
2294.37
 20
494.78
 30
18.30
 42
-0.132946
  0
VERTEX
  8
BORDER_D0_T128.1_RK1_A0_W0_RI1_EM1_ID0012
 10
2344.37
 20
484.78
 30
18.30
  0
VERTEX
  8
BORDER_D0_T128.1_RK1_A0_W0_RI1_EM1_ID0012
 10
2499.37
 20
419.78
 30
18.30
  0
SEQEND
  8
BORDER_D0_T128.1_RK1_A0_W0_RI1_EM1_ID0012
  0
POLYLINE
  8
BORDER_D0_T128.1_RK1_A0_W0_RI1_EM1_ID0005
 70
1
 66
1
  0
VERTEX
  8
BORDER_D0_T128.1_RK1_A0_W0_RI1_EM1_ID0005
 10
2915.01
 20
935.00
 30
18.30
  0
VERTEX
  8
BORDER_D0_T128.1_RK1_A0_W0_RI1_EM1_ID0005
 10
2915.01
 20
1160.00
 30
18.30
  0
VERTEX
  8
BORDER_D0_T128.1_RK1_A0_W0_RI1_EM1_ID0005
 10
2890.01
 20
1160.00
 30
18.30
 42
0.382819
  0
VERTEX
  8
BORDER_D0_T128.1_RK1_A0_W0_RI1_EM1_ID0005
 10
2690.01
 20
1360.00
 30
18.30
  0
VERTEX
  8
BORDER_D0_T128.1_RK1_A0_W0_RI1_EM1_ID0005
 10
2690.01
 20
1510.00
 30
18.30
  0
VERTEX
  8
BORDER_D0_T128.1_RK1_A0_W0_RI1_EM1_ID0005
 10
2990.01
 20
1510.00
 30
18.30
  0
VERTEX
  8
BORDER_D0_T128.1_RK1_A0_W0_RI1_EM1_ID0005
 10
2990.01
 20
1110.00
 30
18.30
  0
VERTEX
  8
BORDER_D0_T128.1_RK1_A0_W0_RI1_EM1_ID0005
 10
2990.01
 20
710.00
 30
18.30
  0
VERTEX
  8
BORDER_D0_T128.1_RK1_A0_W0_RI1_EM1_ID0005
 10
2915.01
 20
710.00
 30
18.30
  0
VERTEX
  8
BORDER_D0_T128.1_RK1_A0_W0_RI1_EM1_ID0005
 10
2915.01
 20
935.00
 30
18.30
  0
SEQEND
  8
BORDER_D0_T128.1_RK1_A0_W0_RI1_EM1_ID0005
  0
POLYLINE
  8
BORDER_D0_T128.1_RK1_A0_W0_RI1_EM1_ID0009
 70
1
 66
1
  0
VERTEX
  8
BORDER_D0_T128.1_RK1_A0_W0_RI1_EM1_ID0009
 10
2015.00
 20
1334.31
 30
18.30
  0
VERTEX
  8
BORDER_D0_T128.1_RK1_A0_W0_RI1_EM1_ID0009
 10
2015.00
 20
1284.31
 30
18.30
 42
-0.497721
  0
VERTEX
  8
BORDER_D0_T128.1_RK1_A0_W0_RI1_EM1_ID0009
 10
15.00
 20
1284.31
 30
18.30
  0
VERTEX
  8
BORDER_D0_T128.1_RK1_A0_W0_RI1_EM1_ID0009
 10
15.00
 20
1334.31
 30
18.30
  0
VERTEX
  8
BORDER_D0_T128.1_RK1_A0_W0_RI1_EM1_ID0009
 10
15.00
 20
1384.31
 30
18.30
 42
0.537754
  0
VERTEX
  8
BORDER_D0_T128.1_RK1_A0_W0_RI1_EM1_ID0009
 10
2015.00
 20
1384.31
 30
18.30
  0
VERTEX
  8
BORDER_D0_T128.1_RK1_A0_W0_RI1_EM1_ID0009
 10
2015.00
 20
1334.31
 30
18.30
  0
SEQEND
  8
BORDER_D0_T128.1_RK1_A0_W0_RI1_EM1_ID0009
  0
POLYLINE
  8
BORDER_D0_T128.1_RK1_A0_W0_RI1_EM1_ID0009
 70
1
 66
1
  0
VERTEX
  8
BORDER_D0_T128.1_RK1_A0_W0_RI1_EM1_ID0009
 10
2015.00
 20
1460.00
 30
18.30
  0
VERTEX
  8
BORDER_D0_T128.1_RK1_A0_W0_RI1_EM1_ID0009
 10
2015.00
 20
1410.00
 30
18.30
 42
-0.497721
  0
VERTEX
  8
BORDER_D0_T128.1_RK1_A0_W0_RI1_EM1_ID0009
 10
15.00
 20
1410.00
 30
18.30
  0
VERTEX
  8
BORDER_D0_T128.1_RK1_A0_W0_RI1_EM1_ID0009
 10
15.00
 20
1460.00
 30
18.30
  0
VERTEX
  8
BORDER_D0_T128.1_RK1_A0_W0_RI1_EM1_ID0009
 10
15.00
 20
1510.00
 30
18.30
 42
0.537754
  0
VERTEX
  8
BORDER_D0_T128.1_RK1_A0_W0_RI1_EM1_ID0009
 10
2015.00
 20
1510.00
 30
18.30
  0
VERTEX
  8
BORDER_D0_T128.1_RK1_A0_W0_RI1_EM1_ID0009
 10
2015.00
 20
1460.00
 30
18.30
  0
SEQEND
  8
BORDER_D0_T128.1_RK1_A0_W0_RI1_EM1_ID0009
  0
POLYLINE
  8
BORDER_D0_T128.1_RK1_A0_W0_RI1_EM1_ID0006
 70
1
 66
1
  0
VERTEX
  8
BORDER_D0_T128.1_RK1_A0_W0_RI1_EM1_ID0006
 10
1220.64
 20
1510.00
 30
18.30
  0
VERTEX
  8
BORDER_D0_T128.1_RK1_A0_W0_RI1_EM1_ID0006
 10
1450.64
 20
1510.00
 30
18.30
  0
VERTEX
  8
BORDER_D0_T128.1_RK1_A0_W0_RI1_EM1_ID0006
 10
1450.64
 20
1380.00
 30
18.30
  0
VERTEX
  8
BORDER_D0_T128.1_RK1_A0_W0_RI1_EM1_ID0006
 10
1350.64
 20
1380.00
 30
18.30
 42
0.211887
  0
VERTEX
  8
BORDER_D0_T128.1_RK1_A0_W0_RI1_EM1_ID0006
 10
630.64
 20
1380.00
 30
18.30
  0
VERTEX
  8
BORDER_D0_T128.1_RK1_A0_W0_RI1_EM1_ID0006
 10
530.64
 20
1380.00
 30
18.30
  0
VERTEX
  8
BORDER_D0_T128.1_RK1_A0_W0_RI1_EM1_ID0006
 10
530.64
 20
1510.00
 30
18.30
  0
VERTEX
  8
BORDER_D0_T128.1_RK1_A0_W0_RI1_EM1_ID0006
 10
990.64
 20
1510.00
 30
18.30
  0
VERTEX
  8
BORDER_D0_T128.1_RK1_A0_W0_RI1_EM1_ID0006
 10
1220.64
 20
1510.00
 30
18.30
  0
SEQEND
  8
BORDER_D0_T128.1_RK1_A0_W0_RI1_EM1_ID0006
  0
POLYLINE
  8
BORDER_D0_T128.1_RK1_A0_W0_RI1_EM1_ID0006
 70
1
 66
1
  0
VERTEX
  8
BORDER_D0_T128.1_RK1_A0_W0_RI1_EM1_ID0006
 10
1090.64
 20
1294.78
 30
18.30
  0
VERTEX
  8
BORDER_D0_T128.1_RK1_A0_W0_RI1_EM1_ID0006
 10
1320.64
 20
1294.78
 30
18.30
  0
VERTEX
  8
BORDER_D0_T128.1_RK1_A0_W0_RI1_EM1_ID0006
 10
1320.64
 20
1164.78
 30
18.30
  0
VERTEX
  8
BORDER_D0_T128.1_RK1_A0_W0_RI1_EM1_ID0006
 10
1220.64
 20
1164.78
 30
18.30
 42
0.211887
  0
VERTEX
  8
BORDER_D0_T128.1_RK1_A0_W0_RI1_EM1_ID0006
 10
500.64
 20
1164.78
 30
18.30
  0
VERTEX
  8
BORDER_D0_T128.1_RK1_A0_W0_RI1_EM1_ID0006
 10
400.64
 20
1164.78
 30
18.30
  0
VERTEX
  8
BORDER_D0_T128.1_RK1_A0_W0_RI1_EM1_ID0006
 10
400.64
 20
1294.78
 30
18.30
  0
VERTEX
  8
BORDER_D0_T128.1_RK1_A0_W0_RI1_EM1_ID0006
 10
860.64
 20
1294.78
 30
18.30
  0
VERTEX
  8
BORDER_D0_T128.1_RK1_A0_W0_RI1_EM1_ID0006
 10
1090.64
 20
1294.78
 30
18.30
  0
SEQEND
  8
BORDER_D0_T128.1_RK1_A0_W0_RI1_EM1_ID0006
  0
POLYLINE
  8
BORDER_D0_T128.1_RK1_A0_W0_RI1_EM1_ID0012
 70
1
 66
1
  0
VERTEX
  8
BORDER_D0_T128.1_RK1_A0_W0_RI1_EM1_ID0012
 10
240.62
 20
1385.00
 30
18.30
  0
VERTEX
  8
BORDER_D0_T128.1_RK1_A0_W0_RI1_EM1_ID0012
 10
85.62
 20
1450.00
 30
18.30
 42
-0.222672
  0
VERTEX
  8
BORDER_D0_T128.1_RK1_A0_W0_RI1_EM1_ID0012
 10
65.62
 20
1470.00
 30
18.30
  0
VERTEX
  8
BORDER_D0_T128.1_RK1_A0_W0_RI1_EM1_ID0012
 10
65.62
 20
1490.00
 30
18.30
 42
-0.363997
  0
VERTEX
  8
BORDER_D0_T128.1_RK1_A0_W0_RI1_EM1_ID0012
 10
85.62
 20
1510.00
 30
18.30
  0
VERTEX
  8
BORDER_D0_T128.1_RK1_A0_W0_RI1_EM1_ID0012
 10
295.62
 20
1510.00
 30
18.30
  0
VERTEX
  8
BORDER_D0_T128.1_RK1_A0_W0_RI1_EM1_ID0012
 10
495.62
 20
1510.00
 30
18.30
 42
-0.363997
  0
VERTEX
  8
BORDER_D0_T128.1_RK1_A0_W0_RI1_EM1_ID0012
 10
515.62
 20
1490.00
 30
18.30
  0
VERTEX
  8
BORDER_D0_T128.1_RK1_A0_W0_RI1_EM1_ID0012
 10
515.62
 20
1330.00
 30
18.30
 42
-0.363997
  0
VERTEX
  8
BORDER_D0_T128.1_RK1_A0_W0_RI1_EM1_ID0012
 10
495.62
 20
1310.00
 30
18.30
  0
VERTEX
  8
BORDER_D0_T128.1_RK1_A0_W0_RI1_EM1_ID0012
 10
445.62
 20
1310.00
 30
18.30
 42
-0.132946
  0
VERTEX
  8
BORDER_D0_T128.1_RK1_A0_W0_RI1_EM1_ID0012
 10
395.62
 20
1320.00
 30
18.30
  0
VERTEX
  8
BORDER_D0_T128.1_RK1_A0_W0_RI1_EM1_ID0012
 10
240.62
 20
1385.00
 30
18.30
  0
SEQEND
  8
BORDER_D0_T128.1_RK1_A0_W0_RI1_EM1_ID0012
  0
ENDSEC
  0
EOF
