  0
SECTION
  2
HEADER
  9
$LTSCALE
 40
30.00
  9
$LIMMIN
 10
-30.50
 20
-45.75
  9
$LIMMAX
 10
3080.50
 20
1631.75
  9
$EXTMIN
 10
-30.50
 20
-45.75
  9
$EXTMAX
 10
3080.50
 20
1631.75
  9
$TEXTSTYLE
  7
txt
  9
$CLAYER
  8
1
  9
$CECOLOR
 62
7
  9
$CELTYPE
  6
CONTINUOUS
  9
$OSMODE
 70
0
  0
ENDSEC
  0
SECTION
  2
TABLES
  0
TABLE
  2
STYLE
 70
1
  0
STYLE
  2
STANDARD
 70
0
 40
1.00
 41
1.00
 50
0.00
 71
0
 42
0.20
  3
txt
  4

  0
ENDTAB
  0
TABLE
  2
LTYPE
 70
1
  0
LTYPE
  2
HIDDEN
 70
64
  3
_ _ _ _ _ _ _ _ _ _ _ _ _ _ _ _ _ _ _ _ _ _
 72
65
 73
2
 40
0.50
 49
0.25
 49
-0.25
  0
ENDTAB
  0
ENDSEC
  0
SECTION
  2
ENTITIES
  0
LINE
  6
CONTINUOUS
  8
FRAME_Z18
 10
0.00
 20
0.00
 30
0.00
 11
3050.00
 21
0.00
 31
0.00
  0
LINE
  6
CONTINUOUS
  8
FRAME_Z18
 10
0.00
 20
1525.00
 30
0.00
 11
3050.00
 21
1525.00
 31
0.00
  0
LINE
  6
CONTINUOUS
  8
FRAME_Z18
 10
0.00
 20
0.00
 30
0.00
 11
0.00
 21
1525.00
 31
0.00
  0
LINE
  6
CONTINUOUS
  8
FRAME_Z18
 10
3050.00
 20
0.00
 30
0.00
 11
3050.00
 21
1525.00
 31
0.00
  0
POLYLINE
  8
POCKET_D0_T133_AZ1
 70
1
 66
1
  0
VERTEX
  8
POCKET_D0_T133_AZ1
 10
127.03
 20
102.67
 30
10.00
  0
VERTEX
  8
POCKET_D0_T133_AZ1
 10
80.59
 20
102.67
 30
10.00
 42
0.235173
  0
VERTEX
  8
POCKET_D0_T133_AZ1
 10
38.00
 20
145.26
 30
10.00
  0
VERTEX
  8
POCKET_D0_T133_AZ1
 10
38.00
 20
238.14
 30
10.00
 42
-0.332093
  0
VERTEX
  8
POCKET_D0_T133_AZ1
 10
173.47
 20
102.67
 30
10.00
  0
VERTEX
  8
POCKET_D0_T133_AZ1
 10
127.03
 20
102.67
 30
10.00
  0
SEQEND
  8
POCKET_D0_T133_AZ1
  0
CIRCLE
  8
VBORE_Z10_D8
 10
398.96
 20
117.17
 30
10.00
 40
4.00
  0
CIRCLE
  8
VBORE_Z10_D8
 10
399.00
 20
154.67
 30
10.00
 40
4.00
  0
CIRCLE
  8
VBORE_Z10_D8
 10
399.00
 20
192.17
 30
10.00
 40
4.00
  0
POLYLINE
  8
POCKET_D0_T133_AZ1
 70
1
 66
1
  0
VERTEX
  8
POCKET_D0_T133_AZ1
 10
618.04
 20
656.67
 30
10.00
  0
VERTEX
  8
POCKET_D0_T133_AZ1
 10
664.48
 20
656.67
 30
10.00
 42
0.235173
  0
VERTEX
  8
POCKET_D0_T133_AZ1
 10
707.07
 20
614.08
 30
10.00
  0
VERTEX
  8
POCKET_D0_T133_AZ1
 10
707.07
 20
521.20
 30
10.00
 42
-0.332093
  0
VERTEX
  8
POCKET_D0_T133_AZ1
 10
571.60
 20
656.67
 30
10.00
  0
VERTEX
  8
POCKET_D0_T133_AZ1
 10
618.04
 20
656.67
 30
10.00
  0
SEQEND
  8
POCKET_D0_T133_AZ1
  0
CIRCLE
  8
VBORE_Z10_D8
 10
346.11
 20
642.17
 30
10.00
 40
4.00
  0
CIRCLE
  8
VBORE_Z10_D8
 10
346.07
 20
604.67
 30
10.00
 40
4.00
  0
CIRCLE
  8
VBORE_Z10_D8
 10
346.07
 20
567.17
 30
10.00
 40
4.00
  0
POLYLINE
  8
ROUT_Z8_D8_T135_A2_W2
 70
0
 66
1
 40
8.00
 41
8.00
  0
VERTEX
  8
ROUT_Z8_D8_T135_A2_W2
 10
865.00
 20
844.67
 30
8.00
  0
VERTEX
  8
ROUT_Z8_D8_T135_A2_W2
 10
665.00
 20
844.67
 30
8.00
  0
SEQEND
  8
ROUT_Z8_D8_T135_A2_W2
  0
POLYLINE
  8
ROUT_Z8_D8_T135_A2_W2
 70
0
 66
1
 40
8.00
 41
8.00
  0
VERTEX
  8
ROUT_Z8_D8_T135_A2_W2
 10
565.00
 20
1054.34
 30
8.00
  0
VERTEX
  8
ROUT_Z8_D8_T135_A2_W2
 10
365.00
 20
1054.34
 30
8.00
  0
SEQEND
  8
ROUT_Z8_D8_T135_A2_W2
  0
POLYLINE
  8
ROUT_Z8_D8_T135_A2_W2
 70
0
 66
1
 40
8.00
 41
8.00
  0
VERTEX
  8
ROUT_Z8_D8_T135_A2_W2
 10
265.00
 20
1252.85
 30
8.00
  0
VERTEX
  8
ROUT_Z8_D8_T135_A2_W2
 10
65.00
 20
1252.85
 30
8.00
  0
SEQEND
  8
ROUT_Z8_D8_T135_A2_W2
  0
CIRCLE
  8
VBORE_Z6_D10
 10
65.00
 20
744.67
 30
6.00
 40
5.00
  0
CIRCLE
  8
VBORE_Z6_D10
 10
265.00
 20
744.67
 30
6.00
 40
5.00
  0
CIRCLE
  8
VBORE_Z6_D10
 10
365.00
 20
744.67
 30
6.00
 40
5.00
  0
CIRCLE
  8
VBORE_Z6_D10
 10
565.00
 20
744.67
 30
6.00
 40
5.00
  0
CIRCLE
  8
VBORE_Z6_D10
 10
665.00
 20
744.67
 30
6.00
 40
5.00
  0
CIRCLE
  8
VBORE_Z6_D10
 10
865.00
 20
744.67
 30
6.00
 40
5.00
  0
POLYLINE
  8
POCKET_D0_T133_AZ1
 70
1
 66
1
  0
VERTEX
  8
POCKET_D0_T133_AZ1
 10
1033.04
 20
656.67
 30
10.00
  0
VERTEX
  8
POCKET_D0_T133_AZ1
 10
1079.48
 20
656.67
 30
10.00
 42
0.235173
  0
VERTEX
  8
POCKET_D0_T133_AZ1
 10
1122.07
 20
614.08
 30
10.00
  0
VERTEX
  8
POCKET_D0_T133_AZ1
 10
1122.07
 20
521.20
 30
10.00
 42
-0.332094
  0
VERTEX
  8
POCKET_D0_T133_AZ1
 10
986.60
 20
656.67
 30
10.00
  0
VERTEX
  8
POCKET_D0_T133_AZ1
 10
1033.04
 20
656.67
 30
10.00
  0
SEQEND
  8
POCKET_D0_T133_AZ1
  0
CIRCLE
  8
VBORE_Z10_D8
 10
761.11
 20
642.17
 30
10.00
 40
4.00
  0
CIRCLE
  8
VBORE_Z10_D8
 10
761.07
 20
604.67
 30
10.00
 40
4.00
  0
CIRCLE
  8
VBORE_Z10_D8
 10
761.07
 20
567.17
 30
10.00
 40
4.00
  0
CIRCLE
  8
ROUT_Z18_D5_T133_A2_W2
 10
1210.07
 20
275.00
 30
18.00
 40
35.00
  0
CIRCLE
  8
ROUT_Z18_D5_T133_A2_W2
 10
2030.07
 20
275.00
 30
18.00
 40
35.00
  0
CIRCLE
  8
ROUT_Z6_D10_T160_A2_W2
 10
1210.07
 20
275.00
 30
6.00
 40
40.00
  0
CIRCLE
  8
ROUT_Z6_D10_T160_A2_W2
 10
2030.07
 20
275.00
 30
6.00
 40
40.00
  0
POLYLINE
  8
ROUT_Z8_D8_T135_A2_W2
 70
0
 66
1
 40
8.00
 41
8.00
  0
VERTEX
  8
ROUT_Z8_D8_T135_A2_W2
 10
94.88
 20
1360.00
 30
8.00
  0
VERTEX
  8
ROUT_Z8_D8_T135_A2_W2
 10
294.88
 20
1360.00
 30
8.00
  0
SEQEND
  8
ROUT_Z8_D8_T135_A2_W2
  0
POLYLINE
  8
ROUT_Z8_D8_T135_A2_W2
 70
0
 66
1
 40
8.00
 41
8.00
  0
VERTEX
  8
ROUT_Z8_D8_T135_A2_W2
 10
394.88
 20
1150.33
 30
8.00
  0
VERTEX
  8
ROUT_Z8_D8_T135_A2_W2
 10
594.88
 20
1150.33
 30
8.00
  0
SEQEND
  8
ROUT_Z8_D8_T135_A2_W2
  0
POLYLINE
  8
ROUT_Z8_D8_T135_A2_W2
 70
0
 66
1
 40
8.00
 41
8.00
  0
VERTEX
  8
ROUT_Z8_D8_T135_A2_W2
 10
694.88
 20
951.82
 30
8.00
  0
VERTEX
  8
ROUT_Z8_D8_T135_A2_W2
 10
894.88
 20
951.82
 30
8.00
  0
SEQEND
  8
ROUT_Z8_D8_T135_A2_W2
  0
CIRCLE
  8
VBORE_Z6_D10
 10
894.88
 20
1460.00
 30
6.00
 40
5.00
  0
CIRCLE
  8
VBORE_Z6_D10
 10
694.88
 20
1460.00
 30
6.00
 40
5.00
  0
CIRCLE
  8
VBORE_Z6_D10
 10
594.88
 20
1460.00
 30
6.00
 40
5.00
  0
CIRCLE
  8
VBORE_Z6_D10
 10
394.88
 20
1460.00
 30
6.00
 40
5.00
  0
CIRCLE
  8
VBORE_Z6_D10
 10
294.88
 20
1460.00
 30
6.00
 40
5.00
  0
CIRCLE
  8
VBORE_Z6_D10
 10
94.88
 20
1460.00
 30
6.00
 40
5.00
  0
CIRCLE
  8
VBORE_Z10_D35
 10
989.88
 20
990.00
 30
10.00
 40
17.50
  0
CIRCLE
  8
VBORE_Z10_D35
 10
989.88
 20
1460.00
 30
10.00
 40
17.50
  0
CIRCLE
  8
VBORE_Z10_D8
 10
1003.88
 20
969.00
 30
10.00
 40
4.00
  0
CIRCLE
  8
VBORE_Z10_D8
 10
1003.88
 20
1011.00
 30
10.00
 40
4.00
  0
CIRCLE
  8
VBORE_Z10_D8
 10
1003.88
 20
1439.00
 30
10.00
 40
4.00
  0
CIRCLE
  8
VBORE_Z10_D8
 10
1003.88
 20
1481.00
 30
10.00
 40
4.00
  0
CIRCLE
  8
VBORE_Z18_D8
 10
1424.88
 20
1480.00
 30
18.00
 40
4.00
  0
CIRCLE
  8
VBORE_Z10_D35
 10
1190.07
 20
405.00
 30
10.00
 40
17.50
  0
CIRCLE
  8
VBORE_Z10_D35
 10
1190.07
 20
875.00
 30
10.00
 40
17.50
  0
CIRCLE
  8
VBORE_Z10_D8
 10
1204.07
 20
384.00
 30
10.00
 40
4.00
  0
CIRCLE
  8
VBORE_Z10_D8
 10
1204.07
 20
426.00
 30
10.00
 40
4.00
  0
CIRCLE
  8
VBORE_Z10_D8
 10
1204.07
 20
854.00
 30
10.00
 40
4.00
  0
CIRCLE
  8
VBORE_Z10_D8
 10
1204.07
 20
896.00
 30
10.00
 40
4.00
  0
CIRCLE
  8
VBORE_Z18_D8
 10
1625.07
 20
895.00
 30
18.00
 40
4.00
  0
CIRCLE
  8
VBORE_Z10_D35
 10
1700.05
 20
405.00
 30
10.00
 40
17.50
  0
CIRCLE
  8
VBORE_Z10_D35
 10
1700.05
 20
875.00
 30
10.00
 40
17.50
  0
CIRCLE
  8
VBORE_Z10_D8
 10
1714.05
 20
384.00
 30
10.00
 40
4.00
  0
CIRCLE
  8
VBORE_Z10_D8
 10
1714.05
 20
426.00
 30
10.00
 40
4.00
  0
CIRCLE
  8
VBORE_Z10_D8
 10
1714.05
 20
854.00
 30
10.00
 40
4.00
  0
CIRCLE
  8
VBORE_Z10_D8
 10
1714.05
 20
896.00
 30
10.00
 40
4.00
  0
CIRCLE
  8
VBORE_Z18_D8
 10
2135.05
 20
895.00
 30
18.00
 40
4.00
  0
CIRCLE
  8
VBORE_Z10_D35
 10
1499.88
 20
990.00
 30
10.00
 40
17.50
  0
CIRCLE
  8
VBORE_Z10_D35
 10
1499.88
 20
1460.00
 30
10.00
 40
17.50
  0
CIRCLE
  8
VBORE_Z10_D8
 10
1513.88
 20
969.00
 30
10.00
 40
4.00
  0
CIRCLE
  8
VBORE_Z10_D8
 10
1513.88
 20
1011.00
 30
10.00
 40
4.00
  0
CIRCLE
  8
VBORE_Z10_D8
 10
1513.88
 20
1439.00
 30
10.00
 40
4.00
  0
CIRCLE
  8
VBORE_Z10_D8
 10
1513.88
 20
1481.00
 30
10.00
 40
4.00
  0
CIRCLE
  8
VBORE_Z18_D8
 10
1934.88
 20
1480.00
 30
18.00
 40
4.00
  0
CIRCLE
  8
VBORE_Z10_D35
 10
2009.88
 20
990.00
 30
10.00
 40
17.50
  0
CIRCLE
  8
VBORE_Z10_D35
 10
2009.88
 20
1460.00
 30
10.00
 40
17.50
  0
CIRCLE
  8
VBORE_Z10_D8
 10
2023.88
 20
969.00
 30
10.00
 40
4.00
  0
CIRCLE
  8
VBORE_Z10_D8
 10
2023.88
 20
1011.00
 30
10.00
 40
4.00
  0
CIRCLE
  8
VBORE_Z10_D8
 10
2023.88
 20
1439.00
 30
10.00
 40
4.00
  0
CIRCLE
  8
VBORE_Z10_D8
 10
2023.88
 20
1481.00
 30
10.00
 40
4.00
  0
CIRCLE
  8
VBORE_Z18_D8
 10
2444.88
 20
1480.00
 30
18.00
 40
4.00
  0
CIRCLE
  8
VBORE_Z10_D35
 10
2519.88
 20
990.00
 30
10.00
 40
17.50
  0
CIRCLE
  8
VBORE_Z10_D35
 10
2519.88
 20
1460.00
 30
10.00
 40
17.50
  0
CIRCLE
  8
VBORE_Z10_D8
 10
2533.88
 20
969.00
 30
10.00
 40
4.00
  0
CIRCLE
  8
VBORE_Z10_D8
 10
2533.88
 20
1011.00
 30
10.00
 40
4.00
  0
CIRCLE
  8
VBORE_Z10_D8
 10
2533.88
 20
1439.00
 30
10.00
 40
4.00
  0
CIRCLE
  8
VBORE_Z10_D8
 10
2533.88
 20
1481.00
 30
10.00
 40
4.00
  0
CIRCLE
  8
VBORE_Z18_D8
 10
2954.88
 20
1480.00
 30
18.00
 40
4.00
  0
CIRCLE
  8
VBORE_Z10_D35
 10
2210.05
 20
405.00
 30
10.00
 40
17.50
  0
CIRCLE
  8
VBORE_Z10_D35
 10
2210.05
 20
875.00
 30
10.00
 40
17.50
  0
CIRCLE
  8
VBORE_Z10_D8
 10
2224.05
 20
384.00
 30
10.00
 40
4.00
  0
CIRCLE
  8
VBORE_Z10_D8
 10
2224.05
 20
426.00
 30
10.00
 40
4.00
  0
CIRCLE
  8
VBORE_Z10_D8
 10
2224.05
 20
854.00
 30
10.00
 40
4.00
  0
CIRCLE
  8
VBORE_Z10_D8
 10
2224.05
 20
896.00
 30
10.00
 40
4.00
  0
CIRCLE
  8
VBORE_Z18_D8
 10
2645.05
 20
895.00
 30
18.00
 40
4.00
  0
CIRCLE
  8
VBORE_Z10_D10
 10
2940.05
 20
875.00
 30
10.00
 40
5.00
  0
CIRCLE
  8
VBORE_Z10_D10
 10
2940.05
 20
375.00
 30
10.00
 40
5.00
  0
CIRCLE
  8
VBORE_Z6_D6
 10
2940.05
 20
860.00
 30
6.00
 40
3.00
  0
CIRCLE
  8
VBORE_Z6_D6
 10
2940.05
 20
390.00
 30
6.00
 40
3.00
  0
POLYLINE
  8
POCKET_D0
 70
1
 66
1
  0
VERTEX
  8
POCKET_D0
 10
2740.05
 20
625.00
 30
6.00
  0
VERTEX
  8
POCKET_D0
 10
2740.05
 20
815.00
 30
6.00
 42
-0.414214
  0
VERTEX
  8
POCKET_D0
 10
2750.05
 20
825.00
 30
6.00
  0
VERTEX
  8
POCKET_D0
 10
2880.05
 20
825.00
 30
6.00
 42
-0.414214
  0
VERTEX
  8
POCKET_D0
 10
2890.05
 20
815.00
 30
6.00
  0
VERTEX
  8
POCKET_D0
 10
2890.05
 20
650.00
 30
6.00
  0
VERTEX
  8
POCKET_D0
 10
2890.05
 20
435.00
 30
6.00
 42
-0.414214
  0
VERTEX
  8
POCKET_D0
 10
2880.05
 20
425.00
 30
6.00
  0
VERTEX
  8
POCKET_D0
 10
2750.05
 20
425.00
 30
6.00
 42
-0.414214
  0
VERTEX
  8
POCKET_D0
 10
2740.05
 20
435.00
 30
6.00
  0
VERTEX
  8
POCKET_D0
 10
2740.05
 20
625.00
 30
6.00
  0
SEQEND
  8
POCKET_D0
  0
POLYLINE
  8
ROUT_Z6_D5
 70
0
 66
1
 40
5.00
 41
5.00
  0
VERTEX
  8
ROUT_Z6_D5
 10
2940.05
 20
825.00
 30
6.00
  0
VERTEX
  8
ROUT_Z6_D5
 10
2940.05
 20
425.00
 30
6.00
  0
SEQEND
  8
ROUT_Z6_D5
  0
POLYLINE
  8
BORDER_D0_T128_RK1_A0_W0_RI1_EM1_ID0010
 70
1
 66
1
  0
VERTEX
  8
BORDER_D0_T128_RK1_A0_W0_RI1_EM1_ID0010
 10
365.00
 20
342.17
 30
16.00
  0
VERTEX
  8
BORDER_D0_T128_RK1_A0_W0_RI1_EM1_ID0010
 10
415.00
 20
229.67
 30
16.00
  0
VERTEX
  8
BORDER_D0_T128_RK1_A0_W0_RI1_EM1_ID0010
 10
415.00
 20
79.67
 30
16.00
  0
VERTEX
  8
BORDER_D0_T128_RK1_A0_W0_RI1_EM1_ID0010
 10
215.00
 20
79.67
 30
16.00
  0
VERTEX
  8
BORDER_D0_T128_RK1_A0_W0_RI1_EM1_ID0010
 10
15.00
 20
79.67
 30
16.00
  0
VERTEX
  8
BORDER_D0_T128_RK1_A0_W0_RI1_EM1_ID0010
 10
15.00
 20
229.67
 30
16.00
  0
VERTEX
  8
BORDER_D0_T128_RK1_A0_W0_RI1_EM1_ID0010
 10
15.00
 20
454.68
 30
16.00
  0
VERTEX
  8
BORDER_D0_T128_RK1_A0_W0_RI1_EM1_ID0010
 10
15.00
 20
679.67
 30
16.00
  0
VERTEX
  8
BORDER_D0_T128_RK1_A0_W0_RI1_EM1_ID0010
 10
165.00
 20
679.67
 30
16.00
  0
VERTEX
  8
BORDER_D0_T128_RK1_A0_W0_RI1_EM1_ID0010
 10
265.00
 20
679.67
 30
16.00
  0
VERTEX
  8
BORDER_D0_T128_RK1_A0_W0_RI1_EM1_ID0010
 10
315.00
 20
629.67
 30
16.00
  0
VERTEX
  8
BORDER_D0_T128_RK1_A0_W0_RI1_EM1_ID0010
 10
315.00
 20
454.67
 30
16.00
  0
VERTEX
  8
BORDER_D0_T128_RK1_A0_W0_RI1_EM1_ID0010
 10
365.00
 20
342.17
 30
16.00
  0
SEQEND
  8
BORDER_D0_T128_RK1_A0_W0_RI1_EM1_ID0010
  0
POLYLINE
  8
BORDER_D0_T128_RK1_A0_W0_RI1_EM1_ID0010
 70
1
 66
1
  0
VERTEX
  8
BORDER_D0_T128_RK1_A0_W0_RI1_EM1_ID0010
 10
380.07
 20
417.17
 30
16.00
  0
VERTEX
  8
BORDER_D0_T128_RK1_A0_W0_RI1_EM1_ID0010
 10
330.07
 20
529.67
 30
16.00
  0
VERTEX
  8
BORDER_D0_T128_RK1_A0_W0_RI1_EM1_ID0010
 10
330.07
 20
679.67
 30
16.00
  0
VERTEX
  8
BORDER_D0_T128_RK1_A0_W0_RI1_EM1_ID0010
 10
530.07
 20
679.67
 30
16.00
  0
VERTEX
  8
BORDER_D0_T128_RK1_A0_W0_RI1_EM1_ID0010
 10
730.07
 20
679.67
 30
16.00
  0
VERTEX
  8
BORDER_D0_T128_RK1_A0_W0_RI1_EM1_ID0010
 10
730.07
 20
529.67
 30
16.00
  0
VERTEX
  8
BORDER_D0_T128_RK1_A0_W0_RI1_EM1_ID0010
 10
730.07
 20
304.66
 30
16.00
  0
VERTEX
  8
BORDER_D0_T128_RK1_A0_W0_RI1_EM1_ID0010
 10
730.07
 20
79.67
 30
16.00
  0
VERTEX
  8
BORDER_D0_T128_RK1_A0_W0_RI1_EM1_ID0010
 10
580.07
 20
79.67
 30
16.00
  0
VERTEX
  8
BORDER_D0_T128_RK1_A0_W0_RI1_EM1_ID0010
 10
480.07
 20
79.67
 30
16.00
  0
VERTEX
  8
BORDER_D0_T128_RK1_A0_W0_RI1_EM1_ID0010
 10
430.07
 20
129.67
 30
16.00
  0
VERTEX
  8
BORDER_D0_T128_RK1_A0_W0_RI1_EM1_ID0010
 10
430.07
 20
304.67
 30
16.00
  0
VERTEX
  8
BORDER_D0_T128_RK1_A0_W0_RI1_EM1_ID0010
 10
380.07
 20
417.17
 30
16.00
  0
SEQEND
  8
BORDER_D0_T128_RK1_A0_W0_RI1_EM1_ID0010
  0
POLYLINE
  8
BORDER_D0_T128_RK1_A0_W0_RI1_EM1_ID0002
 70
1
 66
1
  0
VERTEX
  8
BORDER_D0_T128_RK1_A0_W0_RI1_EM1_ID0002
 10
15.00
 20
994.67
 30
16.00
  0
VERTEX
  8
BORDER_D0_T128_RK1_A0_W0_RI1_EM1_ID0002
 10
15.00
 20
1244.67
 30
16.00
 42
-0.414214
  0
VERTEX
  8
BORDER_D0_T128_RK1_A0_W0_RI1_EM1_ID0002
 10
65.00
 20
1294.67
 30
16.00
  0
VERTEX
  8
BORDER_D0_T128_RK1_A0_W0_RI1_EM1_ID0002
 10
265.00
 20
1294.67
 30
16.00
 42
-0.414214
  0
VERTEX
  8
BORDER_D0_T128_RK1_A0_W0_RI1_EM1_ID0002
 10
315.00
 20
1244.67
 30
16.00
  0
VERTEX
  8
BORDER_D0_T128_RK1_A0_W0_RI1_EM1_ID0002
 10
315.00
 20
1144.67
 30
16.00
 42
0.414214
  0
VERTEX
  8
BORDER_D0_T128_RK1_A0_W0_RI1_EM1_ID0002
 10
365.00
 20
1094.67
 30
16.00
  0
VERTEX
  8
BORDER_D0_T128_RK1_A0_W0_RI1_EM1_ID0002
 10
565.00
 20
1094.67
 30
16.00
 42
-0.414214
  0
VERTEX
  8
BORDER_D0_T128_RK1_A0_W0_RI1_EM1_ID0002
 10
615.00
 20
1044.67
 30
16.00
  0
VERTEX
  8
BORDER_D0_T128_RK1_A0_W0_RI1_EM1_ID0002
 10
615.00
 20
944.67
 30
16.00
 42
0.414214
  0
VERTEX
  8
BORDER_D0_T128_RK1_A0_W0_RI1_EM1_ID0002
 10
665.00
 20
894.67
 30
16.00
  0
VERTEX
  8
BORDER_D0_T128_RK1_A0_W0_RI1_EM1_ID0002
 10
865.00
 20
894.67
 30
16.00
 42
-0.414214
  0
VERTEX
  8
BORDER_D0_T128_RK1_A0_W0_RI1_EM1_ID0002
 10
915.00
 20
844.67
 30
16.00
  0
VERTEX
  8
BORDER_D0_T128_RK1_A0_W0_RI1_EM1_ID0002
 10
915.00
 20
744.67
 30
16.00
 42
-0.414214
  0
VERTEX
  8
BORDER_D0_T128_RK1_A0_W0_RI1_EM1_ID0002
 10
865.00
 20
694.67
 30
16.00
  0
VERTEX
  8
BORDER_D0_T128_RK1_A0_W0_RI1_EM1_ID0002
 10
465.00
 20
694.67
 30
16.00
  0
VERTEX
  8
BORDER_D0_T128_RK1_A0_W0_RI1_EM1_ID0002
 10
65.00
 20
694.67
 30
16.00
 42
-0.414214
  0
VERTEX
  8
BORDER_D0_T128_RK1_A0_W0_RI1_EM1_ID0002
 10
15.00
 20
744.67
 30
16.00
  0
VERTEX
  8
BORDER_D0_T128_RK1_A0_W0_RI1_EM1_ID0002
 10
15.00
 20
994.67
 30
16.00
  0
SEQEND
  8
BORDER_D0_T128_RK1_A0_W0_RI1_EM1_ID0002
  0
POLYLINE
  8
BORDER_D0_T128_RK1_A0_W0_RI1_EM1_ID0010
 70
1
 66
1
  0
VERTEX
  8
BORDER_D0_T128_RK1_A0_W0_RI1_EM1_ID0010
 10
795.07
 20
417.17
 30
16.00
  0
VERTEX
  8
BORDER_D0_T128_RK1_A0_W0_RI1_EM1_ID0010
 10
745.07
 20
529.67
 30
16.00
  0
VERTEX
  8
BORDER_D0_T128_RK1_A0_W0_RI1_EM1_ID0010
 10
745.07
 20
679.67
 30
16.00
  0
VERTEX
  8
BORDER_D0_T128_RK1_A0_W0_RI1_EM1_ID0010
 10
945.07
 20
679.67
 30
16.00
  0
VERTEX
  8
BORDER_D0_T128_RK1_A0_W0_RI1_EM1_ID0010
 10
1145.07
 20
679.67
 30
16.00
  0
VERTEX
  8
BORDER_D0_T128_RK1_A0_W0_RI1_EM1_ID0010
 10
1145.07
 20
529.67
 30
16.00
  0
VERTEX
  8
BORDER_D0_T128_RK1_A0_W0_RI1_EM1_ID0010
 10
1145.07
 20
304.66
 30
16.00
  0
VERTEX
  8
BORDER_D0_T128_RK1_A0_W0_RI1_EM1_ID0010
 10
1145.07
 20
79.67
 30
16.00
  0
VERTEX
  8
BORDER_D0_T128_RK1_A0_W0_RI1_EM1_ID0010
 10
995.07
 20
79.67
 30
16.00
  0
VERTEX
  8
BORDER_D0_T128_RK1_A0_W0_RI1_EM1_ID0010
 10
895.07
 20
79.67
 30
16.00
  0
VERTEX
  8
BORDER_D0_T128_RK1_A0_W0_RI1_EM1_ID0010
 10
845.07
 20
129.67
 30
16.00
  0
VERTEX
  8
BORDER_D0_T128_RK1_A0_W0_RI1_EM1_ID0010
 10
845.07
 20
304.67
 30
16.00
  0
VERTEX
  8
BORDER_D0_T128_RK1_A0_W0_RI1_EM1_ID0010
 10
795.07
 20
417.17
 30
16.00
  0
SEQEND
  8
BORDER_D0_T128_RK1_A0_W0_RI1_EM1_ID0010
  0
POLYLINE
  8
BORDER_D0_T128_RK1_A0_W0_RI1_EM1_ID0006
 70
1
 66
1
  0
VERTEX
  8
BORDER_D0_T128_RK1_A0_W0_RI1_EM1_ID0006
 10
1850.07
 20
340.00
 30
16.00
  0
VERTEX
  8
BORDER_D0_T128_RK1_A0_W0_RI1_EM1_ID0006
 10
2080.07
 20
340.00
 30
16.00
  0
VERTEX
  8
BORDER_D0_T128_RK1_A0_W0_RI1_EM1_ID0006
 10
2080.07
 20
210.00
 30
16.00
  0
VERTEX
  8
BORDER_D0_T128_RK1_A0_W0_RI1_EM1_ID0006
 10
1980.07
 20
210.00
 30
16.00
 42
0.211887
  0
VERTEX
  8
BORDER_D0_T128_RK1_A0_W0_RI1_EM1_ID0006
 10
1260.07
 20
210.00
 30
16.00
  0
VERTEX
  8
BORDER_D0_T128_RK1_A0_W0_RI1_EM1_ID0006
 10
1160.07
 20
210.00
 30
16.00
  0
VERTEX
  8
BORDER_D0_T128_RK1_A0_W0_RI1_EM1_ID0006
 10
1160.07
 20
340.00
 30
16.00
  0
VERTEX
  8
BORDER_D0_T128_RK1_A0_W0_RI1_EM1_ID0006
 10
1620.07
 20
340.00
 30
16.00
  0
VERTEX
  8
BORDER_D0_T128_RK1_A0_W0_RI1_EM1_ID0006
 10
1850.07
 20
340.00
 30
16.00
  0
SEQEND
  8
BORDER_D0_T128_RK1_A0_W0_RI1_EM1_ID0006
  0
POLYLINE
  8
BORDER_D0_T128_RK1_A0_W0_RI1_EM1_ID0002
 70
1
 66
1
  0
VERTEX
  8
BORDER_D0_T128_RK1_A0_W0_RI1_EM1_ID0002
 10
944.88
 20
1210.00
 30
16.00
  0
VERTEX
  8
BORDER_D0_T128_RK1_A0_W0_RI1_EM1_ID0002
 10
944.88
 20
960.00
 30
16.00
 42
-0.414214
  0
VERTEX
  8
BORDER_D0_T128_RK1_A0_W0_RI1_EM1_ID0002
 10
894.88
 20
910.00
 30
16.00
  0
VERTEX
  8
BORDER_D0_T128_RK1_A0_W0_RI1_EM1_ID0002
 10
694.88
 20
910.00
 30
16.00
 42
-0.414214
  0
VERTEX
  8
BORDER_D0_T128_RK1_A0_W0_RI1_EM1_ID0002
 10
644.88
 20
960.00
 30
16.00
  0
VERTEX
  8
BORDER_D0_T128_RK1_A0_W0_RI1_EM1_ID0002
 10
644.88
 20
1060.00
 30
16.00
 42
0.414214
  0
VERTEX
  8
BORDER_D0_T128_RK1_A0_W0_RI1_EM1_ID0002
 10
594.88
 20
1110.00
 30
16.00
  0
VERTEX
  8
BORDER_D0_T128_RK1_A0_W0_RI1_EM1_ID0002
 10
394.88
 20
1110.00
 30
16.00
 42
-0.414214
  0
VERTEX
  8
BORDER_D0_T128_RK1_A0_W0_RI1_EM1_ID0002
 10
344.88
 20
1160.00
 30
16.00
  0
VERTEX
  8
BORDER_D0_T128_RK1_A0_W0_RI1_EM1_ID0002
 10
344.88
 20
1260.00
 30
16.00
 42
0.414214
  0
VERTEX
  8
BORDER_D0_T128_RK1_A0_W0_RI1_EM1_ID0002
 10
294.88
 20
1310.00
 30
16.00
  0
VERTEX
  8
BORDER_D0_T128_RK1_A0_W0_RI1_EM1_ID0002
 10
94.88
 20
1310.00
 30
16.00
 42
-0.414214
  0
VERTEX
  8
BORDER_D0_T128_RK1_A0_W0_RI1_EM1_ID0002
 10
44.88
 20
1360.00
 30
16.00
  0
VERTEX
  8
BORDER_D0_T128_RK1_A0_W0_RI1_EM1_ID0002
 10
44.88
 20
1460.00
 30
16.00
 42
-0.414214
  0
VERTEX
  8
BORDER_D0_T128_RK1_A0_W0_RI1_EM1_ID0002
 10
94.88
 20
1510.00
 30
16.00
  0
VERTEX
  8
BORDER_D0_T128_RK1_A0_W0_RI1_EM1_ID0002
 10
494.88
 20
1510.00
 30
16.00
  0
VERTEX
  8
BORDER_D0_T128_RK1_A0_W0_RI1_EM1_ID0002
 10
894.88
 20
1510.00
 30
16.00
 42
-0.414214
  0
VERTEX
  8
BORDER_D0_T128_RK1_A0_W0_RI1_EM1_ID0002
 10
944.88
 20
1460.00
 30
16.00
  0
VERTEX
  8
BORDER_D0_T128_RK1_A0_W0_RI1_EM1_ID0002
 10
944.88
 20
1210.00
 30
16.00
  0
SEQEND
  8
BORDER_D0_T128_RK1_A0_W0_RI1_EM1_ID0002
  0
POLYLINE
  8
BORDER_D0_T128_RK1_A0_W0_RI1_EM1_ID0013
 70
1
 66
1
  0
VERTEX
  8
BORDER_D0_T128_RK1_A0_W0_RI1_EM1_ID0013
 10
1454.88
 20
1225.00
 30
16.00
  0
VERTEX
  8
BORDER_D0_T128_RK1_A0_W0_RI1_EM1_ID0013
 10
1454.88
 20
940.00
 30
16.00
  0
VERTEX
  8
BORDER_D0_T128_RK1_A0_W0_RI1_EM1_ID0013
 10
959.88
 20
940.00
 30
16.00
  0
VERTEX
  8
BORDER_D0_T128_RK1_A0_W0_RI1_EM1_ID0013
 10
959.88
 20
1510.00
 30
16.00
  0
VERTEX
  8
BORDER_D0_T128_RK1_A0_W0_RI1_EM1_ID0013
 10
1207.38
 20
1510.00
 30
16.00
  0
VERTEX
  8
BORDER_D0_T128_RK1_A0_W0_RI1_EM1_ID0013
 10
1454.88
 20
1510.00
 30
16.00
  0
VERTEX
  8
BORDER_D0_T128_RK1_A0_W0_RI1_EM1_ID0013
 10
1454.88
 20
1225.00
 30
16.00
  0
SEQEND
  8
BORDER_D0_T128_RK1_A0_W0_RI1_EM1_ID0013
  0
POLYLINE
  8
BORDER_D0_T128_RK1_A0_W0_RI1_EM1_ID0013
 70
1
 66
1
  0
VERTEX
  8
BORDER_D0_T128_RK1_A0_W0_RI1_EM1_ID0013
 10
1655.07
 20
640.00
 30
16.00
  0
VERTEX
  8
BORDER_D0_T128_RK1_A0_W0_RI1_EM1_ID0013
 10
1655.07
 20
355.00
 30
16.00
  0
VERTEX
  8
BORDER_D0_T128_RK1_A0_W0_RI1_EM1_ID0013
 10
1160.07
 20
355.00
 30
16.00
  0
VERTEX
  8
BORDER_D0_T128_RK1_A0_W0_RI1_EM1_ID0013
 10
1160.07
 20
925.00
 30
16.00
  0
VERTEX
  8
BORDER_D0_T128_RK1_A0_W0_RI1_EM1_ID0013
 10
1407.57
 20
925.00
 30
16.00
  0
VERTEX
  8
BORDER_D0_T128_RK1_A0_W0_RI1_EM1_ID0013
 10
1655.07
 20
925.00
 30
16.00
  0
VERTEX
  8
BORDER_D0_T128_RK1_A0_W0_RI1_EM1_ID0013
 10
1655.07
 20
640.00
 30
16.00
  0
SEQEND
  8
BORDER_D0_T128_RK1_A0_W0_RI1_EM1_ID0013
  0
POLYLINE
  8
BORDER_D0_T128_RK1_A0_W0_RI1_EM1_ID0013
 70
1
 66
1
  0
VERTEX
  8
BORDER_D0_T128_RK1_A0_W0_RI1_EM1_ID0013
 10
2165.05
 20
640.00
 30
16.00
  0
VERTEX
  8
BORDER_D0_T128_RK1_A0_W0_RI1_EM1_ID0013
 10
2165.05
 20
355.00
 30
16.00
  0
VERTEX
  8
BORDER_D0_T128_RK1_A0_W0_RI1_EM1_ID0013
 10
1670.05
 20
355.00
 30
16.00
  0
VERTEX
  8
BORDER_D0_T128_RK1_A0_W0_RI1_EM1_ID0013
 10
1670.05
 20
925.00
 30
16.00
  0
VERTEX
  8
BORDER_D0_T128_RK1_A0_W0_RI1_EM1_ID0013
 10
1917.55
 20
925.00
 30
16.00
  0
VERTEX
  8
BORDER_D0_T128_RK1_A0_W0_RI1_EM1_ID0013
 10
2165.05
 20
925.00
 30
16.00
  0
VERTEX
  8
BORDER_D0_T128_RK1_A0_W0_RI1_EM1_ID0013
 10
2165.05
 20
640.00
 30
16.00
  0
SEQEND
  8
BORDER_D0_T128_RK1_A0_W0_RI1_EM1_ID0013
  0
POLYLINE
  8
BORDER_D0_T128_RK1_A0_W0_RI1_EM1_ID0013
 70
1
 66
1
  0
VERTEX
  8
BORDER_D0_T128_RK1_A0_W0_RI1_EM1_ID0013
 10
1964.88
 20
1225.00
 30
16.00
  0
VERTEX
  8
BORDER_D0_T128_RK1_A0_W0_RI1_EM1_ID0013
 10
1964.88
 20
940.00
 30
16.00
  0
VERTEX
  8
BORDER_D0_T128_RK1_A0_W0_RI1_EM1_ID0013
 10
1469.88
 20
940.00
 30
16.00
  0
VERTEX
  8
BORDER_D0_T128_RK1_A0_W0_RI1_EM1_ID0013
 10
1469.88
 20
1510.00
 30
16.00
  0
VERTEX
  8
BORDER_D0_T128_RK1_A0_W0_RI1_EM1_ID0013
 10
1717.38
 20
1510.00
 30
16.00
  0
VERTEX
  8
BORDER_D0_T128_RK1_A0_W0_RI1_EM1_ID0013
 10
1964.88
 20
1510.00
 30
16.00
  0
VERTEX
  8
BORDER_D0_T128_RK1_A0_W0_RI1_EM1_ID0013
 10
1964.88
 20
1225.00
 30
16.00
  0
SEQEND
  8
BORDER_D0_T128_RK1_A0_W0_RI1_EM1_ID0013
  0
POLYLINE
  8
BORDER_D0_T128_RK1_A0_W0_RI1_EM1_ID0013
 70
1
 66
1
  0
VERTEX
  8
BORDER_D0_T128_RK1_A0_W0_RI1_EM1_ID0013
 10
2474.88
 20
1225.00
 30
16.00
  0
VERTEX
  8
BORDER_D0_T128_RK1_A0_W0_RI1_EM1_ID0013
 10
2474.88
 20
940.00
 30
16.00
  0
VERTEX
  8
BORDER_D0_T128_RK1_A0_W0_RI1_EM1_ID0013
 10
1979.88
 20
940.00
 30
16.00
  0
VERTEX
  8
BORDER_D0_T128_RK1_A0_W0_RI1_EM1_ID0013
 10
1979.88
 20
1510.00
 30
16.00
  0
VERTEX
  8
BORDER_D0_T128_RK1_A0_W0_RI1_EM1_ID0013
 10
2227.38
 20
1510.00
 30
16.00
  0
VERTEX
  8
BORDER_D0_T128_RK1_A0_W0_RI1_EM1_ID0013
 10
2474.88
 20
1510.00
 30
16.00
  0
VERTEX
  8
BORDER_D0_T128_RK1_A0_W0_RI1_EM1_ID0013
 10
2474.88
 20
1225.00
 30
16.00
  0
SEQEND
  8
BORDER_D0_T128_RK1_A0_W0_RI1_EM1_ID0013
  0
POLYLINE
  8
BORDER_D0_T128_RK1_A0_W0_RI1_EM1_ID0013
 70
1
 66
1
  0
VERTEX
  8
BORDER_D0_T128_RK1_A0_W0_RI1_EM1_ID0013
 10
2984.88
 20
1225.00
 30
16.00
  0
VERTEX
  8
BORDER_D0_T128_RK1_A0_W0_RI1_EM1_ID0013
 10
2984.88
 20
940.00
 30
16.00
  0
VERTEX
  8
BORDER_D0_T128_RK1_A0_W0_RI1_EM1_ID0013
 10
2489.88
 20
940.00
 30
16.00
  0
VERTEX
  8
BORDER_D0_T128_RK1_A0_W0_RI1_EM1_ID0013
 10
2489.88
 20
1510.00
 30
16.00
  0
VERTEX
  8
BORDER_D0_T128_RK1_A0_W0_RI1_EM1_ID0013
 10
2737.38
 20
1510.00
 30
16.00
  0
VERTEX
  8
BORDER_D0_T128_RK1_A0_W0_RI1_EM1_ID0013
 10
2984.88
 20
1510.00
 30
16.00
  0
VERTEX
  8
BORDER_D0_T128_RK1_A0_W0_RI1_EM1_ID0013
 10
2984.88
 20
1225.00
 30
16.00
  0
SEQEND
  8
BORDER_D0_T128_RK1_A0_W0_RI1_EM1_ID0013
  0
POLYLINE
  8
BORDER_D0_T128_RK1_A0_W0_RI1_EM1_ID0013
 70
1
 66
1
  0
VERTEX
  8
BORDER_D0_T128_RK1_A0_W0_RI1_EM1_ID0013
 10
2675.05
 20
640.00
 30
16.00
  0
VERTEX
  8
BORDER_D0_T128_RK1_A0_W0_RI1_EM1_ID0013
 10
2675.05
 20
355.00
 30
16.00
  0
VERTEX
  8
BORDER_D0_T128_RK1_A0_W0_RI1_EM1_ID0013
 10
2180.05
 20
355.00
 30
16.00
  0
VERTEX
  8
BORDER_D0_T128_RK1_A0_W0_RI1_EM1_ID0013
 10
2180.05
 20
925.00
 30
16.00
  0
VERTEX
  8
BORDER_D0_T128_RK1_A0_W0_RI1_EM1_ID0013
 10
2427.55
 20
925.00
 30
16.00
  0
VERTEX
  8
BORDER_D0_T128_RK1_A0_W0_RI1_EM1_ID0013
 10
2675.05
 20
925.00
 30
16.00
  0
VERTEX
  8
BORDER_D0_T128_RK1_A0_W0_RI1_EM1_ID0013
 10
2675.05
 20
640.00
 30
16.00
  0
SEQEND
  8
BORDER_D0_T128_RK1_A0_W0_RI1_EM1_ID0013
  0
POLYLINE
  8
BORDER_D0_T128_RK1_A0_W0_RI1_EM1_ID0014
 70
1
 66
1
  0
VERTEX
  8
BORDER_D0_T128_RK1_A0_W0_RI1_EM1_ID0014
 10
2690.05
 20
625.00
 30
16.00
  0
VERTEX
  8
BORDER_D0_T128_RK1_A0_W0_RI1_EM1_ID0014
 10
2690.05
 20
925.00
 30
16.00
  0
VERTEX
  8
BORDER_D0_T128_RK1_A0_W0_RI1_EM1_ID0014
 10
2990.05
 20
925.00
 30
16.00
  0
VERTEX
  8
BORDER_D0_T128_RK1_A0_W0_RI1_EM1_ID0014
 10
2990.05
 20
625.00
 30
16.00
  0
VERTEX
  8
BORDER_D0_T128_RK1_A0_W0_RI1_EM1_ID0014
 10
2990.05
 20
325.00
 30
16.00
  0
VERTEX
  8
BORDER_D0_T128_RK1_A0_W0_RI1_EM1_ID0014
 10
2690.05
 20
325.00
 30
16.00
  0
VERTEX
  8
BORDER_D0_T128_RK1_A0_W0_RI1_EM1_ID0014
 10
2690.05
 20
625.00
 30
16.00
  0
SEQEND
  8
BORDER_D0_T128_RK1_A0_W0_RI1_EM1_ID0014
  0
POLYLINE
  8
BORDER_D0_T128_RK1_A0_W0_RI1_EM1_ID0001
 70
1
 66
1
  0
VERTEX
  8
BORDER_D0_T128_RK1_A0_W0_RI1_EM1_ID0001
 10
2245.07
 20
78.00
 30
16.00
  0
VERTEX
  8
BORDER_D0_T128_RK1_A0_W0_RI1_EM1_ID0001
 10
2095.07
 20
78.00
 30
16.00
  0
VERTEX
  8
BORDER_D0_T128_RK1_A0_W0_RI1_EM1_ID0001
 10
2095.07
 20
340.00
 30
16.00
  0
VERTEX
  8
BORDER_D0_T128_RK1_A0_W0_RI1_EM1_ID0001
 10
2395.07
 20
340.00
 30
16.00
  0
VERTEX
  8
BORDER_D0_T128_RK1_A0_W0_RI1_EM1_ID0001
 10
2395.07
 20
209.00
 30
16.00
  0
VERTEX
  8
BORDER_D0_T128_RK1_A0_W0_RI1_EM1_ID0001
 10
2395.07
 20
78.00
 30
16.00
  0
VERTEX
  8
BORDER_D0_T128_RK1_A0_W0_RI1_EM1_ID0001
 10
2245.07
 20
78.00
 30
16.00
  0
SEQEND
  8
BORDER_D0_T128_RK1_A0_W0_RI1_EM1_ID0001
  0
POLYLINE
  8
BORDER_D0_T128_RK1_A0_W0_RI1_EM1_ID0001
 70
1
 66
1
  0
VERTEX
  8
BORDER_D0_T128_RK1_A0_W0_RI1_EM1_ID0001
 10
2560.07
 20
48.00
 30
16.00
  0
VERTEX
  8
BORDER_D0_T128_RK1_A0_W0_RI1_EM1_ID0001
 10
2410.07
 20
48.00
 30
16.00
  0
VERTEX
  8
BORDER_D0_T128_RK1_A0_W0_RI1_EM1_ID0001
 10
2410.07
 20
310.00
 30
16.00
  0
VERTEX
  8
BORDER_D0_T128_RK1_A0_W0_RI1_EM1_ID0001
 10
2710.07
 20
310.00
 30
16.00
  0
VERTEX
  8
BORDER_D0_T128_RK1_A0_W0_RI1_EM1_ID0001
 10
2710.07
 20
179.00
 30
16.00
  0
VERTEX
  8
BORDER_D0_T128_RK1_A0_W0_RI1_EM1_ID0001
 10
2710.07
 20
48.00
 30
16.00
  0
VERTEX
  8
BORDER_D0_T128_RK1_A0_W0_RI1_EM1_ID0001
 10
2560.07
 20
48.00
 30
16.00
  0
SEQEND
  8
BORDER_D0_T128_RK1_A0_W0_RI1_EM1_ID0001
  0
POLYLINE
  8
BORDER_D0_T128_RK1_A0_W0_RI1_EM1_ID0001
 70
1
 66
1
  0
VERTEX
  8
BORDER_D0_T128_RK1_A0_W0_RI1_EM1_ID0001
 10
2875.07
 20
48.00
 30
16.00
  0
VERTEX
  8
BORDER_D0_T128_RK1_A0_W0_RI1_EM1_ID0001
 10
2725.07
 20
48.00
 30
16.00
  0
VERTEX
  8
BORDER_D0_T128_RK1_A0_W0_RI1_EM1_ID0001
 10
2725.07
 20
310.00
 30
16.00
  0
VERTEX
  8
BORDER_D0_T128_RK1_A0_W0_RI1_EM1_ID0001
 10
3025.07
 20
310.00
 30
16.00
  0
VERTEX
  8
BORDER_D0_T128_RK1_A0_W0_RI1_EM1_ID0001
 10
3025.07
 20
179.00
 30
16.00
  0
VERTEX
  8
BORDER_D0_T128_RK1_A0_W0_RI1_EM1_ID0001
 10
3025.07
 20
48.00
 30
16.00
  0
VERTEX
  8
BORDER_D0_T128_RK1_A0_W0_RI1_EM1_ID0001
 10
2875.07
 20
48.00
 30
16.00
  0
SEQEND
  8
BORDER_D0_T128_RK1_A0_W0_RI1_EM1_ID0001
  0
POLYLINE
  8
BORDER_D0_T128.1_RK1_A0_W0_RI1_EM1_ID0010
 70
1
 66
1
  0
VERTEX
  8
BORDER_D0_T128.1_RK1_A0_W0_RI1_EM1_ID0010
 10
365.00
 20
342.17
 30
18.30
  0
VERTEX
  8
BORDER_D0_T128.1_RK1_A0_W0_RI1_EM1_ID0010
 10
415.00
 20
229.67
 30
18.30
  0
VERTEX
  8
BORDER_D0_T128.1_RK1_A0_W0_RI1_EM1_ID0010
 10
415.00
 20
79.67
 30
18.30
  0
VERTEX
  8
BORDER_D0_T128.1_RK1_A0_W0_RI1_EM1_ID0010
 10
215.00
 20
79.67
 30
18.30
  0
VERTEX
  8
BORDER_D0_T128.1_RK1_A0_W0_RI1_EM1_ID0010
 10
15.00
 20
79.67
 30
18.30
  0
VERTEX
  8
BORDER_D0_T128.1_RK1_A0_W0_RI1_EM1_ID0010
 10
15.00
 20
229.67
 30
18.30
  0
VERTEX
  8
BORDER_D0_T128.1_RK1_A0_W0_RI1_EM1_ID0010
 10
15.00
 20
454.68
 30
18.30
  0
VERTEX
  8
BORDER_D0_T128.1_RK1_A0_W0_RI1_EM1_ID0010
 10
15.00
 20
679.67
 30
18.30
  0
VERTEX
  8
BORDER_D0_T128.1_RK1_A0_W0_RI1_EM1_ID0010
 10
165.00
 20
679.67
 30
18.30
  0
VERTEX
  8
BORDER_D0_T128.1_RK1_A0_W0_RI1_EM1_ID0010
 10
265.00
 20
679.67
 30
18.30
  0
VERTEX
  8
BORDER_D0_T128.1_RK1_A0_W0_RI1_EM1_ID0010
 10
315.00
 20
629.67
 30
18.30
  0
VERTEX
  8
BORDER_D0_T128.1_RK1_A0_W0_RI1_EM1_ID0010
 10
315.00
 20
454.67
 30
18.30
  0
VERTEX
  8
BORDER_D0_T128.1_RK1_A0_W0_RI1_EM1_ID0010
 10
365.00
 20
342.17
 30
18.30
  0
SEQEND
  8
BORDER_D0_T128.1_RK1_A0_W0_RI1_EM1_ID0010
  0
POLYLINE
  8
BORDER_D0_T128.1_RK1_A0_W0_RI1_EM1_ID0010
 70
1
 66
1
  0
VERTEX
  8
BORDER_D0_T128.1_RK1_A0_W0_RI1_EM1_ID0010
 10
380.07
 20
417.17
 30
18.30
  0
VERTEX
  8
BORDER_D0_T128.1_RK1_A0_W0_RI1_EM1_ID0010
 10
330.07
 20
529.67
 30
18.30
  0
VERTEX
  8
BORDER_D0_T128.1_RK1_A0_W0_RI1_EM1_ID0010
 10
330.07
 20
679.67
 30
18.30
  0
VERTEX
  8
BORDER_D0_T128.1_RK1_A0_W0_RI1_EM1_ID0010
 10
530.07
 20
679.67
 30
18.30
  0
VERTEX
  8
BORDER_D0_T128.1_RK1_A0_W0_RI1_EM1_ID0010
 10
730.07
 20
679.67
 30
18.30
  0
VERTEX
  8
BORDER_D0_T128.1_RK1_A0_W0_RI1_EM1_ID0010
 10
730.07
 20
529.67
 30
18.30
  0
VERTEX
  8
BORDER_D0_T128.1_RK1_A0_W0_RI1_EM1_ID0010
 10
730.07
 20
304.66
 30
18.30
  0
VERTEX
  8
BORDER_D0_T128.1_RK1_A0_W0_RI1_EM1_ID0010
 10
730.07
 20
79.67
 30
18.30
  0
VERTEX
  8
BORDER_D0_T128.1_RK1_A0_W0_RI1_EM1_ID0010
 10
580.07
 20
79.67
 30
18.30
  0
VERTEX
  8
BORDER_D0_T128.1_RK1_A0_W0_RI1_EM1_ID0010
 10
480.07
 20
79.67
 30
18.30
  0
VERTEX
  8
BORDER_D0_T128.1_RK1_A0_W0_RI1_EM1_ID0010
 10
430.07
 20
129.67
 30
18.30
  0
VERTEX
  8
BORDER_D0_T128.1_RK1_A0_W0_RI1_EM1_ID0010
 10
430.07
 20
304.67
 30
18.30
  0
VERTEX
  8
BORDER_D0_T128.1_RK1_A0_W0_RI1_EM1_ID0010
 10
380.07
 20
417.17
 30
18.30
  0
SEQEND
  8
BORDER_D0_T128.1_RK1_A0_W0_RI1_EM1_ID0010
  0
POLYLINE
  8
BORDER_D0_T128.1_RK1_A0_W0_RI1_EM1_ID0002
 70
1
 66
1
  0
VERTEX
  8
BORDER_D0_T128.1_RK1_A0_W0_RI1_EM1_ID0002
 10
15.00
 20
994.67
 30
18.30
  0
VERTEX
  8
BORDER_D0_T128.1_RK1_A0_W0_RI1_EM1_ID0002
 10
15.00
 20
1244.67
 30
18.30
 42
-0.414214
  0
VERTEX
  8
BORDER_D0_T128.1_RK1_A0_W0_RI1_EM1_ID0002
 10
65.00
 20
1294.67
 30
18.30
  0
VERTEX
  8
BORDER_D0_T128.1_RK1_A0_W0_RI1_EM1_ID0002
 10
265.00
 20
1294.67
 30
18.30
 42
-0.414214
  0
VERTEX
  8
BORDER_D0_T128.1_RK1_A0_W0_RI1_EM1_ID0002
 10
315.00
 20
1244.67
 30
18.30
  0
VERTEX
  8
BORDER_D0_T128.1_RK1_A0_W0_RI1_EM1_ID0002
 10
315.00
 20
1144.67
 30
18.30
 42
0.414214
  0
VERTEX
  8
BORDER_D0_T128.1_RK1_A0_W0_RI1_EM1_ID0002
 10
365.00
 20
1094.67
 30
18.30
  0
VERTEX
  8
BORDER_D0_T128.1_RK1_A0_W0_RI1_EM1_ID0002
 10
565.00
 20
1094.67
 30
18.30
 42
-0.414214
  0
VERTEX
  8
BORDER_D0_T128.1_RK1_A0_W0_RI1_EM1_ID0002
 10
615.00
 20
1044.67
 30
18.30
  0
VERTEX
  8
BORDER_D0_T128.1_RK1_A0_W0_RI1_EM1_ID0002
 10
615.00
 20
944.67
 30
18.30
 42
0.414214
  0
VERTEX
  8
BORDER_D0_T128.1_RK1_A0_W0_RI1_EM1_ID0002
 10
665.00
 20
894.67
 30
18.30
  0
VERTEX
  8
BORDER_D0_T128.1_RK1_A0_W0_RI1_EM1_ID0002
 10
865.00
 20
894.67
 30
18.30
 42
-0.414214
  0
VERTEX
  8
BORDER_D0_T128.1_RK1_A0_W0_RI1_EM1_ID0002
 10
915.00
 20
844.67
 30
18.30
  0
VERTEX
  8
BORDER_D0_T128.1_RK1_A0_W0_RI1_EM1_ID0002
 10
915.00
 20
744.67
 30
18.30
 42
-0.414214
  0
VERTEX
  8
BORDER_D0_T128.1_RK1_A0_W0_RI1_EM1_ID0002
 10
865.00
 20
694.67
 30
18.30
  0
VERTEX
  8
BORDER_D0_T128.1_RK1_A0_W0_RI1_EM1_ID0002
 10
465.00
 20
694.67
 30
18.30
  0
VERTEX
  8
BORDER_D0_T128.1_RK1_A0_W0_RI1_EM1_ID0002
 10
65.00
 20
694.67
 30
18.30
 42
-0.414214
  0
VERTEX
  8
BORDER_D0_T128.1_RK1_A0_W0_RI1_EM1_ID0002
 10
15.00
 20
744.67
 30
18.30
  0
VERTEX
  8
BORDER_D0_T128.1_RK1_A0_W0_RI1_EM1_ID0002
 10
15.00
 20
994.67
 30
18.30
  0
SEQEND
  8
BORDER_D0_T128.1_RK1_A0_W0_RI1_EM1_ID0002
  0
POLYLINE
  8
BORDER_D0_T128.1_RK1_A0_W0_RI1_EM1_ID0010
 70
1
 66
1
  0
VERTEX
  8
BORDER_D0_T128.1_RK1_A0_W0_RI1_EM1_ID0010
 10
795.07
 20
417.17
 30
18.30
  0
VERTEX
  8
BORDER_D0_T128.1_RK1_A0_W0_RI1_EM1_ID0010
 10
745.07
 20
529.67
 30
18.30
  0
VERTEX
  8
BORDER_D0_T128.1_RK1_A0_W0_RI1_EM1_ID0010
 10
745.07
 20
679.67
 30
18.30
  0
VERTEX
  8
BORDER_D0_T128.1_RK1_A0_W0_RI1_EM1_ID0010
 10
945.07
 20
679.67
 30
18.30
  0
VERTEX
  8
BORDER_D0_T128.1_RK1_A0_W0_RI1_EM1_ID0010
 10
1145.07
 20
679.67
 30
18.30
  0
VERTEX
  8
BORDER_D0_T128.1_RK1_A0_W0_RI1_EM1_ID0010
 10
1145.07
 20
529.67
 30
18.30
  0
VERTEX
  8
BORDER_D0_T128.1_RK1_A0_W0_RI1_EM1_ID0010
 10
1145.07
 20
304.66
 30
18.30
  0
VERTEX
  8
BORDER_D0_T128.1_RK1_A0_W0_RI1_EM1_ID0010
 10
1145.07
 20
79.67
 30
18.30
  0
VERTEX
  8
BORDER_D0_T128.1_RK1_A0_W0_RI1_EM1_ID0010
 10
995.07
 20
79.67
 30
18.30
  0
VERTEX
  8
BORDER_D0_T128.1_RK1_A0_W0_RI1_EM1_ID0010
 10
895.07
 20
79.67
 30
18.30
  0
VERTEX
  8
BORDER_D0_T128.1_RK1_A0_W0_RI1_EM1_ID0010
 10
845.07
 20
129.67
 30
18.30
  0
VERTEX
  8
BORDER_D0_T128.1_RK1_A0_W0_RI1_EM1_ID0010
 10
845.07
 20
304.67
 30
18.30
  0
VERTEX
  8
BORDER_D0_T128.1_RK1_A0_W0_RI1_EM1_ID0010
 10
795.07
 20
417.17
 30
18.30
  0
SEQEND
  8
BORDER_D0_T128.1_RK1_A0_W0_RI1_EM1_ID0010
  0
POLYLINE
  8
BORDER_D0_T128.1_RK1_A0_W0_RI1_EM1_ID0006
 70
1
 66
1
  0
VERTEX
  8
BORDER_D0_T128.1_RK1_A0_W0_RI1_EM1_ID0006
 10
1850.07
 20
340.00
 30
18.30
  0
VERTEX
  8
BORDER_D0_T128.1_RK1_A0_W0_RI1_EM1_ID0006
 10
2080.07
 20
340.00
 30
18.30
  0
VERTEX
  8
BORDER_D0_T128.1_RK1_A0_W0_RI1_EM1_ID0006
 10
2080.07
 20
210.00
 30
18.30
  0
VERTEX
  8
BORDER_D0_T128.1_RK1_A0_W0_RI1_EM1_ID0006
 10
1980.07
 20
210.00
 30
18.30
 42
0.211887
  0
VERTEX
  8
BORDER_D0_T128.1_RK1_A0_W0_RI1_EM1_ID0006
 10
1260.07
 20
210.00
 30
18.30
  0
VERTEX
  8
BORDER_D0_T128.1_RK1_A0_W0_RI1_EM1_ID0006
 10
1160.07
 20
210.00
 30
18.30
  0
VERTEX
  8
BORDER_D0_T128.1_RK1_A0_W0_RI1_EM1_ID0006
 10
1160.07
 20
340.00
 30
18.30
  0
VERTEX
  8
BORDER_D0_T128.1_RK1_A0_W0_RI1_EM1_ID0006
 10
1620.07
 20
340.00
 30
18.30
  0
VERTEX
  8
BORDER_D0_T128.1_RK1_A0_W0_RI1_EM1_ID0006
 10
1850.07
 20
340.00
 30
18.30
  0
SEQEND
  8
BORDER_D0_T128.1_RK1_A0_W0_RI1_EM1_ID0006
  0
POLYLINE
  8
BORDER_D0_T128.1_RK1_A0_W0_RI1_EM1_ID0002
 70
1
 66
1
  0
VERTEX
  8
BORDER_D0_T128.1_RK1_A0_W0_RI1_EM1_ID0002
 10
944.88
 20
1210.00
 30
18.30
  0
VERTEX
  8
BORDER_D0_T128.1_RK1_A0_W0_RI1_EM1_ID0002
 10
944.88
 20
960.00
 30
18.30
 42
-0.414214
  0
VERTEX
  8
BORDER_D0_T128.1_RK1_A0_W0_RI1_EM1_ID0002
 10
894.88
 20
910.00
 30
18.30
  0
VERTEX
  8
BORDER_D0_T128.1_RK1_A0_W0_RI1_EM1_ID0002
 10
694.88
 20
910.00
 30
18.30
 42
-0.414214
  0
VERTEX
  8
BORDER_D0_T128.1_RK1_A0_W0_RI1_EM1_ID0002
 10
644.88
 20
960.00
 30
18.30
  0
VERTEX
  8
BORDER_D0_T128.1_RK1_A0_W0_RI1_EM1_ID0002
 10
644.88
 20
1060.00
 30
18.30
 42
0.414214
  0
VERTEX
  8
BORDER_D0_T128.1_RK1_A0_W0_RI1_EM1_ID0002
 10
594.88
 20
1110.00
 30
18.30
  0
VERTEX
  8
BORDER_D0_T128.1_RK1_A0_W0_RI1_EM1_ID0002
 10
394.88
 20
1110.00
 30
18.30
 42
-0.414214
  0
VERTEX
  8
BORDER_D0_T128.1_RK1_A0_W0_RI1_EM1_ID0002
 10
344.88
 20
1160.00
 30
18.30
  0
VERTEX
  8
BORDER_D0_T128.1_RK1_A0_W0_RI1_EM1_ID0002
 10
344.88
 20
1260.00
 30
18.30
 42
0.414214
  0
VERTEX
  8
BORDER_D0_T128.1_RK1_A0_W0_RI1_EM1_ID0002
 10
294.88
 20
1310.00
 30
18.30
  0
VERTEX
  8
BORDER_D0_T128.1_RK1_A0_W0_RI1_EM1_ID0002
 10
94.88
 20
1310.00
 30
18.30
 42
-0.414214
  0
VERTEX
  8
BORDER_D0_T128.1_RK1_A0_W0_RI1_EM1_ID0002
 10
44.88
 20
1360.00
 30
18.30
  0
VERTEX
  8
BORDER_D0_T128.1_RK1_A0_W0_RI1_EM1_ID0002
 10
44.88
 20
1460.00
 30
18.30
 42
-0.414214
  0
VERTEX
  8
BORDER_D0_T128.1_RK1_A0_W0_RI1_EM1_ID0002
 10
94.88
 20
1510.00
 30
18.30
  0
VERTEX
  8
BORDER_D0_T128.1_RK1_A0_W0_RI1_EM1_ID0002
 10
494.88
 20
1510.00
 30
18.30
  0
VERTEX
  8
BORDER_D0_T128.1_RK1_A0_W0_RI1_EM1_ID0002
 10
894.88
 20
1510.00
 30
18.30
 42
-0.414214
  0
VERTEX
  8
BORDER_D0_T128.1_RK1_A0_W0_RI1_EM1_ID0002
 10
944.88
 20
1460.00
 30
18.30
  0
VERTEX
  8
BORDER_D0_T128.1_RK1_A0_W0_RI1_EM1_ID0002
 10
944.88
 20
1210.00
 30
18.30
  0
SEQEND
  8
BORDER_D0_T128.1_RK1_A0_W0_RI1_EM1_ID0002
  0
POLYLINE
  8
BORDER_D0_T128.1_RK1_A0_W0_RI1_EM1_ID0013
 70
1
 66
1
  0
VERTEX
  8
BORDER_D0_T128.1_RK1_A0_W0_RI1_EM1_ID0013
 10
1454.88
 20
1225.00
 30
18.30
  0
VERTEX
  8
BORDER_D0_T128.1_RK1_A0_W0_RI1_EM1_ID0013
 10
1454.88
 20
940.00
 30
18.30
  0
VERTEX
  8
BORDER_D0_T128.1_RK1_A0_W0_RI1_EM1_ID0013
 10
959.88
 20
940.00
 30
18.30
  0
VERTEX
  8
BORDER_D0_T128.1_RK1_A0_W0_RI1_EM1_ID0013
 10
959.88
 20
1510.00
 30
18.30
  0
VERTEX
  8
BORDER_D0_T128.1_RK1_A0_W0_RI1_EM1_ID0013
 10
1207.38
 20
1510.00
 30
18.30
  0
VERTEX
  8
BORDER_D0_T128.1_RK1_A0_W0_RI1_EM1_ID0013
 10
1454.88
 20
1510.00
 30
18.30
  0
VERTEX
  8
BORDER_D0_T128.1_RK1_A0_W0_RI1_EM1_ID0013
 10
1454.88
 20
1225.00
 30
18.30
  0
SEQEND
  8
BORDER_D0_T128.1_RK1_A0_W0_RI1_EM1_ID0013
  0
POLYLINE
  8
BORDER_D0_T128.1_RK1_A0_W0_RI1_EM1_ID0013
 70
1
 66
1
  0
VERTEX
  8
BORDER_D0_T128.1_RK1_A0_W0_RI1_EM1_ID0013
 10
1655.07
 20
640.00
 30
18.30
  0
VERTEX
  8
BORDER_D0_T128.1_RK1_A0_W0_RI1_EM1_ID0013
 10
1655.07
 20
355.00
 30
18.30
  0
VERTEX
  8
BORDER_D0_T128.1_RK1_A0_W0_RI1_EM1_ID0013
 10
1160.07
 20
355.00
 30
18.30
  0
VERTEX
  8
BORDER_D0_T128.1_RK1_A0_W0_RI1_EM1_ID0013
 10
1160.07
 20
925.00
 30
18.30
  0
VERTEX
  8
BORDER_D0_T128.1_RK1_A0_W0_RI1_EM1_ID0013
 10
1407.57
 20
925.00
 30
18.30
  0
VERTEX
  8
BORDER_D0_T128.1_RK1_A0_W0_RI1_EM1_ID0013
 10
1655.07
 20
925.00
 30
18.30
  0
VERTEX
  8
BORDER_D0_T128.1_RK1_A0_W0_RI1_EM1_ID0013
 10
1655.07
 20
640.00
 30
18.30
  0
SEQEND
  8
BORDER_D0_T128.1_RK1_A0_W0_RI1_EM1_ID0013
  0
POLYLINE
  8
BORDER_D0_T128.1_RK1_A0_W0_RI1_EM1_ID0013
 70
1
 66
1
  0
VERTEX
  8
BORDER_D0_T128.1_RK1_A0_W0_RI1_EM1_ID0013
 10
2165.05
 20
640.00
 30
18.30
  0
VERTEX
  8
BORDER_D0_T128.1_RK1_A0_W0_RI1_EM1_ID0013
 10
2165.05
 20
355.00
 30
18.30
  0
VERTEX
  8
BORDER_D0_T128.1_RK1_A0_W0_RI1_EM1_ID0013
 10
1670.05
 20
355.00
 30
18.30
  0
VERTEX
  8
BORDER_D0_T128.1_RK1_A0_W0_RI1_EM1_ID0013
 10
1670.05
 20
925.00
 30
18.30
  0
VERTEX
  8
BORDER_D0_T128.1_RK1_A0_W0_RI1_EM1_ID0013
 10
1917.55
 20
925.00
 30
18.30
  0
VERTEX
  8
BORDER_D0_T128.1_RK1_A0_W0_RI1_EM1_ID0013
 10
2165.05
 20
925.00
 30
18.30
  0
VERTEX
  8
BORDER_D0_T128.1_RK1_A0_W0_RI1_EM1_ID0013
 10
2165.05
 20
640.00
 30
18.30
  0
SEQEND
  8
BORDER_D0_T128.1_RK1_A0_W0_RI1_EM1_ID0013
  0
POLYLINE
  8
BORDER_D0_T128.1_RK1_A0_W0_RI1_EM1_ID0013
 70
1
 66
1
  0
VERTEX
  8
BORDER_D0_T128.1_RK1_A0_W0_RI1_EM1_ID0013
 10
1964.88
 20
1225.00
 30
18.30
  0
VERTEX
  8
BORDER_D0_T128.1_RK1_A0_W0_RI1_EM1_ID0013
 10
1964.88
 20
940.00
 30
18.30
  0
VERTEX
  8
BORDER_D0_T128.1_RK1_A0_W0_RI1_EM1_ID0013
 10
1469.88
 20
940.00
 30
18.30
  0
VERTEX
  8
BORDER_D0_T128.1_RK1_A0_W0_RI1_EM1_ID0013
 10
1469.88
 20
1510.00
 30
18.30
  0
VERTEX
  8
BORDER_D0_T128.1_RK1_A0_W0_RI1_EM1_ID0013
 10
1717.38
 20
1510.00
 30
18.30
  0
VERTEX
  8
BORDER_D0_T128.1_RK1_A0_W0_RI1_EM1_ID0013
 10
1964.88
 20
1510.00
 30
18.30
  0
VERTEX
  8
BORDER_D0_T128.1_RK1_A0_W0_RI1_EM1_ID0013
 10
1964.88
 20
1225.00
 30
18.30
  0
SEQEND
  8
BORDER_D0_T128.1_RK1_A0_W0_RI1_EM1_ID0013
  0
POLYLINE
  8
BORDER_D0_T128.1_RK1_A0_W0_RI1_EM1_ID0013
 70
1
 66
1
  0
VERTEX
  8
BORDER_D0_T128.1_RK1_A0_W0_RI1_EM1_ID0013
 10
2474.88
 20
1225.00
 30
18.30
  0
VERTEX
  8
BORDER_D0_T128.1_RK1_A0_W0_RI1_EM1_ID0013
 10
2474.88
 20
940.00
 30
18.30
  0
VERTEX
  8
BORDER_D0_T128.1_RK1_A0_W0_RI1_EM1_ID0013
 10
1979.88
 20
940.00
 30
18.30
  0
VERTEX
  8
BORDER_D0_T128.1_RK1_A0_W0_RI1_EM1_ID0013
 10
1979.88
 20
1510.00
 30
18.30
  0
VERTEX
  8
BORDER_D0_T128.1_RK1_A0_W0_RI1_EM1_ID0013
 10
2227.38
 20
1510.00
 30
18.30
  0
VERTEX
  8
BORDER_D0_T128.1_RK1_A0_W0_RI1_EM1_ID0013
 10
2474.88
 20
1510.00
 30
18.30
  0
VERTEX
  8
BORDER_D0_T128.1_RK1_A0_W0_RI1_EM1_ID0013
 10
2474.88
 20
1225.00
 30
18.30
  0
SEQEND
  8
BORDER_D0_T128.1_RK1_A0_W0_RI1_EM1_ID0013
  0
POLYLINE
  8
BORDER_D0_T128.1_RK1_A0_W0_RI1_EM1_ID0013
 70
1
 66
1
  0
VERTEX
  8
BORDER_D0_T128.1_RK1_A0_W0_RI1_EM1_ID0013
 10
2984.88
 20
1225.00
 30
18.30
  0
VERTEX
  8
BORDER_D0_T128.1_RK1_A0_W0_RI1_EM1_ID0013
 10
2984.88
 20
940.00
 30
18.30
  0
VERTEX
  8
BORDER_D0_T128.1_RK1_A0_W0_RI1_EM1_ID0013
 10
2489.88
 20
940.00
 30
18.30
  0
VERTEX
  8
BORDER_D0_T128.1_RK1_A0_W0_RI1_EM1_ID0013
 10
2489.88
 20
1510.00
 30
18.30
  0
VERTEX
  8
BORDER_D0_T128.1_RK1_A0_W0_RI1_EM1_ID0013
 10
2737.38
 20
1510.00
 30
18.30
  0
VERTEX
  8
BORDER_D0_T128.1_RK1_A0_W0_RI1_EM1_ID0013
 10
2984.88
 20
1510.00
 30
18.30
  0
VERTEX
  8
BORDER_D0_T128.1_RK1_A0_W0_RI1_EM1_ID0013
 10
2984.88
 20
1225.00
 30
18.30
  0
SEQEND
  8
BORDER_D0_T128.1_RK1_A0_W0_RI1_EM1_ID0013
  0
POLYLINE
  8
BORDER_D0_T128.1_RK1_A0_W0_RI1_EM1_ID0013
 70
1
 66
1
  0
VERTEX
  8
BORDER_D0_T128.1_RK1_A0_W0_RI1_EM1_ID0013
 10
2675.05
 20
640.00
 30
18.30
  0
VERTEX
  8
BORDER_D0_T128.1_RK1_A0_W0_RI1_EM1_ID0013
 10
2675.05
 20
355.00
 30
18.30
  0
VERTEX
  8
BORDER_D0_T128.1_RK1_A0_W0_RI1_EM1_ID0013
 10
2180.05
 20
355.00
 30
18.30
  0
VERTEX
  8
BORDER_D0_T128.1_RK1_A0_W0_RI1_EM1_ID0013
 10
2180.05
 20
925.00
 30
18.30
  0
VERTEX
  8
BORDER_D0_T128.1_RK1_A0_W0_RI1_EM1_ID0013
 10
2427.55
 20
925.00
 30
18.30
  0
VERTEX
  8
BORDER_D0_T128.1_RK1_A0_W0_RI1_EM1_ID0013
 10
2675.05
 20
925.00
 30
18.30
  0
VERTEX
  8
BORDER_D0_T128.1_RK1_A0_W0_RI1_EM1_ID0013
 10
2675.05
 20
640.00
 30
18.30
  0
SEQEND
  8
BORDER_D0_T128.1_RK1_A0_W0_RI1_EM1_ID0013
  0
POLYLINE
  8
BORDER_D0_T128.1_RK1_A0_W0_RI1_EM1_ID0014
 70
1
 66
1
  0
VERTEX
  8
BORDER_D0_T128.1_RK1_A0_W0_RI1_EM1_ID0014
 10
2690.05
 20
625.00
 30
18.30
  0
VERTEX
  8
BORDER_D0_T128.1_RK1_A0_W0_RI1_EM1_ID0014
 10
2690.05
 20
925.00
 30
18.30
  0
VERTEX
  8
BORDER_D0_T128.1_RK1_A0_W0_RI1_EM1_ID0014
 10
2990.05
 20
925.00
 30
18.30
  0
VERTEX
  8
BORDER_D0_T128.1_RK1_A0_W0_RI1_EM1_ID0014
 10
2990.05
 20
625.00
 30
18.30
  0
VERTEX
  8
BORDER_D0_T128.1_RK1_A0_W0_RI1_EM1_ID0014
 10
2990.05
 20
325.00
 30
18.30
  0
VERTEX
  8
BORDER_D0_T128.1_RK1_A0_W0_RI1_EM1_ID0014
 10
2690.05
 20
325.00
 30
18.30
  0
VERTEX
  8
BORDER_D0_T128.1_RK1_A0_W0_RI1_EM1_ID0014
 10
2690.05
 20
625.00
 30
18.30
  0
SEQEND
  8
BORDER_D0_T128.1_RK1_A0_W0_RI1_EM1_ID0014
  0
POLYLINE
  8
BORDER_D0_T128.1_RK1_A0_W0_RI1_EM1_ID0001
 70
1
 66
1
  0
VERTEX
  8
BORDER_D0_T128.1_RK1_A0_W0_RI1_EM1_ID0001
 10
2245.07
 20
78.00
 30
18.30
  0
VERTEX
  8
BORDER_D0_T128.1_RK1_A0_W0_RI1_EM1_ID0001
 10
2095.07
 20
78.00
 30
18.30
  0
VERTEX
  8
BORDER_D0_T128.1_RK1_A0_W0_RI1_EM1_ID0001
 10
2095.07
 20
340.00
 30
18.30
  0
VERTEX
  8
BORDER_D0_T128.1_RK1_A0_W0_RI1_EM1_ID0001
 10
2395.07
 20
340.00
 30
18.30
  0
VERTEX
  8
BORDER_D0_T128.1_RK1_A0_W0_RI1_EM1_ID0001
 10
2395.07
 20
209.00
 30
18.30
  0
VERTEX
  8
BORDER_D0_T128.1_RK1_A0_W0_RI1_EM1_ID0001
 10
2395.07
 20
78.00
 30
18.30
  0
VERTEX
  8
BORDER_D0_T128.1_RK1_A0_W0_RI1_EM1_ID0001
 10
2245.07
 20
78.00
 30
18.30
  0
SEQEND
  8
BORDER_D0_T128.1_RK1_A0_W0_RI1_EM1_ID0001
  0
POLYLINE
  8
BORDER_D0_T128.1_RK1_A0_W0_RI1_EM1_ID0001
 70
1
 66
1
  0
VERTEX
  8
BORDER_D0_T128.1_RK1_A0_W0_RI1_EM1_ID0001
 10
2560.07
 20
48.00
 30
18.30
  0
VERTEX
  8
BORDER_D0_T128.1_RK1_A0_W0_RI1_EM1_ID0001
 10
2410.07
 20
48.00
 30
18.30
  0
VERTEX
  8
BORDER_D0_T128.1_RK1_A0_W0_RI1_EM1_ID0001
 10
2410.07
 20
310.00
 30
18.30
  0
VERTEX
  8
BORDER_D0_T128.1_RK1_A0_W0_RI1_EM1_ID0001
 10
2710.07
 20
310.00
 30
18.30
  0
VERTEX
  8
BORDER_D0_T128.1_RK1_A0_W0_RI1_EM1_ID0001
 10
2710.07
 20
179.00
 30
18.30
  0
VERTEX
  8
BORDER_D0_T128.1_RK1_A0_W0_RI1_EM1_ID0001
 10
2710.07
 20
48.00
 30
18.30
  0
VERTEX
  8
BORDER_D0_T128.1_RK1_A0_W0_RI1_EM1_ID0001
 10
2560.07
 20
48.00
 30
18.30
  0
SEQEND
  8
BORDER_D0_T128.1_RK1_A0_W0_RI1_EM1_ID0001
  0
POLYLINE
  8
BORDER_D0_T128.1_RK1_A0_W0_RI1_EM1_ID0001
 70
1
 66
1
  0
VERTEX
  8
BORDER_D0_T128.1_RK1_A0_W0_RI1_EM1_ID0001
 10
2875.07
 20
48.00
 30
18.30
  0
VERTEX
  8
BORDER_D0_T128.1_RK1_A0_W0_RI1_EM1_ID0001
 10
2725.07
 20
48.00
 30
18.30
  0
VERTEX
  8
BORDER_D0_T128.1_RK1_A0_W0_RI1_EM1_ID0001
 10
2725.07
 20
310.00
 30
18.30
  0
VERTEX
  8
BORDER_D0_T128.1_RK1_A0_W0_RI1_EM1_ID0001
 10
3025.07
 20
310.00
 30
18.30
  0
VERTEX
  8
BORDER_D0_T128.1_RK1_A0_W0_RI1_EM1_ID0001
 10
3025.07
 20
179.00
 30
18.30
  0
VERTEX
  8
BORDER_D0_T128.1_RK1_A0_W0_RI1_EM1_ID0001
 10
3025.07
 20
48.00
 30
18.30
  0
VERTEX
  8
BORDER_D0_T128.1_RK1_A0_W0_RI1_EM1_ID0001
 10
2875.07
 20
48.00
 30
18.30
  0
SEQEND
  8
BORDER_D0_T128.1_RK1_A0_W0_RI1_EM1_ID0001
  0
ENDSEC
  0
EOF
