  0
SECTION
  2
HEADER
  9
$LTSCALE
 40
30.00
  9
$LIMMIN
 10
-30.50
 20
-45.75
  9
$LIMMAX
 10
3080.50
 20
1631.75
  9
$EXTMIN
 10
-30.50
 20
-45.75
  9
$EXTMAX
 10
3080.50
 20
1631.75
  9
$TEXTSTYLE
  7
txt
  9
$CLAYER
  8
1
  9
$CECOLOR
 62
7
  9
$CELTYPE
  6
CONTINUOUS
  9
$OSMODE
 70
0
  0
ENDSEC
  0
SECTION
  2
TABLES
  0
TABLE
  2
STYLE
 70
1
  0
STYLE
  2
STANDARD
 70
0
 40
1.00
 41
1.00
 50
0.00
 71
0
 42
0.20
  3
txt
  4

  0
ENDTAB
  0
TABLE
  2
LTYPE
 70
1
  0
LTYPE
  2
HIDDEN
 70
64
  3
_ _ _ _ _ _ _ _ _ _ _ _ _ _ _ _ _ _ _ _ _ _
 72
65
 73
2
 40
0.50
 49
0.25
 49
-0.25
  0
ENDTAB
  0
ENDSEC
  0
SECTION
  2
ENTITIES
  0
LINE
  6
CONTINUOUS
  8
FRAME_Z18
 10
0.00
 20
0.00
 30
0.00
 11
3050.00
 21
0.00
 31
0.00
  0
LINE
  6
CONTINUOUS
  8
FRAME_Z18
 10
0.00
 20
1525.00
 30
0.00
 11
3050.00
 21
1525.00
 31
0.00
  0
LINE
  6
CONTINUOUS
  8
FRAME_Z18
 10
0.00
 20
0.00
 30
0.00
 11
0.00
 21
1525.00
 31
0.00
  0
LINE
  6
CONTINUOUS
  8
FRAME_Z18
 10
3050.00
 20
0.00
 30
0.00
 11
3050.00
 21
1525.00
 31
0.00
  0
POLYLINE
  8
OFFCUT_D0_T128.2_RK1_A0_W0_RI1_EM1
 70
0
 66
1
 40
0.00
 41
0.00
  0
VERTEX
  8
OFFCUT_D0_T128.2_RK1_A0_W0_RI1_EM1
 10
480.14
 20
0.00
 30
18.30
  0
VERTEX
  8
OFFCUT_D0_T128.2_RK1_A0_W0_RI1_EM1
 10
480.14
 20
1525.00
 30
18.30
  0
SEQEND
  8
OFFCUT_D0_T128.2_RK1_A0_W0_RI1_EM1
  0
POLYLINE
  8
BORDER_D0_T128_RK1_A0_W0_RI1_EM1_ID0012
 70
1
 66
1
  0
VERTEX
  8
BORDER_D0_T128_RK1_A0_W0_RI1_EM1_ID0012
 10
290.00
 20
140.00
 30
16.00
  0
VERTEX
  8
BORDER_D0_T128_RK1_A0_W0_RI1_EM1_ID0012
 10
445.00
 20
75.00
 30
16.00
 42
-0.222672
  0
VERTEX
  8
BORDER_D0_T128_RK1_A0_W0_RI1_EM1_ID0012
 10
465.00
 20
55.00
 30
16.00
  0
VERTEX
  8
BORDER_D0_T128_RK1_A0_W0_RI1_EM1_ID0012
 10
465.00
 20
35.00
 30
16.00
 42
-0.363997
  0
VERTEX
  8
BORDER_D0_T128_RK1_A0_W0_RI1_EM1_ID0012
 10
445.00
 20
15.00
 30
16.00
  0
VERTEX
  8
BORDER_D0_T128_RK1_A0_W0_RI1_EM1_ID0012
 10
235.00
 20
15.00
 30
16.00
  0
VERTEX
  8
BORDER_D0_T128_RK1_A0_W0_RI1_EM1_ID0012
 10
35.00
 20
15.00
 30
16.00
 42
-0.363997
  0
VERTEX
  8
BORDER_D0_T128_RK1_A0_W0_RI1_EM1_ID0012
 10
15.00
 20
35.00
 30
16.00
  0
VERTEX
  8
BORDER_D0_T128_RK1_A0_W0_RI1_EM1_ID0012
 10
15.00
 20
195.00
 30
16.00
 42
-0.363997
  0
VERTEX
  8
BORDER_D0_T128_RK1_A0_W0_RI1_EM1_ID0012
 10
35.00
 20
215.00
 30
16.00
  0
VERTEX
  8
BORDER_D0_T128_RK1_A0_W0_RI1_EM1_ID0012
 10
85.00
 20
215.00
 30
16.00
 42
-0.132946
  0
VERTEX
  8
BORDER_D0_T128_RK1_A0_W0_RI1_EM1_ID0012
 10
135.00
 20
205.00
 30
16.00
  0
VERTEX
  8
BORDER_D0_T128_RK1_A0_W0_RI1_EM1_ID0012
 10
290.00
 20
140.00
 30
16.00
  0
SEQEND
  8
BORDER_D0_T128_RK1_A0_W0_RI1_EM1_ID0012
  0
POLYLINE
  8
BORDER_D0_T128.1_RK1_A0_W0_RI1_EM1_ID0012
 70
1
 66
1
  0
VERTEX
  8
BORDER_D0_T128.1_RK1_A0_W0_RI1_EM1_ID0012
 10
290.00
 20
140.00
 30
18.30
  0
VERTEX
  8
BORDER_D0_T128.1_RK1_A0_W0_RI1_EM1_ID0012
 10
445.00
 20
75.00
 30
18.30
 42
-0.222672
  0
VERTEX
  8
BORDER_D0_T128.1_RK1_A0_W0_RI1_EM1_ID0012
 10
465.00
 20
55.00
 30
18.30
  0
VERTEX
  8
BORDER_D0_T128.1_RK1_A0_W0_RI1_EM1_ID0012
 10
465.00
 20
35.00
 30
18.30
 42
-0.363997
  0
VERTEX
  8
BORDER_D0_T128.1_RK1_A0_W0_RI1_EM1_ID0012
 10
445.00
 20
15.00
 30
18.30
  0
VERTEX
  8
BORDER_D0_T128.1_RK1_A0_W0_RI1_EM1_ID0012
 10
235.00
 20
15.00
 30
18.30
  0
VERTEX
  8
BORDER_D0_T128.1_RK1_A0_W0_RI1_EM1_ID0012
 10
35.00
 20
15.00
 30
18.30
 42
-0.363997
  0
VERTEX
  8
BORDER_D0_T128.1_RK1_A0_W0_RI1_EM1_ID0012
 10
15.00
 20
35.00
 30
18.30
  0
VERTEX
  8
BORDER_D0_T128.1_RK1_A0_W0_RI1_EM1_ID0012
 10
15.00
 20
195.00
 30
18.30
 42
-0.363997
  0
VERTEX
  8
BORDER_D0_T128.1_RK1_A0_W0_RI1_EM1_ID0012
 10
35.00
 20
215.00
 30
18.30
  0
VERTEX
  8
BORDER_D0_T128.1_RK1_A0_W0_RI1_EM1_ID0012
 10
85.00
 20
215.00
 30
18.30
 42
-0.132946
  0
VERTEX
  8
BORDER_D0_T128.1_RK1_A0_W0_RI1_EM1_ID0012
 10
135.00
 20
205.00
 30
18.30
  0
VERTEX
  8
BORDER_D0_T128.1_RK1_A0_W0_RI1_EM1_ID0012
 10
290.00
 20
140.00
 30
18.30
  0
SEQEND
  8
BORDER_D0_T128.1_RK1_A0_W0_RI1_EM1_ID0012
  0
ENDSEC
  0
EOF
